<svg data-name="Layer 11" xmlns="http://www.w3.org/2000/svg" viewBox="0 0 200 200"><g opacity=".5"><path d="M173.42 73.75l1.48 1.73a5.52 5.52 0 0 0 1.62 1.39c.26.13.23.18-.09.24l-2.23.42a8.15 8.15 0 0 0-2 .61c-.24.11-.3.07-.22-.15.15-.42.49-1.16.75-2.1a8.34 8.34 0 0 0 .38-2c.05-.32.12-.36.31-.14zM172 76.41c-.1.26-.55 1.42-1.11 2.76s-1.19 2.81-1.72 3.83c-1 1.91-2.43 2.28-3.48 1.18a3.71 3.71 0 0 1-.27-.39 3.62 3.62 0 0 1-.36-2.61 4.56 4.56 0 0 1 1.43-2.52 5.81 5.81 0 0 1 3.07-.52 2.5 2.5 0 0 0 2.21-1.27v-.1zm13 3.08a3.78 3.78 0 0 1-.2.43 3.62 3.62 0 0 1-2.09 1.62 4.56 4.56 0 0 1-2.9 0c-.68-.25-1.46-1.45-2-2.4a2.49 2.49 0 0 0-2.25-1.28h-.52.06c.27 0 1.5-.23 2.95-.42s3-.37 4.17-.43c2.13-.01 3.18.99 2.78 2.48zm-10.42-7.92a2.5 2.5 0 0 0 0 2.56v.07l.22.32c-.18-.22-1-1.19-1.84-2.34s-1.84-2.43-2.46-3.4c-1.16-1.81-.76-3.25.73-3.61h.47a3.62 3.62 0 0 1 2.44 1 4.56 4.56 0 0 1 1.47 2.5 5.81 5.81 0 0 1-1.03 2.9zM73.42 73.75l1.48 1.73a5.52 5.52 0 0 0 1.62 1.39c.26.13.23.18-.09.24l-2.23.42a8.15 8.15 0 0 0-2 .61c-.24.11-.3.07-.22-.15.15-.42.49-1.16.75-2.1a8.34 8.34 0 0 0 .38-2c.05-.32.12-.36.31-.14zM72 76.41c-.1.26-.55 1.42-1.11 2.76s-1.22 2.83-1.75 3.89c-1 1.91-2.43 2.28-3.48 1.18a3.71 3.71 0 0 1-.27-.39 3.62 3.62 0 0 1-.39-2.62 4.56 4.56 0 0 1 1.43-2.52 5.81 5.81 0 0 1 3.07-.52 2.5 2.5 0 0 0 2.21-1.27v-.1zm13 3.08a3.78 3.78 0 0 1-.2.43 3.62 3.62 0 0 1-2.09 1.62 4.56 4.56 0 0 1-2.9 0c-.68-.25-1.46-1.45-2-2.4a2.49 2.49 0 0 0-2.25-1.28h-.52.06c.27 0 1.5-.23 2.95-.42s3-.37 4.17-.43C84.35 77 85.4 78 85 79.49zm-10.42-7.92a2.5 2.5 0 0 0 0 2.56v.07l.22.32c-.18-.22-1-1.19-1.84-2.34s-1.84-2.43-2.46-3.4c-1.16-1.81-.76-3.25.73-3.61h.47a3.62 3.62 0 0 1 2.44 1 4.56 4.56 0 0 1 1.47 2.5 5.81 5.81 0 0 1-1.03 2.9zm98.84 102.18l1.48 1.73a5.52 5.52 0 0 0 1.62 1.39c.26.13.23.18-.09.24l-2.23.42a8.15 8.15 0 0 0-2 .61c-.24.11-.3.07-.22-.15.15-.42.49-1.16.75-2.1a8.34 8.34 0 0 0 .38-2c.05-.32.12-.36.31-.14zm-1.42 2.66c-.1.26-.55 1.42-1.11 2.76s-1.19 2.81-1.72 3.83c-1 1.91-2.43 2.28-3.48 1.18a3.71 3.71 0 0 1-.27-.39 3.62 3.62 0 0 1-.36-2.61 4.56 4.56 0 0 1 1.43-2.52 5.81 5.81 0 0 1 3.07-.52 2.5 2.5 0 0 0 2.21-1.27v-.1zm13 3.08a3.78 3.78 0 0 1-.2.43 3.62 3.62 0 0 1-2.09 1.62 4.56 4.56 0 0 1-2.9 0c-.68-.25-1.46-1.45-2-2.4a2.49 2.49 0 0 0-2.25-1.28h-.52.06c.27 0 1.5-.23 2.95-.42s3-.37 4.17-.43c2.13-.01 3.18.99 2.78 2.48zm-10.42-7.92a2.5 2.5 0 0 0 0 2.56v.07l.22.32c-.18-.22-1-1.19-1.84-2.34s-1.84-2.43-2.46-3.4c-1.16-1.81-.76-3.25.73-3.61h.47a3.62 3.62 0 0 1 2.44 1 4.56 4.56 0 0 1 1.47 2.5 5.81 5.81 0 0 1-1.03 2.9zm-101.16 2.18l1.48 1.73a5.52 5.52 0 0 0 1.62 1.39c.26.13.23.18-.09.24l-2.23.42a8.15 8.15 0 0 0-2 .61c-.24.11-.3.07-.22-.15.15-.42.49-1.16.75-2.1a8.34 8.34 0 0 0 .38-2c.05-.32.12-.36.31-.14zM72 176.41c-.1.26-.55 1.42-1.11 2.76s-1.19 2.81-1.72 3.83c-1 1.91-2.43 2.28-3.48 1.18a3.71 3.71 0 0 1-.27-.39 3.62 3.62 0 0 1-.36-2.61 4.56 4.56 0 0 1 1.43-2.52 5.81 5.81 0 0 1 3.07-.52 2.5 2.5 0 0 0 2.21-1.27v-.1zm13 3.08a3.78 3.78 0 0 1-.2.43 3.62 3.62 0 0 1-2.09 1.62 4.56 4.56 0 0 1-2.9 0c-.68-.25-1.46-1.45-2-2.4a2.49 2.49 0 0 0-2.25-1.28h-.52.06c.27 0 1.5-.23 2.95-.42s3-.37 4.17-.43c2.13-.01 3.18.99 2.78 2.48zm-10.42-7.92a2.5 2.5 0 0 0 0 2.56v.07l.22.32c-.18-.22-1-1.19-1.84-2.34s-1.84-2.43-2.46-3.4c-1.16-1.81-.76-3.25.73-3.61h.47a3.62 3.62 0 0 1 2.44 1 4.56 4.56 0 0 1 1.47 2.5 5.81 5.81 0 0 1-1.03 2.9z" opacity=".3" fill="#f8fefe"/><path fill="none" d="M50 50h50v50H50zM0 0h50v50H0zm150 50h50v50h-50zM100 0h50v50h-50zM50 150h50v50H50zM0 100h50v50H0zm150 50h50v50h-50zm-50-50h50v50h-50z"/><path d="M128.55 118.43v-2.94h-3v-2.94a.5.5 0 0 0-1 0v2.94h-3.05v2.94h-2.3v18.43h11.69v-18.43zm0 11.83h-7.1v-1.66h7.1zm0-3.34h-7.1v-1.66h7.1zm0-3.34h-7.1v-1.66h7.1zm0-105.15v-2.94h-3v-2.94a.5.5 0 0 0-1 0v2.94h-3.05v2.94h-2.3v18.42h11.69V18.43zm0 11.83h-7.1v-1.67h7.1zm0-3.34h-7.1v-1.66h7.1zm0-3.34h-7.1v-1.66h7.1zm-100 94.85v-2.94h-3v-2.94a.5.5 0 0 0-1 0v2.94h-3.1v2.94h-2.3v18.43h11.7v-18.43zm0 11.83h-7.1v-1.66h7.1zm0-3.34h-7.1v-1.66h7.1zm0-3.34h-7.1v-1.66h7.1zm0-105.15v-2.94h-3v-2.94a.5.5 0 1 0-1 0v2.94h-3.1v2.94h-2.3v18.42h11.7V18.43zm0 11.83h-7.1v-1.67h7.1zm0-3.34h-7.1v-1.66h7.1zm0-3.34h-7.1v-1.66h7.1z" fill="#f8fefe" opacity=".3"/></g></svg>