<svg data-name="Layer 11" xmlns="http://www.w3.org/2000/svg" viewBox="0 0 200 200"><g opacity=".5"><path d="M77.85 68.29a4.4 4.4 0 0 0 1-3.14A4.32 4.32 0 0 0 76 66.64a4.19 4.19 0 0 0-1 3.05 3.57 3.57 0 0 0 2.85-1.4zm2.43 7.33a4.15 4.15 0 0 1 .47-2 4.7 4.7 0 0 1 1.62-1.77 4.5 4.5 0 0 0-3.54-2c-1.51-.16-2.94.9-3.71.9s-1.94-.88-3.19-.86a4.73 4.73 0 0 0-4 2.47 5.93 5.93 0 0 0-.58 1.49c-.72 2.86.4 6.37 1.81 8.44.81 1.19 1.78 2.54 3.06 2.49S73.9 84 75.38 84s1.9.81 3.2.79 2.15-1.22 3-2.42a11 11 0 0 0 1.34-2.8 4.35 4.35 0 0 1-2.64-3.95zm97.57-7.33a4.4 4.4 0 0 0 1-3.14 4.32 4.32 0 0 0-2.85 1.49 4.19 4.19 0 0 0-1 3.05 3.57 3.57 0 0 0 2.85-1.4zm2.43 7.33a4.15 4.15 0 0 1 .47-2 4.7 4.7 0 0 1 1.62-1.77 4.5 4.5 0 0 0-3.54-2c-1.51-.16-2.94.9-3.71.9s-1.94-.88-3.19-.86a4.73 4.73 0 0 0-4 2.47 5.93 5.93 0 0 0-.58 1.49c-.72 2.86.4 6.37 1.81 8.44.81 1.19 1.78 2.54 3.06 2.49s1.69-.81 3.17-.81 1.9.81 3.2.79 2.15-1.22 3-2.42a11 11 0 0 0 1.34-2.8 4.35 4.35 0 0 1-2.65-3.92zM77.85 168.29a4.4 4.4 0 0 0 1-3.14 4.32 4.32 0 0 0-2.85 1.49 4.19 4.19 0 0 0-1 3.05 3.57 3.57 0 0 0 2.85-1.4zm2.43 7.33a4.15 4.15 0 0 1 .47-2 4.7 4.7 0 0 1 1.62-1.77 4.5 4.5 0 0 0-3.54-2c-1.51-.16-2.94.9-3.71.9s-1.94-.88-3.19-.86a4.73 4.73 0 0 0-4 2.47 5.93 5.93 0 0 0-.58 1.49c-.72 2.86.4 6.37 1.81 8.44.81 1.19 1.78 2.54 3.06 2.49s1.69-.81 3.17-.81 1.9.81 3.2.79 2.15-1.22 3-2.42a11 11 0 0 0 1.34-2.8 4.35 4.35 0 0 1-2.65-3.92zm97.57-7.33a4.4 4.4 0 0 0 1-3.14 4.32 4.32 0 0 0-2.85 1.49 4.19 4.19 0 0 0-1 3.05 3.57 3.57 0 0 0 2.85-1.4zm2.43 7.33a4.15 4.15 0 0 1 .47-2 4.7 4.7 0 0 1 1.62-1.77 4.5 4.5 0 0 0-3.54-2c-1.51-.16-2.94.9-3.71.9s-1.94-.88-3.19-.86a4.73 4.73 0 0 0-4 2.47 5.93 5.93 0 0 0-.58 1.49c-.72 2.86.4 6.37 1.81 8.44.81 1.19 1.78 2.54 3.06 2.49s1.69-.81 3.17-.81 1.9.81 3.2.79 2.15-1.22 3-2.42a11 11 0 0 0 1.34-2.8 4.35 4.35 0 0 1-2.65-3.92z" opacity=".3" fill="#f8fefe"/><path fill="none" d="M50 50h50v50H50zM0 0h50v50H0zm150 50h50v50h-50zM100 0h50v50h-50zM50 150h50v50H50zM0 100h50v50H0zm150 50h50v50h-50zm-50-50h50v50h-50z"/><path d="M18.16 30.07a1 1 0 0 1-.71-.29l-4.64-4.64a1 1 0 0 1 0-1.41l4.64-4.64a1 1 0 0 1 1.41 1.41l-3.93 3.93 3.93 3.93a1 1 0 0 1-.71 1.71zm13.99 0a1 1 0 0 1-.71-1.71l3.93-3.93-3.93-3.93a1 1 0 0 1 1.41-1.41l4.63 4.64a1 1 0 0 1 0 1.41l-4.63 4.64a1 1 0 0 1-.7.29zm-9.66 3.82a1 1 0 0 1-1-1.28l4.96-16.91a1 1 0 0 1 1.92.56l-4.92 16.91a1 1 0 0 1-.96.72zm95.67-3.82a1 1 0 0 1-.71-.29l-4.64-4.64a1 1 0 0 1 0-1.41l4.64-4.64a1 1 0 0 1 1.41 1.41l-3.93 3.93 3.93 3.93a1 1 0 0 1-.71 1.71zm13.99 0a1 1 0 0 1-.71-1.71l3.93-3.93-3.93-3.93a1 1 0 0 1 1.41-1.41l4.63 4.64a1 1 0 0 1 0 1.41l-4.63 4.64a1 1 0 0 1-.7.29zm-9.66 3.82a1 1 0 0 1-1-1.28l4.92-16.91a1 1 0 0 1 1.92.56l-4.92 16.91a1 1 0 0 1-.92.72zM18.16 130.07a1 1 0 0 1-.71-.29l-4.64-4.64a1 1 0 0 1 0-1.41l4.64-4.64a1 1 0 0 1 1.41 1.41l-3.93 3.93 3.93 3.93a1 1 0 0 1-.71 1.71zm13.99 0a1 1 0 0 1-.71-1.71l3.93-3.93-3.93-3.93a1 1 0 0 1 1.41-1.41l4.63 4.64a1 1 0 0 1 0 1.41l-4.63 4.64a1 1 0 0 1-.7.29zm-9.66 3.82a1 1 0 0 1-1-1.28l4.92-16.91a1 1 0 1 1 1.92.56l-4.92 16.91a1 1 0 0 1-.92.72zm95.67-3.82a1 1 0 0 1-.71-.29l-4.64-4.64a1 1 0 0 1 0-1.41l4.64-4.64a1 1 0 0 1 1.41 1.41l-3.93 3.93 3.93 3.93a1 1 0 0 1-.71 1.71zm13.99 0a1 1 0 0 1-.71-1.71l3.93-3.93-3.93-3.93a1 1 0 0 1 1.41-1.41l4.63 4.64a1 1 0 0 1 0 1.41l-4.63 4.64a1 1 0 0 1-.7.29zm-9.66 3.82a1 1 0 0 1-1-1.28l4.92-16.91a1 1 0 1 1 1.92.56l-4.92 16.91a1 1 0 0 1-.92.72z" fill="#fff" opacity=".3"/></g></svg>