<svg data-name="Layer 11" xmlns="http://www.w3.org/2000/svg" viewBox="0 0 200 200"><g opacity=".5"><path d="M84 75a9 9 0 0 0-9-9 1.65 1.65 0 0 0 0 3.29A5.69 5.69 0 0 1 80.68 75h-3.12l4.76 5.68L87.09 75zm-9 5.69A5.69 5.69 0 0 1 69.32 75h3.12l-4.76-5.68L62.91 75H66a9 9 0 0 0 9 9 1.65 1.65 0 1 0 0-3.29zM184 75a9 9 0 0 0-9-9 1.65 1.65 0 0 0 0 3.29 5.69 5.69 0 0 1 5.68 5.71h-3.12l4.76 5.68 4.77-5.68zm-9 5.69a5.69 5.69 0 0 1-5.68-5.69h3.12l-4.76-5.68-4.77 5.68H166a9 9 0 0 0 9 9 1.65 1.65 0 0 0 0-3.29zM84 175a9 9 0 0 0-9-9 1.65 1.65 0 0 0 0 3.29 5.69 5.69 0 0 1 5.68 5.71h-3.12l4.76 5.68 4.77-5.68zm-9 5.69a5.69 5.69 0 0 1-5.68-5.69h3.12l-4.76-5.68-4.77 5.68H66a9 9 0 0 0 9 9 1.65 1.65 0 0 0 0-3.29zM184 175a9 9 0 0 0-9-9 1.65 1.65 0 0 0 0 3.29 5.69 5.69 0 0 1 5.68 5.69h-3.12l4.76 5.68 4.76-5.68zm-9 5.69a5.69 5.69 0 0 1-5.69-5.69h3.12l-4.76-5.68-4.76 5.68H166a9 9 0 0 0 9 9 1.65 1.65 0 0 0 0-3.29z" opacity=".3" fill="#f8fefe"/><path fill="none" d="M50 50h50v50H50zM0 0h50v50H0zm150 50h50v50h-50zM100 0h50v50h-50zM50 150h50v50H50zM0 100h50v50H0zm150 50h50v50h-50zm-50-50h50v50h-50z"/><path d="M18.16 30.07a1 1 0 0 1-.71-.29l-4.64-4.64a1 1 0 0 1 0-1.41l4.64-4.64a1 1 0 0 1 1.41 1.41l-3.93 3.93 3.93 3.93a1 1 0 0 1-.71 1.71zm13.99 0a1 1 0 0 1-.71-1.71l3.93-3.93-3.93-3.93a1 1 0 0 1 1.41-1.41l4.63 4.64a1 1 0 0 1 0 1.41l-4.63 4.64a1 1 0 0 1-.7.29zm-9.66 3.82a1 1 0 0 1-1-1.28l4.96-16.91a1 1 0 0 1 1.92.56l-4.92 16.91a1 1 0 0 1-.96.72zm95.67-3.82a1 1 0 0 1-.71-.29l-4.64-4.64a1 1 0 0 1 0-1.41l4.64-4.64a1 1 0 0 1 1.41 1.41l-3.93 3.93 3.93 3.93a1 1 0 0 1-.71 1.71zm13.99 0a1 1 0 0 1-.71-1.71l3.93-3.93-3.93-3.93a1 1 0 0 1 1.41-1.41l4.63 4.64a1 1 0 0 1 0 1.41l-4.63 4.64a1 1 0 0 1-.7.29zm-9.66 3.82a1 1 0 0 1-1-1.28l4.92-16.91a1 1 0 0 1 1.92.56l-4.92 16.91a1 1 0 0 1-.92.72zM18.16 130.07a1 1 0 0 1-.71-.29l-4.64-4.64a1 1 0 0 1 0-1.41l4.64-4.64a1 1 0 0 1 1.41 1.41l-3.93 3.93 3.93 3.93a1 1 0 0 1-.71 1.71zm13.99 0a1 1 0 0 1-.71-1.71l3.93-3.93-3.93-3.93a1 1 0 0 1 1.41-1.41l4.63 4.64a1 1 0 0 1 0 1.41l-4.63 4.64a1 1 0 0 1-.7.29zm-9.66 3.82a1 1 0 0 1-1-1.28l4.92-16.91a1 1 0 1 1 1.92.56l-4.92 16.91a1 1 0 0 1-.92.72zm95.67-3.82a1 1 0 0 1-.71-.29l-4.64-4.64a1 1 0 0 1 0-1.41l4.64-4.64a1 1 0 0 1 1.41 1.41l-3.93 3.93 3.93 3.93a1 1 0 0 1-.71 1.71zm13.99 0a1 1 0 0 1-.71-1.71l3.93-3.93-3.93-3.93a1 1 0 0 1 1.41-1.41l4.63 4.64a1 1 0 0 1 0 1.41l-4.63 4.64a1 1 0 0 1-.7.29zm-9.66 3.82a1 1 0 0 1-1-1.28l4.92-16.91a1 1 0 1 1 1.92.56l-4.92 16.91a1 1 0 0 1-.92.72z" fill="#fff" opacity=".3"/></g></svg>