<svg data-name="Layer 11" xmlns="http://www.w3.org/2000/svg" viewBox="0 0 200 200"><g opacity=".5"><path d="M183.76 64.77h-17.52a2 2 0 0 0-2 2v10.74a2 2 0 0 0 2 2h8v4.21h-3.83a.75.75 0 0 0 0 1.5h9.15a.75.75 0 1 0 0-1.5h-3.83v-4.21h8a2 2 0 0 0 2-2V66.77a2 2 0 0 0-1.97-2zm-100 0H66.24a2 2 0 0 0-2 2v10.74a2 2 0 0 0 2 2h8v4.21h-3.82a.75.75 0 0 0 0 1.5h9.15a.75.75 0 0 0 0-1.5h-3.82v-4.21h8a2 2 0 0 0 2-2V66.77a2 2 0 0 0-1.99-2zm0 100H66.24a2 2 0 0 0-2 2v10.74a2 2 0 0 0 2 2h8v4.21h-3.82a.75.75 0 0 0 0 1.5h9.15a.75.75 0 0 0 0-1.5h-3.82v-4.21h8a2 2 0 0 0 2-2v-10.74a2 2 0 0 0-1.99-2zm100 0h-17.52a2 2 0 0 0-2 2v10.74a2 2 0 0 0 2 2h8v4.21h-3.83a.75.75 0 0 0 0 1.5h9.15a.75.75 0 0 0 0-1.5h-3.83v-4.21h8a2 2 0 0 0 2-2v-10.74a2 2 0 0 0-1.97-2z" fill="#f8fefe" opacity=".3"/><path fill="none" d="M50 50h50v50H50zM0 0h50v50H0zm150 50h50v50h-50zM100 0h50v50h-50zM50 150h50v50H50zM0 100h50v50H0zm150 50h50v50h-50zm-50-50h50v50h-50z"/><path d="M18.16 30.07a1 1 0 0 1-.71-.29l-4.64-4.64a1 1 0 0 1 0-1.41l4.64-4.64a1 1 0 0 1 1.41 1.41l-3.93 3.93 3.93 3.93a1 1 0 0 1-.71 1.71zm13.99 0a1 1 0 0 1-.71-1.71l3.93-3.93-3.93-3.93a1 1 0 0 1 1.41-1.41l4.63 4.64a1 1 0 0 1 0 1.41l-4.63 4.64a1 1 0 0 1-.7.29zm-9.66 3.82a1 1 0 0 1-1-1.28l4.96-16.91a1 1 0 0 1 1.92.56l-4.92 16.91a1 1 0 0 1-.96.72zm95.67-3.82a1 1 0 0 1-.71-.29l-4.64-4.64a1 1 0 0 1 0-1.41l4.64-4.64a1 1 0 0 1 1.41 1.41l-3.93 3.93 3.93 3.93a1 1 0 0 1-.71 1.71zm13.99 0a1 1 0 0 1-.71-1.71l3.93-3.93-3.93-3.93a1 1 0 0 1 1.41-1.41l4.63 4.64a1 1 0 0 1 0 1.41l-4.63 4.64a1 1 0 0 1-.7.29zm-9.66 3.82a1 1 0 0 1-1-1.28l4.92-16.91a1 1 0 0 1 1.92.56l-4.92 16.91a1 1 0 0 1-.92.72zM18.16 130.07a1 1 0 0 1-.71-.29l-4.64-4.64a1 1 0 0 1 0-1.41l4.64-4.64a1 1 0 0 1 1.41 1.41l-3.93 3.93 3.93 3.93a1 1 0 0 1-.71 1.71zm13.99 0a1 1 0 0 1-.71-1.71l3.93-3.93-3.93-3.93a1 1 0 0 1 1.41-1.41l4.63 4.64a1 1 0 0 1 0 1.41l-4.63 4.64a1 1 0 0 1-.7.29zm-9.66 3.82a1 1 0 0 1-1-1.28l4.92-16.91a1 1 0 1 1 1.92.56l-4.92 16.91a1 1 0 0 1-.92.72zm95.67-3.82a1 1 0 0 1-.71-.29l-4.64-4.64a1 1 0 0 1 0-1.41l4.64-4.64a1 1 0 0 1 1.41 1.41l-3.93 3.93 3.93 3.93a1 1 0 0 1-.71 1.71zm13.99 0a1 1 0 0 1-.71-1.71l3.93-3.93-3.93-3.93a1 1 0 0 1 1.41-1.41l4.63 4.64a1 1 0 0 1 0 1.41l-4.63 4.64a1 1 0 0 1-.7.29zm-9.66 3.82a1 1 0 0 1-1-1.28l4.92-16.91a1 1 0 1 1 1.92.56l-4.92 16.91a1 1 0 0 1-.92.72z" fill="#fff" opacity=".3"/></g></svg>