<svg data-name="Layer 11" xmlns="http://www.w3.org/2000/svg" viewBox="0 0 200 200"><g opacity=".5"><path d="M67.77 72.32a.92.92 0 0 0-.92.92v4.46a.92.92 0 1 0 1.84 0v-4.46a.92.92 0 0 0-.92-.92zm14.46 0a.92.92 0 0 0-.92.92v4.46a.92.92 0 1 0 1.85 0v-4.46a.92.92 0 0 0-.93-.92zm-12.71 0v8.26A1.38 1.38 0 0 0 70.9 82h1.48v2.3a.92.92 0 0 0 1.85 0V82h1.57v2.3a.92.92 0 1 0 1.84 0V82h1.48a1.38 1.38 0 0 0 1.38-1.38v-8.27zm8.17-5.6l1-1.84-.2-.11-1 1.84a5.46 5.46 0 0 0-4.84-.06l-1-1.78-.2.11 1 1.77a5.47 5.47 0 0 0-2.88 4.78h10.89a5.46 5.46 0 0 0-2.77-4.71zm-5.49 2.61a.52.52 0 1 1 .52-.52.52.52 0 0 1-.52.52zm5.53 0a.52.52 0 1 1 .52-.52.52.52 0 0 1-.52.52zm90.04 2.99a.92.92 0 0 0-.92.92v4.46a.92.92 0 1 0 1.84 0v-4.46a.92.92 0 0 0-.92-.92zm14.46 0a.92.92 0 0 0-.92.92v4.46a.92.92 0 1 0 1.85 0v-4.46a.92.92 0 0 0-.93-.92zm-12.71 0v8.26A1.38 1.38 0 0 0 170.9 82h1.48v2.3a.92.92 0 0 0 1.85 0V82h1.57v2.3a.92.92 0 1 0 1.84 0V82h1.48a1.38 1.38 0 0 0 1.38-1.38v-8.27zm8.17-5.6l1-1.84-.2-.11-1 1.84a5.46 5.46 0 0 0-4.84-.06l-1-1.78-.2.11 1 1.77a5.47 5.47 0 0 0-2.88 4.78h10.91a5.46 5.46 0 0 0-2.79-4.71zm-5.49 2.61a.52.52 0 1 1 .52-.52.52.52 0 0 1-.52.52zm5.53 0a.52.52 0 1 1 .52-.52.52.52 0 0 1-.52.52zM67.77 172.32a.92.92 0 0 0-.92.92v4.46a.92.92 0 1 0 1.84 0v-4.46a.92.92 0 0 0-.92-.92zm14.46 0a.92.92 0 0 0-.92.92v4.46a.92.92 0 1 0 1.85 0v-4.46a.92.92 0 0 0-.93-.92zm-12.71 0v8.26A1.38 1.38 0 0 0 70.9 182h1.48v2.34a.92.92 0 0 0 1.85 0V182h1.57v2.34a.92.92 0 1 0 1.84 0V182h1.48a1.38 1.38 0 0 0 1.38-1.38v-8.22zm8.17-5.6l1-1.84-.2-.11-1 1.84a5.46 5.46 0 0 0-4.84-.06l-1-1.78-.2.11 1 1.77a5.47 5.47 0 0 0-2.88 4.78h10.89a5.46 5.46 0 0 0-2.77-4.71zm-5.49 2.61a.52.52 0 1 1 .52-.52.52.52 0 0 1-.52.52zm5.53 0a.52.52 0 1 1 .52-.52.52.52 0 0 1-.52.52zm90.04 2.99a.92.92 0 0 0-.92.92v4.46a.92.92 0 1 0 1.84 0v-4.46a.92.92 0 0 0-.92-.92zm14.46 0a.92.92 0 0 0-.92.92v4.46a.92.92 0 1 0 1.85 0v-4.46a.92.92 0 0 0-.93-.92zm-12.71 0v8.26a1.38 1.38 0 0 0 1.38 1.42h1.48v2.34a.92.92 0 0 0 1.85 0V182h1.57v2.34a.92.92 0 1 0 1.84 0V182h1.48a1.38 1.38 0 0 0 1.38-1.38v-8.22zm8.17-5.6l1-1.84-.2-.11-1 1.84a5.46 5.46 0 0 0-4.84-.06l-1-1.78-.2.11 1 1.77a5.47 5.47 0 0 0-2.88 4.78h10.91a5.46 5.46 0 0 0-2.79-4.71zm-5.49 2.61a.52.52 0 1 1 .52-.52.52.52 0 0 1-.52.52zm5.53 0a.52.52 0 1 1 .52-.52.52.52 0 0 1-.52.52z" opacity=".3" fill="#f8fefe"/><path fill="none" d="M50 50h50v50H50zM0 0h50v50H0zm150 50h50v50h-50zM100 0h50v50h-50zM50 150h50v50H50zM0 100h50v50H0zm150 50h50v50h-50zm-50-50h50v50h-50z"/><path d="M18.16 30.07a1 1 0 0 1-.71-.29l-4.64-4.64a1 1 0 0 1 0-1.41l4.64-4.64a1 1 0 0 1 1.41 1.41l-3.93 3.93 3.93 3.93a1 1 0 0 1-.71 1.71zm13.99 0a1 1 0 0 1-.71-1.71l3.93-3.93-3.93-3.93a1 1 0 0 1 1.41-1.41l4.63 4.64a1 1 0 0 1 0 1.41l-4.63 4.64a1 1 0 0 1-.7.29zm-9.66 3.82a1 1 0 0 1-1-1.28l4.96-16.91a1 1 0 0 1 1.92.56l-4.92 16.91a1 1 0 0 1-.96.72zm95.67-3.82a1 1 0 0 1-.71-.29l-4.64-4.64a1 1 0 0 1 0-1.41l4.64-4.64a1 1 0 0 1 1.41 1.41l-3.93 3.93 3.93 3.93a1 1 0 0 1-.71 1.71zm13.99 0a1 1 0 0 1-.71-1.71l3.93-3.93-3.93-3.93a1 1 0 0 1 1.41-1.41l4.63 4.64a1 1 0 0 1 0 1.41l-4.63 4.64a1 1 0 0 1-.7.29zm-9.66 3.82a1 1 0 0 1-1-1.28l4.92-16.91a1 1 0 0 1 1.92.56l-4.92 16.91a1 1 0 0 1-.92.72zM18.16 130.07a1 1 0 0 1-.71-.29l-4.64-4.64a1 1 0 0 1 0-1.41l4.64-4.64a1 1 0 0 1 1.41 1.41l-3.93 3.93 3.93 3.93a1 1 0 0 1-.71 1.71zm13.99 0a1 1 0 0 1-.71-1.71l3.93-3.93-3.93-3.93a1 1 0 0 1 1.41-1.41l4.63 4.64a1 1 0 0 1 0 1.41l-4.63 4.64a1 1 0 0 1-.7.29zm-9.66 3.82a1 1 0 0 1-1-1.28l4.92-16.91a1 1 0 1 1 1.92.56l-4.92 16.91a1 1 0 0 1-.92.72zm95.67-3.82a1 1 0 0 1-.71-.29l-4.64-4.64a1 1 0 0 1 0-1.41l4.64-4.64a1 1 0 0 1 1.41 1.41l-3.93 3.93 3.93 3.93a1 1 0 0 1-.71 1.71zm13.99 0a1 1 0 0 1-.71-1.71l3.93-3.93-3.93-3.93a1 1 0 0 1 1.41-1.41l4.63 4.64a1 1 0 0 1 0 1.41l-4.63 4.64a1 1 0 0 1-.7.29zm-9.66 3.82a1 1 0 0 1-1-1.28l4.92-16.91a1 1 0 1 1 1.92.56l-4.92 16.91a1 1 0 0 1-.92.72z" fill="#fff" opacity=".3"/></g></svg>