<svg xmlns="http://www.w3.org/2000/svg" viewBox="0 0 200 200"><g data-name="Layer 2"><path fill="#40abe6" d="M0 0h200v200H0z" data-name="Backgrounds"/><g data-name="Patterns"><path fill="none" d="M50 50h50v50H50zM0 0h50v50H0zm150 50h50v50h-50zM100 0h50v50h-50zM50 150h50v50H50zM0 100h50v50H0zm150 50h50v50h-50zm-50-50h50v50h-50z"/><path d="M18.16 30.07a1 1 0 0 1-.71-.29l-4.64-4.64a1 1 0 0 1 0-1.41l4.64-4.64a1 1 0 0 1 1.41 1.41l-3.93 3.93 3.93 3.93a1 1 0 0 1-.71 1.71zm13.99 0a1 1 0 0 1-.71-1.71l3.93-3.93-3.93-3.93a1 1 0 0 1 1.41-1.41l4.63 4.64a1 1 0 0 1 0 1.41l-4.63 4.64a1 1 0 0 1-.7.29zm-9.66 3.82a1 1 0 0 1-1-1.28l4.96-16.91a1 1 0 0 1 1.92.56l-4.92 16.91a1 1 0 0 1-.96.72zm95.67-3.82a1 1 0 0 1-.71-.29l-4.64-4.64a1 1 0 0 1 0-1.41l4.64-4.64a1 1 0 0 1 1.41 1.41l-3.93 3.93 3.93 3.93a1 1 0 0 1-.71 1.71zm13.99 0a1 1 0 0 1-.71-1.71l3.93-3.93-3.93-3.93a1 1 0 0 1 1.41-1.41l4.63 4.64a1 1 0 0 1 0 1.41l-4.63 4.64a1 1 0 0 1-.7.29zm-9.66 3.82a1 1 0 0 1-1-1.28l4.92-16.91a1 1 0 0 1 1.92.56l-4.92 16.91a1 1 0 0 1-.92.72zM18.16 130.07a1 1 0 0 1-.71-.29l-4.64-4.64a1 1 0 0 1 0-1.41l4.64-4.64a1 1 0 0 1 1.41 1.41l-3.93 3.93 3.93 3.93a1 1 0 0 1-.71 1.71zm13.99 0a1 1 0 0 1-.71-1.71l3.93-3.93-3.93-3.93a1 1 0 0 1 1.41-1.41l4.63 4.64a1 1 0 0 1 0 1.41l-4.63 4.64a1 1 0 0 1-.7.29zm-9.66 3.82a1 1 0 0 1-1-1.28l4.92-16.91a1 1 0 1 1 1.92.56l-4.92 16.91a1 1 0 0 1-.92.72zm95.67-3.82a1 1 0 0 1-.71-.29l-4.64-4.64a1 1 0 0 1 0-1.41l4.64-4.64a1 1 0 0 1 1.41 1.41l-3.93 3.93 3.93 3.93a1 1 0 0 1-.71 1.71zm13.99 0a1 1 0 0 1-.71-1.71l3.93-3.93-3.93-3.93a1 1 0 0 1 1.41-1.41l4.63 4.64a1 1 0 0 1 0 1.41l-4.63 4.64a1 1 0 0 1-.7.29zm-9.66 3.82a1 1 0 0 1-1-1.28l4.92-16.91a1 1 0 1 1 1.92.56l-4.92 16.91a1 1 0 0 1-.92.72z" fill="#fff" opacity=".3"/><g data-name="Layer_1"><g data-name="26257872464" fill="#f8fefe" opacity=".3"><path data-name="path5" d="M74.18 66.78c3.5-.57 7.08-1.07 10.58-1.57v9.29c-3.5 0-7.08.07-10.58.07v-7.79z"/><path data-name="path7" d="M65.24 68c2.64-.43 5.29-.79 8-1.07v7.65c-2.72 0-5.36.07-8 .07V68z"/><path data-name="path29" d="M65.24 75.43c2.64 0 5.29.07 8 0v7.72l-8-1.07z"/><path data-name="path31" d="M74.18 75.5h10.58v9.29c-3.5-.57-7.08-1-10.58-1.5V75.5z"/></g></g><g data-name="Layer_1"><g data-name="26257872464" fill="#f8fefe" opacity=".3"><path data-name="path5" d="M74.18 166.78c3.5-.57 7.08-1.07 10.58-1.57v9.29c-3.5 0-7.08.07-10.58.07v-7.79z"/><path data-name="path7" d="M65.24 168c2.64-.43 5.29-.79 8-1.07v7.65c-2.72 0-5.36.07-8 .07V168z"/><path data-name="path29" d="M65.24 175.43c2.64 0 5.29.07 8 0v7.72l-8-1.07z"/><path data-name="path31" d="M74.18 175.5h10.58v9.29c-3.5-.57-7.08-1-10.58-1.5v-7.79z"/></g></g><g data-name="Layer_1"><g data-name="26257872464" fill="#f8fefe" opacity=".3"><path data-name="path5" d="M174.18 166.78c3.5-.57 7.08-1.07 10.58-1.57v9.29c-3.5 0-7.08.07-10.58.07v-7.79z"/><path data-name="path7" d="M165.24 168c2.64-.43 5.29-.79 8-1.07v7.65c-2.72 0-5.36.07-8 .07V168z"/><path data-name="path29" d="M165.24 175.43c2.64 0 5.29.07 8 0v7.72l-8-1.07z"/><path data-name="path31" d="M174.18 175.5h10.58v9.29c-3.5-.57-7.08-1-10.58-1.5v-7.79z"/></g></g><g data-name="Layer_1"><g data-name="26257872464" fill="#f8fefe" opacity=".3"><path data-name="path5" d="M174.18 65.13c3.5-.57 7.08-1.07 10.58-1.57v9.29c-3.5 0-7.08.07-10.58.07v-7.79z"/><path data-name="path7" d="M165.24 66.34c2.64-.43 5.29-.79 8-1.07v7.65c-2.72 0-5.36.07-8 .07v-6.65z"/><path data-name="path29" d="M165.24 73.78c2.64 0 5.29.07 8 0v7.72l-8-1.07z"/><path data-name="path31" d="M174.18 73.85h10.58v9.29c-3.5-.57-7.08-1-10.58-1.5v-7.79z"/></g></g></g></g></svg>