<svg data-name="Layer 11" xmlns="http://www.w3.org/2000/svg" viewBox="0 0 200 200"><g opacity=".5"><path fill="#f8fefe" opacity=".3" d="M19.76 19.44l10.33 10.33-8.59 2.07-4.17 4.17-3.81-3.81 4.18-4.17 2.06-8.59z"/><path d="M29.44 24.61h-.19a.75.75 0 0 1-.53-.92A2.23 2.23 0 0 0 26 20.94a.75.75 0 0 1-.39-1.45A3.73 3.73 0 0 1 30.16 24a.75.75 0 0 1-.72.61z" fill="#fff" opacity=".3"/><path d="M32.92 25.17h-.19a.75.75 0 0 1-.53-.92 5.53 5.53 0 0 0-6.77-6.77A.75.75 0 0 1 25 16a7 7 0 0 1 8.61 8.61.75.75 0 0 1-.69.56z" fill="#fff" opacity=".3"/><path d="M36.46 25.67h-.19a.75.75 0 0 1-.53-.92 8.83 8.83 0 0 0-10.82-10.84.75.75 0 0 1-.39-1.45 10.33 10.33 0 0 1 12.66 12.66.75.75 0 0 1-.73.55z" fill="#fff" opacity=".3"/><path fill="#f8fefe" opacity=".3" d="M119.76 19.44l10.33 10.33-8.59 2.07-4.17 4.17-3.81-3.81 4.17-4.17 2.07-8.59z"/><path d="M129.44 24.61h-.19a.75.75 0 0 1-.53-.92 2.23 2.23 0 0 0-2.72-2.75.75.75 0 1 1-.39-1.45 3.73 3.73 0 0 1 4.55 4.51.75.75 0 0 1-.72.61z" fill="#fff" opacity=".3"/><path d="M132.92 25.17h-.19a.75.75 0 0 1-.53-.92 5.53 5.53 0 0 0-6.77-6.77A.75.75 0 1 1 125 16a7 7 0 0 1 8.61 8.61.75.75 0 0 1-.69.56z" fill="#fff" opacity=".3"/><path d="M136.46 25.67h-.19a.75.75 0 0 1-.53-.92 8.83 8.83 0 0 0-10.82-10.82.75.75 0 1 1-.39-1.45 10.33 10.33 0 0 1 12.65 12.65.75.75 0 0 1-.72.54z" fill="#fff" opacity=".3"/><path fill="#f8fefe" opacity=".3" d="M19.76 119.44l10.33 10.32-8.59 2.08-4.17 4.17-3.81-3.81 4.18-4.17 2.06-8.59z"/><path d="M29.44 124.61h-.19a.75.75 0 0 1-.53-.92 2.23 2.23 0 0 0-2.72-2.75.75.75 0 1 1-.39-1.45 3.73 3.73 0 0 1 4.55 4.51.75.75 0 0 1-.72.61z" fill="#fff" opacity=".3"/><path d="M32.92 125.17h-.19a.75.75 0 0 1-.53-.92 5.53 5.53 0 0 0-6.77-6.77A.75.75 0 0 1 25 116a7 7 0 0 1 8.61 8.61.75.75 0 0 1-.69.56z" fill="#fff" opacity=".3"/><path d="M36.46 125.67h-.19a.75.75 0 0 1-.53-.92 8.83 8.83 0 0 0-10.82-10.82.75.75 0 1 1-.39-1.45 10.33 10.33 0 0 1 12.65 12.65.75.75 0 0 1-.72.54z" fill="#fff" opacity=".3"/><path fill="#f8fefe" opacity=".3" d="M119.76 119.44l10.33 10.32-8.59 2.08-4.17 4.17-3.81-3.81 4.17-4.17 2.07-8.59z"/><path d="M129.44 124.61h-.19a.75.75 0 0 1-.53-.92 2.23 2.23 0 0 0-2.73-2.73.75.75 0 1 1-.39-1.45 3.73 3.73 0 0 1 4.56 4.56.75.75 0 0 1-.72.54z" fill="#fff" opacity=".3"/><path d="M132.92 125.17h-.19a.75.75 0 0 1-.53-.92 5.53 5.53 0 0 0-6.77-6.77.75.75 0 1 1-.43-1.48 7 7 0 0 1 8.61 8.61.75.75 0 0 1-.69.56z" fill="#fff" opacity=".3"/><path d="M136.46 125.67h-.19a.75.75 0 0 1-.53-.92 8.83 8.83 0 0 0-10.82-10.82.75.75 0 1 1-.39-1.45 10.33 10.33 0 0 1 12.65 12.65.75.75 0 0 1-.72.54z" fill="#fff" opacity=".3"/><path fill="none" d="M50 50h50v50H50zM0 0h50v50H0zm150 50h50v50h-50zM100 0h50v50h-50zM50 150h50v50H50zM0 100h50v50H0zm150 50h50v50h-50zm-50-50h50v50h-50z"/><path d="M84 75a9 9 0 0 0-9-9 1.65 1.65 0 0 0 0 3.29A5.69 5.69 0 0 1 80.68 75h-3.12l4.76 5.68L87.09 75zm-9 5.69A5.69 5.69 0 0 1 69.32 75h3.12l-4.76-5.68L62.91 75H66a9 9 0 0 0 9 9 1.65 1.65 0 1 0 0-3.29zM184 75a9 9 0 0 0-9-9 1.65 1.65 0 0 0 0 3.29 5.69 5.69 0 0 1 5.68 5.71h-3.12l4.76 5.68 4.77-5.68zm-9 5.69a5.69 5.69 0 0 1-5.68-5.69h3.12l-4.76-5.68-4.77 5.68H166a9 9 0 0 0 9 9 1.65 1.65 0 0 0 0-3.29zM84 175a9 9 0 0 0-9-9 1.65 1.65 0 0 0 0 3.29 5.69 5.69 0 0 1 5.68 5.71h-3.12l4.76 5.68 4.77-5.68zm-9 5.69a5.69 5.69 0 0 1-5.68-5.69h3.12l-4.76-5.68-4.77 5.68H66a9 9 0 0 0 9 9 1.65 1.65 0 0 0 0-3.29zM184 175a9 9 0 0 0-9-9 1.65 1.65 0 0 0 0 3.29 5.69 5.69 0 0 1 5.68 5.69h-3.12l4.76 5.68 4.76-5.68zm-9 5.69a5.69 5.69 0 0 1-5.69-5.69h3.12l-4.76-5.68-4.76 5.68H166a9 9 0 0 0 9 9 1.65 1.65 0 0 0 0-3.29z" opacity=".3" fill="#f8fefe"/></g></svg>