<svg data-name="Layer 11" xmlns="http://www.w3.org/2000/svg" viewBox="0 0 200 200"><g opacity=".5"><path d="M77.85 68.29a4.4 4.4 0 0 0 1-3.14A4.32 4.32 0 0 0 76 66.64a4.19 4.19 0 0 0-1 3.05 3.57 3.57 0 0 0 2.85-1.4zm2.43 7.33a4.15 4.15 0 0 1 .47-2 4.7 4.7 0 0 1 1.62-1.77 4.5 4.5 0 0 0-3.54-2c-1.51-.16-2.94.9-3.71.9s-1.94-.88-3.19-.86a4.73 4.73 0 0 0-4 2.47 5.93 5.93 0 0 0-.58 1.49c-.72 2.86.4 6.37 1.81 8.44.81 1.19 1.78 2.54 3.06 2.49S73.9 84 75.38 84s1.9.81 3.2.79 2.15-1.22 3-2.42a11 11 0 0 0 1.34-2.8 4.35 4.35 0 0 1-2.64-3.95zM19.76 19.44l10.33 10.33-8.59 2.07-4.17 4.17-3.81-3.81 4.18-4.17 2.06-8.59z" opacity=".3" fill="#f8fefe"/><path d="M29.44 24.61h-.19a.75.75 0 0 1-.53-.92A2.23 2.23 0 0 0 26 20.94a.75.75 0 0 1-.39-1.45A3.73 3.73 0 0 1 30.16 24a.75.75 0 0 1-.72.61z" fill="#fff" opacity=".3"/><path d="M32.92 25.17h-.19a.75.75 0 0 1-.53-.92 5.53 5.53 0 0 0-6.77-6.77A.75.75 0 0 1 25 16a7 7 0 0 1 8.61 8.61.75.75 0 0 1-.69.56z" fill="#fff" opacity=".3"/><path d="M36.46 25.67h-.19a.75.75 0 0 1-.53-.92 8.83 8.83 0 0 0-10.82-10.84.75.75 0 0 1-.39-1.45 10.33 10.33 0 0 1 12.66 12.66.75.75 0 0 1-.73.55z" fill="#fff" opacity=".3"/><path d="M177.85 68.29a4.4 4.4 0 0 0 1-3.14 4.32 4.32 0 0 0-2.85 1.49 4.19 4.19 0 0 0-1 3.05 3.57 3.57 0 0 0 2.85-1.4zm2.43 7.33a4.15 4.15 0 0 1 .47-2 4.7 4.7 0 0 1 1.62-1.77 4.5 4.5 0 0 0-3.54-2c-1.51-.16-2.94.9-3.71.9s-1.94-.88-3.19-.86a4.73 4.73 0 0 0-4 2.47 5.93 5.93 0 0 0-.58 1.49c-.72 2.86.4 6.37 1.81 8.44.81 1.19 1.78 2.54 3.06 2.49s1.69-.81 3.17-.81 1.9.81 3.2.79 2.15-1.22 3-2.42a11 11 0 0 0 1.34-2.8 4.35 4.35 0 0 1-2.65-3.92zm-60.52-56.18l10.33 10.33-8.59 2.07-4.17 4.17-3.81-3.81 4.17-4.17 2.07-8.59z" opacity=".3" fill="#f8fefe"/><path d="M129.44 24.61h-.19a.75.75 0 0 1-.53-.92 2.23 2.23 0 0 0-2.72-2.75.75.75 0 0 1-.39-1.45 3.73 3.73 0 0 1 4.55 4.51.75.75 0 0 1-.72.61z" fill="#fff" opacity=".3"/><path d="M132.92 25.17h-.19a.75.75 0 0 1-.53-.92 5.53 5.53 0 0 0-6.77-6.77A.75.75 0 0 1 125 16a7 7 0 0 1 8.61 8.61.75.75 0 0 1-.69.56z" fill="#fff" opacity=".3"/><path d="M136.46 25.67h-.19a.75.75 0 0 1-.53-.92 8.83 8.83 0 0 0-10.82-10.82.75.75 0 1 1-.39-1.45 10.33 10.33 0 0 1 12.65 12.65.75.75 0 0 1-.72.54z" fill="#fff" opacity=".3"/><path d="M77.85 168.29a4.4 4.4 0 0 0 1-3.14 4.32 4.32 0 0 0-2.85 1.49 4.19 4.19 0 0 0-1 3.05 3.57 3.57 0 0 0 2.85-1.4zm2.43 7.33a4.15 4.15 0 0 1 .47-2 4.7 4.7 0 0 1 1.62-1.77 4.5 4.5 0 0 0-3.54-2c-1.51-.16-2.94.9-3.71.9s-1.94-.88-3.19-.86a4.73 4.73 0 0 0-4 2.47 5.93 5.93 0 0 0-.58 1.49c-.72 2.86.4 6.37 1.81 8.44.81 1.19 1.78 2.54 3.06 2.49s1.69-.81 3.17-.81 1.9.81 3.2.79 2.15-1.22 3-2.42a11 11 0 0 0 1.34-2.8 4.35 4.35 0 0 1-2.65-3.92zm-60.52-56.18l10.33 10.32-8.59 2.08-4.17 4.17-3.81-3.81 4.18-4.17 2.06-8.59z" opacity=".3" fill="#f8fefe"/><path d="M29.44 124.61h-.19a.75.75 0 0 1-.53-.92 2.23 2.23 0 0 0-2.72-2.75.75.75 0 1 1-.39-1.45 3.73 3.73 0 0 1 4.55 4.51.75.75 0 0 1-.72.61z" fill="#fff" opacity=".3"/><path d="M32.92 125.17h-.19a.75.75 0 0 1-.53-.92 5.53 5.53 0 0 0-6.77-6.77A.75.75 0 0 1 25 116a7 7 0 0 1 8.61 8.61.75.75 0 0 1-.69.56z" fill="#fff" opacity=".3"/><path d="M36.46 125.67h-.19a.75.75 0 0 1-.53-.92 8.83 8.83 0 0 0-10.82-10.82.75.75 0 1 1-.39-1.45 10.33 10.33 0 0 1 12.65 12.65.75.75 0 0 1-.72.54z" fill="#fff" opacity=".3"/><path d="M177.85 168.29a4.4 4.4 0 0 0 1-3.14 4.32 4.32 0 0 0-2.85 1.49 4.19 4.19 0 0 0-1 3.05 3.57 3.57 0 0 0 2.85-1.4zm2.43 7.33a4.15 4.15 0 0 1 .47-2 4.7 4.7 0 0 1 1.62-1.77 4.5 4.5 0 0 0-3.54-2c-1.51-.16-2.94.9-3.71.9s-1.94-.88-3.19-.86a4.73 4.73 0 0 0-4 2.47 5.93 5.93 0 0 0-.58 1.49c-.72 2.86.4 6.37 1.81 8.44.81 1.19 1.78 2.54 3.06 2.49s1.69-.81 3.17-.81 1.9.81 3.2.79 2.15-1.22 3-2.42a11 11 0 0 0 1.34-2.8 4.35 4.35 0 0 1-2.65-3.92zm-60.52-56.18l10.33 10.32-8.59 2.08-4.17 4.17-3.81-3.81 4.17-4.17 2.07-8.59z" opacity=".3" fill="#f8fefe"/><path d="M129.44 124.61h-.19a.75.75 0 0 1-.53-.92 2.23 2.23 0 0 0-2.73-2.73.75.75 0 1 1-.39-1.45 3.73 3.73 0 0 1 4.56 4.56.75.75 0 0 1-.72.54z" fill="#fff" opacity=".3"/><path d="M132.92 125.17h-.19a.75.75 0 0 1-.53-.92 5.53 5.53 0 0 0-6.77-6.77.75.75 0 0 1-.43-1.48 7 7 0 0 1 8.61 8.61.75.75 0 0 1-.69.56z" fill="#fff" opacity=".3"/><path d="M136.46 125.67h-.19a.75.75 0 0 1-.53-.92 8.83 8.83 0 0 0-10.82-10.82.75.75 0 1 1-.39-1.45 10.33 10.33 0 0 1 12.65 12.65.75.75 0 0 1-.72.54z" fill="#fff" opacity=".3"/><path fill="none" d="M50 50h50v50H50zM0 0h50v50H0zm150 50h50v50h-50zM100 0h50v50h-50zM50 150h50v50H50zM0 100h50v50H0zm150 50h50v50h-50zm-50-50h50v50h-50z"/></g></svg>