<svg xmlns="http://www.w3.org/2000/svg" viewBox="0 0 200 200"><g data-name="Layer 2"><path fill="#40abe6" d="M0 0h200v200H0z" data-name="Backgrounds"/><g data-name="Patterns"><path fill="#f8fefe" opacity=".3" d="M19.76 19.44l10.33 10.33-8.59 2.07-4.17 4.17-3.81-3.81 4.18-4.17 2.06-8.59z"/><path d="M29.44 24.61h-.19a.75.75 0 0 1-.53-.92A2.23 2.23 0 0 0 26 20.94a.75.75 0 0 1-.39-1.45A3.73 3.73 0 0 1 30.16 24a.75.75 0 0 1-.72.61z" fill="#fff" opacity=".3"/><path d="M32.92 25.17h-.19a.75.75 0 0 1-.53-.92 5.53 5.53 0 0 0-6.77-6.77A.75.75 0 0 1 25 16a7 7 0 0 1 8.61 8.61.75.75 0 0 1-.69.56z" fill="#fff" opacity=".3"/><path d="M36.46 25.67h-.19a.75.75 0 0 1-.53-.92 8.83 8.83 0 0 0-10.82-10.84.75.75 0 0 1-.39-1.45 10.33 10.33 0 0 1 12.66 12.66.75.75 0 0 1-.73.55z" fill="#fff" opacity=".3"/><path fill="#f8fefe" opacity=".3" d="M119.76 19.44l10.33 10.33-8.59 2.07-4.17 4.17-3.81-3.81 4.17-4.17 2.07-8.59z"/><path d="M129.44 24.61h-.19a.75.75 0 0 1-.53-.92 2.23 2.23 0 0 0-2.72-2.75.75.75 0 1 1-.39-1.45 3.73 3.73 0 0 1 4.55 4.51.75.75 0 0 1-.72.61z" fill="#fff" opacity=".3"/><path d="M132.92 25.17h-.19a.75.75 0 0 1-.53-.92 5.53 5.53 0 0 0-6.77-6.77A.75.75 0 1 1 125 16a7 7 0 0 1 8.61 8.61.75.75 0 0 1-.69.56z" fill="#fff" opacity=".3"/><path d="M136.46 25.67h-.19a.75.75 0 0 1-.53-.92 8.83 8.83 0 0 0-10.82-10.82.75.75 0 1 1-.39-1.45 10.33 10.33 0 0 1 12.65 12.65.75.75 0 0 1-.72.54z" fill="#fff" opacity=".3"/><path fill="#f8fefe" opacity=".3" d="M19.76 119.44l10.33 10.32-8.59 2.08-4.17 4.17-3.81-3.81 4.18-4.17 2.06-8.59z"/><path d="M29.44 124.61h-.19a.75.75 0 0 1-.53-.92 2.23 2.23 0 0 0-2.72-2.75.75.75 0 1 1-.39-1.45 3.73 3.73 0 0 1 4.55 4.51.75.75 0 0 1-.72.61z" fill="#fff" opacity=".3"/><path d="M32.92 125.17h-.19a.75.75 0 0 1-.53-.92 5.53 5.53 0 0 0-6.77-6.77A.75.75 0 0 1 25 116a7 7 0 0 1 8.61 8.61.75.75 0 0 1-.69.56z" fill="#fff" opacity=".3"/><path d="M36.46 125.67h-.19a.75.75 0 0 1-.53-.92 8.83 8.83 0 0 0-10.82-10.82.75.75 0 1 1-.39-1.45 10.33 10.33 0 0 1 12.65 12.65.75.75 0 0 1-.72.54z" fill="#fff" opacity=".3"/><path fill="#f8fefe" opacity=".3" d="M119.76 119.44l10.33 10.32-8.59 2.08-4.17 4.17-3.81-3.81 4.17-4.17 2.07-8.59z"/><path d="M129.44 124.61h-.19a.75.75 0 0 1-.53-.92 2.23 2.23 0 0 0-2.73-2.73.75.75 0 1 1-.39-1.45 3.73 3.73 0 0 1 4.56 4.56.75.75 0 0 1-.72.54z" fill="#fff" opacity=".3"/><path d="M132.92 125.17h-.19a.75.75 0 0 1-.53-.92 5.53 5.53 0 0 0-6.77-6.77.75.75 0 1 1-.43-1.48 7 7 0 0 1 8.61 8.61.75.75 0 0 1-.69.56z" fill="#fff" opacity=".3"/><path d="M136.46 125.67h-.19a.75.75 0 0 1-.53-.92 8.83 8.83 0 0 0-10.82-10.82.75.75 0 1 1-.39-1.45 10.33 10.33 0 0 1 12.65 12.65.75.75 0 0 1-.72.54z" fill="#fff" opacity=".3"/><path fill="none" d="M50 50h50v50H50zM0 0h50v50H0zm150 50h50v50h-50zM100 0h50v50h-50zM50 150h50v50H50zM0 100h50v50H0zm150 50h50v50h-50zm-50-50h50v50h-50z"/><g data-name="Layer_1"><g data-name="26257872464" fill="#f8fefe" opacity=".3"><path data-name="path5" d="M74.18 66.78c3.5-.57 7.08-1.07 10.58-1.57v9.29c-3.5 0-7.08.07-10.58.07v-7.79z"/><path data-name="path7" d="M65.24 68c2.64-.43 5.29-.79 8-1.07v7.65c-2.72 0-5.36.07-8 .07V68z"/><path data-name="path29" d="M65.24 75.43c2.64 0 5.29.07 8 0v7.72l-8-1.07z"/><path data-name="path31" d="M74.18 75.5h10.58v9.29c-3.5-.57-7.08-1-10.58-1.5V75.5z"/></g></g><g data-name="Layer_1"><g data-name="26257872464" fill="#f8fefe" opacity=".3"><path data-name="path5" d="M74.18 166.78c3.5-.57 7.08-1.07 10.58-1.57v9.29c-3.5 0-7.08.07-10.58.07v-7.79z"/><path data-name="path7" d="M65.24 168c2.64-.43 5.29-.79 8-1.07v7.65c-2.72 0-5.36.07-8 .07V168z"/><path data-name="path29" d="M65.24 175.43c2.64 0 5.29.07 8 0v7.72l-8-1.07z"/><path data-name="path31" d="M74.18 175.5h10.58v9.29c-3.5-.57-7.08-1-10.58-1.5v-7.79z"/></g></g><g data-name="Layer_1"><g data-name="26257872464" fill="#f8fefe" opacity=".3"><path data-name="path5" d="M174.18 166.78c3.5-.57 7.08-1.07 10.58-1.57v9.29c-3.5 0-7.08.07-10.58.07v-7.79z"/><path data-name="path7" d="M165.24 168c2.64-.43 5.29-.79 8-1.07v7.65c-2.72 0-5.36.07-8 .07V168z"/><path data-name="path29" d="M165.24 175.43c2.64 0 5.29.07 8 0v7.72l-8-1.07z"/><path data-name="path31" d="M174.18 175.5h10.58v9.29c-3.5-.57-7.08-1-10.58-1.5v-7.79z"/></g></g><g data-name="Layer_1"><g data-name="26257872464" fill="#f8fefe" opacity=".3"><path data-name="path5" d="M174.18 65.13c3.5-.57 7.08-1.07 10.58-1.57v9.29c-3.5 0-7.08.07-10.58.07v-7.79z"/><path data-name="path7" d="M165.24 66.34c2.64-.43 5.29-.79 8-1.07v7.65c-2.72 0-5.36.07-8 .07v-6.65z"/><path data-name="path29" d="M165.24 73.78c2.64 0 5.29.07 8 0v7.72l-8-1.07z"/><path data-name="path31" d="M174.18 73.85h10.58v9.29c-3.5-.57-7.08-1-10.58-1.5v-7.79z"/></g></g></g></g></svg>