<svg xmlns="http://www.w3.org/2000/svg" width="200" height="200"><g opacity=".5"><g fill="none" fill-rule="evenodd" opacity=".3"><path fill="#F8FEFE" fill-rule="nonzero" d="M173.42 73.75l1.48 1.73a5.52 5.52 0 0 0 1.62 1.39c.26.13.23.18-.09.24l-2.23.42a8.15 8.15 0 0 0-2 .61c-.24.11-.3.07-.22-.15.15-.42.49-1.16.75-2.1a8.34 8.34 0 0 0 .38-2c.05-.32.12-.36.31-.14zM172 76.41c-.1.26-.55 1.42-1.11 2.76-.56 1.34-1.19 2.81-1.72 3.83-1 1.91-2.43 2.28-3.48 1.18a3.71 3.71 0 0 1-.27-.39 3.62 3.62 0 0 1-.36-2.61 4.56 4.56 0 0 1 1.43-2.52 5.81 5.81 0 0 1 3.07-.52 2.5 2.5 0 0 0 2.21-1.27v-.1l.23-.36zm13 3.08a3.78 3.78 0 0 1-.2.43 3.62 3.62 0 0 1-2.09 1.62 4.56 4.56 0 0 1-2.9 0c-.68-.25-1.46-1.45-2-2.4a2.49 2.49 0 0 0-2.25-1.28h-.52.06c.27 0 1.5-.23 2.95-.42 1.45-.19 3-.37 4.17-.43 2.13-.01 3.18.99 2.78 2.48zm-10.42-7.92a2.5 2.5 0 0 0 0 2.56v.07l.22.32c-.18-.22-1-1.19-1.84-2.34-.84-1.15-1.84-2.43-2.46-3.4-1.16-1.81-.76-3.25.73-3.61h.47a3.62 3.62 0 0 1 2.44 1 4.56 4.56 0 0 1 1.47 2.5 5.81 5.81 0 0 1-1.03 2.9zM73.42 73.75l1.48 1.73a5.52 5.52 0 0 0 1.62 1.39c.26.13.23.18-.09.24l-2.23.42a8.15 8.15 0 0 0-2 .61c-.24.11-.3.07-.22-.15.15-.42.49-1.16.75-2.1a8.34 8.34 0 0 0 .38-2c.05-.32.12-.36.31-.14zM72 76.41c-.1.26-.55 1.42-1.11 2.76-.56 1.34-1.22 2.83-1.75 3.89-1 1.91-2.43 2.28-3.48 1.18a3.71 3.71 0 0 1-.27-.39 3.62 3.62 0 0 1-.39-2.62 4.56 4.56 0 0 1 1.43-2.52 5.81 5.81 0 0 1 3.07-.52 2.5 2.5 0 0 0 2.21-1.27v-.1l.29-.41zm13 3.08a3.78 3.78 0 0 1-.2.43 3.62 3.62 0 0 1-2.09 1.62 4.56 4.56 0 0 1-2.9 0c-.68-.25-1.46-1.45-2-2.4a2.49 2.49 0 0 0-2.25-1.28h-.52.06c.27 0 1.5-.23 2.95-.42 1.45-.19 3-.37 4.17-.43C84.35 77 85.4 78 85 79.49zm-10.42-7.92a2.5 2.5 0 0 0 0 2.56v.07l.22.32c-.18-.22-1-1.19-1.84-2.34-.84-1.15-1.84-2.43-2.46-3.4-1.16-1.81-.76-3.25.73-3.61h.47a3.62 3.62 0 0 1 2.44 1 4.56 4.56 0 0 1 1.47 2.5 5.81 5.81 0 0 1-1.03 2.9zm98.84 102.18l1.48 1.73a5.52 5.52 0 0 0 1.62 1.39c.26.13.23.18-.09.24l-2.23.42a8.15 8.15 0 0 0-2 .61c-.24.11-.3.07-.22-.15.15-.42.49-1.16.75-2.1a8.34 8.34 0 0 0 .38-2c.05-.32.12-.36.31-.14zm-1.42 2.66c-.1.26-.55 1.42-1.11 2.76-.56 1.34-1.19 2.81-1.72 3.83-1 1.91-2.43 2.28-3.48 1.18a3.71 3.71 0 0 1-.27-.39 3.62 3.62 0 0 1-.36-2.61 4.56 4.56 0 0 1 1.43-2.52 5.81 5.81 0 0 1 3.07-.52 2.5 2.5 0 0 0 2.21-1.27v-.1l.23-.36zm13 3.08a3.78 3.78 0 0 1-.2.43 3.62 3.62 0 0 1-2.09 1.62 4.56 4.56 0 0 1-2.9 0c-.68-.25-1.46-1.45-2-2.4a2.49 2.49 0 0 0-2.25-1.28h-.52.06c.27 0 1.5-.23 2.95-.42 1.45-.19 3-.37 4.17-.43 2.13-.01 3.18.99 2.78 2.48zm-10.42-7.92a2.5 2.5 0 0 0 0 2.56v.07l.22.32c-.18-.22-1-1.19-1.84-2.34-.84-1.15-1.84-2.43-2.46-3.4-1.16-1.81-.76-3.25.73-3.61h.47a3.62 3.62 0 0 1 2.44 1 4.56 4.56 0 0 1 1.47 2.5 5.81 5.81 0 0 1-1.03 2.9zm-101.16 2.18l1.48 1.73a5.52 5.52 0 0 0 1.62 1.39c.26.13.23.18-.09.24l-2.23.42a8.15 8.15 0 0 0-2 .61c-.24.11-.3.07-.22-.15.15-.42.49-1.16.75-2.1a8.34 8.34 0 0 0 .38-2c.05-.32.12-.36.31-.14zM72 176.41c-.1.26-.55 1.42-1.11 2.76-.56 1.34-1.19 2.81-1.72 3.83-1 1.91-2.43 2.28-3.48 1.18a3.71 3.71 0 0 1-.27-.39 3.62 3.62 0 0 1-.36-2.61 4.56 4.56 0 0 1 1.43-2.52 5.81 5.81 0 0 1 3.07-.52 2.5 2.5 0 0 0 2.21-1.27v-.1l.23-.36zm13 3.08a3.78 3.78 0 0 1-.2.43 3.62 3.62 0 0 1-2.09 1.62 4.56 4.56 0 0 1-2.9 0c-.68-.25-1.46-1.45-2-2.4a2.49 2.49 0 0 0-2.25-1.28h-.52.06c.27 0 1.5-.23 2.95-.42 1.45-.19 3-.37 4.17-.43 2.13-.01 3.18.99 2.78 2.48zm-10.42-7.92a2.5 2.5 0 0 0 0 2.56v.07l.22.32c-.18-.22-1-1.19-1.84-2.34-.84-1.15-1.84-2.43-2.46-3.4-1.16-1.81-.76-3.25.73-3.61h.47a3.62 3.62 0 0 1 2.44 1 4.56 4.56 0 0 1 1.47 2.5 5.81 5.81 0 0 1-1.03 2.9z"/><path d="M50 50h50v50H50V50zM0 0h50v50H0V0zm150 50h50v50h-50V50zM100 0h50v50h-50V0zM50 150h50v50H50v-50zM0 100h50v50H0v-50zm150 50h50v50h-50v-50zm-50-50h50v50h-50v-50z"/><path fill="#F8FEFE" fill-rule="nonzero" d="M19.76 19.44l10.33 10.33-8.59 2.07-4.17 4.17-3.81-3.81 4.18-4.17z"/><path fill="#FFF" fill-rule="nonzero" d="M29.44 24.61h-.19a.75.75 0 0 1-.53-.92A2.23 2.23 0 0 0 26 20.94a.75.75 0 0 1-.39-1.45A3.73 3.73 0 0 1 30.16 24a.75.75 0 0 1-.72.61z"/><path fill="#FFF" fill-rule="nonzero" d="M32.92 25.17h-.19a.75.75 0 0 1-.53-.92 5.53 5.53 0 0 0-6.77-6.77A.77.77 0 0 1 25 16a7 7 0 0 1 8.61 8.61.75.75 0 0 1-.69.56z"/><path fill="#FFF" fill-rule="nonzero" d="M36.46 25.67h-.19a.75.75 0 0 1-.53-.92 8.83 8.83 0 0 0-10.82-10.84.75.75 0 0 1-.39-1.45 10.33 10.33 0 0 1 12.66 12.66.75.75 0 0 1-.73.55z"/><path fill="#F8FEFE" fill-rule="nonzero" d="M119.76 19.44l10.33 10.33-8.59 2.07-4.17 4.17-3.81-3.81 4.17-4.17z"/><path fill="#FFF" fill-rule="nonzero" d="M129.44 24.61h-.19a.75.75 0 0 1-.53-.92 2.23 2.23 0 0 0-2.72-2.75.75.75 0 0 1-.39-1.45 3.73 3.73 0 0 1 4.55 4.51.75.75 0 0 1-.72.61z"/><path fill="#FFF" fill-rule="nonzero" d="M132.92 25.17h-.19a.75.75 0 0 1-.53-.92 5.53 5.53 0 0 0-6.77-6.77A.77.77 0 0 1 125 16a7 7 0 0 1 8.61 8.61.75.75 0 0 1-.69.56z"/><path fill="#FFF" fill-rule="nonzero" d="M136.46 25.67h-.19a.75.75 0 0 1-.53-.92 8.83 8.83 0 0 0-10.82-10.82.75.75 0 1 1-.39-1.45 10.33 10.33 0 0 1 12.65 12.65.75.75 0 0 1-.72.54z"/><path fill="#F8FEFE" fill-rule="nonzero" d="M19.76 119.44l10.33 10.32-8.59 2.08-4.17 4.17-3.81-3.81 4.18-4.17z"/><path fill="#FFF" fill-rule="nonzero" d="M29.44 124.61h-.19a.75.75 0 0 1-.53-.92 2.23 2.23 0 0 0-2.72-2.75.75.75 0 1 1-.39-1.45 3.73 3.73 0 0 1 4.55 4.51.75.75 0 0 1-.72.61z"/><path fill="#FFF" fill-rule="nonzero" d="M32.92 125.17h-.19a.75.75 0 0 1-.53-.92 5.53 5.53 0 0 0-6.77-6.77A.77.77 0 1 1 25 116a7 7 0 0 1 8.61 8.61.75.75 0 0 1-.69.56z"/><path fill="#FFF" fill-rule="nonzero" d="M36.46 125.67h-.19a.75.75 0 0 1-.53-.92 8.83 8.83 0 0 0-10.82-10.82.75.75 0 1 1-.39-1.45 10.33 10.33 0 0 1 12.65 12.65.75.75 0 0 1-.72.54z"/><path fill="#F8FEFE" fill-rule="nonzero" d="M119.76 119.44l10.33 10.32-8.59 2.08-4.17 4.17-3.81-3.81 4.17-4.17z"/><path fill="#FFF" fill-rule="nonzero" d="M129.44 124.61h-.19a.75.75 0 0 1-.53-.92 2.23 2.23 0 0 0-2.73-2.73.75.75 0 0 1-.39-1.45 3.73 3.73 0 0 1 4.56 4.56.75.75 0 0 1-.72.54z"/><path fill="#FFF" fill-rule="nonzero" d="M132.92 125.17h-.19a.75.75 0 0 1-.53-.92 5.53 5.53 0 0 0-6.77-6.77.77.77 0 1 1-.43-1.48 7 7 0 0 1 8.61 8.61.75.75 0 0 1-.69.56z"/><path fill="#FFF" fill-rule="nonzero" d="M136.46 125.67h-.19a.75.75 0 0 1-.53-.92 8.83 8.83 0 0 0-10.82-10.82.75.75 0 0 1-.39-1.45 10.33 10.33 0 0 1 12.65 12.65.75.75 0 0 1-.72.54z"/><path d="M50 50h50v50H50V50zM0 0h50v50H0V0zm150 50h50v50h-50V50zM100 0h50v50h-50V0zM50 150h50v50H50v-50zM0 100h50v50H0v-50zm150 50h50v50h-50v-50zm-50-50h50v50h-50v-50z"/></g></g></svg>