<svg data-name="Layer 11" xmlns="http://www.w3.org/2000/svg" viewBox="0 0 200 200"><g opacity=".5"><path fill="#f8fefe" opacity=".3" d="M19.76 19.44l10.33 10.33-8.59 2.07-4.17 4.17-3.81-3.81 4.18-4.17 2.06-8.59z"/><path d="M29.44 24.61h-.19a.75.75 0 0 1-.53-.92A2.23 2.23 0 0 0 26 20.94a.75.75 0 0 1-.39-1.45A3.73 3.73 0 0 1 30.16 24a.75.75 0 0 1-.72.61z" fill="#fff" opacity=".3"/><path d="M32.92 25.17h-.19a.75.75 0 0 1-.53-.92 5.53 5.53 0 0 0-6.77-6.77A.75.75 0 0 1 25 16a7 7 0 0 1 8.61 8.61.75.75 0 0 1-.69.56z" fill="#fff" opacity=".3"/><path d="M36.46 25.67h-.19a.75.75 0 0 1-.53-.92 8.83 8.83 0 0 0-10.82-10.84.75.75 0 0 1-.39-1.45 10.33 10.33 0 0 1 12.66 12.66.75.75 0 0 1-.73.55z" fill="#fff" opacity=".3"/><path fill="#f8fefe" opacity=".3" d="M119.76 19.44l10.33 10.33-8.59 2.07-4.17 4.17-3.81-3.81 4.17-4.17 2.07-8.59z"/><path d="M129.44 24.61h-.19a.75.75 0 0 1-.53-.92 2.23 2.23 0 0 0-2.72-2.75.75.75 0 0 1-.39-1.45 3.73 3.73 0 0 1 4.55 4.51.75.75 0 0 1-.72.61z" fill="#fff" opacity=".3"/><path d="M132.92 25.17h-.19a.75.75 0 0 1-.53-.92 5.53 5.53 0 0 0-6.77-6.77A.75.75 0 0 1 125 16a7 7 0 0 1 8.61 8.61.75.75 0 0 1-.69.56z" fill="#fff" opacity=".3"/><path d="M136.46 25.67h-.19a.75.75 0 0 1-.53-.92 8.83 8.83 0 0 0-10.82-10.82.75.75 0 1 1-.39-1.45 10.33 10.33 0 0 1 12.65 12.65.75.75 0 0 1-.72.54z" fill="#fff" opacity=".3"/><path fill="#f8fefe" opacity=".3" d="M19.76 119.44l10.33 10.32-8.59 2.08-4.17 4.17-3.81-3.81 4.18-4.17 2.06-8.59z"/><path d="M29.44 124.61h-.19a.75.75 0 0 1-.53-.92 2.23 2.23 0 0 0-2.72-2.75.75.75 0 1 1-.39-1.45 3.73 3.73 0 0 1 4.55 4.51.75.75 0 0 1-.72.61z" fill="#fff" opacity=".3"/><path d="M32.92 125.17h-.19a.75.75 0 0 1-.53-.92 5.53 5.53 0 0 0-6.77-6.77A.75.75 0 0 1 25 116a7 7 0 0 1 8.61 8.61.75.75 0 0 1-.69.56z" fill="#fff" opacity=".3"/><path d="M36.46 125.67h-.19a.75.75 0 0 1-.53-.92 8.83 8.83 0 0 0-10.82-10.82.75.75 0 1 1-.39-1.45 10.33 10.33 0 0 1 12.65 12.65.75.75 0 0 1-.72.54z" fill="#fff" opacity=".3"/><path fill="#f8fefe" opacity=".3" d="M119.76 119.44l10.33 10.32-8.59 2.08-4.17 4.17-3.81-3.81 4.17-4.17 2.07-8.59z"/><path d="M129.44 124.61h-.19a.75.75 0 0 1-.53-.92 2.23 2.23 0 0 0-2.73-2.73.75.75 0 1 1-.39-1.45 3.73 3.73 0 0 1 4.56 4.56.75.75 0 0 1-.72.54z" fill="#fff" opacity=".3"/><path d="M132.92 125.17h-.19a.75.75 0 0 1-.53-.92 5.53 5.53 0 0 0-6.77-6.77.75.75 0 0 1-.43-1.48 7 7 0 0 1 8.61 8.61.75.75 0 0 1-.69.56z" fill="#fff" opacity=".3"/><path d="M136.46 125.67h-.19a.75.75 0 0 1-.53-.92 8.83 8.83 0 0 0-10.82-10.82.75.75 0 1 1-.39-1.45 10.33 10.33 0 0 1 12.65 12.65.75.75 0 0 1-.72.54z" fill="#fff" opacity=".3"/><path fill="none" d="M50 50h50v50H50zM0 0h50v50H0zm150 50h50v50h-50zM100 0h50v50h-50zM50 150h50v50H50zM0 100h50v50H0zm150 50h50v50h-50zm-50-50h50v50h-50z"/><path d="M67.77 72.32a.92.92 0 0 0-.92.92v4.46a.92.92 0 1 0 1.84 0v-4.46a.92.92 0 0 0-.92-.92zm14.46 0a.92.92 0 0 0-.92.92v4.46a.92.92 0 1 0 1.85 0v-4.46a.92.92 0 0 0-.93-.92zm-12.71 0v8.26A1.38 1.38 0 0 0 70.9 82h1.48v2.3a.92.92 0 0 0 1.85 0V82h1.57v2.3a.92.92 0 1 0 1.84 0V82h1.48a1.38 1.38 0 0 0 1.38-1.38v-8.27zm8.17-5.6l1-1.84-.2-.11-1 1.84a5.46 5.46 0 0 0-4.84-.06l-1-1.78-.2.11 1 1.77a5.47 5.47 0 0 0-2.88 4.78h10.89a5.46 5.46 0 0 0-2.77-4.71zm-5.49 2.61a.52.52 0 1 1 .52-.52.52.52 0 0 1-.52.52zm5.53 0a.52.52 0 1 1 .52-.52.52.52 0 0 1-.52.52zm90.04 2.99a.92.92 0 0 0-.92.92v4.46a.92.92 0 1 0 1.84 0v-4.46a.92.92 0 0 0-.92-.92zm14.46 0a.92.92 0 0 0-.92.92v4.46a.92.92 0 1 0 1.85 0v-4.46a.92.92 0 0 0-.93-.92zm-12.71 0v8.26A1.38 1.38 0 0 0 170.9 82h1.48v2.3a.92.92 0 0 0 1.85 0V82h1.57v2.3a.92.92 0 1 0 1.84 0V82h1.48a1.38 1.38 0 0 0 1.38-1.38v-8.27zm8.17-5.6l1-1.84-.2-.11-1 1.84a5.46 5.46 0 0 0-4.84-.06l-1-1.78-.2.11 1 1.77a5.47 5.47 0 0 0-2.88 4.78h10.91a5.46 5.46 0 0 0-2.79-4.71zm-5.49 2.61a.52.52 0 1 1 .52-.52.52.52 0 0 1-.52.52zm5.53 0a.52.52 0 1 1 .52-.52.52.52 0 0 1-.52.52zM67.77 172.32a.92.92 0 0 0-.92.92v4.46a.92.92 0 1 0 1.84 0v-4.46a.92.92 0 0 0-.92-.92zm14.46 0a.92.92 0 0 0-.92.92v4.46a.92.92 0 1 0 1.85 0v-4.46a.92.92 0 0 0-.93-.92zm-12.71 0v8.26A1.38 1.38 0 0 0 70.9 182h1.48v2.34a.92.92 0 0 0 1.85 0V182h1.57v2.34a.92.92 0 1 0 1.84 0V182h1.48a1.38 1.38 0 0 0 1.38-1.38v-8.22zm8.17-5.6l1-1.84-.2-.11-1 1.84a5.46 5.46 0 0 0-4.84-.06l-1-1.78-.2.11 1 1.77a5.47 5.47 0 0 0-2.88 4.78h10.89a5.46 5.46 0 0 0-2.77-4.71zm-5.49 2.61a.52.52 0 1 1 .52-.52.52.52 0 0 1-.52.52zm5.53 0a.52.52 0 1 1 .52-.52.52.52 0 0 1-.52.52zm90.04 2.99a.92.92 0 0 0-.92.92v4.46a.92.92 0 1 0 1.84 0v-4.46a.92.92 0 0 0-.92-.92zm14.46 0a.92.92 0 0 0-.92.92v4.46a.92.92 0 1 0 1.85 0v-4.46a.92.92 0 0 0-.93-.92zm-12.71 0v8.26a1.38 1.38 0 0 0 1.38 1.42h1.48v2.34a.92.92 0 0 0 1.85 0V182h1.57v2.34a.92.92 0 1 0 1.84 0V182h1.48a1.38 1.38 0 0 0 1.38-1.38v-8.22zm8.17-5.6l1-1.84-.2-.11-1 1.84a5.46 5.46 0 0 0-4.84-.06l-1-1.78-.2.11 1 1.77a5.47 5.47 0 0 0-2.88 4.78h10.91a5.46 5.46 0 0 0-2.79-4.71zm-5.49 2.61a.52.52 0 1 1 .52-.52.52.52 0 0 1-.52.52zm5.53 0a.52.52 0 1 1 .52-.52.52.52 0 0 1-.52.52z" opacity=".3" fill="#f8fefe"/></g></svg>