<svg xmlns="http://www.w3.org/2000/svg" viewBox="0 0 359.36 180"><g data-name="Layer 2"><g data-name="windows"><path fill="#70d3ff" d="M0 0h359.36v180H0z"/><rect x="98.22" y="125.5" width="33.67" height="3" rx="1.5" ry="1.5" fill="#f8fefe"/><path fill="#0086c0" d="M118.38 84.24l-3.49 36.21h-1.62l-3.55-36.21h8.66z"/><path fill="#f8fefe" d="M114.89 120.45v2.25l-1.62-.45v-1.8h1.62z"/><path fill="#015c95" d="M121.65 124.59v.91h-8.38v-3.25l1.62.45 6.76 1.89z"/><path d="M120.18 48.88h-1.63v3.19h-2.7v2.11L118 57.5a4.94 4.94 0 0 0-2.14-.48h-4.09a4.5 4.5 0 0 0-1.6.29l2.23-3.13.06-2.12A5 5 0 0 1 108 47v-4.8a5.11 5.11 0 0 1 10.16-.77v.2l.41 3.86z" fill="#f8fefe"/><path d="M119.51 37.14a1.67 1.67 0 0 1-1.67 1.67h-2.32a4.34 4.34 0 0 1-3.1 6.3v7h-.21a4.88 4.88 0 0 1-4.88-4.88v-6.39a4.34 4.34 0 0 1 4.34-4.34h4.62a1.67 1.67 0 0 1 3.21.64zm31.6 3.7v23.8a.5.5 0 0 1-1 0V64a8.87 8.87 0 0 0-8.75-8.45h-9.46l2.93 6.87-.92.39-3.09-7.26h-3.38V50h13.92a8.89 8.89 0 0 0 8.75-8.46v-.7a.5.5 0 0 1 1 0z" fill="#015c95"/><path d="M276.53 85.17c-2 20.12-23.16 39.07-42.67 35.21-26.27-5.21-9.28-26.39-22.25-44.76S175.28 85 170.53 68c-3.06-10.93-10.53-18.38-19.42-17.18v-5.61c3.66-4 17.05-16.12 42.37-12.09 29.5 4.71 15 20.31 49.25 13.57 17.15-3.38 35.56 21.09 33.8 38.48z" fill="#f8fefe" opacity=".3"/><path d="M226.82 87.76c0 4.46-2.9 9.56-8.58 15.16-8.52 8.4-18.17 11.5-26.94 11.5a37.39 37.39 0 0 1-14.89-3.09c-10.51-4.61-17.11-13.52-16.8-22.7a78.74 78.74 0 0 1 .95-8.39c1-7.18 2.23-15.32-1.41-19.42-1.7-1.93-4.35-2.87-8-2.87V57c4 0 6.88 1.06 8.79 3.21 3.95 4.44 2.72 12.83 1.64 20.23a82.73 82.73 0 0 0-.93 8.27c-.29 8.77 6.07 17.31 16.2 21.76 10.85 4.75 27.24 5.09 40.73-8.21 5.48-5.41 8.27-10.27 8.28-14.46a8.36 8.36 0 0 0-2.58-6.12c-6.29-6.29-16.51-1-24.71 3.28-6 3.13-10.81 5.61-13 3.13s1.55-6.43 6-10.89c6-6 12.74-12.91 7.23-18.45-3.7-3.75-8.49-2.75-14.55-1.63-8.16 1.58-19.24 3.71-33.14-4.86v-1.18c13.8 8.75 24.4 6.71 32.95 5.06 6.35-1.22 11.37-2.19 15.39 1.85 6.21 6.25-1.24 13.8-7.23 19.86-3.89 3.94-7.56 7.65-5.91 9.53s6.33-.54 11.75-3.36c8.5-4.42 19.08-9.91 25.89-3.1a9.46 9.46 0 0 1 2.87 6.84z" fill="#f8fefe"/><path d="M258.45 107.17a2.53 2.53 0 0 1-1.8-.74 55.8 55.8 0 0 1-3.25-4.71c-1.3-2-2.77-4.2-3.13-4.56a1.58 1.58 0 0 0-2.18 0 .5.5 0 0 1-.71-.71l6.88-6.88a2.55 2.55 0 0 1 3.59 0 55.8 55.8 0 0 1 3.25 4.71c1.3 2 2.77 4.2 3.13 4.56a1.58 1.58 0 0 0 2.18 0 .5.5 0 0 1 .71.71l-6.88 6.88a2.54 2.54 0 0 1-1.79.74zm-8.93-11.44a2.52 2.52 0 0 1 1.46.72 55.87 55.87 0 0 1 3.26 4.72c1.29 2 2.76 4.19 3.12 4.55a1.54 1.54 0 0 0 2.18 0l5.45-5.45a2.52 2.52 0 0 1-1.46-.72 55.87 55.87 0 0 1-3.26-4.72c-1.29-2-2.76-4.19-3.12-4.55a1.54 1.54 0 0 0-2.18 0z" fill="#015c95"/><path d="M253.82 97.41a.5.5 0 0 1-.35-.85l3.44-3.44a.5.5 0 0 1 .71.71l-3.44 3.44a.5.5 0 0 1-.36.14zm3.18 4.7a.5.5 0 0 1-.35-.85l3.44-3.44a.5.5 0 0 1 .71.71l-3.46 3.47a.5.5 0 0 1-.34.11zm-1.73-2.27a.5.5 0 0 1-.35-.85l3.44-3.44a.5.5 0 0 1 .71.71l-3.44 3.44a.5.5 0 0 1-.36.14z" fill="#015c95"/><path fill="#f8fefe" d="M136.45 63.46l-2.75 2.39-1.29-1.6 1.98-3.46 2.06 2.67z"/><path fill="#0086c0" d="M201.55 97.45l.57 1.78h1.87l-1.51 1.1.58 1.77-1.51-1.1-1.51 1.1.57-1.77-1.51-1.1h1.87l.58-1.78zm106.89-68.6l.58 1.78h1.87l-1.51 1.1.57 1.77-1.51-1.09-1.51 1.09.58-1.77-1.51-1.1h1.86l.58-1.78z"/><circle cx="210.32" cy="132.94" r="1" fill="#0086c0"/><circle cx="272.03" cy="133.94" r="1" fill="#0086c0"/><circle cx="285.36" cy="162.5" r="1" fill="#0086c0"/><path d="M244.43 64.45a.5.5 0 0 1 0 .71.48.48 0 0 1-.35.14.5.5 0 0 1-.36-.14l-1.52-1.52-1.52 1.52a.51.51 0 0 1-.7 0 .49.49 0 0 1 0-.71l1.52-1.52-1.5-1.52a.49.49 0 0 1 0-.71.5.5 0 0 1 .7 0l1.52 1.52 1.52-1.52a.51.51 0 0 1 .71 0 .5.5 0 0 1 0 .71l-1.52 1.52z" fill="#015c95"/><path d="M100.6 145h-14a.5.5 0 0 1 0-1h14a.5.5 0 1 1 0 1zm30.03 0h-14a.5.5 0 0 1 0-1h14a.5.5 0 0 1 0 1z" fill="#40abe6"/><path fill="#0086c0" d="M129.38 48.88h5.12v8.04h-5.12z"/><path d="M168.83 56.09a.5.5 0 0 1-.35-.85 3.3 3.3 0 0 0 0-4.67.5.5 0 0 1 .71-.71 4.3 4.3 0 0 1 0 6.08.5.5 0 0 1-.36.15zm40.54 6.71a.5.5 0 0 1-.35-.85 12.81 12.81 0 0 0 0-18.1.5.5 0 1 1 .71-.71 13.8 13.8 0 0 1 0 19.51.5.5 0 0 1-.36.15zm59.42 6.2a.5.5 0 0 1-.35-.85 21.66 21.66 0 0 0 0-30.59.5.5 0 0 1 .71-.71 22.66 22.66 0 0 1 0 32 .5.5 0 0 1-.36.15zm-167.73 76h-.8l3.09-16.5h2.62l-4.91 16.5zm29.41 0h.8l-3.09-16.5h-2.63l4.92 16.5zm-9.63-83v22.24h-13.69V61.6a4.57 4.57 0 0 1 3-4.29 4.5 4.5 0 0 1 1.6-.29h4.09a4.94 4.94 0 0 1 2.14.48 5 5 0 0 1 2.86 4.5z" fill="#015c95"/><path d="M133.72 65.85l-10.61 9-13.78-9.36a4.57 4.57 0 1 1 4.78-7.78 4.42 4.42 0 0 1 1.51 1.53l.1.16 7.39 11.45 9.3-6.58z" fill="#0086c0"/></g></g></svg>