<svg xmlns="http://www.w3.org/2000/svg" viewBox="0 0 360 180"><g data-name="company"><path fill="#8bccff" d="M0 0h360v180H0z"/><path d="M19.06 117.34h1.7v1.38h-6.52v-2.29c0-1.74.85-2.76 2.37-2.76s2.46 1 2.46 2.76zm-3.76 0H18v-.63c0-1.05-.41-1.62-1.4-1.62s-1.31.57-1.31 1.62zm4.13-6.57a5.65 5.65 0 0 0 .32-1.75c0-1-.27-1.34-.72-1.34s-.71.3-1 1.34c-.38 1.43-1.05 2-2 2-1.1 0-2-.93-2-2.55a6.45 6.45 0 0 1 .33-2l1.08.28a5.45 5.45 0 0 0-.28 1.62c0 .86.3 1.23.72 1.23s.71-.34.95-1.29c.39-1.56 1.05-2.13 2.05-2.13s1.91.89 1.91 2.62a7.22 7.22 0 0 1-.35 2.21zm-.37-9.05h1.7v1.38h-6.52v-2.29c0-1.74.85-2.75 2.37-2.75s2.46 1 2.46 2.75zm-3.76 0H18v-.63c0-1.05-.41-1.62-1.4-1.62s-1.31.57-1.31 1.62zM14.24 95v-2.44a2.9 2.9 0 0 1 3.25-3.17c2.14 0 3.28 1.18 3.28 3.17V95zm1.08-1.38h4.37v-.82c0-1.29-.56-2-2.2-2s-2.17.73-2.17 2zm2.99-8.74h2.45v1.38h-6.52v-4.33h1.14v3h1.85v-2.7h1.08zm-.65-7.39h3.11v1.38h-6.53v-1.38h3.21L14.24 75v-1.57L17.53 76l3.23-2.72V75zm-3.42-6.87v-1.38h6.53v1.38zm1.16-9.33v1.89h5.37v1.38H15.4v1.89h-1.16v-5.16zm325.54 1.37h-1.7v-1.37h6.53v2.29c0 1.74-.85 2.75-2.37 2.75s-2.46-1-2.46-2.75zm3.76 0H342v.63c0 1.05.41 1.62 1.4 1.62s1.31-.57 1.31-1.62zm-4.13 6.57a5.68 5.68 0 0 0-.31 1.75c0 1 .27 1.34.72 1.34s.71-.3 1-1.34c.38-1.43 1.05-2 2-2 1.1 0 2 .93 2 2.55a6.44 6.44 0 0 1-.33 2l-1.08-.28a5.47 5.47 0 0 0 .28-1.62c0-.86-.3-1.23-.72-1.23s-.71.34-.95 1.29c-.39 1.56-1.05 2.13-2.05 2.13s-1.91-.89-1.91-2.62a7.2 7.2 0 0 1 .35-2.21zm.37 9.05h-1.7V76.9h6.53v2.29c0 1.74-.85 2.75-2.37 2.75s-2.46-1-2.46-2.75zm3.76 0H342v.63c0 1.05.41 1.62 1.4 1.62s1.31-.57 1.31-1.62zm1.06 6.72v2.48a2.9 2.9 0 0 1-3.25 3.17c-2.14 0-3.28-1.18-3.28-3.17V85zm-1.08 1.38h-4.37v.82c0 1.29.56 2 2.2 2s2.17-.73 2.17-2zm-2.99 8.74h-2.45v-1.38h6.53v4.33h-1.14v-3h-1.85v2.66h-1.08zm.65 7.39h-3.11v-1.38h6.53v1.38h-3.21l3.21 2.46v1.59l-3.29-2.56-3.23 2.72V105zm3.42 6.87v1.38h-6.53v-1.38zm-1.16 9.33v-1.89h-5.37v-1.38h5.37v-1.89h1.16v5.16zM17.5 145.5a.5.5 0 0 1-.5-.5v-20a.5.5 0 0 1 1 0v20a.5.5 0 0 1-.5.5zm325 0a.5.5 0 0 1-.5-.5v-20a.5.5 0 0 1 1 0v20a.5.5 0 0 1-.5.5zm-325-90a.5.5 0 0 1-.5-.5V35a.5.5 0 0 1 1 0v20a.5.5 0 0 1-.5.5zm325 0a.5.5 0 0 1-.5-.5V35a.5.5 0 0 1 1 0v20a.5.5 0 0 1-.5.5zm-1.13 106.11l1.05 1.24a4 4 0 0 0 1.16 1c.19.1.16.13-.06.17l-1.6.3a5.83 5.83 0 0 0-1.4.43c-.17.08-.21 0-.16-.1s.35-.83.54-1.5a6 6 0 0 0 .27-1.43c.01-.24.07-.27.2-.11zm-1.03 1.9c-.07.19-.39 1-.79 2s-.85 2-1.23 2.74c-.7 1.36-1.74 1.63-2.49.85a2.65 2.65 0 0 1-.2-.28 2.59 2.59 0 0 1-.26-1.87 3.26 3.26 0 0 1 1-1.81 4.15 4.15 0 0 1 2.2-.37 1.78 1.78 0 0 0 1.58-.91v-.07zm9.29 2.2a2.7 2.7 0 0 1-.14.31 2.59 2.59 0 0 1-1.49 1.16 3.26 3.26 0 0 1-2.08 0c-.48-.18-1-1-1.42-1.72a1.78 1.78 0 0 0-1.61-.91h-.37c.19 0 1.07-.17 2.11-.3s2.16-.27 3-.31c1.56-.04 2.31.72 2 1.77zM342.2 160a1.78 1.78 0 0 0 0 1.83l.16.23c-.13-.16-.68-.85-1.32-1.67s-1.31-1.74-1.76-2.43c-.83-1.29-.54-2.33.52-2.58h.33a2.59 2.59 0 0 1 1.75.71A3.26 3.26 0 0 1 343 158a4.15 4.15 0 0 1-.8 2zM16.37 16.53l1.05 1.24a4 4 0 0 0 1.16 1c.19.1.16.13-.06.17l-1.6.3a5.83 5.83 0 0 0-1.4.43c-.17.08-.21 0-.16-.1s.35-.83.54-1.5a6 6 0 0 0 .27-1.43c.01-.23.07-.27.2-.11zm-1.03 1.9c-.07.19-.39 1-.79 2s-.85 2-1.23 2.74c-.7 1.36-1.74 1.63-2.49.85a2.65 2.65 0 0 1-.2-.28 2.59 2.59 0 0 1-.26-1.87 3.26 3.26 0 0 1 1-1.81 4.15 4.15 0 0 1 2.2-.37 1.78 1.78 0 0 0 1.58-.91v-.07zm9.29 2.2a2.7 2.7 0 0 1-.14.31A2.59 2.59 0 0 1 23 22.1a3.26 3.26 0 0 1-2.08 0c-.48-.18-1-1-1.42-1.72a1.78 1.78 0 0 0-1.61-.91h-.37c.19 0 1.07-.17 2.11-.3s2.16-.27 3-.31c1.56-.04 2.31.73 2 1.77zM17.2 15a1.78 1.78 0 0 0 0 1.83l.16.23c-.13-.16-.68-.85-1.32-1.67s-1.27-1.71-1.72-2.39c-.83-1.29-.54-2.33.52-2.58h.33a2.59 2.59 0 0 1 1.75.71A3.26 3.26 0 0 1 18 12.88a4.15 4.15 0 0 1-.8 2.12z" fill="#215894"/><path fill="#8bccff" d="M0 0h360v180H0z"/><path fill="#f8fefe" d="M135.37 136.31l-3.54 1.16.49-1.16h3.05zm-6.94-78.7l-.43-4.45v-.15a6 6 0 0 0-11.9.7v5.67a5.9 5.9 0 0 0 5.17 5.86l-.07 2.46-2.24 3.16a5 5 0 0 1 1-.1h4.81a6.13 6.13 0 0 1 2.83.69l-2.41-3.75v-2.46h3.17v-3.73h1.89z"/><path d="M129.5 47.81a2 2 0 0 1-1.95 2h-2.7a5.07 5.07 0 0 1-3.64 7.35v8.12h-1a4.88 4.88 0 0 1-4.87-4.88v-8.28a5.06 5.06 0 0 1 5.02-5.12h5.39a2 2 0 0 1 1.8-1.19 2 2 0 0 1 1.95 2z" fill="#215894"/><path d="M113.38 145h-14a.5.5 0 0 1 0-1h14a.5.5 0 0 1 0 1zm28.12 0h-16a.5.5 0 0 1 0-1h16a.5.5 0 0 1 0 1zm15.26 0h-11.88a.5.5 0 0 1 0-1h11.89a.5.5 0 0 1 0 1zm76.43 0h-30.38a.5.5 0 1 1 0-1h30.38a.5.5 0 1 1 0 1z" fill="#0088a6" opacity=".5"/><path d="M159.88 140.7l-3.11 1-6.57-28.23 3.48-5.43a3.35 3.35 0 0 0 .53-1.63zM234 97v47.5a.5.5 0 0 1-.5.5.5.5 0 0 1-.5-.5V97zm-72.5-35.75h37v24h-37z" fill="#215894"/><path fill="#59a5fc" d="M161.5 61.25h37v24h-37z"/><path fill="#f8fefe" d="M174.6 67.68h10.79v1H174.6zm0-2.48h10.79v1H174.6zm0 4.96h10.79v1H174.6zm0 2.48h10.79v1H174.6zm0 2.48h10.79v1H174.6zm0 2.48h5.54v1h-5.54z"/><path d="M200 87.75v-29h-40v29h18V92h-8.35v2h20.7v-2H182v-4.25zm-38.5-2.5v-24h37v24z" fill="#215894"/><path d="M220.48 24.82v-.58l2.61-1.42v.82l-1.78.89 1.78.89v.82zm5.8-2.96h.84l-1.5 5.55h-.84zm2.53 3.56l1.78-.89-1.78-.89v-.82l2.61 1.42v.58l-2.61 1.42zm57.9 39.4v-.58l2.61-1.42v.82l-1.78.89 1.78.89v.82zm5.8-2.96h.84l-1.5 5.55H291zm2.49 3.56l1.78-.89-1.78-.89v-.82l2.61 1.42v.58L295 66.24zM169.23 37.91v-.58l2.61-1.42v.82l-1.78.89 1.78.89v.82zm5.77-2.97h.84l-1.5 5.55h-.84zm2.56 3.56l1.78-.89-1.78-.89v-.82l2.61 1.42v.58l-2.61 1.42zm61.84 40.17a.75.75 0 0 0 .62-.74c0-.49-.3-.73-.3-1.21s.52-1 1.28-1.15l.17.59c-.44.11-.64.37-.64.68s.25.65.25 1.15a1 1 0 0 1-.67 1 1 1 0 0 1 .67 1c0 .5-.25.73-.25 1.15s.2.56.64.68l-.17.59c-.76-.14-1.28-.53-1.28-1.15s.3-.72.3-1.21a.75.75 0 0 0-.62-.74zm3.35 1.5a1.9 1.9 0 0 0 .44.07c.29 0 .46-.12.46-.49v-3.22h.92v3.15c0 .86-.34 1.27-1.15 1.27a2.69 2.69 0 0 1-.77-.12zm5.52-.92a.75.75 0 0 0-.62.74c0 .49.3.73.3 1.21s-.52 1-1.28 1.15l-.17-.59c.44-.11.64-.37.64-.68s-.25-.65-.25-1.15a1 1 0 0 1 .67-1 1 1 0 0 1-.67-1c0-.5.25-.73.25-1.15s-.2-.56-.64-.68l.17-.59c.76.14 1.28.53 1.28 1.15s-.3.72-.3 1.21a.75.75 0 0 0 .62.74zM293 15.36c1.16 0 1.82.84 1.82 2.24s-.67 2.26-1.82 2.26-1.83-.84-1.83-2.26.63-2.24 1.83-2.24zm0 3.78c.56 0 .88-.47.88-1.54s-.32-1.52-.88-1.52-.88.47-.88 1.52.28 1.54.88 1.54zm-22.71 71.54c1.16 0 1.82.84 1.82 2.24s-.67 2.26-1.82 2.26-1.83-.84-1.83-2.26.68-2.24 1.83-2.24zm0 3.78c.56 0 .88-.47.88-1.54s-.32-1.52-.88-1.52-.88.47-.88 1.52.33 1.54.88 1.54zM211 60.44v-3.38l-.76.36-.29-.68 1.19-.65h.77v4.35zM254.35 130v-3.38l-.76.36-.29-.68 1.19-.65h.77V130z" fill="#59a5fc"/><path d="M245.12 60.44a1.29 1.29 0 0 1-1.27 1.29l-24.74 28V92a1.27 1.27 0 0 1 .77 1h6a.5.5 0 1 1 0 1h-14.5a.5.5 0 0 1 0-1h6a1.27 1.27 0 0 1 .77-1v-2.41a.48.48 0 0 1 .12-.33l24.65-28a1.27 1.27 0 0 1-.34-.86 1 1 0 0 1 .07-.39l-34.87-19.4a1.28 1.28 0 0 1-.79.27.44.44 0 0 1-.16 0l-1 1.8.55.31-1.79 3.23a4.73 4.73 0 0 1 .91 5.74l-8.23-4.58a4.72 4.72 0 0 1 5.35-2.26l1.8-3.23.53.3 1-1.81a1.28 1.28 0 0 1-.26-.77 1.3 1.3 0 0 1 2.59 0 .44.44 0 0 1 0 .16l35 19.53a1.32 1.32 0 0 1 .56-.13 1.29 1.29 0 0 1 1.28 1.27z" fill="#215894"/><path fill="#f8fefe" opacity=".3" d="M198.82 48.21l5.17 2.88V94h-43.55l38.38-45.79z"/><path fill="#59a5fc" d="M149.81 84h6v10h-6z"/><path d="M157.48 90.46a1.91 1.91 0 0 1-1.92 1.91h-.22l-7.58-.87v-3h7.8a1.92 1.92 0 0 1 1.92 1.96zm-4.67-7.9a.5.5 0 0 1-.5-.5c0-4.69-4.14-6.9-8.14-9-3.79-2-7.36-3.94-7.36-7.8 0-5 5.34-6.83 10.06-8.48 3.33-1.16 6.47-2.26 6.47-4.17 0-2.58-2.48-3.62-4.88-4.63-1.9-.8-3.7-1.55-3.84-3.12-.12-1.34.83-2.09 1.93-3 1.8-1.43 4.28-3.38 4.28-9.38a.5.5 0 0 1 1 0c0 6.48-2.8 8.69-4.66 10.16-1.07.84-1.62 1.32-1.55 2.09.08 1 1.61 1.61 3.23 2.28 2.45 1 5.49 2.3 5.49 5.55 0 2.62-3.31 3.77-7.14 5.11-4.4 1.54-9.39 3.28-9.39 7.53 0 3.26 3.32 5 6.83 6.92 4.06 2.17 8.67 4.63 8.67 9.92a.5.5 0 0 1-.5.52z" fill="#f8fefe"/><path d="M189.9 140.25H186v3.37h-6.08a.69.69 0 1 0 0 1.38h14.77a4.75 4.75 0 0 0-4.79-4.75z" fill="#215894"/><path fill="#f8fefe" d="M141.8 144.11v.62l-11.26-4.25 1.29-3.01 3.54-1.16 6.43 7.8z"/><path d="M142.75 140.25h-3.93v3.37h-6.08a.69.69 0 0 0 0 1.38h14.76a4.75 4.75 0 0 0-4.75-4.75z" fill="#215894"/><path d="M154.23 106.18a.75.75 0 0 1 0 .21 3.35 3.35 0 0 1-.53 1.63l-3.48 5.43-14.67 22.85h-3.21l14.16-26.74h-23.75a5.52 5.52 0 0 1-.71 0 6.77 6.77 0 0 1 .71-13.56 6.63 6.63 0 0 1 1.61.2l27.16 6.64h.18a3.38 3.38 0 0 1 2.51 3.26z" fill="#59a5fc"/><path d="M138.72 133.45L141.1 145h.7l-4.92-31.6h-2.27l1.23 6.07-8.29 5.7-8.43-5.8 1.25-6.17a13.78 13.78 0 0 1-2.15-.53L113.14 145h.7l2.35-11.42 11.36-7.81zM135.95 120l2.63 12.74-10.58-7.27zm-19.61 12.87l2.67-13 8.1 5.57z" fill="#215894"/><path fill="#f8fefe" d="M168.65 145h-11.88v-3.31l3.11-.99 8.77 3.72v.58z"/><path d="M130.95 77v27.15h-16.76V76.53a5.75 5.75 0 0 1 4.73-5.67 5 5 0 0 1 1-.1h4.81a6.2 6.2 0 0 1 6.19 6.2z" fill="#215894"/><path d="M147.76 88.54v3.27l-14 .78-16.91-11.47a5.59 5.59 0 0 1 5.86-9.53 5.51 5.51 0 0 1 1.85 1.87v.05l9.14 14.18z" fill="#59a5fc"/><path d="M238.5 94v3H135.08a13.53 13.53 0 0 0-8.52-3z" fill="#215894"/><path d="M142.2 111.4a2 2 0 0 1-2 2h-17.42a14.7 14.7 0 0 1-2.41-.2 13.79 13.79 0 0 1-2.15-.53 14.84 14.84 0 0 1-9.92-11.11l-4.92-24.33a2 2 0 0 1 3.91-.79L110.85 94h15.71a13.66 13.66 0 0 1 13.64 13.64v1.76a2 2 0 0 1 2 2z" fill="#f8fefe"/></g></svg>