<svg xmlns="http://www.w3.org/2000/svg" viewBox="0 0 360 180"><g data-name="macos"><path fill="#94cbff" d="M0 0h360v180H0z"/><path d="M19.06 117.34h1.7v1.38h-6.52v-2.29c0-1.74.85-2.76 2.37-2.76s2.46 1 2.46 2.76zm-3.76 0H18v-.63c0-1.05-.41-1.62-1.4-1.62s-1.31.57-1.31 1.62zm4.13-6.57a5.65 5.65 0 0 0 .32-1.75c0-1-.27-1.34-.72-1.34s-.71.3-1 1.34c-.38 1.43-1.05 2-2 2-1.1 0-2-.93-2-2.55a6.45 6.45 0 0 1 .33-2l1.08.28a5.45 5.45 0 0 0-.28 1.62c0 .86.3 1.23.72 1.23s.71-.34.95-1.29c.39-1.56 1.05-2.13 2.05-2.13s1.91.89 1.91 2.62a7.22 7.22 0 0 1-.35 2.21zm-.37-9.05h1.7v1.38h-6.52v-2.29c0-1.74.85-2.75 2.37-2.75s2.46 1 2.46 2.75zm-3.76 0H18v-.63c0-1.05-.41-1.62-1.4-1.62s-1.31.57-1.31 1.62zM14.24 95v-2.44a2.9 2.9 0 0 1 3.25-3.17c2.14 0 3.28 1.18 3.28 3.17V95zm1.08-1.38h4.37v-.82c0-1.29-.56-2-2.2-2s-2.17.73-2.17 2zm2.99-8.74h2.45v1.38h-6.52v-4.33h1.14v3h1.85v-2.7h1.08zm-.65-7.39h3.11v1.38h-6.53v-1.38h3.21L14.24 75v-1.57L17.53 76l3.23-2.72V75zm-3.42-6.87v-1.38h6.53v1.38zm1.16-9.33v1.89h5.37v1.38H15.4v1.89h-1.16v-5.16zm325.54 1.37h-1.7v-1.37h6.53v2.29c0 1.74-.85 2.75-2.37 2.75s-2.46-1-2.46-2.75zm3.76 0H342v.63c0 1.05.41 1.62 1.4 1.62s1.31-.57 1.31-1.62zm-4.13 6.57a5.68 5.68 0 0 0-.31 1.75c0 1 .27 1.34.72 1.34s.71-.3 1-1.34c.38-1.43 1.05-2 2-2 1.1 0 2 .93 2 2.55a6.44 6.44 0 0 1-.33 2l-1.08-.28a5.47 5.47 0 0 0 .28-1.62c0-.86-.3-1.23-.72-1.23s-.71.34-.95 1.29c-.39 1.56-1.05 2.13-2.05 2.13s-1.91-.89-1.91-2.62a7.2 7.2 0 0 1 .35-2.21zm.37 9.05h-1.7V76.9h6.53v2.29c0 1.74-.85 2.75-2.37 2.75s-2.46-1-2.46-2.75zm3.76 0H342v.63c0 1.05.41 1.62 1.4 1.62s1.31-.57 1.31-1.62zm1.06 6.72v2.48a2.9 2.9 0 0 1-3.25 3.17c-2.14 0-3.28-1.18-3.28-3.17V85zm-1.08 1.38h-4.37v.82c0 1.29.56 2 2.2 2s2.17-.73 2.17-2zm-2.99 8.74h-2.45v-1.38h6.53v4.33h-1.14v-3h-1.85v2.66h-1.08zm.65 7.39h-3.11v-1.38h6.53v1.38h-3.21l3.21 2.46v1.59l-3.29-2.56-3.23 2.72V105zm3.42 6.87v1.38h-6.53v-1.38zm-1.16 9.33v-1.89h-5.37v-1.38h5.37v-1.89h1.16v5.16zM17.5 145.5a.5.5 0 0 1-.5-.5v-20a.5.5 0 0 1 1 0v20a.5.5 0 0 1-.5.5zm325 0a.5.5 0 0 1-.5-.5v-20a.5.5 0 0 1 1 0v20a.5.5 0 0 1-.5.5zm-325-90a.5.5 0 0 1-.5-.5V35a.5.5 0 0 1 1 0v20a.5.5 0 0 1-.5.5zm325 0a.5.5 0 0 1-.5-.5V35a.5.5 0 0 1 1 0v20a.5.5 0 0 1-.5.5zm-1.13 106.11l1.05 1.24a4 4 0 0 0 1.16 1c.19.1.16.13-.06.17l-1.6.3a5.83 5.83 0 0 0-1.4.43c-.17.08-.21 0-.16-.1s.35-.83.54-1.5a6 6 0 0 0 .27-1.43c.01-.24.07-.27.2-.11zm-1.03 1.9c-.07.19-.39 1-.79 2s-.85 2-1.23 2.74c-.7 1.36-1.74 1.63-2.49.85a2.65 2.65 0 0 1-.2-.28 2.59 2.59 0 0 1-.26-1.87 3.26 3.26 0 0 1 1-1.81 4.15 4.15 0 0 1 2.2-.37 1.78 1.78 0 0 0 1.58-.91v-.07zm9.29 2.2a2.7 2.7 0 0 1-.14.31 2.59 2.59 0 0 1-1.49 1.16 3.26 3.26 0 0 1-2.08 0c-.48-.18-1-1-1.42-1.72a1.78 1.78 0 0 0-1.61-.91h-.37c.19 0 1.07-.17 2.11-.3s2.16-.27 3-.31c1.56-.04 2.31.72 2 1.77zM342.2 160a1.78 1.78 0 0 0 0 1.83l.16.23c-.13-.16-.68-.85-1.32-1.67s-1.31-1.74-1.76-2.43c-.83-1.29-.54-2.33.52-2.58h.33a2.59 2.59 0 0 1 1.75.71A3.26 3.26 0 0 1 343 158a4.15 4.15 0 0 1-.8 2zM16.37 16.53l1.05 1.24a4 4 0 0 0 1.16 1c.19.1.16.13-.06.17l-1.6.3a5.83 5.83 0 0 0-1.4.43c-.17.08-.21 0-.16-.1s.35-.83.54-1.5a6 6 0 0 0 .27-1.43c.01-.23.07-.27.2-.11zm-1.03 1.9c-.07.19-.39 1-.79 2s-.85 2-1.23 2.74c-.7 1.36-1.74 1.63-2.49.85a2.65 2.65 0 0 1-.2-.28 2.59 2.59 0 0 1-.26-1.87 3.26 3.26 0 0 1 1-1.81 4.15 4.15 0 0 1 2.2-.37 1.78 1.78 0 0 0 1.58-.91v-.07zm9.29 2.2a2.7 2.7 0 0 1-.14.31A2.59 2.59 0 0 1 23 22.1a3.26 3.26 0 0 1-2.08 0c-.48-.18-1-1-1.42-1.72a1.78 1.78 0 0 0-1.61-.91h-.37c.19 0 1.07-.17 2.11-.3s2.16-.27 3-.31c1.56-.04 2.31.73 2 1.77zM17.2 15a1.78 1.78 0 0 0 0 1.83l.16.23c-.13-.16-.68-.85-1.32-1.67s-1.27-1.71-1.72-2.39c-.83-1.29-.54-2.33.52-2.58h.33a2.59 2.59 0 0 1 1.75.71A3.26 3.26 0 0 1 18 12.88a4.15 4.15 0 0 1-.8 2.12z" fill="#00599a"/><path fill="#94cbff" d="M0 0h360v180H0z"/><rect x="98.86" y="125.5" width="33.67" height="3" rx="1.5" ry="1.5" fill="#f8fefe"/><path fill="#6aa4f3" d="M119.02 84.24l-3.49 36.21h-1.62l-3.55-36.21h8.66z"/><path fill="#f8fefe" d="M115.53 120.45v2.25l-1.62-.45v-1.8h1.62z"/><path fill="#00599a" d="M122.29 124.59v.91h-8.38v-3.25l1.62.45 6.76 1.89z"/><path d="M120.82 48.88h-1.63v3.19h-2.7v2.11l2.12 3.32a4.94 4.94 0 0 0-2.14-.48h-4.09a4.5 4.5 0 0 0-1.6.29l2.22-3.13.06-2.12a5 5 0 0 1-4.42-5V42.2a5.11 5.11 0 0 1 10.16-.77v.2l.41 3.86z" fill="#f8fefe"/><path d="M120.15 37.14a1.67 1.67 0 0 1-1.67 1.67h-2.32a4.34 4.34 0 0 1-3.1 6.3v7h-.21a4.88 4.88 0 0 1-4.85-4.93v-6.34a4.34 4.34 0 0 1 4.34-4.34h4.62a1.67 1.67 0 0 1 3.21.64zm31.6 3.7v23.8a.5.5 0 1 1-1 0V64a8.87 8.87 0 0 0-8.75-8.5h-9.46l2.93 6.87-.92.39-3.09-7.26h-3.38V50H142a8.89 8.89 0 0 0 8.75-8.46v-.7a.5.5 0 0 1 1 0z" fill="#00599a"/><path d="M277.17 85.17c-2 20.12-23.16 39.07-42.67 35.21-26.27-5.21-9.28-26.39-22.25-44.76S175.92 85 171.17 68c-3.06-10.93-10.54-18.38-19.42-17.18v-5.61c3.66-4 17.05-16.12 42.37-12.09 29.5 4.71 15 20.31 49.25 13.57 17.15-3.38 35.56 21.09 33.8 38.48z" fill="#f8fefe" opacity=".3"/><path d="M227.46 87.76c0 4.46-2.9 9.56-8.58 15.16-8.52 8.4-18.17 11.5-26.94 11.5a37.39 37.39 0 0 1-14.89-3.09c-10.51-4.61-17.11-13.52-16.8-22.7a78.74 78.74 0 0 1 .95-8.39c1-7.18 2.23-15.32-1.41-19.42-1.7-1.93-4.35-2.87-8-2.87V57c4 0 6.88 1.06 8.79 3.21 3.95 4.44 2.72 12.83 1.64 20.23a82.73 82.73 0 0 0-.93 8.27c-.29 8.77 6.07 17.31 16.2 21.76 10.85 4.75 27.24 5.09 40.73-8.21 5.48-5.41 8.27-10.27 8.28-14.46a8.36 8.36 0 0 0-2.58-6.12c-6.29-6.29-16.51-1-24.71 3.28-6 3.13-10.81 5.61-13 3.13s1.55-6.43 6-10.89c6-6 12.74-12.91 7.23-18.45-3.64-3.67-8.43-2.74-14.49-1.58-8.16 1.58-19.24 3.71-33.14-4.86v-1.23c13.8 8.75 24.4 6.71 32.95 5.06 6.35-1.22 11.37-2.19 15.39 1.85 6.21 6.25-1.24 13.8-7.23 19.86-3.89 3.94-7.56 7.65-5.91 9.53s6.33-.54 11.75-3.36c8.5-4.42 19.08-9.91 25.89-3.1a9.46 9.46 0 0 1 2.81 6.84z" fill="#f8fefe"/><path d="M259.08 107.17a2.53 2.53 0 0 1-1.8-.74 55.8 55.8 0 0 1-3.25-4.71c-1.3-2-2.77-4.2-3.13-4.56a1.58 1.58 0 0 0-2.18 0 .5.5 0 0 1-.71-.71l6.88-6.88a2.55 2.55 0 0 1 3.59 0 55.8 55.8 0 0 1 3.25 4.71c1.3 2 2.77 4.2 3.13 4.56a1.58 1.58 0 0 0 2.18 0 .5.5 0 0 1 .71.71l-6.88 6.88a2.54 2.54 0 0 1-1.79.74zm-8.93-11.44a2.52 2.52 0 0 1 1.46.72 55.87 55.87 0 0 1 3.26 4.72c1.29 2 2.76 4.19 3.12 4.55a1.54 1.54 0 0 0 2.18 0l5.45-5.45a2.52 2.52 0 0 1-1.46-.72 55.87 55.87 0 0 1-3.26-4.72c-1.29-2-2.76-4.19-3.12-4.55a1.54 1.54 0 0 0-2.18 0z" fill="#00599a"/><path d="M254.45 97.41a.5.5 0 0 1-.35-.85l3.44-3.44a.5.5 0 0 1 .71.71l-3.44 3.44a.5.5 0 0 1-.36.14zm3.18 4.7a.5.5 0 0 1-.35-.85l3.44-3.44a.5.5 0 0 1 .71.71L258 102a.5.5 0 0 1-.37.11zm-1.72-2.27a.5.5 0 0 1-.35-.85l3.44-3.44a.5.5 0 0 1 .71.71l-3.44 3.44a.5.5 0 0 1-.36.14z" fill="#00599a"/><path fill="#f8fefe" d="M137.09 63.46l-2.75 2.39-1.29-1.6 1.98-3.46 2.06 2.67z"/><path fill="#6aa4f3" d="M202.18 97.45l.58 1.78h1.87l-1.51 1.1.57 1.77-1.51-1.1-1.51 1.1.58-1.77-1.51-1.1h1.87l.57-1.78zm106.9-68.6l.57 1.78h1.87l-1.51 1.1.58 1.77-1.51-1.09-1.51 1.09.57-1.77-1.51-1.1h1.87l.58-1.78z"/><circle cx="210.95" cy="132.94" r="1" fill="#6aa4f3"/><circle cx="272.67" cy="133.94" r="1" fill="#6aa4f3"/><circle cx="286" cy="162.5" r="1" fill="#6aa4f3"/><path d="M245.07 64.45a.5.5 0 0 1 0 .71.48.48 0 0 1-.35.14.5.5 0 0 1-.36-.14l-1.52-1.52-1.52 1.52a.51.51 0 0 1-.7 0 .49.49 0 0 1 0-.71l1.52-1.52-1.52-1.52a.49.49 0 0 1 0-.71.5.5 0 0 1 .7 0l1.52 1.52 1.52-1.52a.51.51 0 0 1 .71 0 .5.5 0 0 1 0 .71l-1.52 1.52z" fill="#00599a"/><path d="M101.24 145h-14a.5.5 0 0 1 0-1h14a.5.5 0 0 1 0 1zm30.03 0h-14a.5.5 0 0 1 0-1h14a.5.5 0 0 1 0 1z" fill="#6ca4f1"/><path fill="#6aa4f3" d="M130.02 48.88h5.12v8.04h-5.12z"/><path d="M169.46 56.09a.5.5 0 0 1-.35-.85 3.3 3.3 0 0 0 0-4.67.5.5 0 1 1 .71-.71 4.3 4.3 0 0 1 0 6.08.5.5 0 0 1-.36.15zM210 62.8a.5.5 0 0 1-.35-.85 12.81 12.81 0 0 0 0-18.1.5.5 0 0 1 .71-.71 13.8 13.8 0 0 1 0 19.51.5.5 0 0 1-.36.15zm59.43 6.2a.5.5 0 0 1-.35-.85 21.66 21.66 0 0 0 0-30.59.5.5 0 0 1 .71-.71 22.66 22.66 0 0 1 0 32 .5.5 0 0 1-.36.15zm-167.74 76h-.8l3.09-16.5h2.63l-4.92 16.5zm29.41 0h.8l-3.09-16.5h-2.62l4.91 16.5zm-9.62-83v22.24h-13.69V61.6a4.57 4.57 0 0 1 3-4.29 4.5 4.5 0 0 1 1.6-.29h4.09a4.94 4.94 0 0 1 2.14.48 5 5 0 0 1 2.86 4.5z" fill="#00599a"/><path d="M134.36 65.85l-10.61 9L110 65.47a4.57 4.57 0 1 1 4.78-7.78 4.42 4.42 0 0 1 1.51 1.53l.1.16 7.39 11.45 9.3-6.58z" fill="#6aa4f3"/></g></svg>