<svg xmlns="http://www.w3.org/2000/svg" viewBox="0 0 360 180"><g data-name="android"><path fill="#abd613" d="M0 0h360v180H0z"/><path d="M17.5 55.5a.5.5 0 0 1-.5-.5V35a.5.5 0 0 1 1 0v20a.5.5 0 0 1-.5.5zm0 90a.5.5 0 0 1-.5-.5v-20a.5.5 0 0 1 1 0v20a.5.5 0 0 1-.5.5zM11.84 15.77a.72.72 0 0 0-.72.72V20a.72.72 0 1 0 1.44 0v-3.51a.72.72 0 0 0-.72-.72zm11.32 0a.72.72 0 0 0-.72.72V20a.72.72 0 1 0 1.44 0v-3.51a.72.72 0 0 0-.72-.72zm-9.95 0v6.46a1.08 1.08 0 0 0 1.08 1.08h1.16v1.83a.72.72 0 0 0 1.44 0v-1.83h1.23v1.83a.72.72 0 1 0 1.44 0v-1.83h1.16a1.08 1.08 0 0 0 1.08-1.08v-6.46zm6.39-4.38l.78-1.39-.16-.09-.77 1.44a4.27 4.27 0 0 0-3.79 0l-.75-1.39-.16.09.75 1.39a4.28 4.28 0 0 0-2.25 3.74h8.53a4.27 4.27 0 0 0-2.18-3.79zm-4.3 2a.41.41 0 1 1 .41-.41.41.41 0 0 1-.4.45zm4.33 0A.41.41 0 1 1 20 13a.41.41 0 0 1-.37.43zM336.84 160.4a.72.72 0 0 0-.72.72v3.49a.72.72 0 1 0 1.44 0v-3.49a.72.72 0 0 0-.72-.72zm11.32 0a.72.72 0 0 0-.72.72v3.49a.72.72 0 1 0 1.44 0v-3.49a.72.72 0 0 0-.72-.72zm-9.95 0v6.46a1.08 1.08 0 0 0 1.08 1.08h1.16v1.83a.72.72 0 0 0 1.44 0v-1.83h1.23v1.83a.72.72 0 1 0 1.44 0v-1.83h1.16a1.08 1.08 0 0 0 1.08-1.08v-6.46zm6.39-4.4l.77-1.44-.16-.09-.77 1.44a4.27 4.27 0 0 0-3.79 0l-.75-1.39-.16.09.75 1.39a4.28 4.28 0 0 0-2.25 3.74h8.53a4.27 4.27 0 0 0-2.17-3.74zm-4.3 2a.41.41 0 1 1 .41-.41.41.41 0 0 1-.4.48zm4.33 0a.41.41 0 1 1 .41-.41.41.41 0 0 1-.41.48zM19.3 113.1v2.31l1.47.46v1.44L14.24 115v-1.54l6.53-2.31v1.49zm-3.67 1.16l2.62.82v-1.65zm-1.39-10.12v-1.35h6.53V104l-4.23 3.12h4.23v1.35h-6.53v-1.17l4.23-3.12zm0-4.86v-2.47a2.9 2.9 0 0 1 3.25-3.17c2.14 0 3.28 1.18 3.28 3.17v2.48zm1.08-1.38h4.37v-.82c0-1.29-.56-2-2.2-2s-2.17.73-2.17 2zm3.29-9.74v1h2.15v1.38h-6.52v-2.28c0-1.73.8-2.67 2.15-2.67a2 2 0 0 1 2 1.26l2.39-1.55v1.58zm-3.32 1h2.27v-.89c0-.81-.36-1.25-1.17-1.25s-1.1.5-1.1 1.54zm-1.17-9.61a3 3 0 0 1 3.37-3.21 3.06 3.06 0 0 1 3.39 3.21c0 2-1.31 3.2-3.39 3.2a3 3 0 0 1-3.37-3.2zm5.67 0c0-1.06-.81-1.78-2.3-1.78s-2.28.71-2.28 1.78.81 1.77 2.28 1.77 2.3-.71 2.3-1.77zm-5.55-6.34v-1.38h6.53v1.38zm0-4.88v-2.47a2.9 2.9 0 0 1 3.25-3.17c2.14 0 3.28 1.18 3.28 3.17v2.48zM15.32 67h4.37v-.82c0-1.29-.56-2-2.2-2s-2.17.73-2.17 2zM342.5 55.5a.5.5 0 0 1-.5-.5V35a.5.5 0 0 1 1 0v20a.5.5 0 0 1-.5.5zm0 90a.5.5 0 0 1-.5-.5v-20a.5.5 0 0 1 1 0v20a.5.5 0 0 1-.5.5zm-1.8-78.6v-2.31l-1.47-.46v-1.44l6.53 2.31v1.54l-6.53 2.31v-1.48zm3.67-1.16l-2.62-.82v1.65zm1.39 10.12v1.35h-6.53V76l4.23-3.12h-4.23v-1.32h6.53v1.17l-4.23 3.12zm0 4.86v2.48a2.9 2.9 0 0 1-3.25 3.17c-2.14 0-3.28-1.18-3.28-3.17v-2.48zm-1.08 1.38h-4.37v.82c0 1.29.56 2 2.2 2s2.17-.73 2.17-2zm-3.29 9.74v-1h-2.15v-1.35h6.53v2.25c0 1.73-.8 2.67-2.15 2.67a2 2 0 0 1-2-1.26l-2.39 1.55v-1.58zm3.32-1h-2.27v.89c0 .81.36 1.25 1.17 1.25s1.1-.5 1.1-1.54zm1.17 9.61a3.39 3.39 0 0 1-6.76 0c0-2 1.31-3.2 3.39-3.2a3 3 0 0 1 3.37 3.2zm-5.67 0c0 1.06.81 1.78 2.3 1.78s2.28-.71 2.28-1.78-.81-1.77-2.28-1.77-2.3.71-2.3 1.77zm5.55 6.34v1.38h-6.53v-1.38zm0 4.88v2.48a2.9 2.9 0 0 1-3.25 3.17c-2.14 0-3.28-1.18-3.28-3.17v-2.48zm-1.08 1.33h-4.37v.82c0 1.29.56 2 2.2 2s2.17-.73 2.17-2z" fill="#3c5e00"/><path fill="#abd613" d="M0 0h360v180H0z"/><rect x="98.86" y="125.5" width="33.67" height="3" rx="1.5" ry="1.5" fill="#f8fefe"/><path fill="#80ae00" d="M119.02 84.24l-3.49 36.21h-1.62l-3.55-36.21h8.66z"/><path fill="#f8fefe" d="M115.53 120.45v2.25l-1.62-.45v-1.8h1.62z"/><path fill="#3a5f00" d="M122.29 124.59v.91h-8.38v-3.25l1.62.45 6.76 1.89z"/><path d="M120.82 48.88h-1.63v3.19h-2.7v2.11l2.12 3.32a4.94 4.94 0 0 0-2.14-.48h-4.09a4.5 4.5 0 0 0-1.6.29l2.22-3.13.06-2.12a5 5 0 0 1-4.42-5V42.2a5.11 5.11 0 0 1 10.16-.77v.2l.41 3.86z" fill="#f8fefe"/><path d="M120.15 37.14a1.67 1.67 0 0 1-1.67 1.67h-2.32a4.34 4.34 0 0 1-3.1 6.3v7h-.21a4.88 4.88 0 0 1-4.85-4.93v-6.34a4.34 4.34 0 0 1 4.34-4.34h4.62a1.67 1.67 0 0 1 3.21.64zm31.6 3.7v23.8a.5.5 0 1 1-1 0V64a8.87 8.87 0 0 0-8.75-8.5h-9.46l2.93 6.87-.92.39-3.09-7.26h-3.38V50H142a8.89 8.89 0 0 0 8.75-8.46v-.7a.5.5 0 0 1 1 0z" fill="#3a5f00"/><path d="M277.17 85.17c-2 20.12-23.16 39.07-42.67 35.21-26.27-5.21-9.28-26.39-22.25-44.76S175.92 85 171.17 68c-3.06-10.93-10.54-18.38-19.42-17.18v-5.61c3.66-4 17.05-16.12 42.37-12.09 29.5 4.71 15 20.31 49.25 13.57 17.15-3.38 35.56 21.09 33.8 38.48z" fill="#f8fefe" opacity=".3"/><path d="M227.46 87.76c0 4.46-2.9 9.56-8.58 15.16-8.52 8.4-18.17 11.5-26.94 11.5a37.39 37.39 0 0 1-14.89-3.09c-10.51-4.61-17.11-13.52-16.8-22.7a78.74 78.74 0 0 1 .95-8.39c1-7.18 2.23-15.32-1.41-19.42-1.7-1.93-4.35-2.87-8-2.87V57c4 0 6.88 1.06 8.79 3.21 3.95 4.44 2.72 12.83 1.64 20.23a82.73 82.73 0 0 0-.93 8.27c-.29 8.77 6.07 17.31 16.2 21.76 10.85 4.75 27.24 5.09 40.73-8.21 5.48-5.41 8.27-10.27 8.28-14.46a8.36 8.36 0 0 0-2.58-6.12c-6.29-6.29-16.51-1-24.71 3.28-6 3.13-10.81 5.61-13 3.13s1.55-6.43 6-10.89c6-6 12.74-12.91 7.23-18.45-3.64-3.67-8.43-2.74-14.49-1.58-8.16 1.58-19.24 3.71-33.14-4.86v-1.23c13.8 8.75 24.4 6.71 32.95 5.06 6.35-1.22 11.37-2.19 15.39 1.85 6.21 6.25-1.24 13.8-7.23 19.86-3.89 3.94-7.56 7.65-5.91 9.53s6.33-.54 11.75-3.36c8.5-4.42 19.08-9.91 25.89-3.1a9.46 9.46 0 0 1 2.81 6.84z" fill="#f8fefe"/><path d="M259.08 107.17a2.53 2.53 0 0 1-1.8-.74 55.8 55.8 0 0 1-3.25-4.71c-1.3-2-2.77-4.2-3.13-4.56a1.58 1.58 0 0 0-2.18 0 .5.5 0 0 1-.71-.71l6.88-6.88a2.55 2.55 0 0 1 3.59 0 55.8 55.8 0 0 1 3.25 4.71c1.3 2 2.77 4.2 3.13 4.56a1.58 1.58 0 0 0 2.18 0 .5.5 0 0 1 .71.71l-6.88 6.88a2.54 2.54 0 0 1-1.79.74zm-8.93-11.44a2.52 2.52 0 0 1 1.46.72 55.87 55.87 0 0 1 3.26 4.72c1.29 2 2.76 4.19 3.12 4.55a1.54 1.54 0 0 0 2.18 0l5.45-5.45a2.52 2.52 0 0 1-1.46-.72 55.87 55.87 0 0 1-3.26-4.72c-1.29-2-2.76-4.19-3.12-4.55a1.54 1.54 0 0 0-2.18 0z" fill="#3a5f00"/><path d="M254.45 97.41a.5.5 0 0 1-.35-.85l3.44-3.44a.5.5 0 0 1 .71.71l-3.44 3.44a.5.5 0 0 1-.36.14zm3.18 4.7a.5.5 0 0 1-.35-.85l3.44-3.44a.5.5 0 0 1 .71.71L258 102a.5.5 0 0 1-.37.11zm-1.72-2.27a.5.5 0 0 1-.35-.85l3.44-3.44a.5.5 0 0 1 .71.71l-3.44 3.44a.5.5 0 0 1-.36.14z" fill="#3a5f00"/><path fill="#f8fefe" d="M137.09 63.46l-2.75 2.39-1.29-1.6 1.98-3.46 2.06 2.67z"/><path fill="#80ae00" d="M202.18 97.45l.58 1.78h1.87l-1.51 1.1.57 1.77-1.51-1.1-1.51 1.1.58-1.77-1.51-1.1h1.87l.57-1.78zm106.9-68.6l.57 1.78h1.87l-1.51 1.1.58 1.77-1.51-1.09-1.51 1.09.57-1.77-1.51-1.1h1.87l.58-1.78z"/><circle cx="210.95" cy="132.94" r="1" fill="#80ae00"/><circle cx="272.67" cy="133.94" r="1" fill="#80ae00"/><circle cx="286" cy="162.5" r="1" fill="#80ae00"/><path d="M245.07 64.45a.5.5 0 0 1 0 .71.48.48 0 0 1-.35.14.5.5 0 0 1-.36-.14l-1.52-1.52-1.52 1.52a.51.51 0 0 1-.7 0 .49.49 0 0 1 0-.71l1.52-1.52-1.52-1.52a.49.49 0 0 1 0-.71.5.5 0 0 1 .7 0l1.52 1.52 1.52-1.52a.51.51 0 0 1 .71 0 .5.5 0 0 1 0 .71l-1.52 1.52z" fill="#3a5f00"/><path d="M101.24 145h-14a.5.5 0 0 1 0-1h14a.5.5 0 0 1 0 1zm30.03 0h-14a.5.5 0 0 1 0-1h14a.5.5 0 0 1 0 1zm-1.25-96.12h5.12v8.04h-5.12z" fill="#80ae00"/><path d="M169.46 56.09a.5.5 0 0 1-.35-.85 3.3 3.3 0 0 0 0-4.67.5.5 0 1 1 .71-.71 4.3 4.3 0 0 1 0 6.08.5.5 0 0 1-.36.15zM210 62.8a.5.5 0 0 1-.35-.85 12.81 12.81 0 0 0 0-18.1.5.5 0 0 1 .71-.71 13.8 13.8 0 0 1 0 19.51.5.5 0 0 1-.36.15zm59.43 6.2a.5.5 0 0 1-.35-.85 21.66 21.66 0 0 0 0-30.59.5.5 0 0 1 .71-.71 22.66 22.66 0 0 1 0 32 .5.5 0 0 1-.36.15zm-167.74 76h-.8l3.09-16.5h2.63l-4.92 16.5zm29.41 0h.8l-3.09-16.5h-2.62l4.91 16.5zm-9.62-83v22.24h-13.69V61.6a4.57 4.57 0 0 1 3-4.29 4.5 4.5 0 0 1 1.6-.29h4.09a4.94 4.94 0 0 1 2.14.48 5 5 0 0 1 2.86 4.5z" fill="#3a5f00"/><path d="M134.36 65.85l-10.61 9L110 65.47a4.57 4.57 0 1 1 4.78-7.78 4.42 4.42 0 0 1 1.51 1.53l.1.16 7.39 11.45 9.3-6.58z" fill="#80ae00"/></g></svg>