<svg xmlns="http://www.w3.org/2000/svg" viewBox="0 0 360 180"><g data-name="android"><path fill="#abd613" d="M0 0h360v180H0z"/><path d="M17.5 55.5a.5.5 0 0 1-.5-.5V35a.5.5 0 0 1 1 0v20a.5.5 0 0 1-.5.5zm0 90a.5.5 0 0 1-.5-.5v-20a.5.5 0 0 1 1 0v20a.5.5 0 0 1-.5.5zM11.84 15.77a.72.72 0 0 0-.72.72V20a.72.72 0 1 0 1.44 0v-3.51a.72.72 0 0 0-.72-.72zm11.32 0a.72.72 0 0 0-.72.72V20a.72.72 0 1 0 1.44 0v-3.51a.72.72 0 0 0-.72-.72zm-9.95 0v6.46a1.08 1.08 0 0 0 1.08 1.08h1.16v1.83a.72.72 0 0 0 1.44 0v-1.83h1.23v1.83a.72.72 0 1 0 1.44 0v-1.83h1.16a1.08 1.08 0 0 0 1.08-1.08v-6.46zm6.39-4.38l.78-1.39-.16-.09-.77 1.44a4.27 4.27 0 0 0-3.79 0l-.75-1.39-.16.09.75 1.39a4.28 4.28 0 0 0-2.25 3.74h8.53a4.27 4.27 0 0 0-2.18-3.79zm-4.3 2a.41.41 0 1 1 .41-.41.41.41 0 0 1-.4.45zm4.33 0A.41.41 0 1 1 20 13a.41.41 0 0 1-.37.43zM336.84 160.4a.72.72 0 0 0-.72.72v3.49a.72.72 0 1 0 1.44 0v-3.49a.72.72 0 0 0-.72-.72zm11.32 0a.72.72 0 0 0-.72.72v3.49a.72.72 0 1 0 1.44 0v-3.49a.72.72 0 0 0-.72-.72zm-9.95 0v6.46a1.08 1.08 0 0 0 1.08 1.08h1.16v1.83a.72.72 0 0 0 1.44 0v-1.83h1.23v1.83a.72.72 0 1 0 1.44 0v-1.83h1.16a1.08 1.08 0 0 0 1.08-1.08v-6.46zm6.39-4.4l.77-1.44-.16-.09-.77 1.44a4.27 4.27 0 0 0-3.79 0l-.75-1.39-.16.09.75 1.39a4.28 4.28 0 0 0-2.25 3.74h8.53a4.27 4.27 0 0 0-2.17-3.74zm-4.3 2a.41.41 0 1 1 .41-.41.41.41 0 0 1-.4.48zm4.33 0a.41.41 0 1 1 .41-.41.41.41 0 0 1-.41.48zM19.3 113.1v2.31l1.47.46v1.44L14.24 115v-1.54l6.53-2.31v1.49zm-3.67 1.16l2.62.82v-1.65zm-1.39-10.12v-1.35h6.53V104l-4.23 3.12h4.23v1.35h-6.53v-1.17l4.23-3.12zm0-4.86v-2.47a2.9 2.9 0 0 1 3.25-3.17c2.14 0 3.28 1.18 3.28 3.17v2.48zm1.08-1.38h4.37v-.82c0-1.29-.56-2-2.2-2s-2.17.73-2.17 2zm3.29-9.74v1h2.15v1.38h-6.52v-2.28c0-1.73.8-2.67 2.15-2.67a2 2 0 0 1 2 1.26l2.39-1.55v1.58zm-3.32 1h2.27v-.89c0-.81-.36-1.25-1.17-1.25s-1.1.5-1.1 1.54zm-1.17-9.61a3 3 0 0 1 3.37-3.21 3.06 3.06 0 0 1 3.39 3.21c0 2-1.31 3.2-3.39 3.2a3 3 0 0 1-3.37-3.2zm5.67 0c0-1.06-.81-1.78-2.3-1.78s-2.28.71-2.28 1.78.81 1.77 2.28 1.77 2.3-.71 2.3-1.77zm-5.55-6.34v-1.38h6.53v1.38zm0-4.88v-2.47a2.9 2.9 0 0 1 3.25-3.17c2.14 0 3.28 1.18 3.28 3.17v2.48zM15.32 67h4.37v-.82c0-1.29-.56-2-2.2-2s-2.17.73-2.17 2zM342.5 55.5a.5.5 0 0 1-.5-.5V35a.5.5 0 0 1 1 0v20a.5.5 0 0 1-.5.5zm0 90a.5.5 0 0 1-.5-.5v-20a.5.5 0 0 1 1 0v20a.5.5 0 0 1-.5.5zm-1.8-78.6v-2.31l-1.47-.46v-1.44l6.53 2.31v1.54l-6.53 2.31v-1.48zm3.67-1.16l-2.62-.82v1.65zm1.39 10.12v1.35h-6.53V76l4.23-3.12h-4.23v-1.32h6.53v1.17l-4.23 3.12zm0 4.86v2.48a2.9 2.9 0 0 1-3.25 3.17c-2.14 0-3.28-1.18-3.28-3.17v-2.48zm-1.08 1.38h-4.37v.82c0 1.29.56 2 2.2 2s2.17-.73 2.17-2zm-3.29 9.74v-1h-2.15v-1.35h6.53v2.25c0 1.73-.8 2.67-2.15 2.67a2 2 0 0 1-2-1.26l-2.39 1.55v-1.58zm3.32-1h-2.27v.89c0 .81.36 1.25 1.17 1.25s1.1-.5 1.1-1.54zm1.17 9.61a3.39 3.39 0 0 1-6.76 0c0-2 1.31-3.2 3.39-3.2a3 3 0 0 1 3.37 3.2zm-5.67 0c0 1.06.81 1.78 2.3 1.78s2.28-.71 2.28-1.78-.81-1.77-2.28-1.77-2.3.71-2.3 1.77zm5.55 6.34v1.38h-6.53v-1.38zm0 4.88v2.48a2.9 2.9 0 0 1-3.25 3.17c-2.14 0-3.28-1.18-3.28-3.17v-2.48zm-1.08 1.33h-4.37v.82c0 1.29.56 2 2.2 2s2.17-.73 2.17-2z" fill="#3c5e00"/><path fill="#abd613" d="M0 0h360v180H0z"/><path fill="#f8fefe" d="M135.37 136.31l-3.54 1.16.49-1.16h3.05zm-6.94-78.7l-.43-4.45v-.15a6 6 0 0 0-11.9.7v5.67a5.9 5.9 0 0 0 5.17 5.86l-.07 2.46-2.24 3.16a5 5 0 0 1 1-.1h4.81a6.13 6.13 0 0 1 2.83.69l-2.41-3.75v-2.46h3.17v-3.73h1.89z"/><path d="M129.5 47.81a2 2 0 0 1-1.95 2h-2.7a5.07 5.07 0 0 1-3.64 7.35v8.12h-1a4.88 4.88 0 0 1-4.87-4.88v-8.28a5.06 5.06 0 0 1 5.02-5.12h5.39a2 2 0 0 1 1.8-1.19 2 2 0 0 1 1.95 2z" fill="#3a5f00"/><path d="M113.38 145h-14a.5.5 0 0 1 0-1h14a.5.5 0 0 1 0 1zm28.12 0h-16a.5.5 0 0 1 0-1h16a.5.5 0 0 1 0 1zm15.26 0h-11.88a.5.5 0 0 1 0-1h11.89a.5.5 0 0 1 0 1zm76.43 0h-30.38a.5.5 0 1 1 0-1h30.38a.5.5 0 1 1 0 1z" fill="#80ae00"/><path d="M159.88 140.7l-3.11 1-6.57-28.23 3.48-5.43a3.35 3.35 0 0 0 .53-1.63zM234 97v47.5a.5.5 0 0 1-.5.5.5.5 0 0 1-.5-.5V97zm-72.5-35.75h37v24h-37z" fill="#3a5f00"/><path fill="#80ae00" d="M161.5 61.25h37v24h-37z"/><path fill="#f8fefe" d="M174.6 67.68h10.79v1H174.6zm0-2.48h10.79v1H174.6zm0 4.96h10.79v1H174.6zm0 2.48h10.79v1H174.6zm0 2.48h10.79v1H174.6zm0 2.48h5.54v1h-5.54z"/><path d="M200 87.75v-29h-40v29h18V92h-8.35v2h20.7v-2H182v-4.25zm-38.5-2.5v-24h37v24z" fill="#3a5f00"/><path d="M220.48 24.82v-.58l2.61-1.42v.82l-1.78.89 1.78.89v.82zm5.8-2.96h.84l-1.5 5.55h-.84zm2.53 3.56l1.78-.89-1.78-.89v-.82l2.61 1.42v.58l-2.61 1.42zm57.9 39.4v-.58l2.61-1.42v.82l-1.78.89 1.78.89v.82zm5.8-2.96h.84l-1.5 5.55H291zm2.49 3.56l1.78-.89-1.78-.89v-.82l2.61 1.42v.58L295 66.24zM169.23 37.91v-.58l2.61-1.42v.82l-1.78.89 1.78.89v.82zm5.77-2.97h.84l-1.5 5.55h-.84zm2.56 3.56l1.78-.89-1.78-.89v-.82l2.61 1.42v.58l-2.61 1.42zm61.84 40.17a.75.75 0 0 0 .62-.74c0-.49-.3-.73-.3-1.21s.52-1 1.28-1.15l.17.59c-.44.11-.64.37-.64.68s.25.65.25 1.15a1 1 0 0 1-.67 1 1 1 0 0 1 .67 1c0 .5-.25.73-.25 1.15s.2.56.64.68l-.17.59c-.76-.14-1.28-.53-1.28-1.15s.3-.72.3-1.21a.75.75 0 0 0-.62-.74zm3.35 1.5a1.9 1.9 0 0 0 .44.07c.29 0 .46-.12.46-.49v-3.22h.92v3.15c0 .86-.34 1.27-1.15 1.27a2.69 2.69 0 0 1-.77-.12zm5.52-.92a.75.75 0 0 0-.62.74c0 .49.3.73.3 1.21s-.52 1-1.28 1.15l-.17-.59c.44-.11.64-.37.64-.68s-.25-.65-.25-1.15a1 1 0 0 1 .67-1 1 1 0 0 1-.67-1c0-.5.25-.73.25-1.15s-.2-.56-.64-.68l.17-.59c.76.14 1.28.53 1.28 1.15s-.3.72-.3 1.21a.75.75 0 0 0 .62.74zM293 15.36c1.16 0 1.82.84 1.82 2.24s-.67 2.26-1.82 2.26-1.83-.84-1.83-2.26.63-2.24 1.83-2.24zm0 3.78c.56 0 .88-.47.88-1.54s-.32-1.52-.88-1.52-.88.47-.88 1.52.28 1.54.88 1.54zm-22.71 71.54c1.16 0 1.82.84 1.82 2.24s-.67 2.26-1.82 2.26-1.83-.84-1.83-2.26.68-2.24 1.83-2.24zm0 3.78c.56 0 .88-.47.88-1.54s-.32-1.52-.88-1.52-.88.47-.88 1.52.33 1.54.88 1.54zM211 60.44v-3.38l-.76.36-.29-.68 1.19-.65h.77v4.35zM254.35 130v-3.38l-.76.36-.29-.68 1.19-.65h.77V130z" fill="#80ae00"/><path d="M245.12 60.44a1.29 1.29 0 0 1-1.27 1.29l-24.74 28V92a1.27 1.27 0 0 1 .77 1h6a.5.5 0 1 1 0 1h-14.5a.5.5 0 0 1 0-1h6a1.27 1.27 0 0 1 .77-1v-2.41a.48.48 0 0 1 .12-.33l24.65-28a1.27 1.27 0 0 1-.34-.86 1 1 0 0 1 .07-.39l-34.87-19.4a1.28 1.28 0 0 1-.79.27.44.44 0 0 1-.16 0l-1 1.8.55.31-1.79 3.23a4.73 4.73 0 0 1 .91 5.74l-8.23-4.58a4.72 4.72 0 0 1 5.35-2.26l1.8-3.23.53.3 1-1.81a1.28 1.28 0 0 1-.26-.77 1.3 1.3 0 0 1 2.59 0 .44.44 0 0 1 0 .16l35 19.53a1.32 1.32 0 0 1 .56-.13 1.29 1.29 0 0 1 1.28 1.27z" fill="#3a5f00"/><path fill="#f8fefe" opacity=".3" d="M198.82 48.21l5.17 2.88V94h-43.55l38.38-45.79z"/><path fill="#80ae00" d="M149.81 84h6v10h-6z"/><path d="M157.48 90.46a1.91 1.91 0 0 1-1.92 1.91h-.22l-7.58-.87v-3h7.8a1.92 1.92 0 0 1 1.92 1.96zm-4.67-7.9a.5.5 0 0 1-.5-.5c0-4.69-4.14-6.9-8.14-9-3.79-2-7.36-3.94-7.36-7.8 0-5 5.34-6.83 10.06-8.48 3.33-1.16 6.47-2.26 6.47-4.17 0-2.58-2.48-3.62-4.88-4.63-1.9-.8-3.7-1.55-3.84-3.12-.12-1.34.83-2.09 1.93-3 1.8-1.43 4.28-3.38 4.28-9.38a.5.5 0 0 1 1 0c0 6.48-2.8 8.69-4.66 10.16-1.07.84-1.62 1.32-1.55 2.09.08 1 1.61 1.61 3.23 2.28 2.45 1 5.49 2.3 5.49 5.55 0 2.62-3.31 3.77-7.14 5.11-4.4 1.54-9.39 3.28-9.39 7.53 0 3.26 3.32 5 6.83 6.92 4.06 2.17 8.67 4.63 8.67 9.92a.5.5 0 0 1-.5.52z" fill="#f8fefe"/><path d="M189.9 140.25H186v3.37h-6.08a.69.69 0 1 0 0 1.38h14.77a4.75 4.75 0 0 0-4.79-4.75z" fill="#3a5f00"/><path fill="#f8fefe" d="M141.8 144.11v.62l-11.26-4.25 1.29-3.01 3.54-1.16 6.43 7.8z"/><path d="M142.75 140.25h-3.93v3.37h-6.08a.69.69 0 0 0 0 1.38h14.76a4.75 4.75 0 0 0-4.75-4.75z" fill="#3a5f00"/><path d="M154.23 106.18a.75.75 0 0 1 0 .21 3.35 3.35 0 0 1-.53 1.63l-3.48 5.43-14.67 22.85h-3.21l14.16-26.74h-23.75a5.52 5.52 0 0 1-.71 0 6.77 6.77 0 0 1 .71-13.56 6.63 6.63 0 0 1 1.61.2l27.16 6.64h.18a3.38 3.38 0 0 1 2.51 3.26z" fill="#80ae00"/><path d="M138.72 133.45L141.1 145h.7l-4.92-31.6h-2.27l1.23 6.07-8.29 5.7-8.43-5.8 1.25-6.17a13.78 13.78 0 0 1-2.15-.53L113.14 145h.7l2.35-11.42 11.36-7.81zM135.95 120l2.63 12.74-10.58-7.27zm-19.61 12.87l2.67-13 8.1 5.57z" fill="#3a5f00"/><path fill="#f8fefe" d="M168.65 145h-11.88v-3.31l3.11-.99 8.77 3.72v.58z"/><path d="M130.95 77v27.15h-16.76V76.53a5.75 5.75 0 0 1 4.73-5.67 5 5 0 0 1 1-.1h4.81a6.2 6.2 0 0 1 6.19 6.2z" fill="#3a5f00"/><path d="M147.76 88.54v3.27l-14 .78-16.91-11.47a5.59 5.59 0 0 1 5.86-9.53 5.51 5.51 0 0 1 1.85 1.87v.05l9.14 14.18z" fill="#80ae00"/><path d="M238.5 94v3H135.08a13.53 13.53 0 0 0-8.52-3z" fill="#3a5f00"/><path d="M142.2 111.4a2 2 0 0 1-2 2h-17.42a14.7 14.7 0 0 1-2.41-.2 13.79 13.79 0 0 1-2.15-.53 14.84 14.84 0 0 1-9.92-11.11l-4.92-24.33a2 2 0 0 1 3.91-.79L110.85 94h15.71a13.66 13.66 0 0 1 13.64 13.64v1.76a2 2 0 0 1 2 2z" fill="#f8fefe"/></g></svg>