<svg xmlns="http://www.w3.org/2000/svg" viewBox="0 0 360 180"><g data-name="company"><path fill="#8bccff" d="M0 0h360v180H0z"/><path d="M19.06 117.34h1.7v1.38h-6.52v-2.29c0-1.74.85-2.76 2.37-2.76s2.46 1 2.46 2.76zm-3.76 0H18v-.63c0-1.05-.41-1.62-1.4-1.62s-1.31.57-1.31 1.62zm4.13-6.57a5.65 5.65 0 0 0 .32-1.75c0-1-.27-1.34-.72-1.34s-.71.3-1 1.34c-.38 1.43-1.05 2-2 2-1.1 0-2-.93-2-2.55a6.45 6.45 0 0 1 .33-2l1.08.28a5.45 5.45 0 0 0-.28 1.62c0 .86.3 1.23.72 1.23s.71-.34.95-1.29c.39-1.56 1.05-2.13 2.05-2.13s1.91.89 1.91 2.62a7.22 7.22 0 0 1-.35 2.21zm-.37-9.05h1.7v1.38h-6.52v-2.29c0-1.74.85-2.75 2.37-2.75s2.46 1 2.46 2.75zm-3.76 0H18v-.63c0-1.05-.41-1.62-1.4-1.62s-1.31.57-1.31 1.62zM14.24 95v-2.44a2.9 2.9 0 0 1 3.25-3.17c2.14 0 3.28 1.18 3.28 3.17V95zm1.08-1.38h4.37v-.82c0-1.29-.56-2-2.2-2s-2.17.73-2.17 2zm2.99-8.74h2.45v1.38h-6.52v-4.33h1.14v3h1.85v-2.7h1.08zm-.65-7.39h3.11v1.38h-6.53v-1.38h3.21L14.24 75v-1.57L17.53 76l3.23-2.72V75zm-3.42-6.87v-1.38h6.53v1.38zm1.16-9.33v1.89h5.37v1.38H15.4v1.89h-1.16v-5.16zm325.54 1.37h-1.7v-1.37h6.53v2.29c0 1.74-.85 2.75-2.37 2.75s-2.46-1-2.46-2.75zm3.76 0H342v.63c0 1.05.41 1.62 1.4 1.62s1.31-.57 1.31-1.62zm-4.13 6.57a5.68 5.68 0 0 0-.31 1.75c0 1 .27 1.34.72 1.34s.71-.3 1-1.34c.38-1.43 1.05-2 2-2 1.1 0 2 .93 2 2.55a6.44 6.44 0 0 1-.33 2l-1.08-.28a5.47 5.47 0 0 0 .28-1.62c0-.86-.3-1.23-.72-1.23s-.71.34-.95 1.29c-.39 1.56-1.05 2.13-2.05 2.13s-1.91-.89-1.91-2.62a7.2 7.2 0 0 1 .35-2.21zm.37 9.05h-1.7V76.9h6.53v2.29c0 1.74-.85 2.75-2.37 2.75s-2.46-1-2.46-2.75zm3.76 0H342v.63c0 1.05.41 1.62 1.4 1.62s1.31-.57 1.31-1.62zm1.06 6.72v2.48a2.9 2.9 0 0 1-3.25 3.17c-2.14 0-3.28-1.18-3.28-3.17V85zm-1.08 1.38h-4.37v.82c0 1.29.56 2 2.2 2s2.17-.73 2.17-2zm-2.99 8.74h-2.45v-1.38h6.53v4.33h-1.14v-3h-1.85v2.66h-1.08zm.65 7.39h-3.11v-1.38h6.53v1.38h-3.21l3.21 2.46v1.59l-3.29-2.56-3.23 2.72V105zm3.42 6.87v1.38h-6.53v-1.38zm-1.16 9.33v-1.89h-5.37v-1.38h5.37v-1.89h1.16v5.16zM17.5 145.5a.5.5 0 0 1-.5-.5v-20a.5.5 0 0 1 1 0v20a.5.5 0 0 1-.5.5zm325 0a.5.5 0 0 1-.5-.5v-20a.5.5 0 0 1 1 0v20a.5.5 0 0 1-.5.5zm-325-90a.5.5 0 0 1-.5-.5V35a.5.5 0 0 1 1 0v20a.5.5 0 0 1-.5.5zm325 0a.5.5 0 0 1-.5-.5V35a.5.5 0 0 1 1 0v20a.5.5 0 0 1-.5.5zm-1.13 106.11l1.05 1.24a4 4 0 0 0 1.16 1c.19.1.16.13-.06.17l-1.6.3a5.83 5.83 0 0 0-1.4.43c-.17.08-.21 0-.16-.1s.35-.83.54-1.5a6 6 0 0 0 .27-1.43c.01-.24.07-.27.2-.11zm-1.03 1.9c-.07.19-.39 1-.79 2s-.85 2-1.23 2.74c-.7 1.36-1.74 1.63-2.49.85a2.65 2.65 0 0 1-.2-.28 2.59 2.59 0 0 1-.26-1.87 3.26 3.26 0 0 1 1-1.81 4.15 4.15 0 0 1 2.2-.37 1.78 1.78 0 0 0 1.58-.91v-.07zm9.29 2.2a2.7 2.7 0 0 1-.14.31 2.59 2.59 0 0 1-1.49 1.16 3.26 3.26 0 0 1-2.08 0c-.48-.18-1-1-1.42-1.72a1.78 1.78 0 0 0-1.61-.91h-.37c.19 0 1.07-.17 2.11-.3s2.16-.27 3-.31c1.56-.04 2.31.72 2 1.77zM342.2 160a1.78 1.78 0 0 0 0 1.83l.16.23c-.13-.16-.68-.85-1.32-1.67s-1.31-1.74-1.76-2.43c-.83-1.29-.54-2.33.52-2.58h.33a2.59 2.59 0 0 1 1.75.71A3.26 3.26 0 0 1 343 158a4.15 4.15 0 0 1-.8 2zM16.37 16.53l1.05 1.24a4 4 0 0 0 1.16 1c.19.1.16.13-.06.17l-1.6.3a5.83 5.83 0 0 0-1.4.43c-.17.08-.21 0-.16-.1s.35-.83.54-1.5a6 6 0 0 0 .27-1.43c.01-.23.07-.27.2-.11zm-1.03 1.9c-.07.19-.39 1-.79 2s-.85 2-1.23 2.74c-.7 1.36-1.74 1.63-2.49.85a2.65 2.65 0 0 1-.2-.28 2.59 2.59 0 0 1-.26-1.87 3.26 3.26 0 0 1 1-1.81 4.15 4.15 0 0 1 2.2-.37 1.78 1.78 0 0 0 1.58-.91v-.07zm9.29 2.2a2.7 2.7 0 0 1-.14.31A2.59 2.59 0 0 1 23 22.1a3.26 3.26 0 0 1-2.08 0c-.48-.18-1-1-1.42-1.72a1.78 1.78 0 0 0-1.61-.91h-.37c.19 0 1.07-.17 2.11-.3s2.16-.27 3-.31c1.56-.04 2.31.73 2 1.77zM17.2 15a1.78 1.78 0 0 0 0 1.83l.16.23c-.13-.16-.68-.85-1.32-1.67s-1.27-1.71-1.72-2.39c-.83-1.29-.54-2.33.52-2.58h.33a2.59 2.59 0 0 1 1.75.71A3.26 3.26 0 0 1 18 12.88a4.15 4.15 0 0 1-.8 2.12z" fill="#215894"/><path fill="#8bccff" d="M0 0h360v180H0z"/><circle cx="271.6" cy="40.59" r="1" fill="#59a5fc"/><circle cx="235.5" cy="25.5" r="1" fill="#59a5fc"/><circle cx="103.48" cy="69.55" r="1" fill="#59a5fc"/><path d="M258.72 74.39a.49.49 0 0 1 0 .7.51.51 0 0 1-.34.14.52.52 0 0 1-.37-.16l-1.39-1.49-1.39 1.49a.52.52 0 0 1-.37.16.51.51 0 0 1-.34-.14.49.49 0 0 1 0-.7l1.44-1.53-1.44-1.54a.5.5 0 0 1 0-.71.51.51 0 0 1 .71 0l1.39 1.49 1.38-1.46a.51.51 0 0 1 .71 0 .5.5 0 0 1 0 .71l-1.44 1.54zM102.38 31a.5.5 0 0 1 0 .71.5.5 0 0 1-.7 0l-1.39-1.48-1.39 1.48a.5.5 0 0 1-.37.16.48.48 0 0 1-.34-.13.51.51 0 0 1 0-.71l1.44-1.53-1.5-1.5a.5.5 0 0 1 .74-.68l1.39 1.48 1.39-1.48a.5.5 0 0 1 .73.68l-1.44 1.54z" fill="#215894"/><path d="M277.59 145H263a.5.5 0 0 1 0-1h14.59a.5.5 0 0 1 0 1zm-195.7 0H68.12a.5.5 0 0 1 0-1h13.77a.5.5 0 0 1 0 1zm168.19 0H97.36a.5.5 0 0 1 0-1h152.72a.5.5 0 0 1 0 1z" fill="#59a5fc"/><path d="M273.39 112.75c-.21.08-.43.15-.65.21a13.36 13.36 0 0 1-1.55.34l1.31 6.34-8 5.52-8.68-6 1.18-5.66h-2.27l-4.96 31.5h.7l2.31-11.19 11.69-8 10.83 7.44 2.43 11.75h.69zm-20.47 20.35l2.76-13.38 8.35 5.74zm12-7.64l7.7-5.29 2.54 12.34z" fill="#215894"/><path d="M288.19 77.33l-4.92 24.33a14.79 14.79 0 0 1-9.88 11.09c-.21.08-.43.15-.65.21a13.36 13.36 0 0 1-1.55.34 14.57 14.57 0 0 1-2.4.2h-17.42a2 2 0 1 1 0-4v-1.44A13.64 13.64 0 0 1 265 94.42h15.64l3.62-17.88a2 2 0 0 1 3.92.79z" fill="#f8fefe"/><path d="M81.81 145h.69l2.43-11.79 10.83-7.44 11.69 8 2.31 11.23h.7l-4.92-31.5h-2.27l1.17 5.69-8.68 6-8-5.52L89 113.3a13.36 13.36 0 0 1-1.55-.34 7.04 7.04 0 0 1-.65-.21zm14.39-19.54l8.35-5.74 2.76 13.38zm-11.12 7.05l2.54-12.34 7.7 5.29z" fill="#215894"/><path d="M72 77.33l5 24.33a14.79 14.79 0 0 0 9.88 11.09c.21.08.43.15.65.21a13.36 13.36 0 0 0 1.55.34 14.57 14.57 0 0 0 2.4.2h17.42a2 2 0 0 0 0-4v-1.44a13.64 13.64 0 0 0-13.68-13.64H79.58L76 76.54a2 2 0 0 0-3.92.79z" fill="#f8fefe"/><path fill="#f8fefe" opacity=".3" d="M117.5 35h125v50h-125z"/><path d="M142 51a3.43 3.43 0 1 1 0-4.85l-2.43 2.43z" fill="#215894"/><circle cx="145.16" cy="48.63" r=".72" fill="#215894"/><circle cx="152.19" cy="48.63" r=".72" fill="#215894"/><circle cx="159.22" cy="48.63" r=".72" fill="#215894"/><circle cx="166.25" cy="48.63" r=".72" fill="#215894"/><circle cx="173.27" cy="48.63" r=".72" fill="#215894"/><circle cx="180.3" cy="48.63" r=".72" fill="#215894"/><circle cx="187.33" cy="48.63" r=".72" fill="#215894"/><circle cx="194.36" cy="48.63" r=".72" fill="#215894"/><circle cx="201.39" cy="48.63" r=".72" fill="#215894"/><circle cx="201.39" cy="55.75" r=".72" fill="#215894"/><circle cx="201.39" cy="62.88" r=".72" fill="#215894"/><circle cx="201.39" cy="70.28" r=".72" fill="#215894"/><circle cx="208.42" cy="70.28" r=".72" fill="#215894"/><circle cx="215.45" cy="70.28" r=".72" fill="#215894"/><circle cx="222.48" cy="70.28" r=".72" fill="#215894"/><path fill="#59a5fc" d="M127.76 67.69l.58 1.78h1.87l-1.51 1.1.58 1.77-1.52-1.09-1.51 1.09.58-1.77-1.51-1.1h1.87l.57-1.78z"/><path fill="#215894" d="M242 97.6h1V145h-1zm-125 0h1V145h-1z"/><rect x="109" y="94.6" width="142" height="3" rx="1.45" ry="1.45" fill="#215894"/><path d="M160 112.68a10.69 10.69 0 0 1-2.21.28l1.28 6.35-8.52 5.85-8.4-5.77 1.3-6.43a10.7 10.7 0 0 1-2.22-.28L136.29 145h.7l2.32-11.51 11.24-7.72 11.4 7.84 2.3 11.39h.7zm-20.55 20.12l2.6-12.88 8.06 5.54zm11.55-7.34l8.19-5.62 2.63 13.07z" fill="#215894"/><path d="M160 112.68a10.69 10.69 0 0 1-2.21.28h-14.34a10.7 10.7 0 0 1-2.22-.28c-4.52-1.06-7.63-5.06-6.88-9.42l3.65-21.2a5.07 5.07 0 0 1 5.15-4h14.93a5.08 5.08 0 0 1 5.16 4l3.65 21.2c.74 4.36-2.37 8.36-6.89 9.42z" fill="#59a5fc"/><path d="M218.76 112.68a10.69 10.69 0 0 1-2.21.28l1.28 6.35-8.52 5.85-8.4-5.77 1.3-6.43a10.7 10.7 0 0 1-2.22-.28L195.05 145h.7l2.32-11.51 11.24-7.72 11.4 7.84L223 145h.7zm-20.55 20.12l2.6-12.88 8.06 5.54zm11.54-7.34l8.19-5.62 2.63 13.07z" fill="#215894"/><path d="M218.76 112.68a10.69 10.69 0 0 1-2.21.28h-14.34a10.7 10.7 0 0 1-2.22-.28c-4.52-1.06-7.63-5.06-6.88-9.42l3.65-21.2a5.07 5.07 0 0 1 5.15-4h14.93a5.08 5.08 0 0 1 5.16 4l3.65 21.2c.74 4.36-2.37 8.36-6.89 9.42z" fill="#59a5fc"/></g></svg>