<svg xmlns="http://www.w3.org/2000/svg" viewBox="0 0 359.36 180"><g data-name="Layer 2"><g data-name="windows"><path fill="#70d3ff" d="M0 0h359.36v180H0z"/><path fill="#f8fefe" d="M134.73 136.31l-3.54 1.16.49-1.16h3.05zm-6.94-78.7l-.43-4.45v-.15a6 6 0 0 0-11.9.7v5.67a5.9 5.9 0 0 0 5.17 5.86l-.07 2.46-2.24 3.16a5 5 0 0 1 1-.1h4.81a6.13 6.13 0 0 1 2.83.69l-2.41-3.75v-2.46h3.17v-3.73h1.89z"/><path d="M128.86 47.81a2 2 0 0 1-1.95 2h-2.7a5.07 5.07 0 0 1-3.64 7.35v8.12h-1a4.88 4.88 0 0 1-4.87-4.88v-8.28a5.06 5.06 0 0 1 5.02-5.12h5.39a2 2 0 0 1 1.8-1.19 2 2 0 0 1 1.95 2z" fill="#015c95"/><path d="M112.75 145h-14a.5.5 0 0 1 0-1h14a.5.5 0 1 1 0 1zm28.12 0h-16a.5.5 0 0 1 0-1h16a.5.5 0 0 1 0 1zm15.26 0h-11.89a.5.5 0 1 1 0-1h11.89a.5.5 0 0 1 0 1zm76.42 0h-30.38a.5.5 0 1 1 0-1h30.38a.5.5 0 0 1 0 1z" fill="#40abe6"/><path d="M159.24 140.7l-3.11 1-6.57-28.23L153 108a3.35 3.35 0 0 0 .53-1.63zM233.36 97v47.5a.5.5 0 0 1-.5.5.5.5 0 0 1-.5-.5V97zm-72.5-35.75h37v24h-37z" fill="#015c95"/><path fill="#0086c0" d="M160.86 61.25h37v24h-37z"/><path fill="#f8fefe" d="M173.97 67.68h10.79v1h-10.79zm0-2.48h10.79v1h-10.79zm0 4.96h10.79v1h-10.79zm0 2.48h10.79v1h-10.79zm0 2.48h10.79v1h-10.79zm0 2.48h5.54v1h-5.54z"/><path d="M199.36 87.75v-29h-40v29h18V92H169v2h20.7v-2h-8.35v-4.25zm-38.5-2.5v-24h37v24z" fill="#015c95"/><path d="M219.84 24.82v-.58l2.61-1.42v.82l-1.78.89 1.78.89v.82zm5.81-2.96h.84L225 27.4h-.84zm2.52 3.56l1.78-.89-1.78-.89v-.82l2.61 1.42v.58l-2.61 1.42zm57.9 39.4v-.58l2.61-1.42v.82l-1.78.89 1.78.89v.82zm5.8-2.96h.84l-1.5 5.55h-.84zm2.53 3.56l1.78-.89-1.78-.89v-.82l2.6 1.42v.58l-2.61 1.42zM168.6 37.91v-.58l2.61-1.42v.82l-1.78.89 1.78.89v.82zm5.8-2.97h.84l-1.5 5.55h-.84zm2.53 3.56l1.78-.89-1.78-.89v-.82l2.61 1.42v.58l-2.61 1.42zm61.83 40.17a.75.75 0 0 0 .62-.74c0-.49-.3-.73-.3-1.21s.52-1 1.28-1.15l.17.59c-.44.11-.64.37-.64.68s.25.65.25 1.15a1 1 0 0 1-.67 1 1 1 0 0 1 .67 1c0 .5-.25.73-.25 1.15s.2.56.64.68l-.17.59c-.76-.14-1.28-.53-1.28-1.15s.3-.72.3-1.21a.75.75 0 0 0-.62-.74zm3.35 1.5a1.9 1.9 0 0 0 .44.07c.29 0 .46-.12.46-.49v-3.22h.92v3.15c0 .86-.34 1.27-1.15 1.27a2.69 2.69 0 0 1-.77-.12zm5.52-.92a.75.75 0 0 0-.63.75c0 .49.3.73.3 1.21s-.52 1-1.28 1.15l-.17-.59c.44-.11.64-.37.64-.68s-.25-.65-.25-1.15a1 1 0 0 1 .67-1 1 1 0 0 1-.67-1c0-.5.25-.73.25-1.15s-.2-.56-.64-.68l.17-.59c.76.14 1.28.53 1.28 1.15s-.3.72-.3 1.21a.75.75 0 0 0 .62.74zm44.69-63.89c1.16 0 1.82.84 1.82 2.24s-.67 2.26-1.82 2.26-1.83-.84-1.83-2.26.68-2.24 1.83-2.24zm0 3.78c.56 0 .88-.47.88-1.54s-.32-1.52-.88-1.52-.88.47-.88 1.52.33 1.54.88 1.54zm-22.66 71.54c1.16 0 1.82.84 1.82 2.24s-.67 2.26-1.82 2.26-1.83-.84-1.83-2.26.67-2.24 1.83-2.24zm0 3.78c.56 0 .88-.47.88-1.54s-.32-1.52-.88-1.52-.88.47-.88 1.52.32 1.54.88 1.54zm-59.28-34.02v-3.38l-.76.36-.29-.68 1.19-.65h.77v4.35zM253.71 130v-3.38l-.71.38-.29-.68 1.19-.65h.77V130z" fill="#0086c0"/><path d="M244.48 60.44a1.29 1.29 0 0 1-1.27 1.29l-24.74 28V92a1.27 1.27 0 0 1 .77 1h6a.5.5 0 0 1 0 1h-14.5a.5.5 0 0 1 0-1h6a1.27 1.27 0 0 1 .77-1v-2.41a.48.48 0 0 1 .12-.33l24.65-28a1.27 1.27 0 0 1-.34-.86 1 1 0 0 1 .06-.4l-34.86-19.39a1.28 1.28 0 0 1-.79.27.44.44 0 0 1-.16 0l-1 1.8.55.31L204 46.2a4.73 4.73 0 0 1 .91 5.74l-8.23-4.58A4.72 4.72 0 0 1 202 45.1l1.8-3.23.53.3 1-1.81a1.28 1.28 0 0 1-.26-.77 1.3 1.3 0 0 1 2.59 0 .44.44 0 0 1 0 .16l35 19.53a1.32 1.32 0 0 1 .56-.13 1.29 1.29 0 0 1 1.26 1.29z" fill="#015c95"/><path fill="#f8fefe" opacity=".3" d="M198.18 48.21l5.17 2.88V94H159.8l38.38-45.79z"/><path fill="#0086c0" d="M149.18 84h6v10h-6z"/><path d="M156.84 90.46a1.91 1.91 0 0 1-1.92 1.91h-.22l-7.58-.87v-3h7.8a1.92 1.92 0 0 1 1.92 1.96zm-4.66-7.9a.5.5 0 0 1-.5-.5c0-4.69-4.14-6.9-8.14-9-3.79-2-7.36-3.94-7.36-7.8 0-5 5.34-6.83 10.06-8.48 3.33-1.16 6.47-2.26 6.47-4.17 0-2.58-2.48-3.62-4.88-4.63-1.9-.8-3.7-1.55-3.84-3.12-.12-1.34.83-2.09 1.93-3 1.8-1.43 4.28-3.38 4.28-9.38a.5.5 0 0 1 1 0c0 6.48-2.8 8.69-4.66 10.16-1.07.84-1.62 1.32-1.55 2.09.08 1 1.61 1.61 3.23 2.28 2.45 1 5.49 2.3 5.49 5.55 0 2.62-3.31 3.77-7.14 5.11-4.4 1.54-9.39 3.28-9.39 7.53 0 3.26 3.32 5 6.83 6.92 4.06 2.17 8.67 4.63 8.67 9.92a.5.5 0 0 1-.5.52z" fill="#f8fefe"/><path d="M189.27 140.25h-3.93v3.37h-6.08a.69.69 0 0 0 0 1.38H194a4.75 4.75 0 0 0-4.73-4.75z" fill="#015c95"/><path fill="#f8fefe" d="M141.16 144.11v.62l-11.26-4.25 1.29-3.01 3.54-1.16 6.43 7.8z"/><path d="M142.11 140.25h-3.93v3.37h-6.08a.69.69 0 0 0 0 1.38h14.77a4.75 4.75 0 0 0-4.76-4.75z" fill="#015c95"/><path d="M153.59 106.18a.75.75 0 0 1 0 .21A3.35 3.35 0 0 1 153 108l-3.48 5.43-14.67 22.85h-3.21l14.16-26.74h-23.69a5.52 5.52 0 0 1-.71 0 6.77 6.77 0 0 1 .71-13.54 6.63 6.63 0 0 1 1.61.2l27.16 6.64h.18a3.38 3.38 0 0 1 2.51 3.26z" fill="#0086c0"/><path d="M138.08 133.45l2.38 11.55h.7l-4.92-31.6H134l1.23 6.07-8.29 5.7-8.43-5.8 1.25-6.17a13.78 13.78 0 0 1-2.15-.53L112.5 145h.7l2.35-11.42 11.36-7.81zM135.31 120l2.63 12.74-10.58-7.27zm-19.61 12.87l2.67-13 8.1 5.57z" fill="#015c95"/><path fill="#f8fefe" d="M168.02 145h-11.89v-3.31l3.11-.99 8.78 3.72v.58z"/><path d="M130.31 77v27.15h-16.76V76.53a5.75 5.75 0 0 1 4.73-5.67 5 5 0 0 1 1-.1h4.81a6.2 6.2 0 0 1 6.19 6.2z" fill="#015c95"/><path d="M147.12 88.54v3.27l-14 .78-16.91-11.47a5.59 5.59 0 0 1 5.86-9.53 5.51 5.51 0 0 1 1.85 1.87v.05l9.14 14.18z" fill="#0086c0"/><path d="M237.86 94v3H134.44a13.53 13.53 0 0 0-8.52-3z" fill="#015c95"/><path d="M141.56 111.4a2 2 0 0 1-2 2h-17.42a14.7 14.7 0 0 1-2.41-.2 13.79 13.79 0 0 1-2.15-.53 14.84 14.84 0 0 1-9.92-11.11l-4.92-24.33a2 2 0 0 1 3.91-.79L110.21 94h15.71a13.66 13.66 0 0 1 13.64 13.64v1.76a2 2 0 0 1 2 2z" fill="#f8fefe"/></g></g></svg>