<svg fill="none" height="36" viewBox="0 0 36 36" width="36" xmlns="http://www.w3.org/2000/svg"><g fill="#3ddc84"><path clip-rule="evenodd" d="m3 27.6875c0-8.2843 6.71572-15 15-15 8.2843 0 15 6.7157 15 15zm24.375-5.625c0 1.0356-.8394 1.875-1.875 1.875s-1.875-.8394-1.875-1.875c0-1.0355.8394-1.875 1.875-1.875s1.875.8395 1.875 1.875zm-16.875 1.875c1.0355 0 1.875-.8394 1.875-1.875 0-1.0355-.8395-1.875-1.875-1.875-1.03553 0-1.875.8395-1.875 1.875 0 1.0356.83947 1.875 1.875 1.875z" fill-rule="evenodd"/><path d="m30.7482 11.4988c.5178-.8968.2105-2.04353-.6863-2.5613s-2.0435-.2105-2.5613.6863l-3.75 6.4952c-.5177.8968-.2105 2.0435.6863 2.5613s2.0436.2105 2.5613-.6863z"/><path d="m8.49759 9.62383c-.51777-.8968-1.6645-1.20407-2.5613-.6863s-1.20406 1.66447-.6863 2.56127l3.75 6.4952c.51777.8968 1.66451 1.2041 2.56131.6863s1.2041-1.6645.6863-2.5613z"/></g></svg>