<svg height="27" width="27" xmlns="http://www.w3.org/2000/svg"><path d="m23.89 21.297a.693.693 0 0 1 -.267.995.763.763 0 0 1 -.36.092h-19.526a.763.763 0 0 1 -.636-.35.693.693 0 0 1 .01-.737l9.744-16.91a.667.667 0 0 1 .267-.286.724.724 0 0 1 .737 0 .667.667 0 0 1 .267.286l9.763 16.91zm-9.137-5.36v1.51c-.27.344-.578.584-.921.719a2.332 2.332 0 0 1 -.94.184c-.896 0-1.345-.38-1.345-1.142 0-.48.16-.817.48-1.013.282-.172.755-.258 1.418-.258zm2.91 3.997 1.916-1.731-2.358-1.032.258.682-.958.184v-4.734c0-1.621-1.025-2.432-3.076-2.432a25.6 25.6 0 0 0 -2.082.092l-.92.092v1.4l.128.13.847-.093a18.96 18.96 0 0 1 1.714-.092c.515 0 .914.114 1.197.34.282.228.424.55.424.968v.829h-1.787c-.921 0-1.658.202-2.21.608-.652.479-.977 1.203-.977 2.173 0 1.707.817 2.56 2.45 2.56a2.995 2.995 0 0 0 1.879-.644 3.15 3.15 0 0 0 .46-.442l.148-.203h.073l-.036.977.129.129 2.818-.498z" fill="#b6292e" fill-rule="evenodd"/></svg>