<svg viewBox="0 0 240 240" xmlns="http://www.w3.org/2000/svg"><path d="m46 167.06-5.17-10.31-5.17 10.31zm11 9.61h-6.18l-2.62-5.23h-14.73l-2.61 5.23h-6.23l13.37-25.43h5.7l13.36 25.43zm47.23-12.67v7.23a10.37 10.37 0 0 1 -6.39 1.77c-3.26-.16-5.42-2-5.52-5.23s2.27-5.27 5.56-5.47a10 10 0 0 1 6.35 1.7zm5.45 12.68v-25.44h-5.45v8.55a15.32 15.32 0 0 0 -8.13-1.65c-5.56.36-9.58 3.77-9.4 9.67.17 5.75 3.82 9 9.34 9.25a13.16 13.16 0 0 0 8.55-2.49l.25 2.1zm-28.35 0v-17.9h-5.45v12.74a10.48 10.48 0 0 1 -5.5 1.62c-2.64 0-4.8-1.23-4.8-4.07v-10.3h-5.45v10.23c0 2.79.67 4.94 2.33 6.34a9.77 9.77 0 0 0 6.24 1.9 12.84 12.84 0 0 0 7.56-2.45l.23 1.89zm40.67-20.6v-4.84h-5.46v4.84zm0 20.59v-17.9h-5.46v17.9z"/><path d="m186.41 134a35.45 35.45 0 0 1 -22.29-7.87 35.53 35.53 0 0 1 -44.6 0 35.54 35.54 0 0 1 -44.61 0 35.57 35.57 0 1 1 -23.49-63.27h2.38a35.36 35.36 0 0 1 21.1 7.87 35.4 35.4 0 0 1 21.1-7.87h2.4a35.33 35.33 0 0 1 21.1 7.87 35.4 35.4 0 0 1 21.13-7.87h2.37a35.36 35.36 0 0 1 21.11 7.87 35.38 35.38 0 0 1 21.13-7.87h2.37a35.57 35.57 0 0 1 0 71.11c-.4.03-.8.03-1.2.03zm-61.59-13.16a28.1 28.1 0 0 0 34 0 35.47 35.47 0 0 1 0-44.82 28 28 0 0 0 -16-5.72h-2a28 28 0 0 0 -16 5.72 35.47 35.47 0 0 1 0 44.82zm-44.6 0a28.09 28.09 0 0 0 34 0 35.51 35.51 0 0 1 0-44.82 28 28 0 0 0 -16-5.72h-2a28 28 0 0 0 -16.02 5.7 35.46 35.46 0 0 1 0 44.82zm-28.61-50.55a28.14 28.14 0 1 0 18 50.54 35.51 35.51 0 0 1 -.01-44.83 28 28 0 0 0 -16-5.72zm117.82 50.54a28.14 28.14 0 1 0 18-50.54h-2a28 28 0 0 0 -16 5.72 35.46 35.46 0 0 1 0 44.82zm-94.53-39.55a28.11 28.11 0 0 0 0 34.28 28 28 0 0 0 0-34.28zm44.61 0a28.09 28.09 0 0 0 0 34.28 28.05 28.05 0 0 0 0-34.28zm44.6 0a28.07 28.07 0 0 0 0 34.28 28 28 0 0 0 0-34.28z"/></svg>