<svg xmlns="http://www.w3.org/2000/svg" width="236" height="140"><g fill="#495057"><path d="M101.67 57.19c.47-1.92.84-3.42 1.2-4.92 1.333-5.54 2.647-11.08 3.94-16.62 1.38-5.86 2.73-11.73 4.13-17.59 1.08-4.55 2.19-9.1 3.34-13.63a2.91 2.91 0 0 1 3-2.28c2.93-.06 5.87-.08 8.81 0 1.81.05 2.81 1.22 3.36 3.58l9.41 40a6783.3 6783.3 0 0 0 2.65 11.18c0 .17.14.46.23.47.3 0 .27-.29.32-.48 1.76-6.813 3.517-13.623 5.27-20.43 2.087-8.06 4.183-16.113 6.29-24.16a59.85 59.85 0 0 1 2.33-8.18 3 3 0 0 1 2.87-2c2.88-.06 5.76-.06 8.64 0 1.32 0 2 1.21 1.57 2.82-.52 2-1.11 3.9-1.71 5.83-2.967 9.527-5.94 19.053-8.92 28.58a11810.07 11810.07 0 0 1-6.28 20c-1 3.21-2 6.41-3.07 9.61a3.18 3.18 0 0 1-3 2.34 68.15 68.15 0 0 1-9.13 0c-2.25-.16-2.93-1.86-3.38-3.69-2.307-9.5-4.6-19-6.88-28.5a11835.5 11835.5 0 0 0-5-20.58c-.06-.24-.11-.51-.39-.55 0 0-.17.34-.21.53-1.76 7.333-3.513 14.667-5.26 22-1.3 5.43-2.58 10.87-3.89 16.3a933.958 933.958 0 0 1-2.94 11.87 3.19 3.19 0 0 1-3 2.65 59.85 59.85 0 0 1-9.29 0c-2.55-.21-3-2.36-3.58-4.26-2.35-7.66-4.66-15.34-7-23l-7.51-25.02C77.3 14.8 76 10.53 74.72 6.26A9.34 9.34 0 0 1 74.3 4a1.66 1.66 0 0 1 1.82-1.93h7.16c3.62 0 4.55.83 5.43 4.36 2.18 8.74 4.43 17.47 6.65 26.2l5.82 22.91c.11.46.24.82.49 1.65zM198 73.4c-7.06-.22-13.95-1.27-20.4-4.36a5 5 0 0 1-3.2-5.22c.07-1.09 0-2.2 0-3.29.05-2.27 1.2-3.1 3.27-2.2a48.2 48.2 0 0 0 11.85 3.76c6.3.95 12.6 1.54 18.59-1.46a8.13 8.13 0 0 0 4.8-7.62c.05-3.6-1.8-6-4.86-7.55-3.94-2-8.24-3.06-12.43-4.4-4.84-1.54-9.77-2.89-13.74-6.3-10.08-8.67-8.56-23.95 3-30.71C191.05.45 197.75-.44 204.71.2a40.64 40.64 0 0 1 13.95 3.49c2.17 1 3.55 2.58 3.32 5.2-.1 1.2 0 2.41 0 3.62a1.86 1.86 0 0 1-2.75 1.85 46.24 46.24 0 0 0-11-3.35c-5-.64-9.94-.83-14.77 1a7.53 7.53 0 0 0-5.3 7.26c-.14 3.58 1.68 6 4.7 7.65 4.12 2.24 8.66 3.32 13.06 4.77 4.88 1.61 9.91 2.89 13.9 6.38 5.38 4.7 7 10.76 5.64 17.55-1.76 8.67-7.61 13.59-15.76 16.16A37.79 37.79 0 0 1 198 73.4zM70.41 63.58c-1.54-3-3-5.94-3.28-9.37-.44-5.62-.05-11.25-.26-17.31 0-4.42.12-9.28 0-14.14A25.29 25.29 0 0 0 63 9.44c-3.84-5.86-9.72-8.14-16.27-9A51 51 0 0 0 18.4 4.82c-2.24 1-3.42 2.51-3.19 5 .09 1 0 2 0 3 0 2.72.79 3.33 3.36 2.57.39-.12.76-.3 1.14-.45 7.82-3.18 15.8-5.28 24.34-3.55 4.12.83 7.3 2.83 8.76 7 1.55 4.45 1.17 9 1.21 13.62 0 .45-.3.43-.64.37-1.53-.31-3.06-.65-4.59-.93-7-1.28-13.9-1.8-20.92-.23C16.79 33.79 10 42.69 10.62 54c.57 9.91 6.61 17.1 16 18.6 10.76 1.72 20.06-1.24 27.47-9.44.64-.7.91-.7 1.32.17a23.15 23.15 0 0 0 4.75 7.21 3 3 0 0 0 3.83.55c2-1.19 3.89-2.44 5.74-3.78 1.38-.96 1.49-2.17.68-3.73zM54.07 42.67c-.07 3.38.1 6.8-1.2 10C51 57.31 47.29 60 42.64 61.58a21.13 21.13 0 0 1-9.15 1.13c-5.94-.71-8.93-3.89-9.31-9.84C23.72 45.78 27.69 41 34.73 40a44.72 44.72 0 0 1 4.63-.32 65.59 65.59 0 0 1 13.51 1.43c.93.21 1.22.61 1.2 1.56zM114.84 140a126.54 126.54 0 0 1-18.66-1 173.49 173.49 0 0 1-17.16-3 177.13 177.13 0 0 1-25.46-7.8 174.74 174.74 0 0 1-24.41-11.66c-9.8-5.67-19.21-11.89-27.2-20a3.65 3.65 0 0 1-1.18-1.77 2 2 0 0 1 .61-2.17 2.18 2.18 0 0 1 2.41-.06c4.13 1.83 8 4.12 12 6.17 4.78 2.44 9.57 4.83 14.48 7s10 4.2 15.09 5.95 10 3.28 15.09 4.58c4.9 1.25 9.84 2.34 14.81 3.31a222.58 222.58 0 0 0 30.16 3.67 258 258 0 0 0 26.4.18c7.9-.36 15.75-1.13 23.56-2.25 4.22-.61 8.41-1.47 12.59-2.36a195.08 195.08 0 0 0 22.57-6.4c6.26-2.16 12.43-4.56 18.62-6.91 2.93-1.11 5.65.54 5.29 3.38-.2 1.57-1.72 2.21-2.79 3.08-6.62 5.43-14.12 9.39-21.91 12.84a165.25 165.25 0 0 1-17.23 6.41 182.621 182.621 0 0 1-17.12 4.51c-6 1.27-12.05 2.28-18.16 3a170.86 170.86 0 0 1-22.4 1.3z"/><path d="M212.24 96.16c-6.056.142-12.101.6-18.11 1.37-.14 0-.27.05-.41.05-.81 0-1.79.21-2.12-.79-.33-1 .38-1.62 1.05-2.14a30.71 30.71 0 0 1 8.26-4.34 53.1 53.1 0 0 1 19.62-3A35.59 35.59 0 0 1 232 89.12c2.43.88 3.16 1.89 3.26 4.5a42.72 42.72 0 0 1-2 13.67 52.34 52.34 0 0 1-7.4 15.73 34.57 34.57 0 0 1-6.1 6.65 2.75 2.75 0 0 1-1.62.73 1.2 1.2 0 0 1-1.3-1.75c2-5.27 4.13-10.47 5.73-15.88a54.27 54.27 0 0 0 2-8.87c.58-4.79-1.21-6.89-6.42-7.45a46.48 46.48 0 0 0-5.91-.29z"/></g></svg>
