<svg viewBox="0 0 900.4 162.2" xmlns="http://www.w3.org/2000/svg"><path d="m108.3 99.8v-12.4l-11-6.3-32.2 18.3 21.9 12.6zm-43.2-62.1 20.2 11.5 23-13.1v26.2l21.4 12.2v-73.6zm-64.6 123.6 64.6-36.8v-25l-43.2 24.6v-36.7l43.2-24.6v-25l-64.6 36.7z" fill="#0071b5"/><path d="m.5.9v73.7l21.4-12.2v-26.3l23 13.1 20.2-11.5zm32.4 80.2-11 6.3v12.4l21.3 12.2 21.9-12.5zm32.2-43.4v25l43.2 24.6v36.7l-43.2-24.5v25l64.6 36.8v-86.8zm154.3 42.5v-.4c5.8-.9 10.3-3.1 13.3-6.4s4.5-7.4 4.5-12.4c0-7.3-2.5-12.7-7.4-16.3-5-3.6-12.7-5.4-23.3-5.4h-23.5v85.7h26.3c9.6 0 17-2.1 22.3-6.4 5.2-4.3 7.9-10.3 7.9-18.2 0-5.9-1.6-10.5-4.8-13.8-3.4-3.2-8.5-5.4-15.3-6.4zm-30.5-35.5h17.3c8.2 0 14.3 1.3 18.4 3.9s6.2 6.7 6.2 12.4-1.8 9.9-5.5 12.6-9.5 4-17.6 4h-18.9v-32.9zm20.2 75.1h-20.2v-37h18.9c16.7 0 25.1 5.9 25.1 17.7 0 12.9-7.9 19.3-23.8 19.3zm71.5-80.8-34.5 86.1h6.6l12-30.3h34.8l11.9 30.3h6.7l-33.7-86.1zm16.9 50.5h-30.7l12-30.8c1.3-3 2.4-6.5 3.5-10.2 1.4 4.3 2.5 7.7 3.5 10.1zm47.4-45.9c-6.2 3.6-10.9 8.7-14.2 15.4-3.3 6.6-5 14.3-5 23 0 14 3.5 24.8 10.4 32.6s16.4 11.7 28.4 11.7c8.5 0 15.6-1 21.2-3v-5.3c-6 1.8-12.6 2.8-19.8 2.8-10.8 0-19.2-3.4-25-10.1-5.8-6.8-8.7-16.3-8.7-28.5 0-12 3.1-21.4 9.3-28.3s14.6-10.3 25.4-10.3c6.9 0 13.4 1.6 19.7 4.7l2.4-5.4c-6.6-3.1-14.1-4.7-22.5-4.7-8.2 0-15.4 1.8-21.6 5.4zm116.6-4.2h-7.6l-33.6 35.1-9.5 9.5v-44.6h-6v85.7h6v-35.2l11.4-10.1 32.9 45.3h7.3l-36.1-49.5zm49.7 40.8v-.4c5.8-.9 10.3-3.1 13.3-6.4s4.5-7.4 4.5-12.4c0-7.3-2.5-12.7-7.4-16.3-5-3.6-12.7-5.4-23.3-5.4h-23.5v85.7h26.2c9.6 0 17-2.1 22.3-6.4 5.2-4.3 7.9-10.3 7.9-18.2 0-5.9-1.6-10.5-4.8-13.8-3.3-3.2-8.4-5.4-15.2-6.4zm-30.5-35.5h17.3c8.2 0 14.3 1.3 18.4 3.9s6.2 6.7 6.2 12.4-1.8 9.9-5.5 12.6-9.5 4-17.6 4h-18.9v-32.9zm20.2 75.1h-20.2v-37h18.9c16.7 0 25.1 5.9 25.1 17.7 0 12.9-7.9 19.3-23.8 19.3zm111-70c-6.7-7.8-16.1-11.8-28-11.8s-21.3 3.9-28.1 11.8c-6.9 7.8-10.3 18.6-10.3 32.2 0 13.7 3.4 24.5 10.2 32.4s16.2 11.9 28.1 11.9c12 0 21.3-4 28.1-11.9s10.2-18.7 10.2-32.3-3.4-24.4-10.2-32.3zm-4.5 60.9c-5.5 6.6-13.3 10-23.7 10-10.2 0-18.1-3.4-23.6-10.1s-8.2-16.2-8.2-28.5c0-12.2 2.8-21.7 8.3-28.3s13.4-10 23.6-10 18.1 3.3 23.5 9.9c5.5 6.6 8.2 16.1 8.2 28.4.1 12.4-2.6 21.9-8.1 28.6zm90.9-15.4c0 6.3.2 13 .5 20.1h-.4l-50.7-76h-6v85.7h5.7v-55.6c0-4.6-.2-11.5-.7-20.5h.5l50.8 76.1h6v-85.7h-5.8v55.9zm30 29.8h46.9v-5.5h-40.9v-36.8h38.6v-5.5h-38.6v-32.4h40.9v-5.5h-46.9zm68.4-10.3c-3.1 0-4.7 1.9-4.7 5.7s1.6 5.7 4.7 5.7c3.2 0 4.8-1.9 4.8-5.7s-1.6-5.7-4.8-5.7zm26.6 10.9c0 10.3-4.7 15.5-14.2 15.5-2.8 0-5.7-.4-8.7-1.2v5.2c2.3 1.1 5.3 1.6 8.9 1.6 13.4 0 20.1-7.2 20.1-21.6v-85.8h-6v86.3zm67.4-40.1c-3.4-2.2-8.4-4.4-15.1-6.7-6.4-2.3-10.9-4.2-13.5-5.8s-4.5-3.4-5.7-5.5c-1.2-2-1.7-4.6-1.7-7.8 0-5 1.9-9 5.6-12 3.8-2.9 8.8-4.4 15.1-4.4 6.5 0 13.3 1.5 20.4 4.5l2.2-5.2c-7.1-3-14.6-4.6-22.7-4.6-7.9 0-14.4 2-19.4 6.1-5 4-7.5 9.3-7.5 15.7 0 5.8 1.7 10.5 5 14s9.4 6.8 18.1 9.8c6 2 10.5 3.9 13.6 5.7s5.3 3.7 6.7 5.8 2.1 4.8 2.1 8.1c0 5.2-2.1 9.5-6.2 12.7s-9.7 4.8-16.7 4.8c-9.6 0-17.5-1.3-23.6-3.9v6c5.6 2.3 13.6 3.5 24.1 3.5 8.7 0 15.7-2.1 21-6.3s7.9-9.9 7.9-17c0-3.9-.8-7.2-2.3-10-1.6-2.8-4-5.3-7.4-7.5z" fill="#002a41"/><path d="m130.2 0-65.1 37.1-65.1-37.1v162.2l65.1-37.1 65.1 37.1zm-43.2 111.4-20.9-11.9 31.2-17.8 10.5 6v11.9zm20.8-10.7v22.6l-19.8-11.3zm-42.7-1.8-31.2-17.8 31.2-17.8 31.2 17.8zm-42.7.6v-11.8l10.5-6 31.2 17.8-20.9 11.9zm19.8 12.5-19.8 11.3v-22.6zm-41.2-110.3 63.1 36-19.2 11-23.5-13.5v26.8l-20.4 11.7v-72zm42.9 47.5-21.5 12.3v-24.5zm-42.9 25.6 63.6-36.3v23.9l-43 24.5-.3.1v38l43.2-24.6v23.9l-63.5 36.2zm128.2 85.7-63.6-36.3v-23.9l43.2 24.6v-37.8l-43.2-24.6v-23.9l63.6 36.3zm-42.9-111.3 21.5-12.2v24.5zm42.9 24.5-20.4-11.6v-26.9l-23.5 13.5-19.2-11 63.1-36z" fill="#848484"/></svg>