<svg height="63" width="129" xmlns="http://www.w3.org/2000/svg" xmlns:xlink="http://www.w3.org/1999/xlink"><mask id="a" fill="#fff"><path d="m.266 66.987h135.435v-66.343h-135.435z" fill="#fff" fill-rule="evenodd"/></mask><g mask="url(#a)" transform="translate(-4 -1)"><path d="m116.47 39.712h5.74c1.396 0 2.497.353 3.295 1.05.807.698 1.21 1.69 1.21 2.96 0 1.285-.437 2.327-1.31 3.1-.841.74-1.926 1.102-3.262 1.102h-5.674v-8.212zm0 22.736v-9.876h6.27c2.992 0 5.396-.773 7.203-2.32 1.891-1.622 2.833-3.79 2.833-6.514 0-2.681-.816-4.8-2.463-6.363-1.64-1.538-3.925-2.303-6.842-2.303h-12.86v27.376h5.858zm-31.849-10.675c0 3.455.908 6.162 2.732 8.137 1.958 2.126 4.883 3.194 8.775 3.194 3.782 0 6.64-.984 8.581-2.942 1.984-2 2.976-4.791 2.976-8.389v-16.7h-5.917v17.095c0 4.018-1.866 6.027-5.59 6.027-3.757 0-5.64-2.009-5.64-6.027v-17.096h-5.917zm-10.12-9.859c1.277 1.681 1.916 3.967 1.916 6.867 0 3.16-.773 5.59-2.311 7.288-1.27 1.412-2.95 2.126-5.018 2.126-2.312 0-4.119-.866-5.422-2.589-1.252-1.672-1.882-3.942-1.882-6.825 0-2.9.63-5.186 1.882-6.867 1.312-1.74 3.094-2.606 5.355-2.606 2.328 0 4.16.866 5.48 2.606zm-15.23-3.665c-2.346 2.522-3.514 6.044-3.514 10.54 0 4.926 1.404 8.641 4.203 11.163 2.328 2.101 5.37 3.152 9.128 3.152 4.186 0 7.464-1.278 9.826-3.833 2.353-2.53 3.53-6.018 3.53-10.481 0-4.472-1.177-7.994-3.53-10.54-2.354-2.564-5.59-3.833-9.717-3.833-4.253 0-7.565 1.277-9.927 3.832zm-21.391 1.463h5.707c1.572 0 2.74.277 3.514.84.781.564 1.168 1.497 1.168 2.8 0 2.538-1.563 3.807-4.682 3.807h-5.707zm0 22.736v-10.675h5.884l4.984 10.675h6.632l-5.867-11.65c3.21-1.487 4.816-3.933 4.816-7.337 0-2.396-.613-4.279-1.84-5.674-1.572-1.815-4.035-2.715-7.38-2.715h-13.13v27.376zm-11.465-24.627c-1.958-2.27-4.984-3.404-9.078-3.404-4.185 0-7.455 1.31-9.825 3.933-2.329 2.58-3.488 6.136-3.488 10.675 0 5.035 1.395 8.792 4.202 11.263 2.118 1.874 4.85 2.816 8.212 2.816 3.648 0 6.397-1.143 8.237-3.421l.622 2.765h3.783v-14.482h-10.162v4.287h4.396v1.26c0 1.404-.597 2.556-1.79 3.438-1.135.832-2.581 1.244-4.33 1.244-2.277 0-4.034-.782-5.261-2.345-1.253-1.572-1.883-3.841-1.883-6.808 0-3.051.597-5.422 1.79-7.111 1.244-1.748 3.001-2.623 5.287-2.623 3.178 0 5.287 1.656 6.33 4.985l5.547-1.354c-.588-2.11-1.454-3.824-2.589-5.118zm49.255-8.683 5.094-19.332 4.824 19.332h6.414l6.648-27.384h-6.026l-4.136 19.752-4.673-19.752h-5.859l-4.833 19.752-4.026-19.752h-6.177l6.28 27.384h6.471zm-39.034.017v-19.508l6.489 19.508h4.841l6.456-19.508v19.508h5.606v-27.375h-7.75l-6.598 20.332-6.682-20.333h-7.926v27.376zm-25.821-22.735h6.237c1.218 0 2.143.143 2.79.429 1.05.462 1.572 1.336 1.572 2.622 0 1.067-.345 1.85-1.025 2.345-.664.496-1.774.74-3.337.74h-6.237v-6.137zm0 10.75h6.17c1.63 0 2.849.21 3.656.622 1.05.538 1.572 1.555 1.572 3.026 0 1.236-.328 2.127-.992 2.681-.807.673-2.22 1.01-4.237 1.01h-6.169zm6.06 11.986c7.531 0 11.297-2.748 11.297-8.229 0-3.05-1.463-5.16-4.396-6.329 2.353-1.134 3.53-3.093 3.53-5.867 0-2.437-.966-4.261-2.891-5.48-1.538-.983-3.623-1.47-6.262-1.47h-13.154v27.375z"/></g></svg>