<svg width="79" height="42" xmlns="http://www.w3.org/2000/svg"><path d="M40.567 35.82c-4.828.029-8.77-3.902-8.795-8.784-.037-4.882 3.852-8.86 8.684-8.89 4.828-.037 8.768 3.895 8.8 8.776.033 4.886-3.856 8.868-8.69 8.898m-25.75.165c-4.83.033-8.77-3.899-8.799-8.777-.033-4.885 3.856-8.867 8.69-8.897 4.822-.033 8.765 3.898 8.798 8.776.027 4.886-3.863 8.872-8.688 8.898m25.6-23.743c-5.585.04-10.408 3.245-12.828 7.914-2.48-4.643-7.341-7.784-12.92-7.745A14.404 14.404 0 0 0 5.94 15.41L5.86 3.002C5.815 1.399 4.515.12 2.926.132 1.336.142.05 1.436.036 3.038l.148 24.449H.19c.178 8.028 6.69 14.45 14.66 14.399 5.58-.037 10.403-3.242 12.83-7.915 2.473 4.64 7.345 7.783 12.924 7.746 8.049-.051 14.531-6.693 14.482-14.831-.052-8.139-6.618-14.695-14.67-14.644"/><path d="M78.336 36.99l-8.243-9.947 8.116-10.053h-.004c1.005-1.29.698-3.088-.694-4.036-1.407-.945-3.373-.69-4.433.564v-.006l-7.012 8.679-7.115-8.587v.007c-1.078-1.244-3.055-1.476-4.436-.51-1.392.967-1.67 2.763-.647 4.05l8.239 9.942-8.113 10.05c-1.006 1.297-.7 3.089.705 4.036 1.394.95 3.366.695 4.426-.562l7.003-8.672 7.122 8.584c1.076 1.243 3.048 1.473 4.442.509 1.386-.974 1.664-2.765.644-4.049"/></svg>