<svg fill="none" height="36" viewBox="0 0 36 36" width="36" xmlns="http://www.w3.org/2000/svg" xmlns:xlink="http://www.w3.org/1999/xlink"><clipPath id="a"><path d="m0 1h36v34.3631h-36z"/></clipPath><g clip-path="url(#a)"><path d="m32.7277 35.3631h-5.829l.4093-4.9092h-2.8632l-.4092 4.9092h-12.0698l-.4092-4.9092h-2.86316l.40922 4.9092h-5.83032l-3.27234-21.2723 8.18156-13.0908h19.63684l8.1816 13.0908zm-6.5461-27.81701h-5.2594l.3501 2.45391h-6.546l.3501-2.45391h-5.25937l-3.27094 6.54471 1.63688 13.0908h19.63683l1.6369-13.0908zm-2.8632 15.29161c-.4514 0-.8184-1.3627-.8184-3.0432 0-1.6804.367-3.0431.8184-3.0431s.8185 1.3627.8185 3.0431c0 1.6805-.3671 3.0432-.8185 3.0432zm-10.3303.2531c-.4514 0-.8184-1.3627-.8184-3.0431 0-1.6805.367-3.0432.8184-3.0432s.8185 1.3627.8185 3.0432c0 1.6804-.3657 3.0431-.8185 3.0431z" fill="#32383d"/></g></svg>