<svg height="240" viewBox="0 0 480 240" width="480" xmlns="http://www.w3.org/2000/svg"><path d="m240.291 78.6762c1.761.0832 3.445.7562 4.777 1.9095 1.817 1.7166 2.292 4.5809 1.433 6.8723-3.342 6.8722-11.289 11.4607-16.721 12.979-3.247.764-7.356.764-10.318-.38-1.434.858-2.643 3.634-4.394 2.48-2.536-1.977-.341-5.0722-1.806-7.269-.3-.4519-1.059-.4859-1.442-1.2251-2.008-4.39.477-8.5908 3.248-11.9296 4.618-5.1481 17.865-10.8823 25.223-3.4371zm-15.382 3.4352c-2.581.4764-5.496 1.5994-7.07 3.4371-1.577 1.8357-2.58 3.6261-1.624 5.5356 3.344-2.4804 4.968-5.9175 8.694-8.0161 0-.3838.572-.6711 0-.9566zm15.576.9547c-6.596-.5728-11.564 4.3919-16.246 9.1618-.286.7638-2.006 1.6221-.668 2.4824 6.308.5728 12.326-1.2403 16.912-5.4412 1.34-1.2402 2.29-2.8623 1.625-4.5808-.335-.7139-.91-1.2878-1.625-1.6222zm57.129 28.4439c3.056 7.445 5.636 19.182 0 26.342-1.529 1.718-4.203 3.301-5.924 2.004-6.305-5.058-8.98-12.312-12.897-18.804-.572-.286-.572.48-.859.766-1.433 6.584 1.241 15.175-3.248 20.327-1.718.287-3.327-.595-3.917-2.288-2.199-6.777.094-13.841.666-20.618 1.338-3.435 1.911-7.444 4.873-10.02 4.779 1.907 7.07 7.254 9.839 11.167 2.008 2.957 3.632 6.3 5.924 8.971 2.006-.858 1.018-3.479.956-5.059-.767-6.203-2.485-11.93-4.111-17.847-.095-1.528-.952-4.105.668-5.059 4.306 1.909 6.119 6.394 8.03 10.118zm-28.853-2.291c0 1.431-1.147 3.221-2.105 3.435-9.171 1.431-19.394.573-27.992 3.435-.288 1.049.956 1.24 1.624 1.528 7.354 1.143 15.096 1.431 22.261 3.244 3.789.962 5.161 5.443 5.449 9.164.176 2.934-.954 6.49-3.823 8.496-7.068 4.484-17.865 4.291-25.032.191-2.741-1.535-5.35-4.008-5.542-7.062.017-2.425 1.053-4.335 2.771-5.25 6.881-2.768 15.382-1.238 21.308 2.29.378 1.909-1.688 1.807-2.678 2.482-6.594 3.819-11.561-4.292-17.676-1.337-.859.573-1.48 2.171-.477 2.674 7.547 3.34 15.954.955 23.407-1.146.861-.285 1.911-1.144 2.006-2.004-.286-3.053-3.725-3.721-5.924-4.579-6.497-1.622-13.662-1.622-20.636-2.291-1.338-.286-3.043-1.216-3.439-2.288-.764-2.291-.764-5.441.954-7.351 8.886-7.827 22.357-7.157 33.63-5.059.765.282 1.626.567 1.912 1.428zm-41.751 3.626c.859 9.162 1.336 17.658 1.145 27.298-.19 1.238-1.624 1.526-2.578 2.004-1.529.284-3.505-.04-4.109-.86-2.197-3.534-1.432-8.302-1.623-12.597.285-6.776.189-14.127 2.1-20.426.368-.915 1.435-1.719 2.294-1.148 2.292 1.148 2.674 3.439 2.771 5.729zm106.149-1.335c.458.771.939 1.962 0 2.48-4.299 1.91-10.127 1.05-15.096 1.623-1.338 1.143-2.391 3.053-1.914 4.771.481.288.909.723 1.437.668 3.054.191 7.642-1.431 9.652 1.431.488.851-.069 4.033-1.435 4.103-3.728.482-9.858-.466-11.658.482-2.292 1.525-2.102 4.484-2.962 6.872 1.624 1.049 3.326-.025 5.252-.287 3.539-.573 7.457-1.623 10.99-.859.668 1.24 1.626 2.577.956 4.103-6.024 4.774-13.793 9.665-22.071 6.205-3.104-1.392-4.489-6.107-3.437-10.115.666-2.864 3.628-5.632 1.813-8.685-.284-1.339.481-2.483 1.628-2.768 3.151 0 2.479-3.914 4.107-5.729-1.817-2.004-6.401-1.909-5.924-5.917 2.199-1.144 4.875-.762 7.356-1.144 5.636-1.148 11.942-1.815 17.678-1.148 1.143.231 2.673 2.483 3.628 3.914zm-136.435-21.7606c8.817 7.1974 20.255 19.4696 18.823 33.5956-1.722 11.168-13.57 19.566-23.6 22.239-9.746 2.862-21.976 2.577-31.914.286-.668 1.815-1.338 4.008-3.438 4.773-1.336.477-3.059.189-4.107-.669-2.962-2.768-.575-8.112-4.875-9.829-8.409-3.532-17.485-10.5-21.783-19.089-.573-1.719.095-3.436 1.147-4.772 6.593-5.249 14.903-7.349 23.217-8.971.477.189.286-.478.668-.669.477-5.727.668-11.55 2.483-16.7037.417-.7241 1.433-.9547 2.103-.4764 5.255 4.008 2.771 11.5491 5.064 16.9891 10.033.476 20.065.953 27.994 6.587 2.676 2.193 3.327 6.384 2.483 8.779-.842 2.392-3.629 4.105-6.209 4.292-1.722 0-4.968.17-4.779-1.142.192-1.312 5.846-3.46 4.109-5.25-2.494-2.575-14.983-4.105-22.723-5.059-.954-.191-1.83.094-1.83 1.145-.192 7.253-.765 15.269.476 22.239.095.479.669 1.052 1.147 1.144 13.664 2.195 28.091.955 38.791-6.872 4.968-4.006 6.594-9.642 5.733-15.843-4.3-17.2764-22.357-27.6803-37.167-34.3616-14.425-6.2995-30.383-9.5456-47.484-8.6854-2.725.2004-7.04 1.1382-7.07 2.1024-.032.9623 4.888.6579 4.298 2.4804-.587 1.8187-5.589.7392-7.069.2855-1.482-.4538-1.338-2.5769-.956-3.9135 3.729-6.5849 14.126-7.1181 18.823-7.3487 25.985-.6693 51.117 9.2166 67.645 22.7154zm-46.817 25.5796c-6.594.095-13.568.762-19.683 3.051-1.241.479-2.77 1.815-1.816 3.438 2.484 3.338 6.037 6.082 9.364 8.016 3.329 1.932 7.74 4.391 11.752 4.964.956-6.205.956-12.313.861-18.707-.384-.191-.002-.573-.478-.764zm197.488-8.687c-.288 8.303-8.028 13.457-8.028 21.76.286.288.48.668.859.481 6.213-6.778 12.326-16.418 21.404-19.281 2.391-.191 4.552 1.885 5.447 3.438 3.153 6.297 2.39 15.175-2.006 20.902-4.536 5.621-12.423 11.262-21.399 10.305-3.726 9.164-6.309 18.804-7.744 28.826-.763 2.004-2.578.191-3.723-.189-7.74-6.11-1.385-22.28-.859-24.343.525-2.059 2.595-6.912 4.109-10.977-3.63-6.488-1.338-14.317 1.624-20.329 2.29-4.008 5.448-8.018 9.173-11.072.473 0 .855.095 1.143.479zm15.384 10.307c-1.147-.189-1.626 1.337-2.579 1.624-4.393 4.963-8.791 9.926-10.988 15.843 2.963.382 5.446-1.525 8.028-2.575 4.392-2.769 7.165-7.348 6.877-12.598-.191-.863-.956-1.532-1.338-2.294z"/></svg>