<svg width="138" height="58" xmlns="http://www.w3.org/2000/svg"><path d="M69.378 7.123c.93.044 1.82.4 2.524 1.01.96.908 1.211 2.423.757 3.635-1.766 3.635-5.965 6.062-8.835 6.865-1.716.404-3.887.404-5.452-.201-.758.454-1.397 1.922-2.322 1.312-1.34-1.046-.18-2.683-.954-3.845-.159-.239-.56-.257-.762-.648-1.061-2.322.252-4.544 1.716-6.31 2.44-2.723 9.44-5.756 13.328-1.818zM61.25 8.94c-1.364.252-2.904.846-3.736 1.818-.833.971-1.363 1.918-.858 2.928 1.767-1.312 2.625-3.13 4.594-4.24 0-.203.302-.355 0-.506zm8.23.505c-3.485-.303-6.11 2.323-8.584 4.846-.151.404-1.06.858-.353 1.313 3.333.303 6.513-.656 8.936-2.878.708-.656 1.21-1.514.859-2.423a1.785 1.785 0 0 0-.859-.858zM99.667 24.49c1.615 3.938 2.978 10.146 0 13.933-.808.909-2.221 1.746-3.13 1.06-3.332-2.675-4.745-6.512-6.815-9.946-.302-.151-.302.254-.454.405-.757 3.483.656 8.027-1.716 10.752-.908.152-1.758-.315-2.07-1.21-1.162-3.585.05-7.321.352-10.906.707-1.817 1.01-3.937 2.575-5.3 2.525 1.009 3.736 3.837 5.199 5.907 1.061 1.564 1.919 3.332 3.13 4.745 1.06-.454.538-1.84.505-2.676-.405-3.281-1.313-6.31-2.172-9.44-.05-.808-.503-2.171.353-2.676 2.275 1.01 3.233 3.382 4.243 5.352zm-15.246-1.212c0 .757-.606 1.704-1.112 1.817-4.846.757-10.248.303-14.791 1.817-.152.555.505.656.858.808 3.886.605 7.977.757 11.763 1.716 2.002.509 2.727 2.879 2.879 4.847.093 1.552-.504 3.433-2.02 4.494-3.735 2.372-9.44 2.27-13.227.101-1.448-.812-2.827-2.12-2.928-3.735.009-1.283.556-2.293 1.464-2.777 3.636-1.464 8.128-.655 11.259 1.211.2 1.01-.892.956-1.415 1.313-3.484 2.02-6.109-2.27-9.34-.707-.454.303-.782 1.148-.252 1.414 3.988 1.767 8.43.505 12.368-.606.455-.151 1.01-.605 1.06-1.06-.151-1.615-1.968-1.968-3.13-2.422-3.433-.858-7.219-.858-10.904-1.212-.707-.151-1.608-.643-1.817-1.21-.404-1.212-.404-2.878.504-3.888 4.695-4.14 11.813-3.786 17.77-2.676.404.149.859.3 1.01.755zM62.36 25.196c.454 4.846.706 9.34.605 14.439-.1.655-.858.807-1.362 1.06-.808.15-1.852-.021-2.171-.455-1.161-1.869-.757-4.391-.858-6.663.151-3.584.1-7.472 1.11-10.804.194-.484.758-.909 1.212-.607 1.211.607 1.413 1.819 1.464 3.03zm56.089-.706c.242.408.496 1.038 0 1.312-2.272 1.01-5.351.555-7.977.858-.707.605-1.263 1.615-1.011 2.524.254.152.48.382.759.353 1.614.101 4.038-.757 5.1.757.258.45-.036 2.133-.758 2.17-1.97.255-5.209-.246-6.16.255-1.211.807-1.111 2.372-1.565 3.635.858.555 1.757-.013 2.775-.152 1.87-.303 3.94-.858 5.807-.454.353.656.859 1.363.505 2.17-3.183 2.525-7.288 5.112-11.662 3.282-1.64-.736-2.372-3.23-1.816-5.35.352-1.515 1.917-2.979.958-4.594-.15-.708.254-1.313.86-1.464 1.665 0 1.31-2.07 2.17-3.03-.96-1.06-3.382-1.01-3.13-3.13 1.162-.605 2.576-.403 3.887-.605 2.978-.607 6.31-.96 9.341-.607.604.122 1.412 1.313 1.917 2.07zM46.357 12.98c4.659 3.807 10.703 10.298 9.946 17.77-.91 5.907-7.17 10.349-12.47 11.763-5.15 1.514-11.612 1.363-16.863.151-.353.96-.707 2.12-1.817 2.525-.706.252-1.616.1-2.17-.354-1.565-1.464-.304-4.291-2.576-5.199-4.443-1.868-9.239-5.554-11.51-10.097-.303-.909.05-1.817.606-2.524 3.484-2.776 7.875-3.887 12.268-4.745.252.1.151-.253.353-.354.252-3.029.353-6.109 1.312-8.835.22-.383.757-.505 1.111-.252 2.777 2.12 1.464 6.109 2.676 8.986 5.301.252 10.602.504 14.792 3.484 1.414 1.16 1.758 3.377 1.312 4.644-.445 1.265-1.918 2.171-3.281 2.27-.91 0-2.625.09-2.525-.604.101-.694 3.089-1.83 2.171-2.777-1.318-1.362-7.917-2.171-12.007-2.676-.504-.101-.967.05-.967.606-.101 3.836-.404 8.076.252 11.763.05.253.353.556.606.605 7.22 1.161 14.843.505 20.497-3.635 2.625-2.119 3.484-5.1 3.029-8.38C48.83 17.977 39.289 12.474 31.463 8.94 23.841 5.608 15.41 3.891 6.373 4.346c-1.44.106-3.72.602-3.736 1.112-.017.509 2.583.348 2.271 1.312-.31.962-2.953.391-3.735.151-.783-.24-.707-1.363-.505-2.07 1.97-3.483 7.464-3.765 9.946-3.887C24.344.61 37.624 5.84 46.357 12.98zM21.619 26.51c-3.484.05-7.169.403-10.4 1.614-.656.253-1.464.96-.96 1.818 1.313 1.766 3.19 3.217 4.948 4.24 1.759 1.022 4.09 2.323 6.21 2.626.505-3.282.505-6.513.455-9.895-.203-.101-.001-.303-.253-.404zm104.352-4.595c-.152 4.392-4.242 7.118-4.242 11.51.151.152.254.353.454.254 3.283-3.585 6.513-8.684 11.31-10.198 1.263-.101 2.405.997 2.878 1.818 1.666 3.331 1.263 8.027-1.06 11.056-2.397 2.973-6.564 5.957-11.307 5.451-1.969 4.847-3.334 9.946-4.092 15.247-.403 1.06-1.362.101-1.967-.1-4.09-3.232-.732-11.785-.454-12.876.277-1.089 1.371-3.656 2.171-5.806-1.918-3.432-.707-7.573.858-10.753 1.21-2.12 2.879-4.241 4.847-5.856.25 0 .452.05.604.253zm8.129 5.452c-.606-.1-.859.707-1.363.859-2.321 2.625-4.645 5.25-5.806 8.38 1.566.202 2.878-.807 4.242-1.362 2.321-1.465 3.786-3.887 3.634-6.664-.101-.456-.505-.81-.707-1.213z"/></svg>