<svg fill="none" height="36" viewBox="0 0 36 36" width="36" xmlns="http://www.w3.org/2000/svg"><g fill="#2b91dd"><path d="m35.645 14.5675c-.0977-.0761-1.0091-.7513-2.9313-.7513-.5076.0022-1.0141.0449-1.5145.1277-.3721-2.5018-2.4803-3.7216-2.5748-3.7763l-.5161-.29202-.3395.48062c-.4251.6456-.7355 1.3573-.9177 2.1049-.3441 1.4281-.1348 2.7695.6046 3.9162-.8929.4882-2.3252.6084-2.6151.619h-23.71371c-.619391.0009-1.1220021.492-1.1253777 1.0996-.0276597 2.0383.3243087 4.0644 1.0385777 5.9786.81689 2.1018 2.0322 3.6501 3.61334 4.5976 1.77179 1.0646 4.65036 1.6729 7.91337 1.6729 1.4741.0046 2.9454-.1263 4.3946-.3908 2.0146-.363 3.9531-1.0538 5.7354-2.0441 1.4686-.8344 2.7903-1.8959 3.9141-3.1437 1.8788-2.0866 2.998-4.4105 3.8304-6.4758h.3317c2.057 0 3.3219-.8076 4.0194-1.4844.4636-.4316.8255-.9574 1.0603-1.5406l.1473-.4228z"/><path d="m3.32775 16.3153h3.17774c.15326 0 .27745-.1219.27745-.2722v-2.7772c.00086-.1503-.12268-.2729-.27589-.2737-.0005 0-.00106 0-.00156 0h-3.17774c-.15327 0-.27746.1219-.27746.2722v.0015 2.7771c0 .1504.12419.2723.27746.2723z"/><path d="m7.70778 16.3153h3.17772c.1533 0 .2775-.1219.2775-.2722v-2.7772c.0008-.1503-.1227-.2729-.276-.2737-.0005 0-.001 0-.0015 0h-3.17777c-.15412 0-.27902.1225-.27902.2737v2.7771c.00091.1506.12555.2723.27907.2723z"/><path d="m12.1354 16.3153h3.1778c.1532 0 .2774-.1219.2774-.2722v-2.7772c.0009-.1503-.1227-.2729-.2759-.2737-.0005 0-.0011 0-.0016 0h-3.1777c-.1533 0-.2775.1219-.2775.2722v.0015 2.7771c.0001.1504.1243.2723.2775.2723z"/><path d="m16.5133 16.3153h3.1777c.1535 0 .2782-.1216.2791-.2722v-2.7772c0-.1512-.1249-.2737-.2791-.2737h-3.1777c-.1533 0-.2775.1219-.2775.2722v.0015 2.7771c0 .1504.1243.2723.2775.2723z"/><path d="m7.70773 12.3207h3.17777c.1534-.0008.2774-.1232.2774-.2738v-2.77706c0-.15037-.1242-.27222-.2774-.27222h-3.17777c-.15347 0-.27816.1216-.27902.27222v2.77706c.00086.1509.12525.273.27902.2738z"/><path d="m12.1354 12.3207h3.1777c.1535-.0008.2775-.1232.2775-.2738v-2.77706c0-.15037-.1243-.27222-.2775-.27222h-3.1777c-.1533 0-.2775.1219-.2775.27222v2.77706c0 .1506.124.273.2775.2738z"/><path d="m16.5133 12.3207h3.1777c.1538-.0008.2782-.1229.2791-.2738v-2.77706c-.0009-.15062-.1256-.27222-.2791-.27222h-3.1777c-.1533 0-.2775.1219-.2775.27222v2.77706c0 .1506.124.273.2775.2738z"/><path d="m16.5133 8.32312h3.1777c.1535 0 .2782-.12165.2791-.27222v-2.77868c-.0009-.15062-.1256-.27222-.2791-.27222h-3.1777c-.1533 0-.2775.12185-.2775.27222v2.77864c0 .15037.1243.27226.2775.27226z"/><path d="m20.9913 16.3153h3.1778c.1535 0 .2781-.1216.279-.2722v-2.7772c0-.1512-.1249-.2737-.279-.2737h-3.1778c-.1532 0-.2774.1219-.2774.2722v.0015 2.7771c0 .1504.1242.2723.2774.2723z"/></g></svg>