<svg height="43" width="154" xmlns="http://www.w3.org/2000/svg"><path d="m125.068 17.038c-3.252-2.378-8.356 1.3-10.967 3.123-1.199.84-8.457 7.28-9.474 5.782-.473-.686.368-2.133.649-2.761.431-.887.8-1.803 1.106-2.74.369-1.461-.465-3.412-2.213-3.185-1.814.234-3.706 2.13-5.163 3.149-1.456 1.019-3.415 2.743-5.251 2.999.737-1.356 1.545-3.164.866-4.69-.634-1.433-2.316-2.12-3.717-2.558-3.319-1.074-6.87-1.154-10.274-1.768-1.147-.204-3.895-.471-3.939-2.045-.037-1.363 1.778-2.638 2.751-3.317a31.447 31.447 0 0 1 8.851-4.201c3.031-.917 6.155-1.461 9.308-.899 1.107.205 3.791.54 4.164 1.907.31 1.143-1.612 1.385-1.265 2.473.346 1.089 2.213.698 2.814.095.811-.793.737-2.108.564-3.13-.369-2.324-1.999-3.872-4.2-4.6-5.455-1.826-12.067.366-16.895 3.007-3.005 1.647-13.191 8.204-6.7 11.39 2.88 1.413 6.206 1.786 9.278 2.611 2.283.614 6.391 1.78 4.61 4.88-1.412 2.463-4.64 3.95-7.084 5.159-1.475.73-2.991 1.38-4.507 2.027-.103-.332 0-.683-.07-1.015h-7.294v1.42h3.392c.49 0 2.42-.31 2.836.074-.848.365-1.696.73-2.533 1.117-.738.333-3.054 1.242-1.678 2.309.896.694 3.179.088 4.141-.135 3.024-.69 5.9-2.02 8.707-3.317l.417-.197-.188.098c.7.336 2.316.051 3.08.051 0-.365.161-1.249-.196-1.46 4.69-2.411 9.19-5.166 13.464-8.242.107 1.776-.395 3.525-.822 5.231-.295 1.166-.28 2.36.564 3.32 1.062 1.206 2.305.688 3.474-.065l.07-.044c-.627.488-1.375.8-2.165.906 0 .117-.055.241.04.34h7.288v-1.425c-.59 0-4.425.366-4.71-.117a31.536 31.536 0 0 1 3.755-2.367c-.044.994.586 2.218 1.678 2.324 1.202.113 2.581-.888 3.555-1.462 1.309-.792 2.581-1.669 3.81-2.557.94-.683 2.127-1.987 3.234-2.338-.137 1.732-1.007 3.536-1.874 5.016-.535.913-.712 1.406-1.803 1.257-.955-.132-1.892-.201-2.77.284a22.5 22.5 0 0 0 -8.047 8.355c-.84 1.552-1.593 3.674-.25 5.201 1.342 1.527 3.234.176 4.488-.705a29.08 29.08 0 0 0 8.027-8.583c.258-.424.738-1.826 1.15-2.064.543-.314 1.646.336 2.213.365.738.04 1.147-.179.738-.953-.41-.774-1.401-1.037-2.139-1.297 1.31-2.002 2.213-4.347 3.08-6.575.685-1.724 1.913-4.088.025-5.457zm-7.375 6.94c-.554.387-4.986 3.288-5.355 2.309-.369-.98 3.485-3.587 4.178-4.084 1.512-1.096 3.629-2.703 5.587-2.667-.653 1.86-2.843 3.354-4.403 4.442zm-3.777 12.362c-.712.73-4.152 4.679-4.975 2.922-.959-2.046 2.113-4.701 3.441-5.79 1.608-1.319 3.902-3.032 6.078-3.12-1 2.218-2.858 4.234-4.536 5.988zm-100.159-27.072c-2.193-.934-4.53-1.125-6.864-1.159h-3.558c-.662 0-2.84-.367-3.335.063v21.978c4.675 0 9.913.706 14.241-1.472 3.729-1.88 5.835-5.68 5.701-9.9-.155-4.311-2.236-7.832-6.185-9.51zm1.207 10.11c-.101 5.518-5.81 6.802-10.228 6.221v-12.939c.362-.272 1.489-.07 1.98-.073a17.86 17.86 0 0 1 2.132.088 8.388 8.388 0 0 1 3.446 1.148c1.947 1.203 2.717 3.307 2.67 5.555zm14.933-4.248c-4.103.088-7.748 2.62-8.286 6.913-.51 3.916 1.928 7.61 5.708 8.65 3.29.966 7.372 0 9.478-2.87a8.258 8.258 0 0 0 .983-7.637c-1.228-3.313-4.497-5.012-7.883-5.056zm-.067 11.77c-4.753-.036-4.753-7.643.07-7.635 4.918.003 4.855 7.676-.07 7.636zm35.02-4.216c-.066 1.795-.578 3.518-2.683 3.572-2.227.061-2.404-2.19-2.412-3.878v-5.73c0-.359.17-1.18-.065-1.511h-4.548c-.174 2.37-.03 4.81-.018 7.18 0 1.993-.09 4.309 1.083 6.05 1.083 1.558 3.09 2.01 4.891 1.867a5.103 5.103 0 0 0 2.278-.718c.39-.237 1.426-1.562 1.65-1.54v1.874h4.394v-14.72h-4.585c.022 2.524.105 5.048.014 7.554z"/><path d="m149.191 26.097c.546-.52 2.87-3.503.724-3.642-.598-.04-1.793 1.535-2.187 1.92a22.51 22.51 0 0 1 -2.227 2c-.572.429-1.883 1.514-2.488.572-.371-.557.175-1.971.29-2.521.315-1.568.794-4.104-.486-5.408-2.388-2.433-7.5 2.121-9.364 3.484.572-1.465.661-2.78-.924-3.642-1.466-.798-3.27.52-4.41 1.396a8.17 8.17 0 0 0 -1.768 1.781c-.248.366-1.084 1.678-.828 2.114.476.806 3.097-1.682 4.17-1.443-.799 1.022-4.214 4.43-3.182 6.082-.408.092-.835-.033-1.236.066v1.392h7.358v-1.428c-.991 0-2.346.213-3.32-.047.372-.279.743-.583 1.014-.806 1.155-.924 2.269-1.917 3.383-2.866.924-.78 4.945-4.613 6.255-3.191.62.67.216 2.539.2 3.327-.025 1.205-.051 2.488.61 3.558.026.033.052.062.074.095l-.074-.095h-4.567v1.465h7.373v-.579c2.124-.48 4.537-2.554 5.61-3.583zm-104.645-2.347c-.495-3.515 3.252-5.937 5.89-3.339l3.025-3.235c-2.302-2.355-6.23-2.543-9.1-1.248-2.778 1.328-4.528 4.2-4.463 7.325s1.932 5.918 4.764 7.125c2.797 1.189 6.591.865 8.8-1.38l-3.03-3.24c-2.164 1.977-5.445 1.09-5.886-2.009zm102.273 5.713v1.593h7.181v-1.593zm-54.259 1.593h7.18v-1.593h-7.18zm17.554-20.717a1.558 1.558 0 0 0 -.784-1.362 1.624 1.624 0 0 0 -1.596-.016 1.56 1.56 0 0 0 -.812 1.347c-.024 2.153 3.188 2.2 3.192.03zm38.301 26.671c-.02 3.732 5.563 3.74 5.585.023s-5.567-3.721-5.585-.023zm2.781 2.348c-2.893.031-2.942-4.612-.04-4.655 2.9-.042 2.974 4.628.055 4.655zm-37.055-9.098 1.558-.797h-1.558a2.13 2.13 0 0 0 0 .796z"/><path d="m152.229 35.515c-.418-.648-1.546-.46-2.219-.428v3.12c.205.028.413.018.614-.03v-1.212c.828-.3.71 1.545 1.767 1.205l-.74-1.212c.3-.494 1.106-.619.578-1.443zm-1.586.93v-.845c.321 0 1.109-.154 1.109.388s-.791.406-1.11.457z"/></svg>