<svg fill="#000" height="240" viewBox="0 0 480 240" width="480" xmlns="http://www.w3.org/2000/svg"><path d="M369.57 114.25c-8.82-6.51-22.66 3.56-29.74 8.55-3.25 2.3-22.93 19.93-25.69 15.83-1.28-1.88 1-5.84 1.76-7.56a58.93 58.93 0 0 0 3-7.5c1-4-1.26-9.34-6-8.72-4.92.64-10.05 5.83-14 8.62s-9.26 7.51-14.24 8.21c2-3.71 4.19-8.66 2.35-12.84-1.72-3.92-6.28-5.8-10.08-7-9-2.94-18.63-3.16-27.86-4.84-3.11-.56-10.56-1.29-10.68-5.6-.1-3.73 4.82-7.22 7.46-9.08a84.92 84.92 0 0 1 24-11.5c8.22-2.51 16.69-4 25.24-2.46 3 .56 10.28 1.48 11.29 5.22.84 3.13-4.37 3.79-3.43 6.77s6 1.91 7.63.26c2.2-2.17 2-5.77 1.53-8.57-1-6.36-5.42-10.6-11.39-12.59-14.79-5-32.72 1-45.81 8.23-8.15 4.51-35.77 22.46-18.17 31.18 7.81 3.87 16.83 4.89 25.16 7.15 6.19 1.68 17.33 4.87 12.5 13.36-3.83 6.74-12.58 10.81-19.21 14.12-4 2-8.11 3.78-12.22 5.55-.28-.91 0-1.87-.19-2.78H223v3.89h9.2c1.33 0 6.56-.85 7.69.2-2.3 1-4.6 2-6.87 3.06-2 .91-8.28 3.4-4.55 6.32 2.43 1.9 8.62.24 11.23-.37 8.2-1.89 16-5.53 23.61-9.08l1.13-.54-.51.27c1.9.92 6.28.14 8.35.14 0-1 .44-3.42-.53-4a287.23 287.23 0 0 0 36.51-22.56c.29 4.86-1.07 9.65-2.23 14.32-.8 3.19-.76 6.46 1.53 9.09 2.88 3.3 6.25 1.88 9.42-.18l.19-.12a12.13 12.13 0 0 1-5.87 2.48c0 .32-.15.66.11.93h19.76v-3.9c-1.6 0-12 1-12.77-.32a85.4 85.4 0 0 1 10.18-6.48c-.12 2.72 1.59 6.07 4.55 6.36 3.26.31 7-2.43 9.64-4 3.55-2.17 7-4.57 10.33-7 2.55-1.87 5.77-5.44 8.77-6.4-.37 4.74-2.73 9.68-5.08 13.73-1.45 2.5-1.93 3.85-4.89 3.44-2.59-.36-5.13-.55-7.51.78a61.34 61.34 0 0 0-21.82 22.87c-2.28 4.25-4.32 10.06-.68 14.24s8.77.48 12.17-1.93a79.31 79.31 0 0 0 21.77-23.5c.7-1.16 2-5 3.12-5.65 1.47-.86 4.46.92 6 1 2 .11 3.11-.49 2-2.61s-3.8-2.84-5.8-3.55c3.55-5.48 6-11.9 8.35-18 1.86-4.72 5.19-11.19.07-14.94zm-20 19c-1.5 1.06-13.52 9-14.52 6.32s9.45-9.82 11.33-11.18c4.1-3 9.84-7.4 15.15-7.3-1.77 5.09-7.71 9.18-11.94 12.16zm-10.24 33.84c-1.93 2-11.26 12.81-13.49 8-2.6-5.6 5.73-12.87 9.33-15.85 4.36-3.61 10.58-8.3 16.48-8.54-2.71 6.07-7.75 11.59-12.3 16.39zM69.66 92.92c-6.07-2.54-12.54-3.06-19-3.15h-9.85c-1.83 0-7.86-1-9.23.17v59.74c12.94 0 27.44 1.92 39.42-4 10.32-5.11 16.15-15.44 15.78-26.91-.43-11.72-6.19-21.29-17.12-25.85zM73 120.4c-.28 15-16.08 18.49-28.31 16.91v-35.17c1-.74 4.12-.19 5.48-.2a50.53 50.53 0 0 1 5.9.24 23.51 23.51 0 0 1 9.54 3.12c5.39 3.27 7.52 8.99 7.39 15.1zm39.34-12.91c-11.22.24-21.19 7.11-22.66 18.76a21.44 21.44 0 0 0 15.61 23.47c9 2.62 20.16 0 25.92-7.79a22.26 22.26 0 0 0 2.69-20.72c-3.36-8.99-12.3-13.6-21.56-13.72zm-.18 31.94c-13-.1-13-20.74.19-20.72 13.45.01 13.28 20.83-.19 20.72zm94.73-9.9c-.18 5-1.6 9.8-7.43 9.95-6.17.17-6.66-6.1-6.68-10.8v-15.96c0-1 .47-3.29-.18-4.21H180c-.48 6.6-.08 13.4-.05 20 0 5.55-.25 12 3 16.85 3 4.34 8.56 5.6 13.55 5.2a14.08 14.08 0 0 0 6.31-2c1.08-.66 3.95-4.35 4.57-4.29v5.22h12.17v-41h-12.7c.06 7.03.29 14.06.04 21.04z"/><path d="M434.7 138.72c1.47-1.42 7.73-9.56 1.95-9.94-1.61-.11-4.83 4.19-5.89 5.24a60.91 60.91 0 0 1-6 5.46c-1.54 1.17-5.07 4.13-6.7 1.56-1-1.52.47-5.38.78-6.88.85-4.28 2.14-11.2-1.31-14.76-6.43-6.64-20.2 5.79-25.22 9.51 1.54-4 1.78-7.59-2.49-9.94-3.95-2.18-8.81 1.42-11.88 3.81a22.16 22.16 0 0 0-4.76 4.86c-.67 1-2.92 4.58-2.23 5.77 1.28 2.2 8.34-4.59 11.23-3.94-2.15 2.79-11.35 12.09-8.57 16.6-1.1.25-2.25-.09-3.33.18v3.8h19.82v-3.9c-2.67 0-6.32.58-8.94-.13 1-.76 2-1.59 2.73-2.2C387 141.3 390 138.59 393 136c2.49-2.13 13.32-12.59 16.85-8.71 1.67 1.83.58 6.93.54 9.08-.07 3.29-.14 6.79 1.64 9.71.07.09.14.17.2.26l-.2-.26h-12.3v4h19.86v-1.58c5.72-1.31 12.22-6.97 15.11-9.78zm-283-7.86c-1.37-9.55 9-16.13 16.3-9.07l8.37-8.79c-6.37-6.4-17.24-6.91-25.18-3.39a21.48 21.48 0 0 0 .83 39.26c7.74 3.23 18.24 2.35 24.35-3.75l-8.38-8.8c-5.99 5.37-15.07 2.96-16.29-5.46zm277.49 15.42v3.77H449v-3.77zm-147.34 3.77h19.83v-3.77h-19.83zm48.58-55.56a4.54 4.54 0 1 0-9.08-.09c-.07 6.25 9.07 6.39 9.08.09zm103.06 71.93c-.05 9.71 14.94 9.73 15 .06s-14.95-9.68-15-.06zm7.47 6.11c-7.77.08-7.9-12-.11-12.11s7.99 12.04.15 12.11zm-100.15-24.2l3.58-2.14h-3.58a6.68 6.68 0 0 0 0 2.14z"/><path d="M444.08 163.34c-1.13-1.77-4.18-1.26-6-1.17v8.52a4.42 4.42 0 0 0 1.66-.08v-3.31c2.24-.82 1.92 4.22 4.78 3.29l-2-3.31c.81-1.35 2.99-1.69 1.56-3.94zm-4.29 2.54v-2.31c.87 0 3-.42 3 1.06s-2.14 1.11-3 1.25z"/></svg>
