<svg height="88" width="440" xmlns="http://www.w3.org/2000/svg"><path d="m51.06 16.88-25.53 16.29 25.53 16.3-25.53 16.29-25.53-16.43 25.53-16.33-25.53-16.12 25.53-16.3zm-25.66 54 25.53-16.29 25.53 16.29-25.53 16.3zm25.66-21.59 25.53-16.29-25.53-16.12 25.4-16.3 25.54 16.3-25.54 16.29 25.54 16.3-25.54 16.29zm70.94-32.41h20.64c13.18 0 24 7.6 24 25v3.67c0 17.52-10.19 25.39-23.63 25.39h-21.01zm11.54 9.77v34.35h8.83c7.47 0 12.49-4.89 12.49-15.75v-2.85c0-10.87-5.29-15.76-12.9-15.76zm39.25.55h9.21l1.49 10.18c1.76-6.92 6.25-10.59 14.39-10.59h2.86v11.68h-4.74c-9.37 0-11.68 3.26-11.68 12.49v20.1h-11.4v-43.86zm30.21 22.8v-1.22c0-14.67 9.38-22.68 22.14-22.68 13 0 22.14 8 22.14 22.68v1.22c0 14.4-8.83 22.14-22.14 22.14-14.14-.14-22.14-7.73-22.14-22.14zm32.6-.13v-1.09c0-8.15-4.08-13-10.6-13s-10.59 4.48-10.59 13v1.09c0 7.87 4.08 12.35 10.59 12.35s10.62-4.47 10.62-12.34zm17.65-22.68h9.51l1.08 8.28c2.31-5.57 7.2-9.37 14.4-9.37 11.14 0 18.47 8 18.47 22.81v1.23c0 14.39-8.15 22-18.47 22-6.93 0-11.68-3.13-14-8.15v22.13h-11.1l.13-58.93zm31.92 22.68v-1c0-8.69-4.49-13-10.46-13-6.38 0-10.59 4.89-10.59 13v.82c0 7.74 4.07 12.63 10.45 12.63s10.62-4.32 10.62-12.44zm28.38 13-.95 8h-9.78v-58.34h11.18v22.41c2.44-5.71 7.33-8.83 14.25-8.83 10.46.14 18.2 7.33 18.2 21.86v1.36c0 14.53-7.33 22.82-18.47 22.82-7.35-.15-12.1-3.53-14.41-9.24zm21.18-13.58v-1.08c0-8-4.34-12.5-10.45-12.5s-10.6 5-10.6 12.63v1c0 8.15 4.21 12.9 10.46 12.9 6.67-.01 10.61-4.24 10.61-12.91zm16.57.68v-1.22c0-14.67 9.37-22.68 22.14-22.68 13 0 22.13 8 22.13 22.68v1.25c0 14.4-9 22.14-22.13 22.14-14.11-.14-22.12-7.73-22.12-22.14zm32.73-.13v-1.09c0-8.15-4.07-13-10.59-13s-10.6 4.48-10.6 13v1.09c0 7.87 4.08 12.35 10.6 12.35s10.61-4.44 10.61-12.31zm26.48-1.63-15.34-21h13.17l8.83 13.17 9-13.17h13l-15.62 20.91 16.45 22.8h-12.9l-10.05-14.53-9.78 14.53h-13.44z"/></svg>