<svg fill="none" height="36" viewBox="0 0 36 36" width="36" xmlns="http://www.w3.org/2000/svg"><g fill="#7db0bd"><path d="m4.47216 24.4234c1.40778-.7644 3.20789-.3107 4.02067 1.0133s.33044 3.017-1.07733 3.7814c-1.40778.7645-3.2079.3108-4.02068-1.0132s-.33044-3.017 1.07734-3.7815z"/><path clip-rule="evenodd" d="m6.39454 26.2964c-.63557.2726-1.38579.0091-1.67566-.5887-1.04877-2.1627-.24853-4.7282 1.34305-6.983 1.62834-2.3069 4.26657-4.5774 7.54237-6.3562 1.3554-.7359 2.7293-1.3386 4.0796-1.8053.6557-.2266 1.3825.0897 1.6235.7064.2409.6167-.0954 1.3003-.7511 1.5268-1.211.4185-2.4539.9629-3.6871 1.6326-3.0028 1.6305-5.32549 3.6646-6.6997 5.6115-1.41098 1.999-1.65495 3.6366-1.14901 4.6799.28987.5978.00962 1.3034-.62595 1.576zm20.41996-6.0269c-.5586-.3944-.6714-1.1401-.252-1.6655 1.9003-2.3802 2.1908-4.3318 1.489-5.475-.4371-.7121-1.3277-1.2676-2.7701-1.5006-.6885-.1112-1.1508-.7262-1.0326-1.3738.1182-.64747.7722-1.08225 1.4607-.97106 1.8997.30682 3.5964 1.13046 4.5328 2.65586 1.4993 2.4423.4028 5.5133-1.6568 8.0931-.4195.5254-1.2123.6315-1.771.237z" fill-rule="evenodd"/><path d="m28.5845 26.392c-1.4078-.7645-1.8901-2.4575-1.0773-3.7815.8127-1.324 2.6129-1.7776 4.0206-1.0132 1.4078.7644 1.8902 2.4574 1.0774 3.7814-.8128 1.3241-2.6129 1.7777-4.0207 1.0133z"/><path clip-rule="evenodd" d="m29.348 23.8897c.5688.3814.7012 1.1242.2957 1.6592-1.4671 1.9356-4.2295 2.5665-7.1016 2.3976-2.9384-.1728-6.3481-1.1864-9.624-2.9652-1.3553-.736-2.5973-1.5537-3.70209-2.4202-.53649-.4207-.60872-1.1709-.16133-1.6755.44739-.5045 1.24502-.5725 1.78142-.1517.991.7772 2.1136 1.5173 3.3469 2.187 3.0028 1.6305 6.0372 2.5052 8.517 2.651 2.5462.1498 4.1761-.4703 4.8838-1.404.4055-.535 1.1953-.6596 1.7642-.2782zm-15.7597-13.6186c-.0839.6522-.7141 1.1169-1.4076 1.038-3.14181-.3576-5.08413.3815-5.78593 1.5248-.43711.712-.50338 1.7151.00333 3.0065.24185.6164-.09335 1.3004-.74871 1.5279-.65535.2274-1.38268-.0878-1.62453-.7042-.66734-1.7007-.75724-3.4945.17913-5.0198 1.49931-2.4424 4.87528-3.0848 8.28061-2.69715.6935.07894 1.1877.67167 1.1037 1.32395z" fill-rule="evenodd"/><path d="m18.341 5.76822c0 1.52885-1.3178 2.76822-2.9433 2.76822-1.6256 0-2.9434-1.23937-2.9434-2.76822s1.3178-2.76822 2.9434-2.76822c1.6255 0 2.9433 1.23937 2.9433 2.76822z"/><path clip-rule="evenodd" d="m15.6552 6.39751c.0667-.65398.6845-1.13325 1.3799-1.07047 2.5158.22715 4.478 2.16167 5.7585 4.58544 1.3101 2.47972 2.0816 5.76382 2.0816 9.32132 0 1.4719-.132 2.8923-.3775 4.2255-.1192.6473-.7738 1.0812-1.4621.9691s-1.1496-.7278-1.0304-1.3751c.2201-1.1957.3403-2.4802.3403-3.8195 0-3.261-.7117-6.1699-1.8174-8.2626-1.1351-2.14877-2.5211-3.16628-3.7348-3.27586-.6953-.06278-1.2049-.64384-1.1381-1.29783zm-4.6604 19.64549c.6425-.2577 1.3856.0233 1.6596.6276 1.2416 2.7378 2.8934 3.9502 4.297 3.9502.8742 0 1.8311-.4476 2.7668-1.506.4466-.5051 1.2441-.5741 1.7812-.1541.5372.4201.6105 1.1701.1639 1.6753-1.2324 1.3939-2.8391 2.364-4.7119 2.364-2.9986 0-5.2781-2.4285-6.6239-5.396-.274-.6044.0247-1.3032.6673-1.561z" fill-rule="evenodd"/><path d="m19.5709 18.8612c0 1.2319-1.0617 2.2305-2.3715 2.2305s-2.3716-.9986-2.3716-2.2305c0-1.2318 1.0618-2.2305 2.3716-2.2305s2.3715.9987 2.3715 2.2305z"/></g></svg>