<svg height="140" width="194" xmlns="http://www.w3.org/2000/svg"><path d="m5.36 53.641h4.474a.464.464 0 0 0 .463-.463c0-.001-.055-3.833-.055-4.899v-.012c0-.876.184-1.638.504-2.278l.153-.287a.093.093 0 0 0 -.052.028l-8.686 8.614a.098.098 0 0 0 -.033.051l.46-.226c.757-.34 1.674-.528 2.772-.528zm34.788-.938c-.355-1.901-1.486-2.838-2.507-3.206-1.103-.399-3.338-.811-6.147-1.143-2.26-.266-4.916-.244-6.52-.195-.193-1.319-1.118-2.524-2.153-2.94-2.758-1.11-7.019-.843-8.113-.536-.87.243-1.832.74-2.367 1.508-.36.513-.592 1.17-.593 2.087 0 .519.014 1.742.027 2.829.013 1.09.028 2.064.028 2.071 0 .97-.787 1.76-1.762 1.762h-4.472c-.953 0-1.682.16-2.239.413a3.117 3.117 0 0 0 -1.252.998c-.597.802-.701 1.791-.699 2.8 0 0 .01.826.208 2.423.165 1.235 1.505 9.867 2.778 12.492.493 1.021.822 1.447 1.792 1.897 2.16.925 7.094 1.954 9.406 2.248 2.308.296 3.757.917 4.62-.894.003-.004.173-.45.407-1.104.75-2.272.854-4.287.854-5.745 0-.149.218-.156.218 0 0 1.03-.197 4.673 2.556 5.65 1.086.386 3.34.73 5.63.998 2.071.238 3.574 1.053 3.574 6.366 0 3.232-.679 3.675-4.228 3.675-2.877 0-3.974.075-3.974-2.211 0-1.847 1.827-1.654 3.182-1.654.604 0 .165-.45.165-1.59 0-1.133.71-1.789.039-1.805-4.683-.13-7.438-.006-7.438 5.85 0 5.317 2.035 6.304 8.68 6.304 5.211 0 7.048-.17 9.2-6.846.425-1.318 1.455-5.34 2.078-12.093.394-4.27-.371-17.156-.978-20.409zm-9.083 14.244a9.533 9.533 0 0 0 -1.84.111c.162-1.312.703-2.923 2.622-2.855 2.124.073 2.422 2.08 2.43 3.44-.896-.399-2.005-.653-3.212-.696zm160.912-7.993a1.49 1.49 0 1 1 -1.49 1.488c0-.82.664-1.488 1.49-1.488zm0 2.718c.665 0 1.21-.543 1.21-1.23 0-.686-.545-1.228-1.21-1.228-.666 0-1.21.542-1.21 1.228 0 .687.544 1.23 1.21 1.23zm-.635-2.081h.655c.42 0 .639.147.639.49 0 .31-.198.44-.44.485l.458.728h-.32l-.448-.714h-.263v.714h-.281zm.28.728h.375c.271 0 .356-.092.356-.252 0-.158-.135-.215-.356-.215h-.375zm-144.302 13.887h2.002l.097-12.79h-2.099v-2.453h13.273l.161 4.973h-2.616l-.225-2.52h-5.006l-.033 5.006h5.07v2.455h-5.102l-.032 5.33h5.038l.324-2.844h2.841l-.323 5.297h-13.37zm34.555-12.79h-1.679l-6.299 15.244h-3.616l-6.33-15.244h-1.776v-2.453h7.558v2.453h-1.777l4.36 12.015h.064l4.328-12.015h-2.131v-2.453h7.298zm1.743 12.79h2.002l.098-12.79h-2.1v-2.453h13.273l.161 4.973h-2.615l-.226-2.52h-5.006l-.033 5.006h5.071v2.455h-5.102l-.033 5.33h5.037l.325-2.844h2.841l-.323 5.297h-13.37zm17.02 0h2.001l.097-12.79h-2.098v-2.453h8.17c4.103 0 5.425 2.357 5.425 4.65 0 2.035-1 3.876-4.166 4.683v.064c1.647.452 2.068.872 3.715 3.714 1.097 1.842 1.484 2.132 2.1 2.132.257 0 .515-.065.741-.097v2.55h-1.809c-2.39 0-2.679-.289-4.552-4.004-1.68-3.294-2.068-3.52-3.36-3.52h-.71l-.032 5.071h2.098v2.454h-7.62zm5.588-7.525h1.387c1.905 0 3.196-1.033 3.196-2.68 0-1.615-.806-2.584-2.421-2.584h-2.133l-.03 5.264zm26.642-5.265h-2.1v-2.453h6.943v2.453h-2.002l-.097 15.244h-2.648l-9.464-12.595h-.064l-.098 10.141h2.1v2.454h-6.943v-2.454h2.002l.097-12.79h-2.099v-2.453h5.232l8.978 11.981h.065l.097-9.528zm14.886-2.81c6.105 0 8.785 4.037 8.785 8.947 0 5.587-3.327 9.462-8.785 9.462-6.104 0-8.784-4.037-8.784-8.977 0-5.554 3.325-9.432 8.784-9.432zm0 15.568c3.294 0 5.166-2.811 5.166-6.396 0-4.035-2.194-6.328-5.166-6.328-3.294 0-5.167 2.809-5.167 6.458 0 3.973 2.196 6.266 5.167 6.266zm14.339.032h2l.097-12.79h-3.55l-.132 2.52h-2.678l.192-4.973h15.859l.194 4.973h-2.682l-.129-2.52h-3.552l-.098 12.79h2.099v2.454h-7.62zm13.95 0h2.002l.097-12.79h-2.1v-2.453h13.275l.16 4.973h-2.615l-.226-2.52h-5.005l-.033 5.006h5.069v2.455h-5.101l-.033 5.33h5.037l.325-2.844h2.84l-.321 5.297h-13.372v-2.454z"/></svg>