<svg xmlns="http://www.w3.org/2000/svg" width="29" height="26"><g fill="#495057"><path d="M17.765 12.74a3.73 3.73 0 1 1-7.462 0 3.73 3.73 0 0 1 7.462 0m10.082-.978l-2.794-4.85h-5.698l3.336 5.79-.899 1.568-3.392 5.909-1.049 1.82-1.825 3.153h4.63a1.882 1.882 0 0 0 1.618-.941l6.073-10.567a1.882 1.882 0 0 0 0-1.859M9.81 20.179l-4.291-7.476-2.851-4.935-2.306 3.994a1.882 1.882 0 0 0 0 1.858l6.065 10.595c.334.58.95.937 1.618.941h5.566l2.856-4.977H9.809z"/><path d="M24.102 5.255L21.788 1.22a1.882 1.882 0 0 0-1.619-.941H8.04a1.882 1.882 0 0 0-1.618.94L3.613 6.117l2.856 4.945 3.34-5.806h14.293z"/></g></svg>
