<svg height="47" width="117" xmlns="http://www.w3.org/2000/svg"><path d="m.767.535v3.166h22.518v-3.166zm25.708 0v3.166h32.089s-3.278-3.166-7.62-3.166h-24.47zm38.383 0v3.166h19.413l-1.151-3.166h-18.26zm33.332 0-1.153 3.166h19.237v-3.166zm-97.423 6.157v3.166h22.518v-3.166zm25.708.005v3.161h35.812s-.418-2.437-1.148-3.161zm38.383 0v3.161h21.542l-1.067-3.161zm31.027 0-1.067 3.161h21.456v-3.161h-20.39zm-88.647 6.152v3.17h9.752v-3.17zm25.708 0v3.17h9.752v-3.17zm19.237 0v3.17h9.752s.619-1.674.619-3.17zm19.146 0v3.17h17.29l-1.153-3.17h-16.136zm22.432 0-1.157 3.17h17.375v-3.17zm-86.523 6.161v3.166h9.752v-3.166zm25.708 0v3.166h24.908s2.084-1.624 2.748-3.166zm38.383 0v3.166h9.752v-1.762l.62 1.762h17.862l.665-1.762v1.762h9.751v-3.166h-18.306l-.971 2.682-.976-2.682zm-64.089 6.157v3.166h9.75v-3.166zm25.707 0v3.166h27.656c-.664-1.536-2.748-3.166-2.748-3.166h-24.909zm38.383 0v3.166h9.752v-3.166zm11.524 0 1.179 3.166h13.394l1.12-3.166zm17.375 0v3.166h9.751v-3.166zm-92.99 6.157v3.166h9.752v-3.166h-9.753zm25.708 0v3.166h9.752v-3.166zm19.237 0v3.166h10.37c0-1.494-.618-3.166-.618-3.166zm19.146 0v3.166h9.752v-3.166zm13.738 0 1.143 3.166h8.98l1.151-3.166h-11.275zm15.16 0v3.166h9.752v-3.166h-9.751zm-99.284 6.157v3.17h22.518v-3.17h-22.519zm25.532 0v3.17h34.664c.73-.725 1.148-3.17 1.148-3.17h-35.813zm38.56 0v3.17h16.044v-3.17h-16.045zm22.25 0 1.175 3.17h4.569l1.103-3.17h-6.846zm12.943 0v3.17h16.222v-3.17zm-99.286 6.162v3.165h22.518v-3.165zm25.532 0v3.161h24.47c4.34 0 7.619-3.161 7.619-3.161h-32.09zm38.56 0v3.165h16.045v-3.165zm24.478 0 1.13 3.157.194.004 1.148-3.161zm10.715 0v3.165h16.222v-3.165z"/></svg>