<svg height="240" viewBox="0 0 480 240" width="480" xmlns="http://www.w3.org/2000/svg" xmlns:xlink="http://www.w3.org/1999/xlink"><clipPath id="a"><path d="m0 0h480v240h-480z"/></clipPath><g clip-path="url(#a)"><path d="m117.619 70.3882v6.6939h47.538v-6.6939zm54.273 0v6.6939h67.743s-6.92-6.6939-16.087-6.6939h-51.658zm81.03 0v6.6939h40.983l-2.432-6.6939h-38.546zm70.368 0-2.434 6.6939h40.611v-6.6939zm-205.671 13.0177v6.6938h47.538v-6.6938zm54.273.0106v6.6832h75.603s-.883-5.1525-2.424-6.6832zm81.03 0v6.6832h45.478l-2.253-6.6832zm65.502 0-2.253 6.6832h45.296v-6.6832h-43.045zm-187.144 13.0071v6.7024h20.588v-6.7024zm54.273 0v6.7024h20.587v-6.7024zm40.611 0v6.7024h20.588s1.306-3.5395 1.306-6.7024zm40.419 0v6.7024h36.502l-2.435-6.7024h-34.064zm47.357 0-2.443 6.7024h36.681v-6.7024zm-182.66 13.0264v6.694h20.588v-6.694zm54.273 0v6.694h52.583s4.4-3.434 5.802-6.694zm81.03 0v6.694h20.588v-3.726l1.309 3.726h37.709l1.403-3.726v3.726h20.586v-6.694h-38.646l-2.05 5.67-2.06-5.67zm-135.299 13.017v6.694h20.584v-6.694zm54.271 0v6.694h58.385c-1.402-3.247-5.802-6.694-5.802-6.694h-52.585zm81.031 0v6.694h20.587v-6.694zm24.328 0 2.489 6.694h28.276l2.365-6.694zm36.681 0v6.694h20.585v-6.694zm-196.313 13.018v6.694h20.588v-6.694h-20.59zm54.273 0v6.694h20.587v-6.694zm40.611 0v6.694h21.892c0-3.159-1.304-6.694-1.304-6.694zm40.42 0v6.694h20.587v-6.694zm29.002 0 2.413 6.694h18.958l2.43-6.694h-23.803zm32.004 0v6.694h20.588v-6.694h-20.585zm-209.599 13.018v6.702h47.538v-6.702h-47.54zm53.901 0v6.702h73.179c1.541-1.533 2.424-6.702 2.424-6.702h-75.605zm81.404 0v6.702h33.871v-6.702h-33.873zm46.972 0 2.481 6.702h9.646l2.328-6.702h-14.452zm27.325 0v6.702h34.246v-6.702zm-209.604 13.028v6.692h47.538v-6.692zm53.901 0v6.683h51.659c9.162 0 16.084-6.683 16.084-6.683h-67.745zm81.404 0v6.692h33.873v-6.692zm51.676 0 2.385 6.675.41.008 2.424-6.683zm22.62 0v6.692h34.247v-6.692z"/></g></svg>