<svg fill="none" height="36" viewBox="0 0 36 36" width="36" xmlns="http://www.w3.org/2000/svg"><path clip-rule="evenodd" d="m3.7662 7.01805c-.7662 1.53341-.7662 3.53375-.7662 7.53425v7.8954c0 4.0005 0 6.0008.7662 7.5343.70326 1.4074 1.84439 2.5486 3.25185 3.2517 1.53341.7663 3.53375.7663 7.53425.7663h7.8954c4.0005 0 6.0008 0 7.5343-.7663 1.4074-.7031 2.5486-1.8443 3.2517-3.2517.7663-1.5335.7663-3.5338.7663-7.5343v-7.8954c0-4.0005 0-6.00084-.7663-7.53425-.7031-1.40746-1.8443-2.54859-3.2517-3.25185-1.5335-.7662-3.5338-.7662-7.5343-.7662h-7.8954c-4.0005 0-6.00084 0-7.53425.7662-1.40746.70326-2.54859 1.84439-3.25185 3.25185zm18.035 2.12741c.6838-.88904 1.1626-2.0516 1.0258-3.28257-1.0258.06839-2.2568.68386-2.9406 1.5729-.6155.75225-1.231 1.98321-1.0942 3.14581 1.1626.1367 2.3251-.5471 3.009-1.43614zm2.398 8.77474c0-.8499.2125-1.5581.4958-2.1247.5463-1.0927 1.4048-1.665 1.6836-1.8509.0465-.0309.0768-.0512.087-.0613-1.2041-1.8414-3.1162-2.0538-3.8244-2.1247-1.001-.087-1.9751.3073-2.7583.6242-.4913.1989-.9075.3674-1.2078.3674-.3763 0-.836-.1806-1.3482-.3817-.6446-.2532-1.3723-.539-2.1221-.539-1.7706 0-3.3995 1.0623-4.3202 2.6912-.2833.4958-.4958 1.0624-.6374 1.6289-.70822 3.0454.4958 6.7989 1.983 9.0654.8499 1.2747 1.9122 2.7619 3.2579 2.6912.6258-.033 1.0677-.2192 1.5182-.4088.5182-.2182 1.0477-.441 1.8813-.441.8429 0 1.3634.2275 1.8657.4472.4684.2048.9211.4026 1.6046.4026 1.4164 0 2.3371-1.3456 3.187-2.6205.9915-1.4872 1.4164-2.9745 1.4164-3.0453 0 0-2.6912-1.0624-2.7621-4.3202z" fill="#3d73d3" fill-rule="evenodd"/></svg>