<svg viewBox="0 0 420 119" xmlns="http://www.w3.org/2000/svg"><g fill="#131b28"><path d="m119.88 46.171.001-.005-3.352 11.88 3.35-11.875zm17.24 25.791-3.694-.022zm-.95 17.741h.004l-22.131.08 22.128-.08zm4.64-17.719-3.695-.022zm-2.7 16.211 3.855-14.702-3.855 14.705zm81.48-67.705-7.181 33.76zm-18.46 0-5.452 25.22 5.452-25.222z"/><path d="m218.36 18.971h-15.356c-.852 0-1.698.684-1.88 1.516l-5.451 25.222-5.452 25.222c-.18.833-1.026 1.514-1.878 1.514h-10.869c-10.753 0-9.509-7.437-7.307-17.627l.066-.308.242-1.284c.014-.083.032-.166.045-.242l.49-2.615.527-2.802c.16-.845.403-2.08.561-2.857l2.478-12.109 2.48-12.109c.172-.835-.387-1.52-1.24-1.52h-15.761c-.852 0-1.696.685-1.87 1.518l-3.39 16.079-3.388 16.077c-.003.007-.004.017-.005.024l-.315 1.495c-3.904 17.822-2.868 34.817 18.347 35.349.347.01.615.012.615.012h33.302c.853 0 1.696-.684 1.874-1.519l7.182-33.757 7.181-33.76c.177-.834-.376-1.518-1.228-1.518zm61.26 53.65c.853 0 1.411.684 1.24 1.519l-1.492 7.287m-1.488 7.292 1.49-7.292-1.491 7.294v-.002zm-1.87 1.534.007-.002c-4.519.037-18.099.14-28.306.14 12.422 0 28.298-.138 28.298-.138zm-37.46-27.019c-.013-.798.896-2.173 1.75-2.173l-1.918-.032c-.865 8.692.168 2.205.168 2.205z"/><path d="m249.11 90.387c-.098 0-.198 0-.295.002.097-.002.197-.002.295-.002zm30.51-17.766c.853 0 1.411.684 1.24 1.519l-1.492 7.287-.242 1.19m-22.746 7.753h-.062zm-3.77.012h-.219zm-1.15.003c-.122 0-.242 0-.361.002.12-.002.239-.002.361-.002zm-1.17.002h-.317zm2.1-.005-.93.002zm3.93-.012c-1.243.005-2.483.01-3.705.012 1.222-.002 2.464-.007 3.705-.012zm19.7-.12h.001a5037.459 5037.459 0 0 1 -.001 0zm1.86-1.528 1.249-6.106-1.25 6.11v-.004zm-26.78 1.665h-.81zm-2.29.002h-1.096zm1.16-.002h-.864zm-224.626-26.97 2.385-10.574-2.727 12.087-2.617 12.312 2.294-10.793c.177-.835.477-2.2.665-3.032zm28.55-44.624h-16.864c-.853 0-1.704.681-1.895 1.511l-1.599 7.058-1.599 7.06c-.188.831.356 1.512 1.209 1.512h16.994c.852 0 1.699-.681 1.882-1.514l1.545-7.058 1.546-7.053v-.002c.182-.832-.366-1.514-1.22-1.514zm-3.67 23.479v-.002l-4.946 22.883zm-48.99 75.818s8.5.11 13.905.11c-4.105 0-10.885-.076-13.912-.112l.008.002h-.001zm28.88-75.821-2.388 10.574z"/><path d="m49.004 40.756h-16.997c-.852 0-1.704.681-1.892 1.514l-2.388 10.574-2.385 10.574c-.188.832-.488 2.197-.665 3.032l-2.294 10.793-2.292 10.793a32.521 32.521 0 0 1 -.818 2.986s-3.175 9.448-8.514 9.34c-.227-.004-.448-.006-.666-.012-2.587-.049-4.62-.085-4.62-.085h-.003c-.851-.013-1.707.651-1.906 1.479l-1.762 7.41-1.76 7.407c-.198.828.336 1.511 1.183 1.526 3.028.036 9.808.112 13.912.112 13.334 0 20.363-7.388 24.87-28.647l5.273-24.399 4.946-22.883c.18-.832-.371-1.514-1.223-1.514zm241.446 48.769c-.852 0-1.405-.684-1.226-1.519l12.786-59.89m6.21 59.888 5.17-25.562z"/><path d="m289.41 88.766c-.104-.417-.043-1.44.138-2.275l6.068-28.428-6.393 29.944c-.18.835.374 1.518 1.226 1.518h1.553c-.854 0-2.49-.342-2.592-.76zm17.8.417c-.464.188-1.543.342-2.396.342h1.552c.853 0 1.69-.684 1.858-1.521l.308-1.519c-.17.835-.857 2.51-1.322 2.698zm3.6-13.96 2.283-11.282c-.001.007-.002.017-.004.022l-2.28 11.26zm50.45-43.095.704 2.91c.194.833-.344 1.509-1.195 1.511m-52.239 49.937 2.277-11.262zm52.03-57.339.697 2.981zm-47.47 34.795c.17-.835.45-2.188.627-3.015l2.438-11.421-2.761 12.937zm-10.87-36.807c-.17.806-.387 1.824-.531 2.498l-6.068 28.43 6.393-29.946z"/><path d="m361.96 35.038-.704-2.91-.697-2.981-.353-1.509c-1.38-5.364-5.434-8.46-14.233-8.46l-13.7-.014-12.617-.015h-14.197c-.852 0-1.696.681-1.871 1.516h-.001l-.628 2.967-.74 3.503-.207.982-6.393 29.946-6.068 28.428c-.18.835-.242 1.857-.138 2.275.103.417 1.738.76 2.592.76h12.808c.853 0 1.932-.155 2.396-.343.465-.188 1.152-1.862 1.322-2.697l2.276-11.262 2.28-11.26c0-.005.001-.015.003-.022l.304-1.5 2.762-12.936 2.438-11.426c.181-.83 1.021-1.51 1.872-1.512l40.3-.02c.85-.001 1.389-.678 1.195-1.51z"/><path d="m413.84 8.724c-.853.006-2.248.012-3.102.012h-12.898c-.853 0-1.946.576-2.427 1.28l-28.523 41.787c-.482.706-1.031.6-1.22-.23l-2.099-9.206c-.189-.832-1.043-1.511-1.895-1.511h-18.338c-.853 0-1.358.669-1.125 1.49l8.217 28.783c.234.82.251 2.168.04 2.994l-3.582 13.93c-.212.828.313 1.504 1.166 1.504h18.123c.852 0 1.724-.676 1.935-1.503l3.583-13.931c.211-.826.804-2.061 1.318-2.742l46.306-61.46c.514-.68.236-1.235-.616-1.228l-4.861.031h-.001zm-145.68 36.05-.001-.017c-.107.925-.96 1.604-1.813 1.604h-23.248c-.803 0-1.212-.547-1.094-1.22.007-.02.01-.037.022-.054 0 0-.008.002-.014.006.005-.026.005-.05.012-.078l.107-.395c2.22-5.903 6.743-9.778 15.243-9.778 9.569 0 11.437 4.675 10.787 9.932zm-6.82-26.834c-29.841 0-36.912 18.113-40.879 36.394-3.967 18.633-3.626 36.055 27.253 36.055h1.096c.098-.002.198-.002.296-.002h1.992c.12-.002.24-.002.361-.002l.93-.002h.219c1.222-.002 2.462-.008 3.705-.012h.062c8.155-.032 16.334-.093 19.647-.12.847-.013 1.676-.696 1.85-1.524l1.25-6.11.243-1.19 1.492-7.287c.171-.835-.387-1.519-1.24-1.519h-27.761c-11.041 0-14.32-2.934-13.112-11.56h44.377l-.004.005c.011 0 .02-.005.03-.005.706-.012 1.358-.498 1.617-1.145.049-.124.09-.253.107-.388l-.005.005c6.59-24.854 4.7-41.592-23.528-41.592zm-141.04 26.739-.42 1.487v.005l-3.352 11.875-3.35 11.873c-.231.82-1.118 1.492-1.972 1.492h-17.736c-13.453 0-16.729-10.523-13.453-26.043 3.275-15.874 9.697-25.742 22.938-26.74 18.094-1.365 21.714 11.361 17.345 26.051zm12.163 25.818s8.362-20.303 10.261-32.031c2.6-15.699-5.26-38.466-35.62-38.466-30.189 0-43.297 21.737-48.299 45.367-5.001 23.801 1.551 44.675 31.567 44.504l23.679-.088 22.131-.08c.852-.008 1.724-.684 1.94-1.507l3.856-14.705c.215-.825-.306-1.504-1.159-1.509l-3.695-.022-3.693-.022c-.726-.005-1.14-.473-1.053-1.096.016-.112.042-.227.09-.347z"/><path d="m281.9 56.908a1.018 1.018 0 0 1 -2.036 0c0-.562.456-1.016 1.018-1.016.563 0 1.018.454 1.018 1.016z"/></g></svg>