<svg width="141" height="24" xmlns="http://www.w3.org/2000/svg"><path d="M123.845 18.166c0-2.398 1.544-4.105 4.592-4.959.488-.122 2.032-.487 4.674-.934 1.097-.244 1.544-.57 1.544-1.382 0-.894-.935-1.463-2.316-1.463-1.667 0-2.723.813-2.723 2.195h-4.756c0-3.618 2.845-5.772 7.6-5.772 4.959 0 7.357 2.073 7.357 6.26v8.168c0 1.382 0 1.382.488 2.235h-4.878l-.284-1.34c-1.91 1.544-3.089 1.99-5.162 1.99-3.576 0-6.136-2.113-6.136-4.998zm9.55-2.886c-.569.081-1.22.244-1.91.406-1.707.447-2.52 1.138-2.52 2.154 0 1.057.772 1.626 2.114 1.626 2.56 0 3.739-1.138 3.739-3.495v-1.098c-.65.204-.894.204-1.423.407zm-26.173 1.91h5.12v.203c0 1.342 1.098 2.155 2.846 2.155 1.503 0 2.438-.57 2.438-1.464 0-.934-.853-1.503-2.885-1.829l-1.666-.284c-3.78-.65-5.406-2.032-5.406-4.552 0-3.495 2.886-5.568 7.641-5.568 3.333 0 5.405.894 6.462 2.845.447.772.528 1.057.65 2.804h-4.877c-.121-1.503-.772-2.072-2.357-2.072-1.3 0-2.113.488-2.113 1.34 0 .773.772 1.22 2.52 1.505l1.788.325c3.78.65 5.527 2.276 5.527 5.04 0 3.373-2.845 5.527-7.397 5.527-5.365 0-8.291-2.114-8.291-5.975zm-34.302.976c0-2.398 1.585-4.105 4.633-4.959.488-.122 2.032-.446 4.634-.934 1.138-.244 1.585-.57 1.585-1.382 0-.894-.935-1.463-2.358-1.463-1.666 0-2.682.772-2.723 2.195h-4.755c0-3.618 2.845-5.772 7.56-5.772 4.958 0 7.437 2.073 7.437 6.26v8.168c0 1.382 0 1.382.406 2.235h-4.836l-.285-1.34c-1.666 1.463-3.088 1.99-5.161 1.99-3.536 0-6.137-2.113-6.137-4.998zm9.591-2.886c-.65.122-1.218.284-1.91.406-1.707.447-2.52 1.138-2.52 2.154 0 1.057.813 1.626 2.114 1.626 2.48 0 3.698-1.138 3.698-3.495v-1.098c-.69.204-.894.204-1.382.407zm-64.823 5.121c-.691-1.179-.813-1.788-.813-4.43V6.542h5.243v9.226c0 2.357.65 3.292 2.316 3.292 1.707 0 2.601-1.097 2.601-3.292V6.542h5.203v15.973h-4.756l-.162-1.586c-1.3 1.382-2.764 1.992-4.593 1.992-2.235 0-4.105-.894-5.04-2.52zm83.153 2.114V13.45c0-2.357-.69-3.332-2.316-3.332-1.707 0-2.561 1.097-2.561 3.332v9.064h-5.202V6.542h4.755l.163 1.789c1.219-1.585 2.682-2.276 4.633-2.276 2.235 0 4.023.975 4.958 2.641.691 1.22.772 1.91.772 4.552v9.266h-5.202zm-34.302 0V13.45c0-2.316-.731-3.332-2.316-3.332-1.707 0-2.56 1.097-2.56 3.332v9.064h-5.244V.284h5.243V8.33c.935-1.585 2.317-2.276 4.308-2.276 2.195 0 3.983.934 4.959 2.641.69 1.22.772 1.87.772 4.552v9.266h-5.162zm-15.16 0c-3.088 0-4.51-1.464-4.51-4.674v-7.803h-2.195V6.542h2.195v-5.04h5.202v5.04h2.967v3.496H52.07v6.34c.04 2.357.203 2.479 2.194 2.479h1.016v3.658h-3.9zm-15.809 0V10.038h-2.276V6.542h2.276v-.487c0-4.227 1.585-5.772 5.649-5.772h2.845V3.82h-.853c-1.951 0-2.44.447-2.44 2.236v.487h3.09v3.496h-3.089v12.477H35.57zm-34.627 0V.283h5.528v17.842h9.388v4.39H.943z"/></svg>