<svg height="240" viewBox="0 0 480 240" width="480" xmlns="http://www.w3.org/2000/svg"><path d="m91.7319 120.096c0 21.591-17.3697 38.904-38.915 38.904-21.4495 0-38.8169-17.313-38.8169-38.81 0-21.9755 17.3674-39.19 39.4825-39.19 20.9754 0 38.2494 17.6919 38.2494 39.094zm-73.7479 0c0 19.309 15.5669 34.813 34.8353 34.813 19.1725 0 34.8306-15.41 34.8306-34.719 0-19.691-15.3755-35.1011-35.1156-35.1011-18.8876 0-34.548 15.7891-34.548 35.0051zm26.2928-1.62-.4764.953c-1.7071-.382-5.0278-1.617-8.4467-3.141l-.474.857 1.4245.763c4.9344 2.567 6.6439 3.136 9.3948 3.136 5.7915 0 10.1561-3.232 12.2438-9.035 3.5123-.763 8.0684-1.046 13.5727-1.046 4.6495 0 8.6358.188 13.8575.855l-1.3311 1.617c-3.3102-.354-6.6358-.544-9.9646-.569-3.8906 0-6.1698 0-7.4963.094l-.5698 1.427c3.1293-.189 4.2689-.189 6.7373-.189 4.2712 0 7.5943.187 10.3452.379l-1.3287 1.809c-4.9345-.192-7.118-.285-10.8194-.285-1.9943 0-3.5122.093-5.8848.187l-.6633 1.428c2.0878-.188 5.0302-.284 7.9727-.284 2.9424 0 6.3589.094 8.3509.188l-1.3288 1.713c-1.4245-.094-4.0797-.094-6.1698-.094-3.3207 0-7.5896.188-9.6797.475l-.6632 1.236c3.984-.379 6.4524-.571 10.8193-.571 1.7071 0 2.751 0 4.7453.192l-1.5179 1.807c-2.6576-.19-3.5123-.19-4.5561-.19-7.3094 0-12.1481 1.047-16.9892 3.804 4.4604 4.47 11.7698 7.515 18.4113 7.515.5698 0 .8548 0 2.2793-.094l-3.1316 3.233c-17.559-4.66-20.6906-5.898-36.8273-15.504-6.3566-3.616-11.5759-6.09-15.7538-7.326l.5699-1.996c.9481.187 3.1316.761 5.1259 1.521l.9481-2.188 17.274 7.326zm386.2842 17.409c0-5.612 3.606-9.608 10.724-11.607 1.14-.285 4.745-1.139 10.915-2.186 2.562-.571 3.606-1.334 3.606-3.234 0-2.093-2.184-3.424-5.409-3.424-3.893 0-6.359 1.902-6.359 5.137h-11.106c0-8.468 6.644-13.509 17.748-13.509 11.58 0 17.18 4.852 17.18 14.651v19.118c0 3.234 0 3.234 1.14 5.231h-11.391l-.664-3.137c-4.46 3.614-7.213 4.658-12.054 4.658-8.351 0-14.33-4.946-14.33-11.698zm22.302-6.755c-1.328.19-2.849.571-4.46.951-3.986 1.046-5.885 2.663-5.885 5.041 0 2.474 1.803 3.806 4.937 3.806 5.978 0 8.731-2.664 8.731-8.18v-2.57c-1.518.477-2.087.477-3.323.952zm-61.121 4.471h11.957v.475c0 3.141 2.564 5.044 6.646 5.044 3.51 0 5.693-1.334 5.693-3.427 0-2.186-1.992-3.518-6.737-4.281l-3.89-.664c-8.828-1.522-12.625-4.756-12.625-10.654 0-8.18 6.74-13.032 17.844-13.032 7.783 0 12.622 2.092 15.09 6.658 1.044 1.807 1.233 2.474 1.518 6.563h-11.389c-.282-3.518-1.803-4.849-5.504-4.849-3.036 0-4.934 1.142-4.934 3.136 0 1.809 1.802 2.855 5.884 3.522l4.176.761c8.827 1.521 12.907 5.327 12.907 11.796 0 7.895-6.644 12.936-17.274 12.936-12.529 0-19.362-4.948-19.362-13.984zm-80.104 2.284c0-5.612 3.701-9.608 10.819-11.607 1.14-.285 4.745-1.043 10.822-2.186 2.657-.571 3.701-1.334 3.701-3.234 0-2.093-2.183-3.424-5.507-3.424-3.89 0-6.263 1.807-6.359 5.137h-11.104c0-8.468 6.644-13.509 17.655-13.509 11.578 0 17.367 4.852 17.367 14.651v19.118c0 3.234 0 3.234.948 5.231h-11.293l-.665-3.137c-3.891 3.425-7.212 4.658-12.053 4.658-8.257 0-14.331-4.946-14.331-11.698zm22.397-6.755c-1.518.286-2.844.665-4.46.951-3.986 1.046-5.885 2.663-5.885 5.041 0 2.474 1.899 3.806 4.937 3.806 5.791 0 8.636-2.664 8.636-8.18v-2.57c-1.612.477-2.088.477-3.228.952zm-151.379 11.986c-1.614-2.759-1.899-4.185-1.899-10.368v-22.069h12.244v21.594c0 5.516 1.518 7.704 5.409 7.704 3.986 0 6.074-2.567 6.074-7.704v-21.594h12.15v37.385h-11.107l-.378-3.712c-3.036 3.235-6.455 4.662-10.726 4.662-5.219 0-9.586-2.092-11.77-5.898zm194.185 4.948v-21.217c0-5.516-1.612-7.798-5.409-7.798-3.986 0-5.98 2.567-5.98 7.798v21.215h-12.148v-37.383h11.104l.38 4.187c2.847-3.71 6.264-5.327 10.82-5.327 5.219 0 9.395 2.282 11.578 6.181 1.614 2.856 1.803 4.471 1.803 10.654v21.688h-12.148zm-80.105 0v-21.217c0-5.42-1.707-7.798-5.408-7.798-3.987 0-5.979 2.567-5.979 7.798v21.215h-12.246v-52.03h12.244v18.834c2.184-3.71 5.411-5.327 10.06-5.327 5.126 0 9.302 2.186 11.581 6.181 1.611 2.856 1.803 4.377 1.803 10.654v21.688h-12.055zm-35.403 0c-7.211 0-10.532-3.427-10.532-10.94v-18.263h-5.126v-8.182h5.126v-11.7963h12.148v11.7963h6.929v8.182h-6.929v14.839c.094 5.517.475 5.802 5.124 5.802h2.373v8.562h-9.11zm-36.918 0v-29.203h-5.315v-8.182h5.315v-1.14c0-9.8933 3.702-13.5094 13.192-13.5094h6.644v8.2764h-1.992c-4.556 0-5.698 1.046-5.698 5.233v1.14h7.216v8.182h-7.214v29.203zm-80.863 0v-52.0344h12.909v41.7594h21.924v10.275z"/></svg>