<svg height="240" viewBox="0 0 480 240" width="480" xmlns="http://www.w3.org/2000/svg"><path d="m274.568 184.618h9.08v2.097h-9.08zm-151.04-12.72-.813 21.05v.365c0 1.783.527 2.15 3.374 2.351v.977c-2.073-.161-2.888-.203-4.024-.203-1.14 0-1.951.042-4.065.203v-.977c2.846-.201 3.252-.528 3.333-2.716l.854-19.913v-.239c0-1.87-.571-2.273-3.372-2.434v-1.017c1.582.123 2.191.164 3.331.164 1.291.011 2.58-.056 3.862-.201l7.558 20.517 7.682-20.517c1.832.16 2.685.201 3.905.201 1.012 0 1.665-.041 3.209-.164v1.015c-2.762.163-3.376.566-3.376 2.391v.284l.448 19.913c.044 2.188.406 2.511 3.335 2.716v.977c-2.559-.244-3.537-.329-5.081-.329-1.547 0-2.523.08-5.082.327v-.975c2.763-.161 3.372-.609 3.372-2.511v-.199l-.362-21.01-6.709 18.084-.486 1.34-.569 1.499-.532 1.547-.446 1.336h-.609l-.446-1.298-.572-1.585-.568-1.58-.488-1.419zm30.522 13.099c.406-4.664 1.949-7.053 4.551-7.053 2.642 0 3.984 2.27 4.226 7.053zm5.284 10.624c-3.699 0-5.327-2.839-5.364-9.165h12.112c-.081-6.244-2.642-9.57-7.441-9.57-4.874 0-7.925 3.934-7.925 10.18 0 6.243 3.053 9.893 8.293 9.893 3.984 0 6.587-2.475 7.112-6.651h-1.626c-.49 3.448-2.276 5.313-5.161 5.313zm9.167-17.236v-.728c2.315-.203 3.699-.444 5.364-.933.203 1.502.285 2.149.366 3.366v.448c.896-2.312 2.642-3.65 4.756-3.65 2.033 0 3.537 1.338 3.537 3.287 0 1.176-.691 1.945-1.708 1.945-.933 0-1.663-.568-1.663-1.377 0-.081.041-.24.078-.41l.079-.403v-.369c0-.568-.487-.971-1.219-.971-2.11 0-3.452 2.555-3.452 6.57v8.472c0 1.748.405 2.072 2.886 2.194v.811c-2.239-.201-3.091-.245-4.514-.245-1.463 0-2.315.044-4.549.245v-.811c2.476-.122 2.923-.446 2.923-2.194v-13.254c-.037-1.746-.244-1.947-2.354-1.989zm29.573-1.862v6.694h-.896c-.733-3.532-2.236-5.234-4.712-5.234-3.052 0-4.839 3.287-4.839 9.086 0 5.676 1.586 8.554 4.714 8.554 2.52 0 4.024-1.783 4.512-5.348h1.665c-.529 4.34-2.846 6.692-6.501 6.692-4.717 0-7.926-3.978-7.926-9.896 0-6.046 3.252-10.179 8.047-10.179 1.749 0 2.845.448 4.15 1.703l1.093-2.068h.693zm6.674 8.474c.407-4.664 1.948-7.053 4.552-7.053 2.642 0 3.983 2.27 4.223 7.053h-8.776zm5.285 10.624c-3.701 0-5.325-2.839-5.366-9.165h12.11c-.079-6.244-2.642-9.57-7.435-9.57-4.88 0-7.931 3.934-7.931 10.18 0 6.243 3.049 9.893 8.297 9.893 3.982 0 6.583-2.475 7.11-6.651h-1.626c-.486 3.448-2.275 5.313-5.161 5.313zm18.001.247c-2.925 0-4.47-3.045-4.47-8.841 0-5.877 1.423-8.756 4.35-8.756 3.01 0 4.553 3.08 4.553 9.045 0 5.63-1.504 8.552-4.433 8.552zm7.642-3.451v-23.411c-2.032.543-3.86.866-6.134 1.107v.692c2.559 0 2.884.284 2.884 2.392v7.096c-1.502-2.433-2.683-3.165-4.878-3.165-4.348 0-7.398 4.096-7.398 9.936 0 5.838 3.085 9.93 7.52 9.93 2.317 0 3.902-1.054 5.039-3.323.162 1.541.162 1.703.571 3.242 1.663-.529 2.357-.689 4.754-.973l.61-.079v-.69c-2.724-.081-2.968-.28-2.968-2.754zm7.842-7.42c.407-4.664 1.95-7.053 4.553-7.053 2.642 0 3.98 2.27 4.224 7.053zm5.285 10.624c-3.701 0-5.324-2.839-5.366-9.165h12.112c-.083-6.244-2.642-9.57-7.437-9.57-4.88 0-7.927 3.934-7.927 10.18 0 6.243 3.047 9.893 8.293 9.893 3.981 0 6.583-2.475 7.11-6.651h-1.626c-.486 3.448-2.277 5.313-5.159 5.313zm10.197 1.379v-6.775l.895-.037c.73 3.691 2.439 5.476 5.284 5.476 2.395 0 4.186-1.582 4.186-3.647 0-1.379-.771-2.31-2.767-3.204l-1.542-.691-1.87-.852c-2.97-1.377-3.905-2.514-3.905-4.866 0-3.204 2.519-5.391 6.098-5.391 1.585 0 2.768.365 4.146 1.293l.69-1.661h.731v6.286h-.937c-.369-3.246-1.707-4.784-4.266-4.784-2.153 0-3.825 1.46-3.825 3.366 0 1.621.612 2.15 4.311 3.77l1.709.734c3.086 1.333 4.187 2.634 4.187 5.027 0 3.407-2.725 5.836-6.541 5.836-1.872 0-3.335-.486-4.878-1.701l-.979 1.821h-.728zm35.731-13.992c2.15 0 3.37.369 4.307 1.298.935.937 1.465 2.679 1.465 4.622 0 4.055-2.033 6.328-5.65 6.328h-1.464c-2.154 0-2.518-.326-2.518-2.111v-10.139l3.86.004zm-3.866-12.284h3.455c3.415 0 4.917 1.664 4.917 5.434 0 1.866-.445 3.206-1.339 4.257-.895 1.017-1.99 1.338-4.265 1.338h-2.764v-11.031h-.004zm11.988 5.353c0-2.109-.892-3.973-2.439-5.152-1.378-1.013-2.962-1.457-5.608-1.457h-10.685v1.014c2.928.162 3.333.487 3.333 2.675v19.668c0 2.19-.327 2.47-3.333 2.717v.977h10.282c3.007 0 4.637-.369 6.344-1.423 2.032-1.296 3.372-3.772 3.372-6.321 0-2.194-.935-4.18-2.52-5.392-.85-.648-1.748-1.018-3.212-1.298 2.929-1.101 4.472-3.171 4.472-6.01zm7.898 8.922c.406-4.664 1.951-7.053 4.554-7.053 2.641 0 3.982 2.269 4.224 7.053zm5.286 10.624c-3.699 0-5.327-2.839-5.366-9.166h12.114c-.083-6.243-2.644-9.569-7.441-9.569-4.878 0-7.927 3.934-7.927 10.18 0 6.243 3.049 9.893 8.291 9.893 3.984 0 6.586-2.475 7.114-6.651h-1.626c-.486 3.447-2.273 5.313-5.159 5.313zm8.897-17.074v-.686c2.358-.328 3.74-.649 5.364-1.216.205.934.329 1.985.407 3.526 1.465-2.192 3.13-3.161 5.487-3.161 2.441 0 4.551 1.253 5.368 3.24.407.977.61 2.109.61 3.65v9.732c0 1.746.406 2.068 2.884 2.19v.811c-2.152-.203-2.965-.243-4.429-.243-1.506 0-2.317.038-4.434.243v-.811c2.197-.079 2.725-.487 2.725-2.107v-9.936c0-3.529-1.057-4.95-3.657-4.95-2.766 0-4.227 1.748-4.227 5.07v9.816c0 1.622.53 2.028 2.646 2.107v.811c-2.116-.203-2.927-.243-4.393-.243-1.422 0-2.278.038-4.39.243v-.811c2.476-.122 2.886-.444 2.886-2.19v-13.136c-.042-1.667-.286-1.907-2.317-1.907-.125 0-.325-.042-.53-.042zm21.7 17.968 11.013-18.086h-4.998c-2.641 0-3.295.564-4.757 4.216h-.809l.935-5.272h13.982l-11.055 18.086h4.752c2.766 0 3.903-1.092 5.124-4.784h.854l-1.055 5.84h-13.988zm-56.907-64.915c5.415-8.984 8.269-19.272 8.254-29.755 0-31.9467-25.961-57.847-57.983-57.847-32.021 0-57.982 25.9003-57.982 57.847-.014 10.484 2.842 20.772 8.259 29.755l-.212.168.251-.096c10.15 16.788 28.601 28.02 49.686 28.02 21.083 0 39.533-11.232 49.681-28.02l.251.096zm1.131-29.755c.01 8.859-2.318 17.564-6.75 25.241l-35.871-28.8227-7.354-47.133c27.678.4719 49.975 22.9877 49.975 50.7127zm-101.712 0c0-27.7252 22.295-50.241 49.973-50.7129l-7.356 47.1312-35.869 28.8227c-4.43-7.677-6.758-16.382-6.748-25.241zm50.854 50.735c-18.045 0-33.884-9.385-42.91-23.522l42.91-16.563 42.912 16.563c-9.028 14.137-24.863 23.524-42.912 23.524z"/></svg>