<svg height="25" width="25" xmlns="http://www.w3.org/2000/svg"><g fill="none"><path d="m4.538 3.138 7.99 1.148 7.934-1.148-1.314 16.12-6.62 1.604-6.971-1.604z" fill="#e5e7e8" stroke="#ccc" stroke-width=".57"/><path d="m12.528 6.022 6.398-1.101-.852 13.216-5.546 1.321z" fill="#fff"/><path d="m4.222 9.309h9.973v5.382h-9.973z" fill="#ff2600"/><path d="m13.896 9.309h6.882v5.382h-6.882z" fill="#ff501a"/><path d="m5.189 9.882v4.234h.819v-1.432h1.112l.522-.448v-1.857l-.53-.498h-1.922zm.819.82h.78v1.23h-.78v-1.231zm1.99-.82v4.234h2.022l.47-.436v-3.365l-.497-.434h-1.995zm.854.82h.855v2.594h-.855zm2.064-.818h2.063v.819h-1.279v.892c.367.013.735-.013 1.102 0v.811c-.367.014-.735-.013-1.103 0v1.71h-.782v-4.231zm4.009 4.011-.274-.222v-.717h.819v.341h.711v-3.413h.818v3.789l-.547.444h-1.252l-.274-.222zm2.704 0-.265-.222v-.72l.81.003v.341h.853v-.886h-1.202l-.47-.444v-1.64l.47-.443h1.453l.533.443v.649h-.784v-.273h-.853v.887h1.124l.512.435v1.644l-.262.224-.262.224h-1.384z" fill="#fff"/></g></svg>