<svg fill="none" height="79" viewBox="0 0 402 79" width="402" xmlns="http://www.w3.org/2000/svg"><g fill="#000"><path d="m98.7894 10.663h21.0326c13.796 0 19.775 8.0491 19.775 18.9517 0 12.4658-8.327 18.4457-20.833 18.4457h-8.867v19.4576h-11.1019zm18.5656 27.4328c7.071 0 10.59-3.4789 10.59-8.7142s-3.559-8.7141-10.124-8.7141h-7.93v17.4283z"/><path d="m145.174 8.59393h10.47v58.92407h-10.47z"/><path d="m202.99 28.438v39.08h-9.948v-4.7294h-.193c-2.695 3.4788-6.645 5.3945-11.687 5.3945-10.801 0-18.713-8.0093-18.713-20.0829 0-11.8803 7.929-20.3216 18.4-20.3216 4.616 0 8.64 1.7053 11.528 5.0762h.159v-4.4111zm-10.022 19.6963c0-6.2528-4.184-10.9367-9.851-10.9367s-10.044 4.2576-10.044 10.9367c0 6.3324 4.144 10.6696 10.004 10.6696 5.434 0 9.891-4.2576 9.891-10.6696z"/><path d="m234.595 27.7786c8.361 0 14.182 4.5475 14.182 16.5699v23.2093h-10.471v-20.5945c0-7.4635-2.654-9.7657-7.503-9.7657-5.315 0-8.867 3.7119-8.867 10.6639v19.6565h-10.477v-39.0743h10.477v5.0363h.113c1.55-1.8052 3.476-3.2495 5.643-4.2315 2.168-.982 4.523-1.4778 6.903-1.4528z"/><path d="m284.691 68.0638c-16.377 0-28.99-10.6639-28.99-28.8766 0-16.6097 10.8-29.18915 28.524-29.18915 8.049 0 16.723 3.12635 22.589 9.73165l-7.958 6.7587c-1.93-1.9001-4.217-3.3996-6.729-4.4123-2.512-1.0126-5.2-1.5184-7.908-1.4881-9.339 0-16.803 6.9918-16.803 18.5992 0 10.4365 6.605 18.5993 17.275 18.5993 4.073.0531 8.074-1.0721 11.522-3.2401v-8.3617h-12.773v-9.6634h23.642v24.5053c-5.162 4.1836-13.643 7.0315-22.391 7.0315z"/><path d="m338.624 27.7787c.273-.0086.547.0047.819.0398v11.4881c-1.058-.0796-2.189-.1193-2.774-.1193-6.446 0-9.965 4.3769-9.965 10.1977v18.1331h-10.471v-39.0743h10.471v5.7412h.114c2.973-4.1382 7.19-6.4063 11.806-6.4063z"/><path d="m342.779 16.5236c-.013-1.2856.356-2.5463 1.06-3.6218s1.713-1.9174 2.897-2.4188c1.183-.50138 2.49-.6396 3.752-.3971 1.263.2425 2.425.8548 3.339 1.7591s1.538 2.0598 1.794 3.3197c.256 1.26.131 2.5675-.357 3.7567-.489 1.1891-1.32 2.2061-2.389 2.9218-1.068.7158-2.324 1.0979-3.61 1.098-.847.0045-1.687-.1579-2.471-.478-.785-.3201-1.499-.7916-2.101-1.3875-.602-.596-1.081-1.3047-1.41-2.0857-.328-.7811-.499-1.6192-.504-2.4664zm1.251 11.9371h10.47v39.0743h-10.47z"/><path d="m401.942 8.58832v58.92978h-9.947v-4.7294h-.234c-2.739 3.4788-6.764 5.3945-11.937 5.3945-10.8 0-18.718-8.0093-18.718-20.0829 0-11.8803 7.958-20.3216 18.406-20.3216 4.769 0 8.867 1.7053 11.8 5.0762h.194v-24.2609zm-20.242 50.21568c5.741 0 10.317-4.2576 10.317-10.6696 0-6.2528-4.297-10.9367-10.277-10.9367-5.628 0-10.044 4.2576-10.044 10.9367 0 6.3324 4.144 10.6696 10.004 10.6696z"/><path d="m56.9014 60.3046c0 .6397.1897 1.265.5451 1.7969s.8605.9465 1.4515 1.1913c.5911.2448 1.2414.3088 1.8688.184s1.2037-.4328 1.6561-.8851c.4523-.4524.7604-1.0287.8852-1.6561s.0607-1.2778-.1841-1.8688-.6594-1.0961-1.1913-1.4515-1.1572-.5451-1.7969-.5451c-.8574.0015-1.6792.3427-2.2854.949-.6063.6062-.9475 1.428-.949 2.2854z"/><path d="m38.9502 17.1489c-4.3431-.0045-8.5899 1.2794-12.2032 3.6891-3.6133 2.4098-6.4306 5.8371-8.0955 9.8484-1.6648 4.0114-2.1025 8.4264-1.2576 12.6865.845 4.2601 2.9346 8.1739 6.0044 11.2461 3.0699 3.0722 6.982 5.1649 11.2415 6.0131 4.2594.8483 8.6748.4141 12.6874-1.2477s7.4422-4.4764 9.8547-8.0878c2.4126-3.6114 3.6997-7.8572 3.6986-12.2003-.006-5.816-2.3179-11.3924-6.4289-15.5065-4.1109-4.1141-9.6854-6.4303-15.5014-6.4409z"/><path d="m72.7494 5.31978c-5.0818-5.081816-10.4592-5.115923-18.8891-5.115923h-29.8201c-8.447 0-13.8073.034107-18.86643 5.115923-5.05908 5.08182-5.1159239 10.44222-5.1159239 18.86642v29.8201c0 8.4527.0341064 13.813 5.1159239 18.8778 5.08183 5.0648 10.45923 5.1159 18.88343 5.1159h29.8031c8.4527 0 13.813-.0341 18.8778-5.1159 5.0647-5.0818 5.1159-10.4592 5.1159-18.8891v-29.8088c-.0057-8.447-.0398-13.8073-5.1046-18.86642zm-5.3774 54.69492c-.0045 1.9901-.797 3.8975-2.2043 5.3047-1.4072 1.4073-3.3146 2.1998-5.3047 2.2043h-22.5328c-5.42-.3346-10.6307-2.215-15.0154-5.4185s-7.7599-7.5961-9.7262-12.6579c-1.9663-5.0619-2.4413-10.581-1.3688-15.9044 1.0724-5.3234 3.6474-10.2281 7.4203-14.1337 3.7728-3.9056 8.5856-6.6487 13.8687-7.9045 5.2831-1.2559 10.8153-.972 15.9421.8181s9.6335 5.0114 12.9867 9.2827c3.3532 4.2714 5.4126 9.4139 5.9344 14.8191z"/></g></svg>