<svg height="240" viewBox="0 0 480 240" width="480" xmlns="http://www.w3.org/2000/svg"><path d="m137.789 91.663h21.033c13.796 0 19.775 8.0491 19.775 18.952 0 12.465-8.327 18.445-20.833 18.445h-8.867v19.458h-11.102zm18.566 27.433c7.071 0 10.59-3.479 10.59-8.714 0-5.236-3.559-8.714-10.124-8.714h-7.93v17.428z"/><path d="m184.174 89.5939h10.47v58.9241h-10.47z"/><path d="m241.99 109.438v39.08h-9.948v-4.729h-.193c-2.695 3.478-6.645 5.394-11.687 5.394-10.801 0-18.713-8.009-18.713-20.083 0-11.88 7.929-20.321 18.4-20.321 4.616 0 8.64 1.705 11.528 5.076h.159v-4.411zm-10.022 19.696c0-6.252-4.184-10.936-9.851-10.936s-10.044 4.257-10.044 10.936c0 6.333 4.144 10.67 10.004 10.67 5.434 0 9.891-4.258 9.891-10.67z"/><path d="m273.595 108.779c8.361 0 14.182 4.547 14.182 16.57v23.209h-10.471v-20.595c0-7.463-2.654-9.765-7.503-9.765-5.315 0-8.867 3.711-8.867 10.663v19.657h-10.477v-39.074h10.477v5.036h.113c1.55-1.805 3.476-3.25 5.643-4.231 2.168-.982 4.523-1.478 6.903-1.453z"/><path d="m323.691 149.064c-16.377 0-28.99-10.664-28.99-28.877 0-16.609 10.8-29.189 28.524-29.189 8.049 0 16.723 3.1264 22.589 9.732l-7.958 6.758c-1.93-1.9-4.217-3.399-6.729-4.412s-5.2-1.518-7.908-1.488c-9.339 0-16.803 6.992-16.803 18.599 0 10.437 6.605 18.599 17.275 18.599 4.073.054 8.074-1.072 11.522-3.24v-8.361h-12.773v-9.664h23.642v24.506c-5.162 4.183-13.643 7.031-22.391 7.031z"/><path d="m377.624 108.779c.273-.009.547.004.819.04v11.488c-1.058-.08-2.189-.12-2.774-.12-6.446 0-9.965 4.377-9.965 10.198v18.133h-10.471v-39.074h10.471v5.741h.114c2.973-4.138 7.19-6.406 11.806-6.406z"/><path d="m381.779 97.5236c-.013-1.2856.356-2.5463 1.06-3.6218s1.713-1.9174 2.897-2.4188c1.183-.5014 2.49-.6396 3.752-.3971 1.263.2425 2.425.8548 3.339 1.7591s1.538 2.0598 1.794 3.3197c.256 1.26.131 2.5675-.357 3.7567-.489 1.1886-1.32 2.2056-2.389 2.9216-1.068.716-2.324 1.098-3.61 1.098-.847.005-1.687-.158-2.471-.478-.785-.32-1.499-.791-2.101-1.387s-1.081-1.305-1.41-2.086c-.328-.7811-.499-1.6192-.504-2.4664zm1.251 11.9374h10.47v39.074h-10.47z"/><path d="m440.942 89.5883v58.9297h-9.947v-4.729h-.234c-2.739 3.479-6.764 5.394-11.937 5.394-10.8 0-18.718-8.009-18.718-20.083 0-11.88 7.958-20.321 18.406-20.321 4.769 0 8.867 1.705 11.8 5.076h.194v-24.261zm-20.242 50.2157c5.741 0 10.317-4.258 10.317-10.67 0-6.252-4.297-10.936-10.277-10.936-5.628 0-10.044 4.257-10.044 10.936 0 6.333 4.144 10.67 10.004 10.67z"/><path d="m95.9014 141.305c0 .639.1897 1.265.5451 1.797.3554.531.8605.946 1.4515 1.191.5911.245 1.2414.309 1.8688.184.6272-.125 1.2042-.433 1.6562-.885.452-.453.76-1.029.885-1.656.125-.628.061-1.278-.184-1.869s-.659-1.096-1.191-1.452c-.532-.355-1.1575-.545-1.7972-.545-.8574.002-1.6792.343-2.2854.949-.6063.606-.9475 1.428-.949 2.286z"/><path d="m77.9502 98.1489c-4.3431-.0045-8.5899 1.2794-12.2032 3.6891-3.6133 2.41-6.4306 5.837-8.0955 9.848-1.6648 4.012-2.1025 8.427-1.2576 12.687.845 4.26 2.9346 8.174 6.0044 11.246 3.0699 3.072 6.982 5.165 11.2415 6.013 4.2594.848 8.6748.414 12.6874-1.248 4.0126-1.661 7.4422-4.476 9.8547-8.087 2.4126-3.612 3.6997-7.858 3.6986-12.201-.006-5.816-2.3179-11.392-6.4289-15.506-4.1109-4.114-9.6854-6.4305-15.5014-6.4411z"/><path d="m111.749 86.3198c-5.081-5.0818-10.459-5.1159-18.8887-5.1159h-29.8201c-8.447 0-13.8073.0341-18.8664 5.1159s-5.116 10.4422-5.116 18.8662v29.82c0 8.453.0342 13.813 5.116 18.878s10.4592 5.116 18.8834 5.116h29.8031c8.4527 0 13.8127-.034 18.8777-5.116s5.116-10.459 5.116-18.889v-29.809c-.006-8.4468-.04-13.8071-5.105-18.8662zm-5.377 54.6952c-.004 1.99-.797 3.897-2.204 5.304-1.408 1.408-3.315 2.2-5.305 2.205h-22.5328c-5.42-.335-10.6307-2.215-15.0154-5.419-4.3847-3.203-7.7599-7.596-9.7262-12.658s-2.4413-10.581-1.3688-15.904c1.0724-5.323 3.6474-10.228 7.4203-14.134 3.7728-3.9054 8.5856-6.6485 13.8687-7.9043 5.2831-1.2559 10.8153-.972 15.9421.8181s9.6335 5.0114 12.9871 9.2832c3.353 4.271 5.412 9.413 5.934 14.819z"/></svg>