<svg fill="none" height="36" viewBox="0 0 36 36" width="36" xmlns="http://www.w3.org/2000/svg"><g fill="#61dafb"><path d="m36 18.0064c0-2.3848-2.9865-4.6449-7.5654-6.0465 1.0566-4.66692.587-8.37993-1.4823-9.56868-.477-.27884-1.0346-.41092-1.6437-.41092v1.63636c.3375 0 .6091.06604.8365.19079.998.57236 1.4309 2.75173 1.0934 5.55483-.0807.68972-.2128 1.41622-.3743 2.15732-1.4382-.3522-3.0085-.6237-4.6596-.7998-.9906-1.35752-2.0179-2.5903-3.0525-3.66898 2.3921-2.22339 4.6375-3.44149 6.1638-3.44149v-1.63637c-2.0179 0-4.6596 1.43824-7.3306 3.93314-2.671-2.48022-5.3127-3.90379-7.3306-3.90379v1.63637c1.519 0 3.7717 1.21076 6.1639 3.41948-1.0273 1.07868-2.0546 2.30412-3.0306 3.66164-1.6584.1761-3.2287.4476-4.66692.8072-.16878-.7338-.29352-1.4456-.38158-2.12803-.34488-2.8031.08072-4.98247 1.07134-5.56217.22016-.13208.50636-.19079.84386-.19079v-1.63636c-.6164 0-1.17406.13208-1.65837.41093-2.06196 1.18874-2.52425 4.89441-1.46025 9.54672-4.56421 1.4088-7.53608 3.6616-7.53608 6.0391 0 2.3848 2.98655 4.6449 7.56543 6.0465-1.05667 4.6669-.58704 8.3799 1.48227 9.5687.47696.2788 1.0346.4109 1.651.4109 2.018 0 4.6596-1.4383 7.3307-3.9332 2.671 2.4803 5.3126 3.9038 7.3306 3.9038.6164 0 1.174-.1321 1.6583-.4109 2.062-1.1887 2.5243-4.8944 1.4603-9.5467 4.5495-1.4015 7.5214-3.6616 7.5214-6.0391zm-9.554-4.8944c-.2715.9466-.6091 1.9225-.9906 2.8985-.3009-.5871-.6164-1.1741-.9613-1.7611-.3376-.5871-.6971-1.1594-1.0567-1.7171 1.042.1541 2.0473.3449 3.0086.5797zm-3.3608 7.8149c-.5724.9906-1.1594 1.9299-1.7684 2.8031-1.0934.0954-2.2014.1468-3.3168.1468-1.108 0-2.2161-.0514-3.3021-.1395-.609-.8732-1.2034-1.8051-1.7758-2.7884-.5576-.9613-1.064-1.9372-1.5263-2.9205.455-.9833.9687-1.9666 1.519-2.9278.5724-.9907 1.1594-1.9299 1.7684-2.8031 1.0934-.0954 2.2014-.1468 3.3168-.1468 1.108 0 2.2161.0514 3.3021.1394.609.8732 1.2034 1.8052 1.7758 2.7884.5576.9613 1.064 1.9373 1.5263 2.9206-.4623.9832-.9687 1.9665-1.519 2.9278zm2.3702-.9539c.3962.9832.7338 1.9665 1.0126 2.9205-.9613.2348-1.9739.4329-3.0232.587.3595-.565.7191-1.1447 1.0566-1.7391.3376-.587.6531-1.1814.954-1.7684zm-7.4407 7.8296c-.6825-.7045-1.3649-1.4896-2.04-2.3482.6604.0294 1.3355.0514 2.018.0514.6897 0 1.3722-.0147 2.0399-.0514-.6604.8586-1.3428 1.6437-2.0179 2.3482zm-5.4595-4.3221c-1.042-.1541-2.0473-.3449-3.00852-.5797.2715-.9466.60902-1.9225.99062-2.8985.3009.587.6164 1.1741.9613 1.7611.3449.5871.6971 1.1594 1.0566 1.7171zm5.4228-15.27028c.6824.70445 1.3648 1.48961 2.0399 2.34818-.6604-.0294-1.3355-.0514-2.0179-.0514-.6898 0-1.3722.0147-2.0399.0514.6604-.85857 1.3428-1.64373 2.0179-2.34818zm-5.4301 4.32208c-.3596.565-.7191 1.1447-1.0567 1.7391-.3375.587-.653 1.174-.9539 1.7611-.3962-.9833-.73379-1.9666-1.01264-2.9205.96124-.2275 1.97394-.4256 3.02324-.5797zm-6.64085 9.1871c-2.59763-1.108-4.27802-2.561-4.27802-3.713 0-1.1521 1.68039-2.6123 4.27802-3.713.63107-.2715 1.32083-.5137 2.03262-.7411.41826 1.4382.96861 2.9351 1.65104 4.4688-.6751 1.5263-1.2181 3.0159-1.62903 4.4468-.72646-.2275-1.41622-.477-2.05463-.7485zm3.94782 10.4859c-.99796-.5723-1.4309-2.7517-1.09335-5.5548.08072-.6898.2128-1.4162.37423-2.1574 1.43825.3523 3.00855.6238 4.65965.7999.9906 1.3575 2.0179 2.5903 3.0525 3.669-2.3921 2.2234-4.6375 3.4415-6.1638 3.4415-.3302-.0074-.6091-.0734-.82923-.1982zm17.40563-5.5915c.3449 2.8031-.0807 4.9825-1.0713 5.5622-.2202.1321-.5064.1908-.8439.1908-1.519 0-3.7717-1.2108-6.1639-3.4195 1.0273-1.0787 2.0546-2.3041 3.0306-3.6617 1.6584-.1761 3.2287-.4476 4.6669-.8071.1688.7411.3009 1.4529.3816 2.1353zm2.8251-4.8944c-.6311.2715-1.3208.5137-2.0326.7411-.4183-1.4382-.9686-2.9352-1.651-4.4688.675-1.5263 1.2181-3.0159 1.629-4.4468.7264.2275 1.4162.477 2.0619.7485 2.5977 1.108 4.2781 2.5609 4.2781 3.713-.0074 1.152-1.6878 2.6123-4.2854 3.713z"/><path d="m17.9926 21.3598c1.8521 0 3.3534-1.5014 3.3534-3.3534 0-1.8521-1.5013-3.3535-3.3534-3.3535s-3.3534 1.5014-3.3534 3.3535c0 1.852 1.5013 3.3534 3.3534 3.3534z"/></g></svg>