<svg height="101" width="204" xmlns="http://www.w3.org/2000/svg"><path d="m130.36 89.9v7.46h1.13v-3.24h1.27l2 3.24h1.27l-2.19-3.24a2 2 0 0 0 2-2.11c0-1.47-.9-2.11-2.68-2.11zm1.13 1h1.51c.76 0 1.62.13 1.62 1.06 0 1.16-.87 1.27-1.83 1.27h-1.34zm1.41-3.73a6.52 6.52 0 1 0 6.48 6.48 6.42 6.42 0 0 0 -6.48-6.5zm0 1a5.43 5.43 0 1 1 0 10.86 5.43 5.43 0 0 1 0-10.86zm-10.82-56.31h-4.39v16h4.39c5.86 0 10.52-1.94 10.52-8.13 0-5.94-4.66-7.87-10.52-7.87z"/><path d="m.78 0v100.13h102.3l100.14-100.13zm123.36 61.63h-6.44v19.14h-29.52l-2.93-9.16a34.5 34.5 0 0 1 -21-.08l-3 9.24h-18.16l2-5.36-.73.64c-4.51 3.62-10.16 5.62-17.15 5.76h-1a46 46 0 0 1 -22.55-6l6.15-12.23c6.67 3.94 10.86 4.82 16.5 4.71 2.93-.07 5-.6 6.43-2a4.68 4.68 0 0 0 1.31-3.1c.05-3.18-4.47-4.67-10-6.37-4.49-1.41-9.57-3.29-13.55-6.21a15.57 15.57 0 0 1 -6.84-13.9 16.83 16.83 0 0 1 4.77-11.63c4.38-4.52 11.44-7.29 19.92-7.29a53.88 53.88 0 0 1 22.57 5.35l-6.92 12.03c-7-3.4-10.57-3.72-14.59-3.93-6-.31-9 1.81-9 4.11-.06 2.81 5.65 5.34 11 7.07 8.13 2.57 18.47 6 20 16l14.92-39.6h17.26l17.41 47.38v-47.38h19.93c19 0 28 6.79 28 21.58-.02 13.31-9.23 21.23-24.79 21.23z"/><path d="m74.79 38.31-6.32 19.94a18.45 18.45 0 0 0 6.39 1.13 18.59 18.59 0 0 0 6.26-1.08l-6.19-20z"/></svg>