<svg height="240" viewBox="0 0 480 240" width="480" xmlns="http://www.w3.org/2000/svg" xmlns:xlink="http://www.w3.org/1999/xlink"><clipPath id="a"><path d="m0 0h480v240h-480z"/></clipPath><g clip-path="url(#a)"><path d="m276.868 171.87v9.698h1.469v-4.212h1.651l2.6 4.212h1.651l-2.847-4.212c.354 0 .704-.071 1.029-.211.325-.139.619-.344.862-.6.243-.257.432-.561.554-.893s.174-.686.155-1.039c0-1.911-1.17-2.743-3.484-2.743zm1.469 1.3h1.963c.988 0 2.106.169 2.106 1.378 0 1.508-1.131 1.651-2.379 1.651h-1.742zm1.833-4.849c-1.681-.01-3.327.479-4.728 1.407-1.402.927-2.497 2.25-3.145 3.801s-.82 3.26-.494 4.909c.325 1.649 1.133 3.164 2.322 4.352 1.188 1.189 2.703 1.997 4.352 2.322 1.649.326 3.358.154 4.909-.494s2.874-1.743 3.801-3.145c.928-1.401 1.417-3.047 1.407-4.728.014-1.111-.194-2.214-.612-3.244s-1.038-1.966-1.823-2.753c-.784-.787-1.718-1.409-2.747-1.831-1.028-.421-2.131-.633-3.242-.622zm0 1.3c1.872 0 3.668.744 4.991 2.067 1.324 1.324 2.068 3.12 2.068 4.992s-.744 3.668-2.068 4.991c-1.323 1.324-3.119 2.068-4.991 2.068s-3.668-.744-4.991-2.068c-1.324-1.323-2.068-3.119-2.068-4.991s.744-3.668 2.068-4.992c1.323-1.323 3.119-2.067 4.991-2.067z"/><path d="m266.104 96.418h-5.707v20.8h5.707c7.618 0 13.676-2.522 13.676-10.569 0-7.722-6.058-10.231-13.676-10.231z"/><path d="m108.414 55v130.169h132.99l130.182-130.169zm160.368 80.119h-8.372v24.882h-38.376l-3.809-11.908c-8.89 2.803-18.432 2.767-27.3-.104l-3.9 12.012h-23.608l2.6-6.968-.949.832c-5.863 4.706-13.208 7.306-22.295 7.488h-1.3c-10.28-.037-20.376-2.724-29.315-7.8l7.995-15.899c8.671 5.122 14.118 6.266 21.45 6.123 3.809-.091 6.5-.78 8.359-2.6 1.048-1.086 1.655-2.522 1.703-4.03.065-4.134-5.811-6.071-13-8.281-5.837-1.833-12.441-4.277-17.615-8.073-2.93-1.974-5.293-4.68-6.853-7.851-1.56-3.17-2.263-6.693-2.039-10.219.037-5.6514 2.259-11.0694 6.201-15.119 5.694-5.876 14.872-9.477 25.896-9.477 10.169.1606 20.182 2.534 29.341 6.955l-8.996 15.639c-9.1-4.42-13.741-4.836-18.967-5.109-7.8-.403-11.7 2.353-11.7 5.343-.078 3.653 7.345 6.942 14.3 9.191 10.569 3.341 24.011 7.8 26 20.8l19.396-51.48h22.438l22.633 61.594v-61.594h25.909c24.7 0 36.4 8.827 36.4 28.054-.026 17.303-11.999 27.599-32.227 27.599z"/><path d="m204.627 104.803-8.216 25.922c2.66.977 5.473 1.474 8.307 1.469 2.773.002 5.526-.473 8.138-1.404l-8.047-26z"/></g></svg>