<svg height="27" width="125" xmlns="http://www.w3.org/2000/svg"><path d="M10.072 1.928c1.7 0 3.179.244 4.437.731s2.42 1.23 3.485 2.227l-2.38 2.754c-.839-.68-1.677-1.179-2.516-1.496s-1.734-.476-2.686-.476c-1.043 0-1.876.221-2.499.663s-.935 1.071-.935 1.887c0 .567.13 1.031.391 1.394s.72.703 1.377 1.02 1.643.68 2.958 1.088c2.335.748 4.08 1.672 5.236 2.771s1.734 2.669 1.734 4.709c0 1.45-.363 2.726-1.088 3.825s-1.78 1.96-3.162 2.584-3.003.935-4.862.935-3.513-.295-4.964-.884-2.697-1.394-3.74-2.414l2.55-2.822c.907.77 1.847 1.354 2.822 1.751s2.04.595 3.196.595c1.224 0 2.204-.283 2.941-.85.737-.567 1.105-1.36 1.105-2.38 0-.635-.13-1.162-.391-1.581s-.708-.799-1.343-1.139-1.553-.691-2.754-1.054c-2.561-.793-4.392-1.745-5.491-2.856s-1.649-2.561-1.649-4.352c0-1.315.351-2.476 1.054-3.485s1.677-1.785 2.924-2.329 2.663-.816 4.25-.816zM29.52 7.436c1.201 0 2.284.176 3.247.527s1.876.901 2.737 1.649l-2.108 2.856c-.59-.453-1.162-.782-1.717-.986s-1.162-.306-1.819-.306c-2.561 0-3.842 1.972-3.842 5.916 0 1.995.329 3.423.986 4.284s1.598 1.292 2.822 1.292c.635 0 1.213-.096 1.734-.289s1.133-.516 1.836-.969l2.108 3.026c-1.723 1.405-3.695 2.108-5.916 2.108-1.768 0-3.304-.385-4.607-1.156s-2.306-1.864-3.009-3.281-1.054-3.077-1.054-4.981.351-3.587 1.054-5.049 1.706-2.601 3.009-3.417 2.816-1.224 4.539-1.224zm22.168 13.566c0 .703.102 1.218.306 1.547s.544.572 1.02.731l-1.02 3.196c-1.065-.09-1.932-.34-2.601-.748s-1.184-1.043-1.547-1.904c-1.179 1.813-2.98 2.72-5.406 2.72-1.79 0-3.213-.516-4.267-1.547s-1.581-2.374-1.581-4.029c0-1.972.714-3.48 2.142-4.522s3.48-1.564 6.154-1.564h2.074v-.884c0-1.11-.25-1.881-.748-2.312s-1.326-.646-2.482-.646c-1.27 0-2.856.317-4.76.952l-1.088-3.23c2.244-.884 4.465-1.326 6.664-1.326 2.448 0 4.25.527 5.406 1.581s1.734 2.624 1.734 4.709zm-7.922 2.074c1.36 0 2.425-.669 3.196-2.006v-3.434h-1.598c-2.607 0-3.91.975-3.91 2.924 0 .793.198 1.411.595 1.853s.969.663 1.717.663zM66.58 7.436c1.587 0 2.822.482 3.706 1.445s1.326 2.295 1.326 3.995V26h-4.828V13.692c0-.975-.164-1.66-.493-2.057s-.822-.595-1.479-.595c-.68 0-1.298.21-1.853.629s-1.094 1.048-1.615 1.887V26h-4.828V7.98h4.182l.374 2.278c.748-.93 1.57-1.632 2.465-2.108s1.91-.714 3.043-.714zm18.156.408c2.063 0 3.66.793 4.794 2.38s1.7 3.853 1.7 6.8c0 2.879-.595 5.157-1.785 6.834s-2.85 2.516-4.981 2.516c-1.065 0-2.034-.238-2.907-.714s-1.604-1.11-2.193-1.904L79.16 26h-1.734V.976l1.972-.238V10.7c1.405-1.904 3.185-2.856 5.338-2.856zm-.646 16.898c1.61 0 2.85-.652 3.723-1.955s1.309-3.224 1.309-5.763c0-5.032-1.598-7.548-4.794-7.548-1.065 0-1.983.266-2.754.799s-1.496 1.286-2.176 2.261v9.35c.567.884 1.247 1.581 2.04 2.091s1.677.765 2.652.765zM103.3 7.844c2.357 0 4.199.81 5.525 2.431s1.989 3.882 1.989 6.783c0 2.879-.674 5.151-2.023 6.817s-3.19 2.499-5.525 2.499c-2.357 0-4.199-.822-5.525-2.465s-1.989-3.904-1.989-6.783c0-1.881.306-3.525.918-4.93s1.485-2.482 2.618-3.23 2.47-1.122 4.012-1.122zm0 1.666c-1.723 0-3.06.646-4.012 1.938s-1.428 3.185-1.428 5.678c0 2.47.47 4.352 1.411 5.644s2.272 1.938 3.995 1.938 3.066-.646 4.029-1.938 1.445-3.196 1.445-5.712c0-2.47-.47-4.346-1.411-5.627S105.045 9.51 103.3 9.51zm21.386 15.742c-1.133.748-2.38 1.122-3.74 1.122s-2.425-.402-3.196-1.207-1.156-1.966-1.156-3.485V9.816h-2.992V8.218h2.992v-4.25l1.972-.238v4.488h4.59l-.238 1.598h-4.352V21.58c0 1.043.215 1.819.646 2.329s1.088.765 1.972.765c.907 0 1.813-.26 2.72-.782z" fill-rule="evenodd"/></svg>