<svg height="240" viewBox="0 0 480 240" width="480" xmlns="http://www.w3.org/2000/svg" xmlns:xlink="http://www.w3.org/1999/xlink"><clipPath id="a"><path d="m0 0h480v240h-480z"/></clipPath><g clip-path="url(#a)"><path d="m283.173 107.74c0 4.077.782 5.465 3.597 5.404v1.259s-.163-.021-4.731-.021c-2.714 0-10.031.704-11.648.699-12.624-.029-14.961-7.21-14.961-13.226 0-7.5677 4.892-13.2521 12.185-13.2521 4.063 0 5.503 1.1477 7.105 2.905v-5.8565c-.224-1.8183.432-4.4884-3.861-4.5942v-1.0974l11.164-.7119h1.15v28.4941zm-8.453-12.999c-1.433-2.7041-3.042-4.3933-5.821-4.3933-3.945 0-5.003 4.9635-5.003 11.0553 0 8.989 2.428 12.19 6.221 12.19 4.226 0 4.603-2.444 4.603-6.241v-12.6092zm-35.616-6.0843c9.995.0234 13.031 7.3521 13.26 11.5373l-17.88-.034c-.238 5.103 2.471 10.777 8.697 10.791 4.117.009 6.294-2.761 7.329-4.594l1.429.674c-1.56 3.725-5.632 8.145-13 8.111-6.501-.03-13.055-4.422-13.037-13.252.013-9.0426 7.316-13.2494 13.202-13.2333zm.111 2.0299c-3.64 0-4.698 3.9414-4.725 6.9199 0 0 9.26.0072 9.247 0 .197-2.7471-.907-6.9217-4.522-6.9217zm8.141 47.5984c-3.64-.004-4.7 3.939-4.731 6.916 0 0 9.262.011 9.246 0 .201-2.738-.906-6.916-4.517-6.916zm-.138-2.034c9.991.006 13.043 7.333 13.278 11.514h-17.878c-.228 5.106 2.491 10.777 8.717 10.777 4.117 0 6.29-2.779 7.32-4.61l1.429.669c-1.548 3.73-5.613 8.159-12.981 8.141-6.5-.018-13.065-4.397-13.065-13.23 0-9.045 7.293-13.266 13.18-13.261zm-48.074 1.607c2.339-.081 11.789-.959 11.789-.959l.05 3.873c3.129-2.166 6.459-4.478 10.399-3.755 5.826 1.071 6.954 5.83 6.945 9.029 0 0-.006 9.751 0 10.965.009 1.474.688 3.479 3.328 3.482-.002.407-.001.813.003 1.22h-15.055v-1.227c1.391.006 3.403-.509 3.414-3.66.004-1.773-.005-8.349 0-10.651.004-2.304-1.015-3.777-2.627-4.406-2.446-.961-4.818.445-6.38 2.033l.002 12.987c0 1.477.401 3.703 3.317 3.699l-.007 1.232h-14.894s.005-.843 0-1.232c1.669.004 3.324-.828 3.331-3.796 0 0-.005-12.269 0-13.835.008-2.725-.645-3.887-3.611-3.864-.004.027-.004-1.131-.004-1.135zm-78.421 22.591c-3.972.091-4.497-4.344-5.675-7.053l-9.481-25.261-6.2293-.016-10.5655 27.171c-.8123 1.732-1.621 3.683-3.4321 4.755-.4465.673-2.3401.488-2.3401.488l.0072 1.13 11.9964.021-.0144-1.112c-1.1566.011-2.3132-.201-2.9874-1.363-.798-3.048.8876-5.899 1.9115-8.63h10.6927l2.145 5.889c.174 1.002.514 2.218-.251 3-.818 1.009-2.028.914-3.131 1.144l.01 1.024 16.946.044.4-1.231zm-25.7912-12.714 4.4202-11.6 4.178 11.598h-8.5982zm43.9742 12.785s1.549.063 1.964-.403c1.208-.565 1.542-1.775 1.699-2.945l.013-16.246c-.791-2.277-2.322-2.2-3.592-2.358.108-.335.05-.717.049-1.056l11.693-.572-.013 6.638c2.29-2.851 4.749-8.1 9.393-6.64l1.659.651c-.416 2.727-1.112 5.625-1.691 8.41-2.105-1.373-4.716-3.405-7.289-1.659-.89.662-1.609 1.526-2.098 2.52l.01 10.185c.086 1.388.61 2.577 1.618 3.066.902.438 1.954.382 1.954.382l-.061 1.17-15.331-.029z"/><path d="m120.779 160.449c2.456-.006 3.218-1.383 3.218-4.729-.005-.039 0-13.103 0-13.103-.008-.554.097-2.295-.86-3.163-.718-.649-1.781-.834-2.722-.846v-1.146l11.732-.56s.006 18.901 0 18.856c-.008 4.411 1.882 4.68 3.479 4.68v1.243h-15.247zm40.934.016c1.509-.04 3.813-.373 3.813-4.017 0-.993.007-21.091 0-24.118-.006-2.367-.718-3.757-3.82-3.518v-1.231l12.266-.991s-.029 24.086 0 29.813c.021 3.447 1.583 4.09 3.645 4.083-.011.007 0 1.229 0 1.229h-15.905s-.015-1.256 0-1.25zm18.944-.022c2.456-.002 3.448-1.366 3.446-4.691v-13.007c-.003-.549.101-2.274-.861-3.135-.713-.64-1.78-.828-2.722-.843v-1.133l11.74-.55s.006 15.147 0 18.706c-.009 4.381 1.883 4.651 3.481 4.648v1.232l-15.084.003zm7.269-26.245c2.536 0 4.589-1.99 4.589-4.45 0-2.457-2.053-4.447-4.591-4.447-2.532 0-4.583 1.99-4.583 4.447 0 2.456 2.051 4.45 4.585 4.45zm-60.005 0c2.528 0 4.582-1.99 4.582-4.45 0-2.457-2.052-4.447-4.582-4.447-2.534 0-4.591 1.99-4.591 4.447.004 2.456 2.057 4.45 4.591 4.45zm137.103 18.775c1.888-.63 1.239 1.827 2.25 2.543 2.088 3.048 5.285 5.806 9.176 4.934.89-.399 1.94-.964 2.38-1.915.226-.648.264-1.346.11-2.015s-.493-1.281-.98-1.765c-4.261-3.247-12.167-2.734-12.784-9.751-.19-2.672.902-4.964 2.95-6.597 3.76-2.878 9.839-2.15 14.032-.735 1.338.374 1.653-1.467 2.939-1.085l.29 7.685-1.113.069c-1.026-2.615-3.61-5.319-6.348-6.133-1.338-.379-3.12-.251-4.343.315-.829.515-1.542 1.351-1.539 2.353-.045 1.175.578 2.17 1.584 2.776 4.865 2.015 12.783 3.064 13.013 10.135.134 2.614-1.017 4.802-3.006 6.432-3.927 3.601-10.619 2.378-15.145.915-.778-.104-1.501.236-1.829.964v.165l-1.054.067c-.31-3.112-.504-6.233-.583-9.359zm121.787-73.2569v81.7779h-16.942c3.578-9.396 4.387-21.012 1.86-31.201-3.059-12.943-11.53-25.246-23.539-32.8388-11.34-7.2229-25.747-10.0669-39.913-7.1404l-3.258.7908v-11.3885zm-59.277 12.8248c-4.346-2.4029-10.072-2.7471-15.204-1.8757l1.816.2063.259-.122c2.377-.1739 4.877-.095 7.092.3873-.727.2027-1.969.6169-2.844.9809.487.1829 1.119.5021 1.554.7765 1.275-.4228 2.571-.7784 3.883-1.0652.855.2636 3.069 1.2786 4.443 2.2899-1.625.1686-3.845.4877-5.627.9002.42.373.784.8069 1.092 1.2911 2.131-.3788 4.286-.6113 6.448-.6958 1.078.9273 1.97 2.0498 2.631 3.3084-2.403-.1667-5.604-.1219-7.56.0879.197.3551.479 1.2443.599 1.7873 2.428-.105 6.398.07 8.058.313.546 1.343.879 2.764.987 4.21-2.783-.551-6.051-1.01-8.604-1.132.029.822-.005 1.607-.079 2.38 3.038.312 5.984.861 8.839 1.601-.036 1.453-.246 3.253-.637 4.646-2.923-1.023-5.909-1.858-8.939-2.499-.304 1.263-.723 2.496-1.252 3.683 2.991.997 5.948 2.301 8.783 3.701-.475 1.37-1.068 2.696-1.771 3.965-2.835-1.585-5.751-3.147-8.643-4.379-.904 1.634-1.919 3.205-3.036 4.702 2.797 1.721 5.512 3.577 8.13 5.56-.796 1.159-1.928 2.555-2.622 3.389-2.561-2.105-5.139-4.191-7.734-6.256-1.542 1.852-2.849 3.229-4.78 4.716 2.33 2.4 4.56 4.896 6.683 7.481-.857.906-1.809 1.717-2.839 2.421-2.119-2.603-4.175-5.257-6.166-7.958-2.08 1.632-3.354 2.519-5.475 3.622v3.052l3.38 6.767c-.753.476-1.546.881-2.372 1.213l-1.008-1.969v3.557c13.042-5.797 26.306-18.564 30.169-32.438 1.411-4.79 1.664-10.964-.646-15.4306-1.357-2.9372-4.105-5.679-7.008-7.1745zm-1.942-2.0101c.567.1811 1.11.4375 1.65.6742l.307-.0538c2.743.4519 5.392 1.3628 7.834 2.6933-1.296.0072-2.64-.0107-3.932.0915.545.4913 1.113 1.0562 1.586 1.5708 1.704-.0358 3.409.0036 5.111.113 1.653 1.2158 3.343 2.8512 4.286 4.5282-2.302-.4903-4.632-.8335-6.978-1.0279.313.7083.621 1.4379.885 2.1879 2.625.372 5.23.877 7.803 1.515.834 1.739 1.478 3.576 1.747 5.505-2.805-1.002-5.684-1.949-8.632-2.546.077.939.079 1.929.088 2.896 3.043.884 6.014 1.901 8.895 3.208.022 1.881-.19 3.757-.631 5.585-2.905-1.445-5.854-2.869-8.924-3.912-.391 1.703-.893 3.382-1.505 5.021 2.95 1.522 5.882 3.061 8.67 4.881-.57 1.601-1.303 3.138-2.189 4.588-2.744-1.872-5.484-3.693-8.344-5.288-1.008 2.118-2.236 4.123-3.665 5.982 2.551 2.016 5.157 4.098 7.617 6.323-.925 1.386-1.965 2.692-3.109 3.904-1.797-1.89-4.784-4.571-7.27-6.678-1.762 2.134-3.85 4.483-5.948 6.233 1.6 1.682 6.352 7.41 6.352 7.41-1.045 1.018-2.167 1.953-3.357 2.797 0 0-4.842-6.224-6.043-7.718-2.866 2.274-5.166 3.868-8.52 5.649 1.34 2.268 4.636 8.41 4.636 8.41-.848.52-1.741 1.009-2.631 1.334-1.551-2.59-3.425-6.341-4.429-8.482-.622.337-1.268.628-1.933.87v11.189c10.114-3.28 19.427-9.089 27.321-17.496 7.191-7.788 12.871-16.201 14.561-26.252 1.346-8.017-1.308-15.561-7.668-20.6682-3.859-3.2995-8.643-4.4543-13.641-5.0388zm-3.364 5.3436c-4.429-4.4865-11.23-4.8559-17.209-3.4465v.5434c1.43-.3217 2.889-.4959 4.354-.5201-.96.5988-1.877 1.2639-2.744 1.9905.361.0807.746.199 1.085.3461 1.204-.8657 2.454-1.6643 3.746-2.3921 1.411.0053 3.242.2725 4.44.7495-1.967.7101-4.356 1.8022-5.896 2.8332.298.1704.567.3838.802.633 2.198-1.1467 4.486-2.1122 6.841-2.887 1.043.43 2.003 1.0393 2.836 1.8004-2.847.6724-5.576 1.4255-8.323 2.5427.27.3102.548.7836.684 1.0759 2.923-1.0029 5.909-1.8121 8.938-2.4226.556.5953 1.219 1.5529 1.567 2.4387-3.364.3551-7.221.9395-9.809 1.6785.154.441.251.862.334 1.27 3.347-.652 6.739-1.054 10.146-1.205.315.986.482 2.046.487 3.129-3.494-.192-6.998-.109-10.479.247.002.409-.054 1.216-.108 1.722 3.498-.129 7.001-.007 10.482.365-.13 1.022-.382 2.349-.712 3.49-3.531-.803-6.75-1.194-10.299-1.428-.172.774-.43 1.526-.767 2.244 3.326.609 6.653 1.531 9.859 2.679-.447 1.043-.952 2.06-1.514 3.046-2.402-1.136-6.665-2.722-9.464-3.509-.556 1.117-1.229 2.172-2.008 3.147 2.013.979 5.87 3.156 8.503 4.856-.642.877-1.336 1.715-2.08 2.507-2.532-2.006-5.161-3.886-7.878-5.634-.885 1.013-1.99 2.116-3.023 2.994v.318l6.378 6.798c-.695.633-1.425 1.226-2.185 1.779l-4.193-5.362v9.472c6.481-3.807 13.045-10.042 16.73-16.663 3.013-5.291 5.283-12.466 2.375-18.5519-.52-.9397-1.067-1.8578-1.896-2.6719zm19.056.0592 1.883.2277c1.89.9773 3.617 2.3581 5.179 4.0027.572.633 1.187 1.262 1.59 1.944-1.556-.438-3.068-.971-4.673-1.317.544.847.935 1.681 1.336 2.658 1.792.505 3.563 1.133 5.308 1.757 1.139 2.126 1.921 4.423 2.317 6.802-2.003-1.005-4.011-1.982-6.09-2.798.162 1.177.212 2.391.162 3.556 2.268 1.046 4.814 2.444 6.389 3.448.054 1.668-.102 4.623-.592 6.515-1.811-1.327-4.431-3.025-6.545-4.115-.291 1.632-1.058 4.178-1.876 5.971 2.224 1.496 4.417 3.034 6.522 4.838-.664 1.76-1.449 3.473-2.349 5.125-2.097-1.799-4.251-3.533-6.457-5.197-1.254 2.518-2.781 4.89-4.555 7.073 2.124 1.941 4.193 3.941 6.204 6-1.019 1.504-2.163 2.92-3.419 4.233-1.942-2.083-3.933-4.221-5.966-6.209-2.109 2.435-4.488 4.979-6.984 7.077 1.954 2.108 3.767 4.342 5.429 6.687-1.237 1.058-2.392 2.062-3.634 2.964l-5.24-6.757c-3.239 2.516-6.669 4.602-10.119 6.483l2.754 4.59h8.527c13.027-8.903 24.805-22.117 28.427-36.868 2.193-9.032.111-18.263-6.115-24.9857-3.312-3.5774-6.995-4.7806-9.593-5.5768.663.4376 1.434 1.11 2.18 1.8721zm-36.261-.7496v1.5763l.884-.6187c.73.1793 1.569.5416 2.126.9145-1.013.5918-2.058 1.1871-3.003 1.8255v.9916c1.271-.8002 2.571-1.5538 3.896-2.2594.476.3013.904.7478 1.234 1.1961-1.693.6724-4.045 1.8241-5.141 2.4061v1.01c1.874-.904 3.945-1.826 5.914-2.4353.258.4483.506 1.0163.606 1.5333-2.094.403-4.522 1.287-6.509 2.058v.933c2.092-.73 4.924-1.474 6.767-1.772.144.599.154 1.359.16 1.908-2.324.215-4.634.565-6.916 1.053v1.06c2.013-.271 5.352-.517 6.806-.461-.118.733-.312 1.452-.577 2.146-2.075-.18-4.159-.255-6.242-.226-.009 0-.009 1.417-.009 1.424 1.84.108 3.845.547 5.46.854-.269.666-.597 1.306-.979 1.915-1.262-.424-3.102-1.004-4.481-1.225v2.803c.884.391 2.155 1.029 2.589 1.309-.369.538-.792 1.04-1.264 1.492-.434-.289-.877-.566-1.327-.831l.002 3.565c1.476-1.441 2.923-2.959 4.071-4.567 2.851-4.114 5.11-9.45 3.055-14.598-1.239-2.821-4.246-4.5962-7.122-4.98zm47.765 7.879c.597 1.008 1.165 2.043 1.642 3.097l2.269 1.053c1.613 2.625 2.899 5.401 3.598 8.41-1.249-.789-2.528-1.611-3.805-2.313.198 1.368.25 2.601.278 4.043 1.444 1.004 2.941 2.066 4.333 3.31.12 2.461-.026 4.927-.434 7.356-1.452-1.417-3.014-2.717-4.672-3.886-.391 2.156-1.169 4.591-2.071 6.773 1.738 1.414 3.368 2.955 4.876 4.612-.649 1.894-1.459 3.728-2.421 5.484-1.542-1.666-3.233-3.409-4.922-4.88-1.035 2.019-3.133 5.272-4.98 7.781 1.652 1.73 3.247 3.513 4.784 5.345-1.121 1.544-2.332 3.02-3.627 4.421-1.566-1.808-3.031-3.655-4.666-5.416-2.469 2.875-4.54 5.12-7.497 7.607 1.752 2.114 4.384 5.634 4.384 5.634h1.497c2.783-2.501 5.401-5.18 7.838-8.019 5.968-7.284 10.684-15.086 12.332-24.143 1.79-9.504-.71-18.752-6.99-25.62zm5.964 4.752-.024.068c2.726 3.354 4.885 6.949 6.015 10.948l-.022.05-2.105-1.592c.267 1.622.481 3.127.536 4.829.99.753 2.077 1.728 2.927 2.749.143 2.761.143 5.698-.336 8.417-.939-1.266-1.78-2.166-3.258-3.64-.328 2.004-1.072 5.157-1.981 7.273 1.287 1.398 2.611 3.168 3.439 4.465-.482 1.658-1.422 3.891-2.419 5.761-1.189-1.528-2.026-2.776-3.579-4.599-1.572 2.914-3.352 5.71-5.328 8.367 1.351 1.596 2.582 3.263 3.77 4.954-1.127 1.585-2.337 3.109-3.625 4.566-1.235-1.691-2.54-3.379-3.819-5.046-1.793 2.08-3.595 4.201-5.774 6.111h10.044c6.462-7.503 11.153-15.803 13.054-25.189 1.98-9.459.421-19.467-5.668-26.6-.571-.631-1.162-1.426-1.847-1.892zm8.569 13.146c.386 1.811.556 3.305.784 5.674.749.821 1.646 2.193 1.646 2.193.114 2.816-.102 5.636-.645 8.403l-1.521-1.876c-.459 2.638-1.153 5.229-2.075 7.743l1.695 2.941c-.499 1.744-1.465 4.167-2.394 6.107-.628-1.024-1.228-2.148-1.87-3.054-1.559 2.99-3.329 5.865-5.296 8.604l2.351 3.802h.544c5.68-8.443 9.491-17.746 9.884-28.325.19-4.433-1.198-8.285-2.866-11.977l-.237-.233zm4.508 15.174c-.181 1.415-.292 2.847-.543 4.198l-.45-.61c-.459 2.826-1.192 5.6-2.188 8.285l.7 1.933c-.621 2.115-1.367 4.192-2.233 6.22-.26-.723-.599-1.416-1.011-2.066-1.267 2.549-2.683 5.02-4.243 7.401l3.76-.002c2.054-3.988 3.676-8.184 4.84-12.516.992-4.053 1.887-8.392 1.393-12.843zm.244 10.365c-.794 4.133-2.22 9.252-3.419 12.907-.146-.287-.282-.578-.407-.873-.56 1.136-1.413 2.958-1.413 2.958h1.931c1.668-3.925 2.833-9.584 3.308-14.992zm-59.89 11.793c-2.332 1.059-4.724 1.978-7.164 2.753v.439h8.955zm19.608.599c-.929.667-2.112 1.722-3.545 2.604h5.261s-1.142-1.702-1.716-2.604zm57.922-.753c0-1.888 1.504-3.393 3.407-3.393 1.901 0 3.403 1.505 3.403 3.391.002.447-.085.889-.255 1.302-.171.413-.422.788-.738 1.103-.317.315-.693.564-1.107.732-.414.169-.857.253-1.303.249-.447.004-.89-.08-1.304-.249-.414-.168-.79-.417-1.107-.732s-.568-.69-.739-1.102c-.171-.413-.259-.856-.257-1.303zm6.29 0c0-1.601-1.33-2.867-2.883-2.867-.762.001-1.492.302-2.032.839s-.846 1.265-.852 2.026c0 1.594 1.329 2.866 2.884 2.866 1.553 0 2.883-1.273 2.883-2.866zm-1.269 1.833h-.624l-1.112-1.713h-.628v1.713h-.516v-3.712h1.614c.667 0 1.319.183 1.319.977 0 .732-.512 1.004-1.174 1.022zm-1.736-2.236c.459 0 1.266.087 1.266-.503 0-.38-.502-.455-.902-.455h-.992v.958zm-205.357-44.595c2.457-.005 3.452-1.366 3.447-4.693v-13.0021c-.006-.5523.1-2.2774-.861-3.1381-.716-.6402-1.781-.8249-2.72-.841v-1.1351l11.736-.5541s.005 15.1474 0 18.7104c-.009 4.384 1.886 4.648 3.484 4.644v1.237h-15.086zm7.27-26.2414c2.535 0 4.585-1.9941 4.585-4.4543 0-2.4531-2.05-4.4453-4.585-4.4453-2.531 0-4.587 1.9922-4.587 4.4471 0 2.4567 2.056 4.4525 4.587 4.4525zm-42.825 3.6114c2.336-.0807 11.788-.9593 11.788-.9593l.047 3.875c3.133-2.1697 6.462-4.4829 10.4-3.7567 5.828 1.0741 6.954 5.8314 6.945 9.0269 0 0-.005 9.7551 0 10.9651.009 1.474.689 3.484 3.33 3.49-.005-.006.004 1.214.004 1.214h-15.059v-1.225c1.397.007 3.407-.513 3.414-3.658.005-1.775-.005-8.349 0-10.6516.005-2.3043-1.01-3.7765-2.625-4.4112-2.448-.954-4.817.4518-6.379 2.037l.002 12.9848c0 1.483.395 3.706 3.318 3.701l-.006 1.228h-14.898v-1.23c1.672.005 3.323-.825 3.334-3.798v-13.829c.007-2.7274-.646-3.8894-3.613-3.8643zm52.852.9827c3.99-2.6916 8.086-6.9163 10.876-10.2857h.893v8.6915h7.382v2.7436h-7.424s-.012 8.5339 0 13.7999c.009 3.139 1.304 4.702 3.659 4.699 1.161-.025 2.268-.501 3.084-1.327l1.284.555c-1.949 3.219-4.917 4.702-8.48 4.708-5.451.01-7.775-3.596-7.765-7.553.006-3.371.006-14.8891.006-14.8891h-3.515zm-59.792 17.3003c-.08 2.878 1.734 4.229 4.008 4.223v1.232h-12.785v-3.618c-4.157 3.968-5.904 4.447-9.493 4.447-7.098 0-11.599-4.189-11.599-10.697v-16.9596c0-2.8637-.749-3.477-4.268-4.3037v-1.1512h16.659v1.1494c-3.694.8285-4.269 1.6067-4.269 4.5834v18.0627c0 3.968 1.746 6.341 5.67 6.341 2.887 0 4.183-1.381 7.298-4.467v-20.2146c0-2.9193-.748-3.477-4.268-4.3037v-1.1512h16.662v1.1369c-3.317-.0825-3.615 1.6139-3.615 4.9814z"/></g></svg>