<svg height="48" width="175" xmlns="http://www.w3.org/2000/svg"><path d="m111.631 16.588c0 2.274.436 3.048 2.006 3.014v.702s-.091-.012-2.638-.012c-1.514 0-5.594.393-6.496.39-7.04-.016-8.343-4.021-8.343-7.376 0-4.22 2.728-7.39 6.795-7.39 2.266 0 3.069.64 3.962 1.62v-3.266c-.125-1.014.241-2.503-2.153-2.562v-.612l6.226-.396h.641v15.89zm-4.714-7.249c-.799-1.508-1.696-2.45-3.246-2.45-2.2 0-2.79 2.768-2.79 6.165 0 5.013 1.354 6.798 3.469 6.798 2.357 0 2.567-1.363 2.567-3.48v-7.032zm-19.862-3.393c5.574.013 7.267 4.1 7.395 6.434l-9.971-.019c-.133 2.846 1.378 6.01 4.85 6.018 2.296.005 3.51-1.54 4.087-2.562l.797.376c-.87 2.077-3.141 4.542-7.25 4.523-3.625-.017-7.28-2.466-7.27-7.39.007-5.043 4.08-7.389 7.362-7.38m.062 1.132c-2.03 0-2.62 2.198-2.635 3.859 0 0 5.164.004 5.157 0 .11-1.532-.506-3.86-2.522-3.86m4.54 26.545c-2.03-.002-2.621 2.197-2.638 3.857 0 0 5.165.006 5.156 0 .112-1.527-.505-3.857-2.519-3.857m-.076-1.134c5.572.003 7.274 4.089 7.405 6.421h-9.97c-.127 2.847 1.389 6.01 4.861 6.01 2.296 0 3.508-1.55 4.082-2.571l.797.373c-.863 2.08-3.13 4.55-7.239 4.54-3.625-.01-7.286-2.452-7.286-7.378 0-5.044 4.067-7.398 7.35-7.395m-26.809.896c1.304-.045 6.574-.535 6.574-.535l.028 2.16c1.745-1.208 3.602-2.497 5.799-2.094 3.249.597 3.878 3.251 3.873 5.035 0 0-.003 5.438 0 6.115.005.822.384 1.94 1.856 1.942a52.4 52.4 0 0 0 .002.68h-8.396v-.684c.776.003 1.898-.284 1.904-2.041.002-.989-.003-4.656 0-5.94.002-1.285-.566-2.106-1.465-2.457-1.364-.536-2.687.248-3.558 1.134l.001 7.242c0 .824.224 2.065 1.85 2.063l-.004.687h-8.306s.003-.47 0-.687c.931.002 1.854-.462 1.858-2.117 0 0-.003-6.842 0-7.715.004-1.52-.36-2.168-2.014-2.155-.002.015-.002-.631-.002-.633zm-43.733 12.598c-2.215.051-2.508-2.422-3.165-3.933l-5.287-14.087-3.474-.009-5.892 15.152c-.453.966-.904 2.054-1.914 2.652-.249.375-1.305.272-1.305.272l.004.63 6.69.012-.008-.62c-.645.006-1.29-.112-1.666-.76-.445-1.7.495-3.29 1.066-4.813h5.963l1.196 3.284c.097.559.287 1.237-.14 1.673-.456.563-1.131.51-1.746.638l.006.571 9.45.025.223-.687zm-14.383-7.09 2.465-6.469 2.33 6.468h-4.795zm24.523 7.13s.864.035 1.095-.225c.674-.315.86-.99.948-1.642l.007-9.06c-.441-1.27-1.295-1.227-2.003-1.315.06-.187.028-.4.027-.589l6.521-.319-.007 3.702c1.277-1.59 2.648-4.517 5.238-3.703l.925.363c-.232 1.521-.62 3.137-.943 4.69-1.174-.766-2.63-1.899-4.065-.925a3.9 3.9 0 0 0 -1.17 1.405l.006 5.68c.048.774.34 1.437.902 1.71.503.244 1.09.213 1.09.213l-.034.652-8.55-.016z"/><path d="m21.069 45.982c1.37-.003 1.795-.771 1.795-2.637-.003-.022 0-7.307 0-7.307-.005-.309.054-1.28-.48-1.764-.4-.362-.993-.465-1.518-.472v-.639l6.543-.312s.003 10.54 0 10.515c-.005 2.46 1.049 2.61 1.94 2.61v.693h-8.503zm22.828.009c.841-.022 2.126-.208 2.126-2.24 0-.554.004-11.762 0-13.45-.003-1.32-.4-2.095-2.13-1.962v-.686l6.84-.553s-.016 13.432 0 16.626c.012 1.922.883 2.281 2.033 2.277-.006.004 0 .685 0 .685h-8.87s-.008-.7 0-.697zm10.564-.012c1.37-.001 1.923-.762 1.922-2.616v-7.254c-.002-.306.056-1.268-.48-1.748-.398-.357-.993-.462-1.518-.47v-.632l6.547-.307s.003 8.447 0 10.432c-.005 2.443 1.05 2.594 1.941 2.592v.687l-8.412.002zm4.054-14.636c1.414 0 2.559-1.11 2.559-2.482 0-1.37-1.145-2.48-2.56-2.48-1.412 0-2.556 1.11-2.556 2.48s1.144 2.482 2.557 2.482zm-33.463 0c1.41 0 2.555-1.11 2.555-2.482 0-1.37-1.144-2.48-2.555-2.48-1.413 0-2.56 1.11-2.56 2.48.002 1.37 1.147 2.482 2.56 2.482m76.458 10.47c1.053-.351.691 1.019 1.255 1.418 1.164 1.7 2.947 3.238 5.117 2.752.496-.223 1.082-.538 1.327-1.068a2.03 2.03 0 0 0 -.485-2.108c-2.376-1.811-6.785-1.525-7.129-5.438-.106-1.49.503-2.768 1.645-3.679 2.097-1.605 5.487-1.199 7.825-.41.746.209.922-.818 1.639-.605l.162 4.286-.621.038c-.572-1.458-2.013-2.966-3.54-3.42-.746-.211-1.74-.14-2.422.176-.462.287-.86.753-.858 1.312-.025.655.322 1.21.883 1.548 2.713 1.124 7.129 1.709 7.257 5.652.075 1.458-.567 2.678-1.676 3.587-2.19 2.008-5.922 1.326-8.446.51-.434-.058-.837.132-1.02.538v.092l-.588.037a70.552 70.552 0 0 1 -.325-5.219m67.917-40.852v45.605h-9.448c1.995-5.24 2.446-11.718 1.037-17.4-1.706-7.218-6.43-14.079-13.127-18.313-6.324-4.028-14.358-5.614-22.258-3.982l-1.817.441v-6.351zm-33.057 7.152c-2.424-1.34-5.617-1.532-8.479-1.046l1.013.115.144-.068c1.326-.097 2.72-.053 3.955.216-.405.113-1.098.344-1.586.547.272.102.624.28.867.433a21.379 21.379 0 0 1 2.165-.594c.477.147 1.712.713 2.478 1.277-.906.094-2.144.272-3.138.502.234.208.437.45.609.72a26.446 26.446 0 0 1 3.596-.388 6.292 6.292 0 0 1 1.467 1.845c-1.34-.093-3.125-.068-4.216.049.11.198.267.694.334.997 1.354-.059 3.568.039 4.494.174a7.78 7.78 0 0 1 .55 2.348c-1.552-.307-3.374-.563-4.798-.631.016.458-.003.896-.044 1.327 1.694.174 3.337.48 4.929.893-.02.81-.137 1.814-.355 2.591a40.482 40.482 0 0 0 -4.985-1.394 11.92 11.92 0 0 1 -.698 2.054c1.668.556 3.317 1.283 4.898 2.064a14.106 14.106 0 0 1 -.988 2.211c-1.581-.884-3.207-1.755-4.82-2.442a22.914 22.914 0 0 1 -1.693 2.622c1.56.96 3.074 1.995 4.534 3.101-.444.646-1.075 1.425-1.462 1.89a358.133 358.133 0 0 0 -4.313-3.489c-.86 1.033-1.589 1.801-2.666 2.63a67.349 67.349 0 0 1 3.727 4.172 9.785 9.785 0 0 1 -1.583 1.35 116.803 116.803 0 0 1 -3.439-4.438c-1.16.91-1.87 1.405-3.053 2.02v1.702l1.885 3.774c-.42.265-.862.491-1.323.676l-.562-1.098v1.984c7.273-3.233 14.67-10.353 16.824-18.09.787-2.671.928-6.114-.36-8.605-.757-1.638-2.289-3.167-3.908-4.001zm-1.083-1.121c.316.101.619.244.92.376l.171-.03c1.53.252 3.007.76 4.369 1.502-.723.004-1.472-.006-2.193.051.304.274.621.589.885.876.95-.02 1.901.002 2.85.063.922.678 1.864 1.59 2.39 2.525a30.987 30.987 0 0 0 -3.891-.573c.174.395.346.802.493 1.22a43.39 43.39 0 0 1 4.352.845c.465.97.824 1.994.974 3.07-1.564-.559-3.17-1.087-4.814-1.42.043.524.044 1.076.049 1.615 1.697.493 3.354 1.06 4.961 1.789a12.654 12.654 0 0 1 -.352 3.115c-1.62-.806-3.265-1.6-4.977-2.182-.218.95-.498 1.886-.839 2.8 1.645.849 3.28 1.707 4.835 2.722-.318.893-.727 1.75-1.221 2.559-1.53-1.044-3.058-2.06-4.653-2.949a18.558 18.558 0 0 1 -2.044 3.336c1.423 1.124 2.876 2.285 4.248 3.526a16.595 16.595 0 0 1 -1.734 2.177c-1.002-1.054-2.668-2.549-4.054-3.724-.983 1.19-2.147 2.5-3.317 3.476.892.938 3.542 4.132 3.542 4.132a15.662 15.662 0 0 1 -1.872 1.56s-2.7-3.471-3.37-4.304c-1.598 1.268-2.881 2.157-4.751 3.15.747 1.265 2.585 4.69 2.585 4.69-.473.29-.971.563-1.467.744-.865-1.444-1.91-3.536-2.47-4.73a8.066 8.066 0 0 1 -1.078.485v6.24c5.64-1.829 10.834-5.069 15.236-9.757 4.01-4.343 7.178-9.035 8.12-14.64.751-4.471-.729-8.678-4.276-11.526-2.152-1.84-4.82-2.484-7.607-2.81zm-1.876 2.98c-2.47-2.502-6.263-2.708-9.597-1.922v.303a11.96 11.96 0 0 1 2.428-.29 13.55 13.55 0 0 0 -1.53 1.11c.201.045.416.111.605.193a22.468 22.468 0 0 1 2.089-1.334c.787.003 1.808.152 2.476.418-1.097.396-2.429 1.005-3.288 1.58.166.095.316.214.447.353a25.431 25.431 0 0 1 3.815-1.61 5.393 5.393 0 0 1 1.582 1.004c-1.588.375-3.11.795-4.642 1.418.151.173.306.437.382.6a39.246 39.246 0 0 1 4.984-1.351c.31.332.68.866.874 1.36-1.876.198-4.027.524-5.47.936.086.246.14.481.186.708a38.58 38.58 0 0 1 5.658-.672c.176.55.269 1.141.272 1.745a37.323 37.323 0 0 0 -5.844.138c.001.228-.03.678-.06.96a40.836 40.836 0 0 1 5.845.204c-.072.57-.213 1.31-.397 1.946-1.969-.448-3.764-.666-5.743-.796a6.03 6.03 0 0 1 -.428 1.251c1.855.34 3.71.854 5.498 1.494a16.904 16.904 0 0 1 -.844 1.699c-1.34-.634-3.717-1.518-5.278-1.957a9.796 9.796 0 0 1 -1.12 1.755c1.123.546 3.274 1.76 4.742 2.708a14.82 14.82 0 0 1 -1.16 1.398 54.982 54.982 0 0 0 -4.393-3.142c-.494.565-1.11 1.18-1.686 1.67v.177l3.557 3.791c-.388.353-.795.684-1.219.992l-2.338-2.99v5.282c3.614-2.123 7.275-5.6 9.33-9.292 1.68-2.951 2.946-6.952 1.324-10.346-.29-.524-.595-1.036-1.057-1.49zm10.627.033 1.05.127c1.054.545 2.017 1.315 2.888 2.232.319.353.662.704.887 1.084-.868-.244-1.711-.541-2.606-.734.303.472.521.937.745 1.482.999.282 1.987.632 2.96.98a12.307 12.307 0 0 1 1.292 3.793c-1.117-.56-2.237-1.105-3.396-1.56.09.656.118 1.333.09 1.983 1.265.583 2.685 1.363 3.563 1.923.03.93-.057 2.578-.33 3.633-1.01-.74-2.471-1.687-3.65-2.295-.162.91-.59 2.33-1.046 3.33 1.24.834 2.463 1.692 3.637 2.698a22.75 22.75 0 0 1 -1.31 2.858 73.593 73.593 0 0 0 -3.601-2.898 21.326 21.326 0 0 1 -2.54 3.944 85.044 85.044 0 0 1 3.46 3.346 18.192 18.192 0 0 1 -1.907 2.361c-1.083-1.162-2.193-2.354-3.327-3.463-1.176 1.358-2.503 2.777-3.895 3.947a36.681 36.681 0 0 1 3.028 3.729c-.69.59-1.334 1.15-2.027 1.653l-2.922-3.768c-1.806 1.403-3.719 2.566-5.643 3.615l1.536 2.56h4.755c7.265-4.965 13.833-12.334 15.853-20.56 1.223-5.037.062-10.185-3.41-13.934-1.847-1.995-3.901-2.666-5.35-3.11.37.244.8.619 1.216 1.044zm-20.222-.418v.879l.493-.345c.407.1.875.302 1.186.51-.565.33-1.148.662-1.675 1.018v.553a34.493 34.493 0 0 1 2.173-1.26c.265.168.504.417.688.667-.944.375-2.256 1.017-2.867 1.342v.563c1.045-.504 2.2-1.018 3.298-1.358.144.25.282.567.338.855-1.168.225-2.522.718-3.63 1.148v.52c1.167-.407 2.746-.822 3.774-.988.08.334.086.758.089 1.064-1.296.12-2.584.315-3.857.587v.591c1.123-.151 2.985-.288 3.796-.257-.066.409-.174.81-.322 1.197a34.58 34.58 0 0 0 -3.481-.126c-.005 0-.005.79-.005.794 1.026.06 2.144.305 3.045.476a6.8 6.8 0 0 1 -.546 1.068c-.704-.236-1.73-.56-2.499-.683v1.563c.493.218 1.202.574 1.444.73-.206.3-.442.58-.705.832a15.95 15.95 0 0 0 -.74-.463l.001 1.988c.823-.804 1.63-1.65 2.27-2.547 1.59-2.294 2.85-5.27 1.704-8.141-.691-1.573-2.368-2.563-3.972-2.777zm26.637 4.394c.333.562.65 1.139.916 1.727l1.265.587c.9 1.464 1.617 3.012 2.007 4.69-.697-.44-1.41-.898-2.122-1.29.11.763.139 1.451.155 2.255.805.56 1.64 1.152 2.416 1.846a19.098 19.098 0 0 1 -.242 4.102 21.264 21.264 0 0 0 -2.605-2.167c-.218 1.202-.652 2.56-1.155 3.777a25.037 25.037 0 0 1 2.719 2.572 19.603 19.603 0 0 1 -1.35 3.058c-.86-.929-1.803-1.901-2.745-2.721-.577 1.126-1.747 2.94-2.777 4.339a62.34 62.34 0 0 1 2.668 2.981 27.13 27.13 0 0 1 -2.023 2.465c-.873-1.008-1.69-2.038-2.602-3.02-1.377 1.603-2.532 2.855-4.181 4.242.977 1.179 2.445 3.142 2.445 3.142h.835a48.407 48.407 0 0 0 4.371-4.472c3.328-4.062 5.958-8.413 6.877-13.464.998-5.3-.396-10.457-3.898-14.287zm3.326 2.65-.013.038c1.52 1.87 2.724 3.875 3.354 6.105l-.012.028-1.174-.888c.149.905.268 1.744.299 2.693.552.42 1.158.964 1.632 1.533.08 1.54.08 3.178-.187 4.694-.524-.706-.993-1.208-1.817-2.03-.183 1.118-.598 2.876-1.105 4.056.718.78 1.456 1.767 1.918 2.49-.269.925-.793 2.17-1.349 3.213-.663-.852-1.13-1.548-1.996-2.565a38.23 38.23 0 0 1 -2.971 4.666c.753.89 1.44 1.82 2.102 2.763a30.651 30.651 0 0 1 -2.021 2.546c-.689-.943-1.417-1.884-2.13-2.814-1 1.16-2.005 2.343-3.22 3.408h5.601c3.604-4.184 6.22-8.813 7.28-14.047 1.104-5.275.235-10.856-3.161-14.834-.318-.352-.648-.795-1.03-1.055zm4.779 7.331c.215 1.01.31 1.843.437 3.164.418.458.918 1.223.918 1.223a20.095 20.095 0 0 1 -.36 4.686l-.848-1.046a24.962 24.962 0 0 1 -1.157 4.318l.945 1.64c-.278.973-.817 2.324-1.335 3.406-.35-.571-.685-1.198-1.043-1.703a39.677 39.677 0 0 1 -2.953 4.798l1.311 2.12h.303c3.168-4.708 5.293-9.896 5.512-15.796.106-2.472-.668-4.62-1.598-6.679l-.132-.13zm2.514 8.462c-.101.789-.163 1.588-.303 2.341l-.251-.34a24.645 24.645 0 0 1 -1.22 4.62l.39 1.078a31.21 31.21 0 0 1 -1.245 3.469 5.838 5.838 0 0 0 -.564-1.152 40.066 40.066 0 0 1 -2.366 4.127l2.097-.001a35.21 35.21 0 0 0 2.699-6.98c.553-2.26 1.052-4.68.777-7.162zm.136 5.78c-.443 2.305-1.238 5.16-1.907 7.198a7.848 7.848 0 0 1 -.227-.487c-.312.634-.788 1.65-.788 1.65h1.077c.93-2.189 1.58-5.345 1.845-8.361zm-33.399 6.577a36.081 36.081 0 0 1 -3.995 1.535v.245h4.994zm10.935.334c-.518.372-1.178.96-1.977 1.452h2.934s-.637-.949-.957-1.452zm32.301-.42c0-1.053.839-1.892 1.9-1.892 1.06 0 1.898.839 1.898 1.891a1.88 1.88 0 0 1 -1.898 1.888 1.882 1.882 0 0 1 -1.9-1.888zm3.508 0c0-.893-.742-1.599-1.608-1.599a1.61 1.61 0 0 0 -1.608 1.598c0 .889.741 1.598 1.608 1.598.866 0 1.608-.71 1.608-1.598zm-.708 1.022h-.348l-.62-.955h-.35v.955h-.288v-2.07h.9c.372 0 .736.102.736.545 0 .408-.286.56-.655.57zm-.968-1.247c.256 0 .706.049.706-.28 0-.212-.28-.254-.503-.254h-.553v.534zm-114.521-24.869c1.37-.003 1.925-.762 1.922-2.617v-7.251c-.003-.308.056-1.27-.48-1.75-.399-.357-.993-.46-1.517-.469v-.633l6.545-.309s.003 8.447 0 10.434c-.005 2.445 1.052 2.592 1.943 2.59v.69h-8.413zm4.054-14.634c1.414 0 2.557-1.112 2.557-2.484 0-1.368-1.143-2.479-2.557-2.479-1.411 0-2.558 1.111-2.558 2.48 0 1.37 1.147 2.483 2.558 2.483zm-23.882 2.014c1.303-.045 6.574-.535 6.574-.535l.026 2.161c1.747-1.21 3.604-2.5 5.8-2.095 3.25.599 3.878 3.252 3.873 5.034 0 0-.003 5.44 0 6.115.005.822.384 1.943 1.857 1.946-.003-.003.002.677.002.677h-8.398v-.683c.779.004 1.9-.286 1.904-2.04.003-.99-.003-4.656 0-5.94.003-1.285-.563-2.106-1.464-2.46-1.365-.532-2.686.252-3.557 1.136l.001 7.241c0 .827.22 2.067 1.85 2.064l-.003.685h-8.308v-.686c.932.003 1.853-.46 1.859-2.118v-7.712c.004-1.521-.36-2.169-2.015-2.155zm29.474.548c2.225-1.501 4.509-3.857 6.065-5.736h.498v4.848h4.117v1.53h-4.14s-.007 4.759 0 7.696c.005 1.75.727 2.622 2.04 2.62a2.49 2.49 0 0 0 1.72-.74l.716.31c-1.087 1.795-2.742 2.622-4.729 2.625-3.04.006-4.336-2.005-4.33-4.212.003-1.88.003-8.303.003-8.303h-1.96v-.637zm-33.344 9.648c-.045 1.605.967 2.358 2.235 2.355v.687h-7.13v-2.018c-2.318 2.213-3.292 2.48-5.294 2.48-3.958 0-6.468-2.336-6.468-5.965v-9.458c0-1.597-.418-1.939-2.38-2.4v-.642h9.29v.641c-2.06.462-2.381.896-2.381 2.556v10.073c0 2.213.974 3.536 3.162 3.536 1.61 0 2.333-.77 4.07-2.491v-11.273c0-1.628-.417-1.939-2.38-2.4v-.642h9.292v.634c-1.85-.046-2.016.9-2.016 2.778z"/></svg>