<svg height="36" width="210" xmlns="http://www.w3.org/2000/svg"><path d="m65.481 7.128-8.038 21.706h-2.8l-7.871-21.706h2.831l6.009 17.21a10.3 10.3 0 0 1 .439 1.923h.061a9.385 9.385 0 0 1 .5-1.952l6.13-17.181zm3.127 2.27a1.57 1.57 0 0 1 -1.135-.454c-.313-.303-.469-.687-.469-1.15s.156-.85.469-1.158a1.558 1.558 0 0 1 1.135-.462c.454 0 .84.154 1.158.462.317.309.477.694.477 1.158 0 .444-.159.822-.477 1.136a1.592 1.592 0 0 1 -1.158.468zm1.211 19.436h-2.482v-15.5h2.482zm3.157-.561v-2.664c1.352 1 2.84 1.499 4.465 1.499 2.18 0 3.27-.727 3.27-2.18 0-.414-.093-.765-.28-1.052a2.79 2.79 0 0 0 -.757-.765 5.847 5.847 0 0 0 -1.12-.598 72.801 72.801 0 0 0 -1.385-.553 17.585 17.585 0 0 1 -1.809-.825 5.466 5.466 0 0 1 -1.302-.938 3.498 3.498 0 0 1 -.787-1.188c-.176-.443-.265-.963-.265-1.559 0-.727.167-1.37.5-1.93a4.427 4.427 0 0 1 1.332-1.408 6.223 6.223 0 0 1 1.9-.855 8.45 8.45 0 0 1 2.202-.287c1.342 0 2.543.232 3.603.696v2.513c-1.141-.747-2.452-1.12-3.936-1.12-.464 0-.883.053-1.256.159a3.058 3.058 0 0 0 -.961.446 2.066 2.066 0 0 0 -.62.688c-.146.268-.22.563-.22.886 0 .403.073.741.22 1.015.146.271.36.514.643.727.282.211.625.403 1.029.574.403.172.863.358 1.377.561.686.263 1.302.532 1.847.81a6.404 6.404 0 0 1 1.393.938c.383.349.679.75.886 1.203.207.455.31.994.31 1.62 0 .767-.169 1.433-.507 1.998a4.35 4.35 0 0 1 -1.354 1.407 6.197 6.197 0 0 1 -1.953.833 9.628 9.628 0 0 1 -2.316.272c-1.596.001-2.979-.306-4.149-.923zm25.695.561h-2.482v-2.452h-.061c-1.029 1.877-2.624 2.815-4.783 2.815-3.693 0-5.54-2.2-5.54-6.6v-9.264h2.467v8.87c0 3.27 1.251 4.904 3.754 4.904 1.211 0 2.208-.446 2.99-1.34.782-.893 1.173-2.061 1.173-3.504v-8.931h2.482zm15.176 0h-2.482v-2.422h-.061c-1.08 1.856-2.669 2.785-4.768 2.785-1.544 0-2.752-.408-3.625-1.227-.873-.816-1.31-1.901-1.31-3.254 0-2.896 1.705-4.581 5.116-5.056l4.647-.651c0-2.633-1.065-3.95-3.194-3.95-1.867 0-3.552.636-5.055 1.907v-2.543c1.523-.969 3.279-1.453 5.268-1.453 3.643 0 5.464 1.928 5.464 5.782zm-2.483-7.841-3.739.515c-1.15.161-2.018.446-2.603.855-.585.408-.878 1.133-.878 2.172 0 .757.27 1.375.81 1.854s1.259.719 2.157.719c1.231 0 2.249-.432 3.049-1.294.803-.863 1.204-1.955 1.204-3.277zm8.712 7.841h-2.482v-22.947h2.482zm7.756-.878v-2.997c.342.303.754.575 1.233.817s.983.446 1.514.613c.529.166 1.062.295 1.597.386a8.888 8.888 0 0 0 1.483.137c1.563 0 2.732-.29 3.504-.871.772-.58 1.158-1.415 1.158-2.505 0-.585-.129-1.095-.386-1.528a4.34 4.34 0 0 0 -1.067-1.188 10.584 10.584 0 0 0 -1.612-1.029 126.21 126.21 0 0 0 -2.006-1.037 34.753 34.753 0 0 1 -2.119-1.165 9.2 9.2 0 0 1 -1.71-1.303 5.443 5.443 0 0 1 -1.143-1.611c-.278-.601-.417-1.305-.417-2.111 0-.989.217-1.85.651-2.581a5.603 5.603 0 0 1 1.71-1.81 7.77 7.77 0 0 1 2.415-1.059 11.054 11.054 0 0 1 2.763-.349c2.139 0 3.697.257 4.677.772v2.86c-1.282-.888-2.927-1.332-4.935-1.332-.555 0-1.11.059-1.665.174a4.714 4.714 0 0 0 -1.483.567 3.298 3.298 0 0 0 -1.06 1.015c-.273.414-.409.918-.409 1.514 0 .555.104 1.034.311 1.438.207.403.512.771.916 1.104.403.333.896.656 1.476.969.581.313 1.249.656 2.006 1.029a28.8 28.8 0 0 1 2.21 1.211c.696.424 1.307.894 1.832 1.407.523.516.94 1.085 1.248 1.711.309.626.462 1.342.462 2.149 0 1.069-.21 1.976-.628 2.717a5.168 5.168 0 0 1 -1.695 1.81c-.712.464-1.531.8-2.46 1.006-.929.207-1.907.311-2.937.311-.344 0-.768-.028-1.271-.083a17.912 17.912 0 0 1 -1.544-.242 12.57 12.57 0 0 1 -1.491-.394c-.47-.156-.847-.331-1.128-.522zm22.875.727c-.585.323-1.357.484-2.315.484-2.715 0-4.071-1.514-4.071-4.541v-9.173h-2.664v-2.119h2.664v-3.784l2.482-.802v4.586h3.904v2.119h-3.904v8.734c0 1.039.176 1.78.529 2.225s.938.666 1.756.666c.625 0 1.166-.172 1.619-.515zm15.383.151h-2.482v-2.452h-.061c-1.029 1.877-2.623 2.815-4.783 2.815-3.693 0-5.539-2.2-5.539-6.6v-9.264h2.467v8.87c0 3.27 1.251 4.904 3.754 4.904 1.211 0 2.207-.446 2.99-1.34.781-.893 1.172-2.061 1.172-3.504v-8.931h2.482zm17.775 0h-2.482v-2.634h-.061c-1.15 1.998-2.927 2.997-5.328 2.997-1.947 0-3.504-.693-4.67-2.081-1.165-1.388-1.748-3.277-1.748-5.669 0-2.563.646-4.617 1.938-6.16 1.291-1.545 3.012-2.316 5.162-2.316 2.129 0 3.678.838 4.646 2.513h.061v-9.597h2.482zm-2.482-7.008v-2.286c0-1.251-.414-2.311-1.241-3.179s-1.877-1.302-3.148-1.302c-1.514 0-2.704.555-3.572 1.665s-1.302 2.644-1.302 4.602c0 1.786.416 3.196 1.249 4.23.832 1.035 1.95 1.552 3.353 1.552 1.383 0 2.505-.499 3.368-1.499.861-.998 1.293-2.259 1.293-3.783zm8.314-12.428c-.444 0-.822-.151-1.135-.454s-.47-.687-.47-1.15.156-.85.47-1.158c.313-.308.69-.462 1.135-.462.454 0 .84.154 1.158.462.317.309.477.694.477 1.158 0 .444-.159.822-.477 1.136a1.592 1.592 0 0 1 -1.158.468zm1.211 19.436h-2.482v-15.5h2.482zm11.039.363c-2.291 0-4.12-.724-5.488-2.172-1.367-1.448-2.051-3.368-2.051-5.76 0-2.604.712-4.637 2.135-6.1 1.423-1.464 3.346-2.195 5.768-2.195 2.311 0 4.114.711 5.41 2.135 1.297 1.422 1.945 3.396 1.945 5.918 0 2.473-.698 4.453-2.096 5.941-1.398 1.489-3.272 2.233-5.623 2.233zm.182-14.137c-1.596 0-2.856.543-3.785 1.627-.928 1.085-1.393 2.581-1.393 4.488 0 1.837.47 3.284 1.408 4.345.938 1.059 2.195 1.589 3.77 1.589 1.604 0 2.838-.52 3.701-1.56.861-1.039 1.293-2.518 1.293-4.435 0-1.938-.432-3.431-1.293-4.48-.863-1.05-2.098-1.574-3.701-1.574zm-175.131-15.06v30.92l-26.998-4.01 26.998 9.09 9-3.744v-28.512zm-17.72 17.32 8.268 8.18 4.95-2.106v-16.038l-4.95-2.106-8.269 8.18-4.979-3.752-2.05.686v10.022l2.05.687zm8.268-6.233v8.577l-5.69-4.288zm-13.248 1.307 3.014 2.98-3.014 2.982z" fill="#865fc5"/></svg>