<svg fill="none" height="36" viewBox="0 0 36 36" width="36" xmlns="http://www.w3.org/2000/svg"><path clip-rule="evenodd" d="m18.4999 34c8.5604 0 15.5001-6.9397 15.5001-15.5 0-8.56042-6.9397-15.5-15.5001-15.5-8.56034 0-15.4999 6.93958-15.4999 15.5 0 8.5603 6.93956 15.5 15.4999 15.5zm12.0226-12.7809c.1798-.8369.2744-1.7054.2744-2.596l-.0002-.0785c-.6998.687-1.5581 1.2803-2.4933 1.7717-.0579 1.6936-.338 3.3149-.8061 4.8027 1.3371-.774 2.2002-1.6449 2.6406-2.5138.1352-.3957.2511-.8005.346-1.2132.0038-.0579.0057-.1155.0057-.1729zm-2.5786-10.4723c.9566 1.1457 1.7083 2.4681 2.1997 3.9111-.0042.8893-.591 1.9127-1.9489 2.8579-.2069-1.8287-.6759-3.5456-1.3597-5.0669.5073-.4839.9062-1.0512 1.1089-1.7021zm-18.88782 0c-.95655 1.1457-1.70853 2.4681-2.19979 3.9111.00436.8893.59111 1.9127 1.9488 2.8579.20705-1.8287.67604-3.5456 1.35981-5.0669-.50733-.4839-.90613-1.0512-1.10882-1.7021zm2.41012-.5965c-.0702-.1449-.0975-.27157-.0975-.37228 0-.35879.3461-1.04704 1.7497-1.71838.1632-.07804.3355-.15291.5162-.2242-.8127.63878-1.5414 1.42495-2.1684 2.31486zm.7907 3.6576c-.5993 1.4465-.9884 3.1213-1.0874 4.9312 1.6978.6577 3.7901 1.1017 6.1007 1.2192v-4.9917c-1.8863-.1241-3.6228-.5312-5.0133-1.1587zm-1.0245 7.5621c1.7987.5827 3.854.9498 6.0378 1.0505v4.7683c-1.6559-.088-3.2032-.3515-4.5806-.7484-.7412-1.4409-1.26-3.1695-1.4572-5.0704zm8.4972 1.0505v4.7683c1.656-.088 3.2033-.3515 4.5806-.7484.7413-1.4409 1.2601-3.1695 1.4573-5.0704-1.7987.5827-3.854.9498-6.0379 1.0505zm-4.706 7.0203c.7301.1027 1.4807.1735 2.2466.2105v.973c-.7823-.2043-1.5409-.6027-2.2466-1.1835zm4.706.2105v.973c.7824-.2043 1.541-.6027 2.2466-1.1835-.73.1027-1.4806.1735-2.2466.2105zm6.1009-10.9122c-1.6979.6576-3.7902 1.1017-6.1009 1.2192v-4.9917c1.8864-.1241 3.6229-.5312 5.0134-1.1588.5991 1.4466.9883 3.1214 1.0875 4.9313zm-12.4022-7.103.0109-.0156c1.0853-1.5622 2.4196-2.56316 3.831-2.93177v3.81237c-1.497-.1138-2.8194-.4302-3.8419-.865zm6.3013.865v-3.81237c1.4115.36864 2.7457 1.36957 3.831 2.93177l.011.0156c-1.0226.4348-2.3449.7512-3.842.865zm5.804-2.3508c-.6268-.88991-1.3557-1.67611-2.1683-2.31486.1808.07129.3529.14616.5162.2242 1.4034.67134 1.7496 1.35959 1.7496 1.71838 0 .10071-.0272.22738-.0975.37228zm-16.83726 10.166c-.935-.4914-1.79335-1.0847-2.49311-1.7717l-.00026.0785c0 .8906.09468 1.7591.27452 2.596h.03291c0 .0574.00186.115.00558.1729.09496.4127.21072.8175.34608 1.2132.44035.8689 1.30344 1.7398 2.64055 2.5138-.4681-1.4878-.74828-3.1091-.80627-4.8027z" fill="#55aeac" fill-rule="evenodd"/></svg>