<svg height="27" width="27" xmlns="http://www.w3.org/2000/svg"><g fill="none"><path d="m13.07 0 11.07 6.457v12.915l-11.07 6.458-11.07-6.458v-12.915z" fill="#fff"/><path d="m22.715 19.006-8.847 5.158v-4.017l5.512-3.126zm.605-.565v-10.786l-3.237 1.925v6.932l3.237 1.928zm-19.075.565 8.847 5.158v-4.017l-5.512-3.127-3.335 1.985zm-.605-.565v-10.786l3.237 1.925v6.932zm.379-11.484 9.073-5.29v3.883l-5.813 3.296-.044.026zm18.922 0-9.073-5.29v3.883l5.813 3.296.044.026z" fill="#8ed6fb"/><path d="m13.097 19.164-5.357-2.964v-5.876l5.357 3.115v5.726m.766 0 5.357-2.965v-5.876l-5.357 3.115zm-5.76-9.52 5.378-2.978 5.378 2.978-5.378 3.126z" fill="#1c78c0"/></g></svg>