<svg height="88" width="793" xmlns="http://www.w3.org/2000/svg"><path d="m0 12.49 35.7-4.9v34.5h-35.7m40-35.18 47.3-6.91v41.8h-47.3m-40 3.94h35.7v34.6l-35.7-5m40-29.14h47.3v41.4l-47.3-6.7m140.57-62.572-14.51 51.376h-7.057l-10.57-37.547c-.453-1.6-.728-3.343-.823-5.23h-.144a26.539 26.539 0 0 1 -.931 5.159l-10.64 37.618h-6.987l-15.047-51.376h6.629l10.927 39.41c.454 1.647.74 3.367.86 5.158h.18c.118-1.265.489-2.985 1.11-5.159l11.356-39.409h5.768l10.891 39.696c.382 1.361.669 2.962.86 4.8h.143c.096-1.241.418-2.89.967-4.943l10.498-39.553zm8.907 5.374c-1.051 0-1.947-.358-2.687-1.075-.74-.716-1.111-1.624-1.111-2.722 0-1.099.37-2.007 1.11-2.723.741-.74 1.637-1.11 2.688-1.11 1.074 0 1.982.37 2.722 1.11.765.716 1.147 1.624 1.147 2.723 0 1.05-.382 1.946-1.147 2.687-.74.74-1.648 1.11-2.722 1.11zm2.866 46.002h-5.876v-36.687h5.876zm41.437 0h-5.876v-20.924c0-7.786-2.842-11.68-8.527-11.68-2.937 0-5.374 1.111-7.308 3.332-1.911 2.198-2.866 4.98-2.866 8.348v20.923h-5.876v-36.686h5.876v6.09h.143c2.77-4.633 6.783-6.95 12.038-6.95 4.012 0 7.081 1.302 9.207 3.905 2.126 2.58 3.189 6.318 3.189 11.214zm41.508 0h-5.875v-6.234h-.144c-2.722 4.729-6.926 7.093-12.61 7.093-4.61 0-8.3-1.636-11.071-4.908-2.747-3.296-4.12-7.774-4.12-13.435 0-6.066 1.529-10.927 4.586-14.581s7.13-5.482 12.217-5.482c5.04 0 8.705 1.983 10.998 5.948h.144v-22.715h5.875v54.313zm-5.875-16.588v-5.41c0-2.962-.98-5.47-2.938-7.524-1.959-2.054-4.443-3.08-7.452-3.08-3.583 0-6.401 1.313-8.455 3.94-2.054 2.628-3.081 6.258-3.081 10.892 0 4.227.98 7.57 2.938 10.031 1.982 2.436 4.633 3.654 7.953 3.654 3.272 0 5.923-1.182 7.954-3.547 2.054-2.364 3.08-5.35 3.08-8.956zm32.265 17.447c-5.422 0-9.757-1.707-13.005-5.123-3.224-3.44-4.837-7.99-4.837-13.65 0-6.162 1.684-10.975 5.052-14.438s7.918-5.195 13.65-5.195c5.47 0 9.733 1.684 12.79 5.052 3.081 3.368 4.621 8.037 4.621 14.008 0 5.852-1.66 10.545-4.98 14.08-3.295 3.51-7.726 5.266-13.291 5.266zm.43-33.462c-3.774 0-6.76 1.29-8.957 3.87-2.197 2.555-3.296 6.09-3.296 10.604 0 4.347 1.11 7.775 3.332 10.283 2.221 2.507 5.195 3.761 8.92 3.761 3.799 0 6.712-1.23 8.743-3.69 2.054-2.46 3.08-5.959 3.08-10.497 0-4.586-1.026-8.12-3.08-10.605-2.03-2.484-4.944-3.726-8.742-3.726zm72.534-4.084-10.999 36.687h-6.09l-7.56-26.261c-.286-1.003-.477-2.138-.573-3.404h-.143c-.072.86-.322 1.97-.752 3.332l-8.205 26.333h-5.875l-11.106-36.687h6.162l7.595 27.587c.239.836.406 1.934.502 3.296h.286c.072-1.051.287-2.174.645-3.368l8.455-27.515h5.374l7.595 27.658c.24.884.418 1.983.538 3.296h.286c.048-.931.251-2.03.61-3.296l7.451-27.658zm3.676 35.361v-6.306c3.2 2.365 6.723 3.547 10.569 3.547 5.159 0 7.738-1.72 7.738-5.159 0-.979-.227-1.803-.68-2.472-.43-.692-1.027-1.301-1.792-1.827-.74-.525-1.624-.991-2.65-1.397-1.004-.43-2.09-.872-3.261-1.326a47.127 47.127 0 0 1 -4.3-1.934c-1.217-.67-2.244-1.41-3.08-2.222a8.831 8.831 0 0 1 -1.863-2.83c-.406-1.05-.61-2.28-.61-3.69 0-1.72.395-3.236 1.183-4.55a10.242 10.242 0 0 1 3.153-3.332c1.313-.907 2.806-1.588 4.478-2.042a20.14 20.14 0 0 1 5.23-.68c3.177 0 6.02.549 8.527 1.647v5.948c-2.699-1.768-5.804-2.652-9.315-2.652-1.098 0-2.09.132-2.973.394-.884.24-1.648.586-2.293 1.04a5.085 5.085 0 0 0 -1.469 1.647c-.334.621-.501 1.314-.501 2.078 0 .956.167 1.756.501 2.4.358.646.872 1.219 1.54 1.72.67.502 1.481.956 2.437 1.362.955.406 2.042.848 3.26 1.325a42.488 42.488 0 0 1 4.37 1.935c1.29.645 2.39 1.385 3.297 2.221a8.28 8.28 0 0 1 2.078 2.83c.501 1.075.752 2.353.752 3.834 0 1.815-.406 3.392-1.218 4.73a10.109 10.109 0 0 1 -3.188 3.331c-1.338.884-2.878 1.54-4.622 1.97a22.82 22.82 0 0 1 -5.482.645c-3.773 0-7.045-.728-9.816-2.185zm49.949-.752v-7.094c.812.716 1.78 1.361 2.902 1.935a26.21 26.21 0 0 0 3.583 1.468c1.266.383 2.532.681 3.798.896 1.265.215 2.436.323 3.51.323 3.703 0 6.461-.681 8.276-2.043 1.84-1.385 2.76-3.367 2.76-5.947 0-1.385-.311-2.591-.932-3.618-.598-1.027-1.433-1.959-2.508-2.795-1.075-.86-2.353-1.672-3.834-2.436a201.11 201.11 0 0 0 -4.729-2.472 80.265 80.265 0 0 1 -5.016-2.759c-1.552-.931-2.901-1.958-4.048-3.08a13.213 13.213 0 0 1 -2.723-3.798c-.645-1.433-.967-3.105-.967-5.016 0-2.34.513-4.37 1.54-6.09a13.153 13.153 0 0 1 4.049-4.3c1.672-1.122 3.57-1.958 5.696-2.508a26.396 26.396 0 0 1 6.557-.824c5.063 0 8.753.61 11.07 1.828v6.77c-3.033-2.101-6.926-3.152-11.68-3.152-1.313 0-2.627.143-3.94.43-1.314.263-2.484.705-3.511 1.326a7.778 7.778 0 0 0 -2.508 2.4c-.645.98-.968 2.173-.968 3.583 0 1.313.24 2.448.717 3.403.502.956 1.23 1.827 2.185 2.615.956.789 2.114 1.553 3.476 2.293a166.18 166.18 0 0 0 4.764 2.437 67.546 67.546 0 0 1 5.231 2.866c1.648 1.003 3.093 2.113 4.335 3.332 1.242 1.218 2.221 2.567 2.938 4.048.74 1.48 1.11 3.177 1.11 5.087 0 2.532-.501 4.682-1.504 6.45a12.036 12.036 0 0 1 -4.013 4.262c-1.672 1.1-3.606 1.887-5.804 2.365-2.197.502-4.514.752-6.95.752-.812 0-1.815-.071-3.01-.215a34.01 34.01 0 0 1 -3.654-.573 30.776 30.776 0 0 1 -3.547-.895c-1.098-.383-1.982-.8-2.65-1.254zm69.167-14.796h-25.903c.096 4.083 1.195 7.236 3.296 9.457 2.102 2.222 4.992 3.332 8.67 3.332 4.132 0 7.93-1.361 11.393-4.084v5.517c-3.224 2.341-7.487 3.511-12.79 3.511-5.183 0-9.255-1.66-12.217-4.98-2.961-3.343-4.442-8.037-4.442-14.08 0-5.708 1.612-10.353 4.836-13.936 3.249-3.606 7.273-5.41 12.074-5.41 4.8 0 8.515 1.553 11.142 4.658s3.941 7.416 3.941 12.933v3.081zm-6.019-4.98c-.024-3.392-.848-6.031-2.472-7.918-1.6-1.887-3.833-2.83-6.7-2.83-2.77 0-5.123.99-7.057 2.973-1.935 1.982-3.13 4.574-3.583 7.774h19.812zm33.161-8.886c-1.027-.788-2.508-1.182-4.442-1.182-2.508 0-4.61 1.182-6.306 3.547-1.672 2.364-2.508 5.589-2.508 9.673v18.702h-5.875v-36.687h5.875v7.56h.144c.836-2.58 2.113-4.586 3.833-6.02 1.72-1.456 3.642-2.185 5.768-2.185 1.529 0 2.7.167 3.511.502zm34.308-5.947-14.618 36.687h-5.768l-13.9-36.687h6.448l9.315 26.655c.693 1.959 1.123 3.666 1.29 5.123h.143c.24-1.839.621-3.499 1.147-4.98l9.745-26.798zm34.844 19.813h-25.902c.095 4.083 1.194 7.236 3.296 9.457 2.102 2.222 4.992 3.332 8.67 3.332 4.132 0 7.93-1.361 11.393-4.084v5.517c-3.225 2.341-7.488 3.511-12.79 3.511-5.183 0-9.255-1.66-12.217-4.98-2.962-3.343-4.443-8.037-4.443-14.08 0-5.708 1.613-10.353 4.837-13.936 3.248-3.606 7.273-5.41 12.073-5.41 4.801 0 8.515 1.553 11.143 4.658 2.627 3.105 3.94 7.416 3.94 12.933v3.081zm-6.018-4.98c-.024-3.392-.848-6.031-2.472-7.918-1.6-1.887-3.834-2.83-6.7-2.83-2.77 0-5.123.99-7.058 2.973-1.934 1.982-3.129 4.574-3.582 7.774h19.812zm33.16-8.886c-1.026-.788-2.507-1.182-4.442-1.182-2.508 0-4.61 1.182-6.305 3.547-1.672 2.364-2.508 5.589-2.508 9.673v18.702h-5.876v-36.687h5.876v7.56h.143c.836-2.58 2.114-4.586 3.834-6.02 1.72-1.456 3.642-2.185 5.768-2.185 1.528 0 2.699.167 3.51.502zm46.331-7.164c0-1.577-.25-2.95-.752-4.121-.478-1.17-1.146-2.138-2.006-2.902a7.926 7.926 0 0 0 -2.974-1.755c-1.146-.383-2.388-.574-3.726-.574-1.146 0-2.269.156-3.367.466-1.1.31-2.174.74-3.225 1.29a20.97 20.97 0 0 0 -3.01 1.97 22.46 22.46 0 0 0 -2.686 2.544v-6.305c1.648-1.6 3.487-2.819 5.517-3.655 2.054-.86 4.55-1.29 7.488-1.29 2.102 0 4.048.311 5.84.932 1.79.597 3.343 1.48 4.657 2.651 1.314 1.17 2.34 2.615 3.081 4.335.764 1.72 1.146 3.69 1.146 5.912 0 2.03-.238 3.869-.716 5.517a16.378 16.378 0 0 1 -2.114 4.657c-.931 1.457-2.114 2.854-3.547 4.192-1.433 1.337-3.117 2.699-5.051 4.084-2.412 1.72-4.407 3.189-5.983 4.407-1.553 1.218-2.795 2.364-3.726 3.44-.908 1.05-1.553 2.113-1.935 3.188-.358 1.05-.537 2.269-.537 3.654h25.58v5.267h-31.707v-2.544c0-2.198.24-4.132.717-5.804.478-1.672 1.266-3.26 2.365-4.765 1.098-1.505 2.531-3.01 4.299-4.514 1.791-1.505 3.976-3.2 6.556-5.087 1.863-1.338 3.415-2.616 4.657-3.834 1.266-1.218 2.281-2.436 3.046-3.654.764-1.218 1.301-2.448 1.612-3.69.334-1.266.501-2.604.501-4.013zm47.528 12.001c0 4.3-.394 8.109-1.182 11.429-.765 3.32-1.887 6.126-3.368 8.419-1.457 2.269-3.26 4-5.41 5.195-2.126 1.17-4.55 1.755-7.273 1.755-2.58 0-4.884-.561-6.914-1.684-2.006-1.146-3.702-2.806-5.088-4.98-1.385-2.173-2.436-4.836-3.152-7.989-.717-3.176-1.075-6.807-1.075-10.891 0-4.49.37-8.455 1.11-11.895.765-3.439 1.875-6.317 3.332-8.634 1.457-2.34 3.26-4.096 5.41-5.266 2.174-1.194 4.658-1.792 7.452-1.792 10.772 0 16.158 8.778 16.158 26.333zm-6.019.573c0-14.617-3.475-21.926-10.425-21.926-7.333 0-11 7.44-11 22.32 0 13.877 3.595 20.815 10.785 20.815 7.093 0 10.64-7.07 10.64-21.209zm34.057 25.33h-5.876v-44.39c-.454.454-1.122.98-2.006 1.577a31.97 31.97 0 0 1 -2.938 1.72 38.269 38.269 0 0 1 -3.44 1.612 24.296 24.296 0 0 1 -3.51 1.182v-5.947a35.083 35.083 0 0 0 4.084-1.433 53.747 53.747 0 0 0 4.263-2.042 56.405 56.405 0 0 0 3.977-2.365c1.242-.836 2.317-1.648 3.224-2.436h2.222zm49.318-16.302c0 2.508-.406 4.813-1.218 6.915s-1.934 3.917-3.367 5.446c-1.433 1.528-3.141 2.722-5.124 3.582-1.982.836-4.132 1.254-6.448 1.254-2.58 0-4.897-.537-6.95-1.612-2.03-1.075-3.762-2.615-5.195-4.622-1.41-2.03-2.484-4.502-3.225-7.416-.74-2.914-1.11-6.198-1.11-9.852 0-4.466.49-8.515 1.468-12.145 1.004-3.654 2.413-6.771 4.228-9.35 1.839-2.604 4.048-4.61 6.628-6.02 2.58-1.409 5.457-2.114 8.634-2.114 3.535 0 6.377.49 8.527 1.47v5.552c-2.651-1.36-5.446-2.042-8.384-2.042-2.293 0-4.359.514-6.198 1.54-1.839 1.028-3.415 2.485-4.729 4.372-1.313 1.863-2.328 4.12-3.045 6.77-.693 2.652-1.039 5.602-1.039 8.85h.143c2.365-4.275 6.27-6.413 11.716-6.413 2.245 0 4.263.382 6.054 1.147 1.815.764 3.356 1.85 4.622 3.26 1.29 1.385 2.28 3.045 2.973 4.98.693 1.934 1.04 4.084 1.04 6.448zm-6.018.753c0-1.792-.227-3.404-.681-4.837s-1.11-2.65-1.97-3.654a8.097 8.097 0 0 0 -3.117-2.293c-1.242-.55-2.652-.824-4.228-.824-1.457 0-2.806.275-4.048.824a9.945 9.945 0 0 0 -3.225 2.257 10.359 10.359 0 0 0 -2.15 3.296 10.519 10.519 0 0 0 -.752 3.977c0 1.767.251 3.427.753 4.98.501 1.528 1.206 2.866 2.113 4.012a10.332 10.332 0 0 0 3.225 2.723c1.266.645 2.663.967 4.191.967 1.481 0 2.83-.274 4.049-.824a9.231 9.231 0 0 0 3.117-2.364c.86-1.003 1.528-2.197 2.006-3.583.478-1.409.717-2.961.717-4.657z" fill="#00188f"/></svg>