<svg fill="none" height="36" viewBox="0 0 36 36" width="36" xmlns="http://www.w3.org/2000/svg"><path clip-rule="evenodd" d="m10.8896 3c-.9082.00193-1.7972.51883-2.25438 1.30738l-7.11066 12.38522c-.45006.7907-.45006 1.8241 0 2.6148l7.11066 12.3852c.45723.7886 1.34618 1.3056 2.25438 1.3074h14.2212c.9082-.0019 1.7972-.5188 2.2544-1.3074l7.1107-12.3852c.45-.7907.45-1.8241 0-2.6148l-7.1107-12.38522c-.4572-.78855-1.3462-1.30559-2.2544-1.30738zm.129 7.2455c.0196-.0019.0401-.0019.0597 0h2.4529c.1086.0023.2139.0652.2681.1597l4.1612 7.4351c.0209.0368.0344.0777.0395.1198.0052-.0421.0187-.083.0396-.1198l4.1512-7.4351c.0559-.0974.1662-.1607.278-.1597h2.453c.2172.0019.3799.2763.2781.4691l-4.0618 7.2854 4.0618 7.2755c.1114.1939-.0553.4809-.2781.479h-2.453c-.1138-.001-.2247-.0686-.278-.1697l-4.1512-7.4351c-.0209-.0368-.0344-.0777-.0396-.1198-.0051.0421-.0186.0831-.0395.1198l-4.1612 7.4351c-.0517.0982-.1576.1652-.2681.1697h-2.4529c-.2229.0019-.3895-.2851-.2781-.479l4.0618-7.2755-4.0618-7.2854c-.0974-.1759.0214-.4315.2184-.4691z" fill="#3498db" fill-rule="evenodd"/></svg>