<svg xmlns="http://www.w3.org/2000/svg" viewBox="0 0 800 480"><g data-name="Layer 2"><path d="M273 162.36L19.25 309.81 303 473.64l253.75-147.45z" fill="#287ed9"/><path fill="#1c5894" opacity=".5" d="M260.3 170.55L20.67 309.81l282.35 163.02 239.63-139.26L260.3 170.55z"/><path fill="#d8e6fb" d="M508.11 305.76l-4.61-2.66-.54.31 4.61 2.66.54-.31m37.14 18.88h-4.22l-.01-2.44h-.75v2.44l-4.22.01.01.43h4.22l.01 2.44h.75l-.01-2.44h4.22v-.44m-25.87-10.02l3.53-2.05 3.54 2.05-3.52 2.05-3.55-2.05m8.14 0L522.9 312l-4.58 2.66 4.62 2.66 4.58-2.66"/><path fill="none" stroke="#c4d0d7" stroke-miterlimit="10" d="M260.3 90.55v3"/><path fill="none" stroke="#c4d0d7" stroke-miterlimit="10" stroke-dasharray="6 4" d="M260.3 97.55v68"/><path fill="none" stroke="#c4d0d7" stroke-miterlimit="10" d="M260.3 167.55v3"/><path fill="none" stroke="#287ed9" stroke-miterlimit="10" d="M20.67 229.81v3"/><path fill="none" stroke="#287ed9" stroke-miterlimit="10" stroke-dasharray="6 4" d="M20.67 236.81v68"/><path fill="none" stroke="#287ed9" stroke-miterlimit="10" d="M20.67 306.81v3"/><path fill="none" stroke="#5ca5fc" stroke-miterlimit="10" d="M303.02 392.83v3"/><path fill="none" stroke="#5ca5fc" stroke-miterlimit="10" stroke-dasharray="6 4" d="M303.02 399.83v68"/><path fill="none" stroke="#5ca5fc" stroke-miterlimit="10" d="M303.02 469.83v3"/><path fill="none" stroke="#287ed9" stroke-miterlimit="10" d="M542.65 253.57v3"/><path fill="none" stroke="#287ed9" stroke-miterlimit="10" stroke-dasharray="6 4" d="M542.65 260.57v68"/><path fill="none" stroke="#287ed9" stroke-miterlimit="10" d="M542.65 330.57v3"/><path d="M612.44 412.2h-3.06v-5.48l-5.28-9h3.44L611 404l3.38-6.3h3.36l-5.28 9zm11.37-11.32c3.52 0 5.66 2.24 5.66 5.74s-2.14 5.84-5.66 5.84-5.7-2.28-5.7-5.84 2.14-5.74 5.7-5.74zm0 9.34c1.68 0 2.66-1.22 2.66-3.6s-1-3.52-2.66-3.52-2.7 1.22-2.7 3.52.98 3.6 2.7 3.6zm12.78 2.24c-2.32 0-3.94-1.24-3.94-4.14v-7.18h2.94v6.74c0 1.56.62 2.2 1.86 2.2a4.86 4.86 0 0 0 2.88-1v-7.9h2.94v11.02h-2.5l-.3-1.1a6.59 6.59 0 0 1-3.88 1.36zm16.32-11.58a3.33 3.33 0 0 1 1.64.42l-.66 2.8a3.34 3.34 0 0 0-1.4-.32 2.75 2.75 0 0 0-2.36 1.7v6.72h-2.92v-11.06h2.64a14.5 14.5 0 0 0 .24 1.7 3 3 0 0 1 2.82-1.96zm10.68-3.18h3.06v8.3c0 2.76 1.08 3.94 3.08 3.94s3.08-1.18 3.08-3.94v-8.3h3v8.52c0 4.16-2.14 6.24-6.12 6.24s-6.14-2.08-6.14-6.24zm25.27 4.74l-2.64 9.76h-3.12l-4.32-14.5h3.32l2.6 11.08 2.82-11.08h2.76l2.88 11 2.56-11h3.22l-4.34 14.5h-3.12zm16.14 5.98v3.78h-3v-14.5h5.08c3.86 0 6.12 1.88 6.12 5.26s-2.26 5.46-6.12 5.46zm0-8.36v6h1.4c2.34 0 3.6-.92 3.6-3.1 0-2-1.26-2.9-3.6-2.9zm25.77 8.88h-5.14l-1 3.26h-3.2l5.14-14.5H730l5.14 14.5h-3.3zm-2.58-8.16l-1.82 5.82H730zm12.61 14.42h-2.92v-14.06h2.68a8.8 8.8 0 0 0 .2 1.48 4.76 4.76 0 0 1 3.82-1.74c2.56 0 4.3 1.7 4.3 5.56s-2 6-4.82 6a5.94 5.94 0 0 1-3.26-1zm2.54-5.06c1.6 0 2.52-1.14 2.52-3.54 0-2.1-.8-3.12-2.4-3.12a4.19 4.19 0 0 0-2.66 1.18v4.68a4.62 4.62 0 0 0 2.54.8zm11.84 5.06h-2.92v-14.06h2.68a8.8 8.8 0 0 0 .2 1.48 4.76 4.76 0 0 1 3.82-1.74c2.56 0 4.3 1.7 4.3 5.56s-2 6-4.82 6a5.94 5.94 0 0 1-3.26-1zm2.54-5.06c1.6 0 2.52-1.14 2.52-3.54 0-2.1-.8-3.12-2.4-3.12a4.19 4.19 0 0 0-2.66 1.18v4.68a4.62 4.62 0 0 0 2.54.8z" fill="#1c5894"/><path d="M609 246.79v3.78h-3.06v-14.51H611c3.86 0 6.12 1.88 6.12 5.26s-2.26 5.47-6.12 5.47zm0-8.37v6h1.4c2.34 0 3.6-.93 3.6-3.11 0-2-1.26-2.9-3.6-2.9zm11.65 9.19a12.58 12.58 0 0 0 3.89.7c2.12 0 3-.6 3-1.6s-.66-1.59-3-2.18c-3.19-.84-4.49-2.35-4.49-4.39 0-2.44 2.06-4.34 5.66-4.34a14.33 14.33 0 0 1 4.43.74l-.62 2.4a12.12 12.12 0 0 0-3.6-.62c-1.92 0-2.75.66-2.75 1.6s.76 1.58 2.87 2.1c3.46.86 4.74 2.35 4.74 4.57 0 2.54-2 4.24-5.82 4.24a16 16 0 0 1-4.91-.78zm16.87-.82v3.78h-3.06v-14.51h5.08c3.86 0 6.12 1.88 6.12 5.26s-2.26 5.47-6.12 5.47zm0-8.37v6h1.4c2.34 0 3.6-.93 3.6-3.11 0-2-1.26-2.9-3.6-2.9zm11.54-2.36h5.5c4.42 0 7 2.48 7 7.23s-2.62 7.28-7 7.28h-5.5zm3.06 2.4v9.71h1.82c2.86 0 4.5-1.24 4.5-4.88s-1.62-4.83-4.5-4.83zm16.37 6.66v5.45h-3.06v-14.51h9.62v2.54h-6.56v4.12h5.9v2.4zm13.02-1.45v6.9h-3.06v-14.51h3.06v7.15l5.46-7.15h3.54l-5.76 7.32 6 7.19h-3.74zm13.54-8.85a1.71 1.71 0 1 1-1.84 1.72 1.68 1.68 0 0 1 1.84-1.72zm-1.46 4.68h2.92v11.07h-2.92zm10.95 11.33c-2.15 0-3.63-1-3.63-3.48v-5.61h-1.62v-2l1.62-.22v-1.88l2.94-.48v2.36h3.55v2.24h-3.55v5.15c0 1.24.5 1.6 1.62 1.6a7.39 7.39 0 0 0 1.86-.3l.47 2.08a9.9 9.9 0 0 1-3.26.54zm18.92-15.03a11.77 11.77 0 0 1 4.16.72l-.64 2.42a11 11 0 0 0-3.05-.52c-2.52 0-4.34 1.62-4.34 4.87s1.82 4.9 4.33 4.9a11.51 11.51 0 0 0 3.1-.48l.66 2.44a12.87 12.87 0 0 1-4.22.68c-4.31 0-7.07-2.82-7.07-7.54s2.76-7.49 7.07-7.49zm12.19 3.44c3.52 0 5.66 2.24 5.66 5.75s-2.14 5.84-5.66 5.84S730 248.55 730 245s2.09-5.76 5.65-5.76zm0 9.35c1.68 0 2.66-1.22 2.66-3.6s-1-3.53-2.66-3.53S733 242.68 733 245s.93 3.59 2.65 3.59zm14.68-9.35a3.33 3.33 0 0 1 1.64.42l-.66 2.8a3.34 3.34 0 0 0-1.4-.32 2.74 2.74 0 0 0-2.36 1.71v6.72h-2.93V239.5h2.65a15 15 0 0 0 .24 1.71 3 3 0 0 1 2.82-1.97zm9.38 11.59c-3.78 0-6-2.12-6-5.79 0-3.5 2.18-5.8 5.48-5.8s5.1 2.06 5.1 5.26a7.27 7.27 0 0 1-.1 1.35h-7.46c.24 1.86 1.32 2.68 3.38 2.68a8.11 8.11 0 0 0 3.08-.7l.72 2a10.31 10.31 0 0 1-4.2 1zm-3-6.72h4.74c-.14-1.93-1-2.69-2.32-2.69s-2.13.84-2.4 2.69z" fill="#287ed9"/><path d="M613.69 260.5h1.78v11.6h-1.67l-6.22-8.5v8.5h-1.78v-11.6h1.67l6.22 8.5zm10.7 6.35a1.92 1.92 0 0 0-2.18-2.18 7.34 7.34 0 0 0-2.67.53l-.45-1.36a9 9 0 0 1 3.41-.73c2.5 0 3.65 1.31 3.65 3.53v5.46h-1.55l-.15-1a4.1 4.1 0 0 1-2.91 1.23c-1.91 0-2.95-1.15-2.95-2.61 0-1.61 1.3-2.7 3.64-2.7a12.52 12.52 0 0 1 2.16.21zm-1.83 1.46c-1.63 0-2.17.61-2.17 1.29s.43 1.17 1.5 1.17a4 4 0 0 0 2.5-1v-1.27a12.29 12.29 0 0 0-1.83-.19zm9.95 3.98a2.34 2.34 0 0 1-2.65-2.54v-5h-1.41v-1.28l1.41-.18v-1.52l1.76-.29v1.81h2.93v1.46h-2.93v4.67c0 1 .45 1.35 1.42 1.35a7 7 0 0 0 1.55-.24l.34 1.37a7.06 7.06 0 0 1-2.42.39zm5.71-12.39a1.12 1.12 0 1 1 0 2.23 1.12 1.12 0 1 1 0-2.23zm-.88 3.38h1.76v8.82h-1.76zm7.54 8.82l-3.46-8.82h1.91l2.56 6.93 2.51-6.93h1.88l-3.46 8.82zm11.41.19a4.21 4.21 0 0 1-4.59-4.59c0-2.71 1.71-4.61 4.19-4.61s3.89 1.63 3.89 4.21a5.42 5.42 0 0 1-.08 1h-6.18c.19 1.67 1.14 2.47 2.91 2.47a6 6 0 0 0 2.45-.6l.55 1.36a7.24 7.24 0 0 1-3.14.76zm-2.75-5.36h4.51c-.11-1.68-1-2.35-2.21-2.35s-2.11.77-2.3 2.35zm16.14 7.57h-1.76v-11.22h1.58a10.18 10.18 0 0 0 .13 1.14 4.39 4.39 0 0 1 3.19-1.33c2.06 0 3.44 1.37 3.44 4.42s-1.67 4.78-3.84 4.78a4.73 4.73 0 0 1-2.74-.89zm2.4-3.79c1.51 0 2.39-1.06 2.39-3.2 0-1.91-.79-2.82-2.26-2.82a3.87 3.87 0 0 0-2.53 1.15v4.08a4.17 4.17 0 0 0 2.4.79zm11.18 1.58a4.21 4.21 0 0 1-4.59-4.59c0-2.71 1.71-4.61 4.19-4.61s3.89 1.63 3.89 4.21a5.42 5.42 0 0 1-.08 1h-6.18a2.55 2.55 0 0 0 2.92 2.47 6.1 6.1 0 0 0 2.45-.6l.54 1.36a7.24 7.24 0 0 1-3.14.76zm-2.75-5.36H685c-.11-1.68-1-2.35-2.21-2.35s-2.09.77-2.28 2.35zm13.16-3.84a2.68 2.68 0 0 1 1.35.35l-.48 1.59a2.9 2.9 0 0 0-1-.2 2.44 2.44 0 0 0-2.08 1.68v5.59h-1.76v-8.82h1.55a13.45 13.45 0 0 0 .16 1.38 2.47 2.47 0 0 1 2.26-1.57zm6.23 1.65v7.36h-1.76v-7.36h-1.33v-1.31l1.33-.15v-.41a2.67 2.67 0 0 1 2.82-3 6.41 6.41 0 0 1 1.74.24l-.22 1.38a5.78 5.78 0 0 0-1.14-.13c-1 0-1.44.48-1.44 1.72v.17h2.1v1.46zm8.28-1.65c2.62 0 4.32 1.82 4.32 4.56s-1.7 4.64-4.32 4.64-4.34-1.85-4.34-4.64 1.7-4.56 4.34-4.56zm0 7.68c1.58 0 2.53-1.12 2.53-3.12s-1-3.06-2.53-3.06-2.55 1.14-2.55 3.06.95 3.12 2.55 3.12zm11.25-7.68a2.62 2.62 0 0 1 1.34.35l-.48 1.59a2.81 2.81 0 0 0-1-.2 2.43 2.43 0 0 0-2.08 1.68v5.59h-1.76v-8.82H717a13.45 13.45 0 0 0 .16 1.38 2.47 2.47 0 0 1 2.27-1.57zm8.63 0a2.64 2.64 0 0 1 2.56 1.55 4.94 4.94 0 0 1 3.52-1.55c1.6 0 2.88 1 2.88 3.18v5.83h-1.76v-5.38c0-1.36-.58-2-1.7-2a4.16 4.16 0 0 0-2.64 1.17 2.82 2.82 0 0 1 0 .41v5.83h-1.76v-5.38c0-1.36-.58-2-1.7-2a4.1 4.1 0 0 0-2.63 1.17v6.24h-1.76v-8.82h1.59a7 7 0 0 0 .13 1.14 4.53 4.53 0 0 1 3.27-1.39zm17.52 3.76a1.92 1.92 0 0 0-2.17-2.18 7.36 7.36 0 0 0-2.68.53l-.45-1.36a9 9 0 0 1 3.41-.73c2.5 0 3.65 1.31 3.65 3.53v5.46h-1.55l-.14-1a4.14 4.14 0 0 1-2.92 1.23 2.62 2.62 0 0 1-2.94-2.61c0-1.61 1.29-2.7 3.63-2.7a12.32 12.32 0 0 1 2.16.21zm-1.82 1.46c-1.64 0-2.18.61-2.18 1.29s.43 1.17 1.5 1.17a3.94 3.94 0 0 0 2.5-1v-1.27a12.25 12.25 0 0 0-1.82-.19zm12.06-5.22a2.87 2.87 0 0 1 3 3.18v5.83h-1.76v-5.38c0-1.36-.63-2-1.84-2a4.36 4.36 0 0 0-2.76 1.17v6.24h-1.76v-8.82h1.59a7 7 0 0 0 .13 1.14 4.76 4.76 0 0 1 3.4-1.36zm10.24 0a8.7 8.7 0 0 1 2.79.54l-.43 1.44a6.07 6.07 0 0 0-2.17-.41c-1.72 0-2.76 1-2.76 3s1 3 2.76 3a6.08 6.08 0 0 0 2.17-.4l.43 1.44a7.92 7.92 0 0 1-2.79.53c-2.72 0-4.37-1.71-4.37-4.61s1.65-4.53 4.37-4.53zm9.21 9.2a4.21 4.21 0 0 1-4.59-4.59c0-2.71 1.71-4.61 4.19-4.61s3.89 1.63 3.89 4.21a5.42 5.42 0 0 1-.08 1h-6.18c.19 1.67 1.14 2.47 2.91 2.47a6 6 0 0 0 2.45-.6l.55 1.36a7.24 7.24 0 0 1-3.14.76zm-2.75-5.36H777c-.11-1.68-1-2.35-2.21-2.35s-2.08.77-2.27 2.35z" fill="#8293a5"/><path d="M614.24 93.8l-2.64 9.77h-3.12l-4.32-14.51h3.32l2.6 11.09 2.82-11.09h2.76l2.88 11 2.56-11h3.22L620 103.57h-3.12zm17.42 10.03c-3.78 0-6-2.12-6-5.78 0-3.51 2.18-5.8 5.48-5.8s5.11 2 5.11 5.26a6.24 6.24 0 0 1-.11 1.34h-7.46c.24 1.86 1.32 2.68 3.38 2.68a8.11 8.11 0 0 0 3.08-.7l.72 2a10.31 10.31 0 0 1-4.2 1zm-3-6.72h4.74c-.14-1.92-1-2.68-2.32-2.68s-2.18.84-2.4 2.68zm17.56-4.86c2.6 0 4.22 1.76 4.22 5.66s-1.8 5.92-6.14 5.92a22.59 22.59 0 0 1-4.72-.68V88.56h2.92v5.37a4.72 4.72 0 0 1 3.72-1.68zm-3.72 9.16a6 6 0 0 0 1.82.3c2.26 0 3.12-1.42 3.12-3.62s-.8-3.24-2.3-3.24A3.86 3.86 0 0 0 642.5 96zm17.74-.8a12.57 12.57 0 0 0 3.88.7c2.12 0 3-.6 3-1.6s-.66-1.58-3-2.18c-3.18-.84-4.48-2.34-4.48-4.39 0-2.43 2.06-4.34 5.66-4.34a14.32 14.32 0 0 1 4.42.74L669.1 92a11.79 11.79 0 0 0-3.6-.63c-1.92 0-2.74.66-2.74 1.61s.76 1.58 2.86 2.1c3.46.86 4.74 2.34 4.74 4.56 0 2.54-2 4.24-5.82 4.24a16 16 0 0 1-4.9-.78zm13.81-11.55h5.5c4.42 0 7 2.48 7 7.23s-2.62 7.28-7 7.28h-5.5zm3.06 2.4v9.71h1.82c2.86 0 4.5-1.24 4.5-4.88s-1.62-4.83-4.5-4.83zm16.37 5.21v6.9h-3.06V89.06h3.06v7.15l5.46-7.15h3.54l-5.76 7.33 6 7.18H699zm18.38-7.61h3.06v8.27c0 2.76 1.08 3.94 3.08 3.94s3.08-1.18 3.08-3.94v-8.27h3v8.53c0 4.16-2.14 6.24-6.12 6.24s-6.14-2.08-6.14-6.24zm16.71 0h3.06v14.51h-3.06z" fill="#5ca5fc"/><path fill="#5ca5fc" opacity=".25" d="M260.3 90.55L20.67 229.81l282.35 163.02 239.63-139.26L260.3 90.55z"/><path opacity=".2" d="M450.89 225.27L301.9 139.24 92.59 260.9l148.98 86.02 209.32-121.65"/><path fill="#fff" d="M450.89 220.27L241.57 341.92 92.59 255.91 301.9 134.24l148.99 86.03z"/><path fill="none" stroke="#5ca5fc" stroke-miterlimit="10" d="M260.3 90.55L20.67 229.81l282.35 163.02 239.63-139.26L260.3 90.55z"/><g opacity=".25" fill="#8293a5"><path opacity=".9" d="M341.27 155.26L228.51 220.8l-70.94-40.96 112.76-65.53 70.94 40.95z"/><path d="M260.3 90.55l-15.5 9 282.34 163 15.51-9z"/></g><g opacity=".5" fill="none" stroke="#5ca5fc" stroke-miterlimit="10"><path d="M244.8 19.56v3"/><path stroke-dasharray="6 4" d="M244.8 26.56v68"/><path d="M244.8 96.56v3m282.35 83.02v3"/><path stroke-dasharray="6 4" d="M527.15 189.58v68"/><path d="M527.15 259.58v3m15.5-89.01v3"/><path stroke-dasharray="6 4" d="M542.65 180.57v68"/><path d="M542.65 250.57v3M260.3 10.55v3"/><path stroke-dasharray="6 4" d="M260.3 17.55v68"/><path d="M260.3 87.55v3"/></g><path d="M260.3 10.55l-15.5 9 282.34 163 15.51-9z" fill="#5ca5fc"/><path fill="#5ca5fc" opacity=".9" d="M341.27 75.26L228.51 140.8l-70.94-40.96 112.76-65.53 70.94 40.95z"/><path d="M284.43 26.69l69.94 40.38-11.69 6.8-69.94-40.38 11.69-6.8m0-.57l-12.69 7.37 70.94 41 12.69-7.38-70.94-40.99z" fill="#fff" opacity=".5"/><path fill="#fff" d="M346.18 67.68h-4.22l-.01-2.45h-.75l.01 2.88h4.98l-.01-.43"/><path fill="none" stroke="#5ca5fc" stroke-miterlimit="10" stroke-width="2" d="M595 96H435"/><path fill="none" stroke="#1c5894" stroke-miterlimit="10" stroke-width="2" d="M595 406H445"/><path fill="none" stroke="#287ed9" stroke-miterlimit="10" stroke-width="2" d="M595 252h-40"/></g></svg>