<svg xmlns="http://www.w3.org/2000/svg" width="24" height="24"><g fill="#FFF"><path d="M20.25 2c.966 0 1.75.784 1.75 1.75v16.5A1.75 1.75 0 0 1 20.25 22H3.75A1.75 1.75 0 0 1 2 20.25V3.75C2 2.784 2.784 2 3.75 2h16.5zm0-2H3.75A3.754 3.754 0 0 0 0 3.75v16.5A3.754 3.754 0 0 0 3.75 24h16.5A3.754 3.754 0 0 0 24 20.25V3.75A3.754 3.754 0 0 0 20.25 0z" opacity=".702"/><path d="M10.414 18a1.35 1.35 0 0 1-.971-.42l-3.781-4.07a1.307 1.307 0 0 1-.66-1.204 1.31 1.31 0 0 1 .788-1.128 1.339 1.339 0 0 1 1.374.184.828.828 0 0 1 .265.228l.159.174 2.826 2.882 6.201-8.122a1.332 1.332 0 0 1 2.278.271c.186.43.126.927-.158 1.301l-7.155 9.38a1.311 1.311 0 0 1-.99.524h-.176z"/></g></svg>