<svg xmlns="http://www.w3.org/2000/svg" width="19" height="19"><g fill="none" fill-rule="evenodd"><path fill="#FFF" fill-rule="nonzero" d="M2.23 14.613l1.414 1.414-1.768 1.768a1 1 0 0 1-1.414-1.414l1.768-1.768z"/><path stroke="#FFF" stroke-linecap="round" stroke-width="2" d="M10 1.17l-.71.71c-6.36 6.36-4.24 8.49-4.24 8.49l-1.76 1.76a1.5 1.5 0 0 0 0 2.12L4 15a1.5 1.5 0 0 0 2.12 0l1.77-1.77S10 15.32 16.37 9l.71-.71" opacity=".9"/><path fill="#FFF" fill-rule="nonzero" d="M10.708 1.882l5.657 5.657-1.414 1.414-5.657-5.657z" opacity=".25"/><path fill="#FFF" fill-rule="nonzero" d="M6.467 10.367l1.414 1.414-.707.707-1.414-1.414z" opacity=".5"/></g></svg>