<svg xmlns="http://www.w3.org/2000/svg" width="24" height="24"><path fill="#FFF" d="M23 7.08a3.07 3.07 0 0 0-2.49-1.23 3.13 3.13 0 0 0-.54 0v-.3a2.86 2.86 0 0 0-.7-2.24 3 3 0 0 0-2.23-1 3.27 3.27 0 0 0-1.83.54A3.07 3.07 0 0 0 12.15.46a3.15 3.15 0 0 0-2.25.92A3 3 0 0 0 9.1 3a3 3 0 0 0-1.73-.53 3.21 3.21 0 0 0-2.52 1.2 3 3 0 0 0-.51 2.6c.36 1.39.69 2.8 1 4.26a3.08 3.08 0 0 0-1.63-.46A3.31 3.31 0 0 0 .64 12.2a2.87 2.87 0 0 0 .9 3.24 8.43 8.43 0 0 1 1.84 2.89A16 16 0 0 0 5 21.23a5.78 5.78 0 0 0 5 2.28h2.45a10.5 10.5 0 0 1 1.15.06c.302.033.606.05.91.05 3.92 0 4.9-3 5.55-4.94.15-.46.3-.9.46-1.29.9-2.11 1.85-4.69 2.82-7.67A2.84 2.84 0 0 0 23 7.08zm-1.33 2c-.78 2.42-1.73 5.12-2.76 7.51-1 2.24-1.07 5.14-4.36 5.14a6.59 6.59 0 0 1-.72 0 12.28 12.28 0 0 0-1.34-.07c-.88 0-1.69.07-2.45.07a4 4 0 0 1-3.6-1.56C5 18.24 4.55 15.63 2.7 14.07c-1-.86-.08-2.2 1-2.2.32.002.63.119.87.33a7.25 7.25 0 0 1 2.05 2.86.22.22 0 0 0 .22.13 1.25 1.25 0 0 0 .94-1.45c-.48-2.66-1-5.29-1.72-7.92a1.26 1.26 0 0 1 1.3-1.58 1.14 1.14 0 0 1 1.15.9C9 7.08 9.47 9 9.86 11c.1 0 .91-.23 1.16-.28l-.16-7.15a1.21 1.21 0 0 1 1.29-1.28 1.28 1.28 0 0 1 1.35 1.24l.16 7.05a9.56 9.56 0 0 1 1.11.17 43.33 43.33 0 0 0 .9-5.35 1.36 1.36 0 0 1 1.4-1.21 1.06 1.06 0 0 1 1.14 1.21 46 46 0 0 1-1 6.22c.343.169.677.356 1 .56l1.22-3.75a1.15 1.15 0 0 1 1.13-.82 1.11 1.11 0 0 1 1.11 1.49v-.02z"/></svg>