<svg xmlns="http://www.w3.org/2000/svg" width="24" height="24"><g fill="#FFF"><path d="M20.25 2c.966 0 1.75.784 1.75 1.75v16.5A1.75 1.75 0 0 1 20.25 22H3.75A1.75 1.75 0 0 1 2 20.25V3.75C2 2.784 2.784 2 3.75 2h16.5zm0-2H3.75A3.754 3.754 0 0 0 0 3.75v16.5A3.754 3.754 0 0 0 3.75 24h16.5A3.754 3.754 0 0 0 24 20.25V3.75A3.754 3.754 0 0 0 20.25 0z" opacity=".702"/><path d="M19 16l4-4-4-4v8zM5 8l-4 4 4 4V8z"/><path d="M19 13h-3v-2h3v2zM8 13H5v-2h3v2z" opacity=".75"/><path d="M13 11h1.5v2H13v-2zm-3.5 0H11v2H9.5v-2z" opacity=".33"/></g></svg>