<svg xmlns="http://www.w3.org/2000/svg" width="24" height="24" viewBox="0 0 24 24" fill="none" stroke="currentColor" stroke-width="2" stroke-linecap="round" stroke-linejoin="round">
  <!-- Half sun on the right -->
  <path d="M12 12a6 6 0 0 0 6-6 6 6 0 0 0-6 6z"/>
  <path d="M12 12a6 6 0 0 0 6 6 6 6 0 0 0-6-6z"/>
  <!-- Sun rays on the right -->
  <line x1="12" y1="1" x2="12" y2="3"/>
  <line x1="20.66" y1="6.34" x2="19.24" y2="7.76"/>
  <line x1="21" y1="12" x2="19" y2="12"/>
  <line x1="20.66" y1="17.66" x2="19.24" y2="16.24"/>
  <!-- Half moon on the left -->
  <path d="M12 6a6 6 0 0 1 0 12 6 6 0 0 0 0-12z" fill="currentColor" opacity="0.2"/>
  <!-- "A" for Auto in the center -->
  <text x="12" y="15" text-anchor="middle" font-size="8" font-weight="bold" fill="currentColor">A</text>
</svg>