<svg viewBox="0 0 24 24" xmlns="http://www.w3.org/2000/svg" xmlns:serif="http://www.serif.com/" fill-rule="evenodd" clip-rule="evenodd" stroke-linecap="round" stroke-miterlimit="10"><g serif:id="Layer 1"><path d="M12.5 3.5H9A1.5 1.5 0 0 0 7.5 5v6m0 5v4A1.5 1.5 0 0 0 9 21.5h11a1.5 1.5 0 0 0 1.5-1.5V5A1.5 1.5 0 0 0 20 3.5h-3.5M2 13.5h11.5" fill="none" stroke="#000"/><path d="M12 16l2.5-2.5L12 11" fill="none" stroke="#000"/><path d="M14.5 3a.5.5 0 1 1 0-1 .5.5 0 0 1 0 1M16 4.5v-2a1.5 1.5 0 1 0-3 0v2l-2 1V6h7v-.5l-2-1z" fill-rule="nonzero" opacity=".66"/></g></svg>