<svg viewBox="0 0 24 24" xmlns="http://www.w3.org/2000/svg" xmlns:serif="http://www.serif.com/" fill-rule="evenodd" clip-rule="evenodd" stroke-miterlimit="10"><g serif:id="Layer 1"><path d="M12 6.5H5A1.5 1.5 0 0 0 3.5 8v13A1.5 1.5 0 0 0 5 22.5h9a1.5 1.5 0 0 0 1.5-1.5V10L12 6.5z" fill="none" stroke="#000"/><path d="M12 10.5h3.5l-4-4V10a.5.5 0 0 0 .5.5" fill-rule="nonzero" opacity=".66"/><g opacity=".5"><clipPath id="a"><path clip-rule="nonzero" d="M9 2h13v17H9z"/></clipPath><g clip-path="url(#a)"><path d="M9.5 4A1.5 1.5 0 0 1 11 2.5h7L21.5 6v11a1.5 1.5 0 0 1-1.5 1.5h-2" fill="none" stroke="#000" stroke-linecap="round"/><path d="M18 6.5h3.5l-4-4V6a.5.5 0 0 0 .5.5" fill-rule="nonzero" opacity=".66"/></g></g><path d="M8.5 15v5m2.5-2.5H6" fill="none" stroke="#000" stroke-linecap="round"/></g></svg>