<svg viewBox="0 0 24 24" xmlns="http://www.w3.org/2000/svg" xmlns:serif="http://www.serif.com/" fill-rule="evenodd" clip-rule="evenodd" stroke-linecap="round" stroke-miterlimit="10"><g serif:id="Layer 1"><path d="M10 2.5H9A1.5 1.5 0 0 0 7.5 4v10A1.5 1.5 0 0 0 9 15.5h1m-4-13H5A1.5 1.5 0 0 0 3.5 4v10A1.5 1.5 0 0 0 5 15.5h1" fill="none" stroke="#000"/><path d="M18 2.5h-5A1.5 1.5 0 0 0 11.5 4v10a1.5 1.5 0 0 0 1.5 1.5h7a1.5 1.5 0 0 0 1.5-1.5V6L18 2.5z" fill="none" stroke="#000" stroke-linecap="butt"/><path d="M18 6.5h3.5l-4-4V6a.5.5 0 0 0 .5.5" fill-rule="nonzero" opacity=".66"/><path d="M12.5 18v5m2.5-2.5h-5" fill="none" stroke="#000"/></g></svg>