<svg viewBox="0 0 24 24" xmlns="http://www.w3.org/2000/svg" xmlns:serif="http://www.serif.com/" fill-rule="evenodd" clip-rule="evenodd" stroke-linecap="round" stroke-miterlimit="10"><g serif:id="Layer 1"><path d="M20.5 10V8.5a5 5 0 0 0-5-5H14" fill="none" stroke="#000"/><g opacity=".5"><clipPath id="a"><path clip-rule="nonzero" d="M4 12h15v11H4z"/></clipPath><g clip-path="url(#a)"><path d="M4.5 18.5V21A1.5 1.5 0 0 0 6 22.5h9l3.5-3.5v-5a1.5 1.5 0 0 0-1.5-1.5h-4.5" fill="none" stroke="#000" stroke-linecap="butt"/><path d="M14.5 19v3.5l4-4H15a.5.5 0 0 0-.5.5" fill-rule="nonzero" opacity=".66"/></g></g><path d="M9 4.5H4A1.5 1.5 0 0 0 2.5 6v11A1.5 1.5 0 0 0 4 18.5h7a1.5 1.5 0 0 0 1.5-1.5V8L9 4.5z" fill="none" stroke="#000" stroke-linecap="butt"/><path d="M9 8.5h3.5l-4-4V8a.5.5 0 0 0 .5.5" fill-rule="nonzero" opacity=".66"/><path d="M15 1.5l-2 2 2 2M18.5 9l2 2 2-2" fill="none" stroke="#000"/></g></svg>