<svg viewBox="0 0 24 24" xmlns="http://www.w3.org/2000/svg" xmlns:serif="http://www.serif.com/" fill-rule="evenodd" clip-rule="evenodd" stroke-linecap="round" stroke-miterlimit="10"><g serif:id="Layer 1"><path d="M7.5 5.5H7A1.5 1.5 0 0 0 5.5 7v10A1.5 1.5 0 0 0 7 18.5h.5" fill="none" stroke="#000"/><path d="M15 5.5h-5A1.5 1.5 0 0 0 8.5 7v10a1.5 1.5 0 0 0 1.5 1.5h7a1.5 1.5 0 0 0 1.5-1.5V9L15 5.5z" fill="none" stroke="#000" stroke-linecap="butt"/><path d="M15 9.5h3.5l-4-4V9a.5.5 0 0 0 .5.5" fill-rule="nonzero" opacity=".66"/><path d="M22 11h-1v2h1zm0 4h-1v2h1zM3 11H2v2h1zm19-4h-1v2h1zM3 7H2v2h1zm0 8H2v2h1zm14 6h-2v1h2zm-4 0h-2v1h2zm-4 0H7v1h2zm8-19h-2v1h2zm-4 0h-2v1h2zM9 2H7v1h2z" opacity=".5"/><path d="M21.5 19v1a1.5 1.5 0 0 1-1.5 1.5h-1m0-19h1A1.5 1.5 0 0 1 21.5 4v1m-19 0V4A1.5 1.5 0 0 1 4 2.5h1m0 19H4A1.5 1.5 0 0 1 2.5 20v-1" fill="none" stroke="#000" stroke-linecap="butt"/></g></svg>