<svg viewBox="0 0 24 24" xmlns="http://www.w3.org/2000/svg" xmlns:serif="http://www.serif.com/" fill-rule="evenodd" clip-rule="evenodd" stroke-linecap="round" stroke-miterlimit="10"><g serif:id="Layer 1"><path d="M11.5 3.5H15A1.5 1.5 0 0 1 16.5 5v6m0 5v4a1.5 1.5 0 0 1-1.5 1.5H4A1.5 1.5 0 0 1 2.5 20V5A1.5 1.5 0 0 1 4 3.5h3.5m2.5 10h11.5M20 16l2.5-2.5L20 11" fill="none" stroke="#000"/><path d="M9.5 3a.5.5 0 1 1 0-1 .5.5 0 0 1 0 1M11 4.5v-2a1.5 1.5 0 1 0-3 0v2l-2 1V6h7v-.5l-2-1z" fill-rule="nonzero" opacity=".66"/></g></svg>