<svg xmlns="http://www.w3.org/2000/svg" viewBox="0 0 24 24"><path d="M15.5 9V7L12 3.5H5A1.5 1.5 0 0 0 3.5 5v13A1.5 1.5 0 0 0 5 19.5h2" fill="none" stroke="currentColor" stroke-linecap="round" stroke-miterlimit="10"/><path d="M12 7.5h3.5l-4-4V7a.5.5 0 0 0 .5.5z" opacity=".66"/><path d="M18.11 9.72l-1.47 1.47 2.67 2.67 1.47-1.47a.77.77 0 0 0 0-1.07l-1.6-1.6a.77.77 0 0 0-1.07 0z" fill="none" stroke="currentColor" stroke-miterlimit="10" opacity=".66"/><path d="M15.3 12.53l-3.39 3.39a11.93 11.93 0 0 0-1.84 2.35c-.67 1.14-1.39 2.61-.92 3.08s1.94-.25 3.08-.92a11.93 11.93 0 0 0 2.35-1.84L18 15.2z" fill="none" stroke="currentColor" stroke-miterlimit="10"/></svg>