<svg viewBox="0 0 24 24" fill="none" xmlns="http://www.w3.org/2000/svg"><path d="M12 6.5H5A1.5 1.5 0 0 0 3.5 8v13A1.5 1.5 0 0 0 5 22.5h9a1.5 1.5 0 0 0 1.5-1.5V10L12 6.5z" fill="currentColor" fill-opacity=".01" stroke="currentColor" stroke-miterlimit="10"/><path opacity=".66" d="M12.192 10.212h2.815L11.79 6.995V9.81a.402.402 0 0 0 .402.402z" fill="currentColor"/><path opacity=".33" d="M9.5 4A1.5 1.5 0 0 1 11 2.5h7L21.5 6v11a1.5 1.5 0 0 1-1.5 1.5h-2" stroke="currentColor" stroke-miterlimit="10" stroke-linecap="round"/><path opacity=".2" d="M18.195 6.216h2.817l-3.219-3.219v2.816a.403.403 0 0 0 .402.403z" fill="currentColor"/><path d="M8.5 15v5m2.5-2.5H6" stroke="currentColor" stroke-miterlimit="10" stroke-linecap="round"/></svg>