<svg viewBox="0 0 24 24" fill="none" xmlns="http://www.w3.org/2000/svg"><path d="M10 2.5H9A1.5 1.5 0 0 0 7.5 4v10A1.5 1.5 0 0 0 9 15.5h1m-4-13H5A1.5 1.5 0 0 0 3.5 4v10A1.5 1.5 0 0 0 5 15.5h1" stroke="currentColor" stroke-miterlimit="10" stroke-linecap="round"/><path d="M13 2.5h5L21.5 6v8a1.5 1.5 0 0 1-1.5 1.5h-7a1.5 1.5 0 0 1-1.5-1.5V4A1.5 1.5 0 0 1 13 2.5z" fill="currentColor" fill-opacity=".01" stroke="currentColor" stroke-miterlimit="10"/><path opacity=".66" d="M18.201 6.212h2.812L17.8 3v2.812a.402.402 0 0 0 .401.401z" fill="currentColor"/><path opacity=".66" d="M10 20.25l2.5 2.5m0 0l2.5-2.5m-2.5 2.5V17" stroke="currentColor" stroke-miterlimit="10" stroke-linecap="round"/></svg>