<svg viewBox="0 0 24 24" fill="none" xmlns="http://www.w3.org/2000/svg"><g opacity=".33"><path d="M12.5 10.5V8L9 4.5H4A1.5 1.5 0 0 0 2.5 6v11A1.5 1.5 0 0 0 4 18.5h.5" stroke="currentColor" stroke-linecap="round"/><path opacity=".66" d="M8.795 5.004L12 8.209H9.295a.5.5 0 0 1-.5-.5V5.004z" fill="currentColor"/></g><path d="M19 12.5a1.5 1.5 0 0 1 1.5 1.5v5L17 22.5H8A1.5 1.5 0 0 1 6.5 21v-7A1.5 1.5 0 0 1 8 12.5h11z" fill="currentColor" fill-opacity=".01" stroke="currentColor"/><path opacity=".66" d="M19.996 18.795L16.791 22v-2.705a.5.5 0 0 1 .5-.5h2.705z" fill="currentColor"/><path d="M14 3.5h.5a4 4 0 0 1 4 4V10m-2-2l2 2m0 0l2-2" stroke="currentColor" stroke-miterlimit="10" stroke-linecap="round"/></svg>