<svg viewBox="0 0 24 24" fill="none" xmlns="http://www.w3.org/2000/svg"><g opacity=".33"><path d="M19.5 18.5h.5a1.5 1.5 0 0 0 1.5-1.5V8L18 4.5h-5A1.5 1.5 0 0 0 11.5 6v4.5" stroke="currentColor" stroke-linecap="round"/><path opacity=".66" d="M17.795 5.004L21 8.209h-2.705a.5.5 0 0 1-.5-.5V5.004z" fill="currentColor"/></g><path d="M5 22.5A1.5 1.5 0 0 1 3.5 21v-5L7 12.5h9a1.5 1.5 0 0 1 1.5 1.5v7a1.5 1.5 0 0 1-1.5 1.5H5z" fill="currentColor" fill-opacity=".01" stroke="currentColor"/><path opacity=".66" d="M4.004 16.205L7.209 13v2.705a.5.5 0 0 1-.5.5H4.004z" fill="currentColor"/><path d="M10 3.5h-.5a4 4 0 0 0-4 4V10m2-2l-2 2m0 0l-2-2" stroke="currentColor" stroke-miterlimit="10" stroke-linecap="round"/></svg>