<svg viewBox="0 0 24 24" fill="none" xmlns="http://www.w3.org/2000/svg"><path opacity=".5" d="M22 11h-1v2h1v-2zm0 4h-1v2h1v-2zM3 11H2v2h1v-2zm19-4h-1v2h1V7zM3 7H2v2h1V7zm0 8H2v2h1v-2zm14 6h-2v1h2v-1zm-4 0h-2v1h2v-1zm-4 0H7v1h2v-1zm8-19h-2v1h2V2zm-4 0h-2v1h2V2zM9 2H7v1h2V2z" fill="currentColor"/><path opacity=".33" d="M7.5 5.5H7A1.5 1.5 0 0 0 5.5 7v10A1.5 1.5 0 0 0 7 18.5h.5" stroke="currentColor" stroke-miterlimit="10" stroke-linecap="round"/><path opacity=".33" d="M10 5.5h5L18.5 9v8a1.5 1.5 0 0 1-1.5 1.5h-7A1.5 1.5 0 0 1 8.5 17V7A1.5 1.5 0 0 1 10 5.5z" fill="currentColor" fill-opacity=".01" stroke="currentColor" stroke-miterlimit="10"/><path opacity=".2" d="M15.196 9.2h2.8l-3.2-3.2v2.8a.4.4 0 0 0 .4.4z" fill="currentColor"/><path d="M21.5 19v1a1.5 1.5 0 0 1-1.5 1.5h-1m0-19h1A1.5 1.5 0 0 1 21.5 4v1m-19 0V4A1.5 1.5 0 0 1 4 2.5h1m0 19H4A1.5 1.5 0 0 1 2.5 20v-1" stroke="currentColor" stroke-miterlimit="10"/></svg>