<svg width="980" height="150" xmlns="http://www.w3.org/2000/svg"><g fill="#47848F" fill-rule="evenodd"><path d="M206.34 120h53.926c1.534 0 2.832-1.298 2.832-2.832 0-1.534-1.298-2.832-2.832-2.832h-50.858V81.178h44.958c1.534 0 2.832-1.298 2.832-2.832 0-1.534-1.298-2.832-2.832-2.832h-44.958v-32.45h50.268c1.534 0 2.832-1.298 2.832-2.832 0-1.534-1.298-2.832-2.832-2.832H206.34c-1.652 0-3.068 1.416-3.068 3.068v76.464c0 1.652 1.416 3.068 3.068 3.068zm94.198-3.068c0 1.652 1.416 3.068 3.068 3.068h49.206c1.534 0 2.832-1.298 2.832-2.832 0-1.534-1.298-2.832-2.832-2.832h-46.138v-74.34c0-1.652-1.416-3.068-3.068-3.068-1.652 0-3.068 1.416-3.068 3.068v76.936zM394.853 120h53.926c1.534 0 2.832-1.298 2.832-2.832 0-1.534-1.298-2.832-2.832-2.832h-50.858V81.178h44.958c1.534 0 2.832-1.298 2.832-2.832 0-1.534-1.298-2.832-2.832-2.832h-44.958v-32.45h50.268c1.534 0 2.832-1.298 2.832-2.832 0-1.534-1.298-2.832-2.832-2.832h-53.336c-1.652 0-3.068 1.416-3.068 3.068v76.464c0 1.652 1.416 3.068 3.068 3.068zm131.604 1.416c13.806 0 22.892-5.074 31.27-12.862.472-.472.944-1.18.944-2.124 0-1.534-1.416-2.95-2.95-2.95-.944 0-1.652.472-2.124.944-7.788 7.434-15.694 11.446-26.904 11.446-19.706 0-34.928-16.284-34.928-37.17v-.236c0-20.768 14.986-36.934 34.81-36.934 11.564 0 19.47 4.484 26.314 10.738.472.472 1.298.826 2.124.826 1.652 0 3.186-1.416 3.186-3.068 0-1.062-.59-1.888-1.18-2.478-8.024-6.844-16.638-11.564-30.326-11.564-23.836 0-41.3 19.352-41.3 42.716v.236c0 23.718 17.464 42.48 41.064 42.48zm90.776-4.012c0 1.652 1.416 3.068 3.068 3.068 1.652 0 3.068-1.416 3.068-3.068v-74.34H649.8c1.534 0 2.832-1.298 2.832-2.832 0-1.534-1.298-2.832-2.832-2.832h-59c-1.534 0-2.832 1.298-2.832 2.832 0 1.534 1.298 2.832 2.832 2.832h26.432v74.34zm71.778 0c0 1.652 1.416 3.068 3.068 3.068 1.652 0 3.068-1.416 3.068-3.068V85.78h27.022l25.37 33.04c.708.944 1.534 1.652 2.714 1.652 1.652 0 3.186-1.534 3.186-3.186 0-.708-.354-1.416-.944-2.124l-23.482-30.444c13.924-1.888 24.19-9.794 24.19-23.6v-.236c0-5.9-2.36-11.446-6.254-15.34-4.956-4.956-13.098-8.142-23.246-8.142h-31.624c-1.652 0-3.068 1.416-3.068 3.068v76.936zm6.136-37.17v-37.17h28.202c14.986 0 23.718 6.962 23.718 18.054v.236c0 11.918-10.266 18.88-24.072 18.88h-27.848zm135.143 41.182c25.016 0 41.654-20.178 41.654-42.716v-.236c0-22.538-16.402-42.48-41.418-42.48S788.872 56.162 788.872 78.7v.236c0 22.538 16.402 42.48 41.418 42.48zm.236-5.546c-20.414 0-35.282-16.756-35.282-37.17v-.236c0-20.414 14.632-36.934 35.046-36.934s35.282 16.756 35.282 37.17v.236c0 20.414-14.632 36.934-35.046 36.934zm80.51 1.652a2.921 2.921 0 0 0 2.95 2.95 2.921 2.921 0 0 0 2.95-2.95V46.368l56.758 71.98c.944 1.18 1.888 2.006 3.068 2.006h.472c1.416 0 2.478-1.18 2.478-2.596v-77.88a2.921 2.921 0 0 0-2.95-2.95 2.921 2.921 0 0 0-2.95 2.95v69.62l-55.696-70.682c-.826-1.062-1.77-1.77-3.068-1.77h-.944c-1.652 0-3.068 1.416-3.068 3.068v77.408zM48.827 32.168c-19.505-3.553-34.926.165-41.072 10.81-4.586 7.945-3.275 18.477 3.18 29.735a2 2 0 1 0 3.47-1.99c-5.815-10.14-6.946-19.23-3.186-25.744 5.106-8.843 18.861-12.16 36.89-8.876a2 2 0 0 0 .718-3.935zm-27.75 54.23c7.887 8.666 18.133 16.795 29.817 23.541 28.293 16.335 58.412 20.7 73.256 10.58a2 2 0 0 0-2.253-3.306c-13.285 9.06-41.897 4.912-69.003-10.738-11.335-6.545-21.256-14.416-28.858-22.77a2 2 0 1 0-2.959 2.693z"/><path d="M119.415 83.965c12.77-15.087 17.23-30.261 11.096-40.885-4.513-7.816-14.054-11.944-26.733-12.108a2 2 0 0 0-.052 4c11.404.148 19.623 3.703 23.321 10.108 5.095 8.825 1.118 22.356-10.685 36.3a2 2 0 1 0 3.053 2.585zm-32.82-51.131c-11.548 2.474-23.838 7.31-35.642 14.126C21.746 63.822 2.693 88.687 5.34 106.716a2 2 0 1 0 3.958-.581c-2.35-16.008 15.71-39.577 43.655-55.711 11.45-6.611 23.351-11.295 34.48-13.679a2 2 0 1 0-.839-3.911z"/><path d="M39.278 119.215c6.677 18.645 17.601 30.125 29.885 30.125 8.958 0 17.247-6.107 23.71-16.859a2 2 0 1 0-3.428-2.06c-5.809 9.662-12.944 14.919-20.282 14.919-10.204 0-19.947-10.24-26.119-27.474a2 2 0 1 0-3.766 1.349zm60.991-3.647c3.457-11.046 5.313-23.79 5.313-37.068 0-33.134-11.596-61.697-28.114-69.031a2 2 0 0 0-1.624 3.656c14.732 6.541 25.738 33.649 25.738 65.375 0 12.883-1.797 25.223-5.13 35.873a2 2 0 1 0 3.817 1.195zm37.668-1.96a9.572 9.572 0 1 0-19.145 0 9.572 9.572 0 0 0 19.145 0zm-4 0a5.572 5.572 0 1 1-11.145 0 5.572 5.572 0 0 1 11.145 0zM9.823 123.18a9.572 9.572 0 1 0 0-19.144 9.572 9.572 0 0 0 0 19.145zm0-4a5.572 5.572 0 1 1 0-11.144 5.572 5.572 0 0 1 0 11.145z"/><path d="M69.163 19.233a9.572 9.572 0 1 0 0-19.145 9.572 9.572 0 0 0 0 19.145zm0-4a5.572 5.572 0 1 1 0-11.145 5.572 5.572 0 0 1 0 11.145zm1.462 70.037A6.926 6.926 0 1 1 67.7 71.73a6.926 6.926 0 0 1 2.924 13.54z"/></g></svg>