<svg xmlns="http://www.w3.org/2000/svg" xmlns:xlink="http://www.w3.org/1999/xlink" viewBox="0 0 678 500"><defs><path id="a" d="M248.47 336.15L579.31 144.1 331.18.06.34 192.12z"/><path id="c" d="M57.58.39H6.21A5.73 5.73 0 0 0 .48 6.12v44.83a5.73 5.73 0 0 0 5.73 5.73H19.5l12.4 12.4 12.4-12.4h13.29a5.73 5.73 0 0 0 5.73-5.73V6.12A5.73 5.73 0 0 0 57.58.39z"/></defs><g fill="none" fill-rule="evenodd"><path fill="#6465B8" fill-rule="nonzero" d="M677.91 162a.66.66 0 0 1 0 .14V162zM.08 230.83v.17a.66.66 0 0 1 0-.14v-.03z"/><path fill="#CCC" fill-rule="nonzero" d="M.08 231v7.11A2.05 2.05 0 0 0 1.32 240L277.5 399.46a6.65 6.65 0 0 0 6 0l393.18-228.34a2 2 0 0 0 1.22-1.92v-7.06a2.11 2.11 0 0 1-1.24 1.73L283.51 392.21a6.65 6.65 0 0 1-6 0L1.33 232.72A2.14 2.14 0 0 1 .08 231z"/><path fill="#FFF" fill-rule="nonzero" d="M.08 231a2.14 2.14 0 0 0 1.25 1.75L277.5 392.21a6.65 6.65 0 0 0 6 0l393.18-228.34a2.11 2.11 0 0 0 1.24-1.73.66.66 0 0 0 0-.14 2.19 2.19 0 0 0-1.24-1.61L400.5.9a6.63 6.63 0 0 0-6 0L1.31 229.24a2.16 2.16 0 0 0-1.22 1.59.66.66 0 0 0-.01.17z"/><path fill="#E3E3E3" fill-rule="nonzero" d="M146.62 297.63c5-2.93 13.27-2.93 18.34 0s5.09 7.69.05 10.62c-5.04 2.93-13.27 2.93-18.34 0s-5.09-7.69-.05-10.62zm1.9 1.1c-4 2.32-4 6.1 0 8.42a16.05 16.05 0 0 0 14.55 0c4-2.32 4-6.1 0-8.42a16.05 16.05 0 0 0-14.55 0z"/><path fill="#000" fill-rule="nonzero" d="M517.76 90.17a1.35 1.35 0 0 0 0 2.56 4.88 4.88 0 0 0 4.43 0 1.35 1.35 0 0 0 0-2.56 4.88 4.88 0 0 0-4.43 0z"/><path fill="#E6E6E6" fill-rule="nonzero" d="M298.47 364.15L629.31 172.1 381.18 28.06 50.34 220.12z"/><g transform="translate(50 28)"><mask id="b" fill="#fff"><use xlink:href="#a"/></mask><g fill-rule="nonzero" mask="url(#b)"><path fill="#FFF" d="M32.28 180.3l236.99 137.58 904.12-524.85-237-137.57z"/><path fill="#E4E4E4" d="M513.29 44.72l78.53 45.59 9.88-5.73-78.53-45.59zM407.96-16.42l94.86 55.07 9.88-5.74-94.86-55.06zm85.57 72.61l78.53 45.59 9.88-5.74-78.53-45.58zM388.21-4.95l94.85 55.06 9.88-5.73-94.85-55.06zM525.83 97.88l26.47 15.37 9.88-5.74-26.47-15.36zM389.54 18.77l73.76 42.81 9.88-5.73-73.76-42.82zm198.89-139.95L788.61-4.97l9.88-5.74-200.18-116.2zm19.83-11.51l200.18 116.2 9.95-5.77-200.17-116.21zm-39.59 22.98L768.85 6.5l9.88-5.74-200.18-116.2zm-19.75 11.47L749.1 17.96l9.87-5.73-200.18-116.21zM332.55 27.36l200.18 116.2 9.88-5.73L342.43 21.62zM312.8 38.83l200.18 116.2 9.88-5.73L322.68 33.09zM293.04 50.3l200.18 116.2 9.88-5.73L302.92 44.56zm-21.36 11.98l64.49 37.44 11.17-6.48-64.49-37.44zm-24.85 14.84L447 193.33l9.88-5.74L256.7 71.39zm-19.76 11.47L427.25 204.8l9.88-5.74-200.18-116.2zm-19.76 11.47l200.18 116.21 9.88-5.74-200.18-116.2zm-21.36 11.99l64.49 37.44 11.17-6.49-64.49-37.44zM509.05-75.1L709.23 41.11l-67.91 39.42L441.14-35.68z"/><path fill="#000" d="M243.64 213.07c-4-.12-5.92 1.13-5.93 3.59 0 1.9 1.13 4.55 3.28 7.89 1.93 3 3 6 3 8.37 0 5.87-6.19 6.39-11.05 3.6-2.84-1.63-4.91-4.36-4.91-7.09a3 3 0 0 1 2.14-2.94 4.75 4.75 0 0 1 2.83.51c.2.11.4.29.4.43s-.11.2-.29.26c-1.68.68-2.31 1.63-2.31 2.74 0 1.8 1.64 3.7 3.12 4.55 3.1 1.78 7.94 1.34 7.95-2.62 0-1.77-1-4.23-3.26-7.74-2.07-3.16-3.43-6.33-3.42-8.79 0-3.21 2.23-5.41 8-5.1A35 35 0 0 1 257 215c2.3 1.32 6.28 4.26 6.27 7.9 0 3.47-3.86 5.47-6.33 5.46a5.69 5.69 0 0 1-2.67-.71c-.68-.39-1.11-.83-1.11-1.16 0-.33.11-.33.48-.31 1.77-.2 6.78-1 6.78-4.15 0-2.36-2.55-4.16-4.26-5.14a32.5 32.5 0 0 0-12.52-3.82zm1.1 28.67a.6.6 0 0 1-.34-.1 2 2 0 0 1-.85-1.51c0-.23.09-.38.34-.39a14.29 14.29 0 0 0 5.7-1.55 17.62 17.62 0 0 1 2.88-1.4.33.33 0 0 1 .28 0 3.11 3.11 0 0 1 1 1.8.23.23 0 0 1-.14.25c-2.05 1.18-4.36 2.26-4.36 3.76a1.36 1.36 0 0 0 .74 1.28c1.88 1.08 5.84-.92 6.44-1.16.2-.08.28-.07.37 0 .44.372.723.897.79 1.47a.33.33 0 0 1-.23.33c-.6.25-5.36 2.73-8.06 1.18a4.54 4.54 0 0 1-2.3-3.88v-.39a13 13 0 0 1-2.26.31zm10.83-5.14a1.89 1.89 0 0 1-.88-1.62 1.6 1.6 0 0 1 2.39-1.51A1.7 1.7 0 0 1 258 235a1.67 1.67 0 0 1-2.43 1.6z"/><path fill="#000" d="M258.1 251.7a20.91 20.91 0 0 0 3-1.94 5.78 5.78 0 0 1-5-.15 4 4 0 0 1-2-3.68c0-4 4.88-5.08 8.4-3.05a4.93 4.93 0 0 1 2.35 3.16l1.34-.58a.77.77 0 0 1 .65 0 2.7 2.7 0 0 1 .82 1.78.53.53 0 0 1-.29.49 35.33 35.33 0 0 0-4 2.71l-2.06 1.56c.483.033.967.033 1.45 0 2.48.07 4.94-.452 7.18-1.52.2-.08.28-.07.37 0 .44.372.723.897.79 1.47a.33.33 0 0 1-.23.33c-.8.33-2.42 1.4-7.18 1.66a38.5 38.5 0 0 1-4.81-.27c-6.13 4-12.91 6.86-16.35 4.89a3.59 3.59 0 0 1-1.79-3.09c0-3.67 6.93-4.2 12.42-4.16 1.3.01 3.06.23 4.94.39zm-14.81 5c1.65.95 6.83-.54 12-3.26a19.92 19.92 0 0 0-2.36 0c-4.58.29-10 1.33-10 2.68a.63.63 0 0 0 .36.53v.05zm13.85-8.82c1.59.91 4.1-.11 6.49-1.2a2.66 2.66 0 0 0-1.28-1.91c-1.93-1.11-6-.18-6 1.92.02.503.327.95.79 1.15v.04z"/><path fill="#000" d="M274.41 251.29c-.34.36-1 .84-1.83 1.58 3-.68 6.24-.59 7.29 0a2.79 2.79 0 0 1 .82 1.82c0 .59-1.62.81-2.39 1.12-1.14.43-2.39 1.19-2.4 2.2-.005.42.197.817.54 1.06 1.79 1 3.56.14 6.55-1.1.2-.08.28-.07.37 0 .44.372.723.897.79 1.47a.33.33 0 0 1-.23.33c-2.19.91-5.64 2.47-8.23 1a4.14 4.14 0 0 1-2-3.37c0-1.51.95-2.38 2.26-3a10.82 10.82 0 0 0-6.32 2.11c-.31.21-.57.36-.8.23a3.17 3.17 0 0 1-1-1.49 1 1 0 0 1 .4-.69l2.08-2.48a2.37 2.37 0 0 1-.51-1.21c0-.16 0-.25.23-.33a14.56 14.56 0 0 0 3.08-2 .52.52 0 0 1 .63 0 3.42 3.42 0 0 1 1 2.14.75.75 0 0 1-.33.61z"/><path fill="#215894" d="M440.57 52.46c30.34 0 55-14.69 55-32.74a1.91 1.91 0 1 0-3.81 0c0 16-23 28.93-51.22 28.93s-51.22-13-51.22-28.93 23-28.93 51.22-28.93c14 0 27.13 3.18 36.91 9a1.91 1.91 0 1 0 1.94-3.28C469.07-9.66 455.27-13 440.57-13c-30.34 0-55 14.69-55 32.74 0 18.05 24.66 32.72 55 32.72z"/><path fill="#E4E4E4" d="M602.61 90.84a11.52 11.52 0 0 1 10.48 0c2.89 1.68 2.89 4.4 0 6.08a11.52 11.52 0 0 1-10.48 0c-2.9-1.68-2.9-4.4 0-6.08zm-19.76 11.47a11.52 11.52 0 0 1 10.48 0c2.89 1.68 2.89 4.4 0 6.08a11.52 11.52 0 0 1-10.48 0c-2.85-1.68-2.85-4.39 0-6.08zm-19.76 11.47a11.52 11.52 0 0 1 10.48 0c2.89 1.68 2.89 4.4 0 6.08a11.52 11.52 0 0 1-10.48 0c-2.89-1.68-2.89-4.4 0-6.08z"/><path fill="#215894" d="M605.2 95.58l5.67-.14a.76.76 0 0 0 0-1.52l-4 .1.37-5.06a.762.762 0 1 0-1.52-.11l-.52 6.73zM585.56 107l5.67-.14a.76.76 0 0 0 0-1.52l-4 .1.37-5.06a.762.762 0 1 0-1.52-.11l-.52 6.73zm-19.64 11.39l5.67-.14a.76.76 0 0 0 0-1.52l-4 .1.37-5.06a.762.762 0 0 0-1.52-.11l-.52 6.73z"/></g></g><path fill="#28B0CC" fill-rule="nonzero" d="M367.52 35.99l248.13 144.04 13.66-7.93L381.18 28.06z"/><path fill="#6465B8" fill-rule="nonzero" d="M407.65 456.89c4.55 2.6 11.94 2.6 16.46 0 4.52-2.6 4.51-6.83-.05-9.44-4.56-2.61-11.94-2.6-16.46 0-4.52 2.6-4.51 6.84.05 9.44z"/><path fill="#CCC" fill-rule="nonzero" d="M355.39 426.7v13.37c0 3.52 2.37 7.07 6.93 9.68l80.18 45.8c8.8 5 24.81 6 33.55.94L672.5 383.57c3.78-2.17 5.45-5 5.41-8v-13.25a8.23 8.23 0 0 1-3.17 6.31 14.07 14.07 0 0 1-2.24 1.58l-9.36 5.38-187.09 107.54c-8.74 5-24.75 4.08-33.55-.94l-73.74-42.12-6.44-3.68a17.47 17.47 0 0 1-3.84-2.91 9.77 9.77 0 0 1-3.09-6.78z"/><path fill="#6465B8" fill-rule="nonzero" d="M355.39 426.28zm322.5-64.53v.57-.57z"/><path fill="#FFF" fill-rule="nonzero" d="M355.39 426.7a9.77 9.77 0 0 0 3.09 6.78 17.47 17.47 0 0 0 3.84 2.91l6.44 3.68 73.74 42.12c8.8 5 24.81 6 33.55.94l187.09-107.54 9.36-5.38a14.07 14.07 0 0 0 2.24-1.58 8.23 8.23 0 0 0 3.17-6.31v-.57c-.28-3.71-3.22-7.53-8-10.27l-80.18-45.8c-8.8-5-22.88-5.85-31.62-.83L361.64 417.78c-4 2.32-6.07 5.37-6.24 8.5-.01.14-.01.28-.01.42zm256.22-93.78l11.74 6.71c.78.44 1.14 1 .42 1.37a2.42 2.42 0 0 1-2.39-.24l-11.75-6.7c-.77-.45-1.13-1-.42-1.38a2.46 2.46 0 0 1 2.4.24zm13.16.28c-.61.31-1.33.31-1.94 0-.54-.31-.54-.8 0-1.11a2.14 2.14 0 0 1 1.94 0c.53.31.53.8 0 1.11zm8 12.94a3.23 3.23 0 0 1-2.89 0 .88.88 0 0 1 0-1.66 3.2 3.2 0 0 1 2.89 0c.8.52.8 1.21.01 1.66h-.01zM407.6 447.46c4.52-2.61 11.91-2.61 16.46 0 4.55 2.61 4.58 6.84.05 9.44-4.53 2.6-11.91 2.6-16.46 0-4.55-2.6-4.58-6.84-.05-9.44z"/><path fill="#BBC0FF" fill-rule="nonzero" d="M622.83 333.2c.61.31 1.33.31 1.94 0 .53-.31.53-.8 0-1.11a2.14 2.14 0 0 0-1.94 0c-.54.31-.54.8 0 1.11zm-13.2.86l11.75 6.7a2.42 2.42 0 0 0 2.39.24c.72-.41.36-.93-.42-1.37l-11.74-6.71a2.46 2.46 0 0 0-2.4-.24c-.71.41-.35.93.42 1.38z"/><path fill="#FFF" fill-rule="nonzero" d="M407.65 456.89c4.55 2.6 11.94 2.6 16.46 0 4.52-2.6 4.51-6.83-.05-9.44-4.56-2.61-11.94-2.6-16.46 0-4.52 2.6-4.51 6.84.05 9.44z"/><path fill="#000" fill-rule="nonzero" d="M609.63 334.06l11.75 6.7a2.42 2.42 0 0 0 2.39.24c.72-.41.36-.93-.42-1.37l-11.74-6.71a2.46 2.46 0 0 0-2.4-.24c-.71.41-.35.93.42 1.38zm-8.99-5.66a3.23 3.23 0 0 0 2.89 0c.79-.45.79-1.19 0-1.65a3.2 3.2 0 0 0-2.89 0 .88.88 0 0 0 0 1.65zm22.19 4.8c.61.31 1.33.31 1.94 0 .53-.31.53-.8 0-1.11a2.14 2.14 0 0 0-1.94 0c-.54.31-.54.8 0 1.11z"/><path fill="#E3E3E3" fill-rule="nonzero" d="M407.65 456.89c4.55 2.6 11.94 2.6 16.46 0 4.52-2.6 4.51-6.83-.05-9.44-4.56-2.61-11.94-2.6-16.46 0-4.52 2.6-4.51 6.84.05 9.44zm1.94-8.3a14 14 0 0 1 12.5 0c3.45 2 3.47 5.19 0 7.16a13.87 13.87 0 0 1-12.49 0c-3.43-1.97-3.45-5.18-.01-7.16zm-29.85-32.44l98.96 57.16 175.65-101.45-98.96-57.15z"/><path fill="#28B0CC" fill-rule="nonzero" d="M555.39 314.71l98.96 57.15-14.79 8.54-98.95-57.15z"/><path fill="#FFF" fill-rule="nonzero" d="M586.98 383.82l18.13 10.47 24.18-14.05-18.13-10.47zm-23.49-13.59l18.13 10.47 24.18-14.06-18.13-10.47zM540 356.63l18.13 10.47 24.2-14.06-18.14-10.47zm-23.49-13.6l18.13 10.48 24.2-14.06-18.14-10.48zm40.5 58.18l18.12 10.47 24.19-14.06-18.13-10.47zm-23.5-13.6l18.13 10.47 24.19-14.05-18.13-10.47zm-23.49-13.6l18.14 10.47 24.2-14.06-18.14-10.47zm-23.49-13.59l18.14 10.47 24.19-14.06-18.13-10.47zm17.28 44.41l18.13 10.48 24.19-14.06L528 390.78zm-23.49-13.6l18.14 10.48 24.2-14.06-18.14-10.48zm-23.49-13.59l18.14 10.47 24.19-14.06-18.13-10.47z"/><path fill="#C4CDD5" fill-rule="nonzero" d="M617.33 378.61a6.24 6.24 0 0 1 5.67 0c1.57.91 1.57 2.38 0 3.28a6.24 6.24 0 0 1-5.67 0c-1.56-.89-1.57-2.37 0-3.28zM593.89 365a6.24 6.24 0 0 1 5.67 0c1.57.91 1.57 2.38 0 3.28a6.24 6.24 0 0 1-5.67 0c-1.56-.86-1.57-2.28 0-3.28z"/><path fill="#333" fill-rule="nonzero" d="M570.44 351.48a6.24 6.24 0 0 1 5.67 0c1.57.91 1.57 2.38 0 3.28a6.24 6.24 0 0 1-5.67 0c-1.56-.9-1.56-2.37 0-3.28zM547 337.91a6.24 6.24 0 0 1 5.67 0c1.57.91 1.57 2.38 0 3.28a6.24 6.24 0 0 1-5.67 0c-1.56-.9-1.56-2.37 0-3.28zM587.37 396a6.24 6.24 0 0 1 5.67 0c1.57.91 1.57 2.38 0 3.28a6.24 6.24 0 0 1-5.67 0c-1.56-.92-1.57-2.39 0-3.28zm-23.45-13.58a6.24 6.24 0 0 1 5.67 0c1.57.91 1.57 2.38 0 3.28a6.24 6.24 0 0 1-5.67 0c-1.56-.9-1.56-2.37 0-3.28zm-23.44-13.56a6.24 6.24 0 0 1 5.67 0c1.57.91 1.57 2.38 0 3.28a6.24 6.24 0 0 1-5.67 0c-1.56-.91-1.56-2.38 0-3.28z"/><path fill="#C4CDD5" fill-rule="nonzero" d="M517 355.29a6.24 6.24 0 0 1 5.67 0c1.57.91 1.57 2.38 0 3.28a6.24 6.24 0 0 1-5.67 0c-1.52-.9-1.52-2.37 0-3.28zm17.24 44.35a6.24 6.24 0 0 1 5.67 0c1.57.91 1.57 2.38 0 3.28a6.24 6.24 0 0 1-5.67 0c-1.56-.92-1.57-2.38 0-3.28zm-23.44-13.57a6.24 6.24 0 0 1 5.67 0c1.57.91 1.57 2.38 0 3.28a6.24 6.24 0 0 1-5.67 0c-1.56-.9-1.57-2.35 0-3.28zm-23.45-13.56a6.24 6.24 0 0 1 5.67 0c1.57.91 1.57 2.38 0 3.28a6.24 6.24 0 0 1-5.67 0c-1.56-.91-1.56-2.38 0-3.28z"/><g transform="translate(280 168)"><mask id="d" fill="#fff"><use xlink:href="#c"/></mask><g fill-rule="nonzero" mask="url(#d)"><path fill="#333" d="M57.58.39H6.21A5.73 5.73 0 0 0 .48 6.12v44.83a5.73 5.73 0 0 0 5.73 5.73H19.5l12.4 12.4 12.4-12.4h13.29a5.73 5.73 0 0 0 5.73-5.73V6.12A5.73 5.73 0 0 0 57.58.39z"/><path fill="#FFF" d="M43.52 25a1.4 1.4 0 0 0 2 0L71.7-1.18a1.4 1.4 0 0 0 0-2L67-7.8a1.4 1.4 0 0 0-2 0L38.82 18.38a1.4 1.4 0 0 0 0 2l4.7 4.62zm-8.05 4.82a1.4 1.4 0 0 0 1-.41l2.49-2.49.17.17a1.414 1.414 0 0 0 2-2l-2.32-2.32a1.414 1.414 0 0 0-2 2l.17.17-2.49 2.49a1.4 1.4 0 0 0 1 2.39h-.02zM14.4 35a1.4 1.4 0 0 0 2 0l3.91-3.91L24.22 35a1.414 1.414 0 1 0 2-2l-3.91-3.91 3.91-3.91a1.414 1.414 0 1 0-2-2l-3.91 3.91-3.91-3.91a1.414 1.414 0 0 0-2 2l3.91 3.91L14.4 33a1.4 1.4 0 0 0 0 2zm60.82 5.39h-61a1.4 1.4 0 0 0 0 2.8h61a1.4 1.4 0 0 0 0-2.8z"/></g></g><path fill="#333" fill-rule="nonzero" d="M568.29 291.18h-51.37a5.73 5.73 0 0 0-5.73 5.73v44.83a5.73 5.73 0 0 0 5.73 5.73h13.29l12.4 12.4 12.4-12.4h13.29a5.73 5.73 0 0 0 5.73-5.73V296.9a5.73 5.73 0 0 0-5.74-5.72z"/><path fill="red" fill-rule="nonzero" d="M545.26 320.59l5.88-5.88a1.88 1.88 0 1 0-2.66-2.66l-5.88 5.88-5.88-5.88a1.88 1.88 0 1 0-2.66 2.66l5.88 5.88-5.88 5.88a1.88 1.88 0 1 0 2.66 2.66l5.88-5.88 5.88 5.88a1.88 1.88 0 1 0 2.66-2.66l-5.88-5.88z"/></g></svg>