<svg xmlns="http://www.w3.org/2000/svg" viewBox="0 0 960 900"><g data-name="Background2"><path fill="none" stroke="#75adf4" stroke-miterlimit="10" stroke-width="2" d="M89.65 631.43l182.48-120.41M99.81 637.77l182.48-120.41M109.97 644.11L292.45 523.7M120.12 650.45L302.6 530.04M130.28 656.79l182.48-120.41M140.44 663.13l182.48-120.41M150.6 669.47l182.48-120.41M160.76 675.81L343.24 555.4M170.92 682.15L353.4 561.74M181.08 688.5l182.48-120.42M191.24 694.84l182.48-120.41M201.4 701.18l182.48-120.41M211.56 707.52l182.48-120.41M221.71 713.86l182.48-120.41M231.87 720.2l182.48-120.41M242.03 726.54l182.48-120.41M252.19 732.88l182.48-120.41M262.35 739.22l182.48-120.41M272.51 745.56l182.48-120.41M282.67 751.9l182.48-120.41M292.83 758.24l182.48-120.41M302.99 764.59l182.48-120.42M313.15 770.93l182.48-120.41M323.3 777.27l182.48-120.41M333.46 783.61L515.94 663.2M343.62 789.95L526.1 669.54M353.78 796.29l182.48-120.41M363.94 802.63l182.48-120.41M374.1 808.97l182.48-120.41M384.26 815.31L566.74 694.9M394.42 821.65L576.9 701.24M404.58 827.99l182.48-120.41M414.74 834.33l182.48-120.41M424.89 840.68l182.48-120.42"/><path d="M650.05 762.47l-157.64 104c-16.1 10.63-41.94 11.26-57.71 1.42L53.84 630.28c-15.77-9.84-15.5-26.43.6-37.06l157.64-104c16.1-10.63 41.94-11.26 57.71-1.41l380.86 237.6c15.78 9.84 15.51 26.44-.6 37.06z" fill="none" stroke="#215a92" stroke-linecap="round" stroke-linejoin="round" stroke-width="2"/><path fill="none" stroke="#215a92" stroke-linecap="round" stroke-linejoin="round" stroke-width="3" d="M607.48 719.95L425 840.36 89.75 631.12 272.24 510.7l335.24 209.25z"/><path d="M662.31 766.42c0 6.78-4.11 13.68-12.26 19.05l-157.64 104c-16.1 10.63-41.94 11.26-57.71 1.42L53.84 653.28c-7.57-4.72-11.44-11-11.65-17.43m125.57-86.24l-17.99 11.86" fill="none" stroke="#215a92" stroke-linecap="round" stroke-linejoin="round" stroke-width="2"/><ellipse cx="544.26" cy="798.34" rx="24.53" ry="15.72" transform="rotate(-3.03 544.716 798.95)" fill="none" stroke="#215a92" stroke-linecap="round" stroke-linejoin="round" stroke-width="2"/><ellipse cx="137.23" cy="569.75" rx="3.12" ry="2" transform="rotate(-3.03 137.4 570.237)" fill="#215a92"/><path fill="none" stroke="#215a92" stroke-linecap="round" stroke-linejoin="round" stroke-width="2" d="M42.19 612.6l.01 23.25m620.1 106.32l.01 24.25"/><path fill="#75adf4" opacity=".7" d="M608.37 537.06L425.89 657.47 90.65 448.23l182.48-120.42 335.24 209.25z"/><path fill="none" stroke="#75adf4" stroke-miterlimit="10" stroke-width="2" d="M608.37 537.06L425.89 657.47 90.65 448.23l182.48-120.42 335.24 209.25z"/><path d="M727.48 753.59v6h-4.85v-23h8c6.11 0 9.7 3 9.7 8.34 0 5.55-3.59 8.65-9.7 8.65zm0-13.25v9.51h2.21c3.71 0 5.71-1.46 5.71-4.91 0-3.2-2-4.6-5.71-4.6zm18.79-3.74H755c7 0 11.16 3.93 11.16 11.44S762 759.58 755 759.58h-8.71zm4.84 3.81v15.37H754c4.53 0 7.13-2 7.13-7.74s-2.57-7.63-7.13-7.63zM777.26 751v8.62h-4.85v-23h15.24v4h-10.39v6.53h9.35V751zm21.29-2.35v10.93h-4.85v-23h4.85v11.32l8.65-11.32h5.61l-9.13 11.6 9.58 11.38h-5.93zm21.29-14.01a2.72 2.72 0 1 1-2.91 2.72 2.67 2.67 0 0 1 2.91-2.72zm-2.31 7.41h4.63v17.53h-4.63zM835.24 760c-3.39 0-5.73-1.61-5.73-5.51v-8.89h-2.57v-3.2l2.57-.35v-3l4.66-.76v3.73h5.61v3.55h-5.61v8.15c0 2 .79 2.53 2.56 2.53a12.06 12.06 0 0 0 2.95-.47l.73 3.3a15.85 15.85 0 0 1-5.17.92zm-106.08 27.92h-5.64l-1.26 3.66h-2.44l5.36-14.5h2.42l5.34 14.5h-2.5zm-2.84-8.18l-2.14 6.26h4.32zm11.86 14.84H736v-14h2a10.63 10.63 0 0 0 .16 1.42 5.46 5.46 0 0 1 4-1.66c2.58 0 4.3 1.72 4.3 5.52s-2.08 6-4.8 6a5.91 5.91 0 0 1-3.42-1.12zm3-4.74c1.88 0 3-1.32 3-4 0-2.38-1-3.52-2.82-3.52a4.81 4.81 0 0 0-3.16 1.44v5.1a5.26 5.26 0 0 0 2.98.98zm11.26 4.74h-2.2v-14h2a10.63 10.63 0 0 0 .16 1.42 5.46 5.46 0 0 1 4-1.66c2.58 0 4.3 1.72 4.3 5.52s-2.08 6-4.8 6a5.91 5.91 0 0 1-3.42-1.12zm3-4.74c1.88 0 3-1.32 3-4 0-2.38-1-3.52-2.82-3.52a4.81 4.81 0 0 0-3.16 1.44v5.1a5.26 5.26 0 0 0 2.98.98zm9.06-13.26h2.2v15h-2.2zm11.78 15.24c-3.56 0-5.74-2.1-5.74-5.74 0-3.38 2.14-5.76 5.24-5.76s4.86 2 4.86 5.26a7.05 7.05 0 0 1-.1 1.24h-7.72c.24 2.08 1.42 3.08 3.64 3.08a7.66 7.66 0 0 0 3.06-.74l.68 1.7a9.07 9.07 0 0 1-3.92.96zm-3.44-6.7h5.64c-.14-2.1-1.22-2.94-2.76-2.94s-2.64.96-2.88 2.94zm28.16-8.04h2.22v14.5h-2.08L793.4 781v10.62h-2.22v-14.5h2.08L801 787.7zm13.7 7.92a2.4 2.4 0 0 0-2.7-2.7 9 9 0 0 0-3.34.66l-.56-1.7a11.21 11.21 0 0 1 4.26-.92c3.12 0 4.56 1.64 4.56 4.42v6.82H815l-.18-1.3a5.15 5.15 0 0 1-3.64 1.54c-2.38 0-3.68-1.44-3.68-3.26 0-2 1.62-3.38 4.54-3.38a16 16 0 0 1 2.7.26zm-2.28 1.82c-2 0-2.72.76-2.72 1.62s.54 1.46 1.88 1.46a4.94 4.94 0 0 0 3.12-1.32V787a15.29 15.29 0 0 0-2.28-.16zm12.76 5c-2 0-3.32-1-3.32-3.18v-6.26h-1.77v-1.6l1.77-.22v-1.9l2.2-.36v2.26h3.66v1.82h-3.66v5.84c0 1.3.56 1.68 1.78 1.68a8.73 8.73 0 0 0 1.94-.3l.42 1.72a8.93 8.93 0 0 1-3.02.5zm7.22-15.48a1.39 1.39 0 1 1-1.46 1.4 1.35 1.35 0 0 1 1.46-1.4zm-1.1 4.22h2.2v11h-2.2zm9.46 11.02l-4.33-11h2.39l3.2 8.66 3.14-8.66h2.34l-4.32 11zm14.5.24c-3.56 0-5.75-2.1-5.75-5.74 0-3.38 2.15-5.76 5.25-5.76s4.86 2 4.86 5.26a7.05 7.05 0 0 1-.1 1.24h-7.73c.25 2.08 1.43 3.08 3.65 3.08a7.66 7.66 0 0 0 3.06-.74l.68 1.7a9.07 9.07 0 0 1-3.92.96zm-3.44-6.7h5.64c-.14-2.1-1.22-2.94-2.76-2.94s-2.64.96-2.88 2.94zm17.85 4.02a12.19 12.19 0 0 0 3.87.72c2.44 0 3.48-.78 3.48-2s-.78-1.9-3.4-2.6c-3.12-.84-4.43-2.22-4.43-4.28 0-2.3 2-4.12 5.35-4.12a12.69 12.69 0 0 1 4.16.72l-.5 1.86a11.33 11.33 0 0 0-3.54-.62c-2.2 0-3.19.84-3.19 2s.91 1.92 3.21 2.52c3.38.88 4.66 2.26 4.66 4.42 0 2.4-1.94 4.08-5.44 4.08a13.73 13.73 0 0 1-4.75-.8zm17.43 2.68c-2.25 0-3.87-1.22-3.87-4.08v-7.18h2.2v6.82c0 1.72.73 2.44 2.15 2.44a5.89 5.89 0 0 0 3.44-1.26v-8h2.2v11h-1.86l-.24-1.22a6.94 6.94 0 0 1-4.02 1.48zm12.99 2.76h-2.2v-14h2A9.22 9.22 0 0 0 900 782a5.47 5.47 0 0 1 4-1.66c2.58 0 4.3 1.72 4.3 5.52s-2.08 6-4.8 6a5.94 5.94 0 0 1-3.43-1.12zm3-4.74c1.88 0 3-1.32 3-4 0-2.38-1-3.52-2.83-3.52a4.85 4.85 0 0 0-3.16 1.44v5.1a5.3 5.3 0 0 0 3 .98zm11.26 4.74h-2.2v-14h2a10.63 10.63 0 0 0 .16 1.42 5.47 5.47 0 0 1 4-1.66c2.58 0 4.3 1.72 4.3 5.52s-2.08 6-4.8 6a5.92 5.92 0 0 1-3.43-1.12zm3-4.74c1.88 0 3-1.32 3-4 0-2.38-1-3.52-2.83-3.52a4.83 4.83 0 0 0-3.16 1.44v5.1a5.27 5.27 0 0 0 3 .98zm13.65-9.52c3.29 0 5.41 2.28 5.41 5.7s-2.12 5.8-5.41 5.8-5.42-2.32-5.42-5.8 2.11-5.7 5.42-5.7zm0 9.6c2 0 3.17-1.4 3.17-3.9S933 782.2 931 782.2s-3.18 1.42-3.18 3.82 1.18 3.9 3.18 3.9zm14.24-9.6a3.28 3.28 0 0 1 1.68.44l-.6 2a3.62 3.62 0 0 0-1.28-.24 3 3 0 0 0-2.61 2.1v7h-2.2v-11h1.94a14.52 14.52 0 0 0 .2 1.72 3.08 3.08 0 0 1 2.87-2.02zm8.29 11.5c-2 0-3.32-1-3.32-3.18v-6.26h-1.76v-1.6l1.76-.22v-1.9l2.2-.36v2.26h3.67v1.82h-3.67v5.84c0 1.3.56 1.68 1.78 1.68a8.64 8.64 0 0 0 1.94-.3l.42 1.72a8.93 8.93 0 0 1-3.02.5z" fill="#215a92"/><path d="M723.23 531.59v6h-4.85v-23h8c6.12 0 9.7 3 9.7 8.33 0 5.55-3.58 8.66-9.7 8.66zm0-13.25v9.51h2.22c3.71 0 5.71-1.46 5.71-4.92 0-3.2-2-4.59-5.71-4.59zM742 514.6h8.72c7 0 11.15 3.93 11.15 11.44s-4.15 11.54-11.15 11.54H742zm4.85 3.8v15.37h2.89c4.53 0 7.13-2 7.13-7.73s-2.57-7.64-7.13-7.64zM773 529v8.62h-4.84v-23h15.24v4H773v6.53h9.35V529zm24.16.78l-5 7.8h-5.35l7.79-11.73-7.45-11.25h5.55l4.88 7.35 4.75-7.35h5.3l-7.45 11.25 7.8 11.73h-5.61zm20.53-3.14v10.94h-4.85v-23h4.85v11.31l8.65-11.31H832l-9.12 11.6 9.57 11.38h-5.93zM839 512.63a2.72 2.72 0 1 1-2.92 2.73 2.67 2.67 0 0 1 2.92-2.73zm-2.32 7.42h4.63v17.53h-4.63zM854.39 538c-3.39 0-5.74-1.62-5.74-5.52v-8.88h-2.57v-3.2l2.57-.35v-3l4.66-.76v3.74h5.61v3.55h-5.61v8.14c0 2 .79 2.54 2.57 2.54a11.51 11.51 0 0 0 2.94-.48l.73 3.3a15.57 15.57 0 0 1-5.16.92z" fill="#6ba4f4"/><path d="M717.57 555.07h5c4.42 0 7.06 2.42 7.06 7.2s-2.64 7.31-7.06 7.31h-5zm2.29 1.92v10.67h2.28c3.18 0 5.14-1.41 5.14-5.39s-1.94-5.28-5.14-5.28zm18.8 1.32a3.22 3.22 0 0 1 1.67.44l-.59 2a3.62 3.62 0 0 0-1.28-.24 3 3 0 0 0-2.61 2.1v7h-2.2v-11h1.94a14.52 14.52 0 0 0 .2 1.72 3.08 3.08 0 0 1 2.87-2.02zm9.03 0c3.29 0 5.41 2.28 5.41 5.7s-2.12 5.81-5.41 5.81-5.42-2.32-5.42-5.81 2.12-5.7 5.42-5.7zm0 9.61c2 0 3.17-1.4 3.17-3.91s-1.19-3.82-3.17-3.82-3.18 1.42-3.18 3.82 1.18 3.91 3.18 3.91zm11.44 4.66h-2.2v-14h2a9.22 9.22 0 0 0 .15 1.42 5.47 5.47 0 0 1 4-1.66c2.58 0 4.3 1.72 4.3 5.52s-2.08 6-4.8 6a5.94 5.94 0 0 1-3.43-1.12zm3-4.74c1.89 0 3-1.32 3-4 0-2.38-1-3.52-2.83-3.52a4.85 4.85 0 0 0-3.16 1.44v5.1a5.29 5.29 0 0 0 2.99.98zm8.52-5.13h5.52v1.92h-5.52zm10.76-8.38a1.39 1.39 0 1 1-1.46 1.4 1.36 1.36 0 0 1 1.46-1.4zm-1.1 4.22h2.2v11h-2.2zm13.25-.24c2.12 0 3.78 1.28 3.78 4v7.29h-2.2v-6.73c0-1.7-.78-2.54-2.31-2.54a5.47 5.47 0 0 0-3.44 1.46v7.81h-2.2v-11h2a10.63 10.63 0 0 0 .16 1.42 6 6 0 0 1 4.21-1.71zm20.21 6.26h-2.86v5h-2.28v-14.5H813c3.87 0 6 1.72 6 4.64a4.27 4.27 0 0 1-3 4.42l3.6 5.45H817zm-2.86-7.57v5.66h2.58c2 0 3.17-.94 3.17-2.94 0-1.74-1.33-2.72-4.07-2.72zm17.22 12.82c-3.56 0-5.74-2.1-5.74-5.75 0-3.38 2.14-5.76 5.24-5.76s4.87 2 4.87 5.26a6.12 6.12 0 0 1-.11 1.24h-7.72c.24 2.08 1.42 3.09 3.64 3.09a7.75 7.75 0 0 0 3.07-.74l.67 1.7a9.07 9.07 0 0 1-3.92.96zm-3.44-6.71h5.64c-.14-2.1-1.22-2.94-2.76-2.94s-2.64.96-2.88 2.94zm13.78 9.47h-2.2v-14h2a10.63 10.63 0 0 0 .16 1.42 5.46 5.46 0 0 1 4-1.66c2.58 0 4.31 1.72 4.31 5.52s-2.08 6-4.81 6a5.91 5.91 0 0 1-3.42-1.12zm3-4.74c1.88 0 3-1.32 3-4 0-2.38-1-3.52-2.83-3.52a4.81 4.81 0 0 0-3.16 1.44v5.1a5.27 5.27 0 0 0 2.99.98zm9.06-13.27h2.2v15h-2.2zm13.28 8.43a2.4 2.4 0 0 0-2.72-2.72 9 9 0 0 0-3.34.66l-.56-1.7a11.21 11.21 0 0 1 4.26-.92c3.12 0 4.56 1.64 4.56 4.42v6.83h-1.94l-.18-1.3a5.15 5.15 0 0 1-3.64 1.54c-2.38 0-3.68-1.44-3.68-3.26 0-2 1.62-3.39 4.54-3.39a16 16 0 0 1 2.7.26zm-2.28 1.82c-2 0-2.72.76-2.72 1.63s.54 1.46 1.88 1.46a5 5 0 0 0 3.12-1.32V565a15.29 15.29 0 0 0-2.28-.17zm13.64-6.51a10.56 10.56 0 0 1 3.48.68l-.54 1.8a7.38 7.38 0 0 0-2.7-.52c-2.16 0-3.46 1.28-3.46 3.78s1.3 3.81 3.46 3.81a7.34 7.34 0 0 0 2.7-.51l.54 1.81a9.89 9.89 0 0 1-3.48.66c-3.4 0-5.46-2.14-5.46-5.77s2.06-5.74 5.46-5.74zm11.92 11.51c-3.56 0-5.74-2.1-5.74-5.75 0-3.38 2.14-5.76 5.24-5.76s4.87 2 4.87 5.26a6.12 6.12 0 0 1-.11 1.24h-7.72c.24 2.08 1.42 3.09 3.64 3.09a7.66 7.66 0 0 0 3.06-.74l.68 1.7a9.07 9.07 0 0 1-3.92.96zm-3.44-6.71h5.64c-.14-2.1-1.22-2.94-2.76-2.94s-2.64.96-2.88 2.94zm17.78-4.8a3.31 3.31 0 0 1 3.2 1.94 6.18 6.18 0 0 1 4.41-1.94c2 0 3.6 1.28 3.6 4v7.29h-2.2v-6.73c0-1.7-.73-2.54-2.13-2.54a5.18 5.18 0 0 0-3.3 1.46 4.52 4.52 0 0 1 0 .52v7.29h-2.2v-6.73c0-1.7-.72-2.54-2.12-2.54a5.14 5.14 0 0 0-3.28 1.46v7.81h-2.2v-11h2a10.63 10.63 0 0 0 .16 1.42 5.68 5.68 0 0 1 4.06-1.71zm20.64 11.51c-3.56 0-5.74-2.1-5.74-5.75 0-3.38 2.14-5.76 5.24-5.76s4.86 2 4.86 5.26a7.05 7.05 0 0 1-.1 1.24h-7.72c.24 2.08 1.42 3.09 3.64 3.09a7.66 7.66 0 0 0 3.06-.74l.68 1.7a9.07 9.07 0 0 1-3.92.96zm-3.44-6.71h5.64c-.14-2.1-1.22-2.94-2.76-2.94s-2.64.96-2.88 2.94zm17.94-4.8c2.12 0 3.78 1.28 3.78 4v7.29h-2.2v-6.73c0-1.7-.78-2.54-2.3-2.54a5.45 5.45 0 0 0-3.44 1.46v7.81h-2.2v-11h2a10.63 10.63 0 0 0 .16 1.42 6 6 0 0 1 4.2-1.71zm12.06 11.51c-2 0-3.32-1-3.32-3.18v-6.27h-1.76v-1.6l1.76-.22v-1.9l2.2-.36v2.26h3.66v1.82h-3.66v5.84c0 1.31.56 1.69 1.78 1.69a8.73 8.73 0 0 0 1.94-.3l.42 1.72a8.93 8.93 0 0 1-3.02.5z" fill="#4879b8"/><path d="M723.23 360.65v6h-4.85v-23h8c6.12 0 9.7 3 9.7 8.34 0 5.55-3.58 8.65-9.7 8.65zm0-13.25v9.51h2.22c3.71 0 5.71-1.46 5.71-4.91 0-3.2-2-4.6-5.71-4.6zm18.38 14.6a19.93 19.93 0 0 0 6.15 1.11c3.36 0 4.72-.95 4.72-2.54s-1-2.5-4.72-3.45c-5-1.33-7.1-3.71-7.1-6.94 0-3.87 3.26-6.88 9-6.88a22.82 22.82 0 0 1 7 1.17l-1 3.81a19 19 0 0 0-5.7-1c-3.05 0-4.35 1-4.35 2.53s1.21 2.5 4.54 3.33c5.48 1.36 7.51 3.71 7.51 7.22 0 4-3.14 6.72-9.22 6.72a25.62 25.62 0 0 1-7.77-1.23zm27.09-1.35v6h-4.84v-23h8c6.11 0 9.69 3 9.69 8.34 0 5.55-3.58 8.65-9.69 8.65zm0-13.25v9.51h2.22c3.71 0 5.71-1.46 5.71-4.91 0-3.2-2-4.6-5.71-4.6zm18.79-3.74h8.72c7 0 11.16 3.93 11.16 11.44s-4.16 11.54-11.16 11.54h-8.72zm4.85 3.81v15.37h2.89c4.53 0 7.13-2 7.13-7.74s-2.57-7.63-7.13-7.63zM818.49 358v8.62h-4.85v-23h15.24v4h-10.39v6.53h9.34V358zm21.29-2.29v10.93h-4.85v-23h4.85V355l8.65-11.32H854l-9.13 11.6 9.57 11.38h-5.92zm21.29-14.01a2.72 2.72 0 1 1-2.91 2.72 2.67 2.67 0 0 1 2.91-2.72zm-2.31 7.42h4.63v17.52h-4.63zm17.71 17.93c-3.39 0-5.73-1.61-5.73-5.51v-8.88h-2.57v-3.2l2.57-.34v-3l4.65-.76v3.74H881v3.54h-5.61v8.15c0 2 .8 2.54 2.57 2.54a12.05 12.05 0 0 0 2.95-.48l.73 3.3a16 16 0 0 1-5.17.9zM717.09 396.2a12.19 12.19 0 0 0 3.87.72c2.44 0 3.48-.78 3.48-2s-.78-1.9-3.4-2.6c-3.12-.84-4.43-2.22-4.43-4.28 0-2.3 2-4.12 5.35-4.12a12.69 12.69 0 0 1 4.16.72l-.5 1.86a11.33 11.33 0 0 0-3.54-.62c-2.2 0-3.19.84-3.19 2s.9 1.92 3.21 2.52c3.38.88 4.66 2.26 4.66 4.42 0 2.4-1.94 4.08-5.44 4.08a13.69 13.69 0 0 1-4.75-.8zm17.43 2.68c-2.25 0-3.87-1.22-3.87-4.08v-7.18h2.2v6.82c0 1.72.73 2.44 2.15 2.44a5.89 5.89 0 0 0 3.44-1.26v-8h2.2v11h-1.86l-.24-1.22a6.94 6.94 0 0 1-4.02 1.48zm12.99 2.76h-2.2v-14h2a10.63 10.63 0 0 0 .16 1.42 5.47 5.47 0 0 1 4-1.66c2.58 0 4.3 1.72 4.3 5.52s-2.08 6-4.8 6a5.92 5.92 0 0 1-3.43-1.12zm3-4.74c1.88 0 3-1.32 3-4 0-2.38-1-3.52-2.83-3.52a4.85 4.85 0 0 0-3.16 1.44v5.1a5.27 5.27 0 0 0 3 .98zm11.26 4.74h-2.2v-14h2a10.63 10.63 0 0 0 .16 1.42 5.47 5.47 0 0 1 4-1.66c2.58 0 4.3 1.72 4.3 5.52s-2.08 6-4.8 6a5.92 5.92 0 0 1-3.43-1.12zm3-4.74c1.88 0 3-1.32 3-4 0-2.38-1-3.52-2.83-3.52a4.81 4.81 0 0 0-3.16 1.44v5.1a5.27 5.27 0 0 0 3 .98zm13.65-9.52c3.28 0 5.4 2.28 5.4 5.7s-2.12 5.8-5.4 5.8-5.43-2.32-5.43-5.8 2.13-5.7 5.43-5.7zm0 9.6c2 0 3.16-1.4 3.16-3.9s-1.18-3.82-3.16-3.82-3.19 1.42-3.19 3.82 1.19 3.92 3.19 3.92zm14.24-9.6a3.22 3.22 0 0 1 1.67.44l-.59 2a3.62 3.62 0 0 0-1.28-.24 3 3 0 0 0-2.61 2.1v7h-2.2v-11h1.94a14.52 14.52 0 0 0 .2 1.72 3.08 3.08 0 0 1 2.87-2.02zm8.34 11.5c-2 0-3.32-1-3.32-3.18v-6.26h-1.76v-1.6l1.76-.22v-1.9l2.2-.36v2.26h3.67v1.82h-3.67v5.84c0 1.3.56 1.68 1.78 1.68a8.64 8.64 0 0 0 1.94-.3l.42 1.72a8.93 8.93 0 0 1-3.02.5zm11 0c-3.56 0-5.74-2.1-5.74-5.74 0-3.38 2.14-5.76 5.24-5.76s4.87 2 4.87 5.26a7.05 7.05 0 0 1-.1 1.24h-7.73c.24 2.08 1.42 3.08 3.65 3.08a7.66 7.66 0 0 0 3.06-.74l.68 1.7a9.08 9.08 0 0 1-3.93.96zm-3.44-6.7h5.65c-.14-2.1-1.22-2.94-2.76-2.94s-2.68.96-2.92 2.94zm18.94-8.54h2.2v15h-1.9l-.24-1.4a5.57 5.57 0 0 1-3.93 1.64c-2.64 0-4.36-1.72-4.36-5.52s2.08-6 4.74-6a5.69 5.69 0 0 1 3.49 1.14zm-3 5.72c-1.89 0-3 1.32-3 4 0 2.38 1 3.52 2.82 3.52a4.8 4.8 0 0 0 3.17-1.44v-5.08a5.1 5.1 0 0 0-2.99-1zm23.77 5.64h-5.64l-1.26 3.66h-2.44l5.36-14.5h2.42l5.35 14.5h-2.51zm-2.84-8.18l-2.14 6.26h4.32zm11.86 14.82h-2.2v-14h2a10.63 10.63 0 0 0 .16 1.42 5.46 5.46 0 0 1 4-1.66c2.58 0 4.31 1.72 4.31 5.52s-2.08 6-4.81 6a5.91 5.91 0 0 1-3.42-1.12zm3-4.74c1.88 0 3-1.32 3-4 0-2.38-1-3.52-2.83-3.52a4.81 4.81 0 0 0-3.16 1.44v5.1a5.26 5.26 0 0 0 2.99.98zm11.26 4.74h-2.2v-14h2a10.63 10.63 0 0 0 .16 1.42 5.46 5.46 0 0 1 4-1.66c2.58 0 4.31 1.72 4.31 5.52s-2.08 6-4.81 6a5.91 5.91 0 0 1-3.42-1.12zm3-4.74c1.88 0 3-1.32 3-4 0-2.38-1-3.52-2.83-3.52a4.81 4.81 0 0 0-3.16 1.44v5.1a5.26 5.26 0 0 0 2.99.98z" fill="#4b5056"/><path fill="#4b5056" opacity=".1" d="M607.48 365.5L425 485.91 89.75 276.66l182.49-120.41L607.48 365.5z"/><path fill="none" stroke="#4b5056" stroke-miterlimit="10" stroke-width="2" opacity=".25" d="M607.48 365.5L425 485.91 89.75 276.66l182.49-120.41L607.48 365.5z"/><path fill="none" stroke="#75adf4" stroke-linecap="round" stroke-linejoin="round" stroke-width="3" d="M90.83.5h0"/><path fill="none" stroke="#75adf4" stroke-linecap="round" stroke-linejoin="round" stroke-width="3" stroke-dasharray="0 10.05" d="M90.83 10.55l-.49 608.17"/><path fill="none" stroke="#75adf4" stroke-linecap="round" stroke-linejoin="round" stroke-width="3" d="M90.33 623.75h0M607.33.5h0"/><path fill="none" stroke="#75adf4" stroke-linecap="round" stroke-linejoin="round" stroke-width="3" stroke-dasharray="0 10.03" d="M607.33 10.53l-.49 697.2"/><path fill="none" stroke="#75adf4" stroke-linecap="round" stroke-linejoin="round" stroke-width="3" d="M606.83 712.75h0M272.18 0h0"/><path fill="none" stroke="#75adf4" stroke-linecap="round" stroke-linejoin="round" stroke-width="3" stroke-dasharray="0 9.96" d="M272.17 9.96l-.48 492.81"/><path fill="none" stroke="#75adf4" stroke-linecap="round" stroke-linejoin="round" stroke-width="3" d="M271.68 507.75h0M425.83.5h0"/><path fill="none" stroke="#75adf4" stroke-linecap="round" stroke-linejoin="round" stroke-width="3" stroke-dasharray="0 10" d="M425.83 10.5l-.49 815.25"/><path fill="none" stroke="#75adf4" stroke-linecap="round" stroke-linejoin="round" stroke-width="3" d="M425.33 830.75h0"/></g></svg>