<svg xmlns="http://www.w3.org/2000/svg" xmlns:xlink="http://www.w3.org/1999/xlink" viewBox="0 0 960 550"><defs><clipPath id="b"><path fill="#c3cfd6" d="M257.43 521.03L50.67 400.75l234.22-133.59 209.55 117.16-237.01 136.71z"/></clipPath><clipPath id="c"><path fill="#c3cfd8" d="M772.44 228.95L566.31 110.14l154.6-89.1 206.13 118.8-154.6 89.11z"/></clipPath><linearGradient id="a" x1="474.13" y1="238.19" x2="511.31" y2="201.02" gradientUnits="userSpaceOnUse"><stop offset="0" stop-color="#fff" stop-opacity="0"/><stop offset=".8" stop-color="#fff"/></linearGradient><linearGradient id="d" x1="531.77" y1="205.5" x2="496.79" y2="240.47" xlink:href="#a"/></defs><g data-name="Layer 6"><path fill="#807ed3" d="M309.01 333l389.04-223.67M309 334.5h-.29l-.28-.08-.26-.14-.22-.19a1.06 1.06 0 0 1-.19-.23 1.65 1.65 0 0 1-.23-.54 2.71 2.71 0 0 1 0-.29 1.5 1.5 0 0 1 .44-1.06l.22-.19a1.93 1.93 0 0 1 .54-.22 1.51 1.51 0 0 1 1.36.41 1.27 1.27 0 0 1 .18.23 1.33 1.33 0 0 1 .14.26 1.29 1.29 0 0 1 .09.28 1.32 1.32 0 0 1 0 .29 1.5 1.5 0 0 1-1.51 1.5zm7.35-5.72a1.5 1.5 0 0 1 .55-2 1.51 1.51 0 0 1 2.05.55 1.5 1.5 0 0 1-.55 2.05 1.45 1.45 0 0 1-.74.2 1.52 1.52 0 0 1-1.31-.8zm8.65-5a1.49 1.49 0 0 1 .55-2.05 1.5 1.5 0 0 1 2 .55 1.5 1.5 0 0 1-.56 2 1.42 1.42 0 0 1-.74.2 1.49 1.49 0 0 1-1.25-.67zm8.64-5a1.51 1.51 0 0 1 .55-2 1.5 1.5 0 0 1 2 .55 1.5 1.5 0 0 1-.55 2.05 1.43 1.43 0 0 1-.75.2 1.5 1.5 0 0 1-1.25-.74zm8.65-5a1.49 1.49 0 0 1 .55-2.05 1.5 1.5 0 0 1 2 .55 1.5 1.5 0 0 1-.56 2 1.53 1.53 0 0 1-.74.2 1.49 1.49 0 0 1-1.25-.61zm8.64-5a1.51 1.51 0 0 1 .55-2 1.5 1.5 0 0 1 2 .55 1.49 1.49 0 0 1-.55 2 1.56 1.56 0 0 1-.75.2 1.5 1.5 0 0 1-1.25-.63zm8.65-5a1.49 1.49 0 0 1 .55-2 1.5 1.5 0 0 1 2 .55 1.5 1.5 0 0 1-.56 2.05 1.53 1.53 0 0 1-.74.2 1.49 1.49 0 0 1-1.25-.65zm8.64-5a1.5 1.5 0 0 1 .56-2 1.48 1.48 0 0 1 2 .55 1.49 1.49 0 0 1-.55 2 1.52 1.52 0 0 1-.74.2 1.51 1.51 0 0 1-1.27-.58zm8.65-5a1.49 1.49 0 0 1 .55-2 1.49 1.49 0 0 1 2 .55 1.51 1.51 0 0 1-.55 2.05 1.59 1.59 0 0 1-.75.2 1.49 1.49 0 0 1-1.25-.58zm8.64-5a1.51 1.51 0 0 1 .56-2 1.51 1.51 0 0 1 2.05.56 1.51 1.51 0 0 1-.56 2 1.52 1.52 0 0 1-.74.2 1.51 1.51 0 0 1-1.31-.54zm8.65-5a1.5 1.5 0 0 1 .55-2.05 1.5 1.5 0 0 1 2 .56 1.51 1.51 0 0 1-.55 2.05 1.59 1.59 0 0 1-.75.2 1.49 1.49 0 0 1-1.25-.54zm8.65-5a1.49 1.49 0 0 1 .55-2 1.51 1.51 0 0 1 2.05.56 1.51 1.51 0 0 1-.56 2 1.51 1.51 0 0 1-.74.19 1.49 1.49 0 0 1-1.3-.46zm8.64-5A1.51 1.51 0 0 1 412 272a1.5 1.5 0 0 1 2 .56 1.51 1.51 0 0 1-.55 2 1.55 1.55 0 0 1-.75.19 1.5 1.5 0 0 1-1.25-.65zm8.65-5a1.49 1.49 0 0 1 .55-2 1.51 1.51 0 0 1 2.05.56 1.5 1.5 0 0 1-.56 2 1.42 1.42 0 0 1-.74.2 1.49 1.49 0 0 1-1.3-.41zm8.64-5a1.51 1.51 0 0 1 .55-2 1.51 1.51 0 0 1 2 .55 1.49 1.49 0 0 1-.55 2.05 1.46 1.46 0 0 1-.75.2 1.5 1.5 0 0 1-1.25-.42zm8.65-5a1.49 1.49 0 0 1 .55-2 1.51 1.51 0 0 1 2 .55 1.49 1.49 0 0 1-.56 2 1.42 1.42 0 0 1-.74.2 1.49 1.49 0 0 1-1.25-.34zm8.64-5a1.51 1.51 0 0 1 .56-2 1.5 1.5 0 0 1 2 .55 1.49 1.49 0 0 1-.55 2.05 1.43 1.43 0 0 1-.74.2 1.52 1.52 0 0 1-1.3-.36zm8.65-5a1.5 1.5 0 0 1 .55-2.05 1.51 1.51 0 0 1 2 .55 1.51 1.51 0 0 1-.55 2 1.48 1.48 0 0 1-.75.2 1.5 1.5 0 0 1-1.25-.23zm8.64-5a1.51 1.51 0 0 1 .56-2 1.49 1.49 0 0 1 2 .55 1.49 1.49 0 0 1-.55 2.05 1.43 1.43 0 0 1-.74.2 1.52 1.52 0 0 1-1.27-.3zm8.65-5a1.5 1.5 0 0 1 .55-2.05 1.5 1.5 0 0 1 2 .55 1.51 1.51 0 0 1-.55 2 1.48 1.48 0 0 1-.75.2 1.5 1.5 0 0 1-1.22-.17zm8.65-5a1.5 1.5 0 0 1 .54-2 1.5 1.5 0 0 1 2 .55 1.49 1.49 0 0 1-.55 2.05 1.43 1.43 0 0 1-.74.2 1.49 1.49 0 0 1-1.25-.24zm8.64-5a1.5 1.5 0 0 1 .55-2.05 1.5 1.5 0 0 1 2 .55 1.5 1.5 0 0 1-.55 2 1.59 1.59 0 0 1-.75.2 1.5 1.5 0 0 1-1.25-.11zm8.65-5a1.49 1.49 0 0 1 .55-2 1.49 1.49 0 0 1 2 .55 1.49 1.49 0 0 1-.55 2 1.52 1.52 0 0 1-.74.2 1.49 1.49 0 0 1-1.26-.13zm8.64-5a1.51 1.51 0 0 1 .55-2 1.5 1.5 0 0 1 2 .55 1.5 1.5 0 0 1-.55 2.05 1.56 1.56 0 0 1-.75.2 1.5 1.5 0 0 1-1.25-.15zm8.64-5a1.49 1.49 0 0 1 .56-2 1.49 1.49 0 0 1 2 .55 1.51 1.51 0 0 1-.56 2 1.51 1.51 0 0 1-.74.2 1.51 1.51 0 0 1-1.26-.08zm8.65-5a1.49 1.49 0 0 1 .55-2 1.49 1.49 0 0 1 2 .55 1.5 1.5 0 0 1-.55 2.05 1.56 1.56 0 0 1-.75.2 1.49 1.49 0 0 1-1.25-.1zm8.65-5a1.5 1.5 0 0 1 .55-2 1.5 1.5 0 0 1 2 .56 1.51 1.51 0 0 1-.56 2 1.52 1.52 0 0 1-.74.2 1.48 1.48 0 0 1-1.25-.03zm8.64-5a1.51 1.51 0 0 1 .56-2.05 1.5 1.5 0 0 1 2 .56 1.5 1.5 0 0 1-.55 2.05 1.52 1.52 0 0 1-.74.2 1.51 1.51 0 0 1-1.27 0zm8.65-5a1.49 1.49 0 0 1 .55-2 1.49 1.49 0 0 1 2 .55 1.51 1.51 0 0 1-.55 2 1.59 1.59 0 0 1-.75.2 1.48 1.48 0 0 1-1.25.04zm8.64-5a1.5 1.5 0 0 1 .55-2 1.49 1.49 0 0 1 2 .55 1.48 1.48 0 0 1-.55 2 1.47 1.47 0 0 1-.75.21 1.5 1.5 0 0 1-1.25.06zm8.65-5a1.49 1.49 0 0 1 .55-2 1.49 1.49 0 0 1 2 .55 1.49 1.49 0 0 1-.55 2 1.48 1.48 0 0 1-.75.2 1.5 1.5 0 0 1-1.25.1zm8.64-5a1.51 1.51 0 0 1 .56-2 1.5 1.5 0 0 1 2 .55 1.49 1.49 0 0 1-.55 2.05 1.42 1.42 0 0 1-.74.2 1.52 1.52 0 0 1-1.27.08zm8.65-5a1.51 1.51 0 0 1 .55-2 1.51 1.51 0 0 1 2 .55 1.5 1.5 0 0 1-.55 2 1.48 1.48 0 0 1-.75.2 1.5 1.5 0 0 1-1.25.16zm8.64-5a1.5 1.5 0 0 1 .56-2 1.51 1.51 0 0 1 2 .55 1.5 1.5 0 0 1-.56 2.05 1.43 1.43 0 0 1-.74.2 1.52 1.52 0 0 1-1.26.14zm8.65-5a1.5 1.5 0 0 1 .55-2.05 1.5 1.5 0 0 1 2 .55 1.5 1.5 0 0 1-.55 2 1.46 1.46 0 0 1-.75.2 1.5 1.5 0 0 1-1.25.27zm8.65-5a1.49 1.49 0 0 1 .55-2 1.51 1.51 0 0 1 2 .55 1.5 1.5 0 0 1-.56 2.05 1.43 1.43 0 0 1-.74.2 1.49 1.49 0 0 1-1.25.2zm8.64-5a1.5 1.5 0 0 1 .56-2.05 1.49 1.49 0 0 1 2 .55 1.49 1.49 0 0 1-.55 2 1.48 1.48 0 0 1-.75.2 1.5 1.5 0 0 1-1.26.33zm8.65-5a1.49 1.49 0 0 1 .55-2 1.5 1.5 0 0 1 2 .55 1.51 1.51 0 0 1-.55 2.05 1.49 1.49 0 0 1-.75.2 1.49 1.49 0 0 1-1.25.26zm8.64-5a1.5 1.5 0 0 1 .56-2.05 1.49 1.49 0 0 1 2 .55 1.49 1.49 0 0 1-.55 2 1.45 1.45 0 0 1-.75.2 1.5 1.5 0 0 1-1.26.39zm8.65-5a1.49 1.49 0 0 1 .55-2 1.5 1.5 0 0 1 2 .55 1.5 1.5 0 0 1-.56 2 1.42 1.42 0 0 1-.74.2 1.49 1.49 0 0 1-1.25.37zm8.64-5a1.5 1.5 0 0 1 .55-2 1.49 1.49 0 0 1 2.05.55 1.49 1.49 0 0 1-.55 2.05 1.56 1.56 0 0 1-.75.2 1.49 1.49 0 0 1-1.3.34zm8.65-5a1.49 1.49 0 0 1 .55-2.05 1.49 1.49 0 0 1 2 .55 1.5 1.5 0 0 1-.55 2 1.59 1.59 0 0 1-.75.2 1.49 1.49 0 0 1-1.25.52zm8.64-5a1.5 1.5 0 0 1 .56-2 1.5 1.5 0 0 1 2 .55 1.5 1.5 0 0 1-.56 2.05 1.53 1.53 0 0 1-.75.2 1.51 1.51 0 0 1-1.25.42zm8.65-5a1.5 1.5 0 0 1 .54-.78 1.49 1.49 0 0 1 2 .55 1.5 1.5 0 0 1-.55 2 1.59 1.59 0 0 1-.75.2 1.5 1.5 0 0 1-1.24-.75zm8.65-5a1.49 1.49 0 0 1 .55-2 1.5 1.5 0 0 1 2 .55 1.51 1.51 0 0 1-.56 2.05 1.53 1.53 0 0 1-.75.2 1.49 1.49 0 0 1-1.24.42zm9.89-2.96a1.41 1.41 0 0 1-.29 0 1.7 1.7 0 0 1-.77-.41 2.16 2.16 0 0 1-.19-.23 1.28 1.28 0 0 1-.13-.26 1.43 1.43 0 0 1 0-1.15 1.28 1.28 0 0 1 .13-.26 2.16 2.16 0 0 1 .19-.23 1.52 1.52 0 0 1 1.35-.4 1.36 1.36 0 0 1 .54.22 1.37 1.37 0 0 1 .23.18 1.49 1.49 0 0 1 .33.49 2.74 2.74 0 0 1 .08.28 1.49 1.49 0 0 1 0 .3 1.52 1.52 0 0 1-.44 1.06 1 1 0 0 1-.23.18 1.31 1.31 0 0 1-.26.14 1.33 1.33 0 0 1-.28.09 1.37 1.37 0 0 1-.26 0zm.05 222.18L476.32 205.52M698 334.5a1.43 1.43 0 0 1-.29 0l-.28-.08-.26-.14a2.17 2.17 0 0 1-.23-.19 2.21 2.21 0 0 1-.19-.23 1.3 1.3 0 0 1-.13-.26 1.27 1.27 0 0 1-.09-.28 1.4 1.4 0 0 1 0-.58 1.91 1.91 0 0 1 .22-.54 2.11 2.11 0 0 1 .19-.23 2.17 2.17 0 0 1 .23-.19 1.24 1.24 0 0 1 .26-.13 1.31 1.31 0 0 1 .28-.09 1.42 1.42 0 0 1 .58 0 1.33 1.33 0 0 1 .28.09 1.24 1.24 0 0 1 .26.13 1.44 1.44 0 0 1 .23.19 1.51 1.51 0 0 1 .44 1.06 1.5 1.5 0 0 1-.44 1.06 1.44 1.44 0 0 1-.23.19l-.26.14-.28.08a1.36 1.36 0 0 1-.29 0zm-9.23-5.1a1.51 1.51 0 0 1-.55-2 1.49 1.49 0 0 1 2-.55 1.48 1.48 0 0 1 .55 2 1.48 1.48 0 0 1-1.3.76 1.59 1.59 0 0 1-.7-.21zm-8.52-4.9a1.51 1.51 0 0 1-.56-2.05 1.51 1.51 0 0 1 2-.56 1.51 1.51 0 0 1 .56 2 1.51 1.51 0 0 1-1.31.76 1.52 1.52 0 0 1-.69-.15zm-8.53-4.91a1.5 1.5 0 0 1-.56-2 1.52 1.52 0 0 1 2-.55 1.5 1.5 0 0 1 .56 2.05 1.52 1.52 0 0 1-1.31.75 1.42 1.42 0 0 1-.69-.25zm-8.53-4.9a1.5 1.5 0 0 1-.55-2 1.49 1.49 0 0 1 2-.55 1.5 1.5 0 0 1 .55 2 1.49 1.49 0 0 1-1.3.76 1.56 1.56 0 0 1-.7-.21zm-8.53-4.9a1.51 1.51 0 0 1-.55-2.05 1.51 1.51 0 0 1 2.05-.56 1.51 1.51 0 0 1 .55 2.05 1.49 1.49 0 0 1-1.3.76 1.59 1.59 0 0 1-.75-.2zm-8.53-4.91a1.51 1.51 0 0 1-.55-2 1.51 1.51 0 0 1 2-.55 1.5 1.5 0 0 1 .55 2.05 1.49 1.49 0 0 1-1.3.75 1.48 1.48 0 0 1-.7-.25zm-8.52-4.9a1.5 1.5 0 0 1-.56-2.05 1.5 1.5 0 0 1 2-.55 1.51 1.51 0 0 1 .56 2 1.51 1.51 0 0 1-1.3.75 1.53 1.53 0 0 1-.7-.13zm-8.53-4.9a1.5 1.5 0 0 1-.55-2.05 1.51 1.51 0 0 1 2.05-.56 1.5 1.5 0 0 1 .54 2.05 1.48 1.48 0 0 1-1.3.76 1.52 1.52 0 0 1-.74-.2zm-8.53-4.91a1.49 1.49 0 0 1-.55-2 1.5 1.5 0 0 1 2-.55 1.51 1.51 0 0 1 .56 2.05 1.5 1.5 0 0 1-1.3.75 1.46 1.46 0 0 1-.71-.25zm-8.53-4.9a1.5 1.5 0 0 1-.55-2.05 1.51 1.51 0 0 1 2-.55 1.5 1.5 0 0 1 .55 2 1.5 1.5 0 0 1-1.3.75 1.49 1.49 0 0 1-.72-.15zm-8.52-4.9a1.5 1.5 0 0 1-.56-2.05 1.49 1.49 0 0 1 2-.55 1.48 1.48 0 0 1 .55 2 1.49 1.49 0 0 1-1.3.76 1.52 1.52 0 0 1-.69-.16zm-8.5-4.91a1.5 1.5 0 0 1-.56-2.05 1.51 1.51 0 0 1 2-.55 1.49 1.49 0 0 1 .55 2 1.49 1.49 0 0 1-1.3.75 1.42 1.42 0 0 1-.69-.15zm-8.53-4.9a1.49 1.49 0 0 1-.55-2.05 1.5 1.5 0 0 1 2-.55 1.5 1.5 0 0 1 .56 2 1.52 1.52 0 0 1-1.31.75 1.43 1.43 0 0 1-.73-.15zm-8.53-4.9a1.49 1.49 0 0 1-.55-2 1.48 1.48 0 0 1 2-.55 1.49 1.49 0 0 1 .56 2 1.51 1.51 0 0 1-1.31.76 1.51 1.51 0 0 1-.73-.21zm-8.53-4.91a1.49 1.49 0 0 1-.55-2 1.5 1.5 0 0 1 2-.56 1.51 1.51 0 0 1 .55 2 1.48 1.48 0 0 1-1.3.75 1.46 1.46 0 0 1-.73-.19zm-8.53-4.9a1.5 1.5 0 0 1-.55-2.05 1.51 1.51 0 0 1 2-.55 1.49 1.49 0 0 1 .55 2 1.5 1.5 0 0 1-1.3.75 1.46 1.46 0 0 1-.73-.15zm-8.52-4.9a1.51 1.51 0 0 1-.56-2 1.5 1.5 0 0 1 2-.55 1.49 1.49 0 0 1 .55 2 1.49 1.49 0 0 1-1.3.75 1.51 1.51 0 0 1-.72-.2zM543.8 246a1.49 1.49 0 0 1-.56-2 1.5 1.5 0 0 1 2.05-.55 1.49 1.49 0 0 1 .56 2 1.51 1.51 0 0 1-1.31.76 1.44 1.44 0 0 1-.74-.21zm-8.53-4.9a1.49 1.49 0 0 1-.55-2.05 1.5 1.5 0 0 1 2-.55 1.51 1.51 0 0 1 .56 2 1.52 1.52 0 0 1-1.31.75 1.43 1.43 0 0 1-.7-.11zm-8.53-4.9a1.49 1.49 0 0 1-.55-2 1.5 1.5 0 0 1 2-.55 1.5 1.5 0 0 1 .55 2 1.5 1.5 0 0 1-1.3.75 1.56 1.56 0 0 1-.7-.16zm-8.53-4.9a1.51 1.51 0 0 1-.55-2 1.49 1.49 0 0 1 2-.55 1.49 1.49 0 0 1 .55 2 1.49 1.49 0 0 1-1.3.76 1.59 1.59 0 0 1-.7-.17zm-8.52-4.91a1.5 1.5 0 0 1-.56-2 1.51 1.51 0 0 1 2-.55 1.49 1.49 0 0 1 .55 2 1.49 1.49 0 0 1-1.3.75 1.42 1.42 0 0 1-.69-.16zm-8.53-4.9a1.5 1.5 0 0 1-.56-2 1.51 1.51 0 0 1 2-.55 1.49 1.49 0 0 1 .55 2.05 1.49 1.49 0 0 1-1.29.75 1.43 1.43 0 0 1-.7-.21zm-8.53-4.9a1.49 1.49 0 0 1-.55-2 1.48 1.48 0 0 1 2-.55 1.5 1.5 0 0 1 .56 2 1.51 1.51 0 0 1-1.31.76 1.56 1.56 0 0 1-.7-.17zm-8.53-4.91a1.48 1.48 0 0 1-.55-2 1.5 1.5 0 0 1 2-.56 1.5 1.5 0 0 1 .56 2 1.52 1.52 0 0 1-1.31.75 1.42 1.42 0 0 1-.7-.15zm-7.78-4.68a1.52 1.52 0 0 1-1.06-.44 2.21 2.21 0 0 1-.19-.23 1.3 1.3 0 0 1-.13-.26 1.34 1.34 0 0 1-.09-.28 1.4 1.4 0 0 1 0-.58 1.34 1.34 0 0 1 .09-.28 1.29 1.29 0 0 1 .13-.26 1.47 1.47 0 0 1 .19-.23 2.26 2.26 0 0 1 .23-.19l.26-.14.25-.11a1.42 1.42 0 0 1 .58 0l.28.08.26.14a2.17 2.17 0 0 1 .23.19 1.41 1.41 0 0 1 .19.23 2.07 2.07 0 0 1 .14.26 2.55 2.55 0 0 1 .08.28 1.45 1.45 0 0 1 0 .58 2.54 2.54 0 0 1-.08.28 1.54 1.54 0 0 1-.33.49 1.52 1.52 0 0 1-1.03.47z"/><path d="M.75 421.74L308.48 245.5a2.58 2.58 0 0 1 2.33 0L322 252l207.63 119.87-310.06 177.59L23 436l-11.12-6.42-11.13-6.49a.71.71 0 0 1 0-1.35z" fill="#8393a4" opacity=".25"/><path d="M.27 414.61l308.21-175.39a2.58 2.58 0 0 1 2.33 0l11.19 6.45L529.63 364v1.57l-310.06 177.6L23 429.68l-11.12-6.42L.75 416.8a.82.82 0 0 1-.48-.67v-1.52z" fill="#8393a4"/><path d="M.75 413.88l307.73-176.24a2.58 2.58 0 0 1 2.33 0L322 244.1 11.93 421.69.75 415.23a.71.71 0 0 1 0-1.35z" fill="#fff"/><path d="M16.06 414a1 1 0 0 0 0-1.84 3.52 3.52 0 0 0-3.18 0 1 1 0 0 0 0 1.84 3.52 3.52 0 0 0 3.18 0" fill="#00b737"/><path d="M22.21 410.47a1 1 0 0 0 0-1.84 3.52 3.52 0 0 0-3.18 0 1 1 0 0 0 0 1.84 3.52 3.52 0 0 0 3.18 0" fill="#f9cf18"/><path d="M28.36 406.92a1 1 0 0 0 0-1.84 3.52 3.52 0 0 0-3.18 0 1 1 0 0 0 0 1.84 3.52 3.52 0 0 0 3.18 0" fill="red"/><path fill="#c5ced8" d="M529.63 364.01L219.57 541.6 11.93 421.69 321.99 244.1l207.64 119.91z"/><path fill="#c3cfd6" d="M257.43 521.03L50.67 400.75l234.22-133.59 209.55 117.16-237.01 136.71z"/><g clip-path="url(#b)"><path fill="#fff" d="M489.92 388.43L263.45 518.96 52.76 393.29l223.47-127.53 213.69 122.67z"/><path fill="#e4e4e4" d="M323.56 429.72l-71.8 41.36-9.44-5.44 71.81-41.36 9.43 5.44zm100.65-58.01l-90.64 52.24-9.44-5.44 90.64-52.24 9.44 5.44zm-81.76 68.89l-71.81 41.36-9.44-5.44 71.8-41.36 9.45 5.44zm100.64-58l-90.64 52.24-9.44-5.45 90.64-52.24 9.44 5.45zm-118.25 90.32l-35.32 19.92-9.44-5.44 35.32-19.92 9.44 5.44zm-44.76 25.36l-9.39 5.45-9.44-5.45 9.39-5.44 9.44 5.44zm-18.86-10.88l-9.39 5.44-9.44-5.44 9.39-5.44 9.44 5.44zm-18.88-10.88l-9.39 5.44-9.44-5.44 9.39-5.44 9.44 5.44zm199.47-71.42l-70.48 40.62-9.44-5.44 70.48-40.63 9.44 5.45zM270.64 283.2L79.35 393.45l-9.44-5.44L261.2 277.76l9.44 5.44zm18.88 10.88L98.23 404.33l-9.44-5.44 191.29-110.25 9.44 5.44zm-109.55 86.33l-61.62 35.52-10.68-6.16 61.63-35.51 10.67 6.15zm147.65-64.37L136.33 426.29l64.89 37.4 191.29-110.25-64.89-37.4z"/></g><path fill="#3eb1ad" d="M333.11 250.52L23.04 428.11l-11.11-6.42L321.99 244.1l11.12 6.42z"/><path d="M959.73 145.54h-14.51v1.87L711.79 11.84a4.16 4.16 0 0 0-3.78 0l-156.59 90.43h-17.81v4.53a1.25 1.25 0 0 0 .76 1.2l247.19 143.55a4.16 4.16 0 0 0 3.78 0l173.61-100.27a1.28 1.28 0 0 0 .77-1.19z" fill="#8393a4"/><path d="M958.95 146.73L785.34 247a4.16 4.16 0 0 1-3.78 0L534.39 103.45a1.16 1.16 0 0 1 0-2.19L708 1a4.16 4.16 0 0 1 3.78 0L959 144.54a1.16 1.16 0 0 1-.05 2.19z" fill="#fff"/><path d="M867.58 194.21a12.73 12.73 0 0 1-11.53 0c-3.17-1.84-3.15-4.84 0-6.68a12.72 12.72 0 0 1 11.53 0c3.2 1.84 3.19 4.84 0 6.68zm-10.31-6c-2.53 1.46-2.54 3.84 0 5.3a10.09 10.09 0 0 0 9.14 0c2.53-1.46 2.54-3.84 0-5.3a10.09 10.09 0 0 0-9.14.01z" fill="#c5ced6"/><path d="M634.3 57.11a.85.85 0 0 1 0 1.61 3.07 3.07 0 0 1-2.78 0 .85.85 0 0 1 0-1.61 3.07 3.07 0 0 1 2.78 0z"/><path fill="#e3e3e3" d="M772.15 229.35L564.83 108.94l156.37-90.3 207.32 120.4-156.37 90.31z"/><path fill="#c3cfd8" d="M772.44 228.95L566.31 110.14l154.6-89.1 206.13 118.8-154.6 89.11z"/><g clip-path="url(#c)"><path fill="#fff" d="M924.89 142.78l-147.66 85.11-209.62-120.45 147.67-85.11 209.61 120.45z"/><path fill="#e4e4e4" d="M629.82 100l-26.29 15.15-15.79-9.1 26.28-15.15 15.8 9.1zm32.81-18.91l-26.29 15.15-15.79-9.1 26.29-15.15 15.79 9.1zm32.81-18.91l-26.29 15.15-15.79-9.1 26.29-15.15 15.79 9.1zm32.81-18.91l-26.29 15.15-15.79-9.1 26.29-15.15 15.79 9.1zm112.57 140.52L794 210.76l-6.16-3.55 46.82-26.97 6.16 3.55zm65.62-37.82l-59.1 34.06-6.16-3.55 59.1-34.06 6.16 3.55zM787.86 214.3l-6.13 3.55-6.15-3.55 6.12-3.54 6.16 3.54zM746.72 53.91L621.99 125.8l-6.96-4.02L739.75 49.9l6.97 4.01zM717.8 90.22l-78.77 45.4-6.15-3.55 78.77-45.4 6.15 3.55zm76.2-9.06l-124.73 71.89-6.15-3.55 124.72-71.89 6.16 3.55zm-12.36-7.12l-124.72 71.88-6.2-3.57 124.72-71.88 6.2 3.57zm24.67 14.22l-124.72 71.88-6.16-3.55 124.72-71.88 6.16 3.55zm12.31 7.09l-124.73 71.89-6.15-3.55L812.46 91.8l6.16 3.55zm-71.43 56.29l-40.18 23.15-6.96-4.01 40.18-23.15 6.96 4.01zm96.27-41.97l-124.72 71.88 42.3 24.39 124.73-71.89-42.31-24.38z"/></g><path fill="#28b0cc" d="M730.12 23.82l-156.37 90.3-8.92-5.18 156.37-90.3 8.92 5.18z"/><path d="M793.32 347.92h-9.24L665.9 280c-5.5-3.16-14.34-2.64-19.88.52l-47 26.85h-8.45V316c0 1.85 1 3.65 3.4 5l123.5 71c5.5 3.16 15.56 2.56 21.09-.59L789 362.67c2.87-1.64 4.34-3.87 4.34-6.08z" fill="#8393a4"/><path d="M789.39 342.55c5.5 3.15 5.11 8.52-.43 11.68L738.58 383c-5.53 3.16-15.59 3.75-21.09.59L594 312.69c-5.5-3.16-3.89-8.6 1.64-11.76L646 272.18c5.53-3.16 14.38-3.67 19.87-.52z" fill="#fff"/><path d="M618.17 294.24a1.54 1.54 0 0 0 1.51-.15l13.63-7.78c.49-.28.71-.61.26-.86a1.54 1.54 0 0 0-1.51.15l-13.63 7.78c-.48.28-.71.62-.26.86z" fill="#c9c9c9"/><path d="M629 294.46a2.12 2.12 0 0 0 2.07-.2l2.49-1.42c.67-.38 1-.83.36-1.19a2.12 2.12 0 0 0-2.07.2l-2.49 1.42c-.66.39-.97.84-.36 1.19zm-25.57 8.19c.5.29.5.75 0 1a2 2 0 0 1-1.81 0 .55.55 0 0 1 0-1 2 2 0 0 1 1.81 0z"/><path fill="#c3cfd8" d="M778.61 341.58l-62.78 35.82-110.78-63.58L667.82 278l110.79 63.58z"/><path fill="#82ae00" d="M667.95 278.07l-62.77 35.82 9.32 5.35 62.78-35.82-9.33-5.35z"/><path fill="#fff" d="M771.76 337.65l-62.77 35.82-88.27-50.66 62.77-35.82 88.27 50.66z"/><path fill="#e4e4e4" d="M701.61 302.97l-53.02 30.26-2.6-1.5 53.02-30.25 2.6 1.49zm-5.22-3l-53.02 30.26-2.62-1.5 53.02-30.26 2.62 1.5zm-35.29 11.68l-25.13 14.34-5.24-3.01 25.13-14.34 5.24 3.01zm45.72-5.69l-53.03 30.25-2.6-1.49 53.03-30.26 2.6 1.5zm5.2 2.98L659 339.2l-2.61-1.49 53.03-30.26 2.6 1.49zm-30.4 23.69l-17.08 9.75-2.94-1.69 17.08-9.74 2.94 1.68zm15.51-.3L672 346.67l-2.6-1.5 25.13-14.33 2.6 1.49zm27.9-15.92l-25.13 14.34-2.6-1.5 25.13-14.33 2.6 1.49zm-22.7 18.9l-25.12 14.34-2.6-1.49 25.12-14.34 2.6 1.49zm27.9-15.91l-25.12 14.33-2.61-1.49 25.13-14.34 2.6 1.5zm-39.35 28.4l-8.47 4.84-2.6-1.5 8.47-4.83 2.6 1.49zm38.97-22.23l-19.54 11.15-2.6-1.49 19.54-11.15 2.6 1.49zm-24.39 27.51l-11.17 6.37-6.68-3.83 11.18-6.37 6.67 3.83zm13.95-7.96l-11.17 6.38-6.68-3.83 11.18-6.38 6.67 3.83zm13.95-7.96l-11.17 6.38-6.68-3.84 11.18-6.37 6.67 3.83zm13.95-7.96l-11.17 6.38-6.68-3.83 11.18-6.38 6.67 3.83zm7.81 4.48l-53.03 30.25-2.94-1.68 53.02-30.26 2.95 1.69zm-14.34 14.13l-33.48 19.11-2.61-1.49 33.49-19.11 2.6 1.49z"/><path fill="#e4e4e4" d="M683.79 313.14l-17.38 9.92-2.6-1.49 17.38-9.92 2.6 1.49z"/><path d="M679.44 298.89c1.23.71 1.23 1.85 0 2.56a5 5 0 0 1-4.47 0c-1.23-.71-1.23-1.85 0-2.56a5 5 0 0 1 4.47 0z" fill="#ff7c00"/><path d="M695.17 251.48h-35.94a4 4 0 0 0-4 4v31.37a4 4 0 0 0 4 4h9.3l8.68 8.68 8.68-8.68h9.3a4 4 0 0 0 4-4v-31.36a4 4 0 0 0-4.02-4.01z" fill="#333"/><rect x="668.15" y="278.45" width="18.09" height="2" rx="1" ry="1" fill="#fff"/><rect x="668.15" y="270.36" width="18.09" height="2" rx="1" ry="1" fill="#fff"/><rect x="668.15" y="262.28" width="18.09" height="2" rx="1" ry="1" fill="#fff"/><path d="M798.76 4.54H636.91a4 4 0 0 0-4 4v31.37a4 4 0 0 0 4 4h72.25l8.67 8.67 8.67-8.67h72.25a4 4 0 0 0 4-4V8.55a4 4 0 0 0-3.99-4.01z" fill="#333"/><path fill="#4d4d4d" d="M716.83 10.74h2v26.98h-2zm-42.46 0h2v26.98h-2zm84.93 0h2v26.98h-2z"/><path d="M698.16 19.3v11.48L700 31v1.15h-7.32V31l1.81-.19V19.33h-2.33l-.41 2.77H690l.09-4h12.51l.06 4h-1.76l-.38-2.77zm42.74 0v11.48l1.84.19v1.15h-7.32V31l1.81-.19V19.33h-2.33l-.41 2.77h-1.77l.09-4h12.53l.06 4h-1.77l-.38-2.77zm42.75 0v11.48l1.84.19v1.15h-7.32V31l1.81-.19V19.33h-2.33l-.41 2.77h-1.77l.09-4h12.53l.06 4h-1.77l-.38-2.8z" fill="#979797"/><path d="M661.08 13.84h-10.83a6.29 6.29 0 0 0-5.91 5l-2 10.83a4 4 0 0 0 4 5h10.83a6.29 6.29 0 0 0 5.91-5l2-10.83a4 4 0 0 0-4-5z" fill="#b1b1b1"/><path d="M655.53 19.3v11.48l1.84.19v1.15H650V31l1.81-.19V19.33h-2.33l-.41 2.77h-1.77l.09-4H660l.06 4h-1.77l-.38-2.77z" fill="#333"/><path fill="#fff" d="M687.28 24.11h18.09v2h-18.09zm42.74 9.51h18.09v2h-18.09zm57.26 5.15l-2.73-2.74-2.73 2.74-2.74-2.74-2.73 2.74-4.15-4.15 1.41-1.42 2.74 2.73 2.73-2.73 2.74 2.73 2.73-2.73 2.73 2.73 2.74-2.73 1.41 1.42-4.15 4.15z"/><path fill="#f9cf18" d="M746.22 53.72l-49.78 28.9-6.85-3.98 49.79-28.9 6.84 3.98z"/><path d="M197.47 461.43c-32.26 0-58.51-15.51-58.51-34.58a2 2 0 1 1 4 0c0 16.84 24.44 30.54 54.47 30.54s54.47-13.7 54.47-30.54-24.44-30.54-54.47-30.54c-14.92 0-28.86 3.36-39.27 9.46a2 2 0 1 1-2-3.48c11-6.46 25.68-10 41.31-10 32.26 0 58.51 15.51 58.51 34.58s-26.25 34.56-58.51 34.56z" fill="#ff1a6f"/><path d="M220.89 342h-36.13a4 4 0 0 0-4 4v31.54a4 4 0 0 0 4 4h9.35l8.72 8.72 8.72-8.72h9.35a4 4 0 0 0 4-4V346a4 4 0 0 0-4.01-4z" fill="#333"/><path d="M212.6 354.43l-1.5-1.5a2.12 2.12 0 0 0-3 0l-11.75 11.75a.7.7 0 0 0 0 1l3.51 3.51a.7.7 0 0 0 1 0l11.75-11.75a2.12 2.12 0 0 0-.01-3.01zm-17.51 12.5a.7.7 0 0 0-1.18.34l-1.07 4.58a.7.7 0 0 0 .69.86h.16l4.58-1.08a.7.7 0 0 0 .34-1.18z" fill="#fff"/><path fill="#f9cf18" d="M734.04 322.77l-21.29 12.1-2.89-1.68 21.29-12.1 2.89 1.68z"/><path d="M757.87 204.67c-20.66 0-37.47-9.93-37.47-22.15a1.29 1.29 0 0 1 2.59 0c0 10.79 15.65 19.56 34.89 19.56s34.89-8.77 34.89-19.56S777.1 163 757.87 163c-9.55 0-18.48 2.15-25.15 6.06a1.29 1.29 0 0 1-1.31-2.23c7.05-4.14 16.45-6.41 26.46-6.41 20.66 0 37.47 9.93 37.47 22.14s-16.81 22.11-37.47 22.11z" fill="#ff1a6f"/><path d="M478.62 246.69L456.88 235c-7.21-3.89-10.81-5.83-13.48-8.58-2.71-3.11-2.75-6.71-.11-9.83 2.61-2.75 6.17-4.7 13.29-8.58l21.48-11.72c7.12-3.89 10.68-5.83 15.74-7.26a38.23 38.23 0 0 1 18.12 0c5.09 1.43 8.7 3.37 15.91 7.26L549.57 208c7.21 3.89 10.81 5.83 13.48 8.58 2.71 3.11 2.75 6.71.11 9.83-2.61 2.75-6.17 4.7-13.29 8.58l-21.48 11.72c-7.12 3.89-10.68 5.83-15.74 7.26a38.23 38.23 0 0 1-18.12 0c-5.09-1.43-8.7-3.37-15.91-7.26" fill="#807ed3"/><path d="M538.7 202.13c19.83 10.69 20 28 .44 38.7s-51.55 10.69-71.38 0-20-28-.44-38.7 51.55-10.69 71.38 0z" fill="#807ed3"/><path d="M517.52 213.68l7.09-3.87c-28.35-14-69.66 5.29-42.57 23.22l7.09-3.87c-17.99-11.69 9.14-25.06 28.39-15.48z" fill="url(#a)"/><path d="M489.23 229.16l-7.09 3.84c28.35 14 69.66-5.29 42.57-23.22l-7.09 3.87c17.99 11.72-9.13 25.09-28.39 15.51z" fill="url(#d)"/><path fill="#fff" d="M497.13 224.81l-23.06 12.57-2.38-13.79 25.44 1.22zm12.41-6.78l23.06-12.58 2.39 13.79-25.45-1.21z"/></g></svg>