<svg xmlns="http://www.w3.org/2000/svg" viewBox="0 0 2000 2649.05"><g data-name="Layer 1"><path fill="none" stroke="#5ad9f5" stroke-miterlimit="10" stroke-width="2.83" d="M73.13 429.99h1853.75v430.9H73.13z"/><path fill="#fff" d="M856.76 397.41h286.49v64.5H856.76z"/><path fill="#5ad9f5" d="M0 .43h2000v13.33H0zm0 2635.29h2000v13.33H0z"/><path fill="none" stroke="#00607b" stroke-linejoin="round" stroke-width="3" d="M474.31 778.8v168.73"/><path fill="#00607b" d="M462.04 937.59l2.19-2.05 10.07 10.84 10.08-10.84 2.19 2.05-12.27 13.19-12.26-13.19z"/><path fill="none" stroke="#00607b" stroke-linejoin="round" stroke-width="3" d="M995.33 778.8v597.73"/><path fill="#00607b" d="M983.06 1366.59l2.2-2.05 10.07 10.83 10.07-10.83 2.2 2.05-12.27 13.19-12.27-13.19z"/><path fill="none" stroke="#00607b" stroke-linejoin="round" stroke-width="3" d="M1525.69 778.8v597.73"/><path fill="#00607b" d="M1513.42 1366.59l2.2-2.05 10.07 10.83 10.07-10.83 2.2 2.05-12.27 13.19-12.27-13.19z"/><path fill="none" stroke="#00607b" stroke-linejoin="round" stroke-width="3" d="M995.33 1667.93v560.73"/><path fill="#00607b" d="M983.06 2218.72l2.2-2.05 10.07 10.84 10.07-10.84 2.2 2.05-12.27 13.19-12.27-13.19z"/><path fill="none" stroke="#00607b" stroke-linejoin="round" stroke-width="3" d="M1525.69 2059.93v168.73"/><path fill="#00607b" d="M1513.42 2218.72l2.2-2.05 10.07 10.84 10.07-10.84 2.2 2.05-12.27 13.19-12.27-13.19z"/><rect x="940" y="133.76" width="120" height="120" rx="60" ry="60" fill="#00607b"/><path d="M755.52 292h9.53c7.66 0 12.2 4.3 12.2 12.52s-4.54 12.62-12.2 12.62h-9.53zm5.3 4.16v16.82H764c5 0 7.81-2.15 7.81-8.46s-2.81-8.36-7.81-8.36zm31.37 1.3c6.1 0 9.81 3.89 9.81 10s-3.71 10.12-9.81 10.12-9.88-4-9.88-10.12 3.69-10 9.88-10zm0 16.2c2.92 0 4.61-2.12 4.61-6.24s-1.69-6.11-4.61-6.11-4.68 2.12-4.68 6.11 1.7 6.24 4.68 6.24zm24.34-16.2a18.29 18.29 0 0 1 6.2 1.18l-1 3.78a12.65 12.65 0 0 0-4.3-.83c-3.4 0-5.48 2-5.48 5.89s2.08 5.9 5.48 5.9a12.27 12.27 0 0 0 4.3-.8l1 3.78a17.28 17.28 0 0 1-6.2 1.18c-6.17 0-9.81-3.78-9.81-10.06s3.64-10.02 9.81-10.02zM835 317.54c-4 0-6.83-2.15-6.83-7.18v-12.44h5.1v11.68c0 2.7 1.07 3.81 3.22 3.81a8.41 8.41 0 0 0 5-1.8v-13.69h5.1v19.17h-4.33l-.52-1.91a11.47 11.47 0 0 1-6.74 2.36zm30.62-20.08a5.79 5.79 0 0 1 5.61 3.44 9.53 9.53 0 0 1 7.32-3.44c3.43 0 6.27 2.15 6.27 7v12.59h-5.09v-11.23c0-2.6-1-3.85-3.16-3.85a7.26 7.26 0 0 0-4.68 2.08v13h-5.09v-11.23c0-2.6-1.08-3.85-3.16-3.85a7.41 7.41 0 0 0-4.71 2.08v13h-5.06v-19.13h4.64a13.75 13.75 0 0 0 .35 2.56 8.89 8.89 0 0 1 6.76-3.02zm35.43 20.08c-6.56 0-10.4-3.68-10.4-10 0-6.07 3.77-10.06 9.49-10.06s8.86 3.52 8.86 9.1a12 12 0 0 1-.17 2.33h-12.95c.42 3.22 2.29 4.64 5.86 4.64a14.17 14.17 0 0 0 5.34-1.21l1.25 3.53a17.9 17.9 0 0 1-7.28 1.67zm-5.17-11.65h8.22c-.25-3.33-1.74-4.65-4-4.65s-3.84 1.46-4.22 4.65zm31.12-8.43c3.65 0 6.56 2.15 6.56 7v12.59h-5.1v-11.23c0-2.6-1.14-3.85-3.46-3.85a8.07 8.07 0 0 0-5 2.08v13h-5v-19.13h4.65a14.65 14.65 0 0 0 .34 2.56 9.49 9.49 0 0 1 7.01-3.02zm20.67 20.08c-3.71 0-6.27-1.77-6.27-6v-9.7h-2.81v-3.5l2.81-.38v-3.26l5.09-.83v4.09h6.14v3.88h-6.14v8.91c0 2.15.87 2.77 2.81 2.77a13.31 13.31 0 0 0 3.23-.52l.79 3.61a17.26 17.26 0 0 1-5.65.93zm16.22-.45L955 292h5.85l6 19.49 6-19.49h5.72l-8.94 25.14zm21.95-27.29a3 3 0 1 1-3.19 3 2.92 2.92 0 0 1 3.19-3zm-2.53 8.12h5.06v19.17h-5.06zm21.53 19.62c-6.56 0-10.4-3.68-10.4-10 0-6.07 3.77-10.06 9.49-10.06s8.85 3.58 8.85 9.12a11.86 11.86 0 0 1-.18 2.33h-12.93c.42 3.22 2.29 4.64 5.86 4.64a14.17 14.17 0 0 0 5.34-1.21l1.25 3.53a17.94 17.94 0 0 1-7.28 1.65zm-5.17-11.65h8.22c-.25-3.33-1.74-4.65-4-4.65s-3.84 1.46-4.22 4.65zm32.03-.73l-3.7 11.93h-5.34l-6.62-19.17h5.47l3.89 14.11 3.85-14.11h4.85l4 14.11 3.71-14.11h5.34l-6.49 19.17h-5.34zm31.38-13.66a20.4 20.4 0 0 1 7.21 1.25l-1.11 4.19a19.08 19.08 0 0 0-5.27-.9c-4.37 0-7.53 2.81-7.53 8.43s3.16 8.49 7.49 8.49a19.9 19.9 0 0 0 5.38-.83l1.14 4.23a22.27 22.27 0 0 1-7.31 1.18c-7.46 0-12.24-4.89-12.24-13.07s4.78-12.97 12.24-12.97zm21.66 5.96c6.1 0 9.81 3.89 9.81 10s-3.71 10.12-9.81 10.12-9.88-4-9.88-10.12 3.71-10 9.88-10zm0 16.2c2.91 0 4.61-2.12 4.61-6.24s-1.7-6.11-4.61-6.11-4.68 2.12-4.68 6.11 1.7 6.24 4.68 6.24zm27.91-16.2c3.64 0 6.55 2.15 6.55 7v12.59h-5.09v-11.23c0-2.6-1.15-3.85-3.47-3.85a8 8 0 0 0-5 2.08v13h-5.07v-19.13h4.65a13.75 13.75 0 0 0 .35 2.56 9.47 9.47 0 0 1 7.08-3.02zm20.63 20.08c-3.71 0-6.28-1.77-6.28-6v-9.7h-2.81v-3.5l2.81-.38v-3.26l5.1-.83v4.09h6.13v3.88h-6.13v8.91c0 2.15.86 2.77 2.8 2.77a13.15 13.15 0 0 0 3.23-.52l.8 3.61a17.31 17.31 0 0 1-5.65.93zm20.48-20.08a5.82 5.82 0 0 1 2.85.73l-1.15 4.86a5.73 5.73 0 0 0-2.42-.56 4.78 4.78 0 0 0-4.1 2.95v11.65h-5.06v-19.17h4.58a23.91 23.91 0 0 0 .42 2.94 5.23 5.23 0 0 1 4.88-3.4zm15.81 0c6.1 0 9.81 3.89 9.81 10s-3.71 10.12-9.81 10.12-9.88-4-9.88-10.12 3.71-10 9.88-10zm0 16.2c2.91 0 4.61-2.12 4.61-6.24s-1.7-6.11-4.61-6.11-4.68 2.12-4.68 6.11 1.7 6.24 4.68 6.24zm15.84-22.57h5.06v26h-5.06zm12.41 0h5.06v26h-5.06zm21.53 26.45c-6.55 0-10.4-3.68-10.4-10 0-6.07 3.78-10.06 9.5-10.06s8.84 3.58 8.84 9.12a12.89 12.89 0 0 1-.17 2.33h-12.93c.41 3.22 2.28 4.64 5.85 4.64a14.08 14.08 0 0 0 5.34-1.21l1.25 3.53a17.86 17.86 0 0 1-7.28 1.65zm-5.16-11.65h8.21c-.24-3.33-1.73-4.65-4-4.65s-3.83 1.46-4.21 4.65zm28.98-8.43a5.76 5.76 0 0 1 2.84.73l-1.14 4.86a5.77 5.77 0 0 0-2.43-.56 4.75 4.75 0 0 0-4.09 2.95v11.65h-5.06v-19.17h4.57a26 26 0 0 0 .42 2.94 5.24 5.24 0 0 1 4.89-3.4zM898.23 422.72h-6v16.78h-3v-16.78h-6v-2.56h15zm10.16 1.76a4.39 4.39 0 0 1 2.24.59l-.8 2.64a4.92 4.92 0 0 0-1.71-.32 4.05 4.05 0 0 0-3.46 2.8v9.31h-2.94v-14.7h2.59a17.7 17.7 0 0 0 .27 2.3 4.09 4.09 0 0 1 3.81-2.62zm14.61 6.27c0-2.43-1.2-3.63-3.62-3.63a12.1 12.1 0 0 0-4.46.88l-.75-2.26a14.92 14.92 0 0 1 5.69-1.23c4.16 0 6.08 2.19 6.08 5.89v9.1h-2.59l-.24-1.73a6.88 6.88 0 0 1-4.85 2.05c-3.18 0-4.91-1.92-4.91-4.35 0-2.69 2.16-4.51 6-4.51a21.26 21.26 0 0 1 3.6.35zm-3 2.43c-2.72 0-3.62 1-3.62 2.16s.72 2 2.5 2a6.62 6.62 0 0 0 4.16-1.76v-2.11a20.84 20.84 0 0 0-3.04-.29zm20.47-8.7c2.83 0 5 1.71 5 5.31v9.71h-2.93v-9c0-2.27-1-3.39-3.07-3.39a7.24 7.24 0 0 0-4.59 2v10.4H932V424.8h2.64a16 16 0 0 0 .21 1.9 8 8 0 0 1 5.62-2.22zm10.61 12.17a19 19 0 0 0 4.35.66c2.61 0 3.63-.64 3.63-1.65s-.94-1.65-3.66-2.29c-3.47-.83-4.77-2.27-4.77-4.57s2-4.32 5.92-4.32a15.7 15.7 0 0 1 4.77.83l-.58 2.29a14.38 14.38 0 0 0-4-.61c-2.08 0-3.12.69-3.12 1.68s.88 1.63 3.22 2.19c3.55.85 5.2 2.21 5.2 4.53 0 2.67-2.18 4.43-6.24 4.43a17.54 17.54 0 0 1-5.36-.88zm17.55-17.47a1.85 1.85 0 1 1-2 1.86 1.8 1.8 0 0 1 2-1.86zm-1.47 5.62h2.93v14.7h-2.93zm14.16 15.02c-2.64 0-4.43-1.31-4.43-4.24v-8.35h-2.34v-2.13l2.34-.3v-2.53l2.94-.48v3h4.88v2.43h-4.88V435c0 1.73.74 2.24 2.37 2.24a11.4 11.4 0 0 0 2.59-.4l.56 2.29a11.86 11.86 0 0 1-4.03.69zm9.68-20.64a1.85 1.85 0 1 1-2 1.86 1.81 1.81 0 0 1 2-1.86zm-1.47 5.62h2.93v14.7h-2.93zm15.23-.32c4.38 0 7.2 3 7.2 7.61s-2.82 7.73-7.2 7.73-7.23-3.09-7.23-7.73 2.83-7.61 7.23-7.61zm0 12.81c2.64 0 4.22-1.87 4.22-5.2s-1.58-5.1-4.22-5.1-4.24 1.89-4.24 5.1 1.57 5.2 4.24 5.2zm20.8-12.81c2.83 0 5 1.71 5 5.31v9.71h-2.93v-9c0-2.27-1-3.39-3.07-3.39a7.24 7.24 0 0 0-4.59 2v10.4h-2.93V424.8h2.64a16 16 0 0 0 .21 1.9 8 8 0 0 1 5.67-2.22zm19.44 11.77a16.29 16.29 0 0 0 5.14 1c3.26 0 4.65-1 4.65-2.7s-1-2.53-4.54-3.47c-4.16-1.12-5.89-3-5.89-5.7 0-3.07 2.64-5.5 7.12-5.5a17.14 17.14 0 0 1 5.55 1l-.67 2.48a15.35 15.35 0 0 0-4.72-.82c-2.94 0-4.24 1.12-4.24 2.66s1.2 2.56 4.26 3.36c4.51 1.18 6.22 3 6.22 5.9 0 3.2-2.59 5.44-7.26 5.44a18.11 18.11 0 0 1-6.32-1.07zm23.28 3.57c-2.64 0-4.43-1.31-4.43-4.24v-8.35h-2.34v-2.13l2.34-.3v-2.53l2.94-.48v3h4.88v2.43h-4.88V435c0 1.73.74 2.24 2.37 2.24a11.57 11.57 0 0 0 2.59-.4l.56 2.29a11.86 11.86 0 0 1-4.03.69zm7.72 3.63l.4-2.32a4.82 4.82 0 0 0 1.44.24 2.11 2.11 0 0 0 2.22-1.55l-6-15h3.17l4.27 11.58 4.19-11.58h3.12l-6.11 15.53c-1 2.37-2.13 3.49-4.35 3.49a7.83 7.83 0 0 1-2.35-.39zm16.79-23.95h2.93v20h-2.93zm15.7 20.32c-4.74 0-7.65-2.8-7.65-7.65 0-4.51 2.85-7.69 7-7.69s6.48 2.72 6.48 7a9.23 9.23 0 0 1-.14 1.65h-10.29c.32 2.78 1.89 4.11 4.85 4.11a10.13 10.13 0 0 0 4.08-1l.91 2.27a12.05 12.05 0 0 1-5.24 1.31zm-4.58-8.94h7.52c-.19-2.8-1.63-3.92-3.68-3.92s-3.52 1.28-3.84 3.92zM341.34 732.35a21.74 21.74 0 0 0 6.72 1.22c3.68 0 5.17-1 5.17-2.78s-1.15-2.74-5.17-3.78c-5.51-1.45-7.76-4-7.76-7.59 0-4.23 3.57-7.52 9.81-7.52a24.89 24.89 0 0 1 7.66 1.28l-1.07 4.16a21.07 21.07 0 0 0-6.24-1.07c-3.33 0-4.75 1.14-4.75 2.77s1.31 2.74 5 3.64c6 1.49 8.22 4.06 8.22 7.91 0 4.4-3.43 7.34-10.09 7.34a27.82 27.82 0 0 1-8.49-1.35zm32.34-14.49a18.16 18.16 0 0 1 6.21 1.18l-1 3.78a12.41 12.41 0 0 0-4.3-.83c-3.4 0-5.48 2-5.48 5.89s2.08 5.89 5.48 5.89a12.49 12.49 0 0 0 4.3-.79l1 3.77a17.38 17.38 0 0 1-6.21 1.18c-6.17 0-9.81-3.77-9.81-10s3.64-10.07 9.81-10.07zm21.74 0a5.76 5.76 0 0 1 2.84.73l-1.14 4.85a5.92 5.92 0 0 0-2.43-.55 4.75 4.75 0 0 0-4.09 3v11.64h-5.06v-19.22h4.57a26.18 26.18 0 0 0 .42 3 5.24 5.24 0 0 1 4.89-3.45zm15.8 0c6.11 0 9.82 3.88 9.82 9.95s-3.71 10.12-9.82 10.12-9.88-3.95-9.88-10.12 3.71-9.95 9.88-9.95zm0 16.19c2.92 0 4.62-2.11 4.62-6.24s-1.7-6.1-4.62-6.1-4.68 2.11-4.68 6.1 1.7 6.24 4.68 6.24zm15.85-22.57h5.06v26h-5.06zm12.41 0h5.06v26h-5.06zm18.2 19.45v6.55h-5.31v-25.13h8.81c6.69 0 10.61 3.26 10.61 9.12 0 6.06-3.92 9.46-10.61 9.46zm0-14.49v10.4h2.42c4.06 0 6.24-1.59 6.24-5.37 0-3.5-2.18-5-6.24-5zm29.19 21.49c-6.56 0-10.4-3.67-10.4-10 0-6.07 3.78-10.06 9.49-10.06s8.85 3.57 8.85 9.12a11.75 11.75 0 0 1-.18 2.32H481.7c.42 3.23 2.29 4.65 5.86 4.65a14 14 0 0 0 5.34-1.22l1.25 3.54a17.9 17.9 0 0 1-7.28 1.65zm-5.17-11.64h8.22c-.24-3.33-1.74-4.65-4-4.65s-3.84 1.46-4.22 4.65zm28.98-8.43a5.82 5.82 0 0 1 2.85.73l-1.15 4.85a5.87 5.87 0 0 0-2.42-.55 4.78 4.78 0 0 0-4.1 3v11.64h-5.06v-19.22h4.58a26.22 26.22 0 0 0 .41 3 5.26 5.26 0 0 1 4.89-3.45zm13.21 13.07v6.55h-5.3v-25.13h8.8c6.69 0 10.61 3.26 10.61 9.12 0 6.06-3.92 9.46-10.61 9.46zm0-14.49v10.4h2.43c4 0 6.24-1.59 6.24-5.37 0-3.5-2.19-5-6.24-5zm30.65 9.98c0-3-1.39-4.54-4.51-4.54a15.37 15.37 0 0 0-5.65 1.11l-1.11-3.5a21 21 0 0 1 7.87-1.63c5.89 0 8.49 2.88 8.49 7.91v11.71h-4.51l-.41-2a8.48 8.48 0 0 1-6.07 2.46c-4.12 0-6.38-2.46-6.38-5.72 0-3.84 3-6 7.84-6a25.37 25.37 0 0 1 4.44.41zm-3.26 2.92c-3 0-4.09 1.11-4.09 2.53s.9 2.29 2.87 2.29a7 7 0 0 0 4.48-1.84v-2.78a31.69 31.69 0 0 0-3.26-.2zm23.01 13.79c-6.37 0-8.73-1.8-8.73-4.54a3.89 3.89 0 0 1 2.53-3.6 3.05 3.05 0 0 1-1.42-2.6 3.44 3.44 0 0 1 2.32-3.23 5.24 5.24 0 0 1-3.29-5c0-4.06 3.22-6.28 8.49-6.28a11.83 11.83 0 0 1 1.21 0l9.3.31v3.29c-.11 0-1.39-.28-2.71-.48a5.59 5.59 0 0 1 .83 3.12c0 3.91-3.26 6-8.63 6-2.53 0-3.05.66-3.05 1.36s.52 1.1 1.59 1.1c1.64 0 4.2-.24 6.35-.24 3.88 0 5.86 2.12 5.86 4.93 0 3.82-2.81 5.86-10.65 5.86zm5.83-5.13c0-1-.52-1.66-3-1.66h-2.85a17.78 17.78 0 0 1-3.15-.24 2.09 2.09 0 0 0-1.07 1.8c0 1.22 1.38 2.05 4.64 2.05 4.25.05 5.43-.7 5.43-1.95zm-5.93-10.85c2.39 0 3.75-1.14 3.75-3s-1.36-3-3.75-3-3.6 1.1-3.6 3 1.31 3 3.6 3zm25.2 10.78c-6.55 0-10.4-3.67-10.4-10 0-6.07 3.78-10.06 9.5-10.06s8.84 3.57 8.84 9.12a12.77 12.77 0 0 1-.17 2.32h-12.93c.41 3.23 2.29 4.65 5.86 4.65a14 14 0 0 0 5.34-1.22l1.24 3.54a17.87 17.87 0 0 1-7.28 1.65zm-5.16-11.64h8.21c-.24-3.33-1.73-4.65-4-4.65s-3.83 1.46-4.21 4.65zm241.09 6.06a21.74 21.74 0 0 0 6.72 1.22c3.68 0 5.17-1 5.17-2.78s-1.15-2.74-5.17-3.78c-5.51-1.45-7.76-4-7.76-7.59 0-4.23 3.57-7.52 9.81-7.52a24.89 24.89 0 0 1 7.66 1.28l-1.08 4.16a21 21 0 0 0-6.24-1.07c-3.32 0-4.75 1.14-4.75 2.77s1.32 2.74 5 3.64c6 1.49 8.22 4.06 8.22 7.91 0 4.4-3.43 7.34-10.09 7.34a27.82 27.82 0 0 1-8.49-1.35zm32.34-14.49a18.16 18.16 0 0 1 6.21 1.18l-1 3.78a12.41 12.41 0 0 0-4.3-.83c-3.4 0-5.48 2-5.48 5.89s2.08 5.89 5.48 5.89a12.49 12.49 0 0 0 4.3-.79l1 3.77a17.38 17.38 0 0 1-6.21 1.18c-6.17 0-9.81-3.77-9.81-10s3.64-10.07 9.81-10.07zm21.74 0a5.76 5.76 0 0 1 2.84.73l-1.15 4.85a5.83 5.83 0 0 0-2.42-.55 4.75 4.75 0 0 0-4.09 3v11.64h-5.06v-19.22h4.57a24.08 24.08 0 0 0 .42 3 5.24 5.24 0 0 1 4.89-3.45zm15.8 0c6.11 0 9.81 3.88 9.81 9.95s-3.7 10.12-9.81 10.12-9.88-3.95-9.88-10.12 3.68-9.95 9.88-9.95zm0 16.19c2.92 0 4.62-2.11 4.62-6.24s-1.7-6.1-4.62-6.1-4.68 2.11-4.68 6.1 1.7 6.24 4.68 6.24zm15.85-22.57h5.06v26h-5.06zm12.41 0h5.06v26h-5.06zm23.67.42a20.42 20.42 0 0 1 7.22 1.25l-1.11 4.19a19.08 19.08 0 0 0-5.27-.9c-4.37 0-7.53 2.81-7.53 8.42s3.16 8.5 7.49 8.5a19.9 19.9 0 0 0 5.38-.83l1.14 4.22a22.28 22.28 0 0 1-7.32 1.18c-7.45 0-12.23-4.88-12.23-13.07s4.78-12.96 12.23-12.96zm21.67 5.96c6.1 0 9.81 3.88 9.81 9.95s-3.71 10.12-9.81 10.12-9.88-3.95-9.88-10.12 3.71-9.95 9.88-9.95zm0 16.19c2.91 0 4.61-2.11 4.61-6.24s-1.7-6.1-4.61-6.1-4.68 2.11-4.68 6.1 1.7 6.24 4.68 6.24zm27.91-16.19c3.64 0 6.55 2.15 6.55 7v12.58h-5.1v-11.22c0-2.6-1.14-3.85-3.46-3.85a8.07 8.07 0 0 0-5 2.08v13h-5.06v-19.14h4.65a13.86 13.86 0 0 0 .35 2.57 9.44 9.44 0 0 1 7.07-3.02zm20.62 20.07c-3.71 0-6.27-1.76-6.27-6v-9.71h-2.81v-3.5l2.81-.38v-3.26l5.1-.83v4.09h6.13v3.88h-6.13v8.91c0 2.15.86 2.78 2.8 2.78a13.23 13.23 0 0 0 3.23-.52l.8 3.6a17.11 17.11 0 0 1-5.66.94zm13.14-27.73a3 3 0 1 1-3.19 3 2.92 2.92 0 0 1 3.19-3zm-2.53 8.11h5.06v19.17h-5.06zm24.48-.45c3.64 0 6.55 2.15 6.55 7v12.58h-5.1v-11.22c0-2.6-1.14-3.85-3.46-3.85a8.07 8.07 0 0 0-5 2.08v13h-5.06v-19.14h4.65a14.77 14.77 0 0 0 .34 2.57 9.46 9.46 0 0 1 7.08-3.02zm20.24 20.07c-4 0-6.83-2.15-6.83-7.17v-12.45h5.1V730c0 2.7 1.07 3.81 3.22 3.81a8.41 8.41 0 0 0 5-1.8v-13.7h5.1v19.17h-4.33l-.52-1.9a11.49 11.49 0 0 1-6.74 2.35zm27.46-20.07c6.1 0 9.81 3.88 9.81 9.95s-3.71 10.12-9.81 10.12-9.88-3.95-9.88-10.12 3.76-9.95 9.88-9.95zm0 16.19c2.91 0 4.61-2.11 4.61-6.24s-1.7-6.1-4.61-6.1-4.68 2.11-4.68 6.1 1.69 6.24 4.68 6.24zm22.43 3.88c-4 0-6.83-2.15-6.83-7.17v-12.45h5.09V730c0 2.7 1.08 3.81 3.23 3.81a8.43 8.43 0 0 0 5-1.8v-13.7h5.09v19.17h-4.33l-.52-1.9a11.43 11.43 0 0 1-6.73 2.35zm18.58-4.85a21.78 21.78 0 0 0 5.44.9c3 0 4.06-.66 4.06-1.73 0-1.25-1-1.8-3.92-2.46-4.72-1-6.42-3-6.42-6 0-3.29 2.74-5.89 8.08-5.89a22.59 22.59 0 0 1 6.73 1.11l-.94 3.61a18.81 18.81 0 0 0-5.16-.8c-2.4 0-3.5.73-3.5 1.77 0 1.21.93 1.77 3.7 2.39 4.68 1 6.83 2.88 6.83 6.07 0 3.64-2.91 5.92-8.52 5.92a25 25 0 0 1-7.39-1.18zm350.22-21.18a20.36 20.36 0 0 1 7.21 1.25l-1.11 4.19a19.08 19.08 0 0 0-5.27-.9c-4.37 0-7.52 2.81-7.52 8.42s3.15 8.5 7.48 8.5a19.9 19.9 0 0 0 5.38-.83l1.14 4.22a22.27 22.27 0 0 1-7.31 1.18c-7.46 0-12.24-4.88-12.24-13.07s4.78-12.96 12.24-12.96zm20.03 26.03c-4 0-6.83-2.15-6.83-7.17v-12.45h5.1V730c0 2.7 1.07 3.81 3.22 3.81a8.44 8.44 0 0 0 5-1.8v-13.7h5.13v19.17h-4.33l-.52-1.9a11.46 11.46 0 0 1-6.77 2.35zm28.78-20.07a5.76 5.76 0 0 1 2.84.73l-1.14 4.85a5.92 5.92 0 0 0-2.43-.55 4.76 4.76 0 0 0-4.09 3v11.64h-5.06v-19.22h4.57a26.18 26.18 0 0 0 .42 3 5.24 5.24 0 0 1 4.89-3.45zm7.41-6.38h5.07v26h-5.07z" fill="#00607b"/><path d="M1005.67 216.39h-11.25a2 2 0 0 1-2-2V211a20.32 20.32 0 0 1-3.52-2l-3 1.69a2 2 0 0 1-2.73-.73l-5.62-9.75a2 2 0 0 1-.2-1.51 2 2 0 0 1 .93-1.22l2.92-1.68a18.69 18.69 0 0 1 0-4l-2.91-1.69a2 2 0 0 1-.73-2.73l5.63-9.74a2 2 0 0 1 2.73-.73l2.94 1.69a19.69 19.69 0 0 1 3.52-2v-3.39a2 2 0 0 1 2-2h11.25a2 2 0 0 1 2 2v3.39a20.37 20.37 0 0 1 3.47 2l2.9-1.68a2 2 0 0 1 1.52-.2 2 2 0 0 1 1.22.93l5.62 9.74a2 2 0 0 1-.73 2.73l-2.91 1.69a17.15 17.15 0 0 1 0 4l2.92 1.68a2 2 0 0 1 .93 1.22 2 2 0 0 1-.2 1.51l-5.62 9.75a2 2 0 0 1-2.74.73l-2.9-1.69a19.85 19.85 0 0 1-3.48 2v3.39a2 2 0 0 1-1.96 1.99zm-9.25-4h7.25v-2.73a2 2 0 0 1 1.3-1.87 16 16 0 0 0 4.71-2.73 2 2 0 0 1 2.3-.21l2.35 1.36 3.62-6.27-2.37-1.37a2 2 0 0 1-1-2.09 15.33 15.33 0 0 0 .26-2.72 14.63 14.63 0 0 0-.27-2.71 2 2 0 0 1 1-2.1l2.36-1.36-3.62-6.27-2.34 1.35a2 2 0 0 1-2.3-.21 15.93 15.93 0 0 0-4.71-2.72 2 2 0 0 1-1.3-1.87v-2.73h-7.25v2.73a2 2 0 0 1-1.3 1.87 16.23 16.23 0 0 0-4.75 2.72 2 2 0 0 1-2.3.22l-2.38-1.37-3.63 6.28 2.36 1.36a2 2 0 0 1 1 2.1 14.42 14.42 0 0 0-.26 2.71 15.13 15.13 0 0 0 .25 2.72 2 2 0 0 1-1 2.09l-2.37 1.37 3.63 6.28 2.39-1.37a2 2 0 0 1 2.3.21 16.12 16.12 0 0 0 4.75 2.73 2 2 0 0 1 1.3 1.87z" fill="#5ad9f5"/><path d="M1000 203.26a9.5 9.5 0 1 1 9.5-9.5 9.51 9.51 0 0 1-9.5 9.5zm0-15a5.5 5.5 0 1 0 5.5 5.5 5.51 5.51 0 0 0-5.5-5.5z" fill="#5ad9f5"/><path fill="none" stroke="#00607b" stroke-linejoin="round" stroke-width="3" d="M475.07 2091.04v-31.11m184.29 69.32c0-10.55-7.93-19.1-17.71-19.1H492.78c-9.78 0-17.71-8.56-17.71-19.11m-184.13 38.21c0-10.55 7.93-19.1 17.71-19.1h148.71c9.78 0 17.71-8.56 17.71-19.11m184.29 38.21v99.41"/><path fill="#00607b" d="M647.09 2218.72l2.19-2.05 10.07 10.84 10.07-10.84 2.2 2.05-12.27 13.19-12.26-13.19z"/><path fill="none" stroke="#00607b" stroke-linejoin="round" stroke-width="3" d="M290.92 2129.25v99.41"/><path fill="#00607b" d="M278.65 2218.72l2.2-2.05 10.07 10.84 10.07-10.84 2.2 2.05-12.27 13.19-12.27-13.19z"/><rect x="940" y="555.44" width="120" height="120" rx="60" ry="60" fill="#5ad9f5"/><path d="M1008.63 635.05a2.13 2.13 0 0 0-.18-.5s0-.07-.05-.1a2.29 2.29 0 0 0-.32-.43l-13.33-13.33a2.24 2.24 0 0 0-.43-.31l-.1-.06a2.22 2.22 0 0 0-.49-.18 2.34 2.34 0 0 0-.38 0H977a4.28 4.28 0 0 0-4.28 4.28v27.24a2 2 0 0 0 4 0v-27.27a.27.27 0 0 1 .28-.28h14.38v9a4.29 4.29 0 0 0 4.29 4.29h9v14.19a2 2 0 0 0 4 0v-16.15a2.33 2.33 0 0 0 0-.38zm-13-1.61a.29.29 0 0 1-.29-.29v-6.22l6.51 6.51zm11.04-56.19a2 2 0 0 0-2 2v27.23a.29.29 0 0 1-.29.29H977a.28.28 0 0 1-.28-.29v-27.23a2 2 0 0 0-4 0v27.23a4.29 4.29 0 0 0 4.28 4.29h27.43a4.3 4.3 0 0 0 4.29-4.29v-27.23a2 2 0 0 0-2.05-2zm18.66 19.21a2 2 0 0 0-2 2v34a2 2 0 0 0 4 0v-34a2 2 0 0 0-2-2zM764.1 1588.72v6.56h-5.31v-25.14h8.81c6.69 0 10.61 3.26 10.61 9.12 0 6.07-3.92 9.46-10.61 9.46zm0-14.49v10.4h2.42c4.06 0 6.24-1.59 6.24-5.37 0-3.5-2.18-5-6.24-5zm20.1 15.92a21.76 21.76 0 0 0 6.73 1.21c3.67 0 5.16-1 5.16-2.77s-1.14-2.74-5.16-3.78c-5.51-1.46-7.77-4.06-7.77-7.6 0-4.22 3.57-7.52 9.81-7.52a24.84 24.84 0 0 1 7.66 1.28l-1.07 4.16a21.34 21.34 0 0 0-6.24-1.07c-3.33 0-4.75 1.15-4.75 2.77s1.32 2.74 5 3.64c6 1.49 8.21 4.06 8.21 7.91 0 4.4-3.43 7.35-10.08 7.35a27.94 27.94 0 0 1-8.5-1.35zm29.64-1.43v6.56h-5.3v-25.14h8.8c6.69 0 10.61 3.26 10.61 9.12 0 6.07-3.92 9.46-10.61 9.46zm0-14.49v10.4h2.43c4.06 0 6.24-1.59 6.24-5.37 0-3.5-2.18-5-6.24-5zm20.56-4.09h9.53c7.66 0 12.21 4.3 12.21 12.52s-4.55 12.62-12.21 12.62h-9.53zm5.3 4.16v16.82h3.16c5 0 7.8-2.15 7.8-8.46s-2.81-8.36-7.8-8.36zm28.6 11.55v9.43H863v-25.14h16.67v4.41H868.3v7.14h10.23v4.16zm28.78-16.16a20.36 20.36 0 0 1 7.21 1.25l-1.11 4.19a19.08 19.08 0 0 0-5.27-.9c-4.37 0-7.52 2.81-7.52 8.43s3.15 8.49 7.48 8.49a19.9 19.9 0 0 0 5.38-.83l1.14 4.23a22.27 22.27 0 0 1-7.31 1.18c-7.46 0-12.24-4.89-12.24-13.07s4.78-12.97 12.24-12.97zm21.66 5.97c6.1 0 9.81 3.88 9.81 9.95s-3.71 10.12-9.81 10.12-9.88-4-9.88-10.12 3.71-9.95 9.88-9.95zm0 16.19c2.92 0 4.61-2.12 4.61-6.24s-1.69-6.11-4.61-6.11-4.68 2.12-4.68 6.11 1.7 6.24 4.68 6.24zm27.91-16.19c3.64 0 6.55 2.14 6.55 7v12.59h-5.09V1584c0-2.6-1.15-3.85-3.47-3.85a8 8 0 0 0-5 2.08v13h-5.07v-19.17h4.65a14.64 14.64 0 0 0 .35 2.56 9.47 9.47 0 0 1 7.08-2.96zm20.63 20.07c-3.71 0-6.28-1.77-6.28-6V1580h-2.81v-3.5l2.81-.38v-3.26l5.1-.83v4.09h6.13v3.88h-6.13v8.91c0 2.15.86 2.77 2.81 2.77a13.23 13.23 0 0 0 3.22-.52l.8 3.61a17.31 17.31 0 0 1-5.65.96zm19.72 0c-6.55 0-10.4-3.68-10.4-10 0-6.07 3.78-10 9.5-10s8.84 3.57 8.84 9.11a12.89 12.89 0 0 1-.17 2.33h-12.94c.42 3.22 2.29 4.64 5.86 4.64a14.08 14.08 0 0 0 5.34-1.21l1.25 3.53a17.86 17.86 0 0 1-7.28 1.6zm-5.17-11.65h8.22c-.24-3.33-1.73-4.65-4-4.65s-3.83 1.46-4.22 4.65zm31.17-8.42c3.64 0 6.55 2.14 6.55 7v12.59h-5.09V1584c0-2.6-1.15-3.85-3.47-3.85a8 8 0 0 0-5 2.08v13h-5.06v-19.17h4.64a14.64 14.64 0 0 0 .35 2.56 9.47 9.47 0 0 1 7.08-2.96zm20.63 20.07c-3.71 0-6.28-1.77-6.28-6V1580h-2.81v-3.5l2.81-.38v-3.26l5.1-.83v4.09h6.13v3.88h-6.13v8.91c0 2.15.86 2.77 2.8 2.77a13.15 13.15 0 0 0 3.23-.52l.8 3.61a17.31 17.31 0 0 1-5.65.96zm10.64-5.58a21.75 21.75 0 0 0 6.72 1.21c3.68 0 5.17-1 5.17-2.77s-1.14-2.74-5.17-3.78c-5.51-1.46-7.76-4.06-7.76-7.6 0-4.22 3.57-7.52 9.81-7.52a24.89 24.89 0 0 1 7.66 1.28l-1.07 4.16a21.4 21.4 0 0 0-6.24-1.07c-3.33 0-4.75 1.15-4.75 2.77s1.31 2.74 4.95 3.64c6 1.49 8.22 4.06 8.22 7.91 0 4.4-3.43 7.35-10.09 7.35a27.82 27.82 0 0 1-8.49-1.35zm32.34-14.49a18.4 18.4 0 0 1 6.21 1.17l-1 3.78a12.6 12.6 0 0 0-4.3-.83c-3.4 0-5.48 2-5.48 5.89s2.08 5.9 5.48 5.9a12.22 12.22 0 0 0 4.3-.8l1 3.78a17.38 17.38 0 0 1-6.21 1.18c-6.17 0-9.81-3.78-9.81-10.06s3.64-10.01 9.81-10.01zm21.74 0a5.75 5.75 0 0 1 2.84.72l-1.14 4.86a5.77 5.77 0 0 0-2.43-.56 4.76 4.76 0 0 0-4.09 3v11.65h-5.06v-19.17h4.53a26 26 0 0 0 .42 2.94 5.23 5.23 0 0 1 4.93-3.44zm15.81 0c6.1 0 9.81 3.88 9.81 9.95s-3.71 10.12-9.81 10.12-9.88-4-9.88-10.12 3.72-9.95 9.88-9.95zm0 16.19c2.91 0 4.61-2.12 4.61-6.24s-1.7-6.11-4.61-6.11-4.68 2.12-4.68 6.11 1.69 6.24 4.68 6.24zm15.84-22.57h5.06v26H1130zm12.41 0h5.06v26h-5.06zm18.72 26l-8.91-25.14h5.86l6 19.49 6-19.49h5.72l-8.95 25.14zm21.94-27.28a3 3 0 1 1-3.19 3 2.92 2.92 0 0 1 3.19-3zm-2.53 8.12h5.06v19.17h-5.06zm21.53 19.61c-6.55 0-10.4-3.68-10.4-10 0-6.07 3.78-10 9.5-10s8.84 3.57 8.84 9.11a11.86 11.86 0 0 1-.18 2.33h-12.93c.42 3.22 2.29 4.64 5.86 4.64a14.12 14.12 0 0 0 5.34-1.21l1.25 3.53a17.9 17.9 0 0 1-7.28 1.6zm-5.17-11.65h8.22c-.24-3.33-1.73-4.65-4-4.65s-3.83 1.46-4.22 4.65zm32.04-.73l-3.68 11.93h-5.34l-6.62-19.17h5.48l3.88 14.11 3.85-14.11h4.85l4 14.11 3.71-14.11h5.34l-6.48 19.17h-5.34zM816.47 1611a1.86 1.86 0 1 1-2 1.87 1.81 1.81 0 0 1 2-1.87zm-1.47 5.63h2.94v14.7H815zm17.66-.37c2.82 0 5 1.71 5 5.31v9.71h-2.94v-9c0-2.27-1-3.39-3.06-3.39a7.24 7.24 0 0 0-4.59 2v10.4h-2.94v-14.7h2.65a12.71 12.71 0 0 0 .21 1.89 8 8 0 0 1 5.67-2.22zm19.49 0c2.83 0 5 1.71 5 5.31v9.71h-2.93v-9c0-2.27-1-3.39-3-3.39a7.11 7.11 0 0 0-4.51 2v10.4h-2.93v-20h2.93v7.1a8.07 8.07 0 0 1 5.44-2.13zm17.55 15.34c-4.75 0-7.66-2.8-7.66-7.66 0-4.51 2.85-7.68 7-7.68s6.48 2.72 6.48 7a9.43 9.43 0 0 1-.13 1.65h-10.3c.32 2.77 1.89 4.11 4.86 4.11a10.17 10.17 0 0 0 4.08-1l.9 2.27a12.15 12.15 0 0 1-5.23 1.31zm-4.59-8.94h7.52c-.19-2.8-1.63-3.92-3.68-3.92s-3.52 1.26-3.84 3.92zm22.11-6.4a4.35 4.35 0 0 1 2.24.59l-.8 2.64a4.7 4.7 0 0 0-1.71-.32 4.05 4.05 0 0 0-3.47 2.8v9.31h-2.93v-14.7h2.58a19.62 19.62 0 0 0 .27 2.3 4.1 4.1 0 0 1 3.82-2.62zm7.54-5.26a1.86 1.86 0 1 1-2 1.87 1.81 1.81 0 0 1 2-1.87zm-1.47 5.63h2.94v14.7h-2.94zm14.17 14.97c-2.65 0-4.43-1.31-4.43-4.24V1619h-2.35v-2.14l2.35-.29v-2.53l2.93-.48v3h4.88v2.44H906v7.79c0 1.73.75 2.24 2.37 2.24a12 12 0 0 0 2.59-.4l.56 2.29a11.76 11.76 0 0 1-4.06.68zm7.67-3.18a18.56 18.56 0 0 0 4.35.67c2.62 0 3.63-.64 3.63-1.65s-.93-1.66-3.65-2.3c-3.47-.82-4.78-2.26-4.78-4.56s2-4.32 5.92-4.32a15.52 15.52 0 0 1 4.78.83l-.59 2.29a14.38 14.38 0 0 0-4-.61c-2.08 0-3.12.69-3.12 1.68s.88 1.63 3.23 2.19c3.54.85 5.2 2.21 5.2 4.53 0 2.67-2.19 4.43-6.25 4.43a17.85 17.85 0 0 1-5.36-.88zm28.14-2.48v5.34h-3v-19.34h6c5.15 0 8.22 2.4 8.22 6.8 0 4.64-3.07 7.2-8.22 7.2zm0-11.44v8.88h2.37c3.63 0 5.68-1.44 5.68-4.64 0-2.88-2-4.24-5.68-4.24zm16.1 13.5a16.07 16.07 0 0 0 5.15 1c3.25 0 4.64-1 4.64-2.69s-1-2.53-4.53-3.47c-4.16-1.12-5.9-3-5.9-5.71 0-3.06 2.64-5.49 7.12-5.49a16.83 16.83 0 0 1 5.55 1l-.66 2.48a15.05 15.05 0 0 0-4.73-.83c-2.93 0-4.24 1.12-4.24 2.67s1.2 2.56 4.27 3.36c4.51 1.18 6.22 3 6.22 5.9 0 3.2-2.59 5.44-7.26 5.44a18.3 18.3 0 0 1-6.32-1.07zm21.79-2.06v5.34h-3v-19.34h6c5.15 0 8.22 2.4 8.22 6.8 0 4.64-3.07 7.2-8.22 7.2zm0-11.44v8.88h2.37c3.63 0 5.68-1.44 5.68-4.64 0-2.88-2-4.24-5.68-4.24zm16.75-2.56h6.64c5.89 0 9.41 3.23 9.41 9.6s-3.52 9.74-9.41 9.74h-6.64zm3 2.56v14.22h3c4.24 0 6.85-1.87 6.85-7.18s-2.59-7-6.85-7zm21.96 9.02v7.76h-3v-19.34h12.32v2.56h-9.28v6.5h8.37v2.51zm14.37 4.48a16 16 0 0 0 5.15 1c3.25 0 4.64-1 4.64-2.69s-1-2.53-4.54-3.47c-4.16-1.12-5.89-3-5.89-5.71 0-3.06 2.64-5.49 7.12-5.49a16.87 16.87 0 0 1 5.55 1l-.67 2.48a15 15 0 0 0-4.72-.83c-2.93 0-4.24 1.12-4.24 2.67s1.2 2.56 4.27 3.36c4.5 1.18 6.21 3 6.21 5.9 0 3.2-2.59 5.44-7.25 5.44a18.36 18.36 0 0 1-6.33-1.07zm24.43-11.74a14.08 14.08 0 0 1 4.64.91l-.72 2.4a9.78 9.78 0 0 0-3.6-.69c-2.88 0-4.62 1.7-4.62 5s1.74 5.06 4.62 5.06a10.12 10.12 0 0 0 3.6-.66l.72 2.4a13.22 13.22 0 0 1-4.64.88c-4.54 0-7.28-2.86-7.28-7.68s2.74-7.62 7.28-7.62zm16.16 0a4.35 4.35 0 0 1 2.24.59l-.8 2.64a4.7 4.7 0 0 0-1.71-.32 4.06 4.06 0 0 0-3.47 2.8v9.31h-2.93v-14.7h2.59a19.68 19.68 0 0 0 .26 2.3 4.1 4.1 0 0 1 3.82-2.62zm12.05 0c4.37 0 7.2 3 7.2 7.6s-2.83 7.74-7.2 7.74-7.23-3.1-7.23-7.74 2.83-7.6 7.23-7.6zm0 12.8c2.64 0 4.21-1.86 4.21-5.2s-1.57-5.09-4.21-5.09-4.24 1.89-4.24 5.09 1.57 5.2 4.24 5.2zm12.32-17.79h2.93v20h-2.93zm9.17 0h2.93v20h-2.93zm14.03 20.01l-7-19.34h3.33l5.39 15.74 5.36-15.74h3.25l-7.06 19.34zm15.81-20.28a1.86 1.86 0 1 1-2 1.87 1.81 1.81 0 0 1 2-1.87zm-1.47 5.63h2.94v14.7h-2.94zm15.71 14.97c-4.74 0-7.65-2.8-7.65-7.66 0-4.51 2.85-7.68 7-7.68s6.48 2.72 6.48 7a9.32 9.32 0 0 1-.14 1.65h-10.29c.32 2.77 1.89 4.11 4.85 4.11a10.13 10.13 0 0 0 4.08-1l.91 2.27a12.19 12.19 0 0 1-5.24 1.31zm-4.58-8.94h7.52c-.19-2.8-1.63-3.92-3.68-3.92s-3.53 1.26-3.84 3.92zm24.82-1.66l-3.23 10.3h-3.2l-5.2-14.7h3.18l3.62 11.52 3.37-11.52h2.9l3.5 11.52 3.49-11.52h3.12l-5.07 14.7H1179z" fill="#00607b"/><rect x="940" y="1413.23" width="120" height="120" rx="60" ry="60" fill="#00607b"/><rect x="414.31" y="555.44" width="120" height="120" rx="60" ry="60" fill="#5ad9f5"/><path d="M499.64 596.46a2 2 0 0 0-2 2v34a2 2 0 0 0 4 0v-34a2 2 0 0 0-2-2zM483 605.91a2 2 0 0 0-.57-1.41l-13.34-13.33a1.94 1.94 0 0 0-1.41-.57h-16.42a4.3 4.3 0 0 0-4.29 4.29V636a4.3 4.3 0 0 0 4.29 4.29h27.43A4.29 4.29 0 0 0 483 636v-30.1zm-13.32-8.5l6.51 6.5h-6.22a.28.28 0 0 1-.29-.28zm9.05 38.89h-27.47a.29.29 0 0 1-.26-.3v-41.13a.29.29 0 0 1 .29-.29h14.38v9a4.29 4.29 0 0 0 4.29 4.28h9V636a.29.29 0 0 1-.27.3zm-239.88 523.42v6.56h-5.31v-25.14h8.81c6.69 0 10.61 3.26 10.61 9.12 0 6.07-3.92 9.46-10.61 9.46zm0-14.49v10.4h2.42c4.06 0 6.24-1.59 6.24-5.37 0-3.5-2.18-5-6.24-5zm20.15 15.92a21.76 21.76 0 0 0 6.73 1.21c3.67 0 5.16-1 5.16-2.77s-1.14-2.74-5.16-3.78c-5.51-1.46-7.77-4.06-7.77-7.6 0-4.22 3.57-7.52 9.81-7.52a24.84 24.84 0 0 1 7.66 1.28l-1.07 4.16a21 21 0 0 0-6.24-1.07c-3.33 0-4.75 1.14-4.75 2.77s1.32 2.74 5 3.64c6 1.49 8.21 4.06 8.21 7.91 0 4.4-3.43 7.35-10.08 7.35a27.94 27.94 0 0 1-8.5-1.35zm29.59-1.43v6.56h-5.3v-25.14h8.8c6.69 0 10.61 3.26 10.61 9.12 0 6.07-3.92 9.46-10.61 9.46zm0-14.49v10.4H291c4.05 0 6.24-1.59 6.24-5.37 0-3.5-2.19-5-6.24-5zm20.56-4.09h9.53c7.66 0 12.2 4.3 12.2 12.52s-4.54 12.62-12.2 12.62h-9.53zm5.3 4.16v16.82h3.16c4.95 0 7.8-2.15 7.8-8.46s-2.81-8.36-7.8-8.36zm28.6 11.55v9.43h-5.3v-25.14h16.67v4.41h-11.37v7.14h10.23v4.16zm23.3 2.87v6.56H361v-25.14h8.81c6.69 0 10.61 3.26 10.61 9.12 0 6.07-3.92 9.46-10.61 9.46zm0-14.49v10.4h2.43c4.05 0 6.24-1.59 6.24-5.37 0-3.5-2.19-5-6.24-5zm30.65 9.99c0-3-1.38-4.54-4.5-4.54a15.17 15.17 0 0 0-5.65 1.11l-1.11-3.51a21.25 21.25 0 0 1 7.87-1.62c5.89 0 8.49 2.87 8.49 7.9v11.72h-4.51l-.41-2a8.52 8.52 0 0 1-6.07 2.46c-4.12 0-6.38-2.46-6.38-5.72 0-3.85 2.95-6 7.84-6a26.14 26.14 0 0 1 4.43.41zm-3.25 2.91c-3 0-4.1 1.11-4.1 2.53s.91 2.29 2.88 2.29a7 7 0 0 0 4.47-1.84v-2.77a28.63 28.63 0 0 0-3.26-.21zm23 13.8c-6.37 0-8.73-1.81-8.73-4.54a3.91 3.91 0 0 1 2.53-3.61 3.05 3.05 0 0 1-1.42-2.6 3.43 3.43 0 0 1 2.32-3.22 5.24 5.24 0 0 1-3.29-5c0-4.06 3.22-6.27 8.49-6.27h1.21l9.29.31v3.29c-.1 0-1.38-.27-2.7-.48a5.64 5.64 0 0 1 .83 3.12c0 3.92-3.26 6-8.63 6-2.53 0-3 .66-3 1.35s.52 1.11 1.59 1.11c1.63 0 4.2-.24 6.35-.24 3.88 0 5.86 2.11 5.86 4.92-.05 3.81-2.86 5.86-10.7 5.86zm5.83-5.13c0-1-.52-1.67-3-1.67h-2.85a16.83 16.83 0 0 1-3.15-.25 2.1 2.1 0 0 0-1.07 1.81c0 1.21 1.38 2 4.64 2 4.25.08 5.43-.69 5.43-1.89zm-5.93-10.8c2.39 0 3.74-1.15 3.74-3s-1.35-3-3.74-3-3.61 1.11-3.61 3 1.32 3 3.61 3zm25.2 10.73c-6.55 0-10.4-3.68-10.4-10 0-6.07 3.78-10 9.5-10s8.84 3.57 8.84 9.11a12.69 12.69 0 0 1-.17 2.32h-12.93c.41 3.23 2.28 4.65 5.85 4.65a14.08 14.08 0 0 0 5.34-1.21l1.25 3.53a17.86 17.86 0 0 1-7.28 1.6zm-5.16-11.65h8.21c-.24-3.33-1.73-4.65-4-4.65s-3.83 1.46-4.21 4.65zm19.13 6.07a21.76 21.76 0 0 0 6.73 1.21c3.67 0 5.16-1 5.16-2.77s-1.14-2.74-5.16-3.78c-5.51-1.46-7.77-4.06-7.77-7.6 0-4.22 3.57-7.52 9.81-7.52a25 25 0 0 1 7.67 1.28l-1.08 4.16a21 21 0 0 0-6.24-1.07c-3.33 0-4.75 1.14-4.75 2.77s1.32 2.74 5 3.64c6 1.49 8.22 4.06 8.22 7.91 0 4.4-3.44 7.35-10.09 7.35a27.94 27.94 0 0 1-8.5-1.35zm32.35-14.49a18.1 18.1 0 0 1 6.2 1.17l-1 3.78a12.6 12.6 0 0 0-4.3-.83c-3.39 0-5.47 2-5.47 5.89s2.08 5.9 5.47 5.9a12.41 12.41 0 0 0 4.3-.8l1 3.78a17.28 17.28 0 0 1-6.2 1.18c-6.17 0-9.81-3.78-9.81-10.06s3.64-10.01 9.81-10.01zm21.73 0a5.75 5.75 0 0 1 2.84.72l-1.14 4.86a5.74 5.74 0 0 0-2.43-.56 4.76 4.76 0 0 0-4.09 3v11.65H500v-19.23h4.58a25.9 25.9 0 0 0 .41 3 5.25 5.25 0 0 1 4.91-3.44zm15.81 0c6.1 0 9.81 3.88 9.81 9.94s-3.71 10.13-9.81 10.13-9.88-4-9.88-10.13 3.71-9.94 9.88-9.94zm0 16.18c2.91 0 4.61-2.11 4.61-6.24 0-4-1.7-6.1-4.61-6.1s-4.68 2.12-4.68 6.1c-.03 4.13 1.7 6.24 4.68 6.24zm15.84-22.56h5.06v26h-5.06zm12.45 0h5v26h-5zm14.9-1.28a3 3 0 1 1-3.19 3 2.92 2.92 0 0 1 3.19-3zm-2.53 8.11h5.07v19.18h-5.07zm24.48-.45c3.64 0 6.55 2.14 6.55 7v12.59h-5.1V1155c0-2.6-1.14-3.85-3.46-3.85a8 8 0 0 0-5 2.08v13h-5.06v-19.13h4.64a13.74 13.74 0 0 0 .35 2.57 9.47 9.47 0 0 1 7.08-3.01zm21.21 25.27c-6.37 0-8.73-1.81-8.73-4.54a3.91 3.91 0 0 1 2.53-3.61 3.05 3.05 0 0 1-1.42-2.6 3.43 3.43 0 0 1 2.32-3.22 5.23 5.23 0 0 1-3.29-5c0-4.06 3.22-6.27 8.49-6.27h1.21l9.29.31v3.29c-.1 0-1.38-.27-2.7-.48a5.72 5.72 0 0 1 .83 3.12c0 3.92-3.26 6-8.63 6-2.53 0-3.05.66-3.05 1.35s.52 1.11 1.59 1.11c1.63 0 4.2-.24 6.35-.24 3.88 0 5.86 2.11 5.86 4.92 0 3.81-2.81 5.86-10.65 5.86zm5.83-5.13c0-1-.52-1.67-3-1.67h-2.85a16.76 16.76 0 0 1-3.15-.25 2.11 2.11 0 0 0-1.08 1.81c0 1.21 1.39 2 4.65 2 4.25.08 5.43-.69 5.43-1.89zM612 1156c2.39 0 3.74-1.15 3.74-3s-1.35-3-3.74-3-3.61 1.11-3.61 3 1.28 3 3.61 3zm21.66 10.28l-8.91-25.14h5.86l6 19.49 6-19.49h5.72l-8.94 25.14zm21.95-27.28a3 3 0 1 1-3.19 3 2.91 2.91 0 0 1 3.19-3zm-2.54 8.11h5.07v19.18h-5.07zm21.53 19.62c-6.55 0-10.4-3.68-10.4-10 0-6.07 3.78-10 9.5-10s8.84 3.57 8.84 9.11a12.69 12.69 0 0 1-.17 2.32h-12.93c.41 3.23 2.28 4.65 5.85 4.65a14.08 14.08 0 0 0 5.34-1.21l1.25 3.53a17.86 17.86 0 0 1-7.28 1.6zm-5.16-11.65h8.21c-.24-3.33-1.73-4.65-4-4.65s-3.83 1.46-4.21 4.65zm32.03-.73l-3.68 11.93h-5.33l-6.63-19.18h5.48l3.89 14.12 3.8-14.12h4.86l4 14.12 3.71-14.12h5.34l-6.48 19.18h-5.34z" fill="#00607b"/><rect x="414.31" y="984.23" width="120" height="120" rx="60" ry="60" fill="#00607b"/><path d="M499.64 1025.25a2 2 0 0 0-2 2v34a2 2 0 0 0 4 0v-34a2 2 0 0 0-2-2zm-16.64 9.46a2 2 0 0 0-.57-1.42L469.05 1020a2 2 0 0 0-1.41-.57h-16.38a4.3 4.3 0 0 0-4.29 4.29v41.14a4.3 4.3 0 0 0 4.29 4.29h27.43a4.29 4.29 0 0 0 4.28-4.29v-30.09zm-13.32-8.51l6.51 6.51h-6.22a.29.29 0 0 1-.29-.29zm9.05 38.89h-27.47a.29.29 0 0 1-.29-.29v-41.14a.29.29 0 0 1 .29-.29h14.38v9.05a4.3 4.3 0 0 0 4.29 4.29h9v28.09a.29.29 0 0 1-.24.29z" fill="#5ad9f5"/><path fill="none" stroke="#00607b" stroke-linejoin="round" stroke-width="3" d="M474.31 1207.8v168.73"/><path fill="#00607b" d="M462.04 1366.59l2.19-2.05 10.07 10.84 10.08-10.84 2.19 2.05-12.27 13.19-12.26-13.19z"/><path fill="none" stroke="#00607b" stroke-linejoin="round" stroke-width="3" d="M474.31 1630.93v168.73"/><path fill="#00607b" d="M462.04 1789.72l2.19-2.05 10.07 10.84 10.08-10.84 2.19 2.05-12.27 13.19-12.26-13.19zm-145.04-201v6.56h-5.31v-25.14h8.81c6.69 0 10.61 3.26 10.61 9.12 0 6.07-3.92 9.46-10.61 9.46zm0-14.49v10.4h2.43c4.05 0 6.24-1.59 6.24-5.37 0-3.5-2.19-5-6.24-5zm20.05 15.92a21.82 21.82 0 0 0 6.73 1.21c3.68 0 5.17-1 5.17-2.77s-1.15-2.74-5.17-3.78c-5.51-1.46-7.76-4.06-7.76-7.6 0-4.22 3.57-7.52 9.81-7.52a24.89 24.89 0 0 1 7.66 1.28l-1.08 4.16a21.34 21.34 0 0 0-6.24-1.07c-3.32 0-4.75 1.15-4.75 2.77s1.32 2.74 5 3.64c6 1.49 8.22 4.06 8.22 7.91 0 4.4-3.43 7.35-10.09 7.35a27.82 27.82 0 0 1-8.49-1.35zm29.65-1.43v6.56h-5.31v-25.14h8.81c6.69 0 10.6 3.26 10.6 9.12 0 6.07-3.91 9.46-10.6 9.46zm0-14.49v10.4h2.42c4.06 0 6.24-1.59 6.24-5.37 0-3.5-2.18-5-6.24-5zm20.55-4.09h9.54c7.66 0 12.2 4.3 12.2 12.52s-4.54 12.62-12.2 12.62h-9.54zm5.31 4.16v16.82h3.15c5 0 7.8-2.15 7.8-8.46s-2.81-8.36-7.8-8.36zm28.6 11.55v9.43h-5.31v-25.14h16.68v4.41h-11.37v7.14h10.22v4.16zm17.54 4.3a21.75 21.75 0 0 0 6.72 1.21c3.68 0 5.17-1 5.17-2.77s-1.15-2.74-5.17-3.78c-5.51-1.46-7.76-4.06-7.76-7.6 0-4.22 3.57-7.52 9.81-7.52a24.89 24.89 0 0 1 7.66 1.28l-1.08 4.16a21.28 21.28 0 0 0-6.24-1.07c-3.32 0-4.75 1.15-4.75 2.77s1.32 2.74 5 3.64c6 1.49 8.22 4.06 8.22 7.91 0 4.4-3.43 7.35-10.09 7.35a27.82 27.82 0 0 1-8.49-1.35zm32.3-14.49a18.4 18.4 0 0 1 6.21 1.17l-1 3.78a12.65 12.65 0 0 0-4.3-.83c-3.4 0-5.48 2-5.48 5.89s2.08 5.9 5.48 5.9a12.22 12.22 0 0 0 4.3-.8l1 3.78a17.38 17.38 0 0 1-6.21 1.18c-6.17 0-9.81-3.78-9.81-10.06s3.68-10.01 9.81-10.01zm21.78 0a5.75 5.75 0 0 1 2.84.72l-1.14 4.86a5.77 5.77 0 0 0-2.43-.56 4.75 4.75 0 0 0-4.09 3v11.65h-5.06v-19.17h4.57a23.91 23.91 0 0 0 .42 2.94 5.23 5.23 0 0 1 4.89-3.44zm15.8 0c6.11 0 9.82 3.88 9.82 9.95s-3.71 10.12-9.82 10.12-9.87-4-9.87-10.12 3.7-9.95 9.87-9.95zm0 16.19c2.92 0 4.62-2.12 4.62-6.24s-1.7-6.11-4.62-6.11-4.68 2.12-4.68 6.11 1.7 6.24 4.68 6.24zm15.85-22.57h5.06v26h-5.06zm12.41 0h5.06v26h-5.06zm18.72 26l-8.91-25.14h5.86l6 19.49 6-19.49h5.72l-9 25.14zM577.5 1568a3 3 0 1 1-3.19 3 2.92 2.92 0 0 1 3.19-3zm-2.53 8.12H580v19.17h-5zm21.53 19.61c-6.55 0-10.4-3.68-10.4-10 0-6.07 3.78-10 9.5-10s8.84 3.57 8.84 9.11a11.86 11.86 0 0 1-.18 2.33h-12.93c.42 3.22 2.29 4.64 5.86 4.64a14.17 14.17 0 0 0 5.34-1.21l1.25 3.53a17.9 17.9 0 0 1-7.28 1.6zm-5.17-11.65h8.22c-.24-3.33-1.73-4.65-4-4.65s-3.84 1.46-4.22 4.65zm32.04-.73l-3.68 11.93h-5.34l-6.62-19.17h5.48l3.88 14.11 3.85-14.11h4.85l4 14.11 3.71-14.11h5.34l-6.49 19.17H627z"/><rect x="414.31" y="1413.23" width="120" height="120" rx="60" ry="60" fill="#00607b"/><path d="M265.92 2017.72v6.56h-5.3v-25.14h8.8c6.69 0 10.61 3.26 10.61 9.12 0 6.07-3.92 9.46-10.61 9.46zm0-14.49v10.4h2.43c4 0 6.24-1.59 6.24-5.37 0-3.5-2.19-5-6.24-5zm20.08 15.92a21.75 21.75 0 0 0 6.72 1.21c3.68 0 5.17-1 5.17-2.77s-1.15-2.74-5.17-3.78c-5.51-1.46-7.76-4.06-7.76-7.6 0-4.22 3.57-7.52 9.81-7.52a24.89 24.89 0 0 1 7.66 1.28l-1.08 4.16a21.28 21.28 0 0 0-6.24-1.07c-3.32 0-4.75 1.15-4.75 2.77s1.32 2.74 5 3.64c6 1.49 8.22 4.06 8.22 7.91 0 4.4-3.43 7.35-10.09 7.35a27.82 27.82 0 0 1-8.49-1.35zm29.67-1.43v6.56h-5.31v-25.14h8.81c6.69 0 10.61 3.26 10.61 9.12 0 6.07-3.92 9.46-10.61 9.46zm0-14.49v10.4h2.42c4.06 0 6.24-1.59 6.24-5.37 0-3.5-2.18-5-6.24-5zm20.55-4.09h9.54c7.66 0 12.2 4.3 12.2 12.52s-4.54 12.62-12.2 12.62h-9.54zm5.31 4.16v16.82h3.15c5 0 7.8-2.15 7.8-8.46s-2.81-8.36-7.8-8.36zm28.6 11.55v9.43h-5.31v-25.14h16.68v4.41h-11.37v7.14h10.22v4.16zm28.77-16.16a20.32 20.32 0 0 1 7.21 1.25l-1.11 4.19a19 19 0 0 0-5.27-.9c-4.37 0-7.52 2.81-7.52 8.43s3.15 8.49 7.49 8.49a19.88 19.88 0 0 0 5.37-.83l1.14 4.23a22.18 22.18 0 0 1-7.31 1.18c-7.45 0-12.24-4.89-12.24-13.07s4.79-12.97 12.24-12.97zm21.67 5.97c6.1 0 9.81 3.88 9.81 9.95s-3.71 10.12-9.81 10.12-9.88-4-9.88-10.12 3.71-9.95 9.88-9.95zm0 16.19c2.91 0 4.61-2.12 4.61-6.24s-1.7-6.11-4.61-6.11-4.68 2.12-4.68 6.11 1.7 6.24 4.68 6.24zm27.59-16.19a5.79 5.79 0 0 1 5.62 3.43 9.5 9.5 0 0 1 7.31-3.43c3.44 0 6.28 2.14 6.28 7v12.59h-5.1V2013c0-2.6-1-3.85-3.15-3.85a7.23 7.23 0 0 0-4.68 2.08v13h-5.1V2013c0-2.6-1.07-3.85-3.15-3.85a7.43 7.43 0 0 0-4.72 2.08v13h-5.06v-19.17h4.64a15.65 15.65 0 0 0 .35 2.56 8.9 8.9 0 0 1 6.76-2.96zm31.38 24.82h-5.07v-24.37h4.65a15.18 15.18 0 0 0 .34 2.56 8.29 8.29 0 0 1 6.63-3c4.43 0 7.45 2.94 7.45 9.63s-3.5 10.44-8.35 10.44a10.23 10.23 0 0 1-5.65-1.74zm4.4-8.77c2.77 0 4.36-2 4.36-6.14 0-3.64-1.38-5.41-4.16-5.41a7.24 7.24 0 0 0-4.6 2v8.11a8 8 0 0 0 4.4 1.44zm24.19-16.05c6.11 0 9.82 3.88 9.82 9.95s-3.71 10.12-9.82 10.12-9.88-4-9.88-10.12 3.75-9.95 9.88-9.95zm0 16.19c2.92 0 4.62-2.12 4.62-6.24s-1.7-6.11-4.62-6.11-4.67 2.12-4.67 6.11 1.69 6.24 4.67 6.24zm22.43 3.88c-4 0-6.83-2.15-6.83-7.18v-12.44h5.1v11.68c0 2.7 1.07 3.81 3.22 3.81a8.44 8.44 0 0 0 5-1.8v-13.69h5.09v19.17h-4.33l-.52-1.91a11.44 11.44 0 0 1-6.73 2.36zm30.96-20.07c3.64 0 6.55 2.14 6.55 7v12.59H563V2013c0-2.6-1.15-3.85-3.47-3.85a8 8 0 0 0-5 2.08v13h-5.06v-19.17h4.64a15.65 15.65 0 0 0 .35 2.56 9.47 9.47 0 0 1 7.06-2.96zm26.35-6.38H593v26h-4.4l-.52-2.15a9.6 9.6 0 0 1-6.56 2.6c-4.64 0-7.66-3-7.66-9.64 0-6.83 3.5-10.43 8.11-10.43a9.2 9.2 0 0 1 5.9 2zm-4.44 10.72c-2.81 0-4.37 2-4.37 6.18 0 3.67 1.46 5.47 4.2 5.47a7 7 0 0 0 4.61-2v-8.18a7.54 7.54 0 0 0-4.44-1.47zm23.16 15.28l-8.91-25.14h5.86l6 19.49 6-19.49h5.73l-8.95 25.14zm21.94-27.28a3 3 0 1 1-3.19 3 2.92 2.92 0 0 1 3.19-3zm-2.53 8.12h5.06v19.17H626zm21.53 19.61c-6.56 0-10.4-3.68-10.4-10 0-6.07 3.78-10 9.49-10s8.85 3.57 8.85 9.11a11.86 11.86 0 0 1-.18 2.33h-12.93c.42 3.22 2.29 4.64 5.86 4.64a14.17 14.17 0 0 0 5.34-1.21l1.25 3.53a17.9 17.9 0 0 1-7.28 1.6zm-5.17-11.65h8.22c-.24-3.33-1.74-4.65-4-4.65s-3.84 1.46-4.22 4.65zm32.03-.73l-3.67 11.93h-5.34l-6.62-19.17h5.48l3.88 14.11 3.85-14.11h4.85l4 14.11 3.71-14.11h5.34l-6.49 19.17H678z" fill="#00607b"/><path d="M499.64 1454.25a2 2 0 0 0-2 2v34a2 2 0 0 0 4 0v-34a2 2 0 0 0-2-2zm-16.64 9.46a2 2 0 0 0-.57-1.42L469.05 1449a2 2 0 0 0-1.41-.57h-16.38a4.3 4.3 0 0 0-4.29 4.29v41.14a4.3 4.3 0 0 0 4.29 4.29h27.43a4.29 4.29 0 0 0 4.28-4.29v-30.09zm-13.32-8.51l6.51 6.51h-6.22a.29.29 0 0 1-.29-.29zm9.05 38.89h-27.47a.29.29 0 0 1-.29-.29v-41.14a.29.29 0 0 1 .29-.29h14.38v9.05a4.3 4.3 0 0 0 4.29 4.29h9v28.09a.29.29 0 0 1-.24.29z" fill="#5ad9f5"/><rect x="1465.69" y="555.44" width="120" height="120" rx="60" ry="60" fill="#5ad9f5"/><path d="M1290.45 1588.72v6.56h-5.3v-25.14h8.85c6.69 0 10.6 3.26 10.6 9.12 0 6.07-3.91 9.46-10.6 9.46zm0-14.49v10.4h2.43c4.06 0 6.24-1.59 6.24-5.37 0-3.5-2.18-5-6.24-5zm20.11 15.92a21.76 21.76 0 0 0 6.73 1.21c3.67 0 5.16-1 5.16-2.77s-1.14-2.74-5.16-3.78c-5.52-1.46-7.77-4.06-7.77-7.6 0-4.22 3.57-7.52 9.81-7.52a24.89 24.89 0 0 1 7.67 1.31l-1.07 4.16a21.34 21.34 0 0 0-6.24-1.07c-3.33 0-4.75 1.15-4.75 2.77s1.32 2.74 5 3.64c6 1.49 8.21 4.06 8.21 7.91 0 4.4-3.43 7.35-10.09 7.35a27.82 27.82 0 0 1-8.49-1.35zm29.64-1.43v6.56h-5.3v-25.14h8.8c6.69 0 10.61 3.26 10.61 9.12 0 6.07-3.92 9.46-10.61 9.46zm0-14.49v10.4h2.43c4 0 6.24-1.59 6.24-5.37 0-3.5-2.19-5-6.24-5zm20.56-4.09h9.53c7.66 0 12.2 4.3 12.2 12.52s-4.54 12.62-12.2 12.62h-9.53zm5.3 4.16v16.82h3.16c5 0 7.8-2.15 7.8-8.46s-2.81-8.36-7.8-8.36zm28.6 11.55v9.43h-5.3v-25.14H1406v4.41h-11.37v7.14h10.23v4.16zm28.77-16.16a20.42 20.42 0 0 1 7.22 1.25l-1.11 4.19a19.08 19.08 0 0 0-5.27-.9c-4.37 0-7.53 2.81-7.53 8.43s3.16 8.49 7.49 8.49a19.9 19.9 0 0 0 5.38-.83l1.14 4.23a22.28 22.28 0 0 1-7.32 1.18c-7.45 0-12.23-4.89-12.23-13.07s4.8-12.97 12.23-12.97zm21.67 5.97c6.1 0 9.81 3.88 9.81 9.95s-3.71 10.12-9.81 10.12-9.88-4-9.88-10.12 3.71-9.95 9.88-9.95zm0 16.19c2.91 0 4.61-2.12 4.61-6.24s-1.7-6.11-4.61-6.11-4.68 2.12-4.68 6.11 1.7 6.24 4.68 6.24zm27.9-16.19c3.64 0 6.55 2.14 6.55 7v12.59h-5.1V1584c0-2.6-1.14-3.85-3.46-3.85a8 8 0 0 0-5 2.08v13h-5.07v-19.17h4.65a13.75 13.75 0 0 0 .35 2.56 9.47 9.47 0 0 1 7.08-2.96zm20.63 20.07c-3.71 0-6.27-1.77-6.27-6V1580h-2.81v-3.5l2.81-.38v-3.26l5.1-.83v4.09h6.13v3.88h-6.13v8.91c0 2.15.86 2.77 2.8 2.77a13.23 13.23 0 0 0 3.23-.52l.8 3.61a17.37 17.37 0 0 1-5.66.96zm19.73 0c-6.55 0-10.4-3.68-10.4-10 0-6.07 3.78-10 9.5-10s8.84 3.57 8.84 9.11a11.86 11.86 0 0 1-.18 2.33h-12.93c.42 3.22 2.29 4.64 5.86 4.64a14.12 14.12 0 0 0 5.34-1.21l1.25 3.53a17.9 17.9 0 0 1-7.28 1.6zm-5.17-11.65h8.22c-.24-3.33-1.73-4.65-4-4.65s-3.83 1.46-4.22 4.65zm31.17-8.42c3.64 0 6.55 2.14 6.55 7v12.59h-5.1V1584c0-2.6-1.14-3.85-3.46-3.85a8 8 0 0 0-5 2.08v13h-5.07v-19.17h4.65a13.75 13.75 0 0 0 .35 2.56 9.47 9.47 0 0 1 7.08-2.96zm20.64 20.07c-3.7 0-6.27-1.77-6.27-6V1580h-2.81v-3.5l2.81-.38v-3.26l5.1-.83v4.09h6.13v3.88h-6.13v8.91c0 2.15.86 2.77 2.8 2.77a13.23 13.23 0 0 0 3.23-.52l.79 3.61a17.26 17.26 0 0 1-5.65.96zm10.63-5.58a21.75 21.75 0 0 0 6.72 1.21c3.68 0 5.17-1 5.17-2.77s-1.15-2.74-5.17-3.78c-5.51-1.46-7.76-4.06-7.76-7.6 0-4.22 3.57-7.52 9.81-7.52a24.89 24.89 0 0 1 7.66 1.28l-1.08 4.16a21.28 21.28 0 0 0-6.24-1.07c-3.32 0-4.74 1.15-4.74 2.77s1.31 2.74 5 3.64c6 1.49 8.22 4.06 8.22 7.91 0 4.4-3.43 7.35-10.09 7.35a27.82 27.82 0 0 1-8.49-1.35zm32.37-14.49a18.4 18.4 0 0 1 6.21 1.17l-1 3.78a12.65 12.65 0 0 0-4.3-.83c-3.4 0-5.48 2-5.48 5.89s2.08 5.9 5.48 5.9a12.27 12.27 0 0 0 4.3-.8l1 3.78a17.38 17.38 0 0 1-6.21 1.18c-6.17 0-9.81-3.78-9.81-10.06s3.61-10.01 9.81-10.01zm21.71 0a5.75 5.75 0 0 1 2.84.72l-1.15 4.86a5.69 5.69 0 0 0-2.42-.56 4.75 4.75 0 0 0-4.09 3v11.65h-5.06v-19.17h4.57a23.91 23.91 0 0 0 .42 2.94 5.23 5.23 0 0 1 4.89-3.44zm15.8 0c6.11 0 9.82 3.88 9.82 9.95s-3.71 10.12-9.82 10.12-9.88-4-9.88-10.12 3.71-9.95 9.88-9.95zm0 16.19c2.92 0 4.61-2.12 4.61-6.24s-1.69-6.11-4.61-6.11-4.68 2.12-4.68 6.11 1.7 6.24 4.68 6.24zm15.85-22.57h5.06v26h-5.06zm12.41 0h5.06v26h-5.06zm18.72 26l-8.91-25.14h5.86l6 19.49 6-19.49h5.72l-9 25.14zm21.94-27.28a3 3 0 1 1-3.19 3 2.92 2.92 0 0 1 3.19-3zm-2.53 8.12h5.1v19.17h-5.06zm21.53 19.61c-6.55 0-10.4-3.68-10.4-10 0-6.07 3.78-10 9.5-10s8.84 3.57 8.84 9.11a11.86 11.86 0 0 1-.18 2.33h-12.93c.42 3.22 2.29 4.64 5.86 4.64a14.17 14.17 0 0 0 5.34-1.21l1.25 3.53a17.9 17.9 0 0 1-7.28 1.6zm-5.17-11.65h8.22c-.24-3.33-1.73-4.65-4-4.65s-3.84 1.46-4.22 4.65zm32.03-.73l-3.67 11.93h-5.34l-6.62-19.17h5.48l3.88 14.11 3.85-14.11h4.85l4 14.11 3.71-14.11h5.34l-6.49 19.17h-5.33zM1342.83 1611a1.86 1.86 0 1 1-1.95 1.87 1.82 1.82 0 0 1 1.95-1.87zm-1.47 5.63h2.93v14.7h-2.93zm17.64-.37c2.83 0 5 1.71 5 5.31v9.71h-2.94v-9c0-2.27-1-3.39-3.07-3.39a7.21 7.21 0 0 0-4.58 2v10.4h-2.94v-14.7h2.64a14.17 14.17 0 0 0 .22 1.89 8 8 0 0 1 5.67-2.22zm19.51 0c2.82 0 5 1.71 5 5.31v9.71h-2.93v-9c0-2.27-1-3.39-3-3.39a7.11 7.11 0 0 0-4.51 2v10.4h-2.93v-20h2.86v7.1a8.07 8.07 0 0 1 5.51-2.13zm17.54 15.34c-4.74 0-7.65-2.8-7.65-7.66 0-4.51 2.85-7.68 7-7.68s6.48 2.72 6.48 7a9.43 9.43 0 0 1-.13 1.65h-10.3c.32 2.77 1.89 4.11 4.85 4.11a10.22 10.22 0 0 0 4.09-1l.9 2.27a12.19 12.19 0 0 1-5.24 1.31zm-4.58-8.94h7.53c-.19-2.8-1.63-3.92-3.68-3.92s-3.53 1.26-3.85 3.92zm22.1-6.4a4.3 4.3 0 0 1 2.24.59l-.8 2.64a4.65 4.65 0 0 0-1.7-.32 4.05 4.05 0 0 0-3.47 2.8v9.31h-2.93v-14.7h2.58a19.62 19.62 0 0 0 .27 2.3 4.1 4.1 0 0 1 3.81-2.62zm7.55-5.26a1.86 1.86 0 1 1-1.95 1.87 1.81 1.81 0 0 1 1.95-1.87zm-1.47 5.63h2.94v14.7h-2.94zm14.16 14.97c-2.64 0-4.42-1.31-4.42-4.24V1619H1427v-2.14l2.35-.29v-2.53l2.93-.48v3h4.88v2.44h-4.88v7.79c0 1.73.75 2.24 2.37 2.24a12 12 0 0 0 2.59-.4l.56 2.29a11.86 11.86 0 0 1-3.99.68zm7.68-3.18a18.56 18.56 0 0 0 4.35.67c2.61 0 3.63-.64 3.63-1.65s-.94-1.66-3.66-2.3c-3.46-.82-4.77-2.26-4.77-4.56s2-4.32 5.92-4.32a15.4 15.4 0 0 1 4.77.83l-.58 2.29a14.38 14.38 0 0 0-4-.61c-2.08 0-3.12.69-3.12 1.68s.88 1.63 3.22 2.19c3.55.85 5.21 2.21 5.21 4.53 0 2.67-2.19 4.43-6.25 4.43a17.85 17.85 0 0 1-5.36-.88zm28.13-2.48v5.34h-3v-19.34h6c5.15 0 8.21 2.4 8.21 6.8 0 4.64-3.06 7.2-8.21 7.2zm0-11.44v8.88h2.38c3.63 0 5.68-1.44 5.68-4.64 0-2.88-2-4.24-5.68-4.24zm16.11 13.5a16.07 16.07 0 0 0 5.15 1c3.25 0 4.64-1 4.64-2.69s-1-2.53-4.53-3.47c-4.16-1.12-5.9-3-5.9-5.71 0-3.06 2.64-5.49 7.12-5.49a16.87 16.87 0 0 1 5.55 1l-.67 2.48a14.93 14.93 0 0 0-4.72-.83c-2.93 0-4.24 1.12-4.24 2.67s1.2 2.56 4.27 3.36c4.51 1.18 6.21 3 6.21 5.9 0 3.2-2.58 5.44-7.25 5.44a18.3 18.3 0 0 1-6.32-1.07zm21.79-2.06v5.34h-3v-19.34h6c5.15 0 8.22 2.4 8.22 6.8 0 4.64-3.07 7.2-8.22 7.2zm0-11.44v8.88h2.37c3.63 0 5.68-1.44 5.68-4.64 0-2.88-2-4.24-5.68-4.24zm16.74-2.56h6.65c5.89 0 9.41 3.23 9.41 9.6s-3.52 9.74-9.41 9.74h-6.65zm3 2.56v14.22h3c4.24 0 6.85-1.87 6.85-7.18s-2.59-7-6.85-7zm21.96 9.02v7.76h-3v-19.34h12.33v2.56h-9.29v6.5h8.38v2.51zm14.38 4.48a16 16 0 0 0 5.14 1c3.26 0 4.65-1 4.65-2.69s-1.05-2.53-4.54-3.47c-4.16-1.12-5.89-3-5.89-5.71 0-3.06 2.64-5.49 7.12-5.49a16.87 16.87 0 0 1 5.55 1l-.67 2.48a15 15 0 0 0-4.72-.83c-2.94 0-4.24 1.12-4.24 2.67s1.2 2.56 4.26 3.36c4.51 1.18 6.22 3 6.22 5.9 0 3.2-2.59 5.44-7.26 5.44a18.34 18.34 0 0 1-6.32-1.07zm24.4-11.74a14.08 14.08 0 0 1 4.64.91l-.72 2.4a9.78 9.78 0 0 0-3.6-.69c-2.89 0-4.62 1.7-4.62 5s1.73 5.06 4.62 5.06a10.12 10.12 0 0 0 3.6-.66l.72 2.4a13.22 13.22 0 0 1-4.64.88c-4.54 0-7.29-2.86-7.29-7.68s2.78-7.62 7.29-7.62zm16.18 0a4.3 4.3 0 0 1 2.24.59l-.8 2.64a4.65 4.65 0 0 0-1.7-.32 4.05 4.05 0 0 0-3.47 2.8v9.31h-2.93v-14.7h2.58a19.62 19.62 0 0 0 .27 2.3 4.1 4.1 0 0 1 3.81-2.62zm12.06 0c4.37 0 7.2 3 7.2 7.6s-2.83 7.74-7.2 7.74-7.23-3.1-7.23-7.74 2.83-7.6 7.23-7.6zm0 12.8c2.64 0 4.21-1.86 4.21-5.2s-1.57-5.09-4.21-5.09-4.24 1.89-4.24 5.09 1.57 5.2 4.24 5.2zm12.32-17.79h2.93v20h-2.93zm9.17 0h2.93v20h-2.93zm14.03 20.01l-7-19.34h3.33l5.39 15.74 5.36-15.74h3.25l-7.07 19.34zm15.81-20.28a1.86 1.86 0 1 1-2 1.87 1.81 1.81 0 0 1 2-1.87zm-1.47 5.63h2.9v14.7h-2.94zm15.71 14.97c-4.75 0-7.65-2.8-7.65-7.66 0-4.51 2.85-7.68 7-7.68s6.48 2.72 6.48 7a9.43 9.43 0 0 1-.13 1.65h-10.31c.32 2.77 1.89 4.11 4.85 4.11a10.17 10.17 0 0 0 4.08-1l.91 2.27a12.19 12.19 0 0 1-5.23 1.31zm-4.59-8.94h7.53c-.19-2.8-1.63-3.92-3.69-3.92s-3.52 1.26-3.84 3.92zm24.83-1.66l-3.23 10.3h-3.2l-5.2-14.7h3.18l3.62 11.52 3.36-11.52h2.91l3.5 11.52 3.49-11.52h3.12l-5.07 14.7h-3.2z" fill="#00607b"/><rect x="1465.69" y="1413.23" width="120" height="120" rx="60" ry="60" fill="#00607b"/><rect x="414.31" y="1842.23" width="120" height="120" rx="60" ry="60" fill="#00607b"/><path fill="none" stroke="#00607b" stroke-linejoin="round" stroke-width="3" d="M1525.69 1667.93v131.73"/><path fill="#00607b" d="M1513.42 1789.72l2.2-2.05 10.07 10.84 10.07-10.84 2.2 2.05-12.27 13.19-12.27-13.19zm-296.81 228v6.56h-5.31v-25.14h8.81c6.69 0 10.61 3.26 10.61 9.12 0 6.07-3.92 9.46-10.61 9.46zm0-14.49v10.4h2.39c4.06 0 6.24-1.59 6.24-5.37 0-3.5-2.18-5-6.24-5zm20.1 15.92a21.82 21.82 0 0 0 6.73 1.21c3.67 0 5.16-1 5.16-2.77s-1.14-2.74-5.16-3.78c-5.51-1.46-7.77-4.06-7.77-7.6 0-4.22 3.57-7.52 9.81-7.52a25 25 0 0 1 7.67 1.28l-1.08 4.16a21.34 21.34 0 0 0-6.24-1.07c-3.33 0-4.75 1.15-4.75 2.77s1.32 2.74 5 3.64c6 1.49 8.21 4.06 8.21 7.91 0 4.4-3.43 7.35-10.08 7.35a27.94 27.94 0 0 1-8.5-1.35zm29.64-1.43v6.56h-5.3v-25.14h8.8c6.69 0 10.61 3.26 10.61 9.12 0 6.07-3.92 9.46-10.61 9.46zm0-14.49v10.4h2.43c4 0 6.24-1.59 6.24-5.37 0-3.5-2.19-5-6.24-5zm20.56-4.09h9.53c7.66 0 12.21 4.3 12.21 12.52s-4.55 12.62-12.21 12.62h-9.53zm5.3 4.16v16.82h3.16c5 0 7.8-2.15 7.8-8.46s-2.81-8.36-7.8-8.36zm28.6 11.55v9.43h-5.3v-25.14h16.67v4.41h-11.37v7.14H1331v4.16zm17.54 4.3a21.82 21.82 0 0 0 6.73 1.21c3.67 0 5.17-1 5.17-2.77s-1.15-2.74-5.17-3.78c-5.51-1.46-7.77-4.06-7.77-7.6 0-4.22 3.58-7.52 9.82-7.52a24.89 24.89 0 0 1 7.66 1.28l-1.08 4.16a21.34 21.34 0 0 0-6.24-1.07c-3.33 0-4.75 1.15-4.75 2.77s1.32 2.74 5 3.64c6 1.49 8.22 4.06 8.22 7.91 0 4.4-3.44 7.35-10.09 7.35a27.94 27.94 0 0 1-8.5-1.35zm26.39-22.15a3 3 0 1 1-3.19 3 2.92 2.92 0 0 1 3.19-3zm-2.53 8.12h5.06v19.17h-5.06zm24.47-.46c3.64 0 6.55 2.14 6.55 7v12.59h-5.09V2013c0-2.6-1.15-3.85-3.47-3.85a8 8 0 0 0-5 2.08v13h-5.06v-19.17h4.64a14.64 14.64 0 0 0 .35 2.56 9.47 9.47 0 0 1 7.08-2.96zm21.22 25.27c-6.38 0-8.74-1.8-8.74-4.54a3.91 3.91 0 0 1 2.53-3.61 3 3 0 0 1-1.42-2.6 3.43 3.43 0 0 1 2.32-3.22 5.24 5.24 0 0 1-3.29-5c0-4.06 3.22-6.27 8.49-6.27h1.21l9.3.31v3.29c-.11 0-1.39-.27-2.71-.48a5.64 5.64 0 0 1 .83 3.12c0 3.92-3.25 6-8.63 6-2.53 0-3 .66-3 1.35s.52 1.11 1.6 1.11c1.63 0 4.19-.24 6.34-.24 3.88 0 5.86 2.11 5.86 4.92-.05 3.81-2.86 5.86-10.69 5.86zm5.82-5.13c0-1-.52-1.67-3-1.67h-2.84a17.82 17.82 0 0 1-3.16-.24 2.07 2.07 0 0 0-1.07 1.8c0 1.21 1.38 2 4.64 2 4.25.08 5.43-.69 5.43-1.89zm-5.93-10.85c2.39 0 3.75-1.15 3.75-3s-1.36-3-3.75-3-3.6 1.11-3.6 3 1.31 3.05 3.6 3.05zm16.09-15.67h5.06v26h-5.06zm21.53 26.45c-6.56 0-10.41-3.68-10.41-10 0-6.07 3.78-10 9.5-10s8.84 3.57 8.84 9.11a12.89 12.89 0 0 1-.17 2.33h-12.93c.42 3.22 2.29 4.64 5.86 4.64a14.17 14.17 0 0 0 5.34-1.21l1.25 3.53a17.94 17.94 0 0 1-7.28 1.6zm-5.17-11.65h8.22c-.25-3.33-1.74-4.65-4-4.65s-3.84 1.46-4.22 4.65zm24.89 4.64v6.56h-5.3v-25.14h8.8c6.69 0 10.61 3.26 10.61 9.12 0 6.07-3.92 9.46-10.61 9.46zm0-14.49v10.4h2.43c4 0 6.24-1.59 6.24-5.37 0-3.5-2.19-5-6.24-5zm30.65 9.99c0-3-1.39-4.54-4.51-4.54a15.17 15.17 0 0 0-5.65 1.11l-1.11-3.5a21 21 0 0 1 7.87-1.63c5.89 0 8.49 2.87 8.49 7.9v11.72h-4.51l-.41-2a8.52 8.52 0 0 1-6.07 2.46c-4.12 0-6.38-2.46-6.38-5.72 0-3.85 3-6 7.84-6a25.27 25.27 0 0 1 4.44.42zm-3.26 2.91c-3 0-4.09 1.11-4.09 2.53s.9 2.29 2.87 2.29a7 7 0 0 0 4.48-1.84v-2.77a29 29 0 0 0-3.26-.21zm23.01 13.8c-6.37 0-8.73-1.8-8.73-4.54a3.91 3.91 0 0 1 2.53-3.61 3 3 0 0 1-1.42-2.6 3.43 3.43 0 0 1 2.32-3.22 5.24 5.24 0 0 1-3.29-5c0-4.06 3.22-6.27 8.49-6.27h1.21l9.29.31v3.29c-.1 0-1.38-.27-2.7-.48a5.64 5.64 0 0 1 .83 3.12c0 3.92-3.26 6-8.63 6-2.53 0-3 .66-3 1.35s.52 1.11 1.59 1.11c1.63 0 4.2-.24 6.35-.24 3.88 0 5.86 2.11 5.86 4.92-.05 3.81-2.86 5.86-10.7 5.86zm5.83-5.13c0-1-.52-1.67-3-1.67h-2.85a17.78 17.78 0 0 1-3.15-.24 2.07 2.07 0 0 0-1.07 1.8c0 1.21 1.38 2 4.64 2 4.25.08 5.43-.69 5.43-1.89zm-5.93-10.85c2.39 0 3.74-1.15 3.74-3s-1.35-3-3.74-3-3.6 1.11-3.6 3 1.31 3.05 3.6 3.05zm25.2 10.78c-6.55 0-10.4-3.68-10.4-10 0-6.07 3.78-10 9.5-10s8.84 3.57 8.84 9.11a12.89 12.89 0 0 1-.17 2.33h-12.93c.41 3.22 2.29 4.64 5.86 4.64a14.17 14.17 0 0 0 5.34-1.21l1.24 3.53a17.86 17.86 0 0 1-7.28 1.6zm-5.16-11.65h8.21c-.24-3.33-1.73-4.65-4-4.65s-3.83 1.46-4.21 4.65zm24.02 11.2l-8.91-25.14h5.86l6 19.49 6-19.49h5.72l-8.94 25.14zm21.95-27.28a3 3 0 1 1-3.19 3 2.91 2.91 0 0 1 3.19-3zm-2.53 8.12h5.09v19.17h-5.06zm21.52 19.61c-6.55 0-10.4-3.68-10.4-10 0-6.07 3.78-10 9.5-10s8.84 3.57 8.84 9.11a12.89 12.89 0 0 1-.17 2.33h-12.93c.41 3.22 2.29 4.64 5.86 4.64a14.07 14.07 0 0 0 5.33-1.21l1.25 3.53a17.86 17.86 0 0 1-7.28 1.6zm-5.16-11.65h8.21c-.24-3.33-1.73-4.65-4-4.65s-3.83 1.46-4.21 4.65zm32.03-.73l-3.68 11.93h-5.33l-6.62-19.17h5.47l3.88 14.11 3.85-14.11h4.86l4 14.11 3.71-14.11h5.34l-6.48 19.17h-5.34zm31.37-13.66a20.32 20.32 0 0 1 7.21 1.25l-1.11 4.19a19 19 0 0 0-5.27-.9c-4.36 0-7.52 2.81-7.52 8.43s3.16 8.49 7.49 8.49a19.82 19.82 0 0 0 5.37-.83l1.15 4.23a22.28 22.28 0 0 1-7.32 1.18c-7.45 0-12.24-4.89-12.24-13.07s4.79-12.97 12.24-12.97zm21.67 5.97c6.1 0 9.81 3.88 9.81 9.95s-3.71 10.12-9.81 10.12-9.88-4-9.88-10.12 3.71-9.95 9.88-9.95zm0 16.19c2.91 0 4.61-2.12 4.61-6.24s-1.7-6.11-4.61-6.11-4.68 2.12-4.68 6.11 1.7 6.24 4.68 6.24zm27.91-16.19c3.64 0 6.55 2.14 6.55 7v12.59h-5.1V2013c0-2.6-1.14-3.85-3.46-3.85a8.07 8.07 0 0 0-5 2.08v13h-5.06v-19.17h4.65a14.65 14.65 0 0 0 .34 2.56 9.49 9.49 0 0 1 7.08-2.96zm20.62 20.07c-3.71 0-6.27-1.77-6.27-6V2009h-2.81v-3.5l2.81-.38v-3.26l5.09-.83v4.09h6.14v3.88h-6.14v8.91c0 2.15.87 2.77 2.81 2.77a13.31 13.31 0 0 0 3.23-.52l.79 3.61a17.26 17.26 0 0 1-5.65.96zm20.49-20.07a5.75 5.75 0 0 1 2.84.72l-1.14 4.86a5.77 5.77 0 0 0-2.43-.56 4.76 4.76 0 0 0-4.09 3v11.65h-5.06v-19.17h4.58a23.94 23.94 0 0 0 .41 2.94 5.23 5.23 0 0 1 4.89-3.44zm15.81 0c6.1 0 9.81 3.88 9.81 9.95s-3.71 10.12-9.81 10.12-9.88-4-9.88-10.12 3.71-9.95 9.88-9.95zm0 16.19c2.91 0 4.61-2.12 4.61-6.24s-1.7-6.11-4.61-6.11-4.68 2.12-4.68 6.11 1.7 6.24 4.68 6.24zm15.83-22.57h5.06v26H1781zm12.42 0h5.06v26h-5.06zm21.58 26.45c-6.55 0-10.4-3.68-10.4-10 0-6.07 3.78-10 9.5-10s8.84 3.57 8.84 9.11a11.86 11.86 0 0 1-.18 2.33h-12.93c.42 3.22 2.29 4.64 5.86 4.64a14.17 14.17 0 0 0 5.34-1.21l1.25 3.53a17.9 17.9 0 0 1-7.28 1.6zm-5.17-11.65h8.17c-.24-3.33-1.73-4.65-4-4.65s-3.84 1.46-4.22 4.65zm28.93-8.42a5.82 5.82 0 0 1 2.85.72l-1.15 4.86a5.69 5.69 0 0 0-2.42-.56 4.75 4.75 0 0 0-4.09 3v11.65h-5.07v-19.17h4.58a23.91 23.91 0 0 0 .42 2.94 5.23 5.23 0 0 1 4.88-3.44z"/><rect x="1465.69" y="1842.23" width="120" height="120" rx="60" ry="60" fill="#00607b"/><path d="M236 2446.72v6.56h-5.3v-25.14h8.8c6.69 0 10.61 3.26 10.61 9.12 0 6.07-3.92 9.46-10.61 9.46zm0-14.49v10.4h2.43c4 0 6.24-1.59 6.24-5.37 0-3.5-2.19-5-6.24-5zm20.08 15.92a21.75 21.75 0 0 0 6.72 1.21c3.68 0 5.17-1 5.17-2.77s-1.15-2.74-5.17-3.78c-5.51-1.46-7.76-4.06-7.76-7.6 0-4.22 3.57-7.52 9.81-7.52a24.89 24.89 0 0 1 7.66 1.28l-1.07 4.16a21.4 21.4 0 0 0-6.24-1.07c-3.33 0-4.75 1.15-4.75 2.77s1.31 2.74 4.95 3.64c6 1.49 8.22 4.06 8.22 7.91 0 4.4-3.43 7.35-10.09 7.35a27.82 27.82 0 0 1-8.49-1.35zm29.64-1.43v6.56h-5.31v-25.14h8.81c6.69 0 10.61 3.26 10.61 9.12 0 6.07-3.92 9.46-10.61 9.46zm0-14.49v10.4h2.42c4.06 0 6.24-1.59 6.24-5.37 0-3.5-2.18-5-6.24-5zm20.55-4.09h9.54c7.66 0 12.2 4.3 12.2 12.52s-4.54 12.62-12.2 12.62h-9.54zm5.31 4.16v16.82h3.15c5 0 7.8-2.15 7.8-8.46s-2.81-8.36-7.8-8.36zm28.6 11.55v9.43h-5.31v-25.14h16.68v4.41h-11.37v7.14h10.22v4.16zm-177.32 20.29h5.3v20.66H179v4.48h-16.14zm30.44 25.59c-6.56 0-10.4-3.68-10.4-10 0-6.07 3.77-10.05 9.49-10.05s8.84 3.57 8.84 9.11a12 12 0 0 1-.17 2.33h-12.93c.42 3.22 2.29 4.64 5.86 4.64a14.17 14.17 0 0 0 5.34-1.21l1.25 3.53a17.9 17.9 0 0 1-7.28 1.65zm-5.17-11.65h8.22c-.25-3.33-1.74-4.65-4-4.65s-3.84 1.46-4.22 4.65zm38.69 11.65c-3.71 0-6.28-1.77-6.28-6V2474h-7.62v15.29h-5.1V2474h-2.7v-3.54l2.7-.34v-.84c0-4 2.29-6.44 6.52-6.44a21.84 21.84 0 0 1 3.19.27v3.82a11.86 11.86 0 0 0-2.22-.21c-1.56 0-2.39.9-2.39 3.4h7.62v-3.26l5.1-.83v4.09h6.14v3.88h-6.14v8.91c0 2.15.87 2.77 2.81 2.77a13.15 13.15 0 0 0 3.22-.52l.8 3.61a17.26 17.26 0 0 1-5.65.96zm16.4-7.01v6.56h-5.31v-25.14h8.81c6.69 0 10.61 3.26 10.61 9.12 0 6.07-3.92 9.46-10.61 9.46zm0-14.49v10.4h2.42c4.06 0 6.24-1.59 6.24-5.37 0-3.5-2.18-5-6.24-5zm30.64 9.99c0-3-1.39-4.54-4.51-4.54a15.25 15.25 0 0 0-5.65 1.11l-1.11-3.5a21.09 21.09 0 0 1 7.87-1.63c5.9 0 8.5 2.87 8.5 7.9v11.72h-4.51l-.41-2a8.56 8.56 0 0 1-6.07 2.46c-4.13 0-6.38-2.46-6.38-5.72 0-3.85 3-6 7.83-6a25.17 25.17 0 0 1 4.44.42zm-3.26 2.91c-3 0-4.09 1.11-4.09 2.53s.9 2.29 2.88 2.29a7 7 0 0 0 4.47-1.84v-2.77a28.82 28.82 0 0 0-3.26-.21zm23.02 13.8c-6.38 0-8.74-1.8-8.74-4.54a3.91 3.91 0 0 1 2.54-3.61 3.05 3.05 0 0 1-1.43-2.6 3.43 3.43 0 0 1 2.33-3.22 5.23 5.23 0 0 1-3.3-5c0-4.06 3.23-6.27 8.5-6.27h1.21l9.29.31v3.29c-.1 0-1.39-.27-2.7-.48a5.72 5.72 0 0 1 .83 3.12c0 3.92-3.26 6-8.63 6-2.53 0-3 .66-3 1.35s.52 1.11 1.59 1.11c1.63 0 4.2-.24 6.35-.24 3.88 0 5.85 2.11 5.85 4.92-.05 3.81-2.85 5.86-10.69 5.86zm5.83-5.13c0-1-.52-1.67-3-1.67h-2.84a17.63 17.63 0 0 1-3.15-.24 2.08 2.08 0 0 0-1.08 1.8c0 1.21 1.39 2 4.65 2 4.24.08 5.42-.69 5.42-1.89zm-5.93-10.8c2.39 0 3.74-1.15 3.74-3s-1.35-3-3.74-3-3.61 1.11-3.61 3 1.32 3 3.61 3zm25.2 10.73c-6.55 0-10.4-3.68-10.4-10 0-6.07 3.78-10.05 9.5-10.05s8.84 3.57 8.84 9.11a12.89 12.89 0 0 1-.17 2.33h-12.94c.42 3.22 2.29 4.64 5.86 4.64a14.12 14.12 0 0 0 5.34-1.21l1.25 3.53a17.9 17.9 0 0 1-7.28 1.65zm-5.17-11.65h8.22c-.24-3.33-1.73-4.65-4-4.65s-3.83 1.46-4.22 4.65zm24.03 11.2l-8.91-25.14h5.86l6 19.49 6-19.49h5.72l-8.95 25.14zm21.94-27.28a3 3 0 1 1-3.19 3 2.92 2.92 0 0 1 3.19-3zm-2.53 8.12h5.06v19.17H357zm21.53 19.61c-6.55 0-10.4-3.68-10.4-10 0-6.07 3.78-10.05 9.5-10.05s8.84 3.57 8.84 9.11a12.89 12.89 0 0 1-.17 2.33h-12.94c.42 3.22 2.29 4.64 5.86 4.64a14.12 14.12 0 0 0 5.34-1.21l1.25 3.53a17.9 17.9 0 0 1-7.28 1.65zm-5.17-11.65h8.22c-.24-3.33-1.73-4.65-4-4.65s-3.83 1.46-4.22 4.65zm32.04-.73l-3.68 11.93h-5.34l-6.62-19.17h5.48l3.88 14.11 3.85-14.11h4.85l4 14.11 3.71-14.11h5.34l-6.48 19.17H409z" fill="#00607b"/><rect x="230.92" y="2271.23" width="120" height="120" rx="60" ry="60" fill="#00607b"/><path d="M604.4 2446.72v6.56h-5.3v-25.14h8.8c6.69 0 10.61 3.26 10.61 9.12 0 6.07-3.92 9.46-10.61 9.46zm0-14.49v10.4h2.43c4 0 6.24-1.59 6.24-5.37 0-3.5-2.19-5-6.24-5zm20.11 15.92a21.75 21.75 0 0 0 6.72 1.21c3.68 0 5.17-1 5.17-2.77s-1.15-2.74-5.17-3.78c-5.51-1.46-7.76-4.06-7.76-7.6 0-4.22 3.57-7.52 9.81-7.52a24.89 24.89 0 0 1 7.66 1.28l-1.07 4.16a21.4 21.4 0 0 0-6.24-1.07c-3.33 0-4.75 1.15-4.75 2.77s1.31 2.74 5 3.64c6 1.49 8.22 4.06 8.22 7.91 0 4.4-3.43 7.35-10.09 7.35a27.82 27.82 0 0 1-8.49-1.35zm29.64-1.43v6.56h-5.31v-25.14h8.81c6.69 0 10.61 3.26 10.61 9.12 0 6.07-3.92 9.46-10.61 9.46zm0-14.49v10.4h2.42c4.06 0 6.24-1.59 6.24-5.37 0-3.5-2.18-5-6.24-5zm20.55-4.09h9.54c7.66 0 12.2 4.3 12.2 12.52s-4.54 12.62-12.2 12.62h-9.54zm5.31 4.16v16.82h3.15c5 0 7.8-2.15 7.8-8.46s-2.8-8.36-7.8-8.36zm28.6 11.55v9.43h-5.31v-25.14H720v4.41h-11.39v7.14h10.22v4.16zM525.22 2481h-3.74v8.29h-5.31v-25.14h8.67c6.66 0 10.3 3.09 10.3 8.29 0 3.88-1.73 6.34-4.85 7.63l6 9.22h-6.1zm-3.74-12.79v8.74h3.43c3.12 0 4.82-1.39 4.82-4.51 0-2.81-1.91-4.23-5.93-4.23zm22.91-6.21a3 3 0 1 1-3.19 3 2.92 2.92 0 0 1 3.19-3zm-2.53 8.12h5.06v19.17h-5.06zm19.97 24.81c-6.38 0-8.74-1.8-8.74-4.54a3.91 3.91 0 0 1 2.54-3.61 3.05 3.05 0 0 1-1.43-2.6 3.43 3.43 0 0 1 2.33-3.22 5.23 5.23 0 0 1-3.3-5c0-4.06 3.23-6.27 8.5-6.27h1.21l9.29.31v3.29c-.1 0-1.39-.27-2.7-.48a5.72 5.72 0 0 1 .83 3.12c0 3.92-3.26 6-8.63 6-2.53 0-3.05.66-3.05 1.35s.52 1.11 1.59 1.11c1.63 0 4.2-.24 6.35-.24 3.88 0 5.85 2.11 5.85 4.92 0 3.81-2.8 5.86-10.64 5.86zm5.83-5.13c0-1-.52-1.67-3-1.67h-2.84a17.63 17.63 0 0 1-3.15-.24 2.08 2.08 0 0 0-1.08 1.8c0 1.21 1.39 2 4.65 2 4.24.08 5.42-.69 5.42-1.89zm-5.93-10.8c2.39 0 3.74-1.15 3.74-3s-1.35-3-3.74-3-3.61 1.11-3.61 3 1.32 3 3.61 3zm28.08-9.34c3.6 0 6.48 2.14 6.48 7v12.59h-5.1V2478c0-2.6-1.07-3.85-3.39-3.85a7.87 7.87 0 0 0-4.93 2.08v13h-5.06v-26h5.06v9.29a9.49 9.49 0 0 1 6.94-2.86zm20.55 20.07c-3.7 0-6.27-1.77-6.27-6V2474h-2.81v-3.5l2.81-.38v-3.26l5.1-.83v4.09h6.13v3.88h-6.13v8.91c0 2.15.86 2.77 2.8 2.77a13.23 13.23 0 0 0 3.23-.52l.79 3.61a17.26 17.26 0 0 1-5.65.96zm16.4-7.01v6.56h-5.3v-25.14h8.8c6.69 0 10.61 3.26 10.61 9.12 0 6.07-3.92 9.46-10.61 9.46zm0-14.49v10.4h2.43c4 0 6.24-1.59 6.24-5.37 0-3.5-2.19-5-6.24-5zm30.65 9.99c0-3-1.39-4.54-4.51-4.54a15.17 15.17 0 0 0-5.65 1.11l-1.11-3.5a21 21 0 0 1 7.87-1.63c5.89 0 8.49 2.87 8.49 7.9v11.72H658l-.42-2a8.52 8.52 0 0 1-6.07 2.46c-4.12 0-6.38-2.46-6.38-5.72 0-3.85 3-6 7.84-6a25.27 25.27 0 0 1 4.44.42zm-3.26 2.91c-3 0-4.09 1.11-4.09 2.53s.9 2.29 2.87 2.29a7 7 0 0 0 4.48-1.84v-2.77a29 29 0 0 0-3.26-.21zm23.02 13.8c-6.38 0-8.74-1.8-8.74-4.54a3.91 3.91 0 0 1 2.53-3.61 3 3 0 0 1-1.42-2.6 3.43 3.43 0 0 1 2.32-3.22 5.24 5.24 0 0 1-3.29-5c0-4.06 3.22-6.27 8.49-6.27h1.21l9.3.31v3.29c-.11 0-1.39-.27-2.71-.48a5.64 5.64 0 0 1 .83 3.12c0 3.92-3.26 6-8.63 6-2.53 0-3 .66-3 1.35s.52 1.11 1.6 1.11c1.63 0 4.19-.24 6.34-.24 3.88 0 5.86 2.11 5.86 4.92-.05 3.81-2.86 5.86-10.69 5.86zm5.82-5.13c0-1-.52-1.67-3-1.67h-2.84a17.82 17.82 0 0 1-3.16-.24 2.07 2.07 0 0 0-1.07 1.8c0 1.21 1.38 2 4.64 2 4.25.08 5.44-.69 5.44-1.89zm-5.93-10.8c2.39 0 3.75-1.15 3.75-3s-1.36-3-3.75-3-3.6 1.11-3.6 3 1.31 3 3.6 3zm25.2 10.73c-6.55 0-10.4-3.68-10.4-10 0-6.07 3.78-10.05 9.5-10.05s8.84 3.57 8.84 9.11a12.89 12.89 0 0 1-.17 2.33H697.1c.41 3.22 2.29 4.64 5.86 4.64a14.17 14.17 0 0 0 5.34-1.21l1.24 3.53a17.86 17.86 0 0 1-7.28 1.65zm-5.16-11.65h8.22c-.25-3.33-1.74-4.65-4-4.65s-3.84 1.46-4.22 4.65zm24.02 11.2l-8.91-25.14h5.86l6 19.49 6-19.49h5.72l-8.94 25.14zm21.95-27.28a3 3 0 1 1-3.19 3 2.92 2.92 0 0 1 3.19-3zm-2.53 8.12h5.06v19.17h-5.06zm21.52 19.61c-6.55 0-10.4-3.68-10.4-10 0-6.07 3.78-10.05 9.5-10.05s8.84 3.57 8.84 9.11a12.89 12.89 0 0 1-.17 2.33H756.9c.41 3.22 2.29 4.64 5.86 4.64a14.17 14.17 0 0 0 5.34-1.21l1.24 3.53a17.86 17.86 0 0 1-7.28 1.65zm-5.16-11.65h8.21c-.24-3.33-1.73-4.65-4-4.65s-3.83 1.46-4.21 4.65zm32.03-.73l-3.67 11.93h-5.34l-6.62-19.17h5.47l3.89 14.11 3.84-14.11h4.86l4 14.11 3.71-14.11h5.34l-6.48 19.17h-5.34z" fill="#00607b"/><rect x="599.36" y="2271.23" width="120" height="120" rx="60" ry="60" fill="#00607b"/><path d="M846.34 2446.72v6.56H841v-25.14h8.81c6.69 0 10.6 3.26 10.6 9.12 0 6.07-3.91 9.46-10.6 9.46zm0-14.49v10.4h2.43c4.06 0 6.24-1.59 6.24-5.37 0-3.5-2.18-5-6.24-5zm20.11 15.92a21.76 21.76 0 0 0 6.73 1.21c3.67 0 5.16-1 5.16-2.77s-1.14-2.74-5.16-3.78c-5.51-1.46-7.77-4.06-7.77-7.6 0-4.22 3.57-7.52 9.81-7.52a24.84 24.84 0 0 1 7.66 1.28l-1.07 4.16a21.34 21.34 0 0 0-6.24-1.07c-3.33 0-4.75 1.15-4.75 2.77s1.32 2.74 5 3.64c6 1.49 8.21 4.06 8.21 7.91 0 4.4-3.43 7.35-10.08 7.35a27.89 27.89 0 0 1-8.5-1.35zm29.64-1.43v6.56h-5.3v-25.14h8.8c6.69 0 10.61 3.26 10.61 9.12 0 6.07-3.92 9.46-10.61 9.46zm0-14.49v10.4h2.43c4.05 0 6.24-1.59 6.24-5.37 0-3.5-2.19-5-6.24-5zm20.56-4.09h9.53c7.66 0 12.2 4.3 12.2 12.52s-4.54 12.62-12.2 12.62h-9.53zm5.3 4.16v16.82h3.16c4.95 0 7.8-2.15 7.8-8.46s-2.81-8.36-7.8-8.36zm28.6 11.55v9.43h-5.3v-25.14h16.67v4.41h-11.37v7.14h10.23v4.16zm23.3 2.87v6.56h-5.31v-25.14h8.81c6.69 0 10.61 3.26 10.61 9.12 0 6.07-3.92 9.46-10.61 9.46zm0-14.49v10.4h2.42c4.06 0 6.24-1.59 6.24-5.37 0-3.5-2.18-5-6.24-5zm30.64 9.99c0-3-1.38-4.54-4.5-4.54a15.17 15.17 0 0 0-5.65 1.11l-1.11-3.5a21 21 0 0 1 7.87-1.63c5.89 0 8.49 2.87 8.49 7.9v11.72h-4.51l-.41-2a8.52 8.52 0 0 1-6.07 2.46c-4.12 0-6.38-2.46-6.38-5.72 0-3.85 2.95-6 7.84-6a25.14 25.14 0 0 1 4.43.42zm-3.25 2.91c-3 0-4.1 1.11-4.1 2.53s.91 2.29 2.88 2.29a7 7 0 0 0 4.47-1.84v-2.77a28.63 28.63 0 0 0-3.25-.21zm23.01 13.8c-6.38 0-8.73-1.8-8.73-4.54a3.91 3.91 0 0 1 2.53-3.61 3 3 0 0 1-1.42-2.6 3.43 3.43 0 0 1 2.37-3.18 5.23 5.23 0 0 1-3.29-5c0-4.06 3.22-6.27 8.49-6.27h1.21l9.29.31v3.29c-.1 0-1.38-.27-2.7-.48a5.72 5.72 0 0 1 .83 3.12c0 3.92-3.26 6-8.63 6-2.53 0-3.05.66-3.05 1.35s.52 1.11 1.59 1.11c1.63 0 4.2-.24 6.35-.24 3.88 0 5.86 2.11 5.86 4.92-.05 3.77-2.86 5.82-10.7 5.82zm5.83-5.13c0-1-.52-1.67-3-1.67h-2.85a17.7 17.7 0 0 1-3.15-.24 2.08 2.08 0 0 0-1.08 1.8c0 1.21 1.39 2 4.65 2 4.25.08 5.43-.69 5.43-1.89zm-5.93-10.85c2.39 0 3.74-1.15 3.74-3s-1.35-3-3.74-3-3.61 1.11-3.61 3 1.32 3.05 3.61 3.05zm25.2 10.78c-6.55 0-10.4-3.68-10.4-10 0-6.07 3.78-10.05 9.5-10.05s8.84 3.57 8.84 9.11a12.89 12.89 0 0 1-.17 2.33h-12.93c.41 3.22 2.28 4.64 5.85 4.64a14.08 14.08 0 0 0 5.34-1.21l1.25 3.53a17.86 17.86 0 0 1-7.28 1.65zm-5.16-11.65h8.21c-.24-3.33-1.73-4.65-4-4.65s-3.83 1.46-4.21 4.65zm24.02 11.2l-8.91-25.14h5.86l6 19.49 6-19.49h5.72l-8.94 25.14zm21.94-27.28a3 3 0 1 1-3.19 3 2.92 2.92 0 0 1 3.19-3zm-2.53 8.12h5.06v19.17h-5.06zm21.53 19.61c-6.55 0-10.4-3.68-10.4-10 0-6.07 3.78-10.05 9.5-10.05s8.84 3.57 8.84 9.11a12.89 12.89 0 0 1-.17 2.33H1104c.41 3.22 2.28 4.64 5.85 4.64a14.08 14.08 0 0 0 5.34-1.21l1.25 3.53a17.86 17.86 0 0 1-7.29 1.65zm-5.16-11.65h8.21c-.24-3.33-1.73-4.65-4-4.65s-3.83 1.46-4.2 4.65zm32.01-.73l-3.68 11.93H1127l-6.62-19.17h5.48l3.88 14.11 3.85-14.11h4.85l4 14.11 3.71-14.11h5.34l-6.48 19.17h-5.34z" fill="#00607b"/><rect x="937.23" y="2271.23" width="120" height="120" rx="60" ry="60" fill="#00607b"/><path d="M1376.5 2446.72v6.56h-5.3v-25.14h8.8c6.69 0 10.6 3.26 10.6 9.12 0 6.07-3.91 9.46-10.6 9.46zm0-14.49v10.4h2.43c4.06 0 6.24-1.59 6.24-5.37 0-3.5-2.18-5-6.24-5zm20.11 15.92a21.76 21.76 0 0 0 6.73 1.21c3.67 0 5.16-1 5.16-2.77s-1.14-2.74-5.16-3.78c-5.51-1.46-7.77-4.06-7.77-7.6 0-4.22 3.57-7.52 9.81-7.52a24.84 24.84 0 0 1 7.62 1.31l-1.07 4.16a21.34 21.34 0 0 0-6.24-1.07c-3.33 0-4.75 1.15-4.75 2.77s1.32 2.74 5 3.64c6 1.49 8.21 4.06 8.21 7.91 0 4.4-3.43 7.35-10.08 7.35a27.89 27.89 0 0 1-8.5-1.35zm29.64-1.43v6.56H1421v-25.14h8.8c6.69 0 10.61 3.26 10.61 9.12 0 6.07-3.92 9.46-10.61 9.46zm0-14.49v10.4h2.43c4 0 6.24-1.59 6.24-5.37 0-3.5-2.19-5-6.24-5zm20.56-4.09h9.53c7.66 0 12.2 4.3 12.2 12.52s-4.54 12.62-12.2 12.62h-9.53zm5.3 4.16v16.82h3.16c5 0 7.8-2.15 7.8-8.46s-2.81-8.36-7.8-8.36zm28.6 11.55v9.43h-5.3v-25.14h16.67v4.41h-11.37v7.14h10.23v4.16zm23.29 2.87v6.56h-5.31v-25.14h8.81c6.69 0 10.61 3.26 10.61 9.12 0 6.07-3.92 9.46-10.61 9.46zm0-14.49v10.4h2.42c4.06 0 6.24-1.59 6.24-5.37 0-3.5-2.18-5-6.24-5zm30.65 9.99c0-3-1.38-4.54-4.5-4.54a15.17 15.17 0 0 0-5.65 1.11l-1.11-3.5a21 21 0 0 1 7.87-1.63c5.89 0 8.49 2.87 8.49 7.9v11.72h-4.51l-.41-2a8.52 8.52 0 0 1-6.07 2.46c-4.12 0-6.38-2.46-6.38-5.72 0-3.85 2.95-6 7.84-6a25 25 0 0 1 4.43.42zm-3.25 2.91c-3 0-4.1 1.11-4.1 2.53s.91 2.29 2.88 2.29a7 7 0 0 0 4.47-1.84v-2.77a28.63 28.63 0 0 0-3.25-.21zm23.01 13.8c-6.38 0-8.73-1.8-8.73-4.54a3.91 3.91 0 0 1 2.53-3.61 3 3 0 0 1-1.42-2.6 3.43 3.43 0 0 1 2.32-3.22 5.24 5.24 0 0 1-3.29-5c0-4.06 3.22-6.27 8.49-6.27h1.21l9.29.31v3.29c-.1 0-1.38-.27-2.7-.48a5.64 5.64 0 0 1 .83 3.12c0 3.92-3.26 6-8.63 6-2.53 0-3 .66-3 1.35s.52 1.11 1.59 1.11c1.63 0 4.2-.24 6.35-.24 3.88 0 5.86 2.11 5.86 4.92-.05 3.81-2.86 5.86-10.7 5.86zm5.83-5.13c0-1-.52-1.67-3-1.67h-2.85a17.7 17.7 0 0 1-3.15-.24 2.08 2.08 0 0 0-1.08 1.8c0 1.21 1.39 2 4.65 2 4.25.08 5.43-.69 5.43-1.89zm-5.93-10.85c2.39 0 3.74-1.15 3.74-3s-1.35-3-3.74-3-3.61 1.11-3.61 3 1.3 3.05 3.61 3.05zm25.2 10.78c-6.55 0-10.4-3.68-10.4-10 0-6.07 3.78-10.05 9.5-10.05s8.84 3.57 8.84 9.11a12.89 12.89 0 0 1-.17 2.33h-12.93c.41 3.22 2.28 4.64 5.86 4.64a14.07 14.07 0 0 0 5.33-1.21l1.25 3.53a17.86 17.86 0 0 1-7.28 1.65zm-5.16-11.65h8.21c-.24-3.33-1.73-4.65-4-4.65s-3.83 1.46-4.21 4.65zm24.02 11.2l-8.91-25.14h5.86l6 19.49 6-19.49h5.72l-8.94 25.14zm21.94-27.28a3 3 0 1 1-3.19 3 2.92 2.92 0 0 1 3.19-3zm-2.53 8.12h5.06v19.17h-5.06zm21.53 19.61c-6.55 0-10.4-3.68-10.4-10 0-6.07 3.78-10.05 9.5-10.05s8.84 3.57 8.84 9.11a12.89 12.89 0 0 1-.17 2.33h-12.93c.41 3.22 2.28 4.64 5.85 4.64a14.08 14.08 0 0 0 5.34-1.21l1.25 3.53a17.86 17.86 0 0 1-7.28 1.65zm-5.16-11.65h8.21c-.24-3.33-1.73-4.65-4-4.65s-3.83 1.46-4.21 4.65zm32.03-.73l-3.68 11.93h-5.34l-6.62-19.17h5.46l3.88 14.11 3.85-14.11h4.85l4 14.11 3.71-14.11h5.34l-6.48 19.17h-5.34z" fill="#00607b"/><rect x="1465.69" y="2271.23" width="120" height="120" rx="60" ry="60" fill="#00607b"/><path d="M508.44 1892.71a2 2 0 0 0-.56-1.42L494.54 1878a2 2 0 0 0-1.41-.57h-16.38a5.8 5.8 0 0 0-.6.06V1867a2 2 0 0 0-4 0v10.4h-16.66a2 2 0 0 0-1.42.57l-13.33 13.33a2 2 0 0 0-.57 1.42v30.09a4.3 4.3 0 0 0 4.29 4.29h27.71v10.4a2 2 0 0 0 4 0V1927a3.93 3.93 0 0 0 .6.06h27.43a4.29 4.29 0 0 0 4.28-4.29v-30.09zm-13.31-8.51l6.5 6.51h-6.22a.29.29 0 0 1-.28-.29zm-41.64 0v6.22a.29.29 0 0 1-.29.29H447zm18.38 38.89h-27.43a.29.29 0 0 1-.29-.29v-28.09h9.05a4.3 4.3 0 0 0 4.29-4.29v-9.05h14.38a.29.29 0 0 1 .28.29v41.14a.29.29 0 0 1-.28.29zm32.31 0h-27.43a.29.29 0 0 1-.29-.29v-41.14a.29.29 0 0 1 .29-.29h14.38v9.05a4.29 4.29 0 0 0 4.28 4.29h9v28.09a.29.29 0 0 1-.23.29z" fill="#5ad9f5"/><path d="M325.06 2321.71a2 2 0 0 0-.57-1.42L311.16 2307a2 2 0 0 0-1.41-.57h-16.38a5.8 5.8 0 0 0-.6.06V2296a2 2 0 0 0-4 0v10.4H272.1a2 2 0 0 0-1.41.57l-13.33 13.33a2 2 0 0 0-.57 1.42v30.09a4.29 4.29 0 0 0 4.29 4.29h27.71v10.4a2 2 0 0 0 4 0V2356a3.93 3.93 0 0 0 .6.06h27.42a4.29 4.29 0 0 0 4.29-4.29v-30.09zm-13.31-8.51l6.5 6.51H312a.28.28 0 0 1-.28-.29zm-41.65 0v6.22a.28.28 0 0 1-.28.29h-6.22zm18.39 38.89h-27.43a.29.29 0 0 1-.29-.29v-28.09h9.05a4.29 4.29 0 0 0 4.28-4.29v-9.05h14.39a.29.29 0 0 1 .28.29v41.14a.29.29 0 0 1-.28.29zm32.3 0h-27.42a.29.29 0 0 1-.29-.29v-41.14a.29.29 0 0 1 .29-.29h14.38v9.05a4.29 4.29 0 0 0 4.28 4.29h9.05v28.09a.29.29 0 0 1-.29.29zm372.7-30.38a2 2 0 0 0-.57-1.42L679.59 2307a2 2 0 0 0-1.41-.57H661.8a5.8 5.8 0 0 0-.6.06V2296a2 2 0 0 0-4 0v10.4h-16.67a2 2 0 0 0-1.41.57l-13.33 13.33a2 2 0 0 0-.57 1.42v30.09a4.29 4.29 0 0 0 4.29 4.29h27.71v10.4a2 2 0 0 0 4 0V2356a3.93 3.93 0 0 0 .6.06h27.42a4.29 4.29 0 0 0 4.29-4.29v-30.09zm-13.31-8.51l6.5 6.51h-6.22a.29.29 0 0 1-.28-.29zm-41.65 0v6.22a.28.28 0 0 1-.28.29H632zm18.39 38.89h-27.43a.29.29 0 0 1-.29-.29v-28.09h9a4.29 4.29 0 0 0 4.28-4.29v-9.05h14.39a.29.29 0 0 1 .28.29v41.14a.29.29 0 0 1-.23.29zm32.3 0H661.8a.29.29 0 0 1-.29-.29v-41.14a.29.29 0 0 1 .29-.29h14.38v9.05a4.29 4.29 0 0 0 4.28 4.29h9v28.09a.29.29 0 0 1-.24.29z" fill="#5ad9f5" opacity=".3"/><path d="M693.34 2321.71a2 2 0 0 0-.57-1.42L679.44 2307a2 2 0 0 0-1.42-.57h-16.38a4.29 4.29 0 0 0-4.28 4.29v41.14a4.29 4.29 0 0 0 4.28 4.29h27.43a4.3 4.3 0 0 0 4.29-4.29v-30.09zM680 2313.2l6.51 6.51h-6.22a.29.29 0 0 1-.29-.29zm9.05 38.89h-27.41a.28.28 0 0 1-.28-.29v-41.14a.28.28 0 0 1 .28-.29H676v9.05a4.3 4.3 0 0 0 4.29 4.29h9.05v28.09a.29.29 0 0 1-.27.29zm326.16-30.38a2 2 0 0 0-.56-1.42l-13.34-13.29a2 2 0 0 0-1.41-.57h-16.38a4.3 4.3 0 0 0-4.29 4.29v41.14a4.29 4.29 0 0 0 4.29 4.29H1011a4.29 4.29 0 0 0 4.28-4.29v-30.09zm-13.31-8.51l6.5 6.51h-6.22a.29.29 0 0 1-.28-.29zm9.05 38.89h-27.43a.29.29 0 0 1-.29-.29v-41.14a.29.29 0 0 1 .29-.29h14.38v9.05a4.29 4.29 0 0 0 4.28 4.29h9.05v28.09a.29.29 0 0 1-.23.29zm532.72-30.38a2 2 0 0 0-.56-1.42l-13.34-13.29a2 2 0 0 0-1.41-.57H1512a4.3 4.3 0 0 0-4.29 4.29v41.14a4.29 4.29 0 0 0 4.29 4.29h27.43a4.29 4.29 0 0 0 4.28-4.29v-30.09zm-13.31-8.51l6.5 6.51h-6.22a.29.29 0 0 1-.28-.29zm9.05 38.89H1512a.29.29 0 0 1-.29-.29v-41.14a.29.29 0 0 1 .29-.29h14.38v9.05a4.29 4.29 0 0 0 4.28 4.29h9v28.09a.29.29 0 0 1-.25.29zm4.26-459.38a2 2 0 0 0-.56-1.42l-13.34-13.29a2 2 0 0 0-1.41-.57H1512a4.3 4.3 0 0 0-4.29 4.29v41.14a4.29 4.29 0 0 0 4.29 4.29h27.43a4.29 4.29 0 0 0 4.28-4.29v-30.09zm-13.31-8.51l6.5 6.51h-6.22a.29.29 0 0 1-.28-.29zm9.05 38.89H1512a.29.29 0 0 1-.29-.29v-41.14a.29.29 0 0 1 .29-.29h14.38v9.05a4.29 4.29 0 0 0 4.28 4.29h9v28.09a.29.29 0 0 1-.25.29zM256.77 2321.71v30.09a4.29 4.29 0 0 0 4.29 4.29h27.43a4.29 4.29 0 0 0 4.28-4.29v-41.14a4.29 4.29 0 0 0-4.28-4.29H272.1a2 2 0 0 0-1.41.57l-13.33 13.33a2 2 0 0 0-.57 1.42zm13.33-2.29a.28.28 0 0 1-.28.29h-6.22l6.5-6.51zm-9.33 32.38v-28.09h9.05a4.29 4.29 0 0 0 4.28-4.29v-9.05h14.39a.29.29 0 0 1 .28.29v41.14a.29.29 0 0 1-.28.29h-27.43a.29.29 0 0 1-.29-.29z" fill="#5ad9f5"/><path d="M1559.62 591.55a1.23 1.23 0 0 0 0-.19 2 2 0 0 0-.1-.32 4.26 4.26 0 0 0-4.09-3.1H1496a4.27 4.27 0 0 0-4.1 3.1c0 .11-.08.21-.1.32s0 .13 0 .19a3.71 3.71 0 0 0-.07.67v41.15a4.29 4.29 0 0 0 4.29 4.28h48.38a2 2 0 0 0 1.41-.56l3.42-3.42 6.5-6.5 3.42-3.42a2 2 0 0 0 .56-1.41v-30.1a3.71 3.71 0 0 0-.09-.69zm-35.93 41.82v.06a.59.59 0 0 1-.06.14.27.27 0 0 1-.19.08H1496a.28.28 0 0 1-.29-.28v-41.21a.25.25 0 0 1 .06-.14.26.26 0 0 1 .19-.08h27.43a.29.29 0 0 1 .28.28v41.15zm22.67-2.55v-6.21a.29.29 0 0 1 .28-.29h6.22zm9.33-38.6v28.1h-9a4.29 4.29 0 0 0-4.28 4.29v9H1528a.26.26 0 0 1-.19-.08.25.25 0 0 1-.06-.14v-41.17a.29.29 0 0 1 .29-.28h27.43a.27.27 0 0 1 .19.08.59.59 0 0 1 .06.14v.06zM1544.67 653a2 2 0 0 0-2-2h-34a2 2 0 0 0 0 4h34a2 2 0 0 0 2-2z" fill="#00607b"/><path d="M1008.63 1492.84a1.9 1.9 0 0 0-.18-.49l-.05-.11a2.22 2.22 0 0 0-.32-.42l-13.33-13.33a1.92 1.92 0 0 0-.43-.32l-.1-.06a2.19 2.19 0 0 0-.49-.17 1.58 1.58 0 0 0-.38 0H977a4.28 4.28 0 0 0-4.28 4.28v27.24a2 2 0 0 0 4 0v-27.24a.28.28 0 0 1 .28-.28h14.38v9a4.29 4.29 0 0 0 4.29 4.28h9v14.19a2 2 0 0 0 4 0v-16.19a2.21 2.21 0 0 0 0-.37zm-13-1.61a.29.29 0 0 1-.29-.28v-6.22l6.51 6.5zm11.04-56.23a2 2 0 0 0-2 2v27.24a.28.28 0 0 1-.29.28H977a.27.27 0 0 1-.28-.28V1437a2 2 0 0 0-4 0v27.24a4.28 4.28 0 0 0 4.28 4.28h27.43a4.29 4.29 0 0 0 4.29-4.28V1437a2 2 0 0 0-2.05-2zm18.66 19.25a2 2 0 0 0-2 2v34a2 2 0 0 0 4 0v-34a2 2 0 0 0-2-2zm508.99 38.59a1.9 1.9 0 0 0-.18-.49.54.54 0 0 0-.05-.11 1.87 1.87 0 0 0-.32-.42l-13.33-13.33a1.72 1.72 0 0 0-.43-.32l-.1-.06a2.19 2.19 0 0 0-.49-.17 1.64 1.64 0 0 0-.38 0h-16.39a4.28 4.28 0 0 0-4.28 4.28v27.24a2 2 0 0 0 4 0v-27.24a.29.29 0 0 1 .28-.28H1517v9a4.28 4.28 0 0 0 4.28 4.28h9v14.19a2 2 0 0 0 4 0v-16.19a2.21 2.21 0 0 0 0-.37zm-13-1.61a.28.28 0 0 1-.28-.28v-6.22l6.5 6.5zm11.04-56.23a2 2 0 0 0-2 2v27.24a.28.28 0 0 1-.29.28h-27.43a.28.28 0 0 1-.28-.28V1437a2 2 0 0 0-4 0v27.24a4.28 4.28 0 0 0 4.28 4.28h27.43a4.29 4.29 0 0 0 4.29-4.28V1437a2 2 0 0 0-2-2zm18.64 19.25a2 2 0 0 0-2 2v34a2 2 0 0 0 4 0v-34a2 2 0 0 0-2-2z" fill="#5ad9f5"/></g></svg>