<svg data-name="Background" xmlns="http://www.w3.org/2000/svg" viewBox="0 0 1500 1000"><path fill="none" stroke="#00607b" stroke-linejoin="round" stroke-width="3" d="M133.7 173.31v140.8h91.33"/><path fill="#00607b" d="M223.53 356.09h3v497.06h-3z"/><path opacity=".1" d="M0 955h1500v45H0z"/><path fill="#5ad9f5" d="M0 .48h1500v10H0z"/><path d="M978.43 149.36v4.91h-4v-18.85h6.6c5 0 8 2.44 8 6.84 0 4.55-2.94 7.1-8 7.1zm0-10.87v7.8h1.82c3 0 4.68-1.2 4.68-4 0-2.63-1.64-3.77-4.68-3.77zm15.08 11.94a16.35 16.35 0 0 0 5 .91c2.76 0 3.87-.78 3.87-2.08s-.86-2.05-3.87-2.83c-4.13-1.09-5.82-3-5.82-5.69 0-3.17 2.68-5.64 7.36-5.64a18.61 18.61 0 0 1 5.75 1l-.81 3.12a15.76 15.76 0 0 0-4.68-.81c-2.5 0-3.56.86-3.56 2.08s1 2.05 3.72 2.73c4.5 1.12 6.16 3 6.16 5.93 0 3.3-2.57 5.51-7.57 5.51a20.83 20.83 0 0 1-6.37-1zm22.23-1.07v4.91h-4v-18.85h6.6c5 0 8 2.44 8 6.84 0 4.55-2.94 7.1-8 7.1zm0-10.87v7.8h1.82c3 0 4.68-1.2 4.68-4 0-2.63-1.64-3.77-4.68-3.77zm15.42-3.07h7.15c5.75 0 9.15 3.22 9.15 9.39s-3.41 9.46-9.15 9.46h-7.15zm4 3.12v12.61h2.37c3.72 0 5.85-1.61 5.85-6.34s-2.11-6.27-5.85-6.27zm21.43 8.66v7.07h-4v-18.85h12.51v3.3h-8.53v5.36h7.67v3.12zm13.49-11.78h7.15c5.75 0 9.15 3.22 9.15 9.39s-3.41 9.46-9.15 9.46h-7.15zm4 3.12v12.61h2.37c3.72 0 5.85-1.61 5.85-6.34s-2.11-6.27-5.85-6.27zm23.51 1.02c4.58 0 7.36 2.91 7.36 7.46s-2.78 7.59-7.36 7.59-7.41-3-7.41-7.59 2.82-7.46 7.41-7.46zm0 12.14c2.18 0 3.46-1.59 3.46-4.68s-1.27-4.58-3.46-4.58-3.51 1.59-3.51 4.58 1.27 4.68 3.51 4.68zm18.25-12.14a13.6 13.6 0 0 1 4.65.88l-.78 2.83a9.36 9.36 0 0 0-3.22-.62c-2.55 0-4.11 1.48-4.11 4.42s1.56 4.42 4.11 4.42a9.23 9.23 0 0 0 3.22-.6l.78 2.83a13 13 0 0 1-4.65.88c-4.63 0-7.36-2.83-7.36-7.54s2.73-7.5 7.36-7.5zm13.83 15.05c-3 0-5.12-1.61-5.12-5.38v-9.33h3.82v8.76c0 2 .81 2.86 2.42 2.86a6.32 6.32 0 0 0 3.74-1.35V139.9h3.82v14.38h-3.25l-.39-1.43a8.58 8.58 0 0 1-5.04 1.76zm22.99-15.05a4.35 4.35 0 0 1 4.21 2.57 7.13 7.13 0 0 1 5.49-2.57c2.57 0 4.71 1.61 4.71 5.28v9.44h-3.82v-8.45c0-2-.78-2.89-2.37-2.89a5.43 5.43 0 0 0-3.51 1.56v9.78h-3.82v-8.45c0-2-.81-2.89-2.37-2.89a5.58 5.58 0 0 0-3.54 1.56v9.78h-3.8V139.9h3.48a11.13 11.13 0 0 0 .26 1.92 6.66 6.66 0 0 1 5.08-2.26zm26.57 15.05c-4.91 0-7.8-2.76-7.8-7.51 0-4.55 2.83-7.54 7.13-7.54s6.63 2.68 6.63 6.84a9.28 9.28 0 0 1-.13 1.74h-9.7c.31 2.42 1.72 3.48 4.39 3.48a10.55 10.55 0 0 0 4-.91l.94 2.65a13.4 13.4 0 0 1-5.46 1.25zm-3.87-8.74h6.16c-.18-2.5-1.3-3.48-3-3.48s-2.88 1.09-3.16 3.49zm23.37-6.31c2.73 0 4.91 1.61 4.91 5.28v9.44h-3.82v-8.45c0-2-.86-2.89-2.6-2.89a6 6 0 0 0-3.74 1.56v9.78h-3.8V139.9h3.48a11 11 0 0 0 .26 1.92 7.1 7.1 0 0 1 5.31-2.26zm15.47 15.05c-2.78 0-4.71-1.33-4.71-4.52v-7.28h-2.11v-2.63l2.11-.29v-2.44l3.82-.62v3.07h4.6v2.91h-4.6v6.68c0 1.61.65 2.08 2.11 2.08a9.8 9.8 0 0 0 2.42-.39l.6 2.7a12.87 12.87 0 0 1-4.24.73zm12.17-.33l-6.68-18.85h4.39l4.52 14.57 4.5-14.61h4.29l-6.71 18.85zm16.45-20.47a2.23 2.23 0 1 1-2.39 2.24 2.19 2.19 0 0 1 2.39-2.24zm-1.9 6.08h3.8v14.38h-3.8zm16.15 14.72c-4.91 0-7.8-2.76-7.8-7.51 0-4.55 2.83-7.54 7.12-7.54s6.63 2.68 6.63 6.84a9.28 9.28 0 0 1-.13 1.74h-9.7c.31 2.42 1.72 3.48 4.39 3.48a10.55 10.55 0 0 0 4-.91l.94 2.65a13.4 13.4 0 0 1-5.45 1.25zm-3.87-8.74h6.16c-.18-2.5-1.3-3.48-3-3.48s-2.88 1.09-3.16 3.49zm24.02-.54l-2.76 8.94h-4l-5-14.38h4.11l2.91 10.58 2.89-10.58h3.63l3 10.58 2.78-10.58h4l-4.78 14.39h-4zm15.45-9.91h4v15.5h8.14v3.35h-12.12zm24.17 10.58c0-2.29-1-3.41-3.38-3.41a11.52 11.52 0 0 0-4.24.83l-.83-2.63a15.85 15.85 0 0 1 5.9-1.22c4.42 0 6.37 2.16 6.37 5.93v8.79h-3.38l-.31-1.51a6.38 6.38 0 0 1-4.55 1.85c-3.09 0-4.78-1.85-4.78-4.29 0-2.89 2.21-4.5 5.88-4.5a19 19 0 0 1 3.33.31zm-2.44 2.18c-2.24 0-3.07.83-3.07 1.9s.68 1.72 2.16 1.72a5.26 5.26 0 0 0 3.35-1.38v-2.08a22.69 22.69 0 0 0-2.44-.18zm11.54 9.97l.36-2.86a5.8 5.8 0 0 0 1.46.21 1.71 1.71 0 0 0 1.79-1.12l-5.64-14.48h4.09l3.59 10.66 3.54-10.66h4l-5.8 15c-1 2.42-2.11 3.64-4.65 3.64a11.19 11.19 0 0 1-2.74-.39zm22.89-18.59c4.58 0 7.36 2.91 7.36 7.46s-2.78 7.59-7.36 7.59-7.41-3-7.41-7.59 2.78-7.46 7.41-7.46zm0 12.14c2.18 0 3.46-1.59 3.46-4.68s-1.27-4.58-3.46-4.58-3.51 1.59-3.51 4.58 1.27 4.68 3.51 4.68zm16.82 2.91c-3 0-5.12-1.61-5.12-5.38v-9.33h3.82v8.76c0 2 .81 2.86 2.42 2.86a6.32 6.32 0 0 0 3.74-1.35V139.9h3.82v14.38h-3.25l-.39-1.43a8.58 8.58 0 0 1-5.04 1.76zm19.35 0c-2.78 0-4.71-1.33-4.71-4.52v-7.28h-2.11v-2.63l2.11-.29v-2.44l3.82-.62v3.07h4.6v2.91h-4.6v6.68c0 1.61.65 2.08 2.11 2.08a9.8 9.8 0 0 0 2.42-.39l.6 2.7a12.87 12.87 0 0 1-4.24.73zm-515.94 188h5c4.42 0 7.06 2.42 7.06 7.2s-2.64 7.3-7.06 7.3h-5zm2.28 1.92v10.66h2.28c3.18 0 5.14-1.4 5.14-5.38s-1.94-5.28-5.14-5.28zM890 357.35c-3.56 0-5.74-2.1-5.74-5.74 0-3.38 2.14-5.76 5.24-5.76s4.86 2 4.86 5.26a7 7 0 0 1-.1 1.24h-7.72c.24 2.08 1.42 3.08 3.64 3.08a7.67 7.67 0 0 0 3.06-.74l.68 1.7a9.08 9.08 0 0 1-3.92.96zm-3.44-6.7h5.64c-.14-2.1-1.22-2.94-2.76-2.94s-2.6.96-2.84 2.94zm13.82 9.46h-2.2v-14h2a10.53 10.53 0 0 0 .16 1.42 5.47 5.47 0 0 1 4-1.66c2.58 0 4.3 1.72 4.3 5.52s-2.08 6-4.8 6a5.91 5.91 0 0 1-3.42-1.12zm3-4.74c1.88 0 3-1.32 3-4 0-2.38-1-3.52-2.82-3.52a4.81 4.81 0 0 0-3.16 1.44v5.1a5.26 5.26 0 0 0 2.98.98zm13.96 1.98c-3.56 0-5.74-2.1-5.74-5.74 0-3.38 2.14-5.76 5.24-5.76s4.86 2 4.86 5.26a7 7 0 0 1-.1 1.24h-7.72c.24 2.08 1.42 3.08 3.64 3.08a7.67 7.67 0 0 0 3.06-.74l.68 1.7a9.08 9.08 0 0 1-3.92.96zm-3.44-6.7h5.64c-.14-2.1-1.22-2.94-2.76-2.94s-2.64.96-2.88 2.94zm17.94-4.8c2.12 0 3.78 1.28 3.78 4v7.28h-2.2v-6.72c0-1.7-.78-2.54-2.3-2.54a5.45 5.45 0 0 0-3.44 1.46v7.8h-2.2v-11h2a10.53 10.53 0 0 0 .16 1.42 6 6 0 0 1 4.2-1.7zm15.7-3.74h2.2v15h-1.9l-.24-1.4a5.54 5.54 0 0 1-3.92 1.64c-2.64 0-4.36-1.72-4.36-5.52s2.08-6 4.74-6a5.69 5.69 0 0 1 3.48 1.14zm-3 5.72c-1.88 0-3 1.32-3 4 0 2.38 1 3.52 2.82 3.52a4.78 4.78 0 0 0 3.16-1.44v-5.08a5.07 5.07 0 0 0-2.98-1zm10.98-5.96a1.39 1.39 0 1 1-1.46 1.4 1.35 1.35 0 0 1 1.46-1.4zm-1.1 4.22h2.2v11h-2.2zm13.24-.24c2.12 0 3.78 1.28 3.78 4v7.28h-2.2v-6.72c0-1.7-.78-2.54-2.3-2.54a5.45 5.45 0 0 0-3.44 1.46v7.8h-2.2v-11h2a10.53 10.53 0 0 0 .16 1.42 6 6 0 0 1 4.2-1.7zm12.48 14.5c-3.48 0-4.86-1-4.86-2.58a2.23 2.23 0 0 1 1.62-2.12 1.76 1.76 0 0 1-.94-1.56 1.86 1.86 0 0 1 1.36-1.8 3 3 0 0 1-1.92-2.92c0-2.3 1.78-3.5 4.64-3.5h.68l5.18.18v1.66l-1.68-.28a3.17 3.17 0 0 1 .58 1.92c0 2.22-1.84 3.4-4.76 3.4-1.56 0-1.88.46-1.88.92s.34.8 1 .8c.94 0 2.38-.18 3.5-.18 2.2 0 3.4 1.28 3.4 2.78.04 2.2-1.58 3.28-5.92 3.28zm3.72-3c0-.68-.36-1.22-1.84-1.22-.7 0-1.6.1-2.26.1a10.16 10.16 0 0 1-1.42-.1 1.53 1.53 0 0 0-.82 1.32c0 .78.84 1.3 2.76 1.3 2.72 0 3.58-.52 3.58-1.4zm-3.86-6.06c1.6 0 2.54-.7 2.54-1.92s-.94-1.92-2.54-1.92-2.42.7-2.42 1.92.94 1.92 2.42 1.92zm20.46-5.44c3.28 0 5.4 2.28 5.4 5.7s-2.12 5.8-5.4 5.8-5.46-2.35-5.46-5.8 2.16-5.7 5.46-5.7zm0 9.6c2 0 3.16-1.4 3.16-3.9s-1.18-3.82-3.16-3.82-3.18 1.42-3.18 3.82 1.18 3.9 3.18 3.9zm15.6-9.6c2.12 0 3.78 1.28 3.78 4v7.28h-2.2v-6.72c0-1.7-.78-2.54-2.3-2.54a5.45 5.45 0 0 0-3.44 1.46v7.8h-2.2v-11h2a10.53 10.53 0 0 0 .16 1.42 6 6 0 0 1 4.2-1.7zM868.73 385a16.57 16.57 0 0 0 4.08.68c2.24 0 3-.49 3-1.3s-.75-1.35-2.94-1.85c-3.54-.75-4.81-2.24-4.81-4.52 0-2.47 2.05-4.42 6.06-4.42a16.89 16.89 0 0 1 5 .83l-.7 2.7a14.24 14.24 0 0 0-3.87-.6c-1.79 0-2.63.55-2.63 1.33s.7 1.33 2.78 1.79c3.51.75 5.12 2.16 5.12 4.55 0 2.73-2.18 4.45-6.4 4.45a18.72 18.72 0 0 1-5.54-.88zm19.5 7.21h-3.8v-18.27h3.48a11.49 11.49 0 0 0 .26 1.92 6.19 6.19 0 0 1 5-2.26c3.33 0 5.59 2.21 5.59 7.23s-2.63 7.83-6.27 7.83a7.73 7.73 0 0 1-4.24-1.3zm3.3-6.58c2.08 0 3.28-1.48 3.28-4.6 0-2.73-1-4.06-3.12-4.06a5.45 5.45 0 0 0-3.46 1.53v6.08a6 6 0 0 0 3.31 1.06zm19.14-12.03a4.32 4.32 0 0 1 2.13.55l-.86 3.64a4.34 4.34 0 0 0-1.82-.42 3.57 3.57 0 0 0-3.07 2.21v8.74h-3.8v-14.38h3.43a18.81 18.81 0 0 0 .31 2.21 3.93 3.93 0 0 1 3.68-2.55zm12.27 15.05c-4.91 0-7.8-2.76-7.8-7.51 0-4.55 2.83-7.54 7.12-7.54s6.63 2.68 6.63 6.84a9.28 9.28 0 0 1-.13 1.74h-9.7c.31 2.42 1.72 3.48 4.39 3.48a10.55 10.55 0 0 0 4-.91l.94 2.65a13.39 13.39 0 0 1-5.45 1.25zm-3.87-8.74h6.16c-.18-2.5-1.3-3.48-3-3.48s-2.87 1.09-3.16 3.48zm22.51.09c0-2.29-1-3.41-3.38-3.41a11.52 11.52 0 0 0-4.24.83l-.83-2.63a15.84 15.84 0 0 1 5.9-1.22c4.42 0 6.37 2.16 6.37 5.93v8.79H942l-.31-1.51a6.38 6.38 0 0 1-4.55 1.85c-3.09 0-4.78-1.85-4.78-4.29 0-2.89 2.21-4.5 5.88-4.5a19 19 0 0 1 3.33.31zm-2.44 2.18c-2.24 0-3.07.83-3.07 1.9s.68 1.72 2.16 1.72a5.25 5.25 0 0 0 3.35-1.38v-2.08a22.69 22.69 0 0 0-2.44-.14zm21.11-13.37h3.82v19.5h-3.27l-.39-1.61a7.19 7.19 0 0 1-4.91 1.95c-3.48 0-5.75-2.24-5.75-7.23s2.63-7.83 6.08-7.83a6.9 6.9 0 0 1 4.42 1.51zm-3.33 8c-2.11 0-3.28 1.48-3.28 4.63 0 2.76 1.09 4.11 3.15 4.11a5.27 5.27 0 0 0 3.46-1.51v-6.14a5.65 5.65 0 0 0-3.33-1.08zm13-7.35h6.63c4.58 0 6.79 2 6.79 4.78a4 4 0 0 1-2.42 3.85 4.86 4.86 0 0 1 3.43 4.76c0 3.54-2.63 5.46-7 5.46h-7.41zm6.11 8.06c2.37 0 3.51-1 3.51-2.65s-1-2.57-3.74-2.57h-2v5.23zm.55 7.85c2.42 0 3.72-.75 3.72-2.6s-1.27-2.68-3.72-2.68h-2.76v5.28zm20.54-5.37c0-2.29-1-3.41-3.38-3.41a11.52 11.52 0 0 0-4.24.83l-.83-2.63a15.84 15.84 0 0 1 5.9-1.22c4.42 0 6.37 2.16 6.37 5.93v8.79h-3.38l-.31-1.51a6.38 6.38 0 0 1-4.55 1.85c-3.09 0-4.78-1.85-4.78-4.29 0-2.89 2.21-4.5 5.88-4.5a19 19 0 0 1 3.33.31zm-2.44 2.18c-2.24 0-3.07.83-3.07 1.9s.68 1.72 2.16 1.72a5.25 5.25 0 0 0 3.35-1.38v-2.08a22.69 22.69 0 0 0-2.44-.14zM1006 385a16.57 16.57 0 0 0 4.08.68c2.24 0 3-.49 3-1.3s-.75-1.35-2.94-1.85c-3.54-.75-4.81-2.24-4.81-4.52 0-2.47 2.05-4.42 6.06-4.42a16.89 16.89 0 0 1 5 .83l-.7 2.7a14.24 14.24 0 0 0-3.87-.6c-1.79 0-2.63.55-2.63 1.33s.7 1.33 2.78 1.79c3.51.75 5.12 2.16 5.12 4.55 0 2.73-2.18 4.45-6.4 4.45a18.72 18.72 0 0 1-5.54-.88zm22.58 3.65c-4.91 0-7.8-2.76-7.8-7.51 0-4.55 2.83-7.54 7.12-7.54s6.63 2.68 6.63 6.84a9.28 9.28 0 0 1-.13 1.74h-9.7c.31 2.42 1.72 3.48 4.39 3.48a10.55 10.55 0 0 0 4-.91l.94 2.65a13.39 13.39 0 0 1-5.45 1.25zm-3.87-8.74h6.16c-.18-2.5-1.3-3.48-3-3.48s-2.87 1.09-3.16 3.48zm23.84-11.1h3.82v19.5h-3.28l-.39-1.61a7.19 7.19 0 0 1-4.91 1.95c-3.48 0-5.75-2.24-5.75-7.23s2.63-7.83 6.08-7.83a6.9 6.9 0 0 1 4.42 1.51zm-3.33 8c-2.11 0-3.28 1.48-3.28 4.63 0 2.76 1.09 4.11 3.15 4.11a5.27 5.27 0 0 0 3.46-1.51v-6.14a5.65 5.65 0 0 0-3.33-1.08zm12.01 8.75l9.26-12.82h-9.07v-3.28h14.14v2.76l-9.2 12.82h9.33v3.28h-14.46zM1083 373.6c4.58 0 7.36 2.91 7.36 7.46s-2.78 7.59-7.36 7.59-7.41-3-7.41-7.59 2.75-7.46 7.41-7.46zm0 12.14c2.18 0 3.46-1.59 3.46-4.68s-1.27-4.58-3.46-4.58-3.51 1.59-3.51 4.58 1.25 4.68 3.51 4.68zm18.28-12.14c4.58 0 7.36 2.91 7.36 7.46s-2.78 7.59-7.36 7.59-7.41-3-7.41-7.59 2.78-7.46 7.41-7.46zm0 12.14c2.18 0 3.46-1.59 3.46-4.68s-1.27-4.58-3.46-4.58-3.51 1.59-3.51 4.58 1.23 4.68 3.51 4.68zM1122 373.6a4.35 4.35 0 0 1 4.21 2.57 7.13 7.13 0 0 1 5.49-2.57c2.57 0 4.71 1.61 4.71 5.28v9.44h-3.82v-8.45c0-2-.78-2.89-2.37-2.89a5.44 5.44 0 0 0-3.51 1.56v9.78h-3.82v-8.45c0-2-.81-2.89-2.37-2.89a5.58 5.58 0 0 0-3.54 1.56v9.78h-3.8v-14.38h3.48a11 11 0 0 0 .26 1.92 6.66 6.66 0 0 1 5.08-2.26zm21.6-5.75a2.23 2.23 0 1 1-2.39 2.24 2.19 2.19 0 0 1 2.39-2.24zm-1.9 6.08h3.8v14.38h-3.8zm18.36-.33c2.73 0 4.91 1.61 4.91 5.28v9.44h-3.82v-8.45c0-2-.86-2.89-2.6-2.89a6 6 0 0 0-3.74 1.56v9.78H1151v-14.38h3.48a11 11 0 0 0 .26 1.92 7.1 7.1 0 0 1 5.32-2.26zm15.94 18.95c-4.78 0-6.55-1.35-6.55-3.41a2.93 2.93 0 0 1 1.9-2.7 2.29 2.29 0 0 1-1.07-2 2.57 2.57 0 0 1 1.74-2.42 3.93 3.93 0 0 1-2.47-3.77c0-3 2.42-4.71 6.37-4.71h.91l7 .23v2.47c-.08 0-1-.21-2-.36a4.25 4.25 0 0 1 .62 2.34c0 2.94-2.44 4.5-6.47 4.5-1.9 0-2.29.49-2.29 1s.39.83 1.2.83c1.22 0 3.15-.18 4.76-.18 2.91 0 4.39 1.59 4.39 3.69-.04 2.94-2.19 4.49-8.04 4.49zm4.37-3.85c0-.75-.39-1.25-2.24-1.25H1176a13.08 13.08 0 0 1-2.37-.18 1.57 1.57 0 0 0-.81 1.35c0 .91 1 1.53 3.48 1.53 3.16.04 4.04-.51 4.04-1.45zm-4.45-8.14c1.79 0 2.81-.86 2.81-2.29s-1-2.26-2.81-2.26-2.7.83-2.7 2.26.96 2.3 2.67 2.3zM873.6 420.55c-3.56 0-5.74-2.1-5.74-5.74 0-3.38 2.14-5.76 5.24-5.76s4.86 2 4.86 5.26a7 7 0 0 1-.1 1.24h-7.72c.24 2.08 1.42 3.08 3.64 3.08a7.67 7.67 0 0 0 3.06-.74l.68 1.7a9.08 9.08 0 0 1-3.92.96zm-3.44-6.7h5.64c-.14-2.1-1.22-2.94-2.76-2.94s-2.64.96-2.88 2.94zm12.68-8.78a1.39 1.39 0 1 1-1.46 1.4 1.35 1.35 0 0 1 1.46-1.4zm-1.1 4.22h2.2v11h-2.2zm10.62 11.26c-2 0-3.32-1-3.32-3.18v-6.26h-1.76v-1.6l1.76-.22v-1.9l2.2-.36v2.26h3.66v1.82h-3.66V417c0 1.3.56 1.68 1.78 1.68a8.7 8.7 0 0 0 1.94-.3l.42 1.72a8.93 8.93 0 0 1-3.02.45zm12.42-11.5c2.12 0 3.72 1.28 3.72 4v7.28h-2.2v-6.72c0-1.7-.72-2.54-2.24-2.54a5.34 5.34 0 0 0-3.38 1.46v7.8h-2.2v-15h2.2v5.32a6 6 0 0 1 4.1-1.6zm13.16 11.5c-3.56 0-5.74-2.1-5.74-5.74 0-3.38 2.14-5.76 5.24-5.76s4.86 2 4.86 5.26a7 7 0 0 1-.1 1.24h-7.72c.24 2.08 1.42 3.08 3.64 3.08a7.67 7.67 0 0 0 3.06-.74l.68 1.7a9.08 9.08 0 0 1-3.92.96zm-3.44-6.7h5.64c-.14-2.1-1.22-2.94-2.76-2.94s-2.64.96-2.88 2.94zm16.58-4.8a3.28 3.28 0 0 1 1.68.44l-.6 2a3.62 3.62 0 0 0-1.28-.24 3 3 0 0 0-2.6 2.1v7h-2.2v-11H928a14.42 14.42 0 0 0 .2 1.72 3.08 3.08 0 0 1 2.88-2.02zm15.54 0c3.28 0 5.4 2.28 5.4 5.7s-2.12 5.8-5.4 5.8-5.42-2.32-5.42-5.8 2.12-5.7 5.42-5.7zm0 9.6c2 0 3.16-1.4 3.16-3.9s-1.18-3.82-3.16-3.82-3.18 1.42-3.18 3.82 1.18 3.9 3.18 3.9zm15.6-9.6c2.12 0 3.78 1.28 3.78 4v7.28h-2.2v-6.72c0-1.7-.78-2.54-2.3-2.54a5.45 5.45 0 0 0-3.44 1.46v7.8h-2.2v-11h2a10.53 10.53 0 0 0 .16 1.42 6 6 0 0 1 4.2-1.7zm13.22 11.5c-3.56 0-5.74-2.1-5.74-5.74 0-3.38 2.14-5.76 5.24-5.76s4.86 2 4.86 5.26a7 7 0 0 1-.1 1.24H972c.24 2.08 1.42 3.08 3.64 3.08a7.67 7.67 0 0 0 3.06-.74l.68 1.7a9.08 9.08 0 0 1-3.94.96zm-3.44-6.7h5.64c-.14-2.1-1.22-2.94-2.76-2.94s-2.64.96-2.88 2.94zm22.56-4.8c3.28 0 5.4 2.28 5.4 5.7s-2.12 5.8-5.4 5.8-5.42-2.32-5.42-5.8 2.12-5.7 5.42-5.7zm0 9.6c2 0 3.16-1.4 3.16-3.9s-1.18-3.82-3.16-3.82-3.18 1.42-3.18 3.82 1.18 3.9 3.18 3.9zm11.78-7.54v9.2h-2.2v-9.2h-1.66v-1.64l1.66-.18v-.52c0-2.28 1.3-3.7 3.52-3.7a7.88 7.88 0 0 1 2.18.3l-.28 1.72a7.22 7.22 0 0 0-1.42-.16c-1.22 0-1.8.6-1.8 2.14v.22h2.66v1.82zm16.18 9.44c-2 0-3.32-1-3.32-3.18v-6.26h-1.76v-1.6l1.76-.22v-1.9l2.2-.36v2.26h3.66v1.82h-3.66V417c0 1.3.56 1.68 1.78 1.68a8.7 8.7 0 0 0 1.94-.3l.42 1.72a8.93 8.93 0 0 1-3.02.45zm12.42-11.5c2.12 0 3.72 1.28 3.72 4v7.28h-2.2v-6.72c0-1.7-.72-2.54-2.24-2.54a5.34 5.34 0 0 0-3.38 1.46v7.8h-2.2v-15h2.2v5.32a6 6 0 0 1 4.1-1.6zm13.16 11.5c-3.56 0-5.74-2.1-5.74-5.74 0-3.38 2.14-5.76 5.24-5.76s4.86 2 4.86 5.26a7 7 0 0 1-.1 1.24h-7.72c.24 2.08 1.42 3.08 3.64 3.08a7.67 7.67 0 0 0 3.06-.74l.68 1.7a9.08 9.08 0 0 1-3.92.96zm-3.44-6.7h5.64c-.14-2.1-1.22-2.94-2.76-2.94s-2.64.96-2.88 2.94zm11.22 4.32a14.09 14.09 0 0 0 3.26.5c2 0 2.72-.48 2.72-1.24s-.7-1.24-2.74-1.72c-2.6-.62-3.58-1.7-3.58-3.42s1.52-3.24 4.44-3.24a11.74 11.74 0 0 1 3.58.62l-.44 1.72a10.74 10.74 0 0 0-3-.46c-1.56 0-2.34.52-2.34 1.26s.66 1.22 2.42 1.64c2.66.64 3.9 1.66 3.9 3.4 0 2-1.64 3.32-4.68 3.32a13.23 13.23 0 0 1-4-.66zm16.96 2.38c-3.56 0-5.74-2.1-5.74-5.74 0-3.38 2.14-5.76 5.24-5.76s4.86 2 4.86 5.26a7 7 0 0 1-.1 1.24h-7.72c.24 2.08 1.42 3.08 3.64 3.08a7.67 7.67 0 0 0 3.06-.74l.68 1.7a9.08 9.08 0 0 1-3.92.96zm-3.44-6.7h5.6c-.14-2.1-1.22-2.94-2.76-2.94s-2.6.96-2.84 2.94zm17.6 4.32a14.09 14.09 0 0 0 3.26.5c2 0 2.72-.48 2.72-1.24s-.7-1.24-2.74-1.72c-2.6-.62-3.58-1.7-3.58-3.42s1.52-3.24 4.44-3.24a11.74 11.74 0 0 1 3.58.62l-.44 1.72a10.74 10.74 0 0 0-3-.46c-1.56 0-2.34.52-2.34 1.26s.66 1.22 2.42 1.64c2.66.64 3.9 1.66 3.9 3.4 0 2-1.64 3.32-4.68 3.32a13.23 13.23 0 0 1-4-.66zm16.7-9.12a10.56 10.56 0 0 1 3.48.68l-.54 1.8a7.37 7.37 0 0 0-2.7-.52c-2.16 0-3.46 1.28-3.46 3.78s1.3 3.8 3.46 3.8a7.54 7.54 0 0 0 2.7-.5l.54 1.8a9.89 9.89 0 0 1-3.48.66c-3.4 0-5.46-2.14-5.46-5.76s2.06-5.74 5.46-5.74zm12.12 0a3.28 3.28 0 0 1 1.68.44l-.6 2a3.62 3.62 0 0 0-1.28-.24 3 3 0 0 0-2.6 2.1v7h-2.2v-11h1.94a14.42 14.42 0 0 0 .2 1.72 3.08 3.08 0 0 1 2.86-2.02zm9.04 0c3.28 0 5.4 2.28 5.4 5.7s-2.12 5.8-5.4 5.8-5.42-2.32-5.42-5.8 2.12-5.7 5.42-5.7zm0 9.6c2 0 3.16-1.4 3.16-3.9s-1.18-3.82-3.16-3.82-3.18 1.42-3.18 3.82 1.18 3.9 3.18 3.9zm9.24-13.34h2.2v15h-2.2zm6.9 0h2.2v15h-2.2zm15.84 15l-4.32-11h2.38l3.2 8.66 3.14-8.66h2.34l-4.32 11zm10.78-15.24a1.39 1.39 0 1 1-1.46 1.4 1.35 1.35 0 0 1 1.46-1.4zm-1.1 4.22h2.2v11h-2.2zm11.78 11.26c-3.56 0-5.74-2.1-5.74-5.74 0-3.38 2.14-5.76 5.24-5.76s4.86 2 4.86 5.26a7 7 0 0 1-.1 1.24h-7.72c.24 2.08 1.42 3.08 3.64 3.08a7.67 7.67 0 0 0 3.06-.74l.68 1.7a9.08 9.08 0 0 1-3.92.96zm-3.44-6.7h5.64c-.14-2.1-1.22-2.94-2.76-2.94s-2.64.96-2.88 2.94zm18.62-1.26l-2.42 7.72h-2.4l-3.9-11h2.38l2.72 8.64 2.52-8.64h2.18l2.62 8.64 2.62-8.64h2.34l-3.8 11h-2.4zm11.3 5.58a14.09 14.09 0 0 0 3.26.5c2 0 2.72-.48 2.72-1.24s-.7-1.24-2.74-1.72c-2.6-.62-3.58-1.7-3.58-3.42s1.52-3.24 4.44-3.24a11.74 11.74 0 0 1 3.58.62l-.44 1.72a10.74 10.74 0 0 0-3-.46c-1.56 0-2.34.52-2.34 1.26s.66 1.22 2.42 1.64c2.66.64 3.9 1.66 3.9 3.4 0 2-1.64 3.32-4.68 3.32a13.23 13.23 0 0 1-4-.66zm-334.98 10.9a1.39 1.39 0 1 1-1.46 1.4 1.35 1.35 0 0 1 1.46-1.4zm-1.1 4.22h2.2v11h-2.2zm6.52 8.88a14.09 14.09 0 0 0 3.26.5c2 0 2.72-.48 2.72-1.24s-.7-1.24-2.74-1.72c-2.6-.62-3.58-1.7-3.58-3.42s1.52-3.24 4.44-3.24a11.74 11.74 0 0 1 3.58.62l-.44 1.72a10.74 10.74 0 0 0-3-.46c-1.56 0-2.34.52-2.34 1.26s.66 1.22 2.42 1.64c2.66.64 3.9 1.66 3.9 3.4 0 2-1.64 3.32-4.68 3.32a13.23 13.23 0 0 1-4-.66zm23.46-9.12a3.28 3.28 0 0 1 1.68.44l-.6 2a3.62 3.62 0 0 0-1.28-.24 3 3 0 0 0-2.6 2.1v7h-2.2v-11h1.94a14.42 14.42 0 0 0 .2 1.72 3.08 3.08 0 0 1 2.86-2.02zm9.32 11.5c-3.56 0-5.74-2.1-5.74-5.74 0-3.38 2.14-5.76 5.24-5.76s4.86 2 4.86 5.26a7 7 0 0 1-.1 1.24h-7.72c.24 2.08 1.42 3.08 3.64 3.08a7.67 7.67 0 0 0 3.06-.74l.68 1.7a9.08 9.08 0 0 1-3.92.96zm-3.44-6.7h5.64c-.14-2.1-1.22-2.94-2.76-2.94s-2.6.96-2.84 2.94zm11.26 4.32a14.09 14.09 0 0 0 3.26.5c2 0 2.72-.48 2.72-1.24s-.7-1.24-2.74-1.72c-2.6-.62-3.58-1.7-3.58-3.42s1.52-3.24 4.44-3.24a11.74 11.74 0 0 1 3.58.62l-.44 1.72a10.74 10.74 0 0 0-3-.46c-1.56 0-2.34.52-2.34 1.26s.66 1.22 2.42 1.64c2.66.64 3.9 1.66 3.9 3.4 0 2-1.64 3.32-4.68 3.32a13.23 13.23 0 0 1-4-.66zm14.26 5.14h-2.2v-14h2a10.53 10.53 0 0 0 .16 1.42 5.47 5.47 0 0 1 4-1.66c2.58 0 4.3 1.72 4.3 5.52s-2.08 6-4.8 6a5.91 5.91 0 0 1-3.42-1.12zm3-4.74c1.88 0 3-1.32 3-4 0-2.38-1-3.52-2.82-3.52a4.81 4.81 0 0 0-3.16 1.44v5.1a5.26 5.26 0 0 0 2.98.98zm13.64-9.52c3.28 0 5.4 2.28 5.4 5.7s-2.12 5.8-5.4 5.8-5.42-2.32-5.42-5.8 2.12-5.7 5.42-5.7zm0 9.6c2 0 3.16-1.4 3.16-3.9s-1.18-3.82-3.16-3.82-3.18 1.42-3.18 3.82 1.18 3.9 3.18 3.9zm15.6-9.6c2.12 0 3.78 1.28 3.78 4v7.28h-2.2v-6.72c0-1.7-.78-2.54-2.3-2.54a5.45 5.45 0 0 0-3.44 1.46v7.8H956v-11h2a10.53 10.53 0 0 0 .16 1.42 6 6 0 0 1 4.16-1.7zm7.96 9.12a14.09 14.09 0 0 0 3.26.5c2 0 2.72-.48 2.72-1.24s-.7-1.24-2.74-1.72c-2.6-.62-3.58-1.7-3.58-3.42s1.52-3.24 4.44-3.24a11.74 11.74 0 0 1 3.58.62l-.44 1.72a10.74 10.74 0 0 0-3-.46c-1.56 0-2.34.52-2.34 1.26s.66 1.22 2.42 1.64c2.66.64 3.9 1.66 3.9 3.4 0 2-1.64 3.32-4.68 3.32a13.23 13.23 0 0 1-4-.66zm13.16-13.1a1.39 1.39 0 1 1-1.46 1.4 1.35 1.35 0 0 1 1.46-1.4zm-1.1 4.22h2.2v11h-2.2zm12.88-.24c2.64 0 4.22 1.8 4.22 5.66s-1.78 5.84-5.92 5.84a19.61 19.61 0 0 1-4.3-.66v-14.58h2.2v5.34a5.24 5.24 0 0 1 3.8-1.6zm-3.8 9.42a7.24 7.24 0 0 0 2.12.34c2.6 0 3.66-1.46 3.66-4.1s-.94-3.66-2.66-3.66a4.45 4.45 0 0 0-3.12 1.44zm11.86-13.16h2.2v15h-2.2zm11.78 15.24c-3.56 0-5.74-2.1-5.74-5.74 0-3.38 2.14-5.76 5.24-5.76s4.86 2 4.86 5.26a7 7 0 0 1-.1 1.24h-7.72c.24 2.08 1.42 3.08 3.64 3.08a7.67 7.67 0 0 0 3.06-.74l.68 1.7a9.08 9.08 0 0 1-3.92.96zm-3.44-6.7h5.64c-.14-2.1-1.22-2.94-2.76-2.94s-2.64.96-2.88 2.94zm20.52-2.74v9.2h-2.2v-9.2h-1.66v-1.64l1.66-.18v-.52c0-2.28 1.3-3.7 3.52-3.7a7.88 7.88 0 0 1 2.18.3l-.28 1.72a7.22 7.22 0 0 0-1.42-.16c-1.22 0-1.8.6-1.8 2.14v.22h2.66v1.82zm10.62-2.06c3.28 0 5.4 2.28 5.4 5.7s-2.12 5.8-5.4 5.8-5.42-2.32-5.42-5.8 2.12-5.7 5.42-5.7zm0 9.6c2 0 3.16-1.4 3.16-3.9s-1.18-3.82-3.16-3.82-3.18 1.42-3.18 3.82 1.18 3.9 3.18 3.9zm14.24-9.6a3.28 3.28 0 0 1 1.68.44l-.6 2a3.62 3.62 0 0 0-1.28-.24 3 3 0 0 0-2.6 2.1v7h-2.2v-11h1.94a14.42 14.42 0 0 0 .2 1.72 3.08 3.08 0 0 1 2.86-2.02zm10.22 9.84l5.74-7.78h-5.64v-1.82h8.68v1.42l-5.76 7.78h5.9v1.82h-8.88zm17.4-9.84c3.28 0 5.4 2.28 5.4 5.7s-2.12 5.8-5.4 5.8-5.42-2.32-5.42-5.8 2.12-5.7 5.42-5.7zm0 9.6c2 0 3.16-1.4 3.16-3.9s-1.18-3.82-3.16-3.82-3.18 1.42-3.18 3.82 1.18 3.9 3.18 3.9zm13.82-9.6c3.28 0 5.4 2.28 5.4 5.7s-2.12 5.8-5.4 5.8-5.42-2.32-5.42-5.8 2.12-5.7 5.42-5.7zm0 9.6c2 0 3.16-1.4 3.16-3.9s-1.18-3.82-3.16-3.82-3.18 1.42-3.18 3.82 1.18 3.9 3.18 3.9zm15.44-9.6a3.31 3.31 0 0 1 3.2 1.94 6.17 6.17 0 0 1 4.4-1.94c2 0 3.6 1.28 3.6 4v7.28h-2.2v-6.72c0-1.7-.72-2.54-2.12-2.54a5.18 5.18 0 0 0-3.3 1.46 4.43 4.43 0 0 1 0 .52v7.28h-2.2v-6.72c0-1.7-.72-2.54-2.12-2.54a5.14 5.14 0 0 0-3.28 1.46v7.8h-2.2v-11h2a10.53 10.53 0 0 0 .16 1.42 5.68 5.68 0 0 1 4.06-1.7zm16.84-3.98a1.39 1.39 0 1 1-1.46 1.4 1.35 1.35 0 0 1 1.46-1.4zm-1.1 4.22h2.2v11h-2.2zm13.24-.24c2.12 0 3.78 1.28 3.78 4v7.28h-2.2v-6.72c0-1.7-.78-2.54-2.3-2.54a5.45 5.45 0 0 0-3.44 1.46v7.8h-2.2v-11h2a10.53 10.53 0 0 0 .16 1.42 6 6 0 0 1 4.2-1.7zm12.48 14.5c-3.48 0-4.86-1-4.86-2.58a2.23 2.23 0 0 1 1.62-2.12 1.76 1.76 0 0 1-.94-1.56 1.86 1.86 0 0 1 1.36-1.8 3 3 0 0 1-1.92-2.92c0-2.3 1.78-3.5 4.64-3.5h.68l5.18.18v1.66l-1.68-.28a3.17 3.17 0 0 1 .58 1.92c0 2.22-1.84 3.4-4.76 3.4-1.56 0-1.88.46-1.88.92s.34.8 1 .8c.94 0 2.38-.18 3.5-.18 2.2 0 3.4 1.28 3.4 2.78.04 2.2-1.58 3.28-5.92 3.28zm3.72-3c0-.68-.36-1.22-1.84-1.22-.7 0-1.6.1-2.26.1a10.16 10.16 0 0 1-1.42-.1 1.53 1.53 0 0 0-.82 1.32c0 .78.84 1.3 2.76 1.3 2.72.05 3.58-.52 3.58-1.4zm-3.82-6.06c1.6 0 2.54-.7 2.54-1.92s-.94-1.92-2.54-1.92-2.42.7-2.42 1.92.9 1.92 2.42 1.92zm-281.92 18.56a10.56 10.56 0 0 1 3.48.68l-.54 1.8a7.37 7.37 0 0 0-2.7-.52c-2.16 0-3.46 1.28-3.46 3.78s1.3 3.8 3.46 3.8a7.54 7.54 0 0 0 2.7-.5l.54 1.8a9.89 9.89 0 0 1-3.48.66c-3.4 0-5.46-2.14-5.46-5.76s2.06-5.74 5.46-5.74zm11.6 0c3.28 0 5.4 2.28 5.4 5.7s-2.12 5.8-5.4 5.8-5.42-2.32-5.42-5.8 2.12-5.7 5.42-5.7zm0 9.6c2 0 3.16-1.4 3.16-3.9s-1.18-3.82-3.16-3.82-3.18 1.42-3.18 3.82 1.18 3.9 3.18 3.9zm15.6-9.6c2.12 0 3.78 1.28 3.78 4v7.28h-2.2v-6.72c0-1.7-.78-2.54-2.3-2.54a5.45 5.45 0 0 0-3.44 1.46v7.8h-2.2v-11h2a10.53 10.53 0 0 0 .16 1.42 6 6 0 0 1 4.2-1.7zm12.06 11.5c-2 0-3.32-1-3.32-3.18v-6.26h-1.76v-1.6l1.76-.22v-1.9l2.2-.36v2.26h3.66v1.82h-3.66V465c0 1.3.56 1.68 1.78 1.68a8.7 8.7 0 0 0 1.94-.3l.42 1.72a8.93 8.93 0 0 1-3.02.45zm11.02 0c-3.56 0-5.74-2.1-5.74-5.74 0-3.38 2.14-5.76 5.24-5.76s4.86 2 4.86 5.26a7 7 0 0 1-.1 1.24h-7.72c.24 2.08 1.42 3.08 3.64 3.08a7.67 7.67 0 0 0 3.06-.74l.68 1.7a9.08 9.08 0 0 1-3.92.96zm-3.44-6.7h5.64c-.14-2.1-1.22-2.94-2.76-2.94s-2.64.96-2.88 2.94zm17.94-4.8c2.12 0 3.78 1.28 3.78 4v7.28h-2.2v-6.72c0-1.7-.78-2.54-2.3-2.54a5.45 5.45 0 0 0-3.44 1.46v7.8h-2.2v-11h2a10.53 10.53 0 0 0 .16 1.42 6 6 0 0 1 4.2-1.7zm12.06 11.5c-2 0-3.32-1-3.32-3.18v-6.26h-1.76v-1.6l1.76-.22v-1.9L949 455v2.26h3.66v1.82H949V465c0 1.3.56 1.68 1.78 1.68a8.7 8.7 0 0 0 1.94-.3l.42 1.72a8.93 8.93 0 0 1-2.98.45zm7.62-2.9a1.45 1.45 0 1 1-1.54 1.46 1.44 1.44 0 0 1 1.54-1.46zM141 980.5v4h-2.3V970h4.48c3.86 0 6.16 1.8 6.16 5.1 0 3.48-2.3 5.4-6.16 5.4zm0-8.58v6.66h1.78c2.72 0 4.26-1.08 4.26-3.48 0-2.16-1.52-3.18-4.26-3.18zm15.9 12.82c-2.24 0-3.86-1.22-3.86-4.08v-7.18h2.2v6.82c0 1.72.72 2.44 2.14 2.44a5.89 5.89 0 0 0 3.44-1.26v-8H163v11h-1.86l-.24-1.22a6.94 6.94 0 0 1-4 1.48zm16.8-11.5c2.64 0 4.22 1.8 4.22 5.66s-1.78 5.84-5.92 5.84a19.64 19.64 0 0 1-4.3-.66V969.5h2.2v5.34a5.24 5.24 0 0 1 3.8-1.6zm-3.8 9.42a7.24 7.24 0 0 0 2.1.34c2.6 0 3.66-1.46 3.66-4.1s-.94-3.66-2.66-3.66a4.45 4.45 0 0 0-3.12 1.44zm11.86-13.16H184v15h-2.2zm7.98-.24a1.39 1.39 0 1 1-1.46 1.4 1.35 1.35 0 0 1 1.46-1.4zm-1.1 4.22h2.2v11h-2.2zm11.5-.24a10.56 10.56 0 0 1 3.48.68l-.54 1.8a7.37 7.37 0 0 0-2.7-.52c-2.16 0-3.46 1.28-3.46 3.78s1.3 3.8 3.46 3.8a7.55 7.55 0 0 0 2.7-.5l.54 1.8a9.9 9.9 0 0 1-3.48.66c-3.4 0-5.46-2.14-5.46-5.76s2.06-5.74 5.46-5.74zm115.36 8.82a12.18 12.18 0 0 0 3.86.72c2.44 0 3.48-.78 3.48-2s-.78-1.9-3.4-2.6c-3.12-.84-4.42-2.22-4.42-4.28 0-2.3 2-4.12 5.34-4.12a12.69 12.69 0 0 1 4.16.72l-.5 1.86a11.32 11.32 0 0 0-3.54-.62c-2.2 0-3.18.84-3.18 2s.9 1.92 3.2 2.52c3.38.88 4.66 2.26 4.66 4.42 0 2.4-1.94 4.08-5.44 4.08a13.68 13.68 0 0 1-4.74-.8zm17.42 2.68c-2.24 0-3.86-1.22-3.86-4.08v-7.18h2.2v6.82c0 1.72.72 2.44 2.14 2.44a5.89 5.89 0 0 0 3.44-1.26v-8H339v11h-1.86l-.24-1.22a6.94 6.94 0 0 1-3.98 1.48zm16.8-11.5c2.64 0 4.22 1.8 4.22 5.66s-1.78 5.84-5.92 5.84a19.61 19.61 0 0 1-4.3-.66V969.5h2.2v5.34a5.24 5.24 0 0 1 3.8-1.6zm-3.8 9.42a7.24 7.24 0 0 0 2.08.34c2.6 0 3.66-1.46 3.66-4.1s-.94-3.66-2.66-3.66a4.45 4.45 0 0 0-3.12 1.44zm16.48-9.42a10.56 10.56 0 0 1 3.48.68l-.54 1.8a7.37 7.37 0 0 0-2.7-.52c-2.16 0-3.46 1.28-3.46 3.78s1.3 3.8 3.46 3.8a7.54 7.54 0 0 0 2.7-.5l.54 1.8a9.89 9.89 0 0 1-3.48.66c-3.4 0-5.46-2.14-5.46-5.76s2.06-5.74 5.46-5.74zm7.12-3.74h2.2v15h-2.2zm13.28 8.44a2.4 2.4 0 0 0-2.72-2.72 9 9 0 0 0-3.34.66l-.56-1.7a11.22 11.22 0 0 1 4.26-.92c3.12 0 4.56 1.64 4.56 4.42v6.82h-1.94l-.18-1.3a5.15 5.15 0 0 1-3.64 1.54c-2.38 0-3.68-1.44-3.68-3.26 0-2 1.62-3.38 4.54-3.38a16 16 0 0 1 2.7.26zm-2.28 1.82c-2 0-2.72.76-2.72 1.62s.54 1.46 1.88 1.46a4.94 4.94 0 0 0 3.12-1.32v-1.58a15.22 15.22 0 0 0-2.28-.18zm8.66 2.6a14.09 14.09 0 0 0 3.26.5c2 0 2.72-.48 2.72-1.24s-.7-1.24-2.74-1.72c-2.6-.62-3.58-1.7-3.58-3.42s1.52-3.24 4.44-3.24a11.74 11.74 0 0 1 3.58.62l-.44 1.72a10.74 10.74 0 0 0-3-.46c-1.56 0-2.34.52-2.34 1.26s.66 1.22 2.42 1.64c2.66.64 3.9 1.66 3.9 3.4 0 2-1.64 3.32-4.68 3.32a13.23 13.23 0 0 1-4-.66zm11.7 0a14.09 14.09 0 0 0 3.26.5c2 0 2.72-.48 2.72-1.24s-.7-1.24-2.74-1.72c-2.6-.62-3.58-1.7-3.58-3.42s1.52-3.24 4.44-3.24a11.74 11.74 0 0 1 3.58.62l-.44 1.72a10.74 10.74 0 0 0-3-.46c-1.56 0-2.34.52-2.34 1.26s.66 1.22 2.42 1.64c2.66.64 3.9 1.66 3.9 3.4 0 2-1.64 3.32-4.68 3.32a13.23 13.23 0 0 1-4-.66zm18.46-4.42a2.4 2.4 0 0 0-2.72-2.72 9 9 0 0 0-3.34.66l-.56-1.7a11.22 11.22 0 0 1 4.26-.92c3.12 0 4.56 1.64 4.56 4.42v6.82h-1.94l-.18-1.3a5.15 5.15 0 0 1-3.64 1.54c-2.38 0-3.68-1.44-3.68-3.26 0-2 1.62-3.38 4.54-3.38a16 16 0 0 1 2.7.26zm-2.28 1.82c-2 0-2.72.76-2.72 1.62s.54 1.46 1.88 1.46a4.94 4.94 0 0 0 3.12-1.32v-1.58a15.22 15.22 0 0 0-2.28-.18zm15.02-6.52c2.64 0 4.22 1.8 4.22 5.66s-1.78 5.84-5.92 5.84a19.61 19.61 0 0 1-4.3-.66V969.5h2.2v5.34a5.24 5.24 0 0 1 3.8-1.6zm-3.8 9.42a7.24 7.24 0 0 0 2.12.34c2.6 0 3.66-1.46 3.66-4.1s-.94-3.66-2.66-3.66a4.45 4.45 0 0 0-3.12 1.44zm11.86-13.16h2.2v15h-2.2zm11.78 15.24c-3.56 0-5.74-2.1-5.74-5.74 0-3.38 2.14-5.76 5.24-5.76s4.86 2 4.86 5.26a7 7 0 0 1-.1 1.24h-7.72c.24 2.08 1.42 3.08 3.64 3.08a7.67 7.67 0 0 0 3.06-.74l.68 1.7a9.08 9.08 0 0 1-3.92.96zm-3.44-6.7h5.64c-.14-2.1-1.22-2.94-2.76-2.94s-2.64.96-2.88 2.9z" fill="#00607b"/><circle cx="283.03" cy="977.5" r="15.75" fill="#00607b"/><circle cx="105.75" cy="977.5" r="15.75" fill="#5ad9f5"/><path fill="none" stroke="#5ad9f5" stroke-miterlimit="10" stroke-width="3" d="M633.6 145.35h178.23"/><path fill="#5ad9f5" d="M801.89 157.62l-2.05-2.2 10.84-10.07-10.84-10.07 2.05-2.2 13.19 12.27-13.19 12.27z"/><path d="M300.81 823.09V828h-4v-18.85h6.6c5 0 8 2.44 8 6.84 0 4.55-2.94 7.1-8 7.1zm0-10.87V820h1.82c3 0 4.68-1.2 4.68-4 0-2.63-1.64-3.77-4.68-3.77zm22.98 7.49c0-2.29-1-3.41-3.38-3.41a11.51 11.51 0 0 0-4.24.83l-.83-2.63a15.85 15.85 0 0 1 5.9-1.22c4.42 0 6.37 2.16 6.37 5.93V828h-3.38l-.31-1.51a6.37 6.37 0 0 1-4.55 1.85c-3.09 0-4.78-1.85-4.78-4.29 0-2.89 2.21-4.5 5.88-4.5a19 19 0 0 1 3.33.31zm-2.44 2.18c-2.24 0-3.07.83-3.07 1.9s.68 1.72 2.16 1.72a5.26 5.26 0 0 0 3.35-1.38V822a22.71 22.71 0 0 0-2.44-.11zm17.26 10.35c-4.79 0-6.55-1.35-6.55-3.41a2.92 2.92 0 0 1 1.9-2.7 2.29 2.29 0 0 1-1.07-2 2.57 2.57 0 0 1 1.74-2.42 3.93 3.93 0 0 1-2.47-3.77c0-3 2.42-4.71 6.37-4.71h.91l7 .23V816c-.08 0-1-.21-2-.36A4.25 4.25 0 0 1 345 818c0 2.94-2.44 4.5-6.47 4.5-1.9 0-2.29.49-2.29 1s.39.83 1.2.83c1.22 0 3.15-.18 4.76-.18 2.91 0 4.39 1.59 4.39 3.69 0 2.86-2.1 4.4-7.98 4.4zm4.37-3.85c0-.75-.39-1.25-2.24-1.25h-2.13a13.09 13.09 0 0 1-2.37-.18 1.57 1.57 0 0 0-.81 1.35c0 .91 1 1.53 3.48 1.53 3.19.03 4.09-.51 4.09-1.45zm-4.45-8.14c1.79 0 2.81-.86 2.81-2.29s-1-2.26-2.81-2.26-2.71.83-2.71 2.26 1 2.29 2.72 2.29zm18.91 8.09c-4.91 0-7.8-2.76-7.8-7.51 0-4.55 2.83-7.54 7.12-7.54s6.63 2.68 6.63 6.84a9.28 9.28 0 0 1-.13 1.74h-9.7c.31 2.42 1.72 3.48 4.39 3.48a10.55 10.55 0 0 0 4-.91l.94 2.65a13.4 13.4 0 0 1-5.45 1.25zm-3.87-8.74h6.16c-.18-2.5-1.3-3.48-3-3.48s-2.88 1.09-3.17 3.48zm18.01 8.4l-6.68-18.85h4.39l4.52 14.61 4.5-14.61h4.29L375.9 828zM388 807.54a2.23 2.23 0 1 1-2.39 2.24 2.19 2.19 0 0 1 2.39-2.24zm-1.9 6.08h3.8V828h-3.8zm16.19 14.72c-4.91 0-7.8-2.76-7.8-7.51 0-4.55 2.83-7.54 7.12-7.54s6.63 2.68 6.63 6.84a9.28 9.28 0 0 1-.13 1.74h-9.7c.31 2.42 1.72 3.48 4.39 3.48a10.55 10.55 0 0 0 4-.91l.94 2.65a13.4 13.4 0 0 1-5.45 1.25zm-3.87-8.74h6.16c-.18-2.5-1.3-3.48-3-3.48s-2.88 1.09-3.17 3.48zm24.02-.54l-2.76 8.94h-4l-5-14.38h4.11l2.91 10.58 2.89-10.58h3.64l3 10.58 2.77-10.58h4L429.17 828h-4z" fill="#00607b"/><rect x="90" y="100.48" width="90" height="90" rx="45" ry="45" fill="#00607b"/><rect x="180.03" y="269.11" width="90" height="90" rx="45" ry="45" fill="#5ad9f5"/><rect x="180.03" y="437.74" width="90" height="90" rx="45" ry="45" fill="#5ad9f5"/><rect x="180.03" y="606.37" width="90" height="90" rx="45" ry="45" fill="#00607b"/><rect x="180.03" y="775" width="90" height="90" rx="45" ry="45" fill="#00607b"/><rect x="850.47" y="99.96" width="90.78" height="90.78" rx="45.39" ry="45.39" fill="#5ad9f5"/><path d="M206.5 135.42h7.15c5.75 0 9.15 3.22 9.15 9.39s-3.41 9.46-9.15 9.46h-7.15zm4 3.12v12.61h2.37c3.72 0 5.85-1.61 5.85-6.34s-2.11-6.27-5.85-6.27zm23.5 1.02c4.58 0 7.36 2.91 7.36 7.46s-2.78 7.59-7.36 7.59-7.41-3-7.41-7.59 2.79-7.46 7.41-7.46zm0 12.14c2.18 0 3.46-1.59 3.46-4.68s-1.27-4.58-3.46-4.58-3.5 1.56-3.5 4.56 1.27 4.7 3.5 4.7zm18.26-12.14a13.6 13.6 0 0 1 4.65.88l-.78 2.83a9.36 9.36 0 0 0-3.22-.62c-2.55 0-4.11 1.48-4.11 4.42s1.56 4.42 4.11 4.42a9.23 9.23 0 0 0 3.22-.6l.78 2.83a13 13 0 0 1-4.65.88c-4.63 0-7.36-2.83-7.36-7.54s2.73-7.5 7.36-7.5zm13.83 15.05c-3 0-5.12-1.61-5.12-5.38v-9.33h3.82v8.76c0 2 .81 2.86 2.42 2.86a6.32 6.32 0 0 0 3.74-1.35V139.9h3.82v14.38h-3.25l-.39-1.43a8.58 8.58 0 0 1-5.04 1.76zm22.98-15.05a4.35 4.35 0 0 1 4.21 2.57 7.13 7.13 0 0 1 5.49-2.57c2.57 0 4.71 1.61 4.71 5.28v9.44h-3.82v-8.45c0-2-.78-2.89-2.37-2.89a5.43 5.43 0 0 0-3.51 1.56v9.78H290v-8.45c0-2-.81-2.89-2.37-2.89a5.58 5.58 0 0 0-3.54 1.56v9.78h-3.8V139.9h3.48a11 11 0 0 0 .26 1.92 6.66 6.66 0 0 1 5.04-2.26zm26.57 15.05c-4.91 0-7.8-2.76-7.8-7.51 0-4.55 2.83-7.54 7.12-7.54s6.63 2.68 6.63 6.84a9.28 9.28 0 0 1-.13 1.74h-9.7c.31 2.42 1.72 3.48 4.39 3.48a10.55 10.55 0 0 0 4-.91l.94 2.65a13.4 13.4 0 0 1-5.45 1.25zm-3.87-8.74h6.16c-.18-2.5-1.3-3.48-3-3.48s-2.87 1.09-3.16 3.49zm23.37-6.31c2.73 0 4.91 1.61 4.91 5.28v9.44h-3.82v-8.45c0-2-.86-2.89-2.6-2.89a6 6 0 0 0-3.74 1.56v9.78h-3.8V139.9h3.48a11 11 0 0 0 .26 1.92 7.1 7.1 0 0 1 5.31-2.26zm15.47 15.05c-2.78 0-4.71-1.33-4.71-4.52v-7.28h-2.1v-2.63l2.11-.29v-2.44l3.82-.62v3.07h4.6v2.91h-4.6v6.68c0 1.61.65 2.08 2.11 2.08a9.8 9.8 0 0 0 2.42-.39l.6 2.7a12.87 12.87 0 0 1-4.25.73zm12.17-.33l-6.68-18.85h4.39L365 150l4.5-14.61h4.29l-6.71 18.85zm16.46-20.47a2.23 2.23 0 1 1-2.39 2.24 2.19 2.19 0 0 1 2.39-2.24zm-1.9 6.08h3.8v14.38h-3.8zm16.15 14.72c-4.91 0-7.8-2.76-7.8-7.51 0-4.55 2.83-7.54 7.13-7.54s6.63 2.68 6.63 6.84a9.28 9.28 0 0 1-.13 1.74h-9.7c.31 2.42 1.72 3.48 4.39 3.48a10.55 10.55 0 0 0 4-.91l.94 2.65a13.4 13.4 0 0 1-5.46 1.25zm-3.87-8.74h6.16c-.18-2.5-1.3-3.48-3-3.48s-2.88 1.09-3.17 3.49zm24.02-.54l-2.76 8.94h-4l-5-14.38H406l2.91 10.58 2.89-10.58h3.64l3 10.58 2.78-10.58h4l-4.86 14.38h-4zm23.53-10.24a15.31 15.31 0 0 1 5.41.94l-.83 3.15a14.14 14.14 0 0 0-4-.68c-3.28 0-5.64 2.11-5.64 6.32s2.37 6.37 5.62 6.37a14.88 14.88 0 0 0 4-.62l.86 3.17a16.74 16.74 0 0 1-5.49.88c-5.59 0-9.18-3.67-9.18-9.8s3.66-9.73 9.25-9.73zm16.25 4.47c4.58 0 7.36 2.91 7.36 7.46s-2.78 7.59-7.36 7.59-7.41-3-7.41-7.59 2.78-7.46 7.41-7.46zm0 12.14c2.18 0 3.46-1.59 3.46-4.68s-1.27-4.58-3.46-4.58-3.51 1.59-3.51 4.58 1.27 4.68 3.51 4.68zm20.93-12.14c2.73 0 4.91 1.61 4.91 5.28v9.44h-3.82v-8.45c0-2-.86-2.89-2.6-2.89a6 6 0 0 0-3.74 1.56v9.78h-3.8V139.9h3.48a11.13 11.13 0 0 0 .26 1.92 7.1 7.1 0 0 1 5.31-2.26zm15.47 15.05c-2.78 0-4.71-1.33-4.71-4.52v-7.28H483v-2.63l2.11-.29v-2.44l3.82-.62v3.07h4.6v2.91h-4.6v6.68c0 1.61.65 2.08 2.11 2.08a9.8 9.8 0 0 0 2.42-.39l.6 2.7a12.87 12.87 0 0 1-4.24.73zm15.36-15.05a4.33 4.33 0 0 1 2.13.55l-.86 3.64a4.33 4.33 0 0 0-1.82-.42 3.57 3.57 0 0 0-3.07 2.21v8.74h-3.8V139.9h3.43a18.61 18.61 0 0 0 .31 2.21 3.93 3.93 0 0 1 3.68-2.55zm11.82 0c4.58 0 7.36 2.91 7.36 7.46s-2.78 7.59-7.36 7.59-7.41-3-7.41-7.59 2.82-7.46 7.41-7.46zm0 12.14c2.18 0 3.46-1.59 3.46-4.68s-1.27-4.58-3.46-4.58-3.51 1.59-3.51 4.58 1.31 4.68 3.51 4.68zm11.92-16.93h3.8v19.5h-3.8zm9.31 0H542v19.5h-3.8zm16.14 19.84c-4.91 0-7.8-2.76-7.8-7.51 0-4.55 2.83-7.54 7.13-7.54s6.63 2.68 6.63 6.84a9.28 9.28 0 0 1-.13 1.74h-9.7c.31 2.42 1.72 3.48 4.39 3.48a10.55 10.55 0 0 0 4-.91l.94 2.65a13.4 13.4 0 0 1-5.46 1.25zm-3.87-8.74h6.16c-.18-2.5-1.3-3.48-3-3.48s-2.87 1.09-3.16 3.49zm21.74-6.31a4.32 4.32 0 0 1 2.13.55l-.86 3.64a4.33 4.33 0 0 0-1.82-.42 3.57 3.57 0 0 0-3.07 2.21v8.74h-3.8V139.9h3.43a18.81 18.81 0 0 0 .31 2.21 3.93 3.93 0 0 1 3.68-2.55zM296.49 655.52a16.36 16.36 0 0 0 5 .91c2.76 0 3.87-.78 3.87-2.08s-.86-2.05-3.87-2.83c-4.13-1.09-5.82-3-5.82-5.69 0-3.17 2.68-5.64 7.36-5.64a18.6 18.6 0 0 1 5.75 1l-.81 3.12a15.78 15.78 0 0 0-4.68-.81c-2.5 0-3.56.86-3.56 2.08s1 2.05 3.72 2.73c4.5 1.12 6.16 3 6.16 5.93 0 3.3-2.57 5.51-7.57 5.51a20.82 20.82 0 0 1-6.37-1zm21.69 7.75h-3.8V645h3.48a11.39 11.39 0 0 0 .26 1.92 6.19 6.19 0 0 1 5-2.26c3.33 0 5.59 2.21 5.59 7.23s-2.63 7.83-6.27 7.83a7.73 7.73 0 0 1-4.24-1.3zm3.3-6.58c2.08 0 3.28-1.48 3.28-4.6 0-2.73-1-4.06-3.12-4.06a5.45 5.45 0 0 0-3.46 1.53v6.08a6 6 0 0 0 3.3 1.05zm19.13-12.03a4.32 4.32 0 0 1 2.13.55l-.86 3.64a4.34 4.34 0 0 0-1.82-.42 3.57 3.57 0 0 0-3.07 2.21v8.74h-3.8V645h3.43a18.81 18.81 0 0 0 .31 2.21 3.93 3.93 0 0 1 3.68-2.55zm12.28 15.05c-4.91 0-7.8-2.76-7.8-7.51 0-4.55 2.83-7.54 7.13-7.54s6.63 2.68 6.63 6.84a9.28 9.28 0 0 1-.13 1.74H349c.31 2.42 1.72 3.48 4.39 3.48a10.55 10.55 0 0 0 4-.91l.94 2.65a13.39 13.39 0 0 1-5.44 1.25zM349 651h6.16c-.18-2.5-1.3-3.48-3-3.48s-2.86 1.06-3.16 3.48zm22.53.08c0-2.29-1-3.41-3.38-3.41a11.52 11.52 0 0 0-4.24.83l-.83-2.63a15.84 15.84 0 0 1 5.9-1.22c4.42 0 6.37 2.16 6.37 5.93v8.79H372l-.31-1.51a6.38 6.38 0 0 1-4.55 1.85c-3.09 0-4.78-1.85-4.78-4.29 0-2.89 2.21-4.5 5.88-4.5a19 19 0 0 1 3.33.31zm-2.44 2.18c-2.24 0-3.07.83-3.07 1.9s.68 1.72 2.16 1.72a5.25 5.25 0 0 0 3.35-1.38v-2.08a22.69 22.69 0 0 0-2.45-.16zm21.11-13.39h3.8v19.5h-3.28l-.39-1.61a7.19 7.19 0 0 1-4.91 1.95c-3.48 0-5.75-2.24-5.75-7.23s2.63-7.83 6.08-7.83a6.9 6.9 0 0 1 4.42 1.51zm-3.33 8c-2.11 0-3.28 1.48-3.28 4.63 0 2.76 1.09 4.11 3.15 4.11a5.27 5.27 0 0 0 3.46-1.51V649a5.65 5.65 0 0 0-3.33-1.12zm17.37 11.5l-6.68-18.85h4.39l4.52 14.61 4.5-14.61h4.29l-6.71 18.85zm16.45-20.46a2.23 2.23 0 1 1-2.39 2.24 2.19 2.19 0 0 1 2.39-2.24zM418.8 645h3.8v14.38h-3.8zm16.14 14.71c-4.91 0-7.8-2.76-7.8-7.51 0-4.55 2.83-7.54 7.13-7.54s6.63 2.68 6.63 6.84a9.28 9.28 0 0 1-.13 1.74h-9.7c.31 2.42 1.72 3.48 4.39 3.48a10.55 10.55 0 0 0 4-.91l.94 2.65a13.39 13.39 0 0 1-5.46 1.25zm-3.87-8.71h6.16c-.18-2.5-1.3-3.48-3-3.48s-2.88 1.06-3.16 3.48zm24.02-.57l-2.76 8.94h-4l-5-14.38h4.11l2.91 10.58 2.92-10.57h3.64l3 10.58 2.77-10.58h4l-4.86 14.38h-4z" fill="#00607b"/><path d="M250.63 644.23a1.49 1.49 0 0 0-.43-1.06l-10-10a1.49 1.49 0 0 0-1.06-.43h-12.28a3.17 3.17 0 0 0-.45 0v-7.82a1.5 1.5 0 0 0-3 0v7.8h-12.5a1.49 1.49 0 0 0-1.06.43l-10 10a1.49 1.49 0 0 0-.43 1.06v22.59a3.22 3.22 0 0 0 3.21 3.21h20.78v7.8a1.5 1.5 0 0 0 3 0V670a3.17 3.17 0 0 0 .45 0h20.57a3.22 3.22 0 0 0 3.21-3.21v-22.56zm-10-6.38l4.88 4.88h-4.66a.22.22 0 0 1-.21-.21zm-31.23 0v4.66a.21.21 0 0 1-.21.21h-4.67zM223.2 667h-20.57a.22.22 0 0 1-.21-.21v-21.06h6.79a3.22 3.22 0 0 0 3.21-3.21v-6.79h10.78a.21.21 0 0 1 .21.21v30.86a.21.21 0 0 1-.21.2zm24.23 0h-20.57a.22.22 0 0 1-.21-.21v-30.85a.22.22 0 0 1 .21-.21h10.79v6.79a3.22 3.22 0 0 0 3.21 3.21h6.79v21.07a.21.21 0 0 1-.22.2z" fill="#5ad9f5"/><path d="M296.6 296.46h4v10.74c0 3.59 1.4 5.12 4 5.12s4-1.53 4-5.12v-10.74h4v11.08c0 5.41-2.78 8.11-8 8.11s-8-2.7-8-8.11zm21.97 0h4v18.85h-4zm9.85 15a16.35 16.35 0 0 0 5 .91c2.76 0 3.87-.78 3.87-2.08s-.86-2.05-3.87-2.83c-4.13-1.09-5.82-3-5.82-5.69 0-3.17 2.68-5.64 7.36-5.64a18.6 18.6 0 0 1 5.75 1l-.81 3.12a15.76 15.76 0 0 0-4.68-.81c-2.5 0-3.56.86-3.56 2.08s1 2.05 3.72 2.73c4.5 1.12 6.16 3 6.16 5.93 0 3.3-2.57 5.51-7.57 5.51a20.82 20.82 0 0 1-6.37-1zm24.26-10.86a13.6 13.6 0 0 1 4.65.88l-.78 2.83a9.36 9.36 0 0 0-3.22-.62c-2.55 0-4.11 1.48-4.11 4.42s1.56 4.42 4.11 4.42a9.23 9.23 0 0 0 3.22-.6l.78 2.83a13 13 0 0 1-4.65.88c-4.63 0-7.36-2.83-7.36-7.54s2.68-7.5 7.36-7.5zm16.32 0a4.33 4.33 0 0 1 2.13.55l-.86 3.64a4.33 4.33 0 0 0-1.82-.42 3.57 3.57 0 0 0-3.07 2.21v8.74h-3.8v-14.39H365a18.61 18.61 0 0 0 .31 2.21 3.93 3.93 0 0 1 3.69-2.54zm11.83 0c4.58 0 7.36 2.91 7.36 7.46s-2.78 7.59-7.36 7.59-7.41-3-7.41-7.59 2.79-7.46 7.41-7.46zm0 12.14c2.18 0 3.46-1.59 3.46-4.68s-1.27-4.58-3.46-4.58-3.51 1.59-3.51 4.58 1.28 4.68 3.51 4.68zm11.89-16.93h3.8v19.5h-3.8zm9.28 0h3.8v19.5H402zm14.06 19.5l-6.68-18.85h4.39l4.52 14.61 4.5-14.61h4.29l-6.71 18.85zm16.46-20.46a2.23 2.23 0 1 1-2.39 2.24 2.19 2.19 0 0 1 2.39-2.24zm-1.9 6.08h3.8v14.38h-3.8zm16.15 14.72c-4.91 0-7.8-2.76-7.8-7.51 0-4.55 2.83-7.54 7.13-7.54s6.63 2.68 6.63 6.84a9.28 9.28 0 0 1-.13 1.74h-9.7c.31 2.42 1.72 3.48 4.39 3.48a10.55 10.55 0 0 0 4-.91l.94 2.65a13.4 13.4 0 0 1-5.46 1.25zm-3.87-8.74h6.16c-.18-2.5-1.3-3.48-3-3.48s-2.88 1.09-3.16 3.48zm24.02-.54l-2.76 8.94h-4l-5-14.38h4.11l2.91 10.58 2.89-10.58h3.64l3 10.58 2.78-10.58h4l-4.86 14.38h-4zm-171.08 33.8a14.11 14.11 0 0 0 3.26.5c2 0 2.72-.48 2.72-1.24s-.7-1.24-2.74-1.72c-2.6-.62-3.58-1.7-3.58-3.42s1.5-3.29 4.44-3.29a11.75 11.75 0 0 1 3.58.62l-.44 1.72a10.74 10.74 0 0 0-3-.46c-1.56 0-2.34.52-2.34 1.26s.66 1.22 2.42 1.64c2.66.64 3.9 1.66 3.9 3.4 0 2-1.64 3.32-4.68 3.32a13.23 13.23 0 0 1-4-.66zm16.68-9.17a10.56 10.56 0 0 1 3.48.68l-.54 1.8a7.37 7.37 0 0 0-2.7-.52c-2.16 0-3.46 1.28-3.46 3.78s1.3 3.8 3.46 3.8a7.55 7.55 0 0 0 2.7-.5l.54 1.8a9.9 9.9 0 0 1-3.48.66c-3.4 0-5.46-2.14-5.46-5.76s2.06-5.74 5.46-5.74zm12.12 0a3.28 3.28 0 0 1 1.68.44l-.6 2a3.62 3.62 0 0 0-1.28-.24 3 3 0 0 0-2.6 2.1v7h-2.2v-11h1.94a14.43 14.43 0 0 0 .2 1.72 3.08 3.08 0 0 1 2.86-2.02zm9.04 0c3.28 0 5.4 2.28 5.4 5.7s-2.12 5.8-5.4 5.8-5.42-2.32-5.42-5.8 2.12-5.7 5.42-5.7zm0 9.6c2 0 3.16-1.4 3.16-3.9s-1.18-3.82-3.16-3.82-3.18 1.42-3.18 3.82 1.18 3.95 3.18 3.95zm9.24-13.29h2.2v15h-2.2zm6.88 0h2.2v15h-2.2zm7.98-.24a1.39 1.39 0 1 1-1.46 1.4 1.35 1.35 0 0 1 1.46-1.4zm-1.1 4.22h2.2v11h-2.2zm13.24-.29c2.12 0 3.78 1.28 3.78 4v7.28h-2.2v-6.72c0-1.7-.78-2.54-2.3-2.54a5.45 5.45 0 0 0-3.44 1.46v7.8h-2.2v-11h2a10.54 10.54 0 0 0 .16 1.42 6 6 0 0 1 4.2-1.7zm12.48 14.55c-3.48 0-4.86-1-4.86-2.58a2.23 2.23 0 0 1 1.62-2.12 1.76 1.76 0 0 1-.94-1.56 1.86 1.86 0 0 1 1.36-1.8 3 3 0 0 1-1.92-2.92c0-2.3 1.78-3.5 4.64-3.5h.68l5.18.18v1.66l-1.68-.28a3.17 3.17 0 0 1 .58 1.92c0 2.22-1.84 3.4-4.76 3.4-1.56 0-1.88.46-1.88.92s.34.8 1 .8c.94 0 2.38-.18 3.5-.18 2.2 0 3.4 1.28 3.4 2.78.04 2.2-1.58 3.28-5.92 3.28zm3.72-3c0-.68-.36-1.22-1.84-1.22-.7 0-1.6.1-2.26.1a10.16 10.16 0 0 1-1.42-.1 1.53 1.53 0 0 0-.82 1.32c0 .78.84 1.3 2.76 1.3 2.72.05 3.58-.52 3.58-1.4zm-3.82-6.06c1.6 0 2.54-.7 2.54-1.92s-.94-1.92-2.54-1.92-2.42.7-2.42 1.92.9 1.92 2.42 1.92zm29.28 6.06a7.27 7.27 0 0 1-3.78-1.72l-.06-.06a7.93 7.93 0 0 1-5.26 1.78c-3.36 0-5.08-1.56-5.08-3.82a4.27 4.27 0 0 1 3.3-4 4.26 4.26 0 0 1-1.6-3.2c0-2.18 1.76-4 5.16-4a11.91 11.91 0 0 1 3.84.74l-.5 1.86a9.34 9.34 0 0 0-3.14-.64c-2 0-3 .86-3 2 0 .9.72 1.7 1.9 2.7l4.26 3.62a12.56 12.56 0 0 0 1.56-3.42l2.16.64a15.54 15.54 0 0 1-2.1 4.16 5.84 5.84 0 0 0 2.82 1.36zm-5.44-3.14l-4.14-3.54c-1.42.5-2.24 1.4-2.24 2.6s1 2.12 2.9 2.12a5.56 5.56 0 0 0 3.48-1.18zm15.12 1.48l5.74-7.78h-5.64v-1.82H430v1.42l-5.76 7.78h5.9v1.82h-8.88zm17.4-9.89c3.28 0 5.4 2.28 5.4 5.7s-2.12 5.8-5.4 5.8-5.42-2.32-5.42-5.8 2.12-5.7 5.42-5.7zm0 9.6c2 0 3.16-1.4 3.16-3.9s-1.18-3.82-3.16-3.82-3.18 1.42-3.18 3.82 1.18 3.95 3.18 3.95zm13.82-9.6c3.28 0 5.4 2.28 5.4 5.7s-2.12 5.8-5.4 5.8-5.42-2.32-5.42-5.8 2.12-5.7 5.42-5.7zm0 9.6c2 0 3.16-1.4 3.16-3.9s-1.18-3.82-3.16-3.82-3.18 1.42-3.18 3.82 1.18 3.95 3.18 3.95zm15.44-9.6a3.31 3.31 0 0 1 3.2 1.94 6.17 6.17 0 0 1 4.4-1.94c2 0 3.6 1.28 3.6 4v7.28h-2.2v-6.72c0-1.7-.72-2.54-2.12-2.54a5.18 5.18 0 0 0-3.3 1.46 4.41 4.41 0 0 1 0 .52v7.28h-2.2v-6.72c0-1.7-.72-2.54-2.12-2.54a5.14 5.14 0 0 0-3.28 1.46v7.8h-2.2v-11h2a10.54 10.54 0 0 0 .16 1.42 5.69 5.69 0 0 1 4.06-1.7zm16.84-3.93a1.39 1.39 0 1 1-1.46 1.4 1.35 1.35 0 0 1 1.46-1.4zm-1.1 4.22h2.2v11h-2.2zm13.24-.29c2.12 0 3.78 1.28 3.78 4v7.28h-2.2v-6.72c0-1.7-.78-2.54-2.3-2.54a5.45 5.45 0 0 0-3.44 1.46v7.8h-2.2v-11h2a10.54 10.54 0 0 0 .16 1.42 6 6 0 0 1 4.2-1.7zm12.48 14.55c-3.48 0-4.86-1-4.86-2.58a2.23 2.23 0 0 1 1.62-2.12 1.76 1.76 0 0 1-.94-1.56 1.86 1.86 0 0 1 1.36-1.8 3 3 0 0 1-1.92-2.92c0-2.3 1.78-3.5 4.64-3.5h.68l5.18.18v1.66l-1.68-.28a3.17 3.17 0 0 1 .58 1.92c0 2.22-1.84 3.4-4.76 3.4-1.56 0-1.88.46-1.88.92s.34.8 1 .8c.94 0 2.38-.18 3.5-.18 2.2 0 3.4 1.28 3.4 2.78.04 2.2-1.58 3.28-5.92 3.28zm3.72-3c0-.68-.36-1.22-1.84-1.22-.7 0-1.6.1-2.26.1a10.16 10.16 0 0 1-1.42-.1 1.53 1.53 0 0 0-.82 1.32c0 .78.84 1.3 2.76 1.3 2.72.05 3.58-.52 3.58-1.4zm-3.82-6.06c1.6 0 2.54-.7 2.54-1.92s-.94-1.92-2.54-1.92-2.42.7-2.42 1.92.9 1.92 2.42 1.92zm-213.35 125.4h4v10.74c0 3.59 1.4 5.12 4 5.12s4-1.53 4-5.12v-10.74h4V473c0 5.41-2.78 8.11-8 8.11s-8-2.7-8-8.11zm21.97 0h4v18.85h-4zm9.85 15a16.36 16.36 0 0 0 5 .91c2.76 0 3.87-.78 3.87-2.08s-.86-2.05-3.87-2.83c-4.13-1.09-5.82-3-5.82-5.69 0-3.17 2.68-5.64 7.36-5.64a18.6 18.6 0 0 1 5.75 1l-.81 3.12a15.78 15.78 0 0 0-4.68-.81c-2.5 0-3.56.86-3.56 2.08s1 2.05 3.72 2.73c4.5 1.12 6.16 3 6.16 5.93 0 3.3-2.57 5.51-7.57 5.51a20.82 20.82 0 0 1-6.37-1zM352 466a13.6 13.6 0 0 1 4.65.88l-.78 2.83a9.35 9.35 0 0 0-3.22-.62c-2.55 0-4.11 1.48-4.11 4.42s1.56 4.42 4.11 4.42a9.23 9.23 0 0 0 3.22-.6l.78 2.83a13 13 0 0 1-4.65.88c-4.63 0-7.36-2.83-7.36-7.54s2.74-7.5 7.36-7.5zm16.31 0a4.33 4.33 0 0 1 2.13.55l-.86 3.64a4.34 4.34 0 0 0-1.82-.42 3.57 3.57 0 0 0-3.06 2.23v8.74h-3.8v-14.38h3.43a18.61 18.61 0 0 0 .31 2.21 3.93 3.93 0 0 1 3.67-2.57zm11.86 0c4.58 0 7.36 2.91 7.36 7.46s-2.78 7.59-7.36 7.59-7.41-3-7.41-7.59 2.78-7.46 7.41-7.46zm0 12.14c2.18 0 3.46-1.59 3.46-4.68s-1.27-4.58-3.46-4.58-3.51 1.59-3.51 4.58 1.27 4.71 3.51 4.71zm11.88-16.9h3.8v19.5h-3.8zm9.31 0h3.8v19.5h-3.8zm14.04 19.5l-6.68-18.85h4.39l4.52 14.61 4.5-14.61h4.29l-6.71 18.85zm16.46-20.46a2.23 2.23 0 1 1-2.39 2.24 2.19 2.19 0 0 1 2.39-2.24zm-1.9 6.08h3.8v14.38H430zm16.15 14.72c-4.91 0-7.8-2.76-7.8-7.51 0-4.55 2.83-7.54 7.13-7.54s6.63 2.68 6.63 6.84a9.28 9.28 0 0 1-.13 1.74h-9.7c.31 2.42 1.72 3.48 4.39 3.48a10.55 10.55 0 0 0 4-.91l.94 2.65a13.39 13.39 0 0 1-5.46 1.25zm-3.87-8.74h6.16c-.18-2.5-1.3-3.48-3-3.48s-2.88 1.14-3.17 3.48zm24.01-.54l-2.76 8.94h-4l-5-14.38h4.11l2.91 10.58 2.89-10.58h3.64l3 10.58 2.78-10.58h4L473 480.74h-4zm-171.46 34.52l5.74-7.78h-5.64v-1.82h8.64v1.42l-5.76 7.78h5.9v1.82h-8.88zm17.41-9.84c3.28 0 5.4 2.28 5.4 5.7s-2.12 5.8-5.4 5.8-5.42-2.32-5.42-5.8 2.12-5.7 5.42-5.7zm0 9.6c2 0 3.16-1.4 3.16-3.9s-1.18-3.82-3.16-3.82-3.18 1.42-3.18 3.82 1.18 3.9 3.18 3.9zm13.8-9.6c3.28 0 5.4 2.28 5.4 5.7S329.3 508 326 508s-5.42-2.32-5.42-5.8 2.13-5.72 5.42-5.72zm0 9.6c2 0 3.16-1.4 3.16-3.9s-1.18-3.82-3.16-3.82-3.18 1.42-3.18 3.82 1.18 3.9 3.18 3.9zm15.46-9.6a3.31 3.31 0 0 1 3.2 1.94 6.17 6.17 0 0 1 4.4-1.94c2 0 3.6 1.28 3.6 4v7.28h-2.2V501c0-1.7-.72-2.54-2.12-2.54a5.18 5.18 0 0 0-3.3 1.46 4.43 4.43 0 0 1 0 .52v7.28h-2.2V501c0-1.7-.72-2.54-2.12-2.54a5.14 5.14 0 0 0-3.28 1.46v7.8h-2.2v-11h2a10.53 10.53 0 0 0 .16 1.42 5.68 5.68 0 0 1 4.06-1.66zm16.83-3.98a1.39 1.39 0 1 1-1.46 1.4 1.35 1.35 0 0 1 1.46-1.4zm-1.1 4.22h2.2v11h-2.2zm13.25-.24c2.12 0 3.78 1.28 3.78 4v7.28H372V501c0-1.7-.78-2.54-2.3-2.54a5.45 5.45 0 0 0-3.44 1.46v7.8h-2.2v-11h2a10.53 10.53 0 0 0 .16 1.42 6 6 0 0 1 4.22-1.66zM382.91 511c-3.48 0-4.86-1-4.86-2.58a2.23 2.23 0 0 1 1.62-2.12 1.76 1.76 0 0 1-.94-1.56 1.86 1.86 0 0 1 1.36-1.8 3 3 0 0 1-1.92-2.92c0-2.3 1.78-3.5 4.64-3.5h.68l5.18.18v1.66l-1.68-.28a3.17 3.17 0 0 1 .58 1.92c0 2.22-1.84 3.4-4.76 3.4-1.56 0-1.88.46-1.88.92s.34.8 1 .8c.94 0 2.38-.18 3.5-.18 2.2 0 3.4 1.28 3.4 2.78.05 2.18-1.58 3.28-5.92 3.28zm3.72-3c0-.68-.36-1.22-1.84-1.22-.7 0-1.6.1-2.26.1a10.16 10.16 0 0 1-1.42-.1 1.53 1.53 0 0 0-.82 1.32c0 .78.84 1.3 2.76 1.3 2.73-.02 3.58-.54 3.58-1.4zm-3.82-6.06c1.6 0 2.54-.7 2.54-1.92s-.94-1.92-2.54-1.92-2.42.7-2.42 1.92.9 1.9 2.42 1.9zM231.5 328.82a1.48 1.48 0 0 0-.13-.37v-.08a1.5 1.5 0 0 0-.24-.32l-10-10a1.5 1.5 0 0 0-.32-.24h-.08a1.48 1.48 0 0 0-.37-.13h-12.62a3.22 3.22 0 0 0-3.21 3.21v20.43a1.5 1.5 0 0 0 3 0v-20.49a.21.21 0 0 1 .21-.21h10.79v6.79a3.22 3.22 0 0 0 3.21 3.21h6.79v10.64a1.5 1.5 0 0 0 3 0v-12.15a1.51 1.51 0 0 0 0-.28zm-9.76-1.21a.21.21 0 0 1-.21-.21v-4.66l4.88 4.88zm8.26-42.14a1.5 1.5 0 0 0-1.5 1.5v20.43a.22.22 0 0 1-.21.21h-20.55a.21.21 0 0 1-.21-.21V287a1.5 1.5 0 0 0-3 0v20.4a3.22 3.22 0 0 0 3.21 3.21h20.57a3.22 3.22 0 0 0 3.21-3.21V287a1.5 1.5 0 0 0-1.52-1.53zm14 14.41a1.5 1.5 0 0 0-1.5 1.5v25.47a1.5 1.5 0 0 0 3 0v-25.47a1.5 1.5 0 0 0-1.5-1.5zm.45 205.21l-6.81-6.81a8.46 8.46 0 1 0-2.09 2.15l6.78 6.78a1.5 1.5 0 0 0 2.12-2.12zm-19.17-11.47a5.39 5.39 0 1 1 5.39 5.39 5.4 5.4 0 0 1-5.39-5.39z" fill="#00607b"/><path d="M229.17 470.83v9.73a1.5 1.5 0 0 0 3 0v-11.23a1.51 1.51 0 0 0 0-.28 1.48 1.48 0 0 0-.13-.37v-.08a1.5 1.5 0 0 0-.24-.32l-10-10a1.5 1.5 0 0 0-.32-.24h-.08a1.48 1.48 0 0 0-.37-.13h-12.65a3.22 3.22 0 0 0-3.21 3.21v30.86a3.22 3.22 0 0 0 3.21 3.21h9.23a1.5 1.5 0 1 0 0-3h-9.23a.22.22 0 0 1-.21-.21V461a.22.22 0 0 1 .21-.21h10.79v6.79a3.22 3.22 0 0 0 3.21 3.21zm-7-3.21V463l4.88 4.88h-4.66a.22.22 0 0 1-.22-.26z" fill="#00607b"/><path d="M238.51 812.86a1.49 1.49 0 0 0-.43-1.06l-10-10a1.49 1.49 0 0 0-1.06-.43h-12.28a3.22 3.22 0 0 0-3.21 3.21v30.86a3.22 3.22 0 0 0 3.21 3.21h20.57a3.22 3.22 0 0 0 3.21-3.21v-22.58zm-10-6.38l4.88 4.88h-4.67a.21.21 0 0 1-.21-.21zm6.79 29.17h-20.56a.21.21 0 0 1-.21-.21v-30.87a.21.21 0 0 1 .21-.21h10.79v6.79a3.22 3.22 0 0 0 3.21 3.21h6.79v21.07a.21.21 0 0 1-.22.21z" fill="#5ad9f5"/><path d="M892.33 160.05a1.47 1.47 0 0 0-.13-.37v-.08a1.5 1.5 0 0 0-.24-.32l-10-10a1.5 1.5 0 0 0-.32-.24h-.08a1.47 1.47 0 0 0-.37-.13h-12.61a3.22 3.22 0 0 0-3.21 3.21v20.43a1.5 1.5 0 0 0 3 0v-20.49a.21.21 0 0 1 .21-.21h10.79v6.79a3.22 3.22 0 0 0 3.21 3.21h6.79v10.64a1.5 1.5 0 0 0 3 0v-12.14a1.51 1.51 0 0 0 0-.28zm-9.76-1.21a.21.21 0 0 1-.21-.21V154l4.88 4.88zm8.29-42.14a1.5 1.5 0 0 0-1.5 1.5v20.43a.22.22 0 0 1-.21.21h-20.57a.21.21 0 0 1-.21-.21V118.2a1.5 1.5 0 0 0-3 0v20.43a3.22 3.22 0 0 0 3.21 3.21h20.57a3.22 3.22 0 0 0 3.21-3.21V118.2a1.5 1.5 0 0 0-1.5-1.5zm35.47 43.35a1.47 1.47 0 0 0-.13-.37v-.08a1.5 1.5 0 0 0-.24-.32l-10-10a1.5 1.5 0 0 0-.32-.24h-.08a1.47 1.47 0 0 0-.37-.13h-12.61a3.22 3.22 0 0 0-3.21 3.21v20.43a1.5 1.5 0 0 0 3 0v-20.49a.21.21 0 0 1 .21-.21h10.79v6.79a3.22 3.22 0 0 0 3.21 3.21h6.79v10.64a1.5 1.5 0 0 0 3 0v-12.14a1.51 1.51 0 0 0 0-.28zm-9.76-1.21a.22.22 0 0 1-.21-.21V154l4.88 4.88zm8.29-42.14a1.5 1.5 0 0 0-1.5 1.5v20.43a.21.21 0 0 1-.21.21h-20.57a.22.22 0 0 1-.21-.21V118.2a1.5 1.5 0 0 0-3 0v20.43a3.22 3.22 0 0 0 3.21 3.21h20.57a3.22 3.22 0 0 0 3.21-3.21V118.2a1.5 1.5 0 0 0-1.5-1.5z" fill="#00607b"/><path fill="none" stroke="#5ad9f5" stroke-miterlimit="10" stroke-width="3" d="M783.97 401.46h27.86"/><path fill="#5ad9f5" d="M801.89 413.73l-2.05-2.2 10.84-10.07-10.84-10.07 2.05-2.2 13.19 12.27-13.19 12.27z"/><path d="M745.76 482.74c10.55 0 19.1-7.93 19.1-17.71v-45.86c0-9.78 8.55-17.71 19.1-17.71m-38.2-84.13c10.55 0 19.1 7.93 19.1 17.71v48.71c0 9.78 8.55 17.71 19.1 17.71m-38.2 81.28H561.27m184.49-165.43H561.27" fill="none" stroke="#5ad9f5" stroke-miterlimit="10" stroke-width="2.83"/><path d="M139.25 162.45h-8.44a1.5 1.5 0 0 1-1.5-1.5v-2.54a15.16 15.16 0 0 1-2.64-1.51l-2.22 1.27a1.5 1.5 0 0 1-2-.55l-4.22-7.31a1.5 1.5 0 0 1 .55-2l2.19-1.26a13.85 13.85 0 0 1-.08-1.52 13.71 13.71 0 0 1 .09-1.52l-2.19-1.26a1.5 1.5 0 0 1-.55-2l4.22-7.31a1.5 1.5 0 0 1 2-.55l2.21 1.27a15.13 15.13 0 0 1 2.64-1.51V130a1.5 1.5 0 0 1 1.5-1.5h8.44a1.5 1.5 0 0 1 1.5 1.5v2.54a15 15 0 0 1 2.61 1.5l2.17-1.26a1.5 1.5 0 0 1 2.05.55l4.22 7.31a1.5 1.5 0 0 1-.55 2l-2.18 1.36a13.18 13.18 0 0 1 0 3l2.19 1.26a1.5 1.5 0 0 1 .55 2l-4.22 7.31a1.5 1.5 0 0 1-2.05.55l-2.18-1.26a15 15 0 0 1-2.61 1.5V161a1.5 1.5 0 0 1-1.5 1.45zm-6.94-3h5.44v-2a1.5 1.5 0 0 1 1-1.41 11.82 11.82 0 0 0 3.53-2 1.5 1.5 0 0 1 1.73-.16l1.76 1 2.72-4.71-1.77-1a1.5 1.5 0 0 1-.73-1.57 10.64 10.64 0 0 0 0-4.07 1.5 1.5 0 0 1 .73-1.57l1.77-1-2.72-4.71-1.75 1a1.5 1.5 0 0 1-1.73-.16 11.79 11.79 0 0 0-3.53-2 1.5 1.5 0 0 1-1-1.41v-2h-5.44v2a1.5 1.5 0 0 1-1 1.41 12.08 12.08 0 0 0-3.56 2 1.5 1.5 0 0 1-1.72.16l-1.78-1-2.72 4.71 1.77 1a1.5 1.5 0 0 1 .73 1.57 11.09 11.09 0 0 0-.2 2 11.29 11.29 0 0 0 .19 2 1.5 1.5 0 0 1-.73 1.57l-1.77 1 2.72 4.71 1.79-1a1.5 1.5 0 0 1 1.72.16 12.09 12.09 0 0 0 3.56 2 1.5 1.5 0 0 1 1 1.41z" fill="#5ad9f5"/><path d="M135 152.61a7.12 7.12 0 1 1 7.13-7.12 7.13 7.13 0 0 1-7.13 7.12zm0-11.25a4.12 4.12 0 1 0 4.13 4.13 4.13 4.13 0 0 0-4.13-4.13z" fill="#5ad9f5"/></svg>