<svg xmlns="http://www.w3.org/2000/svg" width="64" height="64"><path d="M4.836.49l27.26 4.083L59.164.489 54.68 57.805l-22.584 5.706-23.784-5.706z" fill="#e5e7e8" stroke="#ccc"/><path d="M32.096 10.746l21.83-3.916-2.91 46.99-18.92 4.698z" fill="#fff"/><path fill="#ff2600" d="M3.756 22.432h34.027v19.136H3.756z"/><path fill="#ff501a" d="M36.764 22.432h23.481v19.136H36.764z"/><path d="M7.056 24.472v15.053H9.85v-5.093h3.797l1.778-1.591v-6.604l-1.805-1.765H7.056zm2.794 2.915h2.66v4.371H9.85v-4.371zm6.791-2.915v15.053h6.898l1.605-1.55V26.01l-1.698-1.538H16.64zm2.915 2.915h2.914v9.224h-2.914v-9.224zm7.039-2.911h7.04v2.913h-4.37v3.173c1.255.047 2.51-.047 3.764 0v2.884c-1.255.047-2.509-.047-3.763 0v6.082h-2.67V24.476zm13.679 14.263l-.934-.79V35.4l2.792.002v1.213h2.428V24.476h2.792V37.95l-1.867 1.578h-4.278l-.933-.79zm9.225 0l-.903-.79v-2.557c.882 0 1.88.009 2.761.009v1.213h2.913V33.46h-4.103l-1.602-1.578v-5.827l1.602-1.578h4.958l1.819 1.578-.003 2.307h-2.67v-.972h-2.914v3.156h3.838l1.746 1.546v5.846l-.894.795-.894.796h-4.721z" fill="#fff"/></svg>