<svg xmlns="http://www.w3.org/2000/svg" xmlns:xlink="http://www.w3.org/1999/xlink" viewBox="0 0 678 501"><defs><path id="a" d="M.8 101.2L177.03.06l99.86 56.98-176.23 101.14z"/></defs><g fill="none" fill-rule="evenodd"><path fill="#FFF" fill-rule="nonzero" d="M361.65 418.74c-8.74 5-8.12 13.56.68 18.58l80.15 45.73c8.8 5 24.8 6 33.54.94l196.47-112.75c8.75-5 6.19-13.68-2.6-18.7l-80.15-45.73c-8.8-5-22.87-5.84-31.61-.82L361.65 418.74z"/><path fill="#000" fill-rule="nonzero" d="M582.08 312.15c-.79.46-.79 1.2 0 1.65a3.22 3.22 0 0 0 2.89 0 .87.87 0 0 0 0-1.65 3.22 3.22 0 0 0-2.89 0z"/><path fill="#E3E3E3" fill-rule="nonzero" d="M378.8 417.2l99.86 56.98 176.23-101.14-99.86-56.98z"/><path fill="#C9C9C9" fill-rule="nonzero" d="M635 340.9a2.45 2.45 0 0 1-2.4-.24l-21.68-12.37c-.77-.44-1.13-1-.42-1.37a2.45 2.45 0 0 1 2.4.24l21.68 12.37c.79.47 1.15.96.42 1.37z"/><path fill="#000" fill-rule="nonzero" d="M617.78 341.25a3.38 3.38 0 0 1-3.3-.33l-4-2.26c-1.07-.61-1.56-1.32-.58-1.89a3.38 3.38 0 0 1 3.3.33l4 2.26c1.07.64 1.56 1.32.58 1.89z"/><path fill="#E4E4E4" fill-rule="nonzero" d="M378.8 417.2l176.23-101.14 99.86 56.98-176.23 101.14z"/><g transform="translate(378 316)"><mask id="b" fill="#fff"><use xlink:href="#a"/></mask><g fill-rule="nonzero" mask="url(#b)"><path fill="#FFF" d="M27.91 196.98l-93.54-54.21L291.98-62.71l93.54 54.22z"/><path fill="#E4E4E4" d="M343.72 7.14l-79.01-45.79 3.91-2.25 79 45.8zm7.84-4.5l-79.01-45.8 3.94-2.26L355.5.37zm-30.47-30.48l-37.43-21.7 7.87-4.52 37.44 21.7zm14.81 39.47l-79-45.79 3.9-2.25 79.01 45.8zm-7.81 4.49l-79.01-45.79 3.91-2.25 79 45.8zm-61.88-26.25l-25.46-14.76 4.42-2.54 25.46 14.76zm.77 13.38l-37.44-21.7 3.91-2.24 37.44 21.7zm41.57 24.1l-37.44-21.7 3.91-2.25 37.44 21.7zM259.16 7.74l-37.43-21.69 3.91-2.25 37.43 21.7zm41.57 24.1l-37.43-21.7 3.91-2.25 37.43 21.7zM226.54-2.15l-12.63-7.31 3.91-2.25 12.62 7.32zm58.05 33.65l-29.11-16.87 3.91-2.25 29.11 16.88zm-71.86-21.06L196.08.79l10.02-5.77 16.65 9.66zm20.78 12.05l-16.65-9.66 10.02-5.76 16.65 9.66zm20.78 12.04l-16.65-9.65 10.03-5.76 16.65 9.65zm20.79 12.05l-16.65-9.65 10.02-5.76 16.65 9.65zm-154.69 40.9L89.4 69.51l3.91-2.24 30.99 17.97zm41.57 24.09l-37.44-21.69 3.91-2.25 37.44 21.7zm-49.38-19.6l-31-17.96 3.91-2.25 30.99 17.97zm41.56 24.1l-37.43-21.7 3.91-2.25 37.43 21.7zM84.22 84.55L73.77 78.5l3.91-2.25 10.45 6.06zM138 115.73l-29.11-16.87 3.91-2.25 29.11 16.88zm125.36-62.42L184.35 7.52l4.42-2.54 79.01 45.8zm-39.93-10.65l-49.9-28.92 3.91-2.25 49.9 28.92zm9.91 27.9l-79-45.79 3.91-2.25 79 45.8zm7.84-4.51l-79-45.79 3.94-2.26 79 45.79zm-15.65 9l-79.01-45.79 3.91-2.25 79 45.8zm-7.82 4.49l-79-45.79 3.91-2.25 79 45.8zm-61.88-26.25l-25.45-14.76 4.42-2.54 25.45 14.76zm-23.7 75.42l-79-45.79 3.91-2.25 79 45.8zm-7.81 4.49L45.31 87.41l3.91-2.25 79.01 45.8zm-7.82 4.49l-79-45.79 3.91-2.25 79 45.8zm-61.88-26.25L29.17 96.68l4.42-2.54 25.45 14.76zm43.6 36.76l-79-45.8 3.91-2.24 79 45.79zm-7.81 4.49l-79.01-45.8 3.91-2.24 79.01 45.79zm-7.82 4.49l-79-45.8 3.91-2.24 79 45.79zm-61.87-26.26l-25.46-14.75 4.42-2.54 25.45 14.75zM201.94 88.6l-79-45.79-26.86 15.43 79 45.8z"/><path fill="#000" d="M-16.42 133.25c-2.34-.49-3.87-.46-4.72 0a1.72 1.72 0 0 0-.75 1.93 1.93 1.93 0 0 1-1.07 2c-2 1.15-5.83.54-7.74-.56-1.12-.65-1.41-1.42-.48-2a4.28 4.28 0 0 1 2.26-.33 4.6 4.6 0 0 1 1.46.43c.08 0 .13.1.09.13a.65.65 0 0 1-.26 0 4.49 4.49 0 0 0-2.3.27c-.62.35-.29.92.29 1.25 1.22.71 4.22 1.18 5.58.4a1.64 1.64 0 0 0 .72-1.9 1.93 1.93 0 0 1 1-2.12c1.1-.63 3.16-.81 6.47-.08a27 27 0 0 1 6.65 2.42c.91.53 2.25 1.56 1 2.28-1.25.72-4.13.63-5.59.34a4.67 4.67 0 0 1-1.33-.45c-.27-.16-.37-.29-.26-.36a.57.57 0 0 1 .39 0c1.11.16 4.32.59 5.41 0 .81-.46-.09-1.11-.76-1.5a25.2 25.2 0 0 0-6.06-2.15zm-9.12 5.75a.48.48 0 0 1-.17-.06.21.21 0 0 1 0-.39.48.48 0 0 1 .34 0 26.61 26.61 0 0 0 3.89.35c.72 0 1.42 0 2.17.06a.42.42 0 0 1 .17 0 .29.29 0 0 1 0 .47.29.29 0 0 1-.17 0c-1.61 0-3.34-.06-3.85.24-.19.11-.2.22 0 .34.74.43 3.75.49 4.19.51a.48.48 0 0 1 .22 0 .22.22 0 0 1 0 .38.44.44 0 0 1-.25 0c-.44 0-4.09-.08-5.15-.69-.58-.34-.54-.74 0-1l.13-.08a5.9 5.9 0 0 1-1.52-.13zm8.13.24c-.19-.11-.21-.28 0-.42a2.49 2.49 0 0 1 1.93 0c.21.12.23.27 0 .41a2.64 2.64 0 0 1-1.93.02v-.01z"/><path fill="#000" d="M-21.07 142.52h2.41a7.34 7.34 0 0 1-2.87-.6c-.51-.3-.44-.64.1-1 1.36-.78 4.6-.44 6 .37.51.3.56.63.31.89h1c.13 0 .26.027.38.08.13.08.09.32-.12.45a.65.65 0 0 1-.34.06c-.48 0-1.47 0-3.29.07l-1.77.06c.28.06.55.12.85.17a28.13 28.13 0 0 0 4.75.53.48.48 0 0 1 .22 0 .22.22 0 0 1 0 .38.44.44 0 0 1-.25 0 29.52 29.52 0 0 1-4.79-.5c-.76-.13-1.76-.37-2.74-.61-5 .07-9.95-.14-11.3-.92-.31-.18-.54-.51 0-.81 1.26-.72 5.51 0 8.74.61.7.25 1.66.52 2.71.77zm-10.42-.73c.65.38 4.21.68 8.17.74-.53-.12-1-.21-1.38-.28-2.8-.47-6.36-.89-6.82-.63-.11.07-.05.11.04.17h-.01zm11.17-.14a13.39 13.39 0 0 0 4.23.51c.16-.14.22-.34-.1-.52-.76-.44-3.46-.72-4.18-.31-.14.08-.18.18.05.32z"/><path fill="#000" d="M-11.32 144.31c-.32 0-.87.05-1.61.1 1.46.102 2.9.385 4.29.84.17.1 0 .36-.14.45a8 8 0 0 1-1.79-.06 5.51 5.51 0 0 0-2.16.16c-.13.08-.18.19 0 .27.7.41 2 .44 4.23.54a.48.48 0 0 1 .22 0 .22.22 0 0 1 0 .38.44.44 0 0 1-.25 0c-1.6-.07-4.17-.16-5.18-.75-.46-.27-.5-.64-.05-.9a5 5 0 0 1 2.36-.34 20.44 20.44 0 0 0-4.45-.31 1.35 1.35 0 0 1-.55 0c-.13-.08-.22-.35-.11-.41a1.4 1.4 0 0 1 .47-.09L-14 144a.24.24 0 0 1 .11-.3.38.38 0 0 1 .25 0h2.49a.63.63 0 0 1 .36.08c.19.11.09.43-.11.54a.87.87 0 0 1-.42-.01z"/><path fill="#4D4D4D" d="M90.95 67.65c1.71-1 1.71-2.58 0-3.57a6.84 6.84 0 0 0-6.19 0c-1.71 1-1.71 2.58 0 3.57a6.84 6.84 0 0 0 6.19 0zm-7.82 4.49c1.71-1 1.71-2.58 0-3.57a6.84 6.84 0 0 0-6.19 0c-1.71 1-1.71 2.58 0 3.57a6.84 6.84 0 0 0 6.19 0zm-7.81 4.49c1.71-1 1.71-2.58 0-3.57a6.84 6.84 0 0 0-6.19 0c-1.71 1-1.71 2.58 0 3.57a6.84 6.84 0 0 0 6.19 0z"/><path fill="#FFF" d="M85.82 66.46l.1-1.29c0-.1.25-.17.53-.17s.51.08.51.17l-.07.91 3.44-.08c.29 0 .54.07.56.16.02.09-.19.18-.48.18l-4.59.12zM78 70.92l.1-1.29c0-.1.25-.17.53-.17s.51.08.51.17l-.07.91 3.44-.08c.29 0 .54.07.56.16.02.09-.19.18-.48.18l-4.59.12zm-7.72 4.46l.1-1.29c0-.1.25-.17.53-.17s.51.08.51.17l-.07.91 3.44-.08c.29 0 .54.07.56.16.02.09-.19.18-.48.18l-4.59.12z"/></g></g><path fill="#82AE00" fill-rule="nonzero" d="M554.82 316.18l99.86 56.98-14.83 8.51-99.86-56.98z"/><path fill="#CBCBCB" fill-rule="nonzero" d="M355.44 427.28c-.17 3.64 2.17 7.35 6.89 10l80.15 45.73c8.8 5 24.8 6 33.54.94l196.47-112.71c4-2.3 5.64-5.37 5.38-8.5v13.84c0 2.95-1.63 5.81-5.41 8L476.05 497.49c-8.74 5-24.75 4.08-33.55-.95l-80.18-45.8c-4.56-2.6-6.9-6.16-6.91-9.67v-13.79h.03z"/><path fill="#CCC" fill-rule="nonzero" d="M.1 231.08c-.11 1.15.59 2.33 2.11 3.21l272.38 157.62a11.32 11.32 0 0 0 10.28 0l390.92-226.72a3.7 3.7 0 0 0 2.11-2.81v7.68c.09 1.14-.6 2.3-2.11 3.17L284.86 399.94a11.32 11.32 0 0 1-10.28 0L2.22 242.33a3.65 3.65 0 0 1-2.13-2.94v-8.31H.1z"/><path fill="#FFF" fill-rule="nonzero" d="M2.22 234.29l272.37 157.62a11.32 11.32 0 0 0 10.27 0l390.93-226.72c2.83-1.64 2.83-4.31 0-6L403.41 1.62a11.32 11.32 0 0 0-10.27 0L2.21 228.34c-2.84 1.66-2.83 4.31.01 5.95z"/><path fill="#E3E3E3" fill-rule="nonzero" d="M153.22 294.78l16.78 9.71c5.74 3.32 6.65 6.77 2.43 9.21-4.22 2.44-10.16 1.92-15.91-1.4l-16.79-9.72c-5.74-3.32-6.65-6.77-2.43-9.21 4.22-2.44 10.18-1.92 15.92 1.41zm14.89 10.82l-16.79-9.72c-2.71-1.57-7.89-3.84-12.1-1.4s-.29 5.44 2.43 7l16.79 9.72c2.71 1.57 7.89 3.84 12.1 1.4s.28-5.44-2.43-7.01v.01z"/><path fill="#000" fill-rule="nonzero" d="M542.2 102a1.36 1.36 0 0 0 0 2.57 4.89 4.89 0 0 0 4.44 0 1.36 1.36 0 0 0 0-2.57 4.89 4.89 0 0 0-4.44 0zm-11.78-6.8a1.36 1.36 0 0 0 0 2.57 4.89 4.89 0 0 0 4.44 0 1.36 1.36 0 0 0 0-2.57 4.89 4.89 0 0 0-4.44 0z"/><path fill="#E3E3E3" fill-rule="nonzero" d="M297.83 364.97l331.48-192.24L380.17 28.55 48.69 220.79z"/><path fill="#82AE00" fill-rule="nonzero" d="M365.9 36.83L615.05 181l14.26-8.27L380.17 28.55z"/><path fill="#FFF" fill-rule="nonzero" d="M466.97 187.81l39.91 23.05 53.24-30.94-39.91-23.05zm-51.72-29.93l39.91 23.05 53.24-30.94-39.91-23.05zm-51.71-29.95l39.92 23.06 53.27-30.95-39.93-23.06zM311.81 98l39.93 23.06 53.27-30.95-39.93-23.06zm89.17 128.08l39.91 23.05 53.24-30.94-39.91-23.05zm-51.72-29.93l39.91 23.05 53.24-30.94-39.91-23.05zm-51.71-29.95l39.92 23.06 53.27-30.95-39.93-23.06zm-51.72-29.93l39.92 23.06 53.27-30.95-39.93-23.06zm38.04 97.8l39.91 23.05 53.24-30.94-39.9-23.05zm-51.71-29.95l39.93 23.06 53.26-30.95-39.92-23.06zm-51.72-29.93l39.93 23.06 53.26-30.95-39.92-23.06z"/><path d="M297.8 364.95l331.48-192.24L380.17 28.55 48.69 220.79z"/><path fill="#C4CDD5" fill-rule="nonzero" d="M533.78 176.33a13.74 13.74 0 0 1 12.47 0c3.45 2 3.45 5.23 0 7.23a13.74 13.74 0 0 1-12.47 0c-3.44-2-3.44-5.23 0-7.23zm-51.61-29.86a13.74 13.74 0 0 1 12.47 0c3.45 2 3.45 5.23 0 7.23a13.74 13.74 0 0 1-12.47 0c-3.44-2-3.44-5.24 0-7.23z"/><path fill="#333" fill-rule="nonzero" d="M430.56 116.6a13.74 13.74 0 0 1 12.47 0c3.45 2 3.45 5.23 0 7.23a13.74 13.74 0 0 1-12.47 0c-3.43-2-3.44-5.23 0-7.23zM379 86.74a13.74 13.74 0 0 1 12.47 0c3.45 2 3.45 5.23 0 7.23A13.74 13.74 0 0 1 379 94c-3.48-2-3.49-5.27 0-7.26zm88.82 127.85a13.74 13.74 0 0 1 12.47 0c3.45 2 3.45 5.23 0 7.23a13.74 13.74 0 0 1-12.47 0c-3.44-2-3.44-5.24 0-7.23zm-51.61-29.87a13.74 13.74 0 0 1 12.47 0c3.45 2 3.45 5.23 0 7.23a13.74 13.74 0 0 1-12.47 0c-3.44-1.95-3.44-5.23 0-7.23zm-51.61-29.86a13.74 13.74 0 0 1 12.47 0c3.45 2 3.45 5.23 0 7.23a13.74 13.74 0 0 1-12.47 0c-3.44-2-3.44-5.24 0-7.23z"/><path fill="#C4CDD5" fill-rule="nonzero" d="M313 125a13.74 13.74 0 0 1 12.47 0c3.45 2 3.45 5.23 0 7.23a13.74 13.74 0 0 1-12.47 0c-3.44-2.01-3.45-5.23 0-7.23zm37.85 97.63a13.74 13.74 0 0 1 12.47 0c3.45 2 3.45 5.23 0 7.23a13.74 13.74 0 0 1-12.47 0c-3.43-2-3.44-5.24 0-7.23zm-51.61-29.87a13.74 13.74 0 0 1 12.47 0c3.45 2 3.45 5.23 0 7.23a13.74 13.74 0 0 1-12.47 0c-3.43-1.99-3.44-5.23 0-7.23zm-51.61-29.86a13.74 13.74 0 0 1 12.47 0c3.45 2 3.45 5.23 0 7.23a13.74 13.74 0 0 1-12.47 0c-3.43-2-3.44-5.24 0-7.23z"/><path fill="#333" fill-rule="nonzero" d="M410.88 5.54h-51.37a5.73 5.73 0 0 0-5.73 5.73V56.1a5.73 5.73 0 0 0 5.73 5.73h13.29l12.4 12.4 12.4-12.4h13.29a5.73 5.73 0 0 0 5.73-5.73V11.27a5.73 5.73 0 0 0-5.74-5.73z"/><path fill="red" fill-rule="nonzero" d="M387.85 35l5.88-5.88a1.88 1.88 0 1 0-2.66-2.66l-5.88 5.88-5.88-5.88a1.88 1.88 0 0 0-2.66 2.66l5.89 5.88-5.88 5.88a1.88 1.88 0 1 0 2.66 2.66l5.88-5.88 5.88 5.88a1.88 1.88 0 0 0 2.66-2.66L387.85 35z"/><path fill="#333" fill-rule="nonzero" d="M490.47 304.67H439.1a5.73 5.73 0 0 0-5.73 5.73v44.83a5.73 5.73 0 0 0 5.73 5.77h13.29l12.4 12.4 12.4-12.4h13.29a5.73 5.73 0 0 0 5.73-5.73V310.4a5.73 5.73 0 0 0-5.74-5.73z"/><path fill="#FFF" fill-rule="nonzero" d="M475.06 322.09h-20.55a1.71 1.71 0 0 0-1.71 1.71v20.55c0 .944.766 1.71 1.71 1.71h20.55a1.71 1.71 0 0 0 1.71-1.71v-20.54a1.71 1.71 0 0 0-1.71-1.72zm-2.81 7.47l-7.63 10.12a1.41 1.41 0 0 1-1.06.56h-.07a1.41 1.41 0 0 1-1-.46l-4-4.4a1.412 1.412 0 0 1 2.08-1.91l2.89 3.15 6.61-8.76a1.41 1.41 0 1 1 2.25 1.7h-.07z"/></g></svg>