<svg width="50" height="50" viewBox="0 0 50 50" fill="none" xmlns="http://www.w3.org/2000/svg">
<path d="M25 0C31.6304 0 37.9893 2.63392 42.6777 7.32233C47.3661 12.0107 50 18.3696 50 25C50 31.6304 47.3661 37.9893 42.6777 42.6777C37.9893 47.3661 31.6304 50 25 50C18.3696 50 12.0107 47.3661 7.32233 42.6777C2.63392 37.9893 0 31.6304 0 25C0 18.3696 2.63392 12.0107 7.32233 7.32233C12.0107 2.63392 18.3696 0 25 0V0Z" fill="#3D73D3"/>
<mask id="mask0" mask-type="alpha" maskUnits="userSpaceOnUse" x="0" y="0" width="50" height="50">
<path d="M25 0C31.6304 0 37.9893 2.63392 42.6777 7.32233C47.3661 12.0107 50 18.3696 50 25C50 31.6304 47.3661 37.9893 42.6777 42.6777C37.9893 47.3661 31.6304 50 25 50C18.3696 50 12.0107 47.3661 7.32233 42.6777C2.63392 37.9893 0 31.6304 0 25C0 18.3696 2.63392 12.0107 7.32233 7.32233C12.0107 2.63392 18.3696 0 25 0V0Z" fill="#3D73D3"/>
</mask>
<g mask="url(#mask0)">
<path d="M30.9865 21.9305C31.1818 22.1255 31.4466 22.2351 31.7226 22.2351C31.9986 22.2351 32.2634 22.1255 32.4587 21.9305L52.4587 1.93047C52.6538 1.73516 52.7634 1.47041 52.7634 1.19436C52.7634 0.91832 52.6538 0.653564 52.4587 0.458251L49.0143 -2.98619C48.8191 -3.1816 48.5543 -3.2915 48.2782 -3.29175C48.002 -3.2915 47.7372 -3.1816 47.542 -2.98619L27.542 17.0138C27.347 17.2091 27.2374 17.4739 27.2374 17.7499C27.2374 18.026 27.347 18.2907 27.542 18.486L30.9865 21.9305ZM25.0004 25.5138C25.2766 25.5136 25.5413 25.4037 25.7365 25.2083L27.5837 23.361L27.7087 23.486C27.7942 23.6092 27.9045 23.713 28.0327 23.7907C28.1608 23.8685 28.3039 23.9184 28.4526 23.9373C28.6013 23.9562 28.7523 23.9436 28.8958 23.9004C29.0393 23.8572 29.1721 23.7843 29.2857 23.6864C29.3992 23.5885 29.4909 23.4679 29.5548 23.3323C29.6187 23.1967 29.6534 23.0492 29.6566 22.8994C29.6598 22.7495 29.6315 22.6007 29.5735 22.4625C29.5155 22.3243 29.429 22.1998 29.3198 22.0971L29.167 22.0138L27.4448 20.2916C27.2474 20.1076 26.9862 20.0074 26.7163 20.0122C26.4465 20.0169 26.189 20.1263 25.9981 20.3171C25.8073 20.508 25.698 20.7654 25.6932 21.0353C25.6884 21.3052 25.7886 21.5663 25.9726 21.7638L26.0976 21.8888L24.2504 23.736C24.0553 23.9313 23.9457 24.1961 23.9457 24.4721C23.9457 24.7482 24.0553 25.0129 24.2504 25.2083C24.4507 25.4045 24.72 25.5142 25.0004 25.5138ZM8.11149 29.3888C8.3068 29.5839 8.57156 29.6934 8.8476 29.6934C9.12364 29.6934 9.3884 29.5839 9.58371 29.3888L12.5004 26.4721L15.417 29.3888C15.5827 29.5914 15.8186 29.7243 16.0778 29.7609C16.3369 29.7975 16.6004 29.7353 16.8157 29.5864C17.031 29.4376 17.1825 29.2132 17.2398 28.9579C17.2972 28.7025 17.2564 28.4349 17.1254 28.2083C17.0807 28.1267 17.0192 28.0557 16.9448 27.9999L13.9726 24.9999L16.8893 22.0833C17.0733 21.8858 17.1734 21.6246 17.1687 21.3547C17.1639 21.0849 17.0546 20.8274 16.8637 20.6366C16.6729 20.4457 16.4154 20.3364 16.1455 20.3316C15.8757 20.3269 15.6145 20.427 15.417 20.611L12.5004 23.5277L9.58371 20.611C9.38625 20.427 9.12507 20.3269 8.85521 20.3316C8.58535 20.3364 8.32787 20.4457 8.13702 20.6366C7.94617 20.8274 7.83684 21.0849 7.83208 21.3547C7.82732 21.6246 7.92749 21.8858 8.11149 22.0833L11.0282 24.9999L8.11149 27.9166C7.91642 28.1119 7.80685 28.3767 7.80685 28.6527C7.80685 28.9287 7.91642 29.1935 8.11149 29.3888ZM53.2504 33.6805H7.86149C7.58522 33.6805 7.32027 33.7902 7.12492 33.9856C6.92957 34.1809 6.81982 34.4459 6.81982 34.7221C6.81982 34.9984 6.92957 35.2634 7.12492 35.4587C7.32027 35.6541 7.58522 35.7638 7.86149 35.7638H53.2504C53.5266 35.7638 53.7916 35.6541 53.9869 35.4587C54.1823 35.2634 54.292 34.9984 54.292 34.7221C54.292 34.4459 54.1823 34.1809 53.9869 33.9856C53.7916 33.7902 53.5266 33.6805 53.2504 33.6805Z" fill="white"/>
</g>
</svg>
