<svg fill="none" viewBox="0 0 24 24" xmlns="http://www.w3.org/2000/svg"><path d="m15.5 9v-2l-3.5-3.5h-7c-.39782 0-.77936.15804-1.06066.43934s-.43934.66284-.43934 1.06066v13c0 .3978.15804.7794.43934 1.0607s.66284.4393 1.06066.4393h2" stroke="#fff" stroke-linecap="round" stroke-miterlimit="10"/><path d="m12.1993 7.22072h2.8204l-3.2233-3.22329v2.82038c0 .10686.0424.20934.118.2849s.178.11801.2849.11801z" fill="#fff" opacity=".66"/><g stroke="#fff" stroke-miterlimit="10"><path d="m18.11 9.72-1.47 1.47 2.67 2.67 1.47-1.47c.1387-.1436.2162-.3354.2162-.535s-.0775-.3914-.2162-.535l-1.6-1.6c-.1435-.13869-.3354-.21622-.535-.21622s-.3914.07753-.535.21622z" opacity=".66"/><path d="m15.3 12.53-3.39 3.39c-.7093.7032-1.3275 1.4927-1.84 2.35-.67002 1.14-1.39002 2.61-.92002 3.08s1.94002-.25 3.08002-.92c.8572-.5125 1.6468-1.1307 2.35-1.84l3.42-3.39z"/></g></svg>