<svg width="50" height="50" viewBox="0 0 50 50" fill="none" xmlns="http://www.w3.org/2000/svg">
<path d="M25 50C38.8071 50 50 38.8071 50 25C50 11.1929 38.8071 0 25 0C11.1929 0 0 11.1929 0 25C0 38.8071 11.1929 50 25 50Z" fill="#3D73D3"/>
<path opacity="0.5" d="M39.64 26.5H10.36C9.33 26.5 8.5 27.33 8.5 28.36V37.64C8.5 38.67 9.33 39.5 10.36 39.5H29L31.97 42.47L34.95 39.5H39.64C40.67 39.5 41.5 38.67 41.5 37.64V28.36C41.5 27.33 40.67 26.5 39.64 26.5ZM12.68 36.18C12.68 34.51 14.03 33.16 15.7 33.16C14.78 33.16 14.03 32.41 14.03 31.49C14.03 30.57 14.78 29.82 15.7 29.82C16.62 29.82 17.37 30.57 17.37 31.49C17.37 32.41 16.62 33.16 15.7 33.16C17.37 33.16 18.72 34.51 18.72 36.18H12.68ZM30.47 36.75H23.25C22.84 36.75 22.5 36.41 22.5 36C22.5 35.59 22.84 35.25 23.25 35.25H30.47C30.88 35.25 31.22 35.59 31.22 36C31.22 36.41 30.88 36.75 30.47 36.75ZM36.75 33.75H23.25C22.84 33.75 22.5 33.41 22.5 33C22.5 32.59 22.84 32.25 23.25 32.25H36.75C37.17 32.25 37.5 32.59 37.5 33C37.5 33.41 37.17 33.75 36.75 33.75ZM36.75 30.75H23.25C22.84 30.75 22.5 30.41 22.5 30C22.5 29.59 22.84 29.25 23.25 29.25H36.75C37.17 29.25 37.5 29.59 37.5 30C37.5 30.41 37.17 30.75 36.75 30.75Z" fill="white"/>
<path d="M39.64 10.5H10.36C9.33 10.5 8.5 11.33 8.5 12.36V21.64C8.5 22.67 9.33 23.5 10.36 23.5H39.64C40.67 23.5 41.5 22.67 41.5 21.64V12.36C41.5 11.33 40.67 10.5 39.64 10.5ZM12.68 20.18C12.68 18.51 14.03 17.16 15.7 17.16C14.78 17.16 14.03 16.41 14.03 15.49C14.03 14.57 14.78 13.82 15.7 13.82C16.62 13.82 17.37 14.57 17.37 15.49C17.37 16.41 16.62 17.16 15.7 17.16C17.37 17.16 18.72 18.51 18.72 20.18H12.68ZM30.47 20.75H23.25C22.84 20.75 22.5 20.41 22.5 20C22.5 19.59 22.84 19.25 23.25 19.25H30.47C30.88 19.25 31.22 19.59 31.22 20C31.22 20.41 30.88 20.75 30.47 20.75ZM36.75 17.75H23.25C22.84 17.75 22.5 17.41 22.5 17C22.5 16.59 22.84 16.25 23.25 16.25H36.75C37.17 16.25 37.5 16.59 37.5 17C37.5 17.41 37.17 17.75 36.75 17.75ZM36.75 14.75H23.25C22.84 14.75 22.5 14.41 22.5 14C22.5 13.59 22.84 13.25 23.25 13.25H36.75C37.17 13.25 37.5 13.59 37.5 14C37.5 14.41 37.17 14.75 36.75 14.75Z" fill="white"/>
</svg>
