<svg xmlns="http://www.w3.org/2000/svg" width="22" height="22"><g fill="#FFF"><path d="M10 8.36H8.31c-.24 0-.3.12-.3.32v.77l-1.52-.1V7h9v2.36l-1.52.1V8.7c0-.23-.07-.34-.31-.34h-1.6v5.41h.85V15H9.13v-1.14h.55c.25 0 .31-.1.31-.38L10 8.36z" opacity=".33"/><path d="M20 5.25a3.32 3.32 0 0 1-1-.16v11.82a3.21 3.21 0 0 1 2 0V5.09a3.32 3.32 0 0 1-1 .16zM16.91 1H5.09c.104.323.158.66.16 1a3.32 3.32 0 0 1-.16 1h11.82a3.32 3.32 0 0 1-.16-1 3.32 3.32 0 0 1 .16-1zm0 18H5.09a3.21 3.21 0 0 1 0 2h11.82a3.21 3.21 0 0 1 0-2zM2 5.25a3.32 3.32 0 0 1-1-.16v11.82a3.32 3.32 0 0 1 1-.16c.34.002.677.056 1 .16V5.09a3.32 3.32 0 0 1-1 .16z" opacity=".5"/><rect width="4" height="4" y="18" rx="2"/><rect width="4" height="4" x="18" y="18" rx="2"/><rect width="4" height="4" rx="2"/><rect width="4" height="4" x="18" rx="2"/></g></svg>