<svg xmlns="http://www.w3.org/2000/svg" width="782" height="513"><g fill="none" fill-rule="evenodd"><path fill="#188986" fill-rule="nonzero" d="M254 159.36L.25 306.81 284 470.64l253.75-147.45z"/><path fill="#006060" fill-rule="nonzero" d="M241.3 167.55L1.67 306.81l282.35 163.02 239.63-139.26z"/><path fill="#D8E6FB" fill-rule="nonzero" d="M489.11 302.76l-4.61-2.66-.54.31 4.61 2.66.54-.31m37.14 18.88h-4.22l-.01-2.44h-.75v2.44l-4.22.01.01.43h4.22l.01 2.44h.75l-.01-2.44h4.22v-.44m-25.87-10.02l3.53-2 3.54 2-3.53 2-3.54-2m8.13 0L503.9 309l-4.58 2.66 4.62 2.67 4.58-2.66"/><path stroke="#37B1AE" stroke-dasharray="6" d="M241.3 87.55v80M1.67 226.81v80m282.35 83.02v80m239.63-219.26v80M241.3 8.55v80M1.67 147.81v80m282.35 83.02v80m239.63-219.26v80"/><path fill="#006060" fill-rule="nonzero" d="M596.48 413.7h3v14.5h-2.6l-6.94-9.4v9.4h-3v-14.5h2.6l6.94 9.4zm13.64 8.12c0-1.76-.8-2.62-2.6-2.62a8.86 8.86 0 0 0-3.26.64l-.64-2c1.44-.6 2.98-.92 4.54-.94 3.4 0 4.9 1.66 4.9 4.56v6.76h-2.6l-.24-1.16a4.9 4.9 0 0 1-3.5 1.42c-2.38 0-3.68-1.42-3.68-3.3 0-2.22 1.7-3.46 4.52-3.46a14.66 14.66 0 0 1 2.56.24v-.14zm-1.88 1.68c-1.72 0-2.36.64-2.36 1.46s.52 1.32 1.66 1.32a4 4 0 0 0 2.58-1.06v-1.6a17.63 17.63 0 0 0-1.88-.12zm12.67 4.96c-2.14 0-3.62-1-3.62-3.48v-5.6h-1.62v-2l1.62-.22v-1.88l2.94-.48v2.36h3.54v2.24h-3.54v5.14c0 1.24.5 1.6 1.62 1.6a7.55 7.55 0 0 0 1.86-.3l.46 2.08a9.9 9.9 0 0 1-3.26.54zm7.45-16a1.72 1.72 0 1 1-1.84 1.72 1.68 1.68 0 0 1 1.84-1.72zm-1.46 4.68h2.92v11.06h-2.92v-11.06zm9.79 11.06l-4.28-11.06h3.16l2.76 8.2 2.72-8.2h3.06l-4.28 11.06zm14.95.26c-3.78 0-6-2.12-6-5.78 0-3.5 2.18-5.8 5.48-5.8 3.3 0 5.1 2.06 5.1 5.26a7.08 7.08 0 0 1-.1 1.34h-7.46c.24 1.86 1.32 2.68 3.38 2.68a8.11 8.11 0 0 0 3.08-.7l.72 2a10.3 10.3 0 0 1-4.2 1zm-3-6.72h4.74c-.14-1.92-1-2.68-2.32-2.68-1.32 0-2.18.84-2.4 2.68h-.02zm17.61-8.04h5.1c3.52 0 5.22 1.52 5.22 3.68a3.1 3.1 0 0 1-1.86 3 3.74 3.74 0 0 1 2.64 3.66c0 2.72-2 4.2-5.4 4.2h-5.7V413.7zm4.7 6.2c1.82 0 2.7-.76 2.7-2s-.8-2-2.88-2h-1.52v4h1.7zm.42 6c1.86 0 2.86-.58 2.86-2s-1-2.06-2.86-2.06h-2.12v4.06h2.12zm15.16-9.02a3.32 3.32 0 0 1 1.64.42l-.66 2.8a3.32 3.32 0 0 0-1.4-.32 2.75 2.75 0 0 0-2.36 1.7v6.72h-2.92v-11.06h2.64a14.6 14.6 0 0 0 .24 1.7 3 3 0 0 1 2.82-1.96zm9.09 0c3.52 0 5.66 2.24 5.66 5.74s-2.14 5.84-5.66 5.84-5.7-2.28-5.7-5.84 2.14-5.74 5.7-5.74zm0 9.34c1.68 0 2.66-1.22 2.66-3.6s-1-3.52-2.66-3.52c-1.66 0-2.7 1.22-2.7 3.52s.98 3.6 2.7 3.6zm16.28-4.9l-2.12 6.88h-3.08l-3.82-11.06H706l2.24 8.14 2.22-8.14h2.8l2.3 8.14 2.14-8.14h3.08l-3.74 11.06H714zm11.35 4.34a12.71 12.71 0 0 0 3.14.52c1.72 0 2.34-.38 2.34-1s-.58-1-2.26-1.42c-2.72-.58-3.7-1.72-3.7-3.48s1.58-3.4 4.66-3.4a13 13 0 0 1 3.88.64l-.54 2.08a11 11 0 0 0-3-.46c-1.38 0-2 .42-2 1 0 .58.54 1 2.14 1.38 2.7.58 3.94 1.66 3.94 3.5 0 2.1-1.68 3.42-4.92 3.42a14.44 14.44 0 0 1-4.26-.68l.58-2.1zm17.19 2.8c-3.78 0-6-2.12-6-5.78 0-3.5 2.18-5.8 5.48-5.8 3.3 0 5.1 2.06 5.1 5.26a7.08 7.08 0 0 1-.1 1.34h-7.46c.24 1.86 1.32 2.68 3.38 2.68a8.11 8.11 0 0 0 3.08-.7l.72 2a10.3 10.3 0 0 1-4.2 1zm-3-6.72h4.74c-.14-1.92-1-2.68-2.32-2.68-1.32 0-2.18.84-2.4 2.68h-.02zm16.62-4.86a3.32 3.32 0 0 1 1.64.42l-.66 2.8a3.32 3.32 0 0 0-1.4-.32 2.75 2.75 0 0 0-2.36 1.7v6.72h-2.92v-11.06H751a14.6 14.6 0 0 0 .24 1.7 3 3 0 0 1 2.82-1.96zm-167.38 40.36a12.58 12.58 0 0 0 3.88.7c2.12 0 3-.6 3-1.6s-.66-1.58-3-2.18c-3.18-.84-4.48-2.34-4.48-4.38 0-2.44 2.06-4.34 5.66-4.34a14.33 14.33 0 0 1 4.42.74l-.62 2.4a12.13 12.13 0 0 0-3.6-.62c-1.92 0-2.74.66-2.74 1.6 0 .94.76 1.58 2.86 2.1 3.46.86 4.74 2.34 4.74 4.56 0 2.54-2 4.24-5.82 4.24a16 16 0 0 1-4.9-.78l.6-2.44zm17.32 3.22c-2.32 0-3.94-1.24-3.94-4.14v-7.18H603v6.74c0 1.56.62 2.2 1.86 2.2a4.86 4.86 0 0 0 2.88-1v-7.9h2.94v11.02h-2.5l-.3-1.1a6.59 6.59 0 0 1-3.88 1.36zm13.5 2.74h-2.92v-14.06h2.68c.025.498.092.993.2 1.48a4.76 4.76 0 0 1 3.82-1.74c2.56 0 4.3 1.7 4.3 5.56 0 3.86-2 6-4.82 6a6 6 0 0 1-3.26-1v3.76zm2.54-5.06c1.6 0 2.52-1.14 2.52-3.54 0-2.1-.8-3.12-2.4-3.12a4.19 4.19 0 0 0-2.66 1.18v4.68a4.61 4.61 0 0 0 2.5.8h.04zm11.84 5.06H629v-14.06h2.68c.025.498.092.993.2 1.48a4.76 4.76 0 0 1 3.82-1.74c2.56 0 4.3 1.7 4.3 5.56 0 3.86-2 6-4.82 6a6 6 0 0 1-3.26-1l-.04 3.76zm2.54-5.06c1.6 0 2.52-1.14 2.52-3.54 0-2.1-.8-3.12-2.4-3.12a4.19 4.19 0 0 0-2.66 1.18v4.68a4.61 4.61 0 0 0 2.54.8zm13.95-9.26c3.52 0 5.66 2.24 5.66 5.74s-2.14 5.84-5.66 5.84-5.7-2.28-5.7-5.84 2.14-5.74 5.7-5.74zm0 9.34c1.68 0 2.66-1.22 2.66-3.6s-1-3.52-2.66-3.52c-1.66 0-2.7 1.22-2.7 3.52s.98 3.6 2.7 3.6zm14.68-9.34a3.32 3.32 0 0 1 1.64.42l-.66 2.8a3.32 3.32 0 0 0-1.4-.32 2.75 2.75 0 0 0-2.36 1.7v6.72h-2.92v-11.06H660a14.6 14.6 0 0 0 .24 1.7 3 3 0 0 1 2.81-1.96zm8.9 11.58c-2.14 0-3.62-1-3.62-3.48v-5.6h-1.63v-2l1.62-.22v-1.88l2.94-.48v2.36h3.54v2.24h-3.54v5.14c0 1.24.5 1.6 1.62 1.6a7.55 7.55 0 0 0 1.86-.3l.46 2.08a9.9 9.9 0 0 1-3.25.54z"/><path fill="#37B1AE" fill-rule="nonzero" d="M593.44 255.57h-3.06v-5.48l-5.28-9h3.44l3.44 6.3 3.38-6.3h3.36l-5.28 9zm11.37-11.33c3.52 0 5.66 2.24 5.66 5.74s-2.14 5.84-5.66 5.84-5.7-2.28-5.7-5.84 2.14-5.74 5.7-5.74zm0 9.34c1.68 0 2.66-1.22 2.66-3.6s-1-3.52-2.66-3.52c-1.66 0-2.7 1.22-2.7 3.52s.98 3.61 2.7 3.61v-.01zm12.78 2.25c-2.32 0-3.94-1.24-3.94-4.14v-7.19h2.94v6.74c0 1.56.62 2.2 1.86 2.2a4.87 4.87 0 0 0 2.88-1v-7.9h2.94v11.06h-2.5l-.3-1.1a6.6 6.6 0 0 1-3.88 1.33zm16.32-11.59a3.33 3.33 0 0 1 1.64.42l-.66 2.8a3.34 3.34 0 0 0-1.4-.32 2.74 2.74 0 0 0-2.36 1.7v6.72h-2.92V244.5h2.64c.047.57.127 1.139.24 1.7a3 3 0 0 1 2.82-1.96zm19.16 1.56l-2.64 9.76h-3.12l-4.31-14.5h3.32l2.6 11.08 2.82-11.08h2.76l2.88 11 2.56-11h3.22l-4.34 14.5h-3.12zm17.43 10.03c-3.78 0-6-2.12-6-5.78 0-3.5 2.18-5.8 5.48-5.8 3.3 0 5.1 2.06 5.1 5.26a7.1 7.1 0 0 1-.1 1.34h-7.46c.24 1.86 1.32 2.68 3.38 2.68a8.13 8.13 0 0 0 3.08-.7l.72 2a10.3 10.3 0 0 1-4.2 1zm-3-6.72h4.74c-.14-1.92-1-2.68-2.32-2.68-1.32 0-2.19.83-2.41 2.68h-.01zm17.55-4.87c2.6 0 4.22 1.76 4.22 5.66 0 3.9-1.8 5.92-6.14 5.92a22.61 22.61 0 0 1-4.72-.68v-14.58h2.92v5.36a4.72 4.72 0 0 1 3.72-1.68zm-3.72 9.16a6 6 0 0 0 1.82.3c2.26 0 3.12-1.42 3.12-3.62s-.8-3.24-2.3-3.24a3.86 3.86 0 0 0-2.64 1.18v5.38zm25.59-1.09h-5.14l-1 3.26h-3.2l5.14-14.5h3.42l5.14 14.5H708l-1.08-3.26zm-2.58-8.16l-1.83 5.85h3.66l-1.83-5.85zm12.6 14.42H714V244.5h2.68a8.9 8.9 0 0 0 .2 1.48 4.77 4.77 0 0 1 3.82-1.74c2.56 0 4.3 1.7 4.3 5.56 0 3.86-2 6-4.82 6a5.94 5.94 0 0 1-3.26-1l.02 3.77zm2.54-5.06c1.6 0 2.52-1.14 2.52-3.54 0-2.1-.8-3.12-2.4-3.12a4.19 4.19 0 0 0-2.66 1.18v4.68a4.6 4.6 0 0 0 2.54.8zm11.84 5.06h-2.92V244.5h2.68a8.9 8.9 0 0 0 .2 1.48 4.77 4.77 0 0 1 3.82-1.74c2.56 0 4.3 1.7 4.3 5.56 0 3.86-2 6-4.82 6a5.94 5.94 0 0 1-3.26-1v3.77zm2.54-5.06c1.6 0 2.52-1.14 2.52-3.54 0-2.1-.8-3.12-2.4-3.12a4.19 4.19 0 0 0-2.66 1.18v4.68a4.6 4.6 0 0 0 2.54.8z"/><path fill="#60DAD8" fill-rule="nonzero" d="M590 46.79v3.78h-3.06V36.06H592c3.86 0 6.12 1.88 6.12 5.26s-2.26 5.46-6.12 5.46l-2 .01zm0-8.36v6h1.4c2.34 0 3.6-.92 3.6-3.1 0-2-1.26-2.9-3.6-2.9H590zm11.65 9.18a12.58 12.58 0 0 0 3.88.7c2.12 0 3-.6 3-1.6s-.66-1.58-3-2.18c-3.18-.84-4.48-2.34-4.48-4.38 0-2.44 2.06-4.34 5.66-4.34a14.3 14.3 0 0 1 4.42.74l-.62 2.4a12.1 12.1 0 0 0-3.6-.62c-1.92 0-2.74.66-2.74 1.6 0 .94.76 1.58 2.86 2.1 3.46.86 4.74 2.34 4.74 4.56 0 2.54-2 4.24-5.82 4.24a16 16 0 0 1-4.9-.78l.6-2.44zm16.87-.82v3.78h-3.06V36.06h5.08c3.86 0 6.12 1.88 6.12 5.26s-2.26 5.46-6.12 5.46l-2.02.01zm0-8.36v6h1.4c2.34 0 3.6-.92 3.6-3.1 0-2-1.26-2.9-3.6-2.9h-1.4zm11.54-2.37h5.5c4.42 0 7 2.48 7 7.22s-2.62 7.28-7 7.28h-5.5v-14.5zm3.06 2.4v9.7h1.82c2.86 0 4.5-1.24 4.5-4.88 0-3.64-1.62-4.82-4.5-4.82h-1.82zm16.37 6.67v5.44h-3.06V36.06h9.62v2.54h-6.56v4.12h5.9v2.4zm13.02-1.46v6.9h-3.06V36.06h3.06v7.14l5.49-7.14h3.54l-5.76 7.32 6 7.18H668zm13.54-8.85a1.71 1.71 0 1 1-1.84 1.72 1.68 1.68 0 0 1 1.84-1.72zm-1.46 4.68h2.92v11.07h-2.92V39.5zm10.95 11.33c-2.14 0-3.62-1-3.62-3.48v-5.6h-1.62v-2l1.62-.22v-1.9l2.94-.48v2.35h3.54v2.24h-3.54v5.14c0 1.24.5 1.6 1.62 1.6a7.6 7.6 0 0 0 1.86-.3l.46 2.08a9.9 9.9 0 0 1-3.26.57zm15.69-9.08v8.82h-2.94v-8.82h-1.56v-2l1.56-.2V39a3.47 3.47 0 0 1 3.82-3.72c.803 0 1.602.1 2.38.3l-.34 2.1a6.13 6.13 0 0 0-1.36-.16c-1 0-1.56.52-1.56 2h2.4v2.24l-2.4-.01zm10.21-2.5c3.52 0 5.66 2.24 5.66 5.74s-2.14 5.84-5.66 5.84-5.7-2.28-5.7-5.84 2.14-5.74 5.7-5.74zm0 9.34c1.68 0 2.66-1.22 2.66-3.6s-1-3.52-2.66-3.52c-1.66 0-2.7 1.22-2.7 3.52s.98 3.6 2.7 3.6zm14.68-9.34a3.32 3.32 0 0 1 1.64.42l-.66 2.8a3.34 3.34 0 0 0-1.4-.32 2.75 2.75 0 0 0-2.36 1.7v6.72h-2.92V39.5h2.64c.047.57.127 1.139.24 1.7a3 3 0 0 1 2.82-1.95zm19.16 1.55l-2.64 9.76h-3.12l-4.32-14.5h3.32l2.6 11.08 2.82-11.08h2.76l2.88 11 2.56-11h3.22L751 50.57h-3.1zm17.42 10.03c-3.78 0-6-2.12-6-5.78 0-3.5 2.18-5.8 5.48-5.8 3.3 0 5.1 2.06 5.1 5.26a7.07 7.07 0 0 1-.1 1.34h-7.46c.24 1.86 1.32 2.68 3.38 2.68a8.09 8.09 0 0 0 3.08-.7l.72 2a10.32 10.32 0 0 1-4.2 1zm-3-6.72h4.74c-.14-1.92-1-2.68-2.32-2.68-1.32 0-2.18.84-2.4 2.68h-.02zm17.56-4.86c2.6 0 4.22 1.76 4.22 5.66 0 3.9-1.8 5.92-6.14 5.92a22.61 22.61 0 0 1-4.72-.68V35.56h2.92v5.36a4.72 4.72 0 0 1 3.72-1.67zm-3.72 9.16a6 6 0 0 0 1.82.3c2.26 0 3.12-1.42 3.12-3.62s-.8-3.24-2.3-3.24a3.86 3.86 0 0 0-2.64 1.15v5.41z"/><path fill="#A7A9AC" fill-rule="nonzero" d="M633.51 90.92v2.65h-2.14V83.41h3.56c2.7 0 4.29 1.32 4.29 3.68 0 2.36-1.58 3.82-4.29 3.82l-1.42.01zm0-5.86v4.2h1c1.64 0 2.52-.64 2.52-2.17 0-1.53-.88-2-2.52-2l-1-.03zm8.19 6.43a8.8 8.8 0 0 0 2.72.49c1.48 0 2.09-.42 2.09-1.12 0-.7-.46-1.11-2.09-1.53-2.23-.59-3.14-1.64-3.14-3.07 0-1.71 1.44-3 4-3a10 10 0 0 1 3.1.52l-.43 1.68a8.45 8.45 0 0 0-2.52-.44c-1.34 0-1.92.46-1.92 1.12 0 .66.53 1.11 2 1.47 2.42.6 3.32 1.64 3.32 3.19 0 1.78-1.39 3-4.08 3a11.21 11.21 0 0 1-3.43-.55l.38-1.76zm11.84-.57v2.65h-2.14V83.41h3.6c2.7 0 4.29 1.32 4.29 3.68 0 2.36-1.58 3.82-4.29 3.82l-1.46.01zm0-5.86v4.2h1c1.64 0 2.52-.64 2.52-2.17 0-1.53-.88-2-2.52-2l-1-.03zm8.1-1.65h3.85c3.1 0 4.93 1.74 4.93 5.06 0 3.32-1.83 5.1-4.93 5.1h-3.85V83.41zm2.14 1.68v6.79h1.28c2 0 3.15-.87 3.15-3.42s-1.13-3.38-3.15-3.38l-1.28.01zm11.5 4.67v3.81h-2.14V83.41h6.74v1.78h-4.59v2.88h4.13v1.68zm9.14-1.03v4.83h-2.14V83.41h2.14v5l3.82-5h2.48l-4 5.13 4.23 5h-2.65zm9.51-6.19a1.2 1.2 0 1 1-1.29 1.21 1.18 1.18 0 0 1 1.29-1.21zm-1 3.28h2v7.75h-2v-7.75zm7.67 7.93a2.23 2.23 0 0 1-2.54-2.44v-3.92h-1.13V86l1.13-.15V84.5l2.06-.34v1.65h2.48v1.57h-2.48V91c0 .87.35 1.12 1.13 1.12a5.3 5.3 0 0 0 1.3-.21l.32 1.46a6.92 6.92 0 0 1-2.27.38zm5.73-2.55a1.28 1.28 0 1 1-1.33 1.27 1.26 1.26 0 0 1 1.33-1.27zm2.67 2.91c.193.049.391.076.59.08.66 0 .88-.2.88-1v-7.37h2V93c0 2-.73 2.84-2.26 2.84a5.18 5.18 0 0 1-1.34-.18l.13-1.55zm2.49-11.57a1.2 1.2 0 1 1-1.29 1.21 1.18 1.18 0 0 1 1.26-1.21h.03zm3.71 9.25a8.91 8.91 0 0 0 2.2.36c1.2 0 1.64-.27 1.64-.7 0-.43-.41-.73-1.58-1-1.91-.41-2.59-1.2-2.59-2.44s1.11-2.38 3.26-2.38a9.1 9.1 0 0 1 2.72.45l-.38 1.46a7.69 7.69 0 0 0-2.09-.32c-1 0-1.42.29-1.42.71s.38.71 1.5 1c1.89.41 2.76 1.16 2.76 2.45 0 1.47-1.18 2.4-3.45 2.4a10.1 10.1 0 0 1-3-.48l.43-1.51zm-81.69 45.13v2.65h-2.14v-10.16h3.56c2.7 0 4.29 1.32 4.29 3.68 0 2.36-1.58 3.82-4.29 3.82l-1.42.01zm0-5.86v4.2h1c1.64 0 2.52-.64 2.52-2.17 0-1.53-.88-2-2.52-2l-1-.03zm8.19 6.43a8.8 8.8 0 0 0 2.72.49c1.48 0 2.09-.42 2.09-1.12 0-.7-.46-1.11-2.09-1.53-2.23-.59-3.14-1.64-3.14-3.07 0-1.71 1.44-3 4-3a10 10 0 0 1 3.1.52l-.43 1.68a8.45 8.45 0 0 0-2.52-.44c-1.34 0-1.92.46-1.92 1.12 0 .66.53 1.11 2 1.47 2.42.6 3.32 1.64 3.32 3.19 0 1.78-1.39 3-4.08 3a11.21 11.21 0 0 1-3.43-.55l.38-1.76zm11.84-.57v2.65h-2.14v-10.16h3.6c2.7 0 4.29 1.32 4.29 3.68 0 2.36-1.58 3.82-4.29 3.82l-1.46.01zm0-5.86v4.2h1c1.64 0 2.52-.64 2.52-2.17 0-1.53-.88-2-2.52-2l-1-.03zm8.1-1.65h3.85c3.1 0 4.93 1.74 4.93 5.06 0 3.32-1.83 5.1-4.93 5.1h-3.85v-10.16zm2.14 1.68v6.79h1.28c2 0 3.15-.87 3.15-3.42s-1.13-3.38-3.15-3.38l-1.28.01zm11.5 4.67v3.81h-2.14v-10.16h6.74v1.78h-4.59v2.88h4.13v1.68zm9.14-1.03v4.83h-2.14v-10.15h2.14v5l3.82-5h2.48l-4 5.13 4.23 5h-2.65zm9.51-6.19a1.2 1.2 0 1 1-1.29 1.21 1.18 1.18 0 0 1 1.29-1.21zm-1 3.28h2v7.75h-2v-7.75zm7.67 7.93a2.23 2.23 0 0 1-2.54-2.44v-3.92h-1.13V132l1.13-.15v-1.35l2.06-.34v1.65h2.48v1.57h-2.48V137c0 .87.35 1.12 1.13 1.12a5.3 5.3 0 0 0 1.3-.21l.32 1.46a6.92 6.92 0 0 1-2.27.38zm5.73-2.55a1.28 1.28 0 1 1-1.36 1.27 1.26 1.26 0 0 1 1.36-1.27zm8.67-2.45l-1.48 4.82h-2.16l-2.68-7.75h2.21l1.57 5.7 1.55-5.7h2l1.61 5.7 1.5-5.7h2.16l-2.62 7.75h-2.16zm12.59.35a1.59 1.59 0 0 0-1.82-1.84 6.18 6.18 0 0 0-2.28.45l-.49-1.41a8.55 8.55 0 0 1 3.18-.66c2.38 0 3.43 1.16 3.43 3.19v4.73h-1.82l-.17-.81a3.43 3.43 0 0 1-2.45 1 2.29 2.29 0 0 1-2.58-2.31c0-1.55 1.19-2.42 3.17-2.42.6.004 1.2.061 1.79.17l.04-.09zm-1.32 1.18c-1.21 0-1.65.45-1.65 1s.36.92 1.16.92a2.84 2.84 0 0 0 1.81-.74v-1.12a12.51 12.51 0 0 0-1.32-.06zm6.03 1.51a8.91 8.91 0 0 0 2.2.36c1.2 0 1.64-.27 1.64-.7 0-.43-.41-.73-1.58-1-1.91-.41-2.59-1.2-2.59-2.44s1.11-2.38 3.26-2.38a9.1 9.1 0 0 1 2.72.45l-.38 1.46a7.69 7.69 0 0 0-2.09-.32c-1 0-1.42.29-1.42.71s.38.71 1.5 1c1.89.41 2.76 1.16 2.76 2.45 0 1.47-1.18 2.4-3.45 2.4a10.1 10.1 0 0 1-3-.48l.43-1.51zm13.04-6.15a2.34 2.34 0 0 1 2.27 1.39 3.84 3.84 0 0 1 3-1.39c1.39 0 2.54.87 2.54 2.84v5.08H751V135c0-1.05-.42-1.56-1.27-1.56a2.93 2.93 0 0 0-1.89.84v5.27h-2.06V135c0-1.05-.43-1.56-1.27-1.56a3 3 0 0 0-1.91.84v5.27h-2v-7.75h1.88a6 6 0 0 0 .14 1 3.59 3.59 0 0 1 2.72-1.16z"/><path fill="#66DAD6" fill-rule="nonzero" d="M241.3 87.55L1.67 226.81l282.35 163.02 239.63-139.26z" opacity=".5"/><path stroke="#006060" d="M241.3.55L1.67 139.81l282.35 163.02 239.63-139.26z"/><path fill="#8293A5" fill-rule="nonzero" d="M241.3.55l-15.5 9 282.35 163 15.5-9z" opacity=".25"/><path stroke="#60DAD8" stroke-width="2" d="M576 43H391"/><path stroke="#006060" stroke-width="2" d="M576 421H391"/><path stroke="#33B1B0" stroke-width="2" d="M576 249h-40"/><path fill="#E6E7E8" fill-rule="nonzero" d="M241.3.55L1.67 139.81l282.35 163.02 239.63-139.26z" opacity=".5"/><path fill="#000" fill-rule="nonzero" d="M431.89 135.27L282.9 49.24 73.59 170.91l148.98 86.01 209.32-121.65" opacity=".2"/><path fill="#FFF" fill-rule="nonzero" d="M431.89 130.27L222.57 251.91l-148.98-86L282.9 44.24z"/><path fill="#37B1AE" fill-rule="nonzero" d="M241.3.55l-15.5 9 282.35 163 15.5-9z"/><path fill="#A7A9AC" fill-rule="nonzero" d="M587.66 73.45h29.55V103h-29.55z"/><path fill="#FFF" fill-rule="nonzero" d="M607.51 96.54a3 3 0 0 0 2.74 1.69c1.15 0 1.89-.58 1.89-1.37 0-1-.76-1.29-2-1.84l-.69-.3c-2-.85-3.33-1.92-3.33-4.18 0-2.08 1.59-3.67 4.07-3.67a4.1 4.1 0 0 1 3.95 2.22l-2.16 1.39a1.89 1.89 0 0 0-1.79-1.19 1.21 1.21 0 0 0-1.33 1.19c0 .83.52 1.17 1.71 1.69l.69.3c2.36 1 3.69 2 3.69 4.36 0 2.5-2 3.87-4.6 3.87a5.33 5.33 0 0 1-5.06-2.84l2.22-1.32zm-9.81.24c.44.77.83 1.43 1.79 1.43.96 0 1.49-.36 1.49-1.74V87h2.78v9.5c0 2.88-1.69 4.18-4.15 4.18a4.31 4.31 0 0 1-4.17-2.54l2.26-1.36z"/><path fill="#A7A9AC" fill-rule="nonzero" d="M609.83 137.91l-.86 3.84h2.66l-.98-3.84z"/><path fill="#A7A9AC" fill-rule="nonzero" d="M606 119.39v.16a3.39 3.39 0 0 1-6.78 0v-.16h-11.34V149h29.57v-29.61H606zm-4 26.41l-1.44-7.13-1.56 7.13h-2l-2.25-10.47h2l1.34 7.13 1.61-7.13h1.83l1.45 7.21 1.52-7.21h1.92l-2.5 10.47H602zm10.79 0l-.67-2.33h-3.52l-.52 2.33h-2l2.53-10.47h3.09l3.07 10.47h-1.98z"/><path fill="#FFF" fill-rule="nonzero" d="M608.65 135.33l-2.53 10.47h2l.52-2.33h3.52l.67 2.33h2l-3.07-10.47h-3.11zm.32 6.42l.85-3.84h.82l1 3.84h-2.67zm-4.45-6.42l-1.53 7.21h-.03l-1.45-7.21h-1.83l-1.61 7.12h-.02l-1.34-7.12h-1.96L597 145.8h1.98l1.54-7.13h.04l1.44 7.13h1.94l2.5-10.47z"/><g fill="#A7A9AC" fill-rule="nonzero"><path d="M596.89 496.5a5.61 5.61 0 1 0 11.22 0 5.61 5.61 0 0 0-11.22 0z"/><path d="M615.41 489.1a.25.25 0 0 0 0-.25 15 15 0 0 0-12.91-7.35 14.93 14.93 0 0 0-11.73 5.65.25.25 0 0 0 0 .28l4.22 7.31a.25.25 0 0 0 .21.12.25.25 0 0 0 .2-.18 7.3 7.3 0 0 1 7.07-5.48h12.69a.25.25 0 0 0 .25-.1z"/><path d="M604.72 503.63a.25.25 0 0 0-.26-.09 7.3 7.3 0 0 1-8.57-3.94l-6-10.43a.25.25 0 0 0-.21-.12.25.25 0 0 0-.21.13 15 15 0 0 0 10.84 22.19.25.25 0 0 0 .21-.12l4.22-7.32a.25.25 0 0 0-.02-.3z"/><path d="M616.24 490.87h-8.46a.25.25 0 0 0-.17.42 7.29 7.29 0 0 1 .89 9.37l-6 10.45a.25.25 0 0 0 .21.37A15 15 0 0 0 616.47 491a.25.25 0 0 0-.23-.13z"/></g><path fill="#A7A9AC" fill-rule="nonzero" d="M668.76 492.47l-.37 2.35a37.1 37.1 0 0 0-1.16-6c-1-2.49-1.42-2.47-1.42-2.47a5.78 5.78 0 0 1 .54 2.57 7.47 7.47 0 0 0-4.25-4.19c-3.42-1.12-5.27-.81-5.48-.76 0 0 3.78.66 4.44 1.57a13.05 13.05 0 0 0-3.19.46c-.07 0 5.85.74 7.06 6.66 0 0-.65-1.35-1.45-1.58a12.49 12.49 0 0 1-.11 6.17c-.06.19-.13-.84-1.12-1.29.32 2.27 0 5.88-1.6 6.87-.12.08 1-3.56.22-2.15-4.41 6.75-9.61 3.12-12 1.52a6.91 6.91 0 0 0 4.49-.79c1.09-.75 1.74-1.3 2.33-1.17.59.13 1-.45.52-1a3 3 0 0 0-3-.84c-1 .27-2.35 1.44-4.34.26-1.52-.9-1.67-1.65-1.68-2.17a3.75 3.75 0 0 1 .14-.51c.18-.49.71-.64 1-.75a4.68 4.68 0 0 1 1.39.48v-.58a1.48 1.48 0 0 0-.05-.67 4.83 4.83 0 0 0-.21-.95c0-.14.37-.42.79-.71.42-.29.82-.55 1.18-.76l.6-.37.07-.05a1.24 1.24 0 0 0 .47-.91v-.33a.58.58 0 0 0 0-.09c-.05-.13-.26-.17-1.09-.19h-1.38a2.16 2.16 0 0 1-1.77-1.39 4.12 4.12 0 0 1 2.14-3 5.52 5.52 0 0 0-4.17 1.76 6.79 6.79 0 0 0-3.23-.07 3.78 3.78 0 0 1-.66-.08 4.32 4.32 0 0 1-1.54-2.82s-1.87 1.44-1.59 5.37v.18a4.92 4.92 0 0 0-.78 1.39 16.72 16.72 0 0 0-1.28 4.38c.206-.61.467-1.198.78-1.76a15.42 15.42 0 0 0-.51 5.74s0-.61.21-1.48a14.72 14.72 0 0 0 2.13 6.26 14.41 14.41 0 0 0 11.63 7.49 15.92 15.92 0 0 0 2.51 0h.23a17.45 17.45 0 0 0 2.88-.44c13.11-3.31 11.68-19.16 11.68-19.16zm35.61 3.98a1.07 1.07 0 0 1-.27.73.85.85 0 0 1-.67.31 1.07 1.07 0 0 1-.73-.27.85.85 0 0 1-.31-.67 1.06 1.06 0 0 1 .28-.73.88.88 0 0 1 .68-.31 1.05 1.05 0 0 1 .71.27.85.85 0 0 1 .31.67zm.24.94l5.66-9.4-1.09 1-2 1.89-2.21 2.06-1.97 1.79a8.5 8.5 0 0 0-.82.83l-5.65 9.39 1.08-1 2-1.89 2.2-2.06 1.89-1.8c.573-.487.877-.757.91-.81zm10.47-.89a11.29 11.29 0 0 1-1.68 6l-.28-.18-.43-.27a.74.74 0 0 0-.27-.12.19.19 0 0 0-.21.21c0 .107.333.343 1 .71a11.59 11.59 0 0 1-3 3.08 11.33 11.33 0 0 1-3.91 1.79l-.26-1.08c0-.107-.08-.16-.24-.16a.15.15 0 0 0-.13.09.22.22 0 0 0 0 .15l.26 1.1a11.55 11.55 0 0 1-2.36.24 11.4 11.4 0 0 1-6-1.7l.21-.33.35-.54a.92.92 0 0 0 .15-.31.19.19 0 0 0-.28-.18c-.067 0-.16.077-.28.23a5.3 5.3 0 0 0-.36.56l-.22.37a11.62 11.62 0 0 1-3.11-3 11.34 11.34 0 0 1-1.78-4l1.12-.24a.22.22 0 0 0 .16-.24.15.15 0 0 0-.09-.13.25.25 0 0 0-.17 0l-1.1.24a11.78 11.78 0 0 1-.23-2.25 11.28 11.28 0 0 1 1.76-6.13l.3.19.49.31a.82.82 0 0 0 .28.13c.14 0 .21-.063.21-.19s-.067-.21-.2-.25a5.93 5.93 0 0 0-.53-.35l-.32-.19A11.78 11.78 0 0 1 697 487a11.35 11.35 0 0 1 3.95-1.73l.24 1.08c0 .107.08.16.24.16a.15.15 0 0 0 .13-.09.25.25 0 0 0 0-.17l-.24-1.07a12.06 12.06 0 0 1 2.17-.21 11.39 11.39 0 0 1 6.13 1.76 4.25 4.25 0 0 0-.63 1.05c0 .14.063.21.19.21s.387-.333.78-1a11.62 11.62 0 0 1 4.77 6.91l-.91.19c-.107 0-.16.087-.16.26a.15.15 0 0 0 .09.13.22.22 0 0 0 .15 0l.92-.21c.157.733.244 1.48.26 2.23zm1.38 0a12.63 12.63 0 0 0-1-5 12.74 12.74 0 0 0-6.89-6.89 12.84 12.84 0 0 0-10.07 0 12.74 12.74 0 0 0-6.89 6.89 12.84 12.84 0 0 0 0 10.07 12.74 12.74 0 0 0 6.89 6.89 12.84 12.84 0 0 0 10.07 0 12.74 12.74 0 0 0 6.89-6.89 12.63 12.63 0 0 0 1-5.07zm1.55 0a14.17 14.17 0 0 1-1.15 5.63 14.25 14.25 0 0 1-7.72 7.72 14.38 14.38 0 0 1-11.26 0 14.25 14.25 0 0 1-7.72-7.72 14.38 14.38 0 0 1 0-11.26 14.25 14.25 0 0 1 7.72-7.72 14.38 14.38 0 0 1 11.26 0 14.25 14.25 0 0 1 7.72 7.72 14.17 14.17 0 0 1 1.14 5.63h.01zm30.99 2.72a5 5 0 0 0 1.21 3.41c.381.444.83.826 1.33 1.13a7.89 7.89 0 0 0 1.62.78 10 10 0 0 0 1.79.46c.608.1 1.224.15 1.84.15a12.18 12.18 0 0 0 2.17-.18 15.67 15.67 0 0 0 2-.51 17.64 17.64 0 0 0 1.91-.76c.63-.29 1.28-.61 1.94-1v6.14c-.713.35-1.444.66-2.19.93-.718.254-1.45.47-2.19.65a17 17 0 0 1-2.25.4 22.25 22.25 0 0 1-2.37.13 13.11 13.11 0 0 1-3.15-.38 12.35 12.35 0 0 1-2.85-1.08 11.93 11.93 0 0 1-2.44-1.71 10.82 10.82 0 0 1-3.13-5.02 11.31 11.31 0 0 1-.43-3.15 11.73 11.73 0 0 1 .49-3.41 10.83 10.83 0 0 1 3.66-5.4 11.87 11.87 0 0 1 3-1.72 6.29 6.29 0 0 0-1.4 2.14 9.27 9.27 0 0 0-.65 2.48h10.32a10.39 10.39 0 0 0-.32-2.73 4.55 4.55 0 0 0-1-1.94 4.28 4.28 0 0 0-1.83-1.16 8.32 8.32 0 0 0-2.71-.39 12.87 12.87 0 0 0-3.74.56 15.73 15.73 0 0 0-3.55 1.54 17.21 17.21 0 0 0-3.1 2.35 14.64 14.64 0 0 0-2.38 2.94 16.92 16.92 0 0 1 .78-3.52 15 15 0 0 1 1.47-3.13 14 14 0 0 1 2.1-2.6 12.53 12.53 0 0 1 2.67-2 13.53 13.53 0 0 1 3.16-1.28 16.19 16.19 0 0 1 3.61-.41 12.64 12.64 0 0 1 2.22.2 15.74 15.74 0 0 1 2.16.55 12.71 12.71 0 0 1 6.5 5 13.26 13.26 0 0 1 1.7 3.7 15 15 0 0 1 .59 4.2v3.6l-18.56.04z"/></g></svg>