<svg width="400" height="370" fill="none" xmlns="http://www.w3.org/2000/svg">
  <g clip-path="url(#clip0)">
    <path d="M52 268.3A1418.8 1418.8 0 00.7 311h.5L54 272a185 185 0 0011.2 18 234 234 0 00-17.4 15.8s-.1.3 0 .4A41080.8 41080.8 0 0067.3 293a191.6 191.6 0 0010 12.5A2184.3 2184.3 0 000 369.2h.5l81-59A184.2 184.2 0 00377 95a276.4 276.4 0 0012.2-22.3c2.4-5 7.3-16.2 6.7-22.9a6.7 6.7 0 00-1.3-3.4c-1-1.1-2-1.8-3.4-2.2-9.2-3-31 2.3-40.7 4.9l-7.2 2A184.2 184.2 0 0052 268.4z" fill="#000"/>
    <path d="M84.7 299.5l36.6-29.1c1.5-1.2 3.2-2 5-2.6 2.6-.7 5-.7 5.5 0s-.1 3-1.5 5.2c-.7 1.3-2 3-3.6 4.2l-37.4 27.3A174.6 174.6 0 00371 104c-6.1 9-12.9 17.5-20.6 25.4-10.1 10.2-19.9 18-31.5 26.8A106.9 106.9 0 01195 288.9l-1 .7c-.7.6-1.7.7-2.6.2a2.4 2.4 0 01-1.2-2 106.3 106.3 0 01-59.4-39.1L75 287.6c3 4 6.2 8 9.6 12zM59.6 262.2a13744 13744 0 0155-43.8 107 107 0 01-5.6-35.8 2.5 2.5 0 01-.7-4.2l.9-.7a106.9 106.9 0 01160-86.2c5.7-4.4 11-8.4 17.2-12.8a180 180 0 0146.5-24.2A174.7 174.7 0 0059.6 262.2z" fill="#fff"/>
    <path d="M117.3 225.6a123827 123827 0 01-55.6 40.8c3.2 6 6.8 11.8 10.8 17.5 17-14.5 38.9-32.4 52.5-43.5a106 106 0 01-7.7-14.8z" fill="#FFF4E5"/>
    <path fill-rule="evenodd" clip-rule="evenodd" d="M374 192.2a41.6 41.6 0 001.7-13.6c-.3-4.6-1.1-8.2-2.4-11-1.3-2.9-3-5-5-6.2-2-1.3-4.2-2-6.6-1.8a9.8 9.8 0 00-7 3.3 22 22 0 00-4.5 9.3c-.7 3-1.4 5-2 6.4-.5 1.4-1.3 2-2.3 2.1-.9 0-1.6-.4-2.2-1.4-.6-1-1-2.4-1-4.2A26.8 26.8 0 01344 165l-8.8-2.1a40.3 40.3 0 00-1.4 12.5c.4 5.8 1.9 10.3 4.4 13.4 2.5 3 5.6 4.6 9.2 4.4 3-.2 5.4-1.5 7.2-4 1.9-2.4 3.3-5.6 4.3-9.6.6-2.6 1.2-4.5 1.8-5.7.7-1.1 1.5-1.7 2.4-1.8 1 0 1.9.4 2.5 1.5.7 1 1 2.5 1.2 4.6a30.2 30.2 0 01-2 12.1l9.1 1.9zM362.1 244.7a41.5 41.5 0 006.2-12.3c1.2-4.3 1.7-8 1.4-11.1-.3-3.2-1.2-5.7-2.6-7.6a10.7 10.7 0 00-5.6-3.8 9.8 9.8 0 00-7.7.7 22 22 0 00-7.4 7.3c-1.7 2.5-3 4.3-4 5.4-1 1.1-2 1.5-2.9 1.2-.8-.2-1.4-1-1.6-2-.3-1.1-.1-2.6.4-4.4a26.7 26.7 0 014.7-9l-7.6-5a40.5 40.5 0 00-5.5 11.4 23.3 23.3 0 00-.4 14c1.4 3.8 3.8 6.2 7.3 7.3 2.9.8 5.6.4 8.1-1.3 2.6-1.7 5-4.2 7.2-7.7 1.5-2.2 2.7-3.8 3.7-4.7 1-1 2-1.2 2.8-1 1 .4 1.6 1 2 2.3.2 1.1 0 2.7-.6 4.7a30 30 0 01-5.8 10.8l8 4.8zM340 256.6l-7.1-5.2-9.8 13.4-5.2-3.8 10.3-14.2-7.1-5.2-17.6 24.2 32.7 23.8 18.1-25-7.2-5.2-10.8 15-6-4.4 9.7-13.4zM290.2 326l10.1-6.7-8.4-12.7 1.7-1c1.5-1.2 2.9-1.7 4.2-1.6 1.3.1 2.8 1 4.6 2.6a71.9 71.9 0 007.9 6l10.4-7-2.4-1.7a224.7 224.7 0 01-7.1-5.8c-1.5-1.2-3-2-4.4-2.5-1.4-.5-3-.6-4.5-.3l-.1-.1a13 13 0 002.4-5.8c.5-2.3 0-4.6-1.3-6.7-1.1-1.6-2.4-2.8-3.8-3.6a10 10 0 00-4.8-1.2c-2.1 0-4.4.5-6.8 1.5-2.4 1-5 2.5-8 4.5a130.2 130.2 0 00-11.9 9l22.2 33.1zm-7.9-33.7l1.1-1 2.3-1.6a7.8 7.8 0 014.6-1.5c1.3 0 2.4.7 3.3 2 .8 1.2 1 2.6.4 4a9.4 9.4 0 01-3.7 4.2l-2.7 1.8-5.3-8zM234.3 343.2l12-2.6-3-13.4a25 25 0 013-.6c3-.6 5.8-1.6 8.1-2.8 2.4-1.3 4.4-2.8 6-4.6 1.1-1.4 1.9-3 2.3-5 .3-1.7.3-3.7-.1-5.7a11.5 11.5 0 00-7.3-8.3c-1.8-.7-3.9-1-6.4-1a40 40 0 00-8.5 1 135.6 135.6 0 00-14.7 4.1l8.6 39zm5-34.2l1.3-.5 2.2-.5c2.3-.5 4.1-.4 5.4.2 1.3.7 2.2 1.7 2.5 3.2.3 1.7 0 3.2-1.2 4.5a9.7 9.7 0 01-5.2 2.7 31.9 31.9 0 01-2.8.5l-2.2-10.1zM211.7 344.7l-10-22.5 15.4-17.6-13.9-2.1-3.8 6a217.1 217.1 0 00-3.7 6h-.1a248.7 248.7 0 00-2-7l-2.2-6.9-14-2.2 9.3 21.7-16 18.2 13.9 2.2 4-6.1a237.2 237.2 0 014.1-6.4h.1a832.7 832.7 0 002.5 7.5l2.2 7 14.2 2.2zM157.9 315.6l4.3-7.6-14.4-8.1 3.2-5.7 15.3 8.7 4.3-7.8-26-14.7-20 35.2 27 15.2 4.3-7.7-16.1-9.1 3.7-6.5 14.4 8.1z" fill="#000"/>
    <path fill-rule="evenodd" clip-rule="evenodd" d="M390.7 49.5a2 2 0 00-1-.6c-.7-.3-1.4-.4-2.3-.5-8.7-1.1-25.3 2.6-35.6 5.4-7.3 2-13.3 3.9-20.4 6.5a166.8 166.8 0 00-42.2 22.4 504.8 504.8 0 00-21 15.8h-.1a298.6 298.6 0 00-45.6 43.6c-.5.5-1 .8-1.8.8a197.6 197.6 0 00-100.1 32.5l5.4-.8a81 81 0 0118.1-.4c5.8.5 10.7 1.7 16 4.1 6 2.6 10.3 6.4 13.8 11.8l1 1.4L167 202c-3.5 4.5-6.2 8.4-9.3 13-.6 1-1.3 2.6-.6 3.7l10.4 13.5c.7.8 2.6.7 3.6.3 4.8-1.6 8.8-3 13.5-5l13.5-5.5 1.2 1.2c3.5 4 5.7 8 7 13a40.7 40.7 0 011.2 16.3 86.9 86.9 0 01-7.6 26c9.9-8.5 17.5-16.7 25.3-27.1A209.4 209.4 0 00257 190c.3-.7.7-1.2 1.3-1.5 20-9.7 36-19.6 53.7-33 6.2-4.6 11.3-8.6 17.3-13.4 6.5-5.3 11.8-10 17.8-16a222 222 0 0037.8-55.4c1.6-3.6 6.7-14.9 6.2-20.3a2 2 0 00-.3-1z" fill="#EFD456"/>
    <path fill-rule="evenodd" clip-rule="evenodd" d="M313.7 160.3a302.5 302.5 0 01-52.4 32.1 213.7 213.7 0 01-32.1 61.8 168.1 168.1 0 01-27.8 29.6 100.7 100.7 0 00112.3-123.4zM192.7 282.1c8.3-15.8 16-39.5 4.2-54.4l-10.3 4.2c-4.8 2-9 3.6-13.9 5.2-3 1-6.8.7-8.9-2l-10.6-13.7c-2-2.7-1.3-6.5.5-9.1 3.2-4.8 6-8.8 9.5-13.3l5.7-7.6c-3-4-6.3-6.6-10.8-8.6a42.8 42.8 0 00-14.4-3.7c-6-.5-11.1-.4-17.1.4-4 .5-7.6 1.1-11.4 2-.3 11 1.2 22.1 4.6 32.8l20.4-16.1c1.4-1.2 3.2-2 5-2.6 2.6-.8 5-.8 5.4-.1.5.6 0 3-1.5 5.2-.7 1.2-2 3-3.7 4.2l-23 16.9c2.1 5 4.6 10 7.5 14.7l8-6.5c1.6-1.4 3.7-2.3 5.9-2.9 3-.7 5.9-.6 6.5.3.7.8.1 3.6-1.4 6.4-.8 1.5-2.2 3.5-4.2 4.9-.8.6-4 3-9 6.4l.4.5c14.7 19 34.9 31.4 56.6 36.5zM115.8 172.7a201 201 0 01103.7-34.6 302.6 302.6 0 0144.4-42.4 100.7 100.7 0 00-148 77z" fill="#D12A26"/>
    <path d="M127.8 94.2l1.9-2c1.4-1.5 2.4-3 3-4.6a11.3 11.3 0 00-.3-9.3 14 14 0 00-3-4.2 13.9 13.9 0 00-4.3-2.8 11.4 11.4 0 00-9.4.2c-1.6.7-3 1.8-4.4 3.3l-1.9 2 18.4 17.4zM94.1 78.4l12-12.6c2-2.2 4.5-4 7.3-5a22.9 22.9 0 0117-.2 21.6 21.6 0 0112.4 11.8 22.9 22.9 0 01.7 17c-.9 2.7-2.4 5.2-4.6 7.5l-12 12.6-32.8-31z" fill="#2B2B2B"/>
    <path d="M174.3 36.7l-13.1 5.4 2.9 7 12-5 3.7 9.3-11.9 5 6.8 16.3-10.9 4.5-17.3-41.8 24-9.9 3.8 9.2z" fill="#000"/>
    <path d="M85.3 126l1.6-3.6c1.7-4 .9-6.7-2.6-8.2-3.4-1.5-6-.3-7.7 3.7l-1.6 3.5 10.3 4.6zm22.4 9.9l-4.7 10.7-41.4-18.3 7.5-17c2-4.7 4.9-7.7 8.4-9.1 3.5-1.4 7.4-1.2 11.8.8 4.4 1.9 7.3 4.6 8.6 8.2 1.3 3.5 1 7.6-1.1 12.2l-2.8 6.4 13.7 6z" fill="#2B2B2B"/>
  </g>
  <defs>
    <clipPath id="clip0">
      <path fill="#fff" d="M0 0h400v369.3H0z"/>
    </clipPath>
  </defs>
</svg>
