<svg xmlns="http://www.w3.org/2000/svg" xmlns:xlink="http://www.w3.org/1999/xlink" viewBox="0 0 848 502"><defs><path id="a" d="M828.87 287.36L330.88.1.58 190.85l497.99 287.26z"/><path id="c" d="M250.56 337.06l333.6-192.07L333.96.94.37 193.01z"/></defs><g fill="none" fill-rule="evenodd"><path fill="#B2B2B2" fill-rule="nonzero" d="M.58 214.35L330.88 23.6l17.78-10.27a4.1 4.1 0 0 1 3.71 0l494.28 285.12a1.13 1.13 0 0 1 0 2.14l-17.78 10.27-17.68 10.21-312.62 180.54L.58 214.35z" opacity=".25"/><path fill="#B2B2B2" fill-rule="nonzero" d="M.58 204.35v-2.5L330.88 13.6l17.78-10.27a4.1 4.1 0 0 1 3.71 0l495 283.75v2.44a1.3 1.3 0 0 1-.77 1.07l-17.78 10.27-17.68 10.21-312.57 180.54L.58 204.35z"/><path fill="#FFF" fill-rule="nonzero" d="M846.65 286L352.37.83a4.1 4.1 0 0 0-3.71 0L330.88 11.1l498 287.26 17.78-10.27a1.13 1.13 0 0 0-.01-2.09z"/><path fill="#00B737" fill-rule="nonzero" d="M367.57 23.85c-1.4-.81-1.4-2.11 0-2.92a5.59 5.59 0 0 1 5.06 0c1.4.81 1.4 2.11 0 2.92a5.6 5.6 0 0 1-5.06 0"/><path fill="#F9CF18" fill-rule="nonzero" d="M357.79 18.21c-1.4-.81-1.4-2.11 0-2.92a5.59 5.59 0 0 1 5.06 0c1.4.81 1.4 2.11 0 2.92a5.6 5.6 0 0 1-5.06 0"/><path fill="red" fill-rule="nonzero" d="M348 12.56c-1.4-.81-1.4-2.11 0-2.92a5.59 5.59 0 0 1 5.06 0c1.4.81 1.4 2.11 0 2.92a5.6 5.6 0 0 1-5.06 0"/><path fill="#E3E3E3" fill-rule="nonzero" d="M.58 201.85l497.99 287.26 330.3-190.75L330.88 11.1z"/><g transform="translate(0 11)"><mask id="b" fill="#fff"><use xlink:href="#a"/></mask><g mask="url(#b)"><g transform="translate(115 67)"><mask id="d" fill="#fff"><use xlink:href="#c"/></mask><g mask="url(#d)"><path d="M250.56 337.06l333.6-192.07L333.96.94.37 193.01z"/><path fill="#FFF" fill-rule="nonzero" d="M-228.8 331.85L10.06 469.52 921.27-55.66 682.41-193.32z"/><path fill="#E4E4E4" fill-rule="nonzero" d="M612.96-131.91L814.71-15.63l9.96-5.74-201.75-116.28zm19.99-11.52L834.7-27.15l10.03-5.78-201.75-116.28zm-39.9 23L794.8-4.15l9.96-5.74-201.75-116.28zm-19.91 11.48L774.89 7.33l9.95-5.74-201.75-116.28zm115.53 91.04l65 37.46 11.26-6.49-65-37.46zm-59.16-1.17l95.6 55.1 9.95-5.74-95.6-55.1zM523.36-80.26l95.59 55.1 9.96-5.74-95.6-55.1z"/><path fill="#F9CF18" fill-rule="nonzero" d="M648.81-111.25l72.42 41.74 9.96-5.73-72.42-41.74z"/><path fill="#E4E4E4" fill-rule="nonzero" d="M609.59-7.61l95.6 55.1 9.96-5.74-95.6-55.09zM503.44-68.78l95.6 55.09 9.96-5.73-95.6-55.1zM653.05 40.39l32.23 18.58 9.96-5.74L663 34.66zM504.79-45.05l74.34 42.84 9.96-5.74-74.34-42.84zM597.3 60.66l42.52 24.51 25.55-14.72-42.53-24.51zm-53.07-30.59l42.52 24.51 25.54-14.72-42.52-24.51zM491.15-.52l42.52 24.51 25.55-14.72-42.53-24.51zm-53.08-30.59L480.6-6.6l25.54-14.72-42.52-24.51zM189.65 193.16l-49.7-28.86-9.95 5.74 49.69 28.86zm65.86-8.19l-75.73-43.62-9.96 5.74 75.74 43.62zm105.56 60.41l-95.6-55.1-9.96 5.73 95.6 55.1zM235.6 196.45l-75.73-43.62-9.96 5.73 75.73 43.63zm106.15 61.18l-95.6-55.1-9.95 5.74 95.6 55.1zM169.82 135.61l-9.91-5.74-9.95 5.74 9.91 5.74zm-19.88 11.48l-9.92-5.74-9.95 5.74 9.91 5.74zm-19.92 11.47l-9.91-5.73-9.95 5.73 9.9 5.74zm170.56 98.29l-74.34-42.84-9.96 5.74 74.34 42.84zM408.21-13.89l201.75 116.27 11.26-6.49L419.47-20.39zm46.77 58.73l127.41 73.43 9.96-5.74L464.93 39.1zM331.72 30.19l201.75 116.27 9.96-5.74L341.68 24.45zm19.99-11.52l201.75 116.27 10.03-5.78L361.74 12.88zm-39.9 22.99l201.75 116.28 9.96-5.74L321.77 35.92zM291.9 53.14l201.75 116.28 9.95-5.74L301.85 47.4zm-21.38 12.44l64.99 37.46 11.26-6.49-64.99-37.46zM73.84 178.82L275.59 295.1l9.96-5.74L83.79 173.08zm-19.91 11.47l201.75 116.28 9.95-5.74L63.88 184.56zm-19.92 11.48l201.75 116.28 9.96-5.74L43.97 196.03zM12.62 215l65 37.46 11.26-6.49-65-37.46zm-25.18 13.61l201.75 116.28 9.95-5.74L-2.61 222.88zm-19.92 11.48l201.75 116.28 9.96-5.74-201.75-116.28zm-19.91 11.48l201.75 116.28 9.96-5.74-201.75-116.28zm115.54 91.04l64.99 37.46 11.26-6.49-64.99-37.46zM251.72 76.3l201.75 116.28-68.44 39.44-201.75-116.28z"/><path fill="#215894" fill-rule="nonzero" d="M182.7 203.94c30.58 0 55.45-14.7 55.45-32.77a1.915 1.915 0 0 0-3.83 0c0 16-23.16 28.94-51.62 28.94-28.46 0-51.63-13-51.63-28.94 0-15.94 23.16-28.94 51.63-28.94 14.14 0 27.35 3.18 37.21 9a1.914 1.914 0 1 0 1.94-3.3c-10.44-6.12-24.34-9.49-39.15-9.49-30.58 0-55.45 14.7-55.45 32.77 0 18.07 24.88 32.73 55.45 32.73z"/><path fill="#000" fill-rule="nonzero" d="M42.91 388.3c-1.71-1-4.57-2.31-6.63-1.12-2.77 1.6-.91 6.32-.2 8 .2.31.14.48 0 .58-.14.1-.89 0-1.57-.38a5.72 5.72 0 0 1-2-2c-1.26-2.14-1.46-6.47 1.57-8.22 3.03-1.75 7.74.15 10.06 1.48a35.18 35.18 0 0 1 10.63 9.78c3.2 4.87 2.4 7.9-.4 9.52-2.14 1.24-5.6 1.65-9.4 1.43-4.23-.23-6.86.16-8.4 1.05-3.46 2-1.4 6.41 1.71 8.2 1.49.86 4 1.33 5.54.43 1-.56 1.49-1.58 1.23-3.38 0-.18 0-.33.09-.38.09-.05.37 0 .57.13a4.76 4.76 0 0 1 1.89 2.14 3 3 0 0 1-1.49 3.33c-2.37 1.37-5.8.94-8.66-.71-4.89-2.82-7.54-8.43-2.43-11.38 2.09-1.2 5.2-1.71 8.83-1.56 4 .2 6.89-.15 8.54-1.1 2.14-1.24 2.29-3.49.14-6.93a32.66 32.66 0 0 0-9.62-8.91zm-16.77 20.21l-.34.2a4.61 4.61 0 0 1-4.54 0c-2.71-1.56-2.94-6.93-3-7.57a.33.33 0 0 1 .17-.36 2.3 2.3 0 0 1 1.69 0c.09 0 .14.12.17.33.09.64.34 5.07 2.23 6.16a1.38 1.38 0 0 0 1.49 0c1.31-.76 1.09-3.29 1.09-5.66a.23.23 0 0 1 .14-.25 3.16 3.16 0 0 1 2.06-.07.33.33 0 0 1 .14.25 17.51 17.51 0 0 1 .23 3.19 14.22 14.22 0 0 0 1.51 5.71.34.34 0 0 1-.17.49 2.07 2.07 0 0 1-1.74 0 .6.6 0 0 1-.26-.25 13 13 0 0 1-.87-2.17zm0-12.73a1.73 1.73 0 0 1 1.8 0 1.6 1.6 0 0 1-.11 2.83 1.92 1.92 0 0 1-1.86 0 1.66 1.66 0 0 1 .2-2.83h-.03z"/><path fill="#000" fill-rule="nonzero" d="M14.37 408.08c2.8 4.74 5.83 11 2.63 12.84a3.64 3.64 0 0 1-3.6 0c-3.46-2-4.34-9.32-4-16.61a38.5 38.5 0 0 1-2.66-4c-2.17-4.25-2.06-6.19-2.17-7a.33.33 0 0 1 .17-.36 2.3 2.3 0 0 1 1.69 0c.09 0 .14.12.17.33a15.59 15.59 0 0 0 2.29 7c.218.433.465.85.74 1.25l.29-2.6a35.1 35.1 0 0 0 .34-4.84.53.53 0 0 1 .29-.49 2.74 2.74 0 0 1 2-.18.77.77 0 0 1 .34.56l.17 1.45a5 5 0 0 1 3.94.46c3.54 2 5 6.82 1.57 8.81a4.1 4.1 0 0 1-4.2.15 5.78 5.78 0 0 1-2.63-4.22 20.78 20.78 0 0 0-.2 3.54c1.09 1.39 2.17 2.83 2.83 3.91zm1.06 11.28c1.17-.68-.66-5.91-2.71-10a19.91 19.91 0 0 0-1.23-2c.23 5.83 1.54 11.07 3.2 12a.64.64 0 0 0 .74 0zm1.4-16.38c1.83-1.05.6-5-1.34-6.14a2.7 2.7 0 0 0-2.31-.15c.26 2.62.63 5.3 2.23 6.22.416.302.97.337 1.42.09v-.02z"/><path fill="#000" fill-rule="nonzero" d="M4.06 389.13a3.47 3.47 0 0 1 2.4-.16c.26.15.37.31.34.53a14.46 14.46 0 0 0-.17 3.66.29.29 0 0 1-.17.36 2.4 2.4 0 0 1-1.31.16l-1.11 3a1 1 0 0 1-.4.69 3.22 3.22 0 0 1-1.83-.16c-.23-.13-.23-.43-.2-.81a10.77 10.77 0 0 0-1.34-6.54c.09 1.47-.2 2.72-1.51 3.47a4.2 4.2 0 0 1-4-.08c-2.6-1.5-3-5.27-3.29-7.62a.33.33 0 0 1 .17-.36 2.3 2.3 0 0 1 1.69 0c.09 0 .14.12.17.33.43 3.21.54 5.19 2.34 6.22.387.176.836.15 1.2-.07.89-.51.91-2 .71-3.18-.11-.82-.74-2.34-.23-2.63a2.83 2.83 0 0 1 2-.2c1.06.61 2.74 3.33 3.69 6.31.23-1.09.31-1.89.46-2.37a.75.75 0 0 1 .39-.55zm38.85-.83c-1.71-1-4.57-2.31-6.63-1.12-2.77 1.6-.91 6.32-.2 8 .2.31.14.48 0 .58-.14.1-.89 0-1.57-.38a5.72 5.72 0 0 1-2-2c-1.26-2.14-1.46-6.47 1.57-8.22 3.03-1.75 7.74.15 10.06 1.48a35.18 35.18 0 0 1 10.63 9.78c3.2 4.87 2.4 7.9-.4 9.52-2.14 1.24-5.6 1.65-9.4 1.43-4.23-.23-6.86.16-8.4 1.05-3.46 2-1.4 6.41 1.71 8.2 1.49.86 4 1.33 5.54.43 1-.56 1.49-1.58 1.23-3.38 0-.18 0-.33.09-.38.09-.05.37 0 .57.13a4.76 4.76 0 0 1 1.89 2.14 3 3 0 0 1-1.49 3.33c-2.37 1.37-5.8.94-8.66-.71-4.89-2.82-7.54-8.43-2.43-11.38 2.09-1.2 5.2-1.71 8.83-1.56 4 .2 6.89-.15 8.54-1.1 2.14-1.24 2.29-3.49.14-6.93a32.66 32.66 0 0 0-9.62-8.91zm-16.77 20.21l-.34.2a4.61 4.61 0 0 1-4.54 0c-2.71-1.56-2.94-6.93-3-7.57a.33.33 0 0 1 .17-.36 2.3 2.3 0 0 1 1.69 0c.09 0 .14.12.17.33.09.64.34 5.07 2.23 6.16a1.38 1.38 0 0 0 1.49 0c1.31-.76 1.09-3.29 1.09-5.66a.23.23 0 0 1 .14-.25 3.16 3.16 0 0 1 2.06-.07.33.33 0 0 1 .14.25 17.51 17.51 0 0 1 .23 3.19 14.22 14.22 0 0 0 1.51 5.71.34.34 0 0 1-.17.49 2.07 2.07 0 0 1-1.74 0 .6.6 0 0 1-.26-.25 13 13 0 0 1-.87-2.17zm0-12.73a1.73 1.73 0 0 1 1.8 0 1.6 1.6 0 0 1-.11 2.83 1.92 1.92 0 0 1-1.86 0 1.66 1.66 0 0 1 .2-2.83h-.03z"/><path fill="#000" fill-rule="nonzero" d="M14.37 408.08c2.8 4.74 5.83 11 2.63 12.84a3.64 3.64 0 0 1-3.6 0c-3.46-2-4.34-9.32-4-16.61a38.5 38.5 0 0 1-2.66-4c-2.17-4.25-2.06-6.19-2.17-7a.33.33 0 0 1 .17-.36 2.3 2.3 0 0 1 1.69 0c.09 0 .14.12.17.33a15.59 15.59 0 0 0 2.29 7c.218.433.465.85.74 1.25l.29-2.6a35.1 35.1 0 0 0 .34-4.84.53.53 0 0 1 .29-.49 2.74 2.74 0 0 1 2-.18.77.77 0 0 1 .34.56l.17 1.45a5 5 0 0 1 3.94.46c3.54 2 5 6.82 1.57 8.81a4.1 4.1 0 0 1-4.2.15 5.78 5.78 0 0 1-2.63-4.22 20.78 20.78 0 0 0-.2 3.54c1.09 1.39 2.17 2.83 2.83 3.91zm1.06 11.28c1.17-.68-.66-5.91-2.71-10a19.91 19.91 0 0 0-1.23-2c.23 5.83 1.54 11.07 3.2 12a.64.64 0 0 0 .74 0zm1.4-16.38c1.83-1.05.6-5-1.34-6.14a2.7 2.7 0 0 0-2.31-.15c.26 2.62.63 5.3 2.23 6.22.416.302.97.337 1.42.09v-.02z"/><path fill="#000" fill-rule="nonzero" d="M4.06 389.13a3.47 3.47 0 0 1 2.4-.16c.26.15.37.31.34.53a14.46 14.46 0 0 0-.17 3.66.29.29 0 0 1-.17.36 2.4 2.4 0 0 1-1.31.16l-1.11 3a1 1 0 0 1-.4.69 3.22 3.22 0 0 1-1.83-.16c-.23-.13-.23-.43-.2-.81a10.77 10.77 0 0 0-1.34-6.54c.09 1.47-.2 2.72-1.51 3.47a4.2 4.2 0 0 1-4-.08c-2.6-1.5-3-5.27-3.29-7.62a.33.33 0 0 1 .17-.36 2.3 2.3 0 0 1 1.69 0c.09 0 .14.12.17.33.43 3.21.54 5.19 2.34 6.22.387.176.836.15 1.2-.07.89-.51.91-2 .71-3.18-.11-.82-.74-2.34-.23-2.63a2.83 2.83 0 0 1 2-.2c1.06.61 2.74 3.33 3.69 6.31.23-1.09.31-1.89.46-2.37a.75.75 0 0 1 .39-.55z"/></g></g></g></g><path fill="#6CA4F1" fill-rule="nonzero" d="M313.2 21.31l497.99 287.26 17.68-10.21L330.88 11.1z"/><path fill="#333" fill-rule="nonzero" d="M324.56 131.75h-51.37a5.73 5.73 0 0 0-5.73 5.73v44.83a5.73 5.73 0 0 0 5.73 5.73h13.29l12.4 12.4 12.4-12.4h13.29a5.73 5.73 0 0 0 5.73-5.73v-44.83a5.73 5.73 0 0 0-5.74-5.73z"/><path fill="#FFF" fill-rule="nonzero" d="M312.76 149.41l-2.14-2.14a3 3 0 0 0-4.26 0L289.65 164a1 1 0 0 0 0 1.42l5 5a1 1 0 0 0 1.42 0l16.71-16.71a3 3 0 0 0-.02-4.3zm-24.88 17.76a1 1 0 0 0-1.68.48l-1.53 6.52a1 1 0 0 0 1 1.23h.23l6.51-1.53a1 1 0 0 0 .48-1.68l-5.01-5.02z"/></g></svg>