<svg fill="none" height="100" viewBox="0 0 100 100" width="100" xmlns="http://www.w3.org/2000/svg" xmlns:xlink="http://www.w3.org/1999/xlink"><clipPath id="a"><path d="m56 47h31v18h-31z"/></clipPath><circle cx="50" cy="50" fill="#89ccff" opacity=".25" r="50"/><rect fill="#3a4e65" height="41.9595" rx="2" width="45" x="28" y="29"/><path d="m28 31c0-1.1046.8954-2 2-2h41c1.1046 0 2 .8954 2 2v10h-45z" fill="#3cb3ce"/><g fill="#8cfff8"><circle cx="34" cy="35" r="2"/><circle cx="40" cy="35" r="2"/><circle cx="46" cy="35" r="2"/></g><g clip-path="url(#a)"><path d="m87 56s-6.9378 9-15.4895 9-15.5105-9-15.5105-9 6.9378-9 15.4895-9 15.5105 9 15.5105 9z" fill="#fff"/><path d="m71.4893 61.5333c2.975 0 5.3867-2.4774 5.3867-5.5335s-2.4117-5.5335-5.3867-5.5335-5.3868 2.4774-5.3868 5.5335 2.4118 5.5335 5.3868 5.5335z" fill="#3079ce"/></g></svg>