<svg fill="none" height="60" viewBox="0 0 59 60" width="59" xmlns="http://www.w3.org/2000/svg"><path d="m29.6613 20.6242c.398.0186.7781.171 1.0792.4326.4103.3893.5179 1.0386.3237 1.558-.7549 1.5577-2.5503 2.5982-3.7771 2.9424-.734.173-1.6619.173-2.3311-.0865-.324.1946-.5973.8238-.9929.5624-.5726-.4483-.077-1.1499-.4075-1.6477-.0682-.1025-.2399-.1101-.3262-.2778-.4534-.9953.1079-1.9473.7337-2.7044 1.0432-1.1668 4.0364-2.4668 5.6982-.779zm-3.475.7787c-.583.1081-1.2413.3624-1.5971.779-.3562.4163-.5827.8223-.3669 1.2549.7556-.5624 1.1224-1.3414 1.9643-1.8173-.0003-.0868.1291-.1517-.0003-.2166zm3.5185.2166c-1.4896-.1301-2.6119.9953-3.6696 2.0768-.0647.1731-.4531.3678-.151.5624 1.4248.1298 2.7845-.2809 3.8206-1.2332.3024-.2812.5175-.6489.3671-1.0386-.0647-.1511-.217-.3025-.3671-.3674zm12.9066 6.4475c.6908 1.6878 1.2734 4.3486 0 5.9715-.3453.3894-.9494.7483-1.3379.4543-1.4247-1.1464-2.0286-2.791-2.9136-4.2625-.1295-.0649-.1295.1085-.1943.1734-.3236 1.4928.2806 3.4402-.7336 4.6082-.3884.0649-.7518-.1354-.885-.5191-.4966-1.5361.0209-3.1374.1504-4.6735.3024-.779.4319-1.6875 1.1011-2.2718 1.0792.4326 1.5971 1.6446 2.2226 2.5317.4537.6706.8203 1.428 1.3381 2.0336.4532-.1947.2302-.7884.2161-1.1467-.1732-1.4063-.5616-2.7045-.9288-4.0459-.0209-.3461-.2151-.9304.1511-1.1467.9726.4329 1.3819 1.4496 1.8138 2.2935zm-6.5182-.5195c0 .3248-.2589.7304-.4754.779-2.0718.3245-4.3813.1298-6.3236.7787-.0648.238.2157.2812.3668.3461 1.6615.2596 3.4103.3245 5.0293.7358.8559.2178 1.1658 1.2335 1.2306 2.0771.0397.6652-.2155 1.4712-.8635 1.9258-1.5968 1.0169-4.0357.9733-5.655.0435-.6189-.3479-1.2087-.9084-1.2519-1.6009.0038-.5499.2377-.9828.6261-1.19 1.5543-.6276 3.475-.2809 4.8135.5191.0857.4329-.3815.4094-.6051.5627-1.4895.8655-2.6116-.973-3.9929-.3031-.1942.1298-.3347.4918-.1079.6059 1.705.7574 3.6045.2163 5.2879-.2595.1942-.0649.4319-.2596.4531-.4543-.0647-.6925-.8415-.8436-1.3381-1.0382-1.4677-.3678-3.0863-.3678-4.6622-.5192-.3021-.0649-.687-.2758-.7768-.5191-.1726-.5191-.1726-1.2333.2158-1.6659 2.0071-1.7743 5.0502-1.6226 7.5971-1.1467.1729.0636.3671.1285.4322.3232zm-9.4319.8223c.1942 2.0768.3021 4.0029.2589 6.1879-.0431.2809-.3668.3461-.5826.4542-.3452.0649-.7915-.0088-.9282-.1947-.4963-.8009-.3236-1.8821-.3668-2.8558.0647-1.5358.0432-3.202.475-4.6302.0826-.2075.3237-.3893.5179-.2599.5179.2599.6042.7794.6258 1.2985zm23.98-.3028c.1039.1749.2124.4451 0 .5623-.9713.4327-2.2876.238-3.4103.3678-.3021.2595-.5397.6921-.4322 1.0818.1086.0649.2052.1636.3243.1511.6902.0436 1.7266-.3244 2.1804.3245.1107.1931-.015.9141-.3237.9304-.8422.1088-2.2269-.106-2.6338.1088-.5179.3461-.475 1.0166-.6692 1.558.3671.2379.7515-.0056 1.1868-.0652.7993-.1298 1.6843-.3677 2.4824-.1947.1511.2812.3672.5844.2158.9304-1.3607 1.0819-3.1157 2.1907-4.9855 1.4063-.7018-.3153-1.0145-1.3846-.7768-2.2928.1507-.6492.8196-1.2765.4099-1.969-.0647-.3031.1082-.5624.3672-.6273.7121 0 .5607-.8871.9279-1.2984-.41-.4543-1.4458-.4327-1.3379-1.3414.4966-.2596 1.1011-.1731 1.6615-.2596 1.2735-.2599 2.6979-.4113 3.9939-.2599.258.052.6036.5624.8193.8869zm-30.8222-4.9331c1.9918 1.632 4.5758 4.4139 4.2522 7.6159-.3887 2.5317-3.0651 4.4355-5.3314 5.0414-2.2016.649-4.9643.5841-7.2094.0649-.151.4113-.3021.9085-.7768 1.0819-.3021.1081-.6908.0432-.92816-.1514-.66892-.6276-.12947-1.8393-1.1008-2.2283-1.89952-.8006-3.95008-2.3803-4.9211-4.3274-.12947-.3893.02158-.7786.25894-1.0815 1.48952-1.19 3.36715-1.6658 5.24508-2.0339.1079.0433.06474-.1081.15105-.1514.10789-1.2981.15105-2.6182.56099-3.7866.0936-.1639.3237-.2163.4751-.1081 1.1871.9084.6258 2.6182 1.1439 3.8511 2.2664.1082 4.5327.2163 6.324 1.4932.6045.4975.7518 1.4477.5611 1.9906-.1905.542-.82.9304-1.4029.9731-.3887 0-1.1224.0379-1.0792-.2593.0431-.2975 1.3203-.7843.9281-1.1903-.5638-.5834-3.3849-.9304-5.1334-1.1467-.2158-.0433-.4138.0216-.4138.2595-.0431 1.6443-.1726 3.4616.1079 5.0415.0216.1085.1511.2383.2593.2593 3.0863.4978 6.3456.2163 8.763-1.5577 1.1223-.9082 1.4895-2.1857 1.295-3.5916-.9714-3.9161-5.0506-6.2748-8.3962-7.7892-3.2589-1.428-6.86374-2.1637-10.72719-1.9687-.61514.0451-1.58991.258-1.5971.4762-.0072.2182 1.10424.1495.97102.5624-.13291.4125-1.262487.1677-1.597107.0649-.33462-.1029-.302096-.5844-.215783-.8872.84187-1.4928 3.19108-1.6135 4.25217-1.6659 5.87059-.1517 11.54749 2.0894 15.28149 5.1493zm-10.57617 5.7986c-1.48953.0216-3.06505.173-4.44638.6922-.28052.1081-.62608.4109-.4103.779.56104.757 1.3635 1.3787 2.1153 1.8173.7518.4379 1.74847.9953 2.65507 1.1254.21578-1.4066.21578-2.7913.1942-4.2409-.08662-.0432-.00031-.1297-.10789-.173zm44.61387-1.969c-.0647 1.8822-1.8135 3.0508-1.8135 4.933.0647.0649.1085.1514.1942.1088 1.4035-1.5364 2.7845-3.7217 4.8351-4.3706.5404-.0433 1.0286.4272 1.2306.779.7124 1.4279.5404 3.4402-.4528 4.7383-1.0249 1.2743-2.8065 2.553-4.8345 2.3364-.8416 2.0772-1.4254 4.2625-1.7491 6.5343-.1726.4543-.5823.0433-.8413-.0432-1.7481-1.3847-.3127-5.0503-.1942-5.518.1186-.4665.5864-1.5668.9285-2.4882-.8202-1.4708-.3024-3.2455.3666-4.6085.5178-.9088 1.2309-1.8176 2.0724-2.5098.107.0003.1933.022.258.1085zm3.4757 2.3367c-.259-.0433-.3672.3032-.5826.368-.9926 1.1251-1.9859 2.2502-2.4825 3.5916.6696.0866 1.2303-.346 1.8135-.584.9926-.6276 1.6187-1.6655 1.554-2.8558-.0435-.1953-.2161-.3467-.3024-.5198z" fill="#b2ccef"/></svg>