<svg fill="none" height="60" viewBox="0 0 50 60" width="50" xmlns="http://www.w3.org/2000/svg"><path d="m.327637 19.9436v1.3569h9.622873v-1.3569zm10.986263 0v1.3569h13.7131s-1.4007-1.3569-3.2559-1.3569zm16.4031 0v1.3569h8.2962l-.4924-1.3569zm14.2442 0-.4925 1.3569h8.2209v-1.3569zm-41.633563 2.6387v1.3568h9.622873v-1.3568zm10.986263.0019v1.355h15.3043s-.1787-1.0443-.4905-1.355zm16.4031 0v1.355h9.2058l-.4557-1.355zm13.2593 0-.4558 1.355h9.1691v-1.355zm-37.88329 2.6368v1.3587h4.16742v-1.3587zm10.98629 0v1.3587h4.1674v-1.3587zm8.2209 0v1.3587h4.1674s.2646-.7175.2646-1.3587zm8.1823 0v1.3587h7.3885l-.4924-1.3587zm9.5862 0-.4944 1.3587h7.4252v-1.3587zm-36.97569 2.6406v1.3568h4.16742v-1.3568zm10.98629 0v1.3568h10.6445s.8904-.6961 1.1741-1.3568zm16.4032 0v1.3568h4.1674v-.7552l.2646.7552h7.6338l.2839-.7552v.7552h4.1674v-1.3568h-7.8231l-.4152 1.1493-.4172-1.1493zm-27.38949 2.6387v1.3568h4.16742v-1.3568zm10.98629 0v1.3568h11.8186c-.2837-.6584-1.1741-1.3568-1.1741-1.3568zm16.4032 0v1.3568h4.1674v-1.3568zm4.9244 0 .504 1.3568h5.7239l.4789-1.3568zm7.4252 0v1.3568h4.1674v-1.3568zm-39.73909 2.6387v1.3567h4.16742v-1.3567zm10.98629 0v1.3567h4.1674v-1.3567zm8.2209 0v1.3567h4.432c0-.6403-.2646-1.3567-.2646-1.3567zm8.1823 0v1.3567h4.1674v-1.3567zm5.8707 0 .4885 1.3567h3.8372l.4925-1.3567zm6.4789 0v1.3567h4.1674v-1.3567zm-42.42917 2.6386v1.3588h9.62287v-1.3588zm10.91097 0v1.3588h14.8138c.3118-.3111.4905-1.3588.4905-1.3588zm16.4785 0v1.3588h6.8575v-1.3588zm9.5089 0 .5021 1.3588h1.9524l.4712-1.3588zm5.5308 0v1.3588h6.9329v-1.3588zm-42.42917 2.6406v1.3569h9.62287v-1.3569zm10.91097 0v1.3549h10.4572c1.8552 0 3.2559-1.3549 3.2559-1.3549zm16.4785 0v1.3569h6.8575v-1.3569zm10.461 0 .4828 1.353.083.0019.4906-1.3549zm4.5787 0v1.3569h6.9329v-1.3569z" fill="#b2ccef"/></svg>