<svg fill="none" height="50" viewBox="0 0 282 50" width="282" xmlns="http://www.w3.org/2000/svg"><path d="m65.7 0h-58.4c-4.015 0-7.3 3.21429-7.3 7.14286v35.71424c0 3.9286 3.285 7.1429 7.3 7.1429h58.4c4.015 0 7.3-3.2143 7.3-7.2143v-35.64284c0-3.92857-3.285-7.14286-7.3-7.14286z" fill="#f01414"/><path d="m67.671 42.7857c.073 1.0714-.803 2-1.971 2.0714h-58.40004c-1.095 0-1.971-.9285-1.971-2v-35.71426c-.073-1.07143.803-2 1.898-2.07143h58.47304c1.095 0 1.971.92857 1.971 2z" fill="#fff"/><path d="m22.338 41.3571h-12.264v-32.71426h12.264c8.687 0 13.432 5.28576 13.432 16.21426 0 9.4286-3.285 16.4286-13.432 16.5zm5.329-15.8571c0-6.5714-.73-11.7143-7.957-11.7143h-1.606v22.2857h2.847c4.234 0 6.716-3.3571 6.716-10.5714zm29.273-1.2857c3.431-1 5.767-4.0715 5.84-7.6429 0-.7143-.146-7.99999-9.563-7.99999h-13.943v32.71429h11.826c3.139 0 12.921 0 12.921-9.2143 0-2.2143-1.022-6.5714-7.081-7.8571zm-9.709-10.5h2.555c3.577 0 5.037 1.2143 5.037 3.9285 0 2.1429-1.606 3.9286-4.38 3.9286h-3.139v-7.8571zm3.285 22.3571h-3.285v-8.4286h3.504c4.161 0 5.183 2.3572 5.183 4.2143 0 4.2143-4.088 4.2143-5.402 4.2143z" fill="#f01414"/><path d="m94.6509 34v-15.2681h5.9981c2.079 0 3.726.5059 4.943 1.5176 1.49 1.2373 2.235 3.2539 2.235 6.0498 0 2.8028-.759 4.8467-2.276 6.1319-1.251 1.0459-2.919 1.5688-5.004 1.5688zm3.6914-2.7275h2.0717c1.244 0 2.153-.3794 2.727-1.1382.335-.4307.567-.9741.697-1.6304.11-.581.164-1.3022.164-2.1636 0-1.8183-.29-3.0966-.871-3.8349-.554-.6973-1.46-1.0459-2.717-1.0459h-2.0717zm12.0587 2.7275v-15.2681h5.978c1.511 0 2.7.2769 3.568.8306 1.032.6563 1.549 1.6851 1.549 3.0864 0 1.0254-.298 1.8115-.892 2.3584-.356.335-.903.6358-1.641.9024.67.1299 1.193.2905 1.569.4819 1.21.6289 1.815 1.7192 1.815 3.271 0 1.7295-.722 2.9292-2.164 3.5991-1.039.4922-2.348.7383-3.927.7383zm3.691-2.666h1.949c.84 0 1.462-.1367 1.866-.4102.506-.3349.759-.9262.759-1.7739 0-.793-.226-1.3433-.677-1.6509-.383-.2597-.94-.3896-1.672-.3896h-2.225zm0-6.4805h1.979c1.238 0 1.856-.5845 1.856-1.7534 0-.5879-.136-1.0117-.41-1.2715-.301-.2871-.759-.4307-1.374-.4307h-2.051zm16.222 8.5108v-2.9019c.588.2871 1.07.4956 1.446.6255.888.3076 1.801.4614 2.738.4614 1.763 0 2.645-.5537 2.645-1.6611 0-.5674-.314-1.0391-.943-1.4151-.39-.2324-1.132-.5742-2.225-1.0253-1.19-.4854-2.044-1.0152-2.564-1.5894-.67-.7451-1.005-1.7158-1.005-2.9121 0-1.4151.486-2.543 1.456-3.3838.909-.793 2.256-1.1895 4.04-1.1895 1.244 0 2.526.2393 3.846.7178v2.8916c-1.333-.5742-2.557-.8613-3.671-.8613-1.532 0-2.297.4853-2.297 1.456 0 .4786.246.8921.738 1.2408.294.2119 1.09.5913 2.389 1.1382 1.176.4921 2.024.9843 2.543 1.4765.827.7793 1.241 1.8355 1.241 3.1685 0 1.4834-.506 2.6523-1.518 3.5068-.95.7998-2.426 1.1997-4.429 1.1997-1.566 0-3.042-.3144-4.43-.9433zm13.166 4.8808 2.369-5.2602-4.43-10.1617h3.538l2.522 6.2344 2.492-6.2344h2.973l-6.47 15.4219zm10.459-4.6655v-2.4507c1.265.5195 2.468.7793 3.609.7793.609 0 1.056-.0649 1.344-.1948.321-.1436.482-.4033.482-.7793 0-.2803-.144-.5093-.431-.687-.164-.1026-.718-.2871-1.661-.5537-1.238-.3487-2.082-.7657-2.533-1.251-.533-.5811-.8-1.3775-.8-2.3892 0-2.372 1.497-3.5581 4.491-3.5581 1.033 0 2.161.1846 3.384.5537v2.5225c-1.244-.458-2.314-.687-3.209-.687-1.149 0-1.723.2905-1.723.8716 0 .3349.185.5981.554.7895.205.1094.834.2974 1.887.564.881.2256 1.575.5366 2.081.9331.677.5263 1.015 1.3706 1.015 2.5327 0 2.4541-1.528 3.6811-4.583 3.6811-1.408 0-2.711-.2255-3.907-.6767zm17.278.2768c-.663.253-1.436.3794-2.318.3794-1.551 0-2.628-.3623-3.23-1.0869-.499-.5947-.748-1.4936-.748-2.6968v-5.291h-1.466v-2.3379h.246c.465 0 .83-.0717 1.097-.2153.369-.1914.625-.5537.769-1.0869l.338-1.2202h2.4v2.5224h2.696v2.3379h-2.696v5.0039c0 .6016.112 1.0083.338 1.2203.232.2119.608.3178 1.128.3178.362 0 .844-.0957 1.446-.2871zm11.976-4.7065h-7.054c.027.4512.071.8203.133 1.1074.144.6494.53 1.0869 1.159 1.3125.389.1367.899.2051 1.527.2051.746 0 1.487-.0991 2.226-.2974.341-.0957.799-.2461 1.374-.4511v2.5122c-1.354.5332-2.683.7998-3.989.7998-2.181 0-3.75-.5366-4.707-1.6099-.834-.9297-1.251-2.3584-1.251-4.2861 0-2.0713.557-3.6162 1.672-4.6348.977-.8818 2.266-1.3227 3.865-1.3227 3.364 0 5.045 1.9004 5.045 5.7011zm-3.404-1.8765c-.034-.7246-.126-1.2646-.277-1.6201-.232-.5674-.707-.8511-1.425-.8511-.848 0-1.415.3726-1.702 1.1177-.13.3213-.216.7725-.257 1.3535zm9.106 6.7266h-3.384v-12.9609h-1.395v-2.3687h.954c.786 0 1.401-.0444 1.846-.1333.396-.0752.724-.2119.984-.4101h.995zm21.143-14.9502v2.8916c-1.408-.5332-2.809-.7998-4.204-.7998-1.586 0-2.734.4102-3.445 1.2305-.41.4648-.691 1.0937-.841 1.8867-.11.5605-.164 1.2988-.164 2.2148 0 1.2784.123 2.2491.369 2.9121.369.9844 1.036 1.6441 1.999 1.979.52.1778 1.152.2666 1.897.2666.636 0 1.241-.0751 1.815-.2255v-2.8609h-2.471v-2.666h5.917v7.4033c-1.778.6905-3.579 1.0357-5.404 1.0357-2.905 0-5.035-.7759-6.388-2.3277-1.067-1.2304-1.6-3.0693-1.6-5.5166 0-1.6953.246-3.0659.738-4.1118.629-1.333 1.583-2.331 2.861-2.9941 1.272-.6631 2.803-.9947 4.594-.9947 1.49 0 2.933.2256 4.327.6768zm3.435 14.9502v-10.8179c1.272-.0478 2.143-.2734 2.615-.6767h.769v1.9995c1.128-1.292 2.338-1.938 3.63-1.938.806 0 1.439.2563 1.897.769.253.2871.478.7007.677 1.2408 1.353-1.3399 2.672-2.0098 3.958-2.0098 1.039 0 1.821.3828 2.348 1.1484.41.6016.615 1.4014.615 2.3994v7.8853h-3.394v-7.2495c0-.957-.386-1.4356-1.159-1.4356-.595 0-1.268.2222-2.02.6665v8.0186h-3.384v-7.2085c0-.9844-.386-1.4766-1.158-1.4766-.438 0-.855.0889-1.251.2666-.171.0752-.424.2085-.759.3999v8.0186zm19.093 0v-15.1963c1.271-.041 2.143-.2666 2.615-.6767h.769v6.2446c.492-.5059.94-.8853 1.343-1.1382.704-.4443 1.477-.6665 2.317-.6665 1.347 0 2.372.5435 3.077 1.6304.622.9638.933 2.3618.933 4.1938 0 2.208-.516 3.8247-1.549 4.8501-.745.7315-1.685 1.0972-2.82 1.0972-1.346 0-2.59-.5196-3.732-1.5586l-.431 1.2202zm3.384-2.6455c.663.458 1.346.687 2.05.687.773 0 1.333-.3008 1.682-.9023.287-.4991.431-1.3946.431-2.6866 0-1.2099-.154-2.0405-.462-2.4917-.328-.4785-.84-.7177-1.538-.7177-.465 0-.912.1025-1.343.3076-.212.0957-.485.2495-.82.4614zm10.172 2.6455v-15.2681h3.691v6.0498h5.886v-6.0498h3.691v15.2681h-3.691v-6.4292h-5.886v6.4292z" fill="#878c96"/></svg>