<svg fill="none" height="60" viewBox="0 0 75 60" width="75" xmlns="http://www.w3.org/2000/svg"><g fill="#b2ccef"><path d="m47.7251 26.8236c0 .9743.1846 1.3059.8498 1.2914v.3008s-.0386-.005-1.1178-.005c-.6416 0-2.3705.1683-2.7526.1671-2.9827-.0069-3.5351-1.7234-3.5351-3.1611 0-1.8086 1.1559-3.1675 2.8792-3.1675.9601 0 1.3005.2743 1.679.6943v-1.3993c-.053-.4345.1022-1.0726-.9122-1.0978v-.2624l2.6379-.1702h.2718zm-1.9975-3.1069c-.3386-.6464-.7189-1.0499-1.3754-1.0499-.9327 0-1.1827 1.1861-1.1827 2.6421 0 2.1484.5742 2.9133 1.4701 2.9133.9988 0 1.088-.5839 1.088-1.4913z"/><path d="m37.3117 22.2626c2.3617.0057 3.0793 1.7574 3.1335 2.7575l-4.2252-.0082c-.0561 1.2196.5842 2.576 2.055 2.5791.9732.0019 1.4875-.6602 1.7319-1.0978l.3379.1608c-.3684.8904-1.331 1.9466-3.0717 1.9384-1.5363-.0069-3.0856-1.0568-3.0812-3.1668.0031-2.1616 1.7289-3.1668 3.1198-3.163zm.0262.4849c-.8598 0-1.1104.9421-1.1166 1.654 0 0 2.1883.0019 2.1852 0 .0468-.6564-.2145-1.654-1.0686-1.654zm1.9234 11.3764c-.8598-.0012-1.1104.9415-1.1173 1.6528 0 0 2.1884.0025 2.1846 0 .0474-.6546-.2138-1.6528-1.0673-1.6528zm-.0324-.4862c2.361.0013 3.0823 1.7524 3.1378 2.7519h-4.2245c-.0537 1.2202.5885 2.576 2.0599 2.576.9726 0 1.4863-.6647 1.7295-1.1023l.3379.1602c-.366.891-1.3268 1.9497-3.0675 1.9453-1.5362-.0044-3.0873-1.0505-3.0873-3.1617 0-2.1617 1.7232-3.1706 3.1142-3.1694z"/><path d="m27.8692 34.0218c.5524-.0196 2.7857-.2296 2.7857-.2296l.0118.9257c.7394-.5177 1.5262-1.0701 2.4571-.8973 1.3766.256 1.6434 1.3936 1.6409 2.1579 0 0-.0012 2.3306 0 2.6207.0025.3525.1627.8317.7868.8324-.0012-.0007.0006.2913.0006.2913h-3.5574v-.2932c.3285.0012.8042-.1217.8067-.8746.0007-.4238-.0012-1.9952 0-2.5457.0007-.5505-.24-.9024-.6209-1.0531-.578-.2295-1.1385.1066-1.5076.4862l.0007 3.1037c0 .3532.0947.8847.7837.8841l-.0019.2945h-3.5195s.0013-.2018 0-.2945c.3947.0006.7856-.198.7875-.9074 0 0-.0013-2.9322 0-3.3062.0018-.6514-.1528-.9295-.8535-.9238-.0007.0063-.0007-.2705-.0007-.2711zm-18.53112 5.3991c-.93831.022-1.06238-1.038-1.34106-1.6856l-2.2401-6.0372-1.47199-.0038-2.49697 6.4938c-.19202.4136-.38343.8803-.811122 1.1363-.105365.1608-.55301.1166-.55301.1166l.001871.2699 2.834251.0051-.00311-.2655c-.27308.0025-.54678-.0479-.70576-.326-.18891-.7284.20948-1.4094.45139-2.0627h2.52689l.50687 1.4075c.04115.2396.12157.5303-.05923.717-.19327.2415-.47944.2188-.74005.2736l.0025.2447 4.00449.0107zm-6.09434-3.0388 1.0443-2.7721.98757 2.7721zm10.39126 3.0558s.3659.0151.4638-.0965c.2856-.1349.3648-.4244.4015-.7037l.0032-3.8826c-.1871-.5448-.5487-.5259-.8486-.5637.025-.0801.0119-.1715.0113-.2522l2.7631-.1369-.0031 1.5866c.5412-.6817 1.1222-1.9359 2.2195-1.5872l.3922.1558c-.0985.652-.2625 1.3444-.3996 2.0096-.4976-.3279-1.1142-.8134-1.7227-.396-.2101.1582-.38.3646-.4956.6022l.0025 2.4341c.0205.3317.144.6161.3822.7327.2132.1047.4619.0915.4619.0915l-.0143.2793-3.6229-.0069z"/><path d="m9.35098 39.4209c.58044-.0013.76062-.3305.76062-1.1301-.0012-.0094 0-3.1314 0-3.1314-.0019-.1325.0231-.5487-.20325-.7561-.16958-.1551-.42083-.1993-.64341-.2024v-.2737l2.77256-.1337s.0012 4.5169 0 4.5062c-.0019 1.0543.4445 1.1186.8223 1.1186v.297h-3.60296zm9.67302.0037c.3566-.0094.9009-.0889.9009-.9597 0-.2377.0019-5.0409 0-5.7648-.0013-.565-.1696-.8974-.9022-.8406v-.2939l2.8979-.2371s-.0069 5.7567 0 7.1257c.005.8235.3741.9774.8616.9755-.0025.0019 0 .2938 0 .2938h-3.7582s-.0038-.3001 0-.2989zm4.4764-.005c.5805-.0006.8149-.3266.8143-1.1212v-3.1088c-.0006-.1311.0237-.5435-.2033-.7491-.1689-.1532-.4208-.198-.6434-.2012v-.2711l2.7744-.1318s.0013 3.6202 0 4.4708c-.0025 1.0474.4452 1.1118.8224 1.1111v.2945l-3.5644.0007zm1.7177-6.2724c.5991 0 1.0842-.4761 1.0842-1.0638 0-.5871-.4851-1.0626-1.0842-1.0626-.5985 0-1.0836.4755-1.0836 1.0626 0 .587.4851 1.0638 1.0836 1.0638z"/><path d="m11.0388 33.1472c.5979 0 1.0829-.4761 1.0829-1.0638 0-.5871-.485-1.0626-1.0829-1.0626-.5985 0-1.08421.4755-1.08421 1.0626.00062.587.48571 1.0638 1.08421 1.0638zm32.3975 4.4866c.4464-.1501.2931.437.5319.6079.4931.7289 1.2488 1.3879 2.1684 1.1798.2101-.0959.4582-.2308.5623-.4578.109-.3162.029-.6676-.2057-.9037-1.0069-.7762-2.8748-.6532-3.0207-2.3306-.0449-.6388.2132-1.1861.697-1.5765.8885-.6879 2.3249-.5139 3.3156-.1759.3161.0895.3909-.3506.6945-.2592l.0686 1.8369-.2631.0164c-.2425-.6249-.8529-1.2712-1.5-1.4661-.3161-.0902-.737-.0599-1.0262.0757-.1958.1229-.3648.3228-.3635.5625-.0106.2806.1365.5183.3741.6633 1.1496.4818 3.0206.7322 3.0749 2.4221.0318.6249-.2401 1.1477-.7102 1.5374-.9277.8607-2.5094.5682-3.5786.2188-.1839-.0252-.3548.0561-.4321.2302v.0397l-.2494.0158c-.0732-.7436-.1192-1.4897-.1378-2.2367z"/><path d="m72.2148 20.1255v19.5451h-4.0033c.8455-2.2456 1.0362-5.022.4396-7.4567-.7232-3.0937-2.7252-6.0341-5.5625-7.8489-2.6797-1.726-6.0838-2.4057-9.4311-1.7064l-.77.1892v-2.7223zm-14.0073 3.0653c-1.0269-.5738-2.3798-.6564-3.5924-.4483l.4289.0491.0611-.029c.5618-.0416 1.1522-.0227 1.6759.0927-.1715.0486-.4651.1476-.6721.2346.1153.0435.2644.1198.3672.1854.3013-.1011.6077-.1862.9178-.2548.202.0631.725.3059 1.0499.5474-.3841.0403-.9084.1167-1.3299.215.0992.0896.1852.193.2581.309.5036-.0906 1.0127-.1462 1.5238-.1665.2625.2296.4757.5051.6216.7908-.5674-.0397-1.3243-.029-1.7862.0208.0461.0851.1128.2976.1415.4275.5736-.0252 1.5119.0164 1.904.0744.1291.3147.2039.6514.2332 1.0065-.6577-.1318-1.4296-.2416-2.0331-.2706.0069.1962-.0012.3841-.0187.5688.7176.0744 1.414.2056 2.0886.3828-.0081.3468-.058.7775-.1503 1.1105-.6907-.2447-1.3963-.4444-2.1123-.5978-.0718.302-.1709.5966-.2961.8803.707.2383 1.4059.5498 2.0755.8847-.1123.3274-.2523.6445-.4183.9477-.6703-.3789-1.3592-.7522-2.0425-1.0467-.2137.3906-.4534.766-.7176 1.1237.6614.4114 1.3026.855 1.9215 1.3293-.1883.2768-.4557.6104-.6197.8096-.5979-.5038-1.8274-1.4951-1.8274-1.4951-.3647.4427-.6733.7718-1.1297 1.1269.5507.5737 1.0775 1.1703 1.5792 1.7883-.2026.2163-.4275.4102-.6708.5783-.5007-.6221-.9865-1.2562-1.457-1.9019-.4919.3903-.7925.6022-1.2937.8658v.7296l.7986 1.6174c-.1778.1135-.3654.2103-.5605.2895l-.2381-.4704v.85c3.0818-1.3854 6.2159-4.4368 7.1286-7.7531.3336-1.1445.3934-2.6201-.1527-3.6876-.3205-.7019-.9695-1.3571-1.6559-1.7146zm-.4589-.4805c.1341.0435.2625.1047.3903.1614l.0723-.0126c.6484.1077 1.2742.3252 1.8511.6432-.3061.0019-.6235-.0025-.929.0221.1285.1173.2631.2522.3747.3752.4028-.0082.8057.0009 1.2077.0271.3909.2907.7899.681 1.0125 1.0821-.5438-.117-1.0944-.1989-1.6485-.2453.0736.169.1465.3437.2089.5227.6235.0927 1.2426.2075 1.8442.362.197.4156.3491.8544.4127 1.316-.6627-.2396-1.3435-.466-2.0399-.6091.018.2251.0187.4616.0205.6924.7195.2112 1.4215.4546 2.1023.7668.0053.4495-.0448.8979-.149 1.3349-.6864-.3455-1.3834-.6854-2.1091-.9351-.0922.4074-.2109.8083-.3554 1.2.697.3638 1.3897.7314 2.0487 1.1665-.1345.3827-.3079.7502-.5175 1.0966-.6478-.447-1.2955-.8828-1.9714-1.2637-.238.5061-.5283.9853-.866 1.4296.6029.4818 1.2183.9793 1.8 1.5115-.2187.3313-.4645.6432-.7351.9326-.4246-.4515-1.1303-1.0921-1.7176-1.596-.4165.5102-.9097 1.072-1.4053 1.4901.3778.4017 1.5007 1.7707 1.5007 1.7707-.2251.2264-.5038.4584-.7931.6684 0 0-1.144-1.4875-1.4283-1.8445-.6771.5436-1.2208.9245-2.0132 1.3501.3167.5423 1.0954 2.0097 1.0954 2.0097-.2001.1249-.4114.2415-.6216.3191-.3665-.6186-.8092-1.5153-1.0461-2.0274-.2276.1268-.457.2081-.457.2081v2.6744c2.3897-.7839 4.5905-2.1724 6.4559-4.1815 1.699-1.8615 3.0413-3.8724 3.4409-6.2743.318-1.9164-.3092-3.7192-1.8124-4.94-.9115-.7882-2.0425-1.0644-3.2233-1.2038zm-.7949 1.2769c-1.0468-1.072-2.6535-1.1602-4.0662-.8235v.1299c.3378-.0767.6825-.1183 1.0287-.1242-.2269.1431-.4436.3022-.6484.4761.0854.0189.1764.0472.2562.0826.2845-.207.5801-.398.8854-.572.3335.0013.7662.065 1.0492.1791-.4651.1696-1.0293.4307-1.3934.6773.0703.0405.1342.0916.1895.1513.5195-.274 1.0601-.5047 1.6167-.6899.2487.1003.5162.28.6702.4301-.6727.1608-1.318.3405-1.967.6079.0642.0738.1296.1873.1621.2573.6905-.2399 1.3959-.4335 2.1116-.5795.1316.1425.2881.3714.3704.5832-.7949.0845-1.7064.2245-2.3181.4011.0368.1053.0599.2062.0792.3033.791-.1557 1.5922-.252 2.3972-.2882.0748.2359.1141.4894.1154.7479-.8258-.0458-1.6538-.0259-2.4764.0593.0006.0977-.0125.2907-.0256.4111.8267-.0307 1.6545-.0014 2.477.0877-.0305.244-.0904.5612-.1683.8342-.8342-.1923-1.5948-.2856-2.4334-.3411-.0408.1848-.1017.3646-.1814.536.7862.1457 1.5724.3657 2.3299.64-.1048.2491-.2257.4919-.3579.7284-.568-.2718-1.5749-.6508-2.2363-.8387-.1313.2671-.2904.5193-.4745.7523.4757.2339 1.3872.7542 2.0094 1.1603-.149.203-.3155.4124-.4919.599-.5982-.4793-1.2193-.9286-1.861-1.3463-.2095.2422-.4707.5057-.7145.7157v.0757l1.5069 1.625c-.1644.151-.3367.2929-.5162.425l-.9907-1.2813v2.2632c1.5312-.91 3.0824-2.4001 3.9533-3.9822.7114-1.265 1.2482-2.9795.5612-4.4343-.1235-.2245-.2525-.4439-.4483-.6388zm4.5033.0145.4451.0543c.4464.2339.8542.5637 1.2232.9566.1353.1513.2806.302.376.4647-.3679-.1047-.7251-.232-1.1042-.3147.1285.2025.2207.4017.3155.635.4233.1211.8423.2712 1.2544.4206.2637.5051.4564 1.0512.5474 1.6251-.4732-.2397-.9476-.4736-1.4389-.6685.038.2813.0498.5714.038.8501.5362.2497 1.1378.5839 1.51.8242.0125.3985-.0243 1.1047-.1396 1.5569-.4284-.3172-1.0474-.7233-1.5468-.9837-.0686.3897-.2501.9982-.4433 1.427.5249.3575 1.0436.7252 1.5412 1.1565-.1571.4206-.3427.8298-.5555 1.2246-.4956-.43-1.0044-.844-1.5256-1.2417-.2962.6017-.6571 1.1684-1.0761 1.69.5018.4639.9906.9421 1.4657 1.434-.2356.3468-.4994.6892-.808 1.0121-.4588-.4982-.9289-1.009-1.4096-1.4844-.4982.582-1.0605 1.1905-1.6503 1.6918.4617.5037.8903 1.0375 1.2831 1.5979-.2925.2529-.5655.4932-.8592.7088l-1.2382-1.6149c-.765.6009-1.5755 1.0997-2.3909 1.5493l.6508 1.0973h2.0151c3.078-2.1283 5.8611-5.2863 6.7171-8.8119.5181-2.1585.0262-4.3649-1.4445-5.9716-.7831-.8551-1.6534-1.1426-2.2669-1.3331.1565.1047.3385.2655.515.4477zm-8.5689-.1791v.3765l.2089-.1475c.1727.0428.3709.1292.5025.2181-.2394.1419-.4863.2838-.7095.4364v.2371c.3003-.1912.6075-.3712.9208-.5398.1122.0719.2133.1785.2912.2857-.3997.1608-.9558.4357-1.2145.5751v.2415c.4426-.2163.9321-.4364 1.3972-.582.0611.1072.1197.2427.1434.3663-.4951.0965-1.0687.3078-1.5381.4919v.2226c.4944-.1741 1.1634-.3519 1.5992-.4231.0336.1431.0361.3247.0374.4559-.5492.0513-1.0948.1353-1.6341.2516v.2535c.4757-.065 1.265-.1236 1.6085-.1104-.0282.1754-.0739.3473-.1365.5133-.4905-.0432-.9829-.0613-1.4751-.0542-.0019 0-.0019.3386-.0019.3405.4345.0252.9084.1305 1.2899.2037-.0634.1592-.1409.3125-.2313.4578-.298-.1009-.7332-.2403-1.0586-.2926v.6697c.2088.0933.5094.2459.6116.3127-.0873.129-.1873.2486-.2986.357-.1378-.0946-.3136-.1987-.3136-.1987l.0006.8519c.3485-.3443.6908-.7068.9614-1.0915.6739-.9831 1.2076-2.2581.7226-3.489-.2931-.6741-1.0038-1.0985-1.6834-1.19zm11.2872 1.883c.1409.2409.2755.4881.3877.7403l.5362.2516c.3816.6274.6852 1.2908.8504 2.0097-.2955-.1886-.5973-.3847-.899-.5524.0468.3266.0586.6217.0655.966.341.2403.6951.4938 1.0237.7914.0285.5881-.0058 1.1775-.1023 1.7581-.3429-.339-.7121-.6496-1.1041-.9289-.0923.5152-.2762 1.0973-.4894 1.6188.4107.3378.7958.7062 1.1521 1.1022-.1533.4525-.3446.8909-.5717 1.3104-.3647-.3979-.7644-.8147-1.1634-1.166-.2444.4824-.74 1.2599-1.1764 1.8596.3902.4136.7671.8396 1.1303 1.2776-.265.3688-.5513.7215-.8573 1.0562-.3697-.4319-.7163-.8733-1.1022-1.2939-.5836.6867-1.073 1.2233-1.7719 1.818.4139.5051 1.0362 1.3463 1.0362 1.3463h.3535c.6576-.5978 1.2763-1.2379 1.8523-1.9164 1.4102-1.741 2.5244-3.6057 2.914-5.7705.4227-2.2714-.1677-4.4816-1.6515-6.123zm1.409 1.1357-.0056.0164c.6446.8014 1.1546 1.6609 1.4215 2.6163l-.005.0119-.4976-.3802c.063.3878.1135.7473.1266 1.154.2338.1797.4907.413.6914.6571.0337.6602.0337 1.362-.0792 2.0115-.2219-.3027-.4208-.5177-.7699-.8702-.0773.4793-.2532 1.2328-.4682 1.7385.3042.3343.6172.7574.8129 1.067-.114.3966-.336.9301-.5717 1.3772-.2811-.3651-.4788-.6634-.846-1.0991-.3713.6964-.792 1.3647-1.2588 1.9996.3192.3815.6104.78.891 1.1842-.2663.3787-.5523.7429-.8567 1.0909-.2918-.4042-.6004-.8071-.9028-1.2057-.4233.497-.8491 1.0039-1.3641 1.4605h2.3735c1.5269-1.7934 2.6354-3.7772 3.0849-6.0202.4676-2.2607.0991-4.6525-1.3398-6.3576-.1347-.1507-.2743-.3405-.4364-.4521zm2.025 3.1422c.091.4326.1315.7895.1851 1.3557.1771.1962.3891.5241.3891.5241.0269.6732-.0243 1.3473-.1528 2.0084l-.3591-.4484c-.1083.6305-.2723 1.2499-.49 1.8508l.4002.7025c-.1178.4174-.346.9963-.5654 1.4598-.1484-.2447-.2906-.5133-.4421-.7296-.3684.7146-.7865 1.4017-1.2513 2.0563l.5556.9081h.1284c1.3423-2.0173 2.2426-4.2407 2.3355-6.7694.0449-1.0593-.2831-1.98-.6771-2.8622zm1.0655 3.6265c-.043.338-.0692.6804-.1285 1.0032l-.1066-.1456c-.1084.6754-.2815 1.3385-.5168 1.98l.1652.4616c-.1353.4654-.3068.9648-.5275 1.4869-.0614-.1729-.1415-.3385-.2387-.4937-.2993.6092-.634 1.1998-1.0026 1.7688l.8885-.0006c.4851-.9531.8684-1.9557 1.1434-2.9909.2344-.9692.4458-2.0065.3292-3.0697zm.0573 2.4769c-.1876.9882-.5243 2.2115-.808 3.0849-.0343-.0685-.0663-.1381-.096-.2088-.1322.2718-.3342.7076-.3342.7076h.4564c.394-.9384.6696-2.291.7818-3.5837zm-14.1519 2.8188c-.5549.256-1.1098.4685-1.6927.6577v.1053h2.116zm4.6335.1431c-.2194.1595-.4993.4111-.8379.6224h1.2432s-.27-.4067-.4053-.6224zm13.6869-.1803c0-.4509.3554-.8104.8049-.8104.4489 0 .8043.3595.8043.8104 0 .4502-.3554.809-.8043.809-.2132.002-.4184-.0824-.5696-.2344s-.236-.359-.2353-.5746zm1.4863 0c0-.3822-.3142-.6849-.6814-.6849s-.6815.3027-.6815.6849c0 .3808.3143.6848.6815.6848s.6814-.304.6814-.6848zm-.2999.4382h-.1477l-.2625-.4092h-.1484v.4092h-.1222v-.8872h.3816c.1577 0 .3117.0441.3117.2339 0 .1747-.1209.2396-.2774.2441zm-.4102-.5341c.1085 0 .2993.0208.2993-.1204 0-.0908-.1185-.1085-.2133-.1085h-.2344v.2289zm-48.5259-10.6582c.5805-.0012.8155-.3266.8143-1.1218v-3.1075c-.0013-.1318.0237-.5442-.2033-.7498-.1689-.1532-.4208-.1974-.6428-.2011v-.2712l2.7732-.1324s.0012 3.6202 0 4.4715c-.0019 1.048.4458 1.1111.8236 1.1104v.2951h-3.565zm1.7177-6.2718c.5991 0 1.0835-.4767 1.0835-1.0644 0-.5865-.4844-1.0626-1.0835-1.0626-.5979 0-1.0836.4761-1.0836 1.0626 0 .5877.4857 1.0644 1.0836 1.0644zm-10.1194.8633c.5523-.0196 2.7856-.2296 2.7856-.2296l.0112.9264c.7401-.5184 1.5269-1.0714 2.4577-.898 1.3766.2567 1.6428 1.3936 1.6409 2.1573 0 0-.0012 2.3312 0 2.6207.0019.3525.1628.833.7868.8342-.0012-.0012.0007.2901.0007.2901h-3.5581v-.2932c.3298.0019.8049-.1223.8067-.874.0013-.4244-.0012-1.9958 0-2.5463.0013-.5505-.2388-.9024-.6203-1.0537-.5786-.2283-1.1385.1078-1.5075.4868l.0006 3.1031c0 .3544.0935.886.7837.8847l-.0013.2932h-3.52v-.2932c.3946.0013.7849-.1974.7874-.908v-3.3049c.0019-.6521-.1528-.9295-.8535-.9238zm12.4891.2346c.9427-.6432 1.9103-1.6528 2.5699-2.4581h.2108v2.0772h1.7444v.6558h-1.7538s-.0031 2.0393 0 3.298c.0019.7504.308 1.1237.8641 1.123.2745-.0057.536-.1195.7289-.3171l.3036.133c-.4607.7693-1.1621 1.1237-2.0038 1.125-1.2887.0025-1.8374-.8595-1.8349-1.8054.0013-.8053.0013-3.5584.0013-3.5584h-.8305zm-14.1289 4.1347c-.0193.688.4097 1.0108.9471 1.0096v.2945h-3.0213v-.8652c-.982.9484-1.3947 1.0632-2.2432 1.0632-1.67713 0-2.74076-1.0014-2.74076-2.5564v-4.0534c0-.6849-.17706-.8312-1.00876-1.0292v-.2749h3.93712v.2749c-.8728.198-1.00934.3841-1.00934 1.0954v4.317c0 .9484.41274 1.5153 1.33984 1.5153.682 0 .9888-.3298 1.7251-1.0676v-4.8309c0-.6981-.1771-.8312-1.0088-1.0292v-.2749h3.9372v.2718c-.7837-.0196-.8542.3859-.8542 1.1905z"/></g></svg>