<svg fill="none" height="59" viewBox="0 0 119 59" width="119" xmlns="http://www.w3.org/2000/svg"><g fill="#b2ccef"><path d="m17.3686 23.8163-6.3293 4.0046 6.3293 4.0071-6.3293 4.0047-6.32934-4.0391 6.32934-4.0144-6.32934-3.9629 6.32934-4.0071zm-6.3616 13.275 6.3294-4.0046 6.3293 4.0046-6.3293 4.0071zm6.3616-5.3075 6.3293-4.0046-6.3293-3.9629 6.2971-4.0071 6.3318 4.0071-6.3318 4.0046 6.3318 4.0071-6.3318 4.0047z"/><path d="m34.9561 23.8163h5.117c3.2675 0 5.95 1.8684 5.95 6.1459v.9022c0 4.307-2.5263 6.2417-5.8583 6.2417h-5.2087zm2.8609 2.4018v8.4444h2.1891c1.852 0 3.0965-1.2021 3.0965-3.8719v-.7006c0-2.6722-1.3115-3.8743-3.1981-3.8743zm9.7307.1352h2.2834l.3694 2.5026c.4363-1.7012 1.5494-2.6034 3.5675-2.6034h.709v2.8714h-1.1751c-2.323 0-2.8957.8014-2.8957 3.0704v4.9413h-2.8262v-10.7823zm7.4896 5.605v-.2999c0-3.6064 2.3255-5.5755 5.4889-5.5755 3.2229 0 5.4889 1.9667 5.4889 5.5755v.2999c0 3.54-2.1891 5.4428-5.4889 5.4428-3.5056-.0344-5.4889-1.9003-5.4889-5.4428zm8.0821-.0319v-.268c0-2.0035-1.0115-3.1958-2.6279-3.1958s-2.6255 1.1013-2.6255 3.1958v.268c0 1.9347 1.0115 3.036 2.6255 3.036 1.6139 0 2.6328-1.0989 2.6328-3.0336zm4.3757-5.5755h2.3577l.2678 2.0355c.5726-1.3693 1.785-2.3035 3.57-2.3035 2.7618 0 4.579 1.9667 4.579 5.6075v.3023c0 3.5376-2.0205 5.4084-4.579 5.4084-1.7181 0-2.8957-.7695-3.4709-2.0036v5.4403h-2.7518l.0322-14.4869zm7.9135 5.5755v-.2459c0-2.1363-1.1131-3.1958-2.5932-3.1958-1.5817 0-2.6254 1.2021-2.6254 3.1958v.2016c0 1.9028 1.009 3.1049 2.5907 3.1049s2.6329-1.062 2.6329-3.0582zm7.0359 3.1958-.2355 1.9667h-2.4246v-14.342h2.7717v5.5092c.6049-1.4037 1.8172-2.1707 3.5328-2.1707 2.5932.0344 4.5121 1.8019 4.5121 5.3739v.3343c0 3.572-1.8173 5.6099-4.5791 5.6099-1.8221-.0368-2.9998-.8678-3.5724-2.2715zm5.2509-3.3384v-.2655c0-1.9667-1.076-3.0729-2.5908-3.0729-1.5147 0-2.6279 1.2291-2.6279 3.1048v.2459c0 2.0035 1.0438 3.1712 2.5932 3.1712 1.6536-.0024 2.6304-1.0423 2.6304-3.1737zm4.108.1671v-.2999c0-3.6063 2.3229-5.5755 5.4888-5.5755 3.2228 0 5.4868 1.9667 5.4868 5.5755v.3073c0 3.54-2.232 5.4428-5.4868 5.4428-3.4981-.0344-5.4839-1.9003-5.4839-5.4428zm8.1143-.0319v-.268c0-2.0035-1.0091-3.1958-2.6255-3.1958s-2.6279 1.1013-2.6279 3.1958v.268c0 1.9347 1.0115 3.036 2.6279 3.036s2.6304-1.0915 2.6304-3.0262zm6.5653-.4007-3.804-5.1625h3.266l2.189 3.2376 2.231-3.2376h3.223l-3.873 5.1404 4.079 5.605h-3.199l-2.491-3.572-2.425 3.572h-3.332z"/></g></svg>