<svg fill="none" height="60" viewBox="0 0 119 60" width="119" xmlns="http://www.w3.org/2000/svg"><g fill="#b2ccef"><path d="m13.2141 33.578v-7.196h7.196v7.196zm0-14.392v3.5708h10.7849v14.4101h-14.41008v-17.9809h-3.58892v21.5698h21.5698v-21.5698z"/><path d="m39.7141 29.4634v-.1813s1.3051-.1812 1.3051-1.7219v-1.8126c0-1.9032-.9063-2.8095-2.8096-2.8095h-4.9846v14.0838h5.1659c1.9032 0 2.8095-.9063 2.8095-2.8095v-2.6283c.0544-1.9032-1.4863-2.1207-1.4863-2.1207zm-4.2596-4.5315h2.1207c.9063 0 1.2145.3082 1.2145 1.2145v1.2144c0 .9063-.3082 1.2144-1.2145 1.2144h-2.1207zm3.5708 8.8817c0 .9063-.3081 1.2144-1.2144 1.2144h-2.3564v-4.4408h2.3564c.9063 0 1.2144.3081 1.2144 1.2144z"/><path d="m45.3694 35.028h5.2927v1.9939h-7.5041v-14.0838h2.2114z"/><path d="m60.0875 34.3936c0 1.9032-.9062 2.8095-2.8095 2.8095h-2.8095c-1.9032 0-2.8095-.9063-2.8095-2.8095v-11.4555h2.2114v11.093c0 .9063.3081 1.2144 1.2144 1.2144h1.6313c.9063 0 1.2145-.3081 1.2145-1.2144v-11.093h2.2113v11.4555z"/><path d="m64.2202 28.8652h4.2052v1.9939h-4.2052v4.1689h5.6191v1.9939h-7.8485v-14.0838h7.6672v1.9938h-5.4378z"/><path d="m83.6512 28.8652h4.2595v1.9939h-4.2595v4.1689h5.6552v1.9939h-7.8847v-14.0838h7.6672v1.9938h-5.4377z"/><path d="m96.2849 22.9381h-2.5739l-3.4439 14.0838h2.3564l.725-3.2989h3.4439l.725 3.2989h2.3564zm-2.592 8.7366 1.2144-5.4377h.1813l1.2144 5.4377z"/><path d="m105.529 37.0219-2.356-8.6461h-.236v8.6461h-2.211v-14.0838h2.9l2.628 9.7336h.218l2.682-9.7336h2.846v14.0838h-2.211v-8.6461h-.182l-2.356 8.6461z"/><path d="m77.9778 29.4634v-.1813s1.305-.1812 1.305-1.7219v-1.8126c0-1.9032-.9063-2.8095-2.8095-2.8095h-4.9302v14.0838h5.1659c1.9032 0 2.8095-.9063 2.8095-2.8095v-2.6283c0-1.9032-1.5407-2.1207-1.5407-2.1207zm-4.2052-4.5315h2.1207c.9063 0 1.2144.3082 1.2144 1.2145v1.2144c0 .9063-.3081 1.2144-1.2144 1.2144h-2.1207zm3.5708 8.8817c0 .9063-.3082 1.2144-1.2145 1.2144h-2.3563v-4.4408h2.3563c.9063 0 1.2145.3081 1.2145 1.2144z"/></g></svg>