<svg fill="none" height="60" viewBox="0 0 119 60" width="119" xmlns="http://www.w3.org/2000/svg"><g fill="#b2ccef"><path d="m35.2809 22.8139h5.0556c3.3162 0 4.7536 1.9348 4.7536 4.5555 0 2.9965-2.0017 4.4339-5.0077 4.4339h-2.1316v4.6771h-2.6685zm4.4626 6.5941c1.6998 0 2.5456-.8362 2.5456-2.0946 0-1.2585-.8554-2.0947-2.4336-2.0947h-1.9061v4.1893z"/><path d="m46.4306 22.3165h2.5168v14.1639h-2.5168z"/><path d="m60.3281 27.0865v9.3938h-2.3912v-1.1368h-.0465c-.6476.8362-1.5973 1.2967-2.8092 1.2967-2.5962 0-4.4982-1.9252-4.4982-4.8274 0-2.8557 1.9061-4.8848 4.423-4.8848 1.1095 0 2.0769.4099 2.771 1.2202h.0383v-1.0604zm-2.409 4.7345c0-1.503-1.0056-2.6289-2.3679-2.6289s-2.4144 1.0234-2.4144 2.6289c0 1.5221.9961 2.5647 2.4048 2.5647 1.3063 0 2.3775-1.0234 2.3775-2.5647z"/><path d="m67.9251 26.928c2.01 0 3.4091 1.0931 3.4091 3.983v5.5789h-2.5168v-4.9504c0-1.794-.6381-2.3474-1.8037-2.3474-1.2775 0-2.1315.8922-2.1315 2.5633v4.7249h-2.5182v-9.3925h2.5182v1.2107h.0273c.3726-.434.8356-.7812 1.3565-1.0172s1.0872-.3552 1.6591-.3492z"/><path d="m79.967 36.6116c-3.9365 0-6.9685-2.5634-6.9685-6.9412 0-3.9926 2.5961-7.0164 6.8565-7.0164 1.9348 0 4.0199.7515 5.43 2.3392l-1.9129 1.6247c-.464-.4568-1.0137-.8172-1.6176-1.0606-.6038-.2434-1.2498-.365-1.9009-.3577-2.2449 0-4.039 1.6806-4.039 4.4708 0 2.5086 1.5877 4.4708 4.1524 4.4708.979.0127 1.9408-.2577 2.7697-.7789v-2.0099h-3.0703v-2.3229h5.6828v5.8905c-1.2407 1.0056-3.2793 1.6902-5.3822 1.6902z"/><path d="m92.9312 26.928c.0658-.002.1316.0012.1968.0096v2.7615c-.2541-.0192-.5261-.0287-.6668-.0287-1.5495 0-2.3952 1.0521-2.3952 2.4513v4.3587h-2.5169v-9.3925h2.5169v1.3801h.0273c.7146-.9948 1.7284-1.54 2.8379-1.54z"/><path d="m93.9301 24.2226c-.0033-.309.0854-.6121.2547-.8706s.4117-.4609.6963-.5814c.2845-.1205.5985-.1538.902-.0955s.5828.2055.8025.4229c.2197.2173.3698.4951.4313.798.0615.3028.0316.6171-.0859.903-.1175.2858-.3173.5303-.574.7023-.2568.1721-.5588.2639-.8679.2639-.2036.0011-.4055-.0379-.5941-.1149-.1886-.0769-.3601-.1902-.5049-.3335-.1448-.1432-.2599-.3136-.3388-.5013-.079-.1878-.1201-.3892-.1212-.5929zm.3006 2.8694h2.5169v9.3925h-2.5169z"/><path d="m108.151 22.3151v14.1653h-2.391v-1.1368h-.056c-.658.8362-1.626 1.2967-2.869 1.2967-2.596 0-4.4997-1.9253-4.4997-4.8275 0-2.8557 1.9127-4.8848 4.4247-4.8848 1.146 0 2.131.4099 2.836 1.2202h.047v-5.8317zm-4.865 12.0706c1.38 0 2.48-1.0234 2.48-2.5647 0-1.503-1.033-2.6289-2.471-2.6289-1.352 0-2.414 1.0234-2.414 2.6289 0 1.5222.996 2.5647 2.405 2.5647z"/><path d="m25.2121 34.7464c0 .1538.0455.3041.131.432.0854.1278.2068.2275.3489.2863.1421.0589.2984.0743.4492.0443s.2893-.1041.3981-.2128c.1087-.1087.1828-.2473.2128-.3981s.0146-.3071-.0443-.4492c-.0588-.1421-.1585-.2635-.2863-.3489-.1279-.0854-.2782-.131-.432-.131-.2061.0003-.4036.0824-.5493.2281-.1458.1457-.2278.3432-.2281.5493z"/><path d="m20.8971 24.3729c-1.044-.0011-2.0649.3075-2.9334.8867-.8685.5793-1.5458 1.4031-1.9459 2.3673-.4002.9643-.5054 2.0255-.3023 3.0496.2031 1.024.7053 1.9648 1.4433 2.7032.7379.7385 1.6783 1.2416 2.7021 1.4455 1.0239.2039 2.0852.0995 3.0498-.3.9645-.3994 1.7889-1.076 2.3688-1.9441s.8893-1.8887.889-2.9326c-.0014-1.3981-.5571-2.7385-1.5453-3.7274s-2.3281-1.5457-3.7261-1.5482z"/><path d="m29.0216 21.5295c-1.2216-1.2216-2.5142-1.2298-4.5405-1.2298h-7.1681c-2.0304 0-3.3189.0082-4.535 1.2298-1.2161 1.2215-1.2297 2.51-1.2297 4.535v7.168c0 2.0318.0082 3.3203 1.2297 4.5378 1.2216 1.2174 2.5142 1.2297 4.5391 1.2297h7.164c2.0318 0 3.3203-.0082 4.5377-1.2297 1.2175-1.2216 1.2298-2.5142 1.2298-4.5405v-7.1653c-.0014-2.0305-.0096-3.319-1.227-4.535zm-1.2926 13.1473c-.0011.4784-.1916.9368-.5299 1.2751s-.7968.5288-1.2751.5299h-5.4164c-1.3028-.0805-2.5553-.5325-3.6093-1.3025-1.054-.7701-1.8653-1.8259-2.3379-3.0427-.4727-1.2167-.5869-2.5434-.3291-3.823s.8768-2.4586 1.7837-3.3974 2.0638-1.5982 3.3337-1.9c1.2699-.3019 2.5997-.2337 3.8321.1966 1.2323.4303 2.3156 1.2046 3.1217 2.2314.806 1.0267 1.301 2.2628 1.4265 3.5621z"/></g></svg>