<svg fill="none" height="32" viewBox="0 0 147 32" width="147" xmlns="http://www.w3.org/2000/svg"><path clip-rule="evenodd" d="m20.8821 23.0083c0 5.2772-3.9731 8.9917-10.5832 8.9917-4.54195 0-7.98852-1.6462-10.2989-4.0106l2.87918-3.2924c1.98656 1.8998 4.33918 2.9977 7.21692 2.9977 3.0003 0 5.1896-1.5201 5.1896-4.3477 0-2.407-1.2164-3.546-5.47397-4.94-6.00051-1.8998-8.47421-4.3493-8.47421-8.78208 0-4.93999 4.13644-8.06377 9.61038-8.06377 4.0956 0 6.8523 1.26652 9.2444 3.58846l-2.7173 3.2088c-1.9063-1.77371-3.8929-2.53303-6.1638-2.53303-2.59482 0-4.41947 1.18149-4.41947 3.46239 0 2.11083 1.01369 3.04023 5.67667 4.55883 4.908 1.6477 8.3137 3.716 8.3137 9.1617zm14.044 4.6014c1.46 0 2.7172-.4647 4.3391-1.7312l2.3921 3.546c-2.0274 1.6886-4.2984 2.5755-6.8523 2.5755-6.6904 0-10.2581-4.6864-10.2581-11.6947 0-6.8398 3.6493-11.90585 10.1778-11.90585 2.6356 0 4.9066.80183 6.934 2.61805l-2.3512 3.2923c-1.5811-1.2665-2.8792-1.6461-4.3392-1.6461-3.0819 0-4.9066 2.2794-4.9066 7.6416-.0014 5.4046 1.8641 7.3044 4.8644 7.3044zm28.268-11.6097v9.5839c0 1.6887.4463 2.3219 1.5008 2.7441l-1.1347 3.5884c-2.271-.211-3.8113-1.0554-4.6222-2.9977-1.5403 2.1109-3.9337 3.0813-6.5285 3.0813-4.3786 0-7.055-2.8291-7.055-7.0083 0-4.7289 3.6084-7.388 10.1777-7.388h2.6357v-1.2665c0-2.8292-1.2573-3.7996-4.2576-3.7996-1.3783 0-3.4057.3372-5.595 1.1405l-1.2573-3.71456c2.7173-1.05543 5.4332-1.56262 7.6225-1.56262 6.0399 0 8.5136 2.70158 8.5136 7.59908zm-9.1641 12.0744c1.7036 0 3.1227-1.0129 4.1364-2.7441v-4.4753h-1.8246c-4.014 0-5.4331 1.3925-5.4331 3.842-.0015 2.1959.9728 3.3774 3.1213 3.3774zm27.6936 3.2923v-15.7889c0-2.2369-.8109-3.1237-2.6356-3.1237-1.7838 0-3.2438 1.435-4.4194 3.1237v15.7889h-5.1896v-22.33253h4.5011l.3646 2.78663c1.8247-2.23693 4.2167-3.41988 6.7313-3.41988 3.9731 0 5.8386 2.44798 5.8386 6.62868v16.3386h-5.191zm13.4329-2.9962-.1619 2.9977h-2.0274v-31.072094l2.3118-.296106v12.7077c1.5811-2.4481 3.6901-3.88461 6.488-3.88461 5.23 0 7.622 4.34781 7.622 11.39861 0 6.9658-3.041 11.6097-8.191 11.6097-2.5541 0-4.4604-1.0554-6.0415-3.4609zm6.1635-17.4791c-2.6761 0-4.6627 2.0259-6.041 4.4753v10.5543c1.2981 2.1959 3.203 3.7996 5.556 3.7996 3.892 0 6.082-3.1238 6.082-9.4989-.002-6.2475-1.826-9.3303-5.597-9.3303zm11.932 9.4578c0-7.0918 3.447-11.52465 9.042-11.52465 5.556 0 8.88 4.34775 8.88 11.44115 0 7.0508-3.406 11.5672-9.003 11.5672-5.596 0-8.919-4.3918-8.919-11.4837zm9.042-9.4988c-4.096 0-6.569 3.1663-6.569 9.4988 0 6.2065 2.392 9.4564 6.446 9.4564 4.096 0 6.529-3.2088 6.529-9.5414.001-6.2065-2.391-9.4138-6.406-9.4138zm11.122.2946v-1.85723h3.934v-5.27714l2.312-.29611v5.57325h5.556l-.244 1.85723h-5.312v14.6074c0 2.7442.973 4.0107 3.203 4.0107 1.095 0 2.148-.3797 3.203-1.0129l.932 1.6886c-1.257.8869-2.798 1.3926-4.46 1.3926-3.447 0-5.19-2.1959-5.19-5.9104v-14.776z" fill="#d83b4b" fill-rule="evenodd"/></svg>