<svg fill="none" height="60" viewBox="0 0 80 60" width="80" xmlns="http://www.w3.org/2000/svg"><path d="m9.0117 24.3054v2.3283c-1.09304-.3873-2.28994-.6134-3.2442-.6134-1.1779 0-1.83337.3636-1.83337 1.0169 0 .4168.28685.6931 1.10983 1.0679l2.21349 1.0061c1.7706.806 2.66298 1.9818 2.66298 3.5095 0 2.3579-2.01459 3.8454-5.20796 3.8454-1.16464 0-2.51182-.1688-3.939002-.4957v-2.4067c1.414802.39 2.710722.5982 3.718892.5982 1.32022 0 2.02741-.3725 2.02741-1.067 0-.4173-.27625-.724-.90873-1.0101l-2.42254-1.093c-1.79581-.8114-2.624535-1.9043-2.624535-3.4626 0-2.2329 1.941655-3.6568 4.987845-3.6568 1.06652 0 2.37923.1643 3.45989.433zm2.6325-.189h3.5797v12.1057h-3.5797zm15.2186 0v2.2178h-5.4042v2.7304h4.7208v2.006h-4.7208v2.8307h5.474v2.3208h-8.9525v-12.1057zm16.9113 0v12.1057h-3.4634v-7.9679l-3.3927 8.0624h-2.1896l-3.3697-8.0624v7.9679h-2.3916v-12.1057h4.3712l3.0904 7.3634 3.0745-7.3634zm11.6482 0v2.2178h-5.4121v2.7304h4.7195v2.006h-4.7195v2.8307h5.4731v2.3208h-8.9604v-12.1057zm12.6086 0v12.1057h-3.8201l-4.3014-7.7642v7.7642h-2.3921v-12.1057h3.9209l4.2091 7.6616v-7.6616zm10.3885.189v2.3283c-1.085-.3846-2.2895-.6134-3.226-.6134-1.1965 0-1.8515.3577-1.8515 1.0133 0 .4271.2674.6824 1.1186 1.0719l2.2038 1.0061c1.7834.8145 2.6647 1.98 2.6647 3.5257 0 2.3454-2.0163 3.8297-5.2026 3.8297-1.1664 0-2.5189-.1697-3.9443-.4957v-2.4067c1.413.3891 2.7063.5982 3.7078.5982 1.3114 0 2.038-.3725 2.038-1.0451 0-.445-.2545-.732-.9175-1.032l-2.4128-1.093c-1.8069-.8176-2.6259-1.8981-2.6259-3.4621 0-2.2317 1.9425-3.6564 4.9817-3.6564 1.0696-.0014 2.3876.1625 3.466.4312z" fill="#b2ccef"/></svg>