<svg fill="none" height="60" viewBox="0 0 119 60" width="119" xmlns="http://www.w3.org/2000/svg"><g fill="#b2ccef"><path d="m91.6223 28.5625c-2.1866-1.6275-5.6178.89-7.3731 2.1375-.8057.575-5.6847 4.9825-6.3689 3.9575-.3174-.47.2479-1.46.4363-1.89.2902-.6071.5387-1.2336.7438-1.875.2479-1-.3124-2.335-1.4875-2.18-1.2198.16-2.4916 1.4575-3.4709 2.155-.9792.6975-2.2957 1.8775-3.5303 2.0525.4958-.9275 1.0388-2.165.5826-3.21-.4264-.98-1.5569-1.45-2.499-1.75-2.2313-.735-4.6187-.79-6.907-1.21-.771-.14-2.618-.3225-2.6477-1.4-.0248-.9325 1.195-1.805 1.8495-2.27 1.8211-1.2677 3.8291-2.238 5.9499-2.875 2.0379-.6275 4.1378-1 6.2575-.615.7437.14 2.5485.37 2.7989 1.305.2083.7825-1.0834.9475-.8503 1.6925.233.745 1.4875.4775 1.8916.065.5454-.5425.4958-1.4425.3793-2.1425-.2479-1.59-1.3437-2.65-2.8238-3.1475-3.6667-1.25-8.1118.25-11.357 2.0575-2.0205 1.1275-8.868 5.615-4.5047 7.795 1.9363.9675 4.1725 1.2225 6.2376 1.7875 1.5346.42 4.2964 1.2175 3.099 3.34-.9496 1.685-3.1188 2.7025-4.7625 3.53-.9917.5-2.0106.945-3.0295 1.3875-.0695-.2275-.0001-.4675-.0472-.695h-4.9037v.9725h2.2808c.3297 0 1.6263-.2125 1.9065.05-.5702.25-1.1404.5-1.7032.765-.4959.2275-2.0528.85-1.128 1.58.6024.475 2.137.06 2.7841-.0925 2.0329-.4725 3.9666-1.3825 5.8533-2.27l.2801-.135-.1264.0675c.471.23 1.5569.035 2.0701.035 0-.25.1091-.855-.1314-1 3.1524-1.6497 6.178-3.535 9.0514-5.64.0719 1.215-.2652 2.4125-.5528 3.58-.1984.7975-.1884 1.615.3793 2.2725.714.825 1.5495.47 2.3354-.045l.0471-.03c-.4217.3338-.9241.5478-1.4553.62 0 .08-.0372.165.0273.2325h4.8988v-.975c-.3967 0-2.975.25-3.1659-.08.8023-.5993 1.6457-1.1407 2.5238-1.62-.0298.68.3942 1.5175 1.128 1.59.8082.0775 1.7354-.6075 2.3899-1 .8801-.5425 1.7354-1.1425 2.561-1.75.6322-.4675 1.4305-1.36 2.1742-1.6-.0917 1.185-.6768 2.42-1.2594 3.4325-.3595.625-.4785.9625-1.2123.86-.6421-.09-1.2718-.1375-1.8618.195-2.2676 1.3966-4.1327 3.3678-5.4096 5.7175-.5652 1.0625-1.071 2.515-.1686 3.56s2.1743.12 3.0172-.4825c2.1766-1.5678 4.0131-3.5669 5.3971-5.875.1736-.29.4959-1.25.7735-1.4125.3645-.215 1.1057.23 1.4875.25.4958.0275.771-.1225.4958-.6525-.2751-.53-.942-.71-1.4379-.8875.8801-1.37 1.4875-2.975 2.0701-4.5.4612-1.18 1.2867-2.7975.0174-3.735zm-4.9583 4.75c-.3719.265-3.3519 2.25-3.5998 1.58s2.3428-2.455 2.8089-2.795c1.0165-.75 2.4395-1.85 3.7559-1.825-.4388 1.2725-1.9114 2.295-2.9601 3.04zm-2.5387 8.46c-.4785.5-2.7916 3.2025-3.3444 2-.6446-1.4 1.4206-3.2175 2.3131-3.9625 1.0809-.9025 2.6229-2.075 4.0856-2.135-.6718 1.5175-1.9213 2.8975-3.0493 4.0975z"/><path d="m17.2698 23.23c-1.5049-.635-3.1089-.765-4.7104-.7875-.8132 0-1.6289 0-2.442 0-.45371 0-1.94865-.25-2.2883.0425v14.935c3.208 0 6.8028.48 9.7729-1 2.5585-1.2775 4.0038-3.86 3.9121-6.7275-.1066-2.93-1.5346-5.3225-4.2443-6.4625zm.828 6.87c-.0694 3.75-3.9865 4.6225-7.0185 4.2275v-8.7925c.2479-.185 1.0214-.0475 1.3586-.05.4883-.0088.9767.0113 1.4627.06.8348.0853 1.6416.3513 2.3651.78 1.3363.8175 1.8643 2.2475 1.8321 3.775z"/><path d="m27.8504 26.8725c-2.7816.06-5.2533 1.7775-5.6178 4.69-.167 1.2845.133 2.5865.8444 3.6652.7115 1.0787 1.7863 1.861 3.0256 2.2023 2.2312.655 4.998 0 6.426-1.9475.523-.7425.8573-1.6031.9736-2.5062s.0109-1.8213-.3067-2.6738c-.833-2.2475-3.0494-3.4-5.3451-3.43zm-.0446 7.985c-3.2229-.025-3.2229-5.185.0471-5.18 3.3345.0025 3.2923 5.2075-.0471 5.18z"/><path d="m51.2916 32.3825c-.0447 1.25-.3967 2.45-1.8421 2.4875-1.5296.0425-1.6511-1.525-1.656-2.7 0-.8475 0-1.6925 0-2.54v-1.45c0-.25.1165-.8225-.0447-1.0525h-3.1237c-.119 1.65-.0199 3.35-.0124 5 0 1.3875-.062 3 .7437 4.2125.7438 1.085 2.1222 1.4 3.3593 1.3.5535-.0389 1.0897-.2103 1.5644-.5.2677-.165.9792-1.0875 1.1329-1.0725v1.305h3.0172v-10.25h-3.1486c.0149 1.7575.0719 3.515.01 5.26z"/><path d="m107.77 34.68c.364-.355 1.916-2.39.483-2.485-.399-.0275-1.197 1.0475-1.46 1.31-.465.4878-.962.9438-1.488 1.365-.381.2925-1.257 1.0325-1.661.39-.248-.38.117-1.345.194-1.72.21-1.07.53-2.8-.325-3.69-1.594-1.66-5.008 1.4475-6.2526 2.3775.3818-1 .4413-1.8975-.6173-2.485-.9792-.545-2.1841.355-2.9452.9525-.4531.3413-.8511.7512-1.1801 1.215-.1661.25-.7239 1.145-.5529 1.4425.3174.55 2.0677-1.1475 2.7841-.985-.533.6975-2.8138 3.0225-2.1246 4.15-.2727.0625-.5578-.0225-.8256.045v.95h4.9137v-.975c-.6619 0-1.5668.145-2.2163-.0325.2479-.19.4958-.3975.6768-.55.771-.63 1.5147-1.3075 2.2585-1.955.6173-.5325 3.3025-3.1475 4.1775-2.1775.414.4575.144 1.7325.134 2.27-.018.8225-.035 1.6975.406 2.4275.018.0225.035.0425.05.065l-.05-.065h-3.049v1h4.924v-.395c1.418-.3275 3.029-1.7425 3.746-2.445z"/><path d="m37.6091 32.715c-.3396-2.3875 2.2313-4.0325 4.0411-2.2675l2.075-2.1975c-1.5792-1.6-4.2741-1.7275-6.2425-.8475-.9331.4415-1.7191 1.1465-2.2626 2.0296s-.8213 1.9063-.7995 2.9454.3422 2.0495.9222 2.9086c.5801.8592 1.3949 1.5301 2.3457 1.9314 1.9188.8075 4.522.5875 6.0367-.9375l-2.0775-2.2c-1.485 1.3425-3.7361.74-4.0386-1.365z"/><path d="m106.404 36.57v.9425h4.911v-.9425z"/><path d="m69.8755 37.5125h4.9162v-.9425h-4.9162z"/><path d="m81.9196 23.6225c.0015-.149-.0262-.2969-.0814-.4352s-.1369-.2642-.2403-.3707c-.1035-.1064-.2268-.1912-.3628-.2496s-.282-.0893-.4298-.0907c-.1479-.0015-.2945.0264-.4316.082-.1371.0557-.262.1381-.3676.2424-.1055.1044-.1897.2287-.2476.3658-.0579.1372-.0885.2845-.0899.4335-.0174 1.5625 2.2486 1.5975 2.251.0225z"/><path d="m107.469 41.605c-.012 2.4275 3.704 2.4325 3.719.015s-3.706-2.42-3.719-.015zm1.852 1.5275c-1.926.02-1.958-3-.027-3.0275s1.981 3.01.037 3.0275z"/><path d="m84.4921 37.0825.8875-.535h-.8875c-.0285.1772-.0285.3578 0 .535z"/><path d="m110.095 40.835c-.28-.4425-1.036-.315-1.488-.2925v2.13c.138.0196.277.0129.412-.02v-.8275c.555-.205.476 1.055 1.185.8225l-.496-.8275c.201-.3375.741-.4225.387-.985zm-1.064.635v-.5775c.216 0 .744-.105.744.265s-.53.2775-.744.3125z"/></g></svg>