<svg fill="none" height="60" viewBox="0 0 85 60" width="85" xmlns="http://www.w3.org/2000/svg"><path d="m15.1949 30.1798c0 3.9538-3.161 7.1238-7.0819 7.1238-3.90371 0-7.06466-3.17-7.06466-7.1065 0-4.0236 3.16095-7.1762 7.1855-7.1762 3.81746 0 6.96106 3.2398 6.96106 7.1588zm-13.42103 0c0 3.5359 2.8328 6.3749 6.33922 6.3749 3.48911 0 6.33911-2.8217 6.33911-6.3576 0-3.6055-2.7981-6.4272-6.39091-6.4272-3.43729 0-6.28742 2.8913-6.28742 6.4098zm4.78465-.2962-.08637.1741c-.31091-.0697-.91531-.2962-1.53733-.5748l-.08637.1568.25911.1394c.89817.4701 1.20909.5747 1.71007.5747 1.05359 0 1.84816-.5921 2.22821-1.6547.63906-.1394 1.46806-.1915 2.46996-.1915.8463 0 1.5718.0347 2.5218.1567l-.2418.2962c-.4318-.0523-1.2436-.1045-1.8137-.1045-.7081 0-1.1227 0-1.3646.0174l-.1036.2613c.5701-.0348.7773-.0348 1.2265-.0348.7772 0 1.3818.0348 1.8827.0697l-.2418.3309c-.8982-.0348-1.2955-.0522-1.9691-.0522-.3628 0-.6391.0174-1.0709.0347l-.1207.2612c.3798-.0347.9153-.052 1.4508-.052.5356 0 1.1572.0173 1.5198.0347l-.2417.3135c-.2591-.0175-.7427-.0175-1.1228-.0175-.6045 0-1.3817.0348-1.7618.0871l-.12089.2264c.72539-.0696 1.17449-.1043 1.96919-.1043.3108 0 .5009 0 .8637.0347l-.2764.3309c-.4837-.0347-.6391-.0347-.8292-.0347-1.33 0-2.21094.1915-3.09188.6967.8119.8187 2.14178 1.3761 3.35088 1.3761.1036 0 .1555 0 .4147-.0175l-.5701.5922c-3.19539-.8535-3.76541-1.0799-6.70181-2.8391-1.15729-.6618-2.10717-1.1149-2.86727-1.3412l.10361-.3658c.17274.0348.57002.1395.93284.2787l.17264-.4006zm70.30058 3.1875c0-1.0277.6563-1.7592 1.9517-2.1251.2074-.0522.8637-.209 1.9864-.4006.4664-.1045.6563-.2438.6563-.5921 0-.3833-.3973-.6272-.9844-.6272-.7082 0-1.1574.3484-1.1574.9407h-2.021c0-1.5502 1.2092-2.4734 3.2301-2.4734 2.1072 0 3.1263.8883 3.1263 2.6824v3.5009c0 .5922 0 .5922.2074.9581h-2.0728l-.121-.5749c-.8118.662-1.3126.8535-2.1935.8535-1.52 0-2.6082-.9057-2.6082-2.1423zm4.0589-1.2367c-.2417.0347-.5182.1044-.8119.174-.7253.1916-1.0709.4878-1.0709.9231 0 .4529.3283.6968.8983.6968 1.0883 0 1.5891-.4877 1.5891-1.4979v-.4703c-.2764.0874-.38.0874-.6046.1743zm-11.1236.8186h2.1764v.0871c0 .5748.4664.9232 1.2091.9232.639 0 1.0364-.2439 1.0364-.6272 0-.4005-.3628-.6443-1.2264-.7837l-.7081-.1218c-1.6064-.2789-2.2974-.871-2.2974-1.9509 0-1.498 1.2265-2.3863 3.2474-2.3863 1.4164 0 2.2973.3832 2.7464 1.2192.19.331.2245.4529.2763 1.2019h-2.0728c-.0516-.6445-.3281-.8884-1.0017-.8884-.5528 0-.8982.2092-.8982.5749 0 .331.3281.5225 1.0709.6444l.76.1394c1.6064.2787 2.3491.9754 2.3491 2.1598 0 1.4457-1.2091 2.3688-3.1437 2.3688-2.2802 0-3.5237-.9057-3.5237-2.5604zm-14.5783.4181c0-1.0277.6736-1.7592 1.9691-2.1251.2074-.0522.8637-.1915 1.9691-.4006.4837-.1045.6737-.2438.6737-.5921 0-.3833-.3973-.6272-1.0018-.6272-.7082 0-1.1401.3309-1.1574.9407h-2.021c0-1.5502 1.2091-2.4734 3.2128-2.4734 2.1072 0 3.1609.8883 3.1609 2.6824v3.5009c0 .5922 0 .5922.1727.9581h-2.0554l-.1209-.5749c-.7082.6272-1.3126.8535-2.1937.8535-1.5027 0-2.6081-.9057-2.6081-2.1423zm4.0763-1.2367c-.2763.0522-.518.1218-.8118.174-.7254.1916-1.0709.4878-1.0709.9231 0 .4529.3455.6968.8982.6968 1.0537 0 1.5719-.4877 1.5719-1.4979v-.4703c-.2937.0874-.3801.0874-.5874.1743zm-27.5501 2.1946c-.2937-.5052-.3454-.7663-.3454-1.8985v-4.041h2.2282v3.954c0 1.0102.2763 1.4108.9844 1.4108.7255 0 1.1056-.4703 1.1056-1.4108v-3.954h2.2109v6.8454h-2.0209l-.0691-.6794c-.5527.5922-1.1746.8535-1.9519.8535-.95 0-1.7445-.3832-2.1418-1.08zm35.3402.9059v-3.8843c0-1.0102-.2937-1.4283-.9844-1.4283-.7255 0-1.0884.4703-1.0884 1.4283v3.8843h-2.2109v-6.8454h2.0209l.0692.7665c.5181-.6793 1.1399-.9754 1.9691-.9754.95 0 1.71.418 2.1073 1.1321.2937.5225.3282.8186.3282 1.9508v3.9713h-2.211zm-14.5783 0v-3.8843c0-.9927-.3109-1.4283-.9844-1.4283-.7255 0-1.0883.4703-1.0883 1.4283v3.8843h-2.2282v-9.5276h2.2282v3.4487c.3973-.6793.9845-.9754 1.8309-.9754.9327 0 1.6928.4006 2.1073 1.1321.2937.5225.3282.8013.3282 1.9508v3.9713h-2.1937zm-6.4427 0c-1.3128 0-1.9173-.6272-1.9173-2.0032v-3.3442h-.9328v-1.498h.9329v-2.1598h2.2109v2.1598h1.2609v1.498h-1.2609v2.7172c.0172 1.0104.0863 1.0625.9326 1.0625h.4319v1.5677zm-6.7192 0v-5.3474h-.9673v-1.498h.9673v-.2089c0-1.8115.6736-2.4734 2.4008-2.4734h1.2092v1.5154h-.3628c-.8291 0-1.0364.1916-1.0364.9581v.2089h1.3127v1.4981h-1.3126v5.3474h-2.2109zm-14.7164.0002v-9.528h2.3492v7.6465h3.9899v1.8812h-6.339z" fill="#b2ccef"/></svg>