<svg fill="none" height="60" viewBox="0 0 57 60" width="57" xmlns="http://www.w3.org/2000/svg"><g fill="#b2ccef"><path d="m36.65 45.0501h2.0904v.4876h-2.0904zm-34.77087-2.9571-.18685 4.8938v.0849c0 .4143.1211.4998.77667.5466v.2267c-.47717-.037-.66499-.0465-.92654-.0465-.26227 0-.44937.0095-.935965.0465v-.2267c.654835-.0468.748865-.1225.767485-.6315l.19652-4.6293v-.0558c0-.4345-.13126-.5285-.776425-.566v-.2362c.364285.0285.504725.038.766995.038.2971.0027.59409-.0129.88931-.0466l1.73995 4.7701 1.76822-4.7701c.42182.0371.6181.0466.89898.0466.23303 0 .38338-.0095.73872-.038v.2362c-.63598.0375-.77715.1315-.77715.5558v.066l.10322 4.6293c.01015.509.09379.584.76772.6315v.2267c-.58933-.0565-.81438-.076-1.16971-.076-.35607 0-.58063.0185-1.16996.076v-.2267c.63598-.0373.77643-.1415.77643-.5838v-.0465l-.0834-4.8843-1.54463 4.2045-.11192.3115-.13102.3483-.12231.3595-.10273.3107h-.14045l-.10249-.3015-.1315-.3687-.13077-.3673-.1124-.3297zm7.02626 3.0453c.09379-1.0841.44888-1.6396 1.04788-1.6396.60843 0 .91713.5278.97293 1.6396zm1.21681 2.47c-.85156 0-1.22648-.66-1.23494-2.1308h2.78854c-.0191-1.4518-.6087-2.225-1.7131-2.225-1.1221 0-1.82431.9147-1.82431 2.3668 0 1.4517.70246 2.3 1.90891 2.3.9171 0 1.5164-.5755 1.6372-1.5463h-.3747c-.1121.8013-.5238 1.2353-1.1876 1.2353zm2.1103-4.007v-.1693c.533-.047.8516-.1035 1.235-.217.0469.3492.0655.4995.0841.7827v.104c.2064-.5375.6079-.849 1.095-.849.4675 0 .8142.3115.8142.7645 0 .2735-.1591.4523-.3931.4523-.2151 0-.3834-.1323-.3834-.3203 0-.0187.0097-.0557.0182-.095l.0186-.0937v-.0857c0-.132-.1124-.2261-.2809-.2261-.4859 0-.7946.5938-.7946 1.5273v1.97c0 .4063.0931.4815.6643.5095v.1888c-.5154-.0465-.7116-.057-1.0392-.057-.3367 0-.533.0105-1.0474.057v-.1888c.5703-.028.6732-.1032.6732-.5095v-3.0818c-.0089-.4057-.0563-.4522-.5422-.4622zm6.808-.4328v1.556h-.2065c-.1684-.821-.5143-1.2168-1.0848-1.2168-.7025 0-1.1137.7643-1.1137 2.1123 0 1.3195.3648 1.989 1.0852 1.989.5801 0 .9263-.4145 1.0387-1.2438h.3833c-.1218 1.009-.655 1.5555-1.4967 1.5555-1.0856 0-1.8243-.9242-1.8243-2.3 0-1.4055.7481-2.3667 1.8523-2.3667.4025 0 .6551.104.9551.3962l.2518-.481h.1598v-.0007zm1.5364 1.9698c.0935-1.0841.4486-1.6396 1.0479-1.6396.6082 0 .9168.5278.9724 1.6396zm1.2164 2.47c-.8516 0-1.2256-.66-1.235-2.1308h2.788c-.0186-1.4518-.6086-2.225-1.7119-2.225-1.1235 0-1.8255.9147-1.8255 2.3668 0 1.4517.7018 2.3 1.9097 2.3.9168 0 1.5158-.5755 1.6369-1.5463h-.3742c-.1121.8013-.5238 1.2353-1.188 1.2353zm4.1444.0572c-.6737 0-1.0291-.7077-1.0291-2.055 0-1.3663.3273-2.036 1.0013-2.036.6927 0 1.0483.7162 1.0483 2.103-.0002 1.309-.3466 1.988-1.0205 1.988zm1.759-.802v-5.4427c-.4677.1262-.8883.2009-1.4122.2574v.1608c.5894 0 .6643.066.6643.556v1.6495c-.3462-.5653-.6176-.7355-1.1231-.7355-1.001 0-1.7032.952-1.7032 2.3095 0 1.3578.7107 2.3091 1.7313 2.3091.5332 0 .8982-.245 1.16-.7726.0372.3583.0372.3958.1313.7536.3831-.1228.5426-.1603 1.0948-.226l.1402-.0186v-.1602c-.6271-.0188-.6834-.0653-.6834-.6403zm1.8054-1.7252c.0936-1.0841.4489-1.6396 1.0482-1.6396.6082 0 .9164.5278.9724 1.6396zm1.2167 2.47c-.8521 0-1.2256-.66-1.2355-2.1308h2.7883c-.0189-1.4518-.6082-2.225-1.7119-2.225-1.1235 0-1.825.9147-1.825 2.3668 0 1.4517.7015 2.3 1.9091 2.3.9169 0 1.5156-.5755 1.6367-1.5463h-.3744c-.1114.8013-.5238 1.2353-1.1873 1.2353zm2.3474.3207v-1.575l.2059-.009c.168.8583.5613 1.2733 1.2166 1.2733.5514 0 .9635-.368.9635-.8478 0-.3205-.1774-.537-.6367-.745l-.3553-.1608-.4303-.1977c-.6838-.3203-.8987-.5845-.8987-1.1315 0-.745.5796-1.2533 1.4037-1.2533.365 0 .6369.0848.9546.3005l.1585-.3862h.1685v1.4612h-.2156c-.0849-.7545-.3931-1.112-.9821-1.112-.4958 0-.8804.3395-.8804.7825 0 .3768.1404.5.992.8768l.3933.1702c.7105.3101.964.6125.964 1.169 0 .792-.6272 1.3568-1.5059 1.3568-.4308 0-.7677-.1132-1.1231-.3957l-.2255.4237h-.1673zm8.2254-3.2527c.4956 0 .7762.0852.9918.3015.2154.2177.3375.6227.3375 1.0745 0 .9427-.4685 1.4712-1.301 1.4712h-.3367c-.4963 0-.5802-.076-.5802-.4907v-2.3573zm-.8893-2.8568h.7955c.7861 0 1.132.3872 1.132 1.2635 0 .4335-.1027.7452-.3084.9895-.206.2365-.4583.311-.9819.311h-.6365v-2.5643h-.0007zm2.76 1.2445c0-.4903-.2054-.9233-.5613-1.1975-.3176-.2355-.6821-.3388-1.2913-.3388h-2.4607v.2355c.6741.038.7672.1133.7672.6223v4.572c0 .5093-.0754.5745-.7672.632v.2268h2.3672c.6921 0 1.067-.0855 1.4603-.3305.4675-.3015.7761-.8768.7761-1.4696 0-.5102-.2153-.9717-.5801-1.2535-.196-.1507-.4022-.2367-.7394-.302.6744-.2557 1.0292-.7367 1.0292-1.3967zm1.8178 2.0743c.094-1.0841.4494-1.6396 1.0486-1.6396.6077 0 .9169.5278.9725 1.6396zm1.2171 2.47c-.8516 0-1.2265-.66-1.2355-2.1308h2.7888c-.0188-1.4518-.6086-2.225-1.7128-2.225-1.1229 0-1.8248.9147-1.8248 2.3668 0 1.4517.7019 2.3 1.9086 2.3.9169 0 1.5159-.5755 1.6375-1.5463h-.3744c-.1115.8013-.5231 1.2353-1.1874 1.2353zm2.0481-3.9695v-.1596c.543-.0759.8611-.1507 1.2348-.283.0474.2178.0756.462.0938.8203.3372-.5095.7203-.735 1.2635-.735.5618 0 1.0476.291 1.2354.7535.0941.2267.1407.4903.1407.848v2.2628c0 .4057.0936.481.6638.509v.1887c-.4958-.0475-.6826-.0565-1.0196-.0565-.3469 0-.5335.009-1.0206.0565v-.1887c.5052-.018.6271-.1128.6271-.4898v-2.31c0-.82-.2432-1.1505-.8417-1.1505-.637 0-.9734.406-.9734 1.1785v2.282c0 .377.1223.4718.6091.4898v.1887c-.4868-.0475-.6737-.0565-1.0109-.0565-.3275 0-.5245.009-1.0109.0565v-.1887c.5702-.028.6643-.1033.6643-.509v-3.0538c-.0095-.3875-.0655-.4433-.533-.4433-.029 0-.0752-.0099-.1224-.0099zm4.9956 4.1775 2.5357-4.2051h-1.1511c-.6077 0-.7583.1316-1.0948.9803h-.1864l.2154-1.2255h3.2188l-2.5453 4.2048h1.0942c.637 0 .8985-.254 1.1794-1.1125h.1966l-.243 1.358z"/><path d="m40.1395 32.7248c1.2467-2.0886 1.9037-4.4804 1.9003-6.9176 0-7.4273-5.9765-13.4482-13.3482-13.4482-7.3719 0-13.3478 6.0211-13.3478 13.4482-.0035 2.4372.6537 4.8291 1.9007 6.9176l-.0486.0392.058-.0226c2.3363 3.903 6.5841 6.5141 11.4377 6.5141 4.8539 0 9.1013-2.6111 11.4373-6.5141l.058.0226zm.2604-6.9176c.0023 2.0595-.5336 4.0833-1.5538 5.868l-8.2574-6.7007-1.6935-10.9575c6.3716.1096 11.5047 5.3443 11.5047 11.7902zm-23.4151 0c0-6.4456 5.1326-11.6803 11.5043-11.7902l-1.6936 10.9575-8.2573 6.7007c-1.0199-1.7848-1.5556-3.8086-1.5534-5.868zm11.7073 11.7953c-4.1543 0-7.8007-2.1821-9.8786-5.4687l9.8786-3.8505 9.8786 3.8507c-2.0781 3.2864-5.7238 5.4685-9.8786 5.4685z"/></g></svg>