<svg fill="none" height="32" viewBox="0 0 109 32" width="109" xmlns="http://www.w3.org/2000/svg" xmlns:xlink="http://www.w3.org/1999/xlink"><clipPath id="a"><path d="m0 0h109v32h-109z"/></clipPath><g clip-path="url(#a)"><g fill="#ee2f25"><path d="m22.9268 24.2703c.3079-.0012.6016.1322.8064.3663l2.2558 2.491c-1.2276 1.5592-2.8021 2.7986-4.5933 3.6158-1.822.8364-4.0089 1.2546-6.5607 1.2546-2.1106.0333-4.2057-.3714-6.15755-1.1896-1.76802-.7562-3.35867-1.8849-4.66726-3.3119-1.32686-1.4629-2.34399-3.1879-2.98818-5.0679-.70062-2.0673-1.0459169-4.2421-1.02072466-6.4289-.02588384-2.2091.36390266-4.4028 1.14831466-6.46272.72556-1.89292 1.82611-3.61357 3.23315-5.05484 1.4228-1.436 3.11986-2.55966 4.98625-3.30149 2.0438-.806837 4.2207-1.2071652 6.4127-1.1792881 2.2847 0 4.2803.3714501 5.9866 1.1143481 1.6345.69352 3.1247 1.69662 4.3916 2.95602l-1.9164 2.70665c-.117.17732-.2649.33137-.4363.45457-.218.1417-.4742.20986-.7324.19482-.3664-.01467-.7179-.15158-1.0003-.38963-.4141-.30904-.8471-.591-1.2963-.84421-.6335-.34975-1.3004-.63262-1.9905-.8442-.9954-.2871-2.0279-.41848-3.0621-.38964-1.3605-.01744-2.7108.23946-3.9732.75589-1.1866.49856-2.25369 1.25164-3.12853 2.20792-.90334 1.00685-1.59769 2.189-2.04145 3.4755-.50867 1.4776-.75745 3.0348-.73493 4.6003-.02534 1.5981.22424 3.1884.73748 4.699.43308 1.2749 1.10855 2.4506 1.98786 3.4599.82011.9273 1.82837 1.662 2.95497 2.1534 1.1562.5033 2.402.7579 3.6593.7481.7072.0041 1.4139-.0393 2.1155-.1299.593-.0772 1.1768-.2147 1.7429-.4104.5277-.1867 1.0341-.4305 1.5107-.7273.5041-.3182.9775-.6843 1.4137-1.0936.1342-.1241.2844-.229.4465-.3117.1586-.0797.3336-.1198.5104-.1169z"/><path d="m47.821 20.5115c.2082.496.4137.9954.6167 1.4983.2029-.5166.4111-1.0333.6297-1.5293.2185-.496.4475-.9843.6921-1.4416l9.2761-17.24672c.0948-.18739.2147-.3612.3564-.51667.1178-.1249.2629-.22125.4242-.281594.1629-.059816.3339-.095504.5073-.105919.1874-.015501.4138-.023251.674-.023251h4.4025v31.135054h-5.1441v-20.1117c0-.372 0-.775.0338-1.2271s.0547-.89646.0963-1.3563l-9.4764 17.6549c-.1958.3797-.4871.7028-.8457.9378-.3634.2269-.7859.3428-1.2151.3332h-.8014c-.4284.0116-.8508-.1016-1.2151-.3255-.358-.2357-.6491-.5585-.8457-.9377l-9.6065-17.72729c.0572.47535.0989.93779.1197 1.38989s.0312.8732.0312 1.2581v20.1117h-5.1389v-31.135054h4.4025c.2602 0 .484.00775.6714.023251.1778.009143.3532.04485.5204.105919.1596.063354.3041.159284.4241.281594.1478.15291.2714.3271.3669.51667l9.3671 17.28812c.2394.4598.4649.9369.6765 1.4312z"/><path d="m105.768 24.2703c.312-.0045.61.1292.817.3663l2.257 2.491c-1.232 1.5608-2.812 2.8003-4.608 3.6158-1.837.8364-4.032 1.2546-6.5846 1.2546-2.1117.0333-4.2078-.3714-6.1606-1.1896-1.7685-.7569-3.3598-1.8855-4.6695-3.3119-1.3156-1.4659-2.3218-3.1907-2.9565-5.0679-.7009-2.0673-1.0464-4.2421-1.0212-6.4289-.0259-2.2091.3641-4.4028 1.1489-6.46272.7259-1.89292 1.827-3.61357 3.2347-5.05484 1.4198-1.43452 3.1132-2.55809 4.9759-3.30149 2.0449-.806837 4.2228-1.2071652 6.4159-1.1792881 2.286 0 4.282.3714501 5.989 1.1143481 1.636.69352 3.127 1.69662 4.394 2.95602l-1.904 2.70665c-.117.17732-.265.33137-.437.45457-.218.1417-.474.20986-.733.19482-.366-.01505-.718-.15192-1-.38963-.415-.30904-.848-.591-1.297-.84421-.633-.34933-1.3-.63219-1.989-.8442-2.3312-.63283-4.7987-.50471-7.0543.36625-1.1859.49484-2.2527 1.24444-3.1275 2.19753-.9048 1.00608-1.5996 2.18839-2.0425 3.47549-.5089 1.4776-.7578 3.0348-.7352 4.6003-.0262 1.598.2226 3.1883.7352 4.699.4321 1.2786 1.108 2.4579 1.9889 3.4703.821.9267 1.8296 1.6613 2.9564 2.1534 1.1568.503 2.4032.7576 3.6611.7481.7075.0041 1.4146-.0393 2.1169-.1299.594-.0775 1.179-.215 1.746-.4104.527-.1872 1.033-.431 1.509-.7273.505-.3187.979-.6849 1.417-1.0936.133-.1253.284-.2303.446-.3117.159-.08.334-.1201.511-.1169z"/></g><path d="m76.7363 7.78369v8.85391l-6.104 8.4434v-17.29731z" fill="#fcb322"/><path d="m76.7363 20.7568v9.104c.0006.5671-.2136 1.1113-.5955 1.5125-.382.4013-.9003.6268-1.4408.6268h-4.0677v-3.2204z" fill="#ee2f25"/><path d="m70.6323.864746h6.104v5.078214c0 .06128-.0414.11097-.0925.11097h-6.0115z" fill="#fcb322"/></g></svg>