<svg fill="none" height="48" viewBox="0 0 171 48" width="171" xmlns="http://www.w3.org/2000/svg" xmlns:xlink="http://www.w3.org/1999/xlink"><clipPath id="a"><path d="m0 0h171v48h-171z"/></clipPath><g clip-path="url(#a)"><path d="m138.464 19.0205c-3.606-2.6507-9.302 1.468-12.171 3.507-1.311.938-9.384 8.1152-10.531 6.4433-.533-.7749.41-2.3653.738-3.0993.491-.9787.901-1.9982 1.229-3.0585.41-1.6312-.533-3.7925-2.459-3.5479-2.008.2447-4.098 2.3653-5.737 3.5071s-3.811 3.0585-5.819 3.344c.82-1.5089 1.722-3.5479.984-5.2199-.697-1.5904-2.582-2.3652-4.139-2.8546-3.6878-1.1826-7.6217-1.3049-11.4326-1.9574-1.2704-.2447-4.3437-.5301-4.3847-2.2837-.0409-1.5088 1.967-2.9361 3.0734-3.7109 2.9913-2.07982 6.3105-3.67023 9.8346-4.68973 3.3603-1.0195 6.8433-1.6312 10.3263-1.0195 1.229.24468 4.221.6117 4.631 2.12056.327 1.26417-1.803 1.54963-1.394 2.77303.41 1.22344 2.459.77484 3.115.12234.901-.89716.819-2.36524.614-3.50707-.409-2.60992-2.212-4.32267-4.671-5.138271-6.065-2.038999-13.3998.407801-18.7679 3.343951-3.3192 1.8351-14.6701 9.17549-7.458 12.72329 3.1963 1.5905 6.8843 1.9983 10.3264 2.9362 2.5406.6933 7.0895 1.9982 5.1222 5.4645-1.5571 2.7323-5.1632 4.4042-7.8677 5.75-1.6391.8156-3.3192 1.5496-4.9993 2.2836-.1229-.367 0-.7748-.0819-1.1418h-8.1136v1.5904h3.7699c.5327 0 2.7045-.367 3.1553.0816-.9425.4078-1.885.8156-2.8275 1.2642-.8195.367-3.4011 1.3865-1.8849 2.5691.9834.7748 3.524.0816 4.5895-.1631 3.3601-.7748 6.5564-2.2429 9.6707-3.711l.4508-.2039-.2049.1223c.7786.3671 2.5816.0408 3.4421.0408 0-.4078.1639-1.3865-.2049-1.6312 5.2047-2.6914 10.2037-5.7499 14.9567-9.2162.123 1.9982-.451 3.9148-.901 5.8315-.328 1.305-.328 2.6507.614 3.711 1.189 1.3457 2.541.7748 3.852-.0816l.082-.0408c-.696.5302-1.516.8972-2.417 1.0195 0 .1224-.041.2855.041.367h8.113v-1.5904c-.655 0-4.917.4078-5.245-.1223 1.311-.9787 2.705-1.8759 4.18-2.6507-.041 1.1011.655 2.4876 1.844 2.6099 1.352.1224 2.868-.9787 3.934-1.6312 1.434-.8971 2.868-1.8759 4.22-2.8546 1.025-.7748 2.377-2.2021 3.606-2.6099-.164 1.9167-1.106 3.9557-2.09 5.5869-.614 1.0195-.778 1.5904-2.007 1.3865-1.066-.1631-2.09-.2447-3.074.3262-3.729 2.2837-6.843 5.5053-8.933 9.3386-.942 1.7128-1.762 4.1188-.287 5.7908 1.475 1.6719 3.606.2039 5-.7749 3.606-2.5691 6.638-5.8315 8.933-9.5832.287-.4894.819-2.039 1.27-2.2837.615-.367 1.844.367 2.459.4078.819.0408 1.27-.2039.819-1.0603s-1.557-1.1418-2.376-1.4681c1.434-2.2429 2.458-4.8528 3.442-7.3404.778-1.9166 2.13-4.5673.041-6.1169zm-8.196 7.7481c-.615.4486-5.532 3.6702-5.942 2.5692-.409-1.1011 3.893-3.9965 4.631-4.5674 1.68-1.2234 4.016-3.0177 6.187-2.9769-.696 2.1205-3.155 3.7925-4.876 4.9751zm-4.18 13.8244c-.778.8156-4.63 5.2199-5.532 3.2624-1.065-2.2836 2.336-5.2606 3.811-6.484 1.803-1.4681 4.344-3.3847 6.762-3.4663-1.107 2.4876-3.197 4.7305-5.041 6.6879z" fill="#1d1d1e"/><g fill="#194ba0"><path d="m15.5716 10.3341c-2.4997-1.01947-5.1223-1.26415-7.78582-1.30493-1.35227 0-2.70454 0-4.01582 0-.7376 0-3.237249-.4078-3.76996.08156v24.34557c5.28613 0 11.2279.7749 16.1452-1.6312 4.1798-2.039 6.5975-6.2801 6.4336-10.929-.164-4.812-2.5407-8.6861-7.0072-10.562zm1.3522 11.2145c-.1229 6.117-6.5974 7.5443-11.59669 6.8918v-14.3545c.40978-.2855 1.68009-.0816 2.25378-.0816.81955 0 1.59813 0 2.41769.0816 1.39322.1223 2.70452.5709 3.89292 1.2642 2.2128 1.3865 3.0733 3.7109 3.0323 6.1985z"/><path d="m33.0695 16.2883c-4.6305.0816-8.6873 2.8954-9.302 7.6259-.5737 4.3226 2.1718 8.4006 6.3925 9.5832 3.688 1.0603 8.2775.0001 10.6133-3.1808 1.762-2.4468 2.1718-5.6276 1.1064-8.4414-1.3523-3.6702-5.0403-5.5461-8.8102-5.5869zm-.082 13.0088c-5.3271-.0408-5.3271-8.4414.082-8.4414 5.491 0 5.409 8.4822-.082 8.4414z"/><path d="m71.7931 25.2598c-.082 2.039-.6557 3.9965-3.0324 4.0373-2.5406.0815-2.7455-2.4876-2.7455-4.4043 0-1.3865 0-2.773 0-4.1595v-2.3653c0-.4078.2049-1.3457-.082-1.7127h-5.1632c-.2048 2.6914-.0409 5.4645-.0409 8.156 0 2.2836-.082 4.8935 1.2293 6.8918 1.2293 1.7535 3.5241 2.2836 5.573 2.1205.9015-.0815 1.803-.3262 2.5816-.8156.4507-.2854 1.5981-1.7943 1.885-1.7535v2.1205h4.9993v-16.7197h-5.2042c0 2.8953.1229 5.7499 0 8.6045z"/></g><path d="m165.14 29.0115c.615-.5709 3.155-3.9149.82-4.0372-.656-.0408-1.967 1.7127-2.418 2.1205-.779.8156-1.598 1.5497-2.459 2.2429-.614.4894-2.089 1.672-2.745.6525-.41-.6117.205-2.2021.328-2.8138.368-1.7535.86-4.5674-.533-6.0354-2.623-2.6915-8.278 2.3652-10.326 3.8741.614-1.6312.737-3.0993-1.025-4.0372-1.639-.8972-3.606.5709-4.876 1.5496-.738.5709-1.393 1.2234-1.967 1.9982-.287.4078-1.189 1.8759-.902 2.3652.533.8972 3.401-1.8758 4.59-1.5904-.861 1.1419-4.672 4.9344-3.524 6.7695-.451.0815-.902-.0408-1.353.0816v1.5496h8.114v-1.5904c-1.106 0-2.582.2446-3.647-.0408.41-.3263.82-.6525 1.106-.8972 1.271-1.0195 2.5-2.1205 3.729-3.1808 1.025-.8564 5.45-5.1383 6.926-3.5479.696.7341.246 2.8139.205 3.711-.041 1.3458-.041 2.7731.655 3.9557.041.0407.041.0815.082.1223l-.082-.1223h-5.04v1.6312h8.155v-.6525c2.335-.6117 4.999-2.9362 6.187-4.078z" fill="#1d1d1e"/><path d="m49.1719 25.831c-.5737-3.9149 3.688-6.5656 6.6794-3.711l3.4421-3.5886c-2.6225-2.61-7.0482-2.8139-10.3264-1.3866-4.3846 2.039-6.3106 7.2589-4.2207 11.6631.9425 1.9574 2.5406 3.5071 4.5895 4.3634 3.1553 1.305 7.458.9788 9.9986-1.5496l-3.4421-3.5886c-2.4997 2.2021-6.2287 1.2234-6.7204-2.2021z" fill="#194ba0"/><g fill="#1d1d1e"><path d="m162.886 32.1108v1.5497h8.114v-1.5497z"/><path d="m102.526 33.6195h8.114v-1.5497h-8.114z"/><path d="m122.4 10.9867c0-1.01948-.819-1.87586-1.844-1.87586-1.024 0-1.885.8156-1.885 1.83506 0 2.5284 3.729 2.61 3.729.0408z"/><path d="m164.648 40.3074c0 3.9557 6.106 3.9557 6.147.0408.041-3.9148-6.106-3.9556-6.147-.0408zm3.073 2.4876c-3.196.0408-3.237-4.8936-.041-4.9343 3.197-.0408 3.279 4.9343.041 4.9343z"/><path d="m126.662 32.9253 1.475-.8555h-1.475c-.041.2852-.041.5704 0 .8555z"/><path d="m168.992 39.0435c-.45-.734-1.721-.5301-2.458-.4894v3.4663c.246.0408.45.0408.696-.0407v-1.3458c.902-.3262.779 1.7128 1.967 1.3458l-.819-1.3458c.287-.5301 1.188-.6525.614-1.5904zm-1.762 1.0603v-.938c.369 0 1.23-.1631 1.23.4486s-.861.4078-1.23.4894z"/></g></g></svg>