<svg fill="none" height="60" viewBox="0 0 60 60" width="60" xmlns="http://www.w3.org/2000/svg"><g fill="#b2ccef"><path d="m37.0899 39.975v1.865h.2825v-.81h.3175l.5.81h.3175l-.5475-.81c.0681.0001.1354-.0137.1979-.0405.0626-.0269.119-.0662.1658-.1155.0468-.0494.083-.1078.1065-.1717.0234-.0639.0336-.1319.0298-.1998 0-.3675-.225-.5275-.67-.5275zm.2825.25h.3775c.19 0 .405.0325.405.265 0 .29-.2175.3175-.4575.3175h-.335zm.3525-.9325c-.3232-.002-.6397.0922-.9093.2705-.2696.1784-.48.4328-.6046.7311-.1247.2982-.1578.6268-.0952.9439s.218.6085.4466.837c.2285.2286.5199.384.837.4466s.6457.0295.9439-.0951c.2983-.1246.5528-.3351.7311-.6047s.2725-.5861.2705-.9093c.0027-.2137-.0373-.4258-.1177-.6239-.0804-.198-.1996-.378-.3505-.5293-.1509-.1514-.3305-.2711-.5283-.3521s-.4097-.1217-.6235-.1197zm0 .25c.3601 0 .7053.143.9599.3976s.3976.5999.3976.9599-.143.7053-.3976.9599-.5998.3976-.9599.3976c-.36 0-.7053-.143-.9599-.3976-.2545-.2546-.3976-.5999-.3976-.9599s.1431-.7053.3976-.9599c.2546-.2546.5999-.3976.9599-.3976z"/><path d="m35.0204 25.465h-1.0975v4h1.0975c1.465 0 2.63-.485 2.63-2.0325 0-1.485-1.165-1.9675-2.63-1.9675z"/><path d="m4.69482 17.5v25.0325h25.57498l25.035-25.0325zm30.83998 15.4075h-1.61v4.785h-7.38l-.7325-2.29c-1.7095.5391-3.5446.5321-5.25-.02l-.75 2.31h-4.54l.5-1.34-.1825.16c-1.1275.905-2.54 1.405-4.2875 1.44h-.25c-1.97683-.0071-3.91847-.5237-5.63748-1.5l1.5375-3.0575c1.6675.985 2.715 1.205 4.12498 1.1775.7325-.0175 1.25-.15 1.6075-.5.2015-.2088.3182-.485.3275-.775.0125-.795-1.1175-1.1675-2.5-1.5925-1.12248-.3525-2.39248-.8225-3.38748-1.5525-.56352-.3796-1.01787-.9001-1.31786-1.5097-.3-.6096-.43519-1.2872-.39214-1.9653.00707-1.0868.43441-2.1287 1.1925-2.9075 1.095-1.13 2.86-1.8225 4.97998-1.8225 1.9557.0309 3.8811.4873 5.6425 1.3375l-1.73 3.0075c-1.75-.85-2.6425-.93-3.6475-.9825-1.5-.0775-2.24998.4525-2.24998 1.0275-.015.7025 1.41248 1.335 2.74998 1.7675 2.0325.6425 4.6175 1.5 5 4l3.73-9.9h4.315l4.3525 11.845v-11.845h4.9825c4.75 0 7 1.6975 7 5.395-.005 3.3275-2.3075 5.3075-6.1975 5.3075z"/><path d="m23.1972 27.0775-1.58 4.985c.5116.1878 1.0525.2834 1.5975.2825.5333.0004 1.0627-.0909 1.565-.27l-1.5475-5z"/></g></svg>