<svg fill="none" height="45" viewBox="0 0 45 45" width="45" xmlns="http://www.w3.org/2000/svg"><path d="m28.5702 25.04v13.9599l-5.6913-4.0806-5.584 4.0806v-13.9599" fill="#8858e8"/><g stroke-miterlimit="10" stroke-width="2"><path d="m28.5702 25.04v13.9599l-5.6913-4.0806-5.584 4.0806v-13.9599" stroke="#8858e8"/><path d="m22.8793 26.7585c5.4561 0 9.8792-4.4231 9.8792-9.8792 0-5.4562-4.4231-9.8793-9.8792-9.8793-5.4562 0-9.8793 4.4231-9.8793 9.8793 0 5.4561 4.4231 9.8792 9.8793 9.8792z" fill="#3a2369" stroke="#3a2369"/><path d="m22.879 21.9261c2.7874 0 5.0471-2.2597 5.0471-5.0471 0-2.7873-2.2597-5.047-5.0471-5.047-2.7873 0-5.047 2.2597-5.047 5.047 0 2.7874 2.2597 5.0471 5.047 5.0471z" stroke="#fad40c"/></g></svg>