<svg fill="none" height="45" viewBox="0 0 45 45" width="45" xmlns="http://www.w3.org/2000/svg" xmlns:xlink="http://www.w3.org/1999/xlink"><clipPath id="a"><path d="m0 0h21.0885v21.0885h-21.0885z" transform="matrix(.866025 -.5 .866025 .5 4 33.4556)"/></clipPath><clipPath id="b"><path d="m0 0h21.0885v21.0885h-21.0885z" transform="matrix(.866025 -.5 .866025 .5 4 26.2065)"/></clipPath><clipPath id="c"><path d="m0 0h21.0885v21.0885h-21.0885z" transform="matrix(.866025 -.5 .866025 .5 4 18.7466)"/></clipPath><g clip-path="url(#a)"><path d="m22.2631 22.9113-18.2631 10.5443 18.2631 10.5442 18.2632-10.5442z" fill="#3a2369"/></g><g clip-path="url(#b)" opacity=".5"><path d="m22.2631 15.6623-18.2631 10.5442 18.2631 10.5443 18.2632-10.5443z" fill="#8858e8"/></g><g clip-path="url(#c)"><path d="m22.2631 8.20235-18.2631 10.54425 18.2631 10.5442 18.2632-10.5442z" fill="#fad40c"/></g><g stroke="#372c5b" stroke-miterlimit="10" stroke-width="2"><path d="m22.1738.999792v15.303908"/><path d="m17.502 12.3544 4.5574 4.4561 4.4561-4.4561"/></g></svg>