<svg fill="none" height="45" viewBox="0 0 45 45" width="45" xmlns="http://www.w3.org/2000/svg"><g stroke="#8858e8" stroke-miterlimit="10" stroke-width="2"><path d="m34.2812 16.0498c0-5.9125-4.8375-10.75-10.75-10.75"/><path d="m29.5508 15.6201 4.73 4.73 4.8375-4.73"/><path d="m34.2812 20.3498v-4.3"/><path d="m10.6309 28.9502c0 5.9125 4.8374 10.75 10.7499 10.75"/><path d="m15.3604 29.272-4.7299-4.73-4.83753 4.73"/><path d="m10.6309 24.542v4.4075"/></g><path d="m18.3725 20.35h-15.3725v-19.35h9.245l6.1275 6.12749z" fill="#3a2369"/><path d="m41.6986 43.9999h-15.3724v-19.35h15.3724v6.1275z" fill="#3a2369"/><g fill="#fad40c"><path d="m12.2441 7.12749h6.1275l-6.1275-6.12749z"/><path d="m29.5512 40.7746-3.225 3.225h7.8475l-3.225-3.225c-.43-.43-.9675-.43-1.3975 0z"/><path d="m35.2498 38.84-5.16 5.16h11.61l-5.16-5.16c-.3225-.3225-.9675-.3225-1.29 0z"/><path d="m32.025 33.7873c1.1874 0 2.15-.9626 2.15-2.15s-.9626-2.15-2.15-2.15-2.15.9626-2.15 2.15.9626 2.15 2.15 2.15z"/></g></svg>