<svg fill="none" height="45" viewBox="0 0 45 45" width="45" xmlns="http://www.w3.org/2000/svg"><path d="m33.1633 40.7036h-29.1633v-36.7036h17.5202l11.6431 11.6431z" fill="#372c5b"/><path d="m21.5195 15.6431h11.6432l-11.6432-11.6431z" fill="#8858e8"/><path d="m17.4174 18.8589h-8.98185v8.5383h8.98185z" fill="#fad40c"/><path d="m9.76562 22.8509 2.43948 2.2177 3.992-3.9919" fill="#fad40c"/><path d="m9.76562 22.8509 2.43948 2.2177 3.992-3.9919" stroke="#372c5b" stroke-miterlimit="10" stroke-width="2"/><path d="m17.4174 7.88086h-8.98185v8.53834h8.98185z" fill="#fad40c"/><path d="m9.76562 11.8729 2.43948 2.2177 3.992-4.10281" fill="#fad40c"/><path d="m9.76562 11.8729 2.43948 2.2177 3.992-4.10281" stroke="#372c5b" stroke-miterlimit="10" stroke-width="2"/><path d="m17.4174 29.9473h-8.98185v8.5383h8.98185z" fill="#fad40c"/><g stroke="#8858e8" stroke-miterlimit="10" stroke-width="2"><path d="m23 29.5283h17"/><path d="m35.6125 34.7158 4.95-5.0625-4.95-4.95"/></g></svg>