<svg fill="none" height="45" viewBox="0 0 45 45" width="45" xmlns="http://www.w3.org/2000/svg"><g fill="#372c5b"><path d="m18.3 7.5h-15.3v1.8h15.3z"/><path d="m10.7 2h-7.7v1.8h7.7z"/><path d="m18.3 11.1001h-15.3v1.8h15.3z"/><path d="m18.3 14.7002h-15.3v1.8h15.3z"/><path d="m18.3 18.2998h-15.3v1.8h15.3z"/><path d="m18.3 22h-15.3v1.8h15.3z"/><path d="m10.7 25.6001h-7.7v1.8h7.7z"/><path d="m42.9992 7.5h-15.3v1.8h15.3z"/><path d="m35.3992 2h-7.7v1.8h7.7z"/><path d="m42.9992 11.1001h-15.3v1.8h15.3z"/><path d="m42.9992 14.7002h-15.3v1.8h15.3z"/><path d="m42.9992 18.2998h-15.3v1.8h15.3z"/><path d="m42.9992 22h-15.3v1.8h15.3z"/><path d="m35.3992 25.6001h-7.7v1.8h7.7z"/></g><g stroke="#8858e8" stroke-miterlimit="10" stroke-width="2"><path d="m15.5996 34.8999c0 4.1 3.4 7.5 7.5 7.5s7.5-3.4 7.5-7.5"/><path d="m15.5996 34.9v-3.9"/><path d="m30.5996 34.9v-3.9"/><path d="m19.9996 35.5-4.4-4.5-4.5 4.5"/><path d="m34.9996 35.5-4.4-4.5-4.5 4.5"/></g></svg>