<svg fill="none" height="45" viewBox="0 0 45 45" width="45" xmlns="http://www.w3.org/2000/svg"><path d="m31.4 10.1h-5.6c-.4239 0-.8-.37614-.8-.8s.3761-.8.8-.8h5.6c.4239 0 .8.37614.8.8s-.3761.8-.8.8z" fill="#3a2369" stroke="#3a2369"/><path d="m28.5996 37.6001c6.3513 0 11.5-5.1487 11.5-11.5s-5.1487-11.5-11.5-11.5-11.5 5.1487-11.5 11.5 5.1487 11.5 11.5 11.5z" fill="#3a2369"/><path d="m28.5996 16.9001v-6.3" stroke="#3a2369" stroke-miterlimit="10" stroke-width="2"/><path d="m28.5996 28.6001c1.3807 0 2.5-1.1193 2.5-2.5s-1.1193-2.5-2.5-2.5-2.5 1.1193-2.5 2.5 1.1193 2.5 2.5 2.5z" fill="#fad40c"/><g stroke-miterlimit="10" stroke-width="2"><path d="m33.1996 20.4004-4.6 5.7" stroke="#fad40c"/><g stroke="#3a2369" stroke-linecap="round"><path d="m23.9 18.2002h-18.9"/><path d="m19.5 26.1001h-10"/><path d="m23.9004 34.1001h-10.5"/></g></g></svg>