<svg xmlns="http://www.w3.org/2000/svg" width="24" height="24"><g fill="none" fill-rule="evenodd" transform="translate(1 1)"><path stroke="#FFF" stroke-width="2" d="M22 7.5v10a1.5 1.5 0 0 1-1.5 1.5H18v3H4v-3H1.5A1.5 1.5 0 0 1 0 17.5v-10A1.5 1.5 0 0 1 1.5 6H4V0h14v6h2.5A1.5 1.5 0 0 1 22 7.5z"/><circle cx="18" cy="12" r="1" fill="#FFF" fill-rule="nonzero"/><path stroke="#FFF" d="M17.5 7v2h-13V7" opacity=".8"/><path fill="#FFF" fill-rule="nonzero" d="M22 14v3.5a1.5 1.5 0 0 1-1.5 1.5H17v-3H5v3H1.5A1.5 1.5 0 0 1 0 17.5V14h22z" opacity=".798"/></g></svg>