<svg xmlns="http://www.w3.org/2000/svg" width="22" height="22"><g fill="none"><path fill="#FFF" d="M2.25 0A2.25 2.25 0 0 0 0 2.25v17.5A2.25 2.25 0 0 0 2.25 22H10V0H2.25zM7 18.5a.5.5 0 0 1-.5.5h-3a.5.5 0 0 1-.5-.5v-3a.5.5 0 0 1 .5-.5h3a.5.5 0 0 1 .5.5v3zm0-6a.5.5 0 0 1-.5.5h-3a.5.5 0 0 1-.5-.5v-3a.5.5 0 0 1 .5-.5h3a.5.5 0 0 1 .5.5v3zm0-6a.5.5 0 0 1-.5.5h-3a.5.5 0 0 1-.5-.5v-3a.5.5 0 0 1 .5-.5h3a.5.5 0 0 1 .5.5v3z"/><path stroke="#FFF" stroke-width="2" d="M10 1h9.75c.69 0 1.25.56 1.25 1.25v17.5c0 .69-.56 1.25-1.25 1.25H10" opacity=".703"/></g></svg>