<svg xmlns="http://www.w3.org/2000/svg" width="23" height="23"><path stroke="#FFF" d="M4 20h16v1.25a.75.75 0 0 1-.75.75H4.75a.75.75 0 0 1-.75-.75V20h0z" opacity=".5"/><path fill="#FFF" d="M14 10h-4c1.83 3.94-3 5.27-3 5.27V16h10v-.73s-4.83-1.33-3-5.27z" opacity=".66"/><path d="M19.93 17.18h-.1A27.25 27.25 0 0 0 12 16h0a27.25 27.25 0 0 0-7.83 1.15h-.1A1.5 1.5 0 0 0 3 18.62v1.13a.25.25 0 0 0 .25.25h17.5a.25.25 0 0 0 .25-.25v-1.13a1.5 1.5 0 0 0-1.07-1.44zM12 3C7.5 3 7.5 5.57 7.5 7.5S10.07 10 12 10s4.5-.57 4.5-2.5S16.5 3 12 3z" fill="none" stroke="#FFF" stroke-miterlimit="10" stroke-width="2"/></svg>