<svg xmlns="http://www.w3.org/2000/svg" viewBox="0 0 1280 420"><defs><clipPath id="a"><path fill="none" d="M1062.21 370.33L874.24 262.65l145.26-83.63 187.97 107.67-145.26 83.64z"/></clipPath><clipPath id="b"><path fill="none" d="M707.29 300.84L418.16 134.05 226.38 244.8l289.14 166.78 191.77-110.74z"/></clipPath><clipPath id="c"><path fill="#e4e4e4" d="M743.6 251.45L553.22 141.73l142.79-82.29 190.38 109.72-142.79 82.29z"/></clipPath><clipPath id="d"><path d="M748.11 146h-29.33a3.27 3.27 0 0 0-3.27 3.27v25.6a3.27 3.27 0 0 0 3.27 3.27h7.59l7.08 7.08 7.08-7.08h7.59a3.27 3.27 0 0 0 3.27-3.27v-25.6a3.27 3.27 0 0 0-3.28-3.27z" fill="none"/></clipPath></defs><g data-name="Page layout"><path d="M1280 252l-191.78-110.75-10.33-6a2.38 2.38 0 0 0-2.16 0l-287 165.54a.66.66 0 0 0 0 1.24l10.33 6 10.29 5.97 181.51 104.78z" fill="#b2b2b2" opacity=".25"/><path d="M1280 246.19v-1.45l-191.78-109.3-10.33-6a2.38 2.38 0 0 0-2.16 0L788.32 294.23v1.42a.76.76 0 0 0 .45.62l10.33 6 10.27 5.93L990.86 413z" fill="#b2b2b2"/><path fill="#e3e3e3" d="M1280 244.74L990.86 411.52 799.09 300.77l289.13-166.78L1280 244.74z"/><path d="M788.76 293.57l287-165.54a2.38 2.38 0 0 1 2.16 0l10.33 6-289.16 166.74-10.33-6a.66.66 0 0 1 0-1.2z" fill="#fff"/><path d="M800.16 295.24a.9.9 0 0 0 0-1.7 3.25 3.25 0 0 0-2.94 0 .89.89 0 0 0 0 1.7 3.25 3.25 0 0 0 2.94 0" fill="#00b737"/><path d="M805.84 292a.9.9 0 0 0 0-1.7 3.25 3.25 0 0 0-2.94 0 .89.89 0 0 0 0 1.7 3.25 3.25 0 0 0 2.94 0" fill="#f9cf18"/><path d="M811.52 288.69a.9.9 0 0 0 0-1.7 3.25 3.25 0 0 0-2.94 0 .89.89 0 0 0 0 1.7 3.25 3.25 0 0 0 2.94 0" fill="red"/><g clip-path="url(#a)"><path fill="#e4e4e4" d="M1062.21 370.33L868.52 258.82l145.26-83.64 193.69 111.51-145.26 83.64z"/><path fill="#fff" d="M1340.53 367.31l-138.68 79.93-529.06-304.92 138.68-79.93 529.06 304.92z"/><path fill="#e4e4e4" d="M851.8 98.05l-117.14 67.51-5.78-3.33 117.14-67.51 5.78 3.33zm-11.61-6.69l-117.14 67.51-5.82-3.36L834.37 88l5.82 3.36zm-78.06 26.05l-55.5 31.99-11.65-6.71 55.51-31.99 11.64 6.71zm101.23-12.7l-117.14 67.51-5.78-3.33 117.14-67.51 5.78 3.33zm11.56 6.66l-117.14 67.52-5.78-3.34 117.14-67.51 5.78 3.33zm-67.08 52.87l-37.74 21.75-6.54-3.77 37.74-21.75 6.54 3.77zm34.35-.69l-55.5 31.99-5.79-3.33 55.51-31.99 5.78 3.33zm61.63-35.52l-55.5 31.99-5.78-3.33 55.5-31.99 5.78 3.33z"/><path fill="#f9cf18" d="M830.98 110.04l-42.05 24.24-5.78-3.33 42.05-24.24 5.78 3.33z"/><path fill="#e4e4e4" d="M853.75 170.22l-55.5 31.99-5.78-3.33 55.5-31.99 5.78 3.33zm61.63-35.52l-55.5 31.99-5.78-3.34 55.5-31.99 5.78 3.34zm-86.86 63.39l-18.71 10.78-5.78-3.33 18.71-10.79 5.78 3.34zm86.08-49.62l-43.16 24.88-5.78-3.33 43.16-24.88 5.78 3.33zm-53.71 61.38l-24.69 14.23-14.83-8.55 24.69-14.22 14.83 8.54zm30.82-17.76l-24.69 14.23-14.83-8.55 24.69-14.23 14.83 8.55zm30.81-17.76l-24.69 14.23-14.83-8.55 24.69-14.23 14.83 8.55zm30.82-17.76l-24.69 14.23-14.83-8.55 24.69-14.23 14.83 8.55zm105.72 131.97l-43.97 25.33-5.79-3.33 43.98-25.33 5.78 3.33zm61.63-35.52l-55.51 31.99-5.78-3.33 55.51-31.99 5.78 3.33zm-50.07 42.19l-43.97 25.33-5.78-3.34 43.97-25.32 5.78 3.33zm61.63-35.52l-55.51 31.99-5.78-3.33 55.51-32 5.78 3.34zM1059.84 315l-21.63 12.2-5.78-3.33 21.63-12.21 5.78 3.34zm-27.41 15.53l-5.76 3.33-5.78-3.33 5.76-3.33 5.78 3.33zm-11.55-6.66l-5.75 3.33-5.78-3.33 5.75-3.33 5.78 3.33zm-11.56-6.67l-5.75 3.34-5.79-3.34 5.76-3.33 5.78 3.33zm122.15-43.74l-43.16 24.88-5.78-3.33 43.16-24.88 5.78 3.33zM970.68 166.57l-117.14 67.51-6.53-3.77 117.13-67.51 6.54 3.77zm-27.16 34.09l-73.97 42.64-5.78-3.33 73.97-42.64 5.78 3.33zm71.57-8.5l-117.14 67.51-5.78-3.33 117.13-67.51 5.79 3.33zm-11.61-6.69l-117.14 67.51-5.82-3.35 117.14-67.52 5.82 3.36zm23.17 13.35l-117.14 67.51-5.78-3.33 117.14-67.51 5.78 3.33zm11.56 6.67L921.07 273l-5.78-3.33 117.14-67.52 5.78 3.34zm-67.08 52.86l-37.74 21.75-6.54-3.77 37.74-21.75 6.54 3.77zm193.69 20.1l-117.14 67.52-5.78-3.34 117.14-67.51 5.78 3.33zm11.56 6.67l-117.14 67.51-5.78-3.33 117.14-67.51 5.78 3.33zm11.56 6.66l-117.14 67.51-5.78-3.33 117.14-67.51 5.78 3.33zm-67.08 52.86l-37.74 21.75-6.54-3.76 37.74-21.75 6.54 3.76zm94.12-37.27l-117.14 67.51-5.78-3.33 117.14-67.51 5.78 3.33zm11.56 6.66l-117.14 67.51-5.78-3.33 117.14-67.51 5.78 3.33zm11.56 6.66l-117.13 67.52-5.78-3.33 117.13-67.52 5.78 3.33zm-67.08 52.87l-37.73 21.75-6.54-3.77 37.73-21.75 6.54 3.77zm-109.48-154.63L944.4 286.44l39.74 22.91 117.14-67.52-39.74-22.9z"/><path d="M1101.61 293c-17.75 0-32.2-8.54-32.2-19a1.11 1.11 0 1 1 2.22 0c0 9.27 13.45 16.81 30 16.81s30-7.54 30-16.81-13.45-16.8-30-16.8c-8.21 0-15.88 1.85-21.61 5.2a1.11 1.11 0 1 1-1.12-1.92c6.06-3.55 14.13-5.51 22.73-5.51 17.75 0 32.2 8.54 32.2 19S1119.36 293 1101.61 293z" fill="#215894"/><path d="M1177.18 405.26c-1.24 2-1.16 3.31.08 4 1 .55 2.64.76 5 .64a9.8 9.8 0 0 1 5.13.91c3 1.71 1.43 5-1.41 6.61a5.23 5.23 0 0 1-5 .41 1.76 1.76 0 0 1-.86-1.93 2.76 2.76 0 0 1 1.09-1.24c.12-.07.27-.11.33-.08s.07.11 0 .22a1.73 1.73 0 0 0 .71 2 3.58 3.58 0 0 0 3.22-.25c1.81-1 3-3.6 1-4.76-.9-.52-2.42-.75-4.88-.61a10.46 10.46 0 0 1-5.46-.83c-1.63-.94-2.09-2.7-.23-5.53a20.42 20.42 0 0 1 6.17-5.68c1.34-.77 4-1.92 5.84-.86s1.64 3.53.91 4.77a3.32 3.32 0 0 1-1.14 1.14c-.4.23-.75.32-.91.22s-.13-.15 0-.33c.41-.95 1.49-3.69-.12-4.62-1.19-.69-2.85.08-3.85.65a19 19 0 0 0-5.62 5.15zM1192 413a.35.35 0 0 1-.15.14 1.2 1.2 0 0 1-1 0 .19.19 0 0 1-.1-.29 8.26 8.26 0 0 0 .88-3.32 10.17 10.17 0 0 1 .13-1.85.19.19 0 0 1 .08-.14 1.83 1.83 0 0 1 1.19 0 .13.13 0 0 1 .08.14c0 1.38-.13 2.85.63 3.29a.8.8 0 0 0 .86 0c1.09-.63 1.24-3.2 1.29-3.58 0-.12 0-.16.1-.19a1.34 1.34 0 0 1 1 0 .19.19 0 0 1 .1.21c0 .37-.18 3.49-1.76 4.4a2.68 2.68 0 0 1-2.64 0l-.2-.11a7.53 7.53 0 0 1-.49 1.3zm.56-6.94a1.11 1.11 0 0 1-1.08 0 .93.93 0 0 1-.07-1.64 1 1 0 0 1 1 0 1 1 0 0 1 .18 1.67z"/><path d="M1201 409.2a12.06 12.06 0 0 0-.12-2.06 3.36 3.36 0 0 1-1.53 2.45 2.38 2.38 0 0 1-2.44-.09c-2-1.16-1.14-3.93.91-5.11a2.9 2.9 0 0 1 2.29-.27l.1-.84a.45.45 0 0 1 .2-.33 1.59 1.59 0 0 1 1.14.11.31.31 0 0 1 .17.29 20.38 20.38 0 0 0 .2 2.81l.17 1.51a6.2 6.2 0 0 0 .43-.73 9 9 0 0 0 1.33-4.05c0-.12 0-.16.1-.19a1.34 1.34 0 0 1 1 0 .19.19 0 0 1 .1.21 9.36 9.36 0 0 1-1.26 4.09 22.35 22.35 0 0 1-1.54 2.34c.22 4.24-.3 8.49-2.31 9.65a2.12 2.12 0 0 1-2.09 0c-1.86-1.07-.1-4.7 1.53-7.46.35-.6.98-1.43 1.62-2.33zm-1.82 8.89c1-.55 1.73-3.59 1.86-7a11.56 11.56 0 0 0-.71 1.18c-1.19 2.39-2.26 5.43-1.58 5.82a.37.37 0 0 0 .41.01zm-.41-9.53c.93-.54 1.14-2.09 1.29-3.61a1.57 1.57 0 0 0-1.34.09c-1.13.65-1.84 3-.78 3.57a.77.77 0 0 0 .81-.05z"/><path d="M1205.55 400.88c.08.28.13.75.27 1.38a7.79 7.79 0 0 1 2.14-3.66 1.64 1.64 0 0 1 1.16.11c.3.17-.07 1.05-.13 1.53-.12.7-.1 1.55.41 1.85a.75.75 0 0 0 .7 0c1-.6 1.11-1.75 1.36-3.61 0-.12 0-.16.1-.19a1.34 1.34 0 0 1 1 0 .19.19 0 0 1 .1.21c-.18 1.37-.4 3.56-1.91 4.43a2.44 2.44 0 0 1-2.31 0 2 2 0 0 1-.88-2 6.25 6.25 0 0 0-.78 3.8c0 .22 0 .39-.12.47a1.87 1.87 0 0 1-1.06.1.6.6 0 0 1-.23-.4l-.65-1.77a1.39 1.39 0 0 1-.76-.1.17.17 0 0 1-.1-.21 8.4 8.4 0 0 0-.1-2.12c0-.12 0-.22.2-.31a2 2 0 0 1 1.39.1.44.44 0 0 1 .2.39zm-28.37 4.38c-1.24 2-1.16 3.31.08 4 1 .55 2.64.76 5 .64a9.8 9.8 0 0 1 5.13.91c3 1.71 1.43 5-1.41 6.61a5.23 5.23 0 0 1-5 .41 1.76 1.76 0 0 1-.86-1.93 2.76 2.76 0 0 1 1.09-1.24c.12-.07.27-.11.33-.08s.07.11 0 .22a1.73 1.73 0 0 0 .71 2 3.58 3.58 0 0 0 3.22-.25c1.81-1 3-3.6 1-4.76-.9-.52-2.42-.75-4.88-.61a10.46 10.46 0 0 1-5.46-.83c-1.63-.94-2.09-2.7-.23-5.53a20.42 20.42 0 0 1 6.17-5.68c1.34-.77 4-1.92 5.84-.86s1.64 3.53.91 4.77a3.32 3.32 0 0 1-1.14 1.14c-.4.23-.75.32-.91.22s-.13-.15 0-.33c.41-.95 1.49-3.69-.12-4.62-1.19-.69-2.85.08-3.85.65a19 19 0 0 0-5.62 5.15zM1192 413a.35.35 0 0 1-.15.14 1.2 1.2 0 0 1-1 0 .19.19 0 0 1-.1-.29 8.26 8.26 0 0 0 .88-3.32 10.17 10.17 0 0 1 .13-1.85.19.19 0 0 1 .08-.14 1.83 1.83 0 0 1 1.19 0 .13.13 0 0 1 .08.14c0 1.38-.13 2.85.63 3.29a.8.8 0 0 0 .86 0c1.09-.63 1.24-3.2 1.29-3.58 0-.12 0-.16.1-.19a1.34 1.34 0 0 1 1 0 .19.19 0 0 1 .1.21c0 .37-.18 3.49-1.76 4.4a2.68 2.68 0 0 1-2.64 0l-.2-.11a7.53 7.53 0 0 1-.49 1.3zm.56-6.94a1.11 1.11 0 0 1-1.08 0 .93.93 0 0 1-.07-1.64 1 1 0 0 1 1 0 1 1 0 0 1 .18 1.67z"/><path d="M1201 409.2a12.06 12.06 0 0 0-.12-2.06 3.36 3.36 0 0 1-1.53 2.45 2.38 2.38 0 0 1-2.44-.09c-2-1.16-1.14-3.93.91-5.11a2.9 2.9 0 0 1 2.29-.27l.1-.84a.45.45 0 0 1 .2-.33 1.59 1.59 0 0 1 1.14.11.31.31 0 0 1 .17.29 20.38 20.38 0 0 0 .2 2.81l.17 1.51a6.2 6.2 0 0 0 .43-.73 9 9 0 0 0 1.33-4.05c0-.12 0-.16.1-.19a1.34 1.34 0 0 1 1 0 .19.19 0 0 1 .1.21 9.36 9.36 0 0 1-1.26 4.09 22.35 22.35 0 0 1-1.54 2.34c.22 4.24-.3 8.49-2.31 9.65a2.12 2.12 0 0 1-2.09 0c-1.86-1.07-.1-4.7 1.53-7.46.35-.6.98-1.43 1.62-2.33zm-1.82 8.89c1-.55 1.73-3.59 1.86-7a11.56 11.56 0 0 0-.71 1.18c-1.19 2.39-2.26 5.43-1.58 5.82a.37.37 0 0 0 .41.01zm-.41-9.53c.93-.54 1.14-2.09 1.29-3.61a1.57 1.57 0 0 0-1.34.09c-1.13.65-1.84 3-.78 3.57a.77.77 0 0 0 .81-.05z"/><path d="M1205.55 400.88c.08.28.13.75.27 1.38a7.79 7.79 0 0 1 2.14-3.66 1.64 1.64 0 0 1 1.16.11c.3.17-.07 1.05-.13 1.53-.12.7-.1 1.55.41 1.85a.75.75 0 0 0 .7 0c1-.6 1.11-1.75 1.36-3.61 0-.12 0-.16.1-.19a1.34 1.34 0 0 1 1 0 .19.19 0 0 1 .1.21c-.18 1.37-.4 3.56-1.91 4.43a2.44 2.44 0 0 1-2.31 0 2 2 0 0 1-.88-2 6.25 6.25 0 0 0-.78 3.8c0 .22 0 .39-.12.47a1.87 1.87 0 0 1-1.06.1.6.6 0 0 1-.23-.4l-.65-1.77a1.39 1.39 0 0 1-.76-.1.17.17 0 0 1-.1-.21 8.4 8.4 0 0 0-.1-2.12c0-.12 0-.22.2-.31a2 2 0 0 1 1.39.1.44.44 0 0 1 .2.39z"/><path fill="#215892" d="M1021.8 179.68l-145.19 83.68-8-4.6 145.2-83.69 7.99 4.61z"/></g><path d="M1118.29 212.92h-29.83a3.32 3.32 0 0 0-3.32 3.32v26a3.32 3.32 0 0 0 3.32 3.32h7.71l7.2 7.2 7.2-7.2h7.71a3.32 3.32 0 0 0 3.32-3.32v-26a3.32 3.32 0 0 0-3.31-3.32z" fill="#333"/><path d="M1111.44 223.18l-1.24-1.24a1.75 1.75 0 0 0-2.48 0l-9.7 9.7a.58.58 0 0 0 0 .82l2.9 2.9a.58.58 0 0 0 .82 0l9.7-9.7a1.75 1.75 0 0 0 0-2.48zM1097 233.49a.58.58 0 0 0-1 .28l-.89 3.78a.58.58 0 0 0 .57.71h.13l3.78-.89a.58.58 0 0 0 .28-1z" fill="#fff"/><path fill="#6ca4f1" d="M1098.49 139.92L809.35 306.7l-10.26-5.93 289.13-166.78 10.27 5.93z"/><path d="M717.62 300.89l-287-165.54a2.38 2.38 0 0 0-2.16 0l-10.33 6-191.75 110.71 289.14 166.78L697 314l10.27-5.93 10.33-6a.66.66 0 0 0 .02-1.18z" fill="#b2b2b2" opacity=".25"/><path d="M718.06 294.3L430.64 129.54a2.38 2.38 0 0 0-2.16 0l-10.33 6L226.38 244.8v1.45L515.52 413 697 308.22l10.27-5.93 10.33-6a.76.76 0 0 0 .45-.62c.01-.19.01-1.37.01-1.37z" fill="#b2b2b2"/><path d="M717.62 293.63l-287-165.54a2.38 2.38 0 0 0-2.16 0l-10.33 6 289.16 166.75 10.33-6a.66.66 0 0 0 0-1.21z" fill="#fff"/><path d="M703.48 293.75a.9.9 0 0 1 0-1.7 3.25 3.25 0 0 1 2.94 0 .89.89 0 0 1 0 1.7 3.25 3.25 0 0 1-2.94 0m-5.68-3.28a.9.9 0 0 1 0-1.7 3.25 3.25 0 0 1 2.94 0 .89.89 0 0 1 0 1.7 3.25 3.25 0 0 1-2.94 0m-5.68-3.27a.9.9 0 0 1 0-1.7 3.25 3.25 0 0 1 2.94 0 .89.89 0 0 1 0 1.7 3.25 3.25 0 0 1-2.94 0" fill="#b2b2b2"/><path fill="#e3e3e3" d="M226.38 244.8l289.14 166.78 191.77-110.74-289.13-166.79L226.38 244.8z"/><path fill="#3eb1ad" d="M407.89 139.98l289.14 166.78 10.26-5.92-289.13-166.79-10.27 5.93z"/><g clip-path="url(#b)"><path fill="#fff" d="M214.87 319.55L386 418.27l241.76-139.61-171.13-98.72-241.76 139.61z"/><path fill="#e4e4e4" d="M406.94 223.98l144.54 83.38 7.13-4.11-144.55-83.38-7.12 4.11zm14.3-8.26l144.55 83.38 7.18-4.15-144.55-83.37-7.18 4.14zm20.11-11.46l68.49 39.51 14.36-8.29-68.49-39.51-14.36 8.29zm-48.66 27.95l144.54 83.38 7.13-4.11-144.55-83.38-7.12 4.11zm-14.25 8.23l144.54 83.38 7.13-4.12-144.55-83.37-7.12 4.11zm-15.37 9.66l46.57 26.86 8.06-4.65-46.57-26.86-8.06 4.65zm55.79 54.78l68.5 39.51 7.12-4.11-68.49-39.51-7.13 4.11zm-76.05-43.87l68.49 39.51 7.13-4.11-68.49-39.51-7.13 4.11zm61.8 52.11l68.5 39.5 7.12-4.11L411.74 309l-7.13 4.12zm-76.05-43.88l68.49 39.51 7.13-4.11-68.49-39.51-7.13 4.11zm61.82 52.75l23.1 13.32 7.12-4.12-23.09-13.32-7.13 4.12zm-76.05-44.54l53.26 30.72 7.12-4.11-53.25-30.72-7.13 4.11zm76.05 87.78l30.47 17.57 18.28-10.55-30.47-17.58-18.28 10.56zm-38.02-21.94l30.46 17.58 18.28-10.56-30.46-17.57-18.28 10.55zm-38.03-21.93l30.47 17.57 18.28-10.56-30.47-17.57-18.28 10.56zm-38.03-21.94L306.77 317l18.28-10.56-30.47-17.57-18.28 10.55zm-15.9 9.18l144.55 83.38 8.06-4.65-144.55-83.38-8.06 4.65zm39.01 38.96l91.29 52.65 7.12-4.11-91.28-52.66-7.13 4.12z"/><path fill="#f9cf18" d="M455.52 252l47.38 27.34 7.13-4.11-47.39-27.34-7.12 4.11z"/></g><path d="M553.31 217.55H417.67a3.36 3.36 0 0 0-3.36 3.36v26.28a3.36 3.36 0 0 0 3.36 3.36h60.55l7.27 7.27 7.27-7.27h60.55a3.36 3.36 0 0 0 3.36-3.36v-26.28a3.36 3.36 0 0 0-3.36-3.36z" fill="#333"/><path fill="#4d4d4d" d="M484.65 222.74h1.68v22.61h-1.68zm-35.58 0h1.68v22.61h-1.68zm71.17 0h1.68v22.61h-1.68z"/><path d="M469 229.92v9.62l1.54.16v1h-6.14v-1l1.52-.16v-9.62H464l-.34 2.33h-1.48l.07-3.33h10.5l.05 3.33h-1.5l-.32-2.33zm35.83 0v9.62l1.54.16v1h-6.14v-1l1.52-.16v-9.62h-1.95l-.34 2.33H498l.07-3.33h10.5l.05 3.33h-1.48l-.32-2.33zm35.82 0v9.62l1.54.16v1h-6.14v-1l1.52-.16v-9.62h-1.95l-.34 2.33h-1.48l.07-3.33h10.5l.05 3.33h-1.48l-.32-2.33z" fill="#979797"/><path d="M437.93 225.34h-9.08a5.27 5.27 0 0 0-5 4.17l-1.71 9.08a3.36 3.36 0 0 0 3.38 4.17h9.08a5.27 5.27 0 0 0 5-4.17l1.71-9.08a3.36 3.36 0 0 0-3.38-4.17z" fill="#b1b1b1"/><path d="M433.28 229.92v9.62l1.54.16v1h-6.14v-1l1.52-.16v-9.62h-1.95l-.34 2.33h-1.48l.07-3.33H437l.05 3.33h-1.48l-.32-2.33z" fill="#333"/><path fill="#fff" d="M459.89 233.95h15.16v1.68h-15.16zm35.82 7.97h15.16v1.68h-15.16zm47.99 4.31l-2.3-2.29-2.29 2.29-2.29-2.29-2.29 2.29-3.48-3.48 1.19-1.18 2.29 2.29 2.29-2.29 2.29 2.29 2.29-2.29 2.3 2.29 2.29-2.29 1.18 1.18-3.47 3.48z"/><path d="M0 143.55a2 2 0 0 0 1.23 1.86l158.14 91.51a6.57 6.57 0 0 0 6 0l227-131.63a2.15 2.15 0 0 0 1.22-1.63v4.46a2 2 0 0 1-1.22 1.84l-227 131.63a6.57 6.57 0 0 1-6 0L1.24 150.08A2.12 2.12 0 0 1 0 148.37v-4.83z" fill="#ccc"/><path d="M1.24 145.41l158.14 91.51a6.57 6.57 0 0 0 6 0l227-131.63c1.65-1 1.64-2.5 0-3.46l-158.2-91.51a6.57 6.57 0 0 0-6 0L1.23 142c-1.64.91-1.64 2.46.01 3.41z" fill="#fff"/><path d="M88.91 180.53l9.75 5.64c3.33 1.93 3.86 3.93 1.41 5.35s-5.9 1.12-9.24-.81l-9.75-5.64c-3.33-1.93-3.86-3.93-1.41-5.35s5.91-1.12 9.24.81zm8.64 6.28l-9.75-5.64c-1.58-.91-4.58-2.23-7-.81s-.17 3.16 1.41 4.07l9.75 5.64c1.58.91 4.58 2.23 7 .81s.17-3.16-1.4-4.07z" fill="#e3e3e3"/><path d="M314.76 68.62a.79.79 0 0 0 0 1.49 2.84 2.84 0 0 0 2.58 0 .79.79 0 0 0 0-1.49 2.84 2.84 0 0 0-2.58 0zm-6.85-3.96a.79.79 0 0 0 0 1.49 2.84 2.84 0 0 0 2.58 0 .79.79 0 0 0 0-1.49 2.84 2.84 0 0 0-2.58 0z"/><path fill="#e3e3e3" d="M172.88 221.29l192.45-111.62-144.65-83.71L28.22 137.57l144.66 83.72z"/><path fill="#82ae00" d="M212.4 30.76l144.65 83.71 8.28-4.8-144.65-83.71-8.28 4.8z"/><path fill="#fff" d="M271.07 118.42l23.18 13.39 30.91-17.97-23.17-13.38-30.92 17.96zm-30.03-17.37l23.18 13.38 30.91-17.96-23.17-13.39-30.92 17.97zm-30.02-17.39l23.18 13.39 30.93-17.97-23.18-13.39-30.93 17.97zm-30.03-17.38l23.18 13.39L235.1 61.7l-23.18-13.39-30.93 17.97zm51.77 74.36l23.17 13.39 30.92-17.97-23.18-13.38-30.91 17.96zm-30.03-17.37l23.17 13.38 30.92-17.96-23.17-13.39-30.92 17.97zm-30.02-17.39l23.18 13.39 30.93-17.97-23.19-13.39-30.92 17.97zM142.68 88.5l23.18 13.39 30.93-17.97-23.18-13.39-30.93 17.97zm22.09 56.78l23.17 13.38 30.91-17.96-23.17-13.38-30.91 17.96zm-30.03-17.38l23.19 13.38 30.92-17.97-23.18-13.39-30.93 17.98zm-30.02-17.38l23.18 13.39 30.92-17.97-23.18-13.39-30.92 17.97z"/><path fill="none" d="M172.85 221.27l192.46-111.61-144.63-83.7L28.22 137.57l144.63 83.7z"/><path d="M309.86 111.76a8 8 0 0 1 7.24 0c2 1.16 2 3 0 4.2a8 8 0 0 1-7.24 0c-1.99-1.16-1.99-3.04 0-4.2zM279.9 94.42a8 8 0 0 1 7.24 0c2 1.16 2 3 0 4.2a8 8 0 0 1-7.24 0c-1.99-1.16-2-3.04 0-4.2z" fill="#c4cdd5"/><path d="M249.94 77.08a8 8 0 0 1 7.24 0c2 1.16 2 3 0 4.2a8 8 0 0 1-7.24 0c-2-1.16-2-3.04 0-4.2zM220 59.74a8 8 0 0 1 7.24 0c2 1.16 2 3 0 4.2a8 8 0 0 1-7.24 0c-2-1.16-2-3.04 0-4.2zM271.57 134a8 8 0 0 1 7.24 0c2 1.16 2 3 0 4.2a8 8 0 0 1-7.24 0c-2-1.2-2-3.07 0-4.2zm-29.97-17.37a8 8 0 0 1 7.24 0c2 1.16 2 3 0 4.2a8 8 0 0 1-7.24 0c-1.99-1.16-1.99-3.04 0-4.2zm-29.96-17.34a8 8 0 0 1 7.24 0c2 1.16 2 3 0 4.2a8 8 0 0 1-7.24 0c-1.99-1.16-2-3.04 0-4.2z" fill="#333"/><path d="M181.68 82a8 8 0 0 1 7.24 0c2 1.16 2 3 0 4.2a8 8 0 0 1-7.24 0c-2-1.2-2-3.09 0-4.2zm21.98 56.64a8 8 0 0 1 7.24 0c2 1.16 2 3 0 4.2a8 8 0 0 1-7.24 0c-2-1.16-2-3.04 0-4.2zm-29.97-17.34a8 8 0 0 1 7.24 0c2 1.16 2 3 0 4.2a8 8 0 0 1-7.24 0c-1.99-1.16-1.99-3.04 0-4.2zM143.73 104a8 8 0 0 1 7.24 0c2 1.16 2 3 0 4.2a8 8 0 0 1-7.24 0c-2-1.2-2-3.08 0-4.2z" fill="#c4cdd5"/><path d="M238.51 12.6h-29.83a3.32 3.32 0 0 0-3.32 3.32V42a3.32 3.32 0 0 0 3.32 3.32h7.71l7.2 7.2 7.2-7.2h7.71a3.32 3.32 0 0 0 3.33-3.32V16a3.32 3.32 0 0 0-3.32-3.4z" fill="#333"/><path d="M225.14 29.68l3.41-3.41a1.09 1.09 0 1 0-1.55-1.55l-3.41 3.41-3.41-3.41a1.09 1.09 0 1 0-1.54 1.54l3.41 3.41-3.41 3.41a1.09 1.09 0 1 0 1.54 1.54l3.41-3.41 3.41 3.42a1.09 1.09 0 1 0 1.54-1.54z" fill="red"/><path d="M546.7 74.78h-8.53L429 12c-5.08-2.92-13.25-2.44-18.36.48l-43.39 24.83h-7.8v8.06c0 1.71.94 3.37 3.14 4.63l114.06 65.56c5.08 2.92 14.37 2.37 19.48-.55l46.55-26.61c2.65-1.51 4-3.57 4-5.62z" fill="#cbcbcb"/><path d="M543.07 69.82c5.08 2.91 4.71 7.87-.39 10.79l-46.53 26.55c-5.11 2.91-14.4 3.46-19.47.55L362.59 42.24c-5.08-2.91-3.59-7.94 1.51-10.86l46.54-26.55c5.11-2.91 13.28-3.39 18.36-.48z" fill="#fff"/><path d="M384.93 25.2a1.43 1.43 0 0 0 1.39-.14l12.59-7.18c.45-.26.66-.56.24-.8a1.43 1.43 0 0 0-1.39.14l-12.58 7.18c-.45.26-.66.6-.25.8z" fill="#c9c9c9"/><path d="M394.94 25.4a2 2 0 0 0 1.91-.19l2.3-1.31c.62-.35.9-.77.34-1.09a2 2 0 0 0-1.91.19l-2.3 1.31c-.63.35-.91.77-.34 1.09zM371.32 33c.46.26.46.69 0 1a1.87 1.87 0 0 1-1.68 0 .5.5 0 0 1 0-1 1.87 1.87 0 0 1 1.68 0z"/><path fill="#e3e3e3" d="M533.11 68.92L475.13 102 372.81 43.28l57.98-33.08 102.32 58.72z"/><path fill="#82ae00" d="M430.91 10.27l-57.98 33.08 8.61 4.94 57.98-33.08-8.61-4.94z"/><path fill="#fff" d="M526.79 65.29l-57.98 33.09-81.53-46.79 57.98-33.09 81.53 46.79z"/><path fill="#e4e4e4" d="M462 33.26l-48.98 27.95-2.4-1.38 48.98-27.94 2.4 1.37zm-4.83-2.76L408.2 58.44l-2.42-1.39 48.97-27.94 2.42 1.39zm-32.59 10.78l-23.2 13.24-4.85-2.78 23.21-13.24 4.84 2.78zm42.22-5.26l-48.97 27.95-2.4-1.38 48.97-27.95 2.4 1.38zm4.81 2.76l-48.97 27.94-2.41-1.38 48.98-27.94 2.4 1.38zm-28.08 21.88l-15.77 9-2.72-1.56 15.78-9 2.71 1.56zm14.33-.28l-23.21 13.24-2.4-1.38L455.45 59l2.41 1.38zm25.76-14.71l-23.2 13.25-2.41-1.38 23.21-13.24 2.4 1.37zm-20.96 17.46l-23.2 13.25-2.41-1.38 23.21-13.24 2.4 1.37zm25.77-14.7l-23.21 13.24-2.4-1.37 23.21-13.25 2.4 1.38zm-36.34 26.24l-7.83 4.46-2.4-1.38 7.82-4.46 2.41 1.38zm35.98-20.53l-18.04 10.29-2.4-1.38 18.04-10.29 2.4 1.38zm-22.52 25.4l-10.32 5.89-6.16-3.54L459.39 76l6.16 3.54zm12.89-7.35l-10.32 5.89-6.17-3.54 10.32-5.89 6.17 3.54zm12.88-7.35L481 70.73l-6.17-3.54 10.33-5.89 6.16 3.54zm12.88-7.35l-10.32 5.89-6.16-3.54 10.32-5.89 6.16 3.54zm7.21 4.13l-48.97 27.95-2.72-1.56 48.97-27.95 2.72 1.56zm-13.24 13.06l-30.92 17.65-2.41-1.38 30.93-17.65 2.4 1.38z"/><path fill="#e4e4e4" d="M445.54 42.66l-16.06 9.16-2.4-1.38 16.06-9.16 2.4 1.38z"/><path d="M916.58 175.35h-13.4v1.72L687.59 51.86a3.85 3.85 0 0 0-3.49 0l-144.62 83.52H523v4.18a1.16 1.16 0 0 0 .7 1.11L752 273.25a3.85 3.85 0 0 0 3.49 0l160.34-92.6a1.18 1.18 0 0 0 .71-1.1z" fill="#cbcbcb"/><path d="M915.85 176.44L755.51 269a3.85 3.85 0 0 1-3.49 0L523.75 136.47a1.07 1.07 0 0 1 0-2L684.1 41.85a3.85 3.85 0 0 1 3.49 0l228.27 132.57a1.07 1.07 0 0 1-.01 2.02z" fill="#fff"/><path d="M831.47 220.3a11.75 11.75 0 0 1-10.65 0c-2.93-1.7-2.91-4.47 0-6.17a11.75 11.75 0 0 1 10.65 0c2.96 1.7 2.95 4.47 0 6.17zm-9.47-5.53c-2.33 1.35-2.35 3.54 0 4.89a9.32 9.32 0 0 0 8.45 0c2.33-1.35 2.34-3.54 0-4.89a9.32 9.32 0 0 0-8.45 0z" fill="#e3e3e3"/><path d="M616 93.68a.79.79 0 0 1 0 1.49 2.83 2.83 0 0 1-2.57 0 .79.79 0 0 1 0-1.49 2.83 2.83 0 0 1 2.57 0z"/><path fill="#e3e3e3" d="M743.34 252.75L551.85 141.54l144.42-83.4 191.49 111.21-144.42 83.4z"/><path fill="#e4e4e4" d="M743.6 251.45L553.22 141.73l142.79-82.29 190.38 109.72-142.79 82.29z"/><g clip-path="url(#c)"><path fill="#fff" d="M875.58 166.61l-136.38 78.6L218.94-54.64l136.37-78.61 520.27 299.86z"/><path fill="#e4e4e4" d="M396.89-27.21L342.31 4.25 336.62.97l54.59-31.45 5.68 3.27zM372.08.2l-18.4 10.6-5.69-3.27L366.4-3.08 372.08.2zm31.83 11.57l-24.28 13.99-14.58-8.4 24.28-14 14.58 8.41zm30.3-17.47l-24.27 14-14.59-8.41 24.28-13.99 14.58 8.4zm164.57 94.85l-43.24 24.91-5.68-3.28 43.24-24.9 5.68 3.27zm60.61-34.93l-54.58 31.46-5.68-3.27 54.58-31.46 5.68 3.27zm-49.24 41.49l-43.24 24.9-5.68-3.27 43.24-24.91 5.68 3.28zm60.61-34.94l-54.58 31.46-5.68-3.27 54.58-31.46 5.68 3.27zm-71.21 54.4l-21.27 12-5.68-3.28 21.27-12 5.68 3.28zm-26.95 15.27l-5.66 3.28-5.68-3.28 5.65-3.27 5.69 3.27zm-11.36-6.55l-5.65 3.28-5.69-3.28 5.66-3.28 5.68 3.28zm-11.37-6.55l-5.65 3.27-5.69-3.27 5.66-3.28 5.68 3.28zm120.12-43.01l-42.44 24.46-5.68-3.28 42.44-24.46 5.68 3.28zM511.88-30.8L396.69 35.59l-6.43-3.7L505.45-34.5l6.43 3.7zM485.17 2.73l-72.75 41.93-5.68-3.27L479.49-.54l5.68 3.27zm70.37-8.36L440.35 60.76l-5.68-3.28L549.86-8.91l5.68 3.28zm-11.41-6.58L428.94 54.18l-5.73-3.3 115.2-66.39 5.72 3.3zM566.91.92L451.72 67.31l-5.68-3.27L561.23-2.35l5.68 3.27zm11.37 6.55L463.09 73.86l-5.68-3.27L572.6 4.2l5.68 3.27zm-65.96 51.99l-37.11 21.39-6.43-3.71 37.11-21.39 6.43 3.71zm190.47 19.77L587.6 145.62l-5.69-3.27L697.1 75.96l5.69 3.27zm11.37 6.55l-115.19 66.4-5.69-3.28 115.19-66.39 5.69 3.27zm11.37 6.56l-115.19 66.39-5.69-3.28 115.19-66.39 5.69 3.28zm-65.97 51.98l-37.11 21.39-6.43-3.71 37.11-21.38 6.43 3.7zm92.56-36.65l-115.19 66.39-5.69-3.28 115.19-66.39 5.69 3.28zm11.37 6.55L648.3 180.61l-5.69-3.28 115.19-66.39 5.69 3.28zm11.37 6.55l-115.19 66.39-5.69-3.28 115.19-66.39 5.69 3.28zm-65.97 51.98l-37.11 21.39-6.43-3.7 37.11-21.39 6.43 3.7zM601.23 20.7L486.04 87.09l39.07 22.52L640.3 43.22 601.23 20.7z"/><path d="M714.95 203.93c-1.22 2-1.14 3.25.08 4 .95.55 2.59.74 4.88.63a9.63 9.63 0 0 1 5 .89c2.92 1.68 1.4 4.89-1.39 6.5a5.15 5.15 0 0 1-4.94.4 1.73 1.73 0 0 1-.85-1.9 2.72 2.72 0 0 1 1.08-1.22c.11-.07.26-.11.33-.08s.07.11 0 .22a1.7 1.7 0 0 0 .7 1.93 3.52 3.52 0 0 0 3.16-.24c1.78-1 3-3.54 1-4.68-.88-.51-2.38-.73-4.8-.6a10.28 10.28 0 0 1-5.37-.82c-1.6-.92-2.06-2.65-.23-5.43a20.08 20.08 0 0 1 6.07-5.58c1.32-.76 3.93-1.89 5.74-.85s1.61 3.47.9 4.69a3.26 3.26 0 0 1-1.13 1.12c-.39.23-.73.31-.9.22s-.13-.15 0-.33c.41-.93 1.47-3.63-.11-4.54-1.17-.68-2.81.08-3.78.64a18.64 18.64 0 0 0-5.44 5.03zm14.6 7.64a.34.34 0 0 1-.15.14 1.18 1.18 0 0 1-1 0 .19.19 0 0 1-.1-.28 8.12 8.12 0 0 0 .86-3.26 10 10 0 0 1 .13-1.82.19.19 0 0 1 .08-.14 1.8 1.8 0 0 1 1.17 0 .13.13 0 0 1 .08.14c0 1.35-.13 2.8.62 3.23a.79.79 0 0 0 .85 0c1.08-.62 1.22-3.15 1.27-3.52 0-.12 0-.16.1-.19a1.31 1.31 0 0 1 1 0 .19.19 0 0 1 .1.21c0 .37-.18 3.43-1.73 4.32a2.63 2.63 0 0 1-2.59 0l-.2-.11a7.4 7.4 0 0 1-.49 1.28zm.55-6.83a1.09 1.09 0 0 1-1.06 0 .91.91 0 0 1-.07-1.62 1 1 0 0 1 1 0 1 1 0 0 1 .13 1.62z"/><path d="M738.36 207.81a11.86 11.86 0 0 0-.11-2 3.3 3.3 0 0 1-1.5 2.41 2.34 2.34 0 0 1-2.4-.08c-2-1.14-1.13-3.86.9-5a2.85 2.85 0 0 1 2.25-.26l.1-.83a.44.44 0 0 1 .2-.32 1.56 1.56 0 0 1 1.13.1.3.3 0 0 1 .16.28 20 20 0 0 0 .2 2.76l.16 1.49a6.1 6.1 0 0 0 .42-.71 8.9 8.9 0 0 0 1.31-4c0-.12 0-.16.1-.19a1.31 1.31 0 0 1 1 0 .19.19 0 0 1 .1.21 9.2 9.2 0 0 1-1.24 4 22 22 0 0 1-1.52 2.3c.21 4.17-.29 8.35-2.27 9.49a2.08 2.08 0 0 1-2.06 0c-1.83-1.05-.1-4.63 1.5-7.33.33-.63.95-1.44 1.57-2.32zm-1.79 8.74c.95-.55 1.7-3.54 1.83-6.86a11.37 11.37 0 0 0-.7 1.16c-1.17 2.35-2.22 5.34-1.55 5.73a.36.36 0 0 0 .41-.03zm-.41-9.37c.91-.53 1.13-2.06 1.27-3.55a1.54 1.54 0 0 0-1.32.08c-1.11.64-1.81 2.91-.77 3.51a.76.76 0 0 0 .81-.04z"/><path d="M742.84 199.62c.08.27.13.73.26 1.35a7.67 7.67 0 0 1 2.1-3.6 1.62 1.62 0 0 1 1.14.11c.29.17-.07 1-.13 1.5-.11.69-.1 1.52.41 1.81a.74.74 0 0 0 .69 0c1-.59 1.09-1.72 1.34-3.55 0-.12 0-.16.1-.19a1.31 1.31 0 0 1 1 0 .19.19 0 0 1 .1.21c-.18 1.34-.39 3.5-1.88 4.35a2.4 2.4 0 0 1-2.27 0 1.91 1.91 0 0 1-.86-2 6.15 6.15 0 0 0-.77 3.73c0 .22 0 .39-.11.46a1.84 1.84 0 0 1-1 .09.59.59 0 0 1-.23-.39l-.64-1.74a1.37 1.37 0 0 1-.75-.09.17.17 0 0 1-.1-.21 8.26 8.26 0 0 0-.1-2.09c0-.12 0-.22.2-.3a2 2 0 0 1 1.37.09.43.43 0 0 1 .13.46zm-27.89 4.31c-1.22 2-1.14 3.25.08 4 .95.55 2.59.74 4.88.63a9.63 9.63 0 0 1 5 .89c2.92 1.68 1.4 4.89-1.39 6.5a5.15 5.15 0 0 1-4.94.4 1.73 1.73 0 0 1-.85-1.9 2.72 2.72 0 0 1 1.08-1.22c.11-.07.26-.11.33-.08s.07.11 0 .22a1.7 1.7 0 0 0 .7 1.93 3.52 3.52 0 0 0 3.16-.24c1.78-1 3-3.54 1-4.68-.88-.51-2.38-.73-4.8-.6a10.28 10.28 0 0 1-5.37-.82c-1.6-.92-2.06-2.65-.23-5.43a20.08 20.08 0 0 1 6.07-5.58c1.32-.76 3.93-1.89 5.74-.85s1.61 3.47.9 4.69a3.26 3.26 0 0 1-1.13 1.12c-.39.23-.73.31-.9.22s-.13-.15 0-.33c.41-.93 1.47-3.63-.11-4.54-1.17-.68-2.81.08-3.78.64a18.64 18.64 0 0 0-5.44 5.03zm14.6 7.64a.34.34 0 0 1-.15.14 1.18 1.18 0 0 1-1 0 .19.19 0 0 1-.1-.28 8.12 8.12 0 0 0 .86-3.26 10 10 0 0 1 .13-1.82.19.19 0 0 1 .08-.14 1.8 1.8 0 0 1 1.17 0 .13.13 0 0 1 .08.14c0 1.35-.13 2.8.62 3.23a.79.79 0 0 0 .85 0c1.08-.62 1.22-3.15 1.27-3.52 0-.12 0-.16.1-.19a1.31 1.31 0 0 1 1 0 .19.19 0 0 1 .1.21c0 .37-.18 3.43-1.73 4.32a2.63 2.63 0 0 1-2.59 0l-.2-.11a7.4 7.4 0 0 1-.49 1.28zm.55-6.83a1.09 1.09 0 0 1-1.06 0 .91.91 0 0 1-.07-1.62 1 1 0 0 1 1 0 1 1 0 0 1 .13 1.62z"/><path d="M738.36 207.81a11.86 11.86 0 0 0-.11-2 3.3 3.3 0 0 1-1.5 2.41 2.34 2.34 0 0 1-2.4-.08c-2-1.14-1.13-3.86.9-5a2.85 2.85 0 0 1 2.25-.26l.1-.83a.44.44 0 0 1 .2-.32 1.56 1.56 0 0 1 1.13.1.3.3 0 0 1 .16.28 20 20 0 0 0 .2 2.76l.16 1.49a6.1 6.1 0 0 0 .42-.71 8.9 8.9 0 0 0 1.31-4c0-.12 0-.16.1-.19a1.31 1.31 0 0 1 1 0 .19.19 0 0 1 .1.21 9.2 9.2 0 0 1-1.24 4 22 22 0 0 1-1.52 2.3c.21 4.17-.29 8.35-2.27 9.49a2.08 2.08 0 0 1-2.06 0c-1.83-1.05-.1-4.63 1.5-7.33.33-.63.95-1.44 1.57-2.32zm-1.79 8.74c.95-.55 1.7-3.54 1.83-6.86a11.37 11.37 0 0 0-.7 1.16c-1.17 2.35-2.22 5.34-1.55 5.73a.36.36 0 0 0 .41-.03zm-.41-9.37c.91-.53 1.13-2.06 1.27-3.55a1.54 1.54 0 0 0-1.32.08c-1.11.64-1.81 2.91-.77 3.51a.76.76 0 0 0 .81-.04z"/><path d="M742.84 199.62c.08.27.13.73.26 1.35a7.67 7.67 0 0 1 2.1-3.6 1.62 1.62 0 0 1 1.14.11c.29.17-.07 1-.13 1.5-.11.69-.1 1.52.41 1.81a.74.74 0 0 0 .69 0c1-.59 1.09-1.72 1.34-3.55 0-.12 0-.16.1-.19a1.31 1.31 0 0 1 1 0 .19.19 0 0 1 .1.21c-.18 1.34-.39 3.5-1.88 4.35a2.4 2.4 0 0 1-2.27 0 1.91 1.91 0 0 1-.86-2 6.15 6.15 0 0 0-.77 3.73c0 .22 0 .39-.11.46a1.84 1.84 0 0 1-1 .09.59.59 0 0 1-.23-.39l-.64-1.74a1.37 1.37 0 0 1-.75-.09.17.17 0 0 1-.1-.21 8.26 8.26 0 0 0-.1-2.09c0-.12 0-.22.2-.3a2 2 0 0 1 1.37.09.43.43 0 0 1 .13.46z"/></g><g clip-path="url(#d)"><path d="M748.11 146h-29.33a3.27 3.27 0 0 0-3.27 3.27v25.6a3.27 3.27 0 0 0 3.27 3.27h7.59l7.08 7.08 7.08-7.08h7.59a3.27 3.27 0 0 0 3.27-3.27v-25.6a3.27 3.27 0 0 0-3.28-3.27z" fill="#333"/><path d="M740.08 160.06a.8.8 0 0 0 1.13 0l14.95-14.95a.8.8 0 0 0 0-1.13l-2.65-2.65a.8.8 0 0 0-1.13 0l-14.95 14.95a.8.8 0 0 0 0 1.13zm-4.6 2.75a.8.8 0 0 0 .57-.23l1.42-1.42.1.1a.8.8 0 0 0 1.13-1.13l-1.32-1.32a.8.8 0 1 0-1.13 1.13l.1.1-1.42 1.42a.8.8 0 0 0 .57 1.36zm-12.02 2.96a.8.8 0 0 0 1.13 0l2.23-2.24 2.23 2.24a.8.8 0 1 0 1.13-1.13l-2.18-2.23 2.23-2.23a.8.8 0 1 0-1.13-1.13l-2.23 2.24-2.28-2.29a.8.8 0 1 0-1.13 1.13l2.23 2.23-2.23 2.23a.8.8 0 0 0 0 1.18zm34.72 3.08h-34.83a.8.8 0 0 0 0 1.6h34.83a.8.8 0 0 0 0-1.6z" fill="#fff"/></g><path fill="#28b0cc" d="M704.31 62.8l-144.43 83.41-8.23-4.79 144.42-83.4 8.24 4.78z"/><path d="M922 134a10.65 10.65 0 0 0 9.56 0c2.63-1.51 2.62-4 0-5.48a10.63 10.63 0 0 0-9.56 0c-2.65 1.56-2.64 4.02 0 5.48z" fill="#6465b8"/><path d="M891.67 116.52v7.76c0 2 1.38 4.1 4 5.62l46.55 26.59c5.11 2.91 14.4 3.47 19.48.55l114.06-65.56c2.19-1.26 3.16-2.92 3.14-4.63v-7.7a4.78 4.78 0 0 1-1.84 3.66 8.17 8.17 0 0 1-1.3.92l-5.43 3.12-108.61 62.43c-5.07 2.92-14.37 2.37-19.48-.55l-42.81-24.45-3.74-2.14a10.14 10.14 0 0 1-2.23-1.69 5.68 5.68 0 0 1-1.79-3.93z" fill="#ccc"/><path d="M891.67 116.27zm187.24-37.46v.33-.33z" fill="#6465b8"/><path d="M891.67 116.52a5.68 5.68 0 0 0 1.79 3.94 10.14 10.14 0 0 0 2.23 1.69l3.74 2.14 42.81 24.45c5.11 2.91 14.4 3.47 19.48.55l108.63-62.44 5.43-3.12a8.17 8.17 0 0 0 1.3-.92 4.78 4.78 0 0 0 1.84-3.66v-.33c-.16-2.15-1.87-4.37-4.64-6l-46.55-26.59c-5.11-2.92-13.28-3.4-18.36-.48L895.3 111.34c-2.34 1.35-3.52 3.12-3.62 4.94-.01.07-.01.16-.01.24zm148.76-54.45l6.82 3.9c.45.26.66.56.24.8a1.4 1.4 0 0 1-1.39-.14l-6.82-3.89c-.45-.26-.66-.56-.24-.8a1.43 1.43 0 0 1 1.39.13zm7.64.16a1.24 1.24 0 0 1-1.13 0c-.31-.18-.31-.46 0-.64a1.24 1.24 0 0 1 1.13 0c.31.18.31.46 0 .64zm4.65 7.51a1.87 1.87 0 0 1-1.68 0 .51.51 0 0 1 0-1 1.86 1.86 0 0 1 1.68 0c.46.31.46.74 0 1zM922 128.57a10.63 10.63 0 0 1 9.56 0c2.65 1.52 2.66 4 0 5.48a10.65 10.65 0 0 1-9.56 0c-2.64-1.51-2.65-3.97 0-5.48z" fill="#fff"/><path d="M1046.94 62.23a1.24 1.24 0 0 0 1.13 0c.31-.18.31-.46 0-.64a1.24 1.24 0 0 0-1.13 0c-.31.18-.31.46 0 .64zm-7.66.5l6.82 3.89a1.4 1.4 0 0 0 1.39.14c.42-.24.21-.54-.24-.8l-6.82-3.9a1.43 1.43 0 0 0-1.39-.14c-.42.25-.21.55.24.81z" fill="#bbc0ff"/><path d="M922 134a10.65 10.65 0 0 0 9.56 0c2.63-1.51 2.62-4 0-5.48a10.63 10.63 0 0 0-9.56 0c-2.65 1.56-2.64 4.02 0 5.48z" fill="#fff"/><path d="M1039.28 62.73l6.82 3.89a1.4 1.4 0 0 0 1.39.14c.42-.24.21-.54-.24-.8l-6.82-3.9a1.43 1.43 0 0 0-1.39-.14c-.42.25-.21.55.24.81zm-5.22-3.29a1.87 1.87 0 0 0 1.68 0c.46-.26.46-.69 0-1a1.86 1.86 0 0 0-1.68 0 .51.51 0 0 0 0 1zm12.88 2.79a1.24 1.24 0 0 0 1.13 0c.31-.18.31-.46 0-.64a1.24 1.24 0 0 0-1.13 0c-.31.18-.31.46 0 .64z"/><path d="M922 134a10.65 10.65 0 0 0 9.56 0c2.63-1.51 2.62-4 0-5.48a10.63 10.63 0 0 0-9.56 0c-2.65 1.56-2.64 4.02 0 5.48zm1.13-4.82a8.1 8.1 0 0 1 7.26 0c2 1.15 2 3 0 4.16a8.06 8.06 0 0 1-7.25 0c-1.99-1.1-2-2.96 0-4.11zm-17.33-18.79l57.46 33.19 101.98-58.9-57.46-33.19-101.98 58.9z" fill="#e3e3e3"/><path fill="#fff" d="M961.38 142.49l-54.41-31.42 101.96-58.29 54.3 31.48-101.85 58.23z"/><path fill="#e4e4e4" d="M974.53 102.39l-17.99-10.43 2.27-1.3 17.99 10.43-2.27 1.3zm24.14 13.99l-21.74-12.6 2.27-1.3 21.74 12.6-2.27 1.3zM970 105l-18-10.43 2.27-1.3 17.99 10.43L970 105zm24.13 13.99l-21.74-12.6 2.27-1.3 21.74 12.6-2.27 1.3zm-40.6-18.3l-6.07-3.51 2.27-1.31 6.07 3.52-2.27 1.3zm31.23 18.1l-16.9-9.79 2.27-1.31 16.9 9.8-2.27 1.3zm49.6-42.42l-28.97-16.79 2.27-1.31 28.97 16.79-2.27 1.31zm5.75 16.2l-45.87-26.59 2.27-1.3 45.87 26.59-2.27 1.3zm4.56-2.62L998.8 63.36l2.28-1.31 45.87 26.59-2.28 1.31zm-9.09 5.23L989.7 68.59l2.27-1.31 45.87 26.59-2.26 1.31zm-4.54 2.6l-45.87-26.59 2.27-1.3 45.87 26.59-2.27 1.3zm-35.93-15.24l-14.78-8.57 2.57-1.47 14.78 8.56-2.57 1.48zm-13.76 43.79l-45.87-26.59 2.27-1.3 45.87 26.59-2.27 1.3zm-4.54 2.61l-45.87-26.59 2.27-1.3 45.87 26.59-2.27 1.3zm-4.54 2.61l-45.87-26.59 2.27-1.31 45.87 26.59-2.27 1.31zm-35.92-15.25l-14.78-8.56 2.57-1.48 14.77 8.57-2.56 1.47zm25.31 21.34l-45.87-26.58 2.27-1.31 45.87 26.59-2.27 1.3zm-4.35 2.5l-45.95-26.54 2.16-1.24 45.87 26.59-2.08 1.19zm64.57-37.1l-45.87-26.59-15.59 8.97 45.87 26.58 15.59-8.96z"/><path d="M957.2 90.74a1 1 0 0 0 0-1.8 3.45 3.45 0 0 0-3.12 0 1 1 0 0 0 0 1.8 3.45 3.45 0 0 0 3.12 0zm-4.54 2.61a1 1 0 0 0 0-1.8 3.45 3.45 0 0 0-3.12 0 1 1 0 0 0 0 1.8 3.45 3.45 0 0 0 3.12 0zM948.13 96a1 1 0 0 0 0-1.8 3.45 3.45 0 0 0-3.12 0 1 1 0 0 0 0 1.8 3.45 3.45 0 0 0 3.12 0z" fill="#4d4d4d"/><path d="M954.46 90.19l.06-.75c0-.06.14-.1.31-.1s.29 0 .29.1v.53h2c.17 0 .31 0 .32.09s-.11.1-.28.11zm-4.51 2.59L950 92c0-.06.14-.1.31-.1s.29 0 .29.1v.53h2c.17 0 .31 0 .32.09s-.11.1-.28.11zm-4.51 2.59l.06-.75c0-.06.14-.1.31-.1s.29 0 .29.1v.53h2c.17 0 .31 0 .32.09s-.11.1-.28.11z" fill="#fff"/><path fill="#28b0cc" d="M1007.78 51.49l57.46 33.19-8.58 4.95-57.46-33.18 8.58-4.96z"/><path fill="#28b0cc" d="M1007.78 51.49l57.46 33.19-8.58 4.95-57.46-33.18 8.58-4.96z"/><path d="M472.22 0H442.4a3.32 3.32 0 0 0-3.32 3.32v26a3.32 3.32 0 0 0 3.32 3.32h7.71l7.2 7.2 7.2-7.2h7.71a3.32 3.32 0 0 0 3.32-3.32v-26A3.32 3.32 0 0 0 472.22 0z" fill="#333"/><rect x="449.8" y="23.3" width="15.01" height="1.66" rx=".83" ry=".83" fill="#fff"/><rect x="449.8" y="15.41" width="15.01" height="1.66" rx=".83" ry=".83" fill="#fff"/><rect x="449.8" y="7.53" width="15.01" height="1.66" rx=".83" ry=".83" fill="#fff"/><path d="M961.48 50.73h-29.83a3.32 3.32 0 0 0-3.32 3.32v26a3.32 3.32 0 0 0 3.32 3.32h7.71l7.2 7.2 7.2-7.2h7.71a3.32 3.32 0 0 0 3.32-3.32v-26a3.32 3.32 0 0 0-3.31-3.32z" fill="#333"/><path d="M952.53 60.84H940.6a1 1 0 0 0-1 1v11.93a1 1 0 0 0 1 1h11.93a1 1 0 0 0 1-1V61.84a1 1 0 0 0-1-1zm-1.63 4.34l-4.43 5.87a.82.82 0 0 1-.62.33.82.82 0 0 1-.6-.27l-2.34-2.55a.82.82 0 0 1 1.21-1.11l1.68 1.83 3.84-5.09a.82.82 0 1 1 1.31 1z" fill="#fff"/></g></svg>