<svg fill="none" height="36" viewBox="0 0 36 36" width="36" xmlns="http://www.w3.org/2000/svg"><path clip-rule="evenodd" d="m15.3 10h8.47c.2956-.01351.5917.0134.88.08.3962.0961.7695.2695 1.0986.51.329.2406.6074.5438.8192.8921s.3528.735.415 1.1379c.0621.4029.0442.8141-.0528 1.21l-1.6 8.34c-.237 1.0618-.8207 2.0145-1.659 2.708s-1.8836 1.0882-2.971 1.122h-8.47c-.2956.0135-.5917-.0134-.88-.08-.3962-.0961-.7695-.2694-1.0985-.51-.32913-.2406-.60753-.5438-.81932-.8921-.21178-.3483-.35278-.735-.41492-1.1379-.06215-.4029-.04423-.814.05274-1.21l1.6-8.34c.2371-1.0618.8207-2.0145 1.659-2.708.8383-.6934 1.8836-1.0882 2.971-1.122zm-1.3 2.69h8c.1919.0103.3725.0938.5047.2333.1321.1396.2056.3245.2053.5167v1.94c0 .1989-.079.3897-.2197.5303-.1406.1407-.3314.2197-.5303.2197s-.3897-.079-.5303-.2197c-.1407-.1406-.2197-.3314-.2197-.5303v-1.19h-2.46v7.62h1.25c.1989 0 .3897.079.5303.2197.1407.1406.2197.3314.2197.5303s-.079.3897-.2197.5303c-.1406.1407-.3314.2197-.5303.2197h-4c-.1989 0-.3897-.079-.5303-.2197-.1407-.1406-.2197-.3314-.2197-.5303s.079-.3897.2197-.5303c.1406-.1407.3314-.2197.5303-.2197h1.21v-7.62h-2.46v1.19c0 .1989-.079.3897-.2197.5303-.1406.1407-.3314.2197-.5303.2197s-.3897-.079-.5303-.2197c-.1407-.1406-.2197-.3314-.2197-.5303v-1.94c.0026-.1981.0824-.3874.2225-.5275s.3294-.2199.5275-.2225z" fill="#fff" fill-rule="evenodd"/></svg>