<svg viewBox="0 0 36 36" xmlns="http://www.w3.org/2000/svg"><path d="m18 0a18 18 0 0 1 18 18 18 18 0 0 1 -18 18 18 18 0 0 1 -18-18 18 18 0 0 1 18-18z" fill="#89ccff" opacity=".25"/><path d="m23.77 10h-8.47a4.9 4.9 0 0 0 -4.63 3.83l-1.6 8.34a3.1 3.1 0 0 0 2.28 3.75 3.25 3.25 0 0 0 .88.08h8.47a4.9 4.9 0 0 0 4.63-3.83l1.6-8.34a3.1 3.1 0 0 0 -2.28-3.75 3.25 3.25 0 0 0 -.88-.08z" fill="#1c5894"/><path d="m22 12.69h-8a.76.76 0 0 0 -.75.75v1.94a.75.75 0 0 0 1.5 0v-1.19h2.46v7.62h-1.21a.75.75 0 0 0 0 1.5h4a.75.75 0 0 0 0-1.5h-1.25v-7.62h2.46v1.19a.75.75 0 1 0 1.5 0v-1.94a.75.75 0 0 0 -.71-.75z" fill="#d8e6fb"/></svg>