<svg viewBox="0 0 150 150" xmlns="http://www.w3.org/2000/svg"><rect fill="#89ccff" height="150" opacity=".25" rx="74.76" width="150"/><path d="m112 104-18 18h-56.23a1.88 1.88 0 0 1 -1.77-2v-80a1.88 1.88 0 0 1 1.77-2h11.23v-7a2 2 0 0 1 2-2 2 2 0 0 1 2 2v7h42v-7a2 2 0 0 1 2-2 2 2 0 0 1 2 2v7h11.19a1.89 1.89 0 0 1 1.81 2z" fill="#287ed9"/><path d="m112 53h-76v-13a1.88 1.88 0 0 1 1.77-2h11.23v-7a2 2 0 0 1 2-2 2 2 0 0 1 2 2v7h42v-7a2 2 0 0 1 2-2 2 2 0 0 1 2 2v7h11.19a1.89 1.89 0 0 1 1.81 2z" fill="#1c5894"/><path d="m112 104-18 18v-15.88a2.19 2.19 0 0 1 2.23-2.12z" fill="#5ca5fc"/><path d="m36 52.96h76v2h-76z" fill="#f8fbfa"/><g opacity=".33"><circle cx="65" cy="65" fill="#89ccff" r="2.5"/><circle cx="75" cy="65" fill="#89ccff" r="2.5"/><circle cx="85" cy="65" fill="#89ccff" r="2.5"/><circle cx="95" cy="65" fill="#5ca5fc" r="2.5"/><circle cx="105" cy="65" fill="#5ca5fc" r="2.5"/><g fill="#89ccff"><circle cx="45" cy="75" r="2.5"/><circle cx="55" cy="75" r="2.5"/><circle cx="65" cy="75" r="2.5"/><circle cx="75" cy="75" r="2.5"/><circle cx="85" cy="75" r="2.5"/></g><circle cx="95" cy="75" fill="#5ca5fc" r="2.5"/><circle cx="105" cy="75" fill="#5ca5fc" r="2.5"/><circle cx="45" cy="85" fill="#89ccff" r="2.5"/><circle cx="55" cy="85" fill="#89ccff" r="2.5"/><circle cx="65" cy="85" fill="#89ccff" r="2.5"/><circle cx="75" cy="85" fill="#89ccff" r="2.5"/><circle cx="85" cy="85" fill="#89ccff" r="2.5"/><circle cx="95" cy="85" fill="#5ca5fc" r="2.5"/><circle cx="105" cy="85" fill="#5ca5fc" r="2.5"/><circle cx="45" cy="95" fill="#89ccff" r="2.5"/><circle cx="55" cy="95" fill="#89ccff" r="2.5"/><circle cx="65" cy="95" fill="#89ccff" r="2.5"/><circle cx="75" cy="95" fill="#89ccff" r="2.5"/><circle cx="85" cy="95" fill="#89ccff" r="2.5"/><circle cx="95" cy="95" fill="#5ca5fc" r="2.5"/><circle cx="105" cy="95" fill="#5ca5fc" r="2.5"/><circle cx="45" cy="105" fill="#89ccff" r="2.5"/><circle cx="55" cy="105" fill="#89ccff" r="2.5"/><circle cx="65" cy="105" fill="#89ccff" r="2.5"/><circle cx="75" cy="105" fill="#89ccff" r="2.5"/></g><path d="m50.76 90.76 8.48 8.48m0-8.48-8.48 8.48" fill="none" stroke="#f8fbfa" stroke-linecap="round" stroke-miterlimit="10" stroke-width="2"/></svg>