<svg fill="none" height="36" viewBox="0 0 36 36" width="36" xmlns="http://www.w3.org/2000/svg"><path clip-rule="evenodd" d="m20 12h10v13h-10zm5.239 9h-2.239v-5h2.185c.538 0 .961.157 1.23.443.215.228.323.507.323.85v.014c0 .564-.283.879-.618 1.079.544.221.88.557.88 1.228v.015c0 .914-.7 1.371-1.761 1.371zm-.276-2.979c.457 0 .747-.157.747-.528v-.014c0-.329-.243-.515-.68-.515h-1.022v1.057zm1.008 1.472v-.014c0-.336-.235-.543-.766-.543h-1.196v1.1h1.23c.457 0 .732-.172.732-.543z" fill="#fff" fill-rule="evenodd"/><path d="m23 21h2.239c1.061 0 1.761-.457 1.761-1.371v-.015c0-.671-.336-1.007-.88-1.228.335-.2.618-.515.618-1.079v-.014c0-.343-.108-.622-.323-.85-.269-.286-.692-.443-1.23-.443h-2.185zm2.71-3.507c0 .371-.29.528-.747.528h-.955v-1.057h1.022c.437 0 .68.186.68.515zm.261 1.986v.014c0 .371-.275.543-.732.543h-1.23v-1.1h1.196c.531 0 .766.207.766.543z" fill="#fff" opacity=".5"/><path d="m18 9v19" stroke="#fff" stroke-linecap="round" stroke-width="1.75"/><path d="m8.5 21h1.058l.431-1.113h1.995l.431 1.113h1.085l-2.022-5h-.956zm1.86-2.078.627-1.61.626 1.61z" fill="#fff" opacity=".75"/><path d="m15.5 13v-.5h-9v12h9z" opacity=".5" stroke="#fff"/></svg>