<svg fill="none" height="36" width="36" xmlns="http://www.w3.org/2000/svg"><path d="m0 0h36v36h-36z" fill="#fff"/><circle cx="18" cy="18" fill="#89ccff" opacity=".25" r="18"/><path d="m21 13h8v11h-8z" fill="#1c5894" stroke="#1c5894" stroke-width="2"/><path d="m23 21h2.239c1.061 0 1.761-.457 1.761-1.371v-.015c0-.671-.336-1.007-.88-1.228.335-.2.618-.515.618-1.079v-.014c0-.343-.108-.622-.323-.85-.269-.286-.692-.443-1.23-.443h-2.185zm2.71-3.507c0 .371-.29.528-.747.528h-.955v-1.057h1.022c.437 0 .68.186.68.515zm.261 1.986v.014c0 .371-.275.543-.732.543h-1.23v-1.1h1.196c.531 0 .766.207.766.543z" fill="#e1f2ff"/><path d="m18 9v19" stroke="#1c5894" stroke-linecap="round" stroke-width="1.75"/><path d="m8.5 21h1.058l.431-1.113h1.995l.431 1.113h1.085l-2.022-5h-.956zm1.86-2.078.627-1.61.626 1.61z" fill="#1c5894" opacity=".75"/><path d="m15.5 13v-.5h-9v12h9z" opacity=".5" stroke="#1c5894"/></svg>