<svg xmlns="http://www.w3.org/2000/svg" viewBox="0 0 90 90"><defs><clipPath id="a"><circle cx="45" cy="45" r="45" fill="none"/></clipPath></defs><rect width="90" height="90" rx="45" ry="45" fill="#89ccff" opacity=".25" data-name="Podlage"/><g clip-path="url(#a)" data-name="Grafika"><circle cx="45" cy="68" r="16" fill="#89ccff"/><path d="M47.74 79H42.3a1 1 0 0 1-1-1v-1.62a9.82 9.82 0 0 1-1.67-1l-1.41.81a1 1 0 0 1-1.37-.37l-2.72-4.72a1 1 0 0 1 .37-1.36l1.39-.74a8.93 8.93 0 0 1-.05-1 8.84 8.84 0 0 1 .05-1l-1.39-.81a1 1 0 0 1-.36-1.36l2.72-4.72a1 1 0 0 1 1.37-.37l1.4.81a9.8 9.8 0 0 1 1.67-1V58a1 1 0 0 1 1-1h5.44a1 1 0 0 1 1 1v1.63a9.77 9.77 0 0 1 1.65 1l1.38-.8a1 1 0 0 1 .76-.1 1 1 0 0 1 .61.47l2.72 4.72a1 1 0 0 1-.37 1.36l-1.38.72a8.57 8.57 0 0 1 .06 1 8.66 8.66 0 0 1-.05 1l1.39.81a1 1 0 0 1 .37 1.36l-2.72 4.72a1 1 0 0 1-.61.47 1 1 0 0 1-.76-.1l-1.39-.81a9.69 9.69 0 0 1-1.65 1V78a1 1 0 0 1-1.01 1zm-4.44-2h3.44v-1.29a1 1 0 0 1 .65-.94 7.59 7.59 0 0 0 2.27-1.31 1 1 0 0 1 1.15-.11l1.1.64 1.72-3-1.12-.65a1 1 0 0 1-.48-1 6.88 6.88 0 0 0 0-2.62 1 1 0 0 1 .48-1l1.12-.72-1.72-3-1.1.64a1 1 0 0 1-1.15-.11 7.61 7.61 0 0 0-2.27-1.31 1 1 0 0 1-.65-.94V59H43.3v1.29a1 1 0 0 1-.65.94 7.78 7.78 0 0 0-2.29 1.31 1 1 0 0 1-1.15.11L38.09 62l-1.72 3 1.12.65a1 1 0 0 1 .48 1 7 7 0 0 0 0 2.62 1 1 0 0 1-.48 1l-1.13.73 1.72 3 1.13-.65a1 1 0 0 1 1.15.11 7.77 7.77 0 0 0 2.29 1.31 1 1 0 0 1 .65.94zm-1-16.71z" fill="#1c5894"/><path d="M45 73a5 5 0 1 1 5-5 5 5 0 0 1-5 5zm0-8a3 3 0 1 0 3 3 3 3 0 0 0-3-3zM0-10v25h90v-25H0z" fill="#1c5894"/><path d="M65 21H46v-6h-2v6H25a3 3 0 0 0-3 3v6h2v-6a1 1 0 0 1 1-1h19v7h2v-7h19a1 1 0 0 1 1 1v6h2v-6a3 3 0 0 0-3-3zM22 51a1 1 0 0 1-1 1h-40.19a1 1 0 0 0-1 1 1 1 0 0 0 1 1H21a3 3 0 0 0 3-3v-6h-2zm87.19 1H69a1 1 0 0 1-1-1v-6h-2v6a3 3 0 0 0 3 3h40.19a1 1 0 0 0 0-2z" fill="#287ed9"/><path d="M50.5 30h-11a2 2 0 0 0-2 2v11a2 2 0 0 0 2 2h11a2 2 0 0 0 2-2V32a2 2 0 0 0-2-2zM73 30H62a2 2 0 0 0-2 2v11a2 2 0 0 0 2 2h11a2 2 0 0 0 2-2V32a2 2 0 0 0-2-2zm-45 0H17a2 2 0 0 0-2 2v11a2 2 0 0 0 2 2h11a2 2 0 0 0 2-2V32a2 2 0 0 0-2-2z" fill="#1c5894"/><rect width="90" height="90" rx="45" ry="45" fill="none"/></g></svg>