<svg height="27" width="27" xmlns="http://www.w3.org/2000/svg"><path d="m18.751 4 4.655 7.201-1.862 11.799h-3.306l.228-2.717h-1.615l-.228 2.717h-6.84l-.228-2.717h-1.634l.228 2.717h-3.287l-1.862-11.799 4.617-7.201zm0 14.934.988-7.524-1.862-3.8h-2.983l.19 1.368h-3.724l.19-1.368h-2.983l-1.862 3.8.912 7.524zm-2.584-6.156c.127 0 .234.165.323.494.089.33.133.731.133 1.207 0 .475-.047.883-.143 1.225-.095.342-.202.513-.323.513-.12 0-.224-.168-.313-.503a4.818 4.818 0 0 1 -.133-1.216c0-.476.047-.88.143-1.216.095-.336.199-.504.313-.504zm-5.833.133c.127 0 .231.165.314.494.082.33.123.731.123 1.207 0 .475-.044.883-.133 1.225s-.196.513-.323.513-.231-.165-.313-.494a5.099 5.099 0 0 1 -.124-1.216c0-.481.047-.89.143-1.226.095-.335.199-.503.313-.503z" fill="#333" fill-rule="evenodd"/></svg>