<svg viewBox="0 0 90 90" xmlns="http://www.w3.org/2000/svg" xmlns:xlink="http://www.w3.org/1999/xlink"><clipPath id="a"><circle cx="45" cy="45" r="45"/></clipPath><rect fill="#89ccff" height="90" opacity=".25" rx="45" width="90"/><g clip-path="url(#a)"><g fill="#1c5894"><rect height="30" rx="2" width="24" x="-6" y="38"/><rect height="45" rx="2" width="36" x="27" y="23"/><rect height="75" rx="2" transform="matrix(-1 0 0 -1 171 61)" width="27" x="72" y="-7"/></g><path d="m74.5 83.18-24-24a8 8 0 1 0 -11.34 11.28h.05l24 24z" fill="#5ca5fc"/><path d="m52.59 65.51-5.54-5.51a5 5 0 1 0 -7.05 7l5.54 5.54c1.17 1.17 3.7.54 5.66-1.41s2.56-4.45 1.39-5.62z" fill="#1c5894"/><rect fill="none" height="90" rx="45" transform="matrix(.70710678 -.70710678 .70710678 .70710678 -18.63961 45)" width="90"/></g></svg>