<svg viewBox="0 0 90 90" xmlns="http://www.w3.org/2000/svg" xmlns:xlink="http://www.w3.org/1999/xlink"><clipPath id="a"><circle cx="45" cy="45" r="45"/></clipPath><rect fill="none" height="90" rx="45" width="90"/><rect fill="#89ccff" height="90" opacity=".25" rx="45" width="90"/><g clip-path="url(#a)"><rect fill="#1c5894" height="50" rx="2" width="50" x="20" y="20"/><path d="m59 46h-22a1 1 0 0 1 0-2h22a1 1 0 0 1 0 2zm0-15h-7a1 1 0 0 1 0-2h7a1 1 0 0 1 0 2z" fill="#f8fbfa"/><path d="m52 27a3 3 0 0 0 -2.82 2h-18.18a1 1 0 0 0 0 2h18.18a3 3 0 1 0 2.82-4zm-15 15a3 3 0 0 0 -2.82 2h-3.18a1 1 0 0 0 0 2h3.18a3 3 0 1 0 2.82-4zm23 15a3 3 0 0 0 -2.82 2h-26.18a1 1 0 0 0 0 2h26.18a3 3 0 1 0 2.82-4z" fill="#89ccff"/><path d="m60 52a8 8 0 0 0 -8 8v30h16v-30a8 8 0 0 0 -8-8z" fill="#5ca5fc"/><path d="m60 53a5.09 5.09 0 0 0 -5 5.17v7.83c0 1.66 2.24 3 5 3s5-1.34 5-3v-7.83a5.09 5.09 0 0 0 -5-5.17z" fill="#1c5894"/></g></svg>