<svg viewBox="0 0 90 90" xmlns="http://www.w3.org/2000/svg" xmlns:xlink="http://www.w3.org/1999/xlink"><clipPath id="a"><circle cx="45" cy="45" r="45"/></clipPath><rect fill="#89ccff" height="90" opacity=".25" rx="45" width="90"/><g clip-path="url(#a)"><circle cx="45" cy="68" fill="#89ccff" r="16"/><path d="m49 76h-8a1 1 0 0 1 0-2h8a1 1 0 0 1 0 2zm-19-52.92h30v19.84a2 2 0 0 1 -2 2h-26a2 2 0 0 1 -2-2zm30-2h-30a1 1 0 0 1 0-2h30a1 1 0 0 1 0 2z" fill="#1c5894"/><path d="m50 30h-10a1 1 0 0 1 0-2h10a1 1 0 0 1 0 2z" fill="#f8fbfa"/><path d="m69 23.08h30v19.84a2 2 0 0 1 -2 2h-26a2 2 0 0 1 -2-2zm30-2h-30a1 1 0 0 1 0-2h30a1 1 0 0 1 0 2z" fill="#287ed9"/><path d="m89 30h-10a1 1 0 0 1 0-2h10a1 1 0 0 1 0 2z" fill="#f8fbfa"/><path d="m-9 23.08h30v19.84a2 2 0 0 1 -2 2h-26a2 2 0 0 1 -2-2zm30-2h-30a1 1 0 0 1 -1-1 1 1 0 0 1 1-1h30a1 1 0 0 1 0 2z" fill="#287ed9"/><path d="m11 30h-10a1 1 0 0 1 0-2h10a1 1 0 0 1 0 2z" fill="#f8fbfa"/><rect fill="none" height="90" rx="45" width="90"/><path d="m49.71 63.29-4-4a1 1 0 0 0 -1.42 0l-4 4a1 1 0 0 0 1.41 1.41l2.3-2.29v8.59a1 1 0 0 0 2 0v-8.59l2.29 2.29a1 1 0 0 0 1.41-1.41z" fill="#1c5894"/></g></svg>