<svg xmlns="http://www.w3.org/2000/svg" viewBox="0 0 36 36"><g data-name="Grafika"><path d="M18 0a18 18 0 0 1 18 18 18 18 0 0 1-18 18A18 18 0 0 1 0 18 18 18 0 0 1 18 0z" fill="#89ccff" opacity=".25"/><path d="M15.73 7H8.27A1.27 1.27 0 0 0 7 8.26v14.48A1.27 1.27 0 0 0 8.27 24h7.46A1.27 1.27 0 0 0 17 22.74V8.26A1.27 1.27 0 0 0 15.73 7zm-3.48 22.75H12a.76.76 0 0 1-.75-.75v-.25A.76.76 0 0 1 12 28a.76.76 0 0 1 .64.36.75.75 0 0 1-.39 1.39z" fill="#1c5894"/><path d="M12 27a.76.76 0 0 1-.75-.75v-.5a.75.75 0 0 1 1.5 0v.5A.76.76 0 0 1 12 27zm0-3a.76.76 0 0 1-.75-.75v-.5a.75.75 0 0 1 1.5 0v.5A.76.76 0 0 1 12 24zm0-3a.76.76 0 0 1-.75-.75V20a.76.76 0 0 1 .75-.75h.25A.76.76 0 0 1 13 20a.76.76 0 0 1-.36.64.76.76 0 0 1-.64.36zm13.08-.25h-.53a.75.75 0 1 1 0-1.5h.53a.75.75 0 0 1 0 1.5zm-3.21 0h-.53a.75.75 0 0 1 0-1.5h.53a.75.75 0 1 1 0 1.5zm-3.21 0h-.53a.75.75 0 1 1 0-1.5h.53a.75.75 0 0 1 0 1.5zm-3.21 0h-.53a.75.75 0 0 1 0-1.5h.53a.75.75 0 1 1 0 1.5zM28 21a.76.76 0 0 1-.64-.36.75.75 0 0 1 .39-1.39H28a.76.76 0 0 1 .75.75v.25A.76.76 0 0 1 28 21zm0 6a.76.76 0 0 1-.75-.75v-.5a.75.75 0 0 1 1.5 0v.5A.76.76 0 0 1 28 27zm0-3a.76.76 0 0 1-.75-.75v-.5a.75.75 0 0 1 1.5 0v.5A.76.76 0 0 1 28 24zm0 5.75h-.25A.88.88 0 0 1 28 28a.89.89 0 0 1 .74.74V29a.76.76 0 0 1-.75.75zm-2.92 0h-.53a.75.75 0 1 1 0-1.5h.53a.75.75 0 0 1 0 1.5zm-3.21 0h-.53a.75.75 0 0 1 0-1.5h.53a.75.75 0 1 1 0 1.5zm-3.21 0h-.53a.75.75 0 1 1 0-1.5h.53a.75.75 0 0 1 0 1.5zm-3.21 0h-.53a.75.75 0 0 1 0-1.5h.53a.75.75 0 1 1 0 1.5zM28 16.2a.76.76 0 0 1-.75-.75v-1a6 6 0 0 0-6-6 .75.75 0 0 1 0-1.5 7.46 7.46 0 0 1 7.46 7.46v1a.75.75 0 0 1-.71.79z" fill="#1c5894"/><path d="M28 17.26l-2.5-2.5a.75.75 0 0 1 1.06-1.06L28 15.14l1.44-1.44a.75.75 0 0 1 1.06 1.06z" fill="#1c5894"/></g></svg>