<svg fill="none" height="36" viewBox="0 0 36 36" width="36" xmlns="http://www.w3.org/2000/svg"><g fill="#fff"><path d="m15.73 7h-7.46c-.3351-.00001-.65662.13242-.89451.36843-.23788.23601-.37285.55648-.37549.89157v14.48c.00264.3351.13761.6556.37549.8916.23789.236.55941.3684.89451.3684h7.46c.3351 0 .6566-.1324.8945-.3684s.3729-.5565.3755-.8916v-14.48c-.0026-.33509-.1376-.65556-.3755-.89157s-.5594-.36844-.8945-.36843zm-3.48 22.75h-.25c-.1981-.0026-.3874-.0824-.5275-.2225s-.2199-.3294-.2225-.5275v-.25c.0026-.1981.0824-.3874.2225-.5275s.3294-.2199.5275-.2225c.1284.0011.2544.0346.3664.0976.1119.0629.206.1532.2736.2624.1395.0852.2473.2136.307.3657.0598.1521.0682.3196.0241.4769-.0442.1574-.1385.296-.2686.3948-.1302.0988-.2891.1524-.4525.1526z"/><path d="m12 27c-.1981-.0026-.3874-.0824-.5275-.2225s-.2199-.3294-.2225-.5275v-.5c0-.1989.079-.3897.2197-.5303.1406-.1407.3314-.2197.5303-.2197s.3897.079.5303.2197c.1407.1406.2197.3314.2197.5303v.5c-.0026.1981-.0824.3874-.2225.5275s-.3294.2199-.5275.2225zm0-3c-.1981-.0026-.3874-.0824-.5275-.2225s-.2199-.3294-.2225-.5275v-.5c0-.1989.079-.3897.2197-.5303.1406-.1407.3314-.2197.5303-.2197s.3897.079.5303.2197c.1407.1406.2197.3314.2197.5303v.5c-.0026.1981-.0824.3874-.2225.5275s-.3294.2199-.5275.2225zm0-3c-.1981-.0026-.3874-.0824-.5275-.2225s-.2199-.3294-.2225-.5275v-.25c.0026-.1981.0824-.3874.2225-.5275.1401-.14.3294-.2199.5275-.2225h.25c.1981.0026.3874.0825.5275.2225.1401.1401.2199.3294.2225.5275-.0011.1284-.0346.2545-.0976.3664-.0629.1119-.1532.206-.2624.2736-.0676.1092-.1617.1995-.2736.2624-.112.063-.238.0966-.3664.0976zm13.08-.25h-.53c-.1989 0-.3897-.079-.5303-.2197-.1407-.1406-.2197-.3314-.2197-.5303s.079-.3897.2197-.5303c.1406-.1407.3314-.2197.5303-.2197h.53c.1989 0 .3897.079.5303.2197.1407.1406.2197.3314.2197.5303s-.079.3897-.2197.5303c-.1406.1407-.3314.2197-.5303.2197zm-3.21 0h-.53c-.1989 0-.3897-.079-.5303-.2197-.1407-.1406-.2197-.3314-.2197-.5303s.079-.3897.2197-.5303c.1406-.1407.3314-.2197.5303-.2197h.53c.1989 0 .3897.079.5303.2197.1407.1406.2197.3314.2197.5303s-.079.3897-.2197.5303c-.1406.1407-.3314.2197-.5303.2197zm-3.21 0h-.53c-.1989 0-.3897-.079-.5303-.2197-.1407-.1406-.2197-.3314-.2197-.5303s.079-.3897.2197-.5303c.1406-.1407.3314-.2197.5303-.2197h.53c.1989 0 .3897.079.5303.2197.1407.1406.2197.3314.2197.5303s-.079.3897-.2197.5303c-.1406.1407-.3314.2197-.5303.2197zm-3.21 0h-.53c-.1989 0-.3897-.079-.5303-.2197-.1407-.1406-.2197-.3314-.2197-.5303s.079-.3897.2197-.5303c.1406-.1407.3314-.2197.5303-.2197h.53c.1989 0 .3897.079.5303.2197.1407.1406.2197.3314.2197.5303s-.079.3897-.2197.5303c-.1406.1407-.3314.2197-.5303.2197zm12.55.25c-.1284-.001-.2544-.0346-.3664-.0976-.1119-.0629-.206-.1532-.2736-.2624-.1394-.0852-.2473-.2136-.307-.3657-.0598-.1521-.0682-.3196-.0241-.4769.0442-.1573.1385-.296.2686-.3948.1302-.0988.2891-.1524.4525-.1526h.25c.1981.0026.3874.0825.5275.2225.1401.1401.2199.3294.2225.5275v.25c-.0026.1981-.0824.3874-.2225.5275s-.3294.2199-.5275.2225zm0 6c-.1981-.0026-.3874-.0824-.5275-.2225s-.2199-.3294-.2225-.5275v-.5c0-.1989.079-.3897.2197-.5303.1406-.1407.3314-.2197.5303-.2197s.3897.079.5303.2197c.1407.1406.2197.3314.2197.5303v.5c-.0026.1981-.0824.3874-.2225.5275s-.3294.2199-.5275.2225zm0-3c-.1981-.0026-.3874-.0824-.5275-.2225s-.2199-.3294-.2225-.5275v-.5c0-.1989.079-.3897.2197-.5303.1406-.1407.3314-.2197.5303-.2197s.3897.079.5303.2197c.1407.1406.2197.3314.2197.5303v.5c-.0026.1981-.0824.3874-.2225.5275s-.3294.2199-.5275.2225zm0 5.75h-.25c-.2321-.0331-.4415-.1571-.5821-.3447-.1407-.1875-.2011-.4232-.1679-.6553s.1571-.4414.3447-.5821c.1875-.1406.4232-.201.6553-.1679.1857.0294.3573.1168.4903.2498.1329.1329.2203.3045.2497.4902v.26c-.0026.1981-.0824.3874-.2225.5275s-.3294.2199-.5275.2225zm-2.92 0h-.53c-.1989 0-.3897-.079-.5303-.2197-.1407-.1406-.2197-.3314-.2197-.5303s.079-.3897.2197-.5303c.1406-.1407.3314-.2197.5303-.2197h.53c.1989 0 .3897.079.5303.2197.1407.1406.2197.3314.2197.5303s-.079.3897-.2197.5303c-.1406.1407-.3314.2197-.5303.2197zm-3.21 0h-.53c-.1989 0-.3897-.079-.5303-.2197-.1407-.1406-.2197-.3314-.2197-.5303s.079-.3897.2197-.5303c.1406-.1407.3314-.2197.5303-.2197h.53c.1989 0 .3897.079.5303.2197.1407.1406.2197.3314.2197.5303s-.079.3897-.2197.5303c-.1406.1407-.3314.2197-.5303.2197zm-3.21 0h-.53c-.1989 0-.3897-.079-.5303-.2197-.1407-.1406-.2197-.3314-.2197-.5303s.079-.3897.2197-.5303c.1406-.1407.3314-.2197.5303-.2197h.53c.1989 0 .3897.079.5303.2197.1407.1406.2197.3314.2197.5303s-.079.3897-.2197.5303c-.1406.1407-.3314.2197-.5303.2197zm-3.21 0h-.53c-.1989 0-.3897-.079-.5303-.2197-.1407-.1406-.2197-.3314-.2197-.5303s.079-.3897.2197-.5303c.1406-.1407.3314-.2197.5303-.2197h.53c.1989 0 .3897.079.5303.2197.1407.1406.2197.3314.2197.5303s-.079.3897-.2197.5303c-.1406.1407-.3314.2197-.5303.2197zm12.55-13.55c-.1981-.0026-.3874-.0824-.5275-.2225s-.2199-.3294-.2225-.5275v-1c0-1.5913-.6321-3.1174-1.7574-4.2426-1.1252-1.12525-2.6513-1.75739-4.2426-1.75739-.1989 0-.3897-.07901-.5303-.21967-.1407-.14065-.2197-.33142-.2197-.53033s.079-.38968.2197-.53033c.1406-.14065.3314-.21967.5303-.21967 1.9785 0 3.876.78596 5.275 2.18499 1.399 1.399 2.185 3.2965 2.185 5.275v1c.0054.0985-.0087.1972-.0415.2902-.0328.0931-.0836.1788-.1496.2522-.0659.0733-.1457.133-.2348.1755-.089.0425-.1856.067-.2841.0721z"/><path d="m28 17.26-2.5-2.5c-.1325-.1422-.2046-.3302-.2012-.5245.0035-.1943.0822-.3797.2196-.5171s.3228-.2161.5171-.2196c.1943-.0034.3823.0687.5245.2012l1.44 1.44 1.44-1.44c.1422-.1325.3302-.2046.5245-.2012.1943.0035.3797.0822.5171.2196s.2161.3228.2196.5171c.0034.1943-.0687.3823-.2012.5245z"/></g></svg>