<svg viewBox="0 0 90 90" xmlns="http://www.w3.org/2000/svg" xmlns:xlink="http://www.w3.org/1999/xlink"><clipPath id="a"><circle cx="45" cy="45" r="45"/></clipPath><rect fill="#89ccff" height="90" opacity=".25" rx="45" width="90"/><g clip-path="url(#a)"><rect fill="#1c5894" height="86.13" rx="2" width="50" x="20" y="-11.13"/><path d="m53 62h-22a1 1 0 0 1 0-2h22a1 1 0 0 1 0 2zm6-8h-28a1 1 0 0 1 0-2h28a1 1 0 0 1 0 2z" fill="#5ca5fc"/><path d="m59 31h-28a1 1 0 0 1 0-2h28a1 1 0 0 1 0 2zm0-16h-28a1 1 0 0 1 0-2h28a1 1 0 0 1 0 2zm0 8h-28a1 1 0 0 1 0-2h28a1 1 0 0 1 0 2zm-19 16h-9a1 1 0 0 1 0-2h9a1 1 0 0 1 0 2zm19 0h-9a1 1 0 0 1 0-2h9a1 1 0 0 1 0 2z" fill="#f8fbfa"/><path d="m68 37a8 8 0 0 0 0 16h34v-16z" fill="#5ca5fc"/><path d="m74 40h-7.82a5 5 0 1 0 0 10h7.82c1.66 0 3-2.24 3-5s-1.33-5-3-5z" fill="#1c5894"/></g></svg>