<svg viewBox="0 0 90 90" xmlns="http://www.w3.org/2000/svg" xmlns:xlink="http://www.w3.org/1999/xlink"><clipPath id="a"><circle cx="45" cy="45" r="45"/></clipPath><rect fill="#89ccff" height="90" opacity=".25" rx="45" width="90"/><g clip-path="url(#a)"><circle cx="45" cy="45" fill="#5ca5fc" r="4"/><circle cx="64" cy="45" fill="#5ca5fc" r="4"/><circle cx="26" cy="45" fill="#1c5894" r="4"/><path d="m45 60a8 8 0 0 0 -8 8v52h16v-52a8 8 0 0 0 -8-8z" fill="#5ca5fc"/><path d="m50 66.17v7.83c0 1.66-2.24 3-5 3s-5-1.34-5-3v-7.83a5 5 0 1 1 10 0zm-50-85.17h90v49h-90z" fill="#1c5894"/></g></svg>