<svg xmlns="http://www.w3.org/2000/svg" width="27" height="27"><g fill="#47848F"><path d="M10.565 7.452c-2.902-.55-5.196.026-6.11 1.672-.682 1.228-.487 2.856.473 4.597.082.148.263.2.406.115a.316.316 0 0 0 .11-.423c-.865-1.568-1.033-2.973-.474-3.98.76-1.367 2.806-1.88 5.488-1.372a.299.299 0 0 0 .346-.25.309.309 0 0 0-.24-.359zm-4.128 8.385c1.173 1.34 2.697 2.597 4.435 3.64 4.21 2.525 8.69 3.2 10.898 1.636a.317.317 0 0 0 .078-.43.29.29 0 0 0-.413-.081c-1.977 1.4-6.233.759-10.265-1.66-1.686-1.013-3.162-2.23-4.293-3.521a.29.29 0 0 0-.42-.02.318.318 0 0 0-.02.436z"/><path d="M20.912 15.152c1.884-2.25 2.541-4.512 1.637-6.096-.666-1.166-2.073-1.781-3.944-1.806a.297.297 0 0 0-.298.294c-.003.165.128.3.29.302 1.683.023 2.895.553 3.44 1.508.752 1.316.166 3.334-1.575 5.413a.3.3 0 0 0 .034.42c.124.107.31.091.416-.035zM16.07 7.528c-1.703.369-3.516 1.09-5.257 2.106-4.308 2.515-7.118 6.223-6.728 8.911a.296.296 0 0 0 .335.252.298.298 0 0 0 .249-.339c-.347-2.387 2.317-5.901 6.439-8.307 1.689-.986 3.444-1.684 5.085-2.04a.298.298 0 0 0-.123-.583z"/><path d="M9.319 20.357c1.055 2.936 2.781 4.743 4.724 4.743 1.416 0 2.726-.962 3.748-2.654a.314.314 0 0 0-.108-.432.317.317 0 0 0-.434.107c-.918 1.522-2.046 2.35-3.206 2.35-1.613 0-3.153-1.613-4.13-4.327a.316.316 0 0 0-.594.213zm9.641-.574c.547-1.74.84-3.746.84-5.837 0-5.217-1.833-9.714-4.444-10.869a.315.315 0 1 0-.257.576c2.329 1.03 4.069 5.298 4.069 10.293 0 2.029-.285 3.972-.811 5.648a.316.316 0 0 0 .603.188zm5.04-.458a1.575 1.575 0 1 0-3.15 0 1.575 1.575 0 0 0 3.15 0zm-.658 0a.917.917 0 1 1-1.834 0 .917.917 0 0 1 1.834 0zM4.575 20.9a1.575 1.575 0 1 0 0-3.15 1.575 1.575 0 0 0 0 3.15zm0-.658a.917.917 0 1 1 0-1.834.917.917 0 0 1 0 1.834z"/><path d="M14.025 5.15a1.575 1.575 0 1 0 0-3.15 1.575 1.575 0 0 0 0 3.15zm0-.658a.917.917 0 1 1 0-1.834.917.917 0 0 1 0 1.834zm-.303 11.134a1.05 1.05 0 1 1-.444-2.052 1.05 1.05 0 0 1 .444 2.052z"/></g></svg>