<svg xmlns="http://www.w3.org/2000/svg" width="85" height="92"><g fill="#FFF"><path d="M29.643 19.797c-11.866-2.167-21.248.101-24.987 6.596-2.79 4.846-1.993 11.271 1.934 18.14a1.215 1.215 0 0 0 1.66.45 1.22 1.22 0 0 0 .451-1.665c-3.538-6.186-4.226-11.732-1.938-15.705 3.106-5.395 11.475-7.418 22.444-5.415a1.22 1.22 0 1 0 .436-2.4v-.001zM12.76 52.88c4.797 5.287 11.03 10.246 18.14 14.362 17.212 9.965 35.537 12.629 44.568 6.454.555-.38.698-1.139.32-1.696a1.215 1.215 0 0 0-1.691-.32c-8.083 5.526-25.49 2.996-41.98-6.551-6.897-3.993-12.933-8.795-17.558-13.89a1.214 1.214 0 0 0-1.718-.082 1.222 1.222 0 0 0-.081 1.723z"/><path d="M72.589 51.841c7.773-9.35 10.488-18.753 6.754-25.337C76.596 21.66 70.788 19.102 63.07 19a1.228 1.228 0 0 0-1.233 1.223 1.23 1.23 0 0 0 1.201 1.256c6.942.092 11.945 2.295 14.197 6.265 3.1 5.468.68 13.854-6.505 22.495-.434.525-.37 1.3.143 1.747a1.203 1.203 0 0 0 1.716-.145zm-19.98-31.687c-7.028 1.533-14.51 4.531-21.695 8.754C13.136 39.358 1.538 54.768 3.15 65.94a1.221 1.221 0 0 0 1.381 1.047 1.236 1.236 0 0 0 1.028-1.407c-1.43-9.92 9.563-24.526 26.574-34.525 6.97-4.097 14.214-7 20.988-8.477a1.24 1.24 0 0 0 .935-1.472 1.218 1.218 0 0 0-1.445-.952h-.002z"/><path d="M24.073 73.5C28.194 84.95 34.937 92 42.519 92c5.53 0 10.646-3.75 14.636-10.353a1.225 1.225 0 0 0-.422-1.685 1.238 1.238 0 0 0-1.694.42c-3.586 5.933-7.99 9.162-12.52 9.162-6.298 0-12.312-6.288-16.122-16.872a1.236 1.236 0 0 0-2.277-.112c-.14.295-.157.633-.047.94zm37.647-2.24C63.854 64.478 65 56.653 65 48.499 65 28.15 57.842 10.61 47.646 6.106a1.237 1.237 0 0 0-1.63.624c-.276.62.005 1.346.628 1.621 9.093 4.017 15.887 20.664 15.887 40.147 0 7.91-1.11 15.489-3.167 22.03a1.227 1.227 0 0 0 .81 1.538 1.236 1.236 0 0 0 1.546-.805v-.001zM85 70a6 6 0 1 0-12 0 6 6 0 0 0 12 0zm-2.507 0a3.493 3.493 0 1 1-6.986 0 3.493 3.493 0 0 1 6.986 0zM6 76a6 6 0 1 0 0-12 6 6 0 0 0 0 12zm0-2.507a3.493 3.493 0 1 1 0-6.986 3.493 3.493 0 0 1 0 6.986z"/><path d="M43 12a6 6 0 1 0 0-12 6 6 0 0 0 0 12zm0-2.507a3.493 3.493 0 1 1 0-6.986 3.493 3.493 0 0 1 0 6.986zm-.156 42.416a4 4 0 1 1-1.803-7.794 4 4 0 0 1 1.803 7.794z"/></g></svg>