<svg fill="none" height="200" viewBox="0 0 200 200" width="200" xmlns="http://www.w3.org/2000/svg" xmlns:xlink="http://www.w3.org/1999/xlink"><linearGradient id="a" gradientUnits="userSpaceOnUse" x1="95.7987" x2="114.59" y1="167.937" y2="149.146"><stop offset="0" stop-color="#1a237e" stop-opacity=".4"/><stop offset="1" stop-color="#1a237e" stop-opacity="0"/></linearGradient><radialGradient id="b" cx="29.0955" cy="29.1778" gradientUnits="userSpaceOnUse" r="200.632"><stop offset="0" stop-color="#fff" stop-opacity=".1"/><stop offset="1" stop-color="#fff" stop-opacity="0"/></radialGradient><path d="m63.2207 137.837 25.2148 25.231 69.3765-69.392h-50.446z" fill="#39cefd"/><path d="m107.366 18.0001h50.446l-107.2065 107.2219-25.2306-25.2305z" fill="#39cefd"/><path d="m88.4355 163.068 18.9305 18.915h50.446l-44.146-44.146z" fill="#03569b"/><path d="m125.855 150.105-12.189-12.268-25.2305 25.231z" fill="url(#a)"/><path d="m63.2179 137.829 25.2312-25.232 25.2329 25.232-25.2329 25.231z" fill="#16b9fd"/><path d="m157.812 93.676-44.146 44.161 44.146 44.162h-50.446l-44.161-44.162 44.161-44.161zm-50.446-75.6759-81.9911 81.9914 25.2306 25.2305 107.2065-107.2219z" fill="url(#b)"/></svg>