<svg fill="none" height="36" viewBox="0 0 36 36" width="36" xmlns="http://www.w3.org/2000/svg"><path clip-rule="evenodd" d="m12 11h12c.5523 0 1 .4477 1 1v12c0 .5523-.4477 1-1 1h-12c-.5523 0-1-.4477-1-1v-12c0-.5523.4477-1 1-1zm4.7003 10.3766c.0946.0413.1965.0628.2997.0634h.1c.1098-.0053.217-.0349.3138-.0868.0969-.0519.181-.1247.2462-.2132l4.05-5.37c.1193-.1591.1706-.3591.1425-.5561-.0282-.1969-.1334-.3745-.2925-.4939-.1591-.1193-.3592-.1706-.5561-.1425-.1969.0282-.3746.1334-.4939.2925l-3.51 4.65-1.6-1.65-.09-.1c-.0402-.0535-.0913-.0978-.15-.13-.0802-.0656-.1731-.1138-.2729-.1417-.0997-.0278-.2042-.0348-.3067-.0203-.1026.0145-.2011.0501-.2892.1045-.0881.0545-.164.1266-.2229.2118s-.0995.1817-.1192.2834c-.0198.1016-.0183.2063.0044.3074.0228.101.0661.1963.1275.2798.0613.0834.1393.1533.229.2051l2.14 2.33c.0706.0753.1558.1353.2503.1766z" fill="#fff" fill-rule="evenodd"/></svg>