<svg fill="none" height="36" viewBox="0 0 36 36" width="36" xmlns="http://www.w3.org/2000/svg"><path d="m0 0h36v36h-36z" fill="#fff"/><path d="m36 0h-36v36h36z" fill="#fff"/><path d="m18 36c9.9411 0 18-8.0589 18-18 0-9.94113-8.0589-18-18-18-9.94113 0-18 8.05887-18 18 0 9.9411 8.05887 18 18 18z" fill="#89ccff" opacity=".25"/><path d="m13.6 17.7377 3.3148 3.1956 5.4852-6.6" stroke="#1c5894" stroke-linecap="round" stroke-width="3"/><path d="m9.19998 9.2h17.6v17.6h-17.6z" opacity=".5" stroke="#1c5894" stroke-dasharray="2 2" stroke-width="2"/><g fill="#1c5894"><circle cx="9.2" cy="9.2" r="2.2"/><circle cx="9.2" cy="26.8" r="2.2"/><circle cx="26.8" cy="9.2" r="2.2"/><circle cx="26.8" cy="26.8" r="2.2"/></g></svg>