<svg viewBox="0 0 36 36" xmlns="http://www.w3.org/2000/svg"><path d="M18 0a18 18 0 0 1 18 18 18 18 0 0 1-18 18A18 18 0 0 1 0 18 18 18 0 0 1 18 0z" fill="#89ccff" opacity=".25"/><g fill="#1c5894"><path d="M22 12l3 3v8.25a.76.76 0 0 1-.75.75h-12.5a.76.76 0 0 1-.75-.75v-10.5a.76.76 0 0 1 .75-.75zm.41-1H11.75A1.76 1.76 0 0 0 10 12.75v10.5A1.76 1.76 0 0 0 11.75 25h12.5A1.76 1.76 0 0 0 26 23.25v-8.66l-.29-.3-3-3z"/><path d="M12 22.75v-1.19l3.36-2.5 2.33 1.69 3.77-3.19L24 20.38v2.37a.25.25 0 0 1-.25.25h-11.5a.25.25 0 0 1-.25-.25z"/><circle cx="15" cy="16" r="1.25"/><path d="M22.83 15.25a1.09 1.09 0 0 1-1.08-1.08V12a.25.25 0 0 1 .15-.23h.1a.31.31 0 0 1 .18.07l3 3a.26.26 0 0 1 .05.28.25.25 0 0 1-.23.15z"/><path d="M22 12l3 3h-2.17a.83.83 0 0 1-.83-.83zm0-.5a.43.43 0 0 0-.19 0 .5.5 0 0 0-.31.46v2.17a1.34 1.34 0 0 0 1.33 1.33H25a.5.5 0 0 0 .46-.31.47.47 0 0 0-.11-.54l-3-3a.47.47 0 0 0-.35-.11z"/></g></svg>