<svg fill="none" height="36" viewBox="0 0 36 36" width="36" xmlns="http://www.w3.org/2000/svg"><g fill="#fff"><path d="m22 12 3 3v8.25c-.0026.1981-.0824.3874-.2225.5275s-.3294.2199-.5275.2225h-12.5c-.1981-.0026-.3874-.0824-.5275-.2225s-.2199-.3294-.2225-.5275v-10.5c.0026-.1981.0824-.3874.2225-.5275s.3294-.2199.5275-.2225zm.41-1h-10.66c-.4633.0026-.9069.1878-1.2345.5155-.3277.3276-.5129.7712-.5155 1.2345v10.5c.0026.4633.1878.9069.5155 1.2345.3276.3277.7712.5129 1.2345.5155h12.5c.4633-.0026.9069-.1878 1.2345-.5155.3277-.3276.5129-.7712.5155-1.2345v-8.66l-.29-.3-3-3z"/><path d="m12 22.75v-1.19l3.36-2.5 2.33 1.69 3.77-3.19 2.54 2.82v2.37c0 .0663-.0263.1299-.0732.1768s-.1105.0732-.1768.0732h-11.5c-.0663 0-.1299-.0263-.1768-.0732s-.0732-.1105-.0732-.1768z"/><path d="m15 17.25c.6904 0 1.25-.5596 1.25-1.25s-.5596-1.25-1.25-1.25-1.25.5596-1.25 1.25.5596 1.25 1.25 1.25z"/><path d="m22.83 15.25c-.2856-.0026-.5588-.1172-.7608-.3192s-.3166-.4752-.3192-.7608v-2.17c-.0002-.0488.0139-.0966.0406-.1374.0266-.0409.0647-.0731.1094-.0926h.1c.0659.0036.129.0281.18.07l3 3c.0346.0368.0578.0828.0667.1325.0089.0498.0031.101-.0167.1475-.0195.0447-.0517.0827-.0926.1094-.0408.0266-.0886.0408-.1374.0406z"/><path d="m22 12 3 3h-2.17c-.2201 0-.4312-.0874-.5869-.2431s-.2431-.3668-.2431-.5869zm0-.5c-.0625-.0142-.1275-.0142-.19 0-.0913.0375-.1695.1012-.2246.1831-.0552.0818-.0849.1782-.0854.2769v2.17c.0026.3519.1436.6887.3924.9376.2489.2488.5857.3898.9376.3924h2.17c.0987-.0005.1951-.0302.2769-.0854.0819-.0551.1456-.1333.1831-.2246.0408-.0901.0522-.1908.0324-.2878-.0197-.097-.0696-.1852-.1424-.2522l-3-3c-.048-.0409-.1037-.0717-.1638-.0906-.0602-.0189-.1235-.0255-.1862-.0194z"/></g></svg>