<svg height="36" width="36" xmlns="http://www.w3.org/2000/svg"><g fill="none"><path d="M18 0c9.941 0 18 8.059 18 18s-8.059 18-18 18S0 27.941 0 18 8.059 0 18 0z" fill="#89ccff" opacity=".25"/><path d="M26.036 9.842a.955.955 0 0 0-.964.947v1.05A9.592 9.592 0 0 0 18.322 9c-3.678-.002-6.958 2.274-8.184 5.679a.933.933 0 0 0 .137.972c.227.274.59.4.942.33a.957.957 0 0 0 .733-.668c.954-2.652 3.508-4.424 6.373-4.42a7.445 7.445 0 0 1 6.084 3.152h-2.652a.955.955 0 0 0-.964.946c0 .523.432.947.964.947h4.28A.955.955 0 0 0 27 14.99v-4.2a.955.955 0 0 0-.964-.947zm-.74 10.214a.976.976 0 0 0-.74.037.958.958 0 0 0-.496.545c-.953 2.669-3.507 4.454-6.371 4.454a7.489 7.489 0 0 1-6.13-3.176h1.834a.96.96 0 0 0 .965-.954.96.96 0 0 0-.965-.954H9.965a.96.96 0 0 0-.965.954v3.396a.96.96 0 0 0 .965.954.96.96 0 0 0 .966-.954v-.22A9.642 9.642 0 0 0 17.689 27c3.683.002 6.968-2.292 8.196-5.723.086-.24.073-.503-.038-.732s-.309-.405-.551-.49z" fill="#1c5894"/></g></svg>