<svg viewBox="0 0 90 90" xmlns="http://www.w3.org/2000/svg" xmlns:xlink="http://www.w3.org/1999/xlink"><clipPath id="a"><circle cx="45" cy="45" r="45"/></clipPath><rect fill="#89ccff" height="90" opacity=".25" rx="45" width="90"/><g clip-path="url(#a)"><circle cx="45" cy="68" fill="#89ccff" r="16"/><rect fill="#1c5894" height="10" rx="2" width="50" x="20" y="35"/><rect fill="#287ed9" height="10" rx="2.41" width="86" x="20" y="20"/><g fill="#f8fbfa"><circle cx="26" cy="25" r="2"/><circle cx="33" cy="25" r="2"/><circle cx="40" cy="25" r="2"/><circle cx="47" cy="25" r="2"/><circle cx="54" cy="25" r="2"/><circle cx="61" cy="25" r="2"/><circle cx="68" cy="25" r="2"/><circle cx="75" cy="25" r="2"/></g><rect fill="#287ed9" height="9" rx="2.31" width="86" x="20" y="6"/><rect fill="#f8fbfa" height="3" rx="1.5" width="24.66" x="23.88" y="9"/><rect fill="none" height="90" rx="45" width="90"/><path d="m42.92 68.38a1 1 0 0 0 -.22-1.09l-4-4a1 1 0 0 0 -1.41 1.41l2.3 2.3h-10.54c0 .33-.05.66-.05 1s0 .67.05 1h10.54l-2.29 2.29a1 1 0 1 0 1.41 1.41l4-4a1 1 0 0 0 .21-.32zm18.08-.38c0-.34 0-.67-.05-1h-10.54l2.29-2.29a1 1 0 0 0 -1.41-1.41l-4 4a1 1 0 0 0 0 1.42l4 4a1 1 0 0 0 1.41-1.41l-2.29-2.31h10.54c.05-.33.05-.66.05-1z" fill="#1c5894"/></g></svg>