<svg fill="none" height="200" viewBox="0 0 200 200" width="200" xmlns="http://www.w3.org/2000/svg"><g fill="#478aff"><path d="m99.9308 64.082c-7.0242 0-13.8907 2.114-19.7311 6.0747-5.8403 3.9607-10.3924 9.5901-13.0804 16.1765-2.688 6.5863-3.3914 13.8338-2.021 20.8258 1.3703 6.992 4.7528 13.415 9.7196 18.456 4.9669 5.041 11.295 8.474 18.1843 9.864 6.8892 1.391 14.0298.677 20.5198-2.051 6.489-2.728 12.036-7.348 15.938-13.276 3.903-5.927 5.986-12.896 5.986-20.025-.012-9.5562-3.757-18.7178-10.415-25.4751-6.658-6.7572-15.685-10.5585-25.1002-10.5699z"/><path d="m150.924 67.2777c8.935 0 16.178-7.3512 16.178-16.4193s-7.243-16.4193-16.178-16.4193-16.178 7.3512-16.178 16.4193 7.243 16.4193 16.178 16.4193z"/><path d="m170.844 67.3637-.679-1.5063-1.06 1.2481c-2.652 3.0544-6.006 5.3975-9.764 6.8216l-1.06.3874.424 1.076c5.714 13.9449 6.437 29.4795 2.044 43.9095-4.392 14.43-13.623 26.843-26.091 35.087s-27.386 11.798-42.166 10.046-28.4892-8.701-38.749-19.639c-10.2599-10.939-16.4231-25.178-17.4202-40.247-.9972-15.0683 3.2347-30.0158 11.9612-42.2487 8.7266-12.2329 21.3972-20.9794 35.8135-24.7219s29.6685-2.2448 43.1105 4.2331l.997.4842.434-1.076c1.585-3.74 4.054-7.0255 7.188-9.5654l1.272-1.0759-1.452-.764c-11.034-5.8203-23.292-8.8438-35.7269-8.8122-16.8361.0025-33.2187 5.5386-46.6959 15.7797-13.4773 10.2411-23.3244 24.6365-28.0676 41.0318-4.7431 16.3953-4.1273 33.9083 1.7553 49.9193 5.8826 16.01 16.7157 29.657 30.878 38.897 14.1622 9.24 30.892 13.576 47.6851 12.361 16.794-1.216 32.748-7.918 45.475-19.105 12.726-11.186 21.542-26.255 25.126-42.95 3.584-16.696 1.745-34.121-5.243-49.6671z"/></g></svg>