<svg xmlns="http://www.w3.org/2000/svg" viewBox="0 0 90 90"><defs><clipPath id="a"><circle cx="45" cy="45" r="45" fill="none"/></clipPath></defs><path d="M45 0a45 45 0 0 1 45 45 45 45 0 0 1-45 45A45 45 0 0 1 0 45 45 45 0 0 1 45 0z" fill="#89ccff" data-name="Podlage" opacity=".25"/><g clip-path="url(#a)" data-name="Grafika"><circle cx="45" cy="68" r="16" fill="#89ccff"/><path d="M51 78a1 1 0 0 1 0-2 2.09 2.09 0 0 0 2-2.17v-2.66A4.24 4.24 0 0 1 54.4 68a4.24 4.24 0 0 1-1.4-3.17v-2.66A2.09 2.09 0 0 0 51 60a1 1 0 0 1 0-2 4.09 4.09 0 0 1 4 4.17v2.66A2.09 2.09 0 0 0 57 67a1 1 0 0 1 0 2 2.09 2.09 0 0 0-2 2.17v2.66A4.09 4.09 0 0 1 51 78zm-12 0a4.09 4.09 0 0 1-4-4.17v-2.66A2.09 2.09 0 0 0 33 69a1 1 0 0 1 0-2 2.09 2.09 0 0 0 2-2.17v-2.66A4.09 4.09 0 0 1 39 58a1 1 0 0 1 0 2 2.09 2.09 0 0 0-2 2.17v2.66A4.24 4.24 0 0 1 35.6 68a4.24 4.24 0 0 1 1.4 3.17v2.66A2.09 2.09 0 0 0 39 76a1 1 0 0 1 0 2zm8-15a1 1 0 0 0-1 1v5.82a1.54 1.54 0 0 1-3 0 1 1 0 0 0-2 0 3.52 3.52 0 0 0 7 0V64a1 1 0 0 0-1-1z" fill="#1c5894"/><path d="M45 0a45 45 0 0 1 45 45 45 45 0 0 1-45 45A45 45 0 0 1 0 45 45 45 0 0 1 45 0z" fill="none"/><path d="M68 35.12H22a2 2 0 0 0-2 2v6a2 2 0 0 0 2 2h3.6l3 3 3-3H68a2 2 0 0 0 2-2v-6a2 2 0 0 0-2-2z" fill="#1c5894"/><path d="M68-2H22a2 2 0 0 0-2 2v28a2 2 0 0 0 2 2h37.39l3 3 3-3H68a2 2 0 0 0 2-2V0a2 2 0 0 0-2-2z" fill="#287ed9"/><circle cx="51.12" cy="40.12" r="1.38" fill="#89ccff"/><circle cx="45" cy="40.12" r="1.38" fill="#89ccff"/><circle cx="38.88" cy="40.12" r="1.38" fill="#89ccff"/><path d="M40.88 23H27.33a1 1 0 0 1 0-2h13.55a1 1 0 0 1 0 2zm21.79-12H27.33a1 1 0 0 1 0-2h35.34a1 1 0 0 1 0 2zm0 6H27.33a1 1 0 0 1 0-2h35.34a1 1 0 0 1 0 2z" fill="#f8fbfa"/></g></svg>