<svg viewBox="0 0 36 36" xmlns="http://www.w3.org/2000/svg" xmlns:xlink="http://www.w3.org/1999/xlink"><clipPath id="a"><path d="m18 0a18 18 0 0 1 18 18 18 18 0 0 1 -18 18 18 18 0 0 1 -18-18 18 18 0 0 1 18-18z"/></clipPath><path d="m18 0a18 18 0 0 1 18 18 18 18 0 0 1 -18 18 18 18 0 0 1 -18-18 18 18 0 0 1 18-18z" fill="#89ccff" opacity=".25"/><g clip-path="url(#a)"><path d="m17.23 6.19a.87.87 0 0 0 -.72-.25l-8.64 1-4-4a.76.76 0 1 0 -1.08 1.06l4 4-1 8.64a.87.87 0 0 0 .25.72l12.2 12.2a2 2 0 0 0 1.38.56 2.31 2.31 0 0 0 1.61-.69l8-8a2.31 2.31 0 0 0 .77-1.5 2 2 0 0 0 -.55-1.53z" fill="#1c5894"/><g fill="#d8e6fb"><circle cx="11.1" cy="11.2" r="2"/><path d="m22.42 23.29a.78.78 0 0 1 -.54-.23l-6.37-6.36a.77.77 0 0 1 1.09-1.09l6.4 6.39a.77.77 0 0 1 0 1.09.75.75 0 0 1 -.55.23zm2.82-2.83a.78.78 0 0 1 -.54-.23l-6.36-6.36a.77.77 0 1 1 1.09-1.09l6.36 6.36a.77.77 0 0 1 0 1.09.75.75 0 0 1 -.55.23zm-5.65 5.65a.78.78 0 0 1 -.54-.23l-6.36-6.36a.77.77 0 0 1 1.09-1.09l6.36 6.36a.77.77 0 0 1 0 1.09.75.75 0 0 1 -.55.23z"/></g></g></svg>