<svg viewBox="0 0 90 90" xmlns="http://www.w3.org/2000/svg" xmlns:xlink="http://www.w3.org/1999/xlink"><clipPath id="a"><rect height="90" rx="45" width="90"/></clipPath><rect fill="#89ccff" height="90" opacity=".25" rx="45" width="90"/><g clip-path="url(#a)"><rect fill="#287ed9" height="14" rx="1.76" width="64" x="13" y="49"/><rect fill="#1c5894" height="14" rx="1.76" width="64" x="13" y="27"/><path d="m69 57h-35a1 1 0 0 1 0-2h35a1 1 0 0 1 0 2z" fill="#f8fbfa"/><path d="m34 53a3 3 0 0 0 -2.82 2h-10.18a1 1 0 0 0 0 2h10.18a3 3 0 1 0 2.82-4z" fill="#89ccff"/><circle cx="34" cy="56" fill="#89ccff" r="4"/><path d="m69 35h-9a1 1 0 0 1 0-2h9a1 1 0 0 1 0 2z" fill="#f8fbfa"/><path d="m60 31a3 3 0 0 0 -2.82 2h-36.18a1 1 0 0 0 0 2h36.18a3 3 0 1 0 2.82-4z" fill="#89ccff"/><circle cx="60" cy="34" fill="#89ccff" r="4"/><path d="m33 54v25.16l5.68-5.68 3.65 8.52 3.25-1.62-3.25-8.12h8.93z" fill="#1c5894"/><path d="m60 38a8 8 0 0 1 -8-8v-30h16v30a8 8 0 0 1 -8 8z" fill="#5ca5fc"/><path d="m60 37a5.09 5.09 0 0 1 -5-5.17v-7.83c0-1.66 2.24-3 5-3s5 1.34 5 3v7.83a5.09 5.09 0 0 1 -5 5.17z" fill="#1c5894"/></g></svg>