<svg viewBox="0 0 150 150" xmlns="http://www.w3.org/2000/svg" xmlns:xlink="http://www.w3.org/1999/xlink"><clipPath id="a"><rect height="150" rx="75" width="150"/></clipPath><rect fill="#89ccff" height="150" opacity=".25" rx="74.76" width="150"/><g clip-path="url(#a)"><path d="m75 68-42 32v50h84v-50z" fill="#1c5894"/><path d="m50 25h50v120.5h-50z" fill="#5ca5fc"/><path d="m117.33 150h-84.16v-49.83z" fill="#1c5894"/><path d="m33 150h84v-50l-27.15 16.16z" fill="#287ed9"/><path d="m89 67h-28a1 1 0 0 1 0-2h28a1 1 0 0 1 0 2zm-18 8h-10a1 1 0 0 1 0-2h10a1 1 0 0 1 0 2z" fill="#1c5894"/><path d="m89 91h-28a1 1 0 0 1 0-2h28a1 1 0 0 1 0 2z" fill="#f8fbfa"/><path d="m89 59h-28a1 1 0 0 1 0-2h28a1 1 0 0 1 0 2z" fill="#1c5894"/><path d="m89 107h-28a1 1 0 0 1 0-2h28a1 1 0 0 1 0 2zm0-8h-28a1 1 0 0 1 0-2h28a1 1 0 0 1 0 2zm-18 16h-10a1 1 0 0 1 0-2h10a1 1 0 0 1 0 2zm18-32h-28a1 1 0 0 1 0-2h28a1 1 0 0 1 0 2z" fill="#f8fbfa"/><circle cx="67.5" cy="42.5" fill="#1c5894" r="7.5"/></g></svg>