<svg xmlns="http://www.w3.org/2000/svg" width="27" height="27"><g fill="#8CC84B"><path d="M12.553 2.244a1.958 1.958 0 0 1 1.894 0c2.884 1.614 5.77 3.225 8.653 4.839.543.302.905.9.9 1.519v9.707c.004.644-.395 1.256-.967 1.551l-8.622 4.816a1.902 1.902 0 0 1-1.916-.053c-.862-.495-1.725-.987-2.587-1.48-.176-.105-.375-.187-.499-.357.11-.146.307-.165.466-.229.36-.113.69-.295 1.021-.471.084-.057.186-.035.266.016.737.418 1.467.849 2.207 1.263.157.09.317-.03.452-.104 2.821-1.578 5.646-3.15 8.466-4.73a.277.277 0 0 0 .154-.273c.002-3.202 0-6.404 0-9.606a.3.3 0 0 0-.18-.3c-2.865-1.597-5.728-3.197-8.592-4.794a.3.3 0 0 0-.338 0C10.467 5.154 7.604 6.755 4.74 8.352a.296.296 0 0 0-.182.299v9.607c-.01.113.052.22.156.27l2.294 1.282c.431.23.96.366 1.435.19.42-.149.713-.572.705-1.012.004-3.184-.002-6.367.003-9.55-.01-.142.125-.258.263-.245.368-.002.735-.005 1.103 0 .153-.002.259.15.24.292-.002 3.204.004 6.407-.003 9.61.001.855-.353 1.784-1.151 2.201-.983.504-2.197.397-3.168-.086-.84-.415-1.643-.905-2.469-1.35-.573-.294-.97-.909-.966-1.552V8.602c-.006-.632.371-1.24.93-1.538l8.624-4.82z"/><path d="M14.936 8.714c1.207-.082 2.5-.048 3.585.58.841.48 1.308 1.49 1.322 2.475-.023.133-.155.207-.275.198-.35 0-.7.005-1.05-.003-.15.006-.236-.138-.254-.277-.101-.472-.345-.939-.766-1.167-.645-.34-1.394-.324-2.099-.317-.514.03-1.067.076-1.502.395-.335.242-.436.73-.317 1.123.112.282.421.373.674.457 1.454.401 2.996.362 4.423.89.59.215 1.168.634 1.37 1.287.265.875.15 1.92-.44 2.623-.479.578-1.176.892-1.87 1.063-.925.217-1.884.223-2.823.126-.882-.106-1.8-.35-2.482-.985-.583-.534-.867-1.366-.84-2.169a.239.239 0 0 1 .259-.219c.352-.003.705-.004 1.058 0 .14-.01.245.119.252.259.065.45.225.92.597 1.187.716.488 1.616.455 2.437.469.68-.032 1.443-.042 1.998-.516.293-.27.38-.723.3-1.113-.086-.328-.411-.481-.691-.582-1.436-.479-2.995-.305-4.417-.847-.577-.215-1.136-.623-1.358-1.249-.31-.885-.167-1.981.484-2.66.636-.675 1.553-.935 2.425-1.028z"/></g></svg>