<svg data-name="Layer 1" xmlns="http://www.w3.org/2000/svg" viewBox="0 0 36 36"><path d="M24.9 20.81a2.43 2.43 0 0 1 .05-.26c1-4-1.42-8.68-5.55-11.13a9.65 9.65 0 0 1 1.89 8c-.05.25-.16.46-.21.66a2.87 2.87 0 0 1-.35-.2 54.12 54.12 0 0 1-8.51-7 47.82 47.82 0 0 0 5.19 6.54 54.34 54.34 0 0 1-7.33-5.57 11.1 11.1 0 0 0 1 1.38 43.32 43.32 0 0 0 7.54 7.92 8.64 8.64 0 0 1-8.21 0 11.48 11.48 0 0 1-2.09-1.28A12.6 12.6 0 0 0 14 24.74a9 9 0 0 0 7.8 0c.86-.56 3.21-1.43 4.38.87.2.46.76-2.25-1.28-4.8z" fill="#fff"/><rect x="6" y="6" width="24" height="24" rx="5" ry="5" fill="#0088a6"/><path d="M24 20.52v.16a4.31 4.31 0 0 1-.17.44c-.08.17-.17.34-.26.51l-.27.5c-.1.15-.18.29-.27.4s-.31.43-.47.64a3.86 3.86 0 0 1-.51.55 2.92 2.92 0 0 1-.59.4 1.71 1.71 0 0 1-.69.16 2.38 2.38 0 0 1-.81-.14l-.41-.14-.35-.14a2.46 2.46 0 0 0-.41-.1 2.79 2.79 0 0 0-1.23 0c-.2.06-.39.12-.56.19l-.53.21a2.15 2.15 0 0 1-.62.11 1.46 1.46 0 0 1-.68-.14 3.33 3.33 0 0 1-.61-.42 5 5 0 0 1-.54-.58l-.49-.66a4 4 0 0 1-.26-.4c-.1-.16-.19-.32-.28-.49s-.18-.34-.26-.5a4 4 0 0 1-.18-.41c0-.11-.08-.24-.13-.39s-.1-.31-.14-.48l-.12-.48c0-.15-.06-.29-.07-.4s0-.25-.05-.42v-1.36c0-.09.05-.29.09-.47s.09-.34.14-.51a4.4 4.4 0 0 1 .18-.48 3.42 3.42 0 0 1 .17-.37 3.8 3.8 0 0 1 .58-.73 3.3 3.3 0 0 1 .73-.56 4.09 4.09 0 0 1 .83-.36 3.46 3.46 0 0 1 .92-.13 2.07 2.07 0 0 1 .7.09 5.51 5.51 0 0 1 .65.21l.59.21a1.61 1.61 0 0 0 .5.09 1.52 1.52 0 0 0 .51-.1l.64-.21c.23-.08.48-.15.73-.22a2.78 2.78 0 0 1 .76-.1H21a3.88 3.88 0 0 1 .75.11 3.39 3.39 0 0 1 .71.28 4 4 0 0 1 .64.43 3.69 3.69 0 0 1 .53.58l-.15.1-.16.12-.14.12-.1.09-.29.33a3.3 3.3 0 0 0-.3.43 4.74 4.74 0 0 0-.26.5 2.48 2.48 0 0 0-.16 1 3.71 3.71 0 0 0 0 .47c0 .15.06.3.1.44a2.24 2.24 0 0 0 .14.39 3.51 3.51 0 0 0 .28.45 4 4 0 0 0 .89.89 1.54 1.54 0 0 0 .52.29zm-3.1-10.33a2.15 2.15 0 0 1 0 .62 3 3 0 0 1-.13.61 3.53 3.53 0 0 1-.25.56 3.61 3.61 0 0 1-.33.5 3 3 0 0 1-.43.44 2.56 2.56 0 0 1-.53.35 3.18 3.18 0 0 1-.58.23 2.56 2.56 0 0 1-.62.07A2.08 2.08 0 0 1 18 13a2.93 2.93 0 0 1 .15-.6 3 3 0 0 1 .25-.55 4.13 4.13 0 0 1 .32-.46 3.07 3.07 0 0 1 .45-.43 3.84 3.84 0 0 1 .54-.35 3.33 3.33 0 0 1 .58-.26 2.07 2.07 0 0 1 .61-.16z" fill="#fff"/></svg>