<svg viewBox="0 0 36 36" xmlns="http://www.w3.org/2000/svg" xmlns:xlink="http://www.w3.org/1999/xlink"><clipPath id="a"><path d="m18 0a18 18 0 0 1 18 18 18 18 0 0 1 -18 18 18 18 0 0 1 -18-18 18 18 0 0 1 18-18z"/></clipPath><path d="m18 0a18 18 0 0 1 18 18 18 18 0 0 1 -18 18 18 18 0 0 1 -18-18 18 18 0 0 1 18-18z" fill="#89ccff" opacity=".25"/><g clip-path="url(#a)" fill="#1c5894"><path d="m-7 26.75h16a.75.75 0 0 0 0-1.5h-16a.76.76 0 0 0 -.75.75.76.76 0 0 0 .75.75zm16.75 3.25a.76.76 0 0 0 -.75-.75h-16a.76.76 0 0 0 -.75.75.76.76 0 0 0 .75.75h16a.76.76 0 0 0 .75-.75z"/><circle cx="29.24" cy="18" r="3.5"/><path d="m19 13.21a.8.8 0 0 0 -1.12 1.13l2.92 2.92h-6v-10.26a.75.75 0 0 0 -.75-.75h-20.05a.76.76 0 0 0 -.75.75.76.76 0 0 0 .75.75h19.25v9.5h-3.48a3.5 3.5 0 1 0 0 1.5h3.48v19.18h-19.09a.76.76 0 0 0 -.75.75.76.76 0 0 0 .75.75h19.84a.76.76 0 0 0 .75-.75v-19.93h5.57l-2.46 2.46a.8.8 0 0 0 0 1.13.79.79 0 0 0 1.13.05l.05-.06 4-4a.81.81 0 0 0 0-1.12z"/></g></svg>