<svg viewBox="0 0 36 36" xmlns="http://www.w3.org/2000/svg"><rect fill="#ef5138" height="24" rx="5" width="24" x="6" y="6"/><path d="m24.9 20.81a2.43 2.43 0 0 1 .05-.26c1-4-1.42-8.68-5.55-11.13a9.65 9.65 0 0 1 1.89 8c-.05.25-.16.46-.21.66a2.87 2.87 0 0 1 -.35-.2 54.12 54.12 0 0 1 -8.51-7 47.82 47.82 0 0 0 5.19 6.54 54.34 54.34 0 0 1 -7.33-5.57 11.1 11.1 0 0 0 1 1.38 43.32 43.32 0 0 0 7.54 7.92 8.64 8.64 0 0 1 -8.21 0 11.48 11.48 0 0 1 -2.09-1.28 12.6 12.6 0 0 0 5.68 4.87 9 9 0 0 0 7.8 0c.86-.56 3.21-1.43 4.38.87.2.46.76-2.25-1.28-4.8z" fill="#fff"/></svg>