<svg xmlns="http://www.w3.org/2000/svg" viewBox="0 0 90 90"><defs><clipPath id="a"><circle cx="45" cy="45" r="45" fill="none"/></clipPath></defs><rect width="90" height="90" rx="45" ry="45" fill="#89ccff" opacity=".25" data-name="Podlage"/><g clip-path="url(#a)" data-name="Grafika"><path d="M46 24v-3h4a1 1 0 0 0 0-2H40a1 1 0 0 0 0 2h4v3a20.93 20.93 0 0 0-20 20.9v.1a21 21 0 0 0 20.95 21h.1A21 21 0 0 0 66 45.05v-.1A20.93 20.93 0 0 0 46 24z" fill="#1c5894"/><path d="M45 31a1 1 0 0 1-1-1v-2a1 1 0 0 1 2 0v2a1 1 0 0 1-1 1zm0 32a1 1 0 0 1-1-1v-2a1 1 0 0 1 2 0v2a1 1 0 0 1-1 1zM30 46h-2a1 1 0 0 1 0-2h2a1 1 0 0 1 0 2zm32 0h-2a1 1 0 0 1 0-2h2a1 1 0 0 1 0 2z" fill="#f8fbfa"/><path d="M56.74 34.33a1 1 0 0 0-1.41-.07l-8.92 8.11A3 3 0 0 0 45 42a3 3 0 1 0 2.77 1.84l8.91-8.1a1 1 0 0 0 .06-1.41z" fill="#89ccff"/><path d="M52 13a6.26 6.26 0 0 0-6.45-6H0v12h45.55A6.26 6.26 0 0 0 52 13z" fill="#5ca5fc"/><path d="M47.77 7H37a4.12 4.12 0 0 0 4.23 4h6.54A4.12 4.12 0 0 0 52 7z" fill="#1c5894"/></g></svg>