<svg height="27" width="27" xmlns="http://www.w3.org/2000/svg"><path d="m13.89 7.13c-3.218.28-7.163 3.136-9.48 6.908-2.316 3.773-2.629 6.962-2.629 6.962h8.7s-1.669-7.424 3.846-10.433c1.2-.569 5.031-2.703 11.281 1.822.2-.16.391-.29.391-.29s-5.729-5.591-12.109-4.969zm6.07-.122a5.47 5.47 0 0 0 -1.07-.382l-.042.71c.363.119.715.249 1.07.382l.043-.71zm-1.136 3.685c.367.012.731.055 1.09.13l.043-.668a7.982 7.982 0 0 0 -1.09-.142zm-4.034-4.036h.11l-.229-.657c-.354 0-.708.022-1.059.065l.211.634c.32-.03.643-.045.965-.042zm.527 3.964.254.744c.31-.15.632-.278.961-.382l-.242-.71c-.33.097-.654.214-.969.351zm-5.005-2.851-.496-.725c-.277.142-.562.29-.859.462l.508.764c.289-.183.562-.344.848-.5zm2.258 4.85.528.764c.194-.271.41-.527.648-.763l-.496-.734a6.073 6.073 0 0 0 -.676.749l-.004-.015zm-1.27 2.294a10.14 10.14 0 0 0 -.331 1.184l.894.69a8.43 8.43 0 0 1 .23-1.26l-.792-.614zm-5.151-3.924-.78-.668c-.286.27-.563.538-.817.81l.847.71c.235-.297.486-.58.75-.852zm-3.328 4.8-1.271-.438c-.21.466-.44 1.004-.55 1.295l1.27.454c.14-.367.37-.897.55-1.31zm7.992 3.055c.016.456.06.91.133 1.36l1.325.462c-.113-.463-.202-.93-.266-1.402l-1.191-.42z" fill="#cb2026"/></svg>