<svg viewBox="0 0 90 90" xmlns="http://www.w3.org/2000/svg" xmlns:xlink="http://www.w3.org/1999/xlink"><clipPath id="a"><circle cx="45" cy="45" r="45"/></clipPath><rect fill="#89ccff" height="90" opacity=".25" rx="45" width="90"/><g clip-path="url(#a)"><rect fill="#1c5894" height="45" rx="2" width="38" x="26"/><path d="m59 34h-28a1 1 0 0 1 0-2h28a1 1 0 0 1 0 2zm-18 6h-10a1 1 0 0 1 0-2h10a1 1 0 0 1 0 2z" fill="#89ccff"/><path d="m41 28h-10a1 1 0 0 1 0-2h10a1 1 0 0 1 0 2z" fill="#f8fbfa"/><path d="m59 28h-10a1 1 0 0 1 0-2h10a1 1 0 0 1 0 2z" fill="#89ccff"/><path d="m59 22h-28a1 1 0 0 1 0-2h28a1 1 0 0 1 0 2zm0-6h-28a1 1 0 0 1 0-2h28a1 1 0 0 1 0 2zm0-6h-28a1 1 0 0 1 0-2h28a1 1 0 0 1 0 2z" fill="#f8fbfa"/><rect fill="#1c5894" height="30" rx="2" width="38" x="-19" y="15"/><path d="m14 34h-28a1 1 0 0 1 -1-1 1 1 0 0 1 1-1h28a1 1 0 0 1 0 2zm0 6h-10a1 1 0 0 1 0-2h10a1 1 0 0 1 0 2zm0-12h-28a1 1 0 0 1 -1-1 1 1 0 0 1 1-1h28a1 1 0 0 1 0 2zm0-6h-28a1 1 0 0 1 -1-1 1 1 0 0 1 1-1h28a1 1 0 0 1 0 2z" fill="#89ccff"/><rect fill="#1c5894" height="45" rx="2" width="38" x="71"/><path d="m104 34h-28a1 1 0 0 1 0-2h28a1 1 0 0 1 0 2zm-18 6h-10a1 1 0 0 1 0-2h10a1 1 0 0 1 0 2z" fill="#89ccff"/><path d="m86 28h-10a1 1 0 0 1 0-2h10a1 1 0 0 1 0 2zm18-6h-28a1 1 0 0 1 0-2h28a1 1 0 0 1 0 2zm0-6h-28a1 1 0 0 1 0-2h28a1 1 0 0 1 0 2z" fill="#f8fbfa"/><circle cx="45" cy="68" fill="#89ccff" r="16"/><path d="m56.92 72.38a1 1 0 0 0 -.22-1.09l-4-4a1 1 0 0 0 -1.41 1.41l2.3 2.3h-10.59a1 1 0 0 0 0 2h10.59l-2.29 2.29a1 1 0 1 0 1.41 1.41l4-4a1 1 0 0 0 .21-.32zm-8.92-8.38h-10.59l2.29-2.29a1 1 0 0 0 -1.41-1.41l-4 4a1 1 0 0 0 0 1.42l4 4a1 1 0 0 0 1.41-1.41l-2.29-2.31h10.59a1 1 0 0 0 0-2z" fill="#1c5894"/></g></svg>