<svg fill="none" height="36" viewBox="0 0 36 36" width="36" xmlns="http://www.w3.org/2000/svg"><g fill="#fff"><path d="m13.4 26.4 8.6-8.6 2.5-.9.2.2c-.8.8-.8 2 0 2.7.7.7 1.9.8 2.7 0l.2.2-.9 2.5-1.7 1.9z"/><path d="m30.2 18.5c-.4.4-1 .4-1.4 0l-.7-.7-1.4 1.4c-.4.4-1 .4-1.4 0s-.4-1 0-1.4l1.4-1.4-.7-.7c-.4-.4-.4-1 0-1.4l3.1-3.1c.2-.2.5-.2.7 0l3.4 3.4c.2.2.2.5 0 .7z"/><path d="m13.4 25.5h-11.7c.2.5.5 1 .8 1.5h11c.2 0 .4-.1.5-.2s.2-.3.2-.5-.1-.4-.2-.5c-.2-.2-.4-.3-.6-.3z" opacity=".5"/><path d="m32.8 7.70001-2.2 2.2c-.2.19999-.2.49999 0 .69999l3.4 3.4c.2.2.5.2.7 0l.7-.7c-.6-2-1.5-3.89999-2.6-5.59999z"/></g></svg>