<svg fill="none" height="36" viewBox="0 0 36 36" width="36" xmlns="http://www.w3.org/2000/svg"><path d="m24.5 6h-13c-.3978 0-.7794.15804-1.0607.43934s-.4393.66284-.4393 1.06066v6c0 .3978.158.7794.4393 1.0607s.6629.4393 1.0607.4393h7.26l2 2 2-2h1.74c.397-.0026.777-.1615 1.0578-.4422.2807-.2808.4396-.6608.4422-1.0578v-6c0-.39782-.158-.77936-.4393-1.06066s-.6629-.43934-1.0607-.43934zm-6 7h-6c-.1326 0-.2598-.0527-.3536-.1464-.0937-.0938-.1464-.221-.1464-.3536s.0527-.2598.1464-.3536c.0938-.0937.221-.1464.3536-.1464h6c.1326 0 .2598.0527.3536.1464.0937.0938.1464.221.1464.3536s-.0527.2598-.1464.3536c-.0938.0937-.221.1464-.3536.1464zm5-2h-11c-.1326 0-.2598-.0527-.3536-.1464-.0937-.0938-.1464-.221-.1464-.3536s.0527-.2598.1464-.3536c.0938-.0937.221-.1464.3536-.1464h11c.1326 0 .2598.0527.3536.1464.0937.0938.1464.221.1464.3536s-.0527.2598-.1464.3536c-.0938.0937-.221.1464-.3536.1464zm0-2h-11c-.1326 0-.2598-.05268-.3536-.14645-.0937-.09376-.1464-.22094-.1464-.35355s.0527-.25979.1464-.35355c.0938-.09377.221-.14645.3536-.14645h11c.1326 0 .2598.05268.3536.14645.0937.09376.1464.22094.1464.35355s-.0527.25979-.1464.35355c-.0938.09377-.221.14645-.3536.14645zm-1 9h-9c-.3978 0-.7794.158-1.0607.4393s-.4393.6629-.4393 1.0607v9c0 .3978.158.7794.4393 1.0607s.6629.4393 1.0607.4393h9c.3978 0 .7794-.158 1.0607-.4393s.4393-.6629.4393-1.0607v-9c0-.3978-.158-.7794-.4393-1.0607s-.6629-.4393-1.0607-.4393zm-9.5 10.5v-9c0-.1326.0527-.2598.1464-.3536.0938-.0937.221-.1464.3536-.1464h9c.1326 0 .2598.0527.3536.1464.0937.0938.1464.221.1464.3536v4.5h-3c-.5304 0-1.0391.2107-1.4142.5858s-.5858.8838-.5858 1.4142v3h-4.5c-.1326 0-.2598-.0527-.3536-.1464-.0937-.0938-.1464-.221-.1464-.3536zm9.5.5h-3.79l4.29-4.29v3.79c0 .1326-.0527.2598-.1464.3536-.0938.0937-.221.1464-.3536.1464z" fill="#fff"/></svg>