<svg viewBox="0 0 36 36" xmlns="http://www.w3.org/2000/svg"><path d="m18 0a18 18 0 0 1 18 18 18 18 0 0 1 -18 18 18 18 0 0 1 -18-18 18 18 0 0 1 18-18z" fill="#89ccff" opacity=".25"/><path d="m24.5 6h-13a1.5 1.5 0 0 0 -1.5 1.5v6a1.5 1.5 0 0 0 1.5 1.5h7.26l2 2 2-2h1.74a1.51 1.51 0 0 0 1.5-1.5v-6a1.5 1.5 0 0 0 -1.5-1.5zm-6 7h-6a.5.5 0 0 1 0-1h6a.5.5 0 0 1 0 1zm5-2h-11a.5.5 0 0 1 0-1h11a.5.5 0 0 1 0 1zm0-2h-11a.5.5 0 0 1 0-1h11a.5.5 0 0 1 0 1zm-1 9h-9a1.5 1.5 0 0 0 -1.5 1.5v9a1.5 1.5 0 0 0 1.5 1.5h9a1.5 1.5 0 0 0 1.5-1.5v-9a1.5 1.5 0 0 0 -1.5-1.5zm-9.5 10.5v-9a.5.5 0 0 1 .5-.5h9a.5.5 0 0 1 .5.5v4.5h-3a2 2 0 0 0 -2 2v3h-4.5a.5.5 0 0 1 -.5-.5zm9.5.5h-3.79l4.29-4.29v3.79a.5.5 0 0 1 -.5.5z" fill="#1c5894"/></svg>