<svg viewBox="0 0 150 150" xmlns="http://www.w3.org/2000/svg" xmlns:xlink="http://www.w3.org/1999/xlink"><clipPath id="a"><path d="m75 0a75 75 0 0 1 75 75 75 75 0 0 1 -75 75 75 75 0 0 1 -75-75 75 75 0 0 1 75-75z"/></clipPath><rect fill="#89ccff" height="150" opacity=".25" rx="74.76" width="150"/><g clip-path="url(#a)"><path d="m75 0a75 75 0 0 1 75 75 75 75 0 0 1 -75 75 75 75 0 0 1 -75-75 75 75 0 0 1 75-75z" fill="none"/><path d="m114 99.7h-78a2 2 0 0 0 -2 2v12a2 2 0 0 0 2 2h6.77l5 5 5-5h61.23a2 2 0 0 0 2-2v-12a2 2 0 0 0 -2-2z" fill="#5ca5fc"/><path d="m114 35h-78a2 2 0 0 0 -2 2v48a2 2 0 0 0 2 2h62.89l5 5 5-5h5.11a2 2 0 0 0 2-2v-48a2 2 0 0 0 -2-2z" fill="#1c5894"/><g fill="#ddeafd"><circle cx="85.14" cy="107.7" r="2.3"/><circle cx="74.98" cy="107.7" r="2.3"/><circle cx="64.81" cy="107.7" r="2.3"/></g><path d="m68.13 76.14h-22.51a1 1 0 1 1 0-2h22.5a1 1 0 0 1 0 2zm36.2-26.04h-58.71a1 1 0 0 1 0-2h58.71a1 1 0 0 1 0 2zm0 13.02h-58.71a1 1 0 0 1 0-2h58.71a1 1 0 0 1 0 2z" fill="#f8fbfa"/></g></svg>