<svg fill="none" height="36" viewBox="0 0 36 36" width="36" xmlns="http://www.w3.org/2000/svg"><path d="m26.54 24-5.44-5.44c.7208-1.3356.937-2.8859.6089-4.3677-.328-1.4818-1.1784-2.7961-2.3955-3.7026-1.2172-.90659-2.72-1.34484-4.2337-1.23472-1.5136.11012-2.9371.76122-4.0103 1.83442-1.07316 1.0732-1.7243 2.4967-1.83443 4.0103-.11012 1.5137.32814 3.0165 1.23463 4.2337.9066 1.2172 2.2209 2.0675 3.7027 2.3955 1.4818.3281 3.0321.1119 4.3677-.6089l5.46 5.42c.1406.1405.3312.2193.53.2193.1987 0 .3894-.0788.53-.2193l1.5-1.5c.1318-.1423.2033-.3301.1996-.524s-.0824-.3789-.2196-.516zm-15.8-8.45c0-.9533.2827-1.8852.8123-2.6778.5296-.7927 1.2824-1.4105 2.1632-1.7753.8807-.3648 1.8498-.4603 2.7848-.2743s1.7939.6451 2.468 1.3191c.674.6741 1.1331 1.533 1.3191 2.468s.0905 1.9041-.2743 2.7848c-.3648.8808-.9826 1.6336-1.7753 2.1632-.7926.5296-1.7245.8123-2.6778.8123-1.2783 0-2.5043-.5078-3.4083-1.4117-.9039-.904-1.4117-2.13-1.4117-3.4083z" fill="#fff"/></svg>