<svg viewBox="0 0 36 36" xmlns="http://www.w3.org/2000/svg"><path d="m18 0a18 18 0 0 1 18 18 18 18 0 0 1 -18 18 18 18 0 0 1 -18-18 18 18 0 0 1 18-18z" fill="#89ccff" opacity=".25"/><path d="m24.46 10-6.25-1.76a.75.75 0 0 0 -.42 0l-6.25 1.76a.79.79 0 0 0 -.58.76v8.62c0 5.73 6.48 8.29 6.76 8.4a.8.8 0 0 0 .57 0c.28-.11 6.76-2.67 6.76-8.4v-8.67a.79.79 0 0 0 -.59-.71z" fill="#1c5894"/><path d="m17 20.75a.75.75 0 0 1 -.53-.22l-2-2a.75.75 0 0 1 1.06-1.06l1.47 1.53 3.92-3.52a.75.75 0 1 1 1 1.12l-4.45 4a.72.72 0 0 1 -.47.15z" fill="#d8e6fb"/></svg>