<svg viewBox="0 0 90 90" xmlns="http://www.w3.org/2000/svg" xmlns:xlink="http://www.w3.org/1999/xlink"><clipPath id="a"><circle cx="45" cy="45" r="45"/></clipPath><path d="m45 0a45 45 0 0 1 45 45 45 45 0 0 1 -45 45 45 45 0 0 1 -45-45 45 45 0 0 1 45-45z" fill="#89ccff" opacity=".25"/><g clip-path="url(#a)"><path d="m52 13a6.26 6.26 0 0 0 -6.45-6h-45.55v12h45.55a6.26 6.26 0 0 0 6.45-6z" fill="#5ca5fc"/><path d="m47.77 7h-10.77a4.12 4.12 0 0 0 4.23 4h6.54a4.12 4.12 0 0 0 4.23-4zm8.23 38v-14.79a11 11 0 0 0 -22 0v14.79a6 6 0 0 0 -6 6v18a6 6 0 0 0 6 6h22a6 6 0 0 0 6-6v-18a6 6 0 0 0 -6-6zm-4 0h-14v-14.79a7 7 0 0 1 14 0z" fill="#1c5894"/><path d="m47 60.46v3.54a2 2 0 0 1 -4 0v-3.54a4 4 0 1 1 4 0z" fill="#f8fbfa"/></g></svg>