<svg fill="none" height="36" viewBox="0 0 36 36" width="36" xmlns="http://www.w3.org/2000/svg"><path clip-rule="evenodd" d="m22.84 16.0093c-.1987 0-.3894-.0789-.53-.2193l-2.48-2.48c-.1404-.1406-.2193-.3313-.2193-.53 0-.1988.0789-.3894.2193-.53l8.7862-8.78616c.7449.54404 1.4513 1.14783 2.1117 1.80823.531.53101 1.0254 1.09179 1.4816 1.67841l-8.8395 8.83952c-.1406.1404-.3312.2193-.53.2193zm12.0401 8.2407h-29.2201c-.19891 0-.38967.079-.53033.2197-.14065.1406-.21967.3314-.21967.5303s.07902.3897.21967.5303c.14066.1407.33142.2197.53033.2197h28.5862c.2338-.4902.4453-.9907.6339-1.5zm-16.3501-6.1c-.1405.1407-.3312.2198-.53.22-.2019.0003-.3958-.0787-.54-.22-.1404-.1406-.2193-.3312-.2193-.53s.0789-.3894.2193-.53l1.33-1.33-.09-.09c-.1325-.1422-.2046-.3302-.2012-.5245.0035-.1943.0822-.3797.2196-.5171s.3228-.2162.5171-.2196.3823.0687.5245.2012l1.24 1.24.11.06c.0786.0739.1409.1635.1826.263.0418.0995.0622.2067.0599.3146-.0024.1079-.0273.2141-.0733.3117s-.1121.1845-.1938.255c-.0817.0704-.1774.1229-.2807.154-.1033.0312-.2121.0402-.3191.0266-.1071-.0136-.2101-.0495-.3023-.1055-.0923-.056-.1718-.1307-.2333-.2194l-.09-.09zm-12.16 3.2293c-.19875 0-.38937-.0789-.53-.2193-.14045-.1406-.21934-.3313-.21934-.53 0-.1988.07889-.3894.21934-.53l2.1-2.1-2.1-2.1c-.13248-.1422-.2046-.3302-.20117-.5245s.08214-.3797.21955-.5171c.13742-.1374.3228-.2161.5171-.2196.1943-.0034.38235.0687.52452.2012l2.1 2.1 2.1-2.1c.1422-.1325.3302-.2046.5245-.2012.1943.0035.3797.0822.5171.2196s.2162.3228.2196.5171-.0687.3823-.2012.5245l-2.1 2.1 2.14 2.16c.0535.0402.0978.0913.13.15.0943.1632.1237.3558.0824.5397s-.1503.3455-.3054.4526c-.155.1071-.3447.152-.5313.1256s-.3564-.122-.4757-.2679l-2.1-2.1-2.1 2.1c-.14062.1404-.33125.2193-.53.2193z" fill="#fff" fill-rule="evenodd"/></svg>