<svg xmlns="http://www.w3.org/2000/svg" viewBox="0 0 36 36"><defs><clipPath id="a"><path d="M18 0a18 18 0 0 1 18 18 18 18 0 0 1-18 18A18 18 0 0 1 0 18 18 18 0 0 1 18 0z" fill="none"/></clipPath></defs><g data-name="Grafika"><path d="M18 0a18 18 0 0 1 18 18 18 18 0 0 1-18 18A18 18 0 0 1 0 18 18 18 0 0 1 18 0z" fill="#89ccff" opacity=".25"/><g clip-path="url(#a)" fill="#1c5894"><path d="M22.31 15.79a.75.75 0 0 0 1.06 0l14.4-14.4a.75.75 0 0 0 0-1.06l-2.48-2.48a.75.75 0 0 0-.53-.22.75.75 0 0 0-.53.22l-14.4 14.4a.75.75 0 0 0 0 1.06zM18 18.37a.75.75 0 0 0 .53-.22l1.33-1.33.09.09a.77.77 0 1 0 1.16-1l-.11-.06-1.24-1.24a.75.75 0 0 0-1.06 1.06l.09.09-1.33 1.33a.75.75 0 0 0 0 1.06.77.77 0 0 0 .54.22zM5.84 21.16a.75.75 0 0 0 1.06 0l2.1-2.1 2.1 2.1a.75.75 0 0 0 1.23-.85.47.47 0 0 0-.13-.15L10.06 18l2.1-2.1a.75.75 0 0 0-1.06-1.06L9 16.94l-2.1-2.1a.75.75 0 0 0-1.06 1.06l2.1 2.1-2.1 2.1a.75.75 0 0 0 0 1.06zm32.5 3.09H5.66a.75.75 0 0 0 0 1.5h32.68a.75.75 0 0 0 0-1.5z"/></g></g></svg>