<svg viewBox="0 0 90 90" xmlns="http://www.w3.org/2000/svg" xmlns:xlink="http://www.w3.org/1999/xlink"><clipPath id="a"><circle cx="45" cy="45" r="45"/></clipPath><rect fill="#89ccff" height="90" opacity=".25" rx="45" width="90"/><g clip-path="url(#a)"><path d="m-10-3h112v78h-112z" fill="#1c5894"/><rect fill="#287ed9" height="18" rx="5" width="104" x="-10" y="45"/><path d="m58.16 52.21a8.12 8.12 0 0 0 -6.16 8v29.79h16v-30a8 8 0 0 0 -9.84-7.79z" fill="#5ca5fc"/><path d="m60 53a5.09 5.09 0 0 0 -5 5.17v7.83c0 1.66 2.24 3 5 3s5-1.34 5-3v-7.83a5.09 5.09 0 0 0 -5-5.17z" fill="#1c5894"/><rect fill="#287ed9" height="18" rx="2" width="18" x="12" y="-3"/><rect fill="#287ed9" height="18" rx="2" width="18" x="36" y="-3"/><rect fill="#287ed9" height="18" rx="2" width="18" x="60" y="-3"/><rect fill="#1c5894" height="18" rx="2" width="18" x="84" y="-3"/><g fill="#287ed9"><rect height="18" rx="2" width="18" y="21"/><rect height="18" rx="2" width="18" x="24" y="21"/><rect height="18" rx="2" width="18" x="48" y="21"/><rect height="18" rx="2" width="18" x="72" y="21"/></g><path d="m82.6 29.72a1.94 1.94 0 0 1 1.4 1.81 2.43 2.43 0 0 1 -2.56 2.47h-3.44v-8h3.22a2.16 2.16 0 0 1 2.39 2.25 1.52 1.52 0 0 1 -1.01 1.47zm-1.6-.61a.7.7 0 0 0 .69-.76.68.68 0 0 0 -.71-.76h-1.21v1.53zm-1.27 1.5v1.81h1.57a.85.85 0 0 0 .81-.93.84.84 0 0 0 -.83-.88zm-43.12 1.64a3.87 3.87 0 0 1 -3.3 1.75 4 4 0 1 1 3.28-6.29l-1.42 1a2.36 2.36 0 1 0 0 2.6zm20.39-1.25 1.37-5h1.87l-2.45 8h-1.57l-2.45-8h1.85zm-44.17 3h-2.11l-1.72-2.8-1.72 2.8h-2.11l2.76-4.27-2.52-3.73h2.15l1.44 2.32 1.44-2.32h2.12l-2.56 3.73zm83.92-22.84h-2.15v-3.8h-3.24v3.8h-2.11v-9.55h2.11v3.84h3.24v-3.84h2.14zm-49.23-9.16v1.58h-3.26v1.7h2.59v1.57h-2.59v3.15h-1.78v-8zm23.23 2.4a2.2 2.2 0 0 0 -1.65-.77 2.32 2.32 0 0 0 -2.26 2.37 2.33 2.33 0 0 0 2.26 2.4c.79 0 1.78-.45 1.8-1.22h-1.06v-1.42h3.06c0 2.93-1.56 4.24-3.8 4.24a4 4 0 0 1 0-8 3.9 3.9 0 0 1 3 1.31l-1.3 1.09zm-53.14 5.6v-8h3.14c2.32 0 3.63 1.74 3.63 4s-1.31 4-3.63 4zm3.14-1.63c1.25 0 1.85-1.1 1.85-2.37s-.62-2.4-1.85-2.4h-1.35v4.77z" fill="#f8fbfa"/></g></svg>