<svg viewBox="0 0 90 90" xmlns="http://www.w3.org/2000/svg" xmlns:xlink="http://www.w3.org/1999/xlink"><clipPath id="a"><circle cx="45" cy="45" r="45"/></clipPath><rect fill="#89ccff" height="90" opacity=".25" rx="45" width="90"/><g clip-path="url(#a)"><path d="m62 69a6.26 6.26 0 0 0 -6.45-6h-55.55v12h55.55a6.26 6.26 0 0 0 6.45-6z" fill="#5ca5fc"/><path d="m57.77 71h-6.54a4.12 4.12 0 0 0 -4.23 4h15a4.12 4.12 0 0 0 -4.23-4zm5.75-56h-37c0 9.48 6 17.4 14.16 19.53a5 5 0 0 0 -.68 2.47 5 5 0 0 0 4 4.9v3.28a3 3 0 0 0 0 5.63v6.19c-5.05.3-9 2.86-9 6h20c0-3.11-3.95-5.67-9-6v-6.18a3 3 0 0 0 0-5.63v-3.29a5 5 0 0 0 4-4.9 5 5 0 0 0 -.68-2.47c8.14-2.11 14.2-10.04 14.2-19.53z" fill="#1c5894"/><path d="m45 18 1.42 4.58h4.58l-3.71 2.84 1.42 4.58-3.71-2.83-3.71 2.83 1.42-4.58-3.71-2.84h4.58z" fill="#f8fbfa"/></g></svg>