<svg xmlns="http://www.w3.org/2000/svg" viewBox="0 0 150 150"><defs><clipPath id="a"><rect width="150" height="150" rx="74.76" ry="74.76" fill="none"/></clipPath></defs><g data-name="Grafika"><rect width="150" height="150" rx="74.76" ry="74.76" fill="#89ccff" opacity=".25"/><g clip-path="url(#a)"><path d="M113 100l-18 18H38.77a1.88 1.88 0 0 1-1.77-2V36a1.88 1.88 0 0 1 1.77-2H50v-7a2 2 0 0 1 2-2 2 2 0 0 1 2 2v7h42v-7a2 2 0 0 1 2-2 2 2 0 0 1 2 2v7h11.19a1.89 1.89 0 0 1 1.81 2z" fill="#287ed9"/><path d="M113 49H37V36a1.88 1.88 0 0 1 1.77-2H50v-7a2 2 0 0 1 2-2 2 2 0 0 1 2 2v7h42v-7a2 2 0 0 1 2-2 2 2 0 0 1 2 2v7h11.19a1.89 1.89 0 0 1 1.81 2z" fill="#1c5894"/><path d="M113 100l-18 18v-15.88a2.18 2.18 0 0 1 2.23-2.12z" fill="#5ca5fc"/><path fill="#f8fbfa" d="M37 48.96h76v2H37zM57 89c-1.9-1.93-3-4.42-3-9.36v-.07c0-7.35 3.66-13.12 9.86-13.12A9.72 9.72 0 0 1 70 68.64a1.32 1.32 0 0 1-.64 2.45 1.37 1.37 0 0 1-.75-.24A7.6 7.6 0 0 0 63.73 69c-4.3 0-7 4.42-6.95 10.67A7.66 7.66 0 0 1 63.52 76c4.41 0 8.2 2.9 8.2 7.42v.07c0 4.66-3.69 8-8.51 8A8.53 8.53 0 0 1 57 89zm12-5.49v-.07c0-3-2.37-5.18-5.8-5.18s-5.93 2.59-5.93 5.28v.07c0 3.07 2.51 5.42 6 5.42A5.42 5.42 0 0 0 69 83.56zm7-4.44V79c0-6.77 4-12.5 10.07-12.5s10 5.66 10 12.43V79c0 6.77-3.93 12.5-10 12.5S76 85.84 76 79.07zm17.25 0V79c0-5.28-2.85-10-7.25-10s-7.22 4.63-7.22 9.94V79c0 5.28 2.85 10 7.29 10s7.15-4.65 7.15-9.93z"/></g></g></svg>