<svg viewBox="0 0 90 90" xmlns="http://www.w3.org/2000/svg" xmlns:xlink="http://www.w3.org/1999/xlink"><clipPath id="a"><rect height="90" rx="45" width="90"/></clipPath><g clip-path="url(#a)"><rect fill="#89ccff" height="90" opacity=".25" rx="45" width="90"/><path d="m0 10h90v10h-90z" fill="#1c5894"/><path d="m0 20h90v10h-90z" fill="#287ed9"/><path d="m74 26h-17a1 1 0 0 1 0-2h17a1 1 0 0 1 0 2z" fill="#f8fbfa"/><path d="m57 22a3 3 0 0 0 -2.82 2h-3.18a1 1 0 0 0 0 2h3.18a3 3 0 1 0 2.82-4z" fill="#89ccff"/><path d="m15 30h30v36a2 2 0 0 1 -2 2h-26a2 2 0 0 1 -2-2z" fill="#1c5894"/><path d="m15 20h30v10h-30z" fill="#89ccff"/><path d="m15 48h30v8h-30z" fill="#287ed9"/><g fill="none" stroke-linecap="round" stroke-miterlimit="10" stroke-width="2"><path d="m20 44h20" stroke="#5ca5fc"/><path d="m20 52h20" stroke="#89ccff"/><path d="m20 60h20m-20-24h20" stroke="#5ca5fc"/><path d="m20 25h20" stroke="#1c5894"/></g></g></svg>