<svg viewBox="0 0 90 90" xmlns="http://www.w3.org/2000/svg" xmlns:xlink="http://www.w3.org/1999/xlink"><clipPath id="a"><circle cx="45" cy="45" r="45"/></clipPath><rect fill="#89ccff" height="90" opacity=".25" rx="45" width="90"/><g clip-path="url(#a)"><circle cx="45" cy="45" fill="#1c5894" r="21"/><path d="m45 55a1 1 0 0 1 -.72-.3l-7.64-7.86a5.74 5.74 0 0 1 -1.23-1.89 5.89 5.89 0 0 1 0-4.36 5.74 5.74 0 0 1 1.23-1.9 5.41 5.41 0 0 1 1.83-1.26 5.59 5.59 0 0 1 4.29 0 5.46 5.46 0 0 1 1.85 1.26 5.33 5.33 0 0 1 .38.43 5.69 5.69 0 0 1 .38-.43 5.47 5.47 0 0 1 1.85-1.26 5.59 5.59 0 0 1 4.29 0 5.42 5.42 0 0 1 1.84 1.27 5.73 5.73 0 0 1 1.23 1.89 5.89 5.89 0 0 1 0 4.36 5.75 5.75 0 0 1 -1.23 1.89l-5.44 5.61-2.19 2.25a1 1 0 0 1 -.72.3zm-4.37-16a3.59 3.59 0 0 0 -1.38.28 3.43 3.43 0 0 0 -1.16.8 3.71 3.71 0 0 0 -.81 1.25 3.89 3.89 0 0 0 0 2.88 3.72 3.72 0 0 0 .81 1.24l6.91 7.12 1.47-1.51 5.45-5.62a3.72 3.72 0 0 0 .8-1.23 3.9 3.9 0 0 0 0-2.88 3.7 3.7 0 0 0 -.81-1.24 3.43 3.43 0 0 0 -1.17-.81 3.55 3.55 0 0 0 -2.76 0 3.43 3.43 0 0 0 -1.18.81 3.74 3.74 0 0 0 -.87 1.43 1 1 0 0 1 -1.89 0 3.73 3.73 0 0 0 -.87-1.42 3.42 3.42 0 0 0 -1.17-.82 3.54 3.54 0 0 0 -1.37-.28z" fill="#f8fbfa"/><path d="m45 60a8 8 0 0 0 -8 8v22h16v-22a8 8 0 0 0 -8-8z" fill="#5ca5fc"/><path d="m45 61a5.09 5.09 0 0 0 -5 5.17v7.83c0 1.66 2.24 3 5 3s5-1.34 5-3v-7.83a5.09 5.09 0 0 0 -5-5.17z" fill="#1c5894"/></g></svg>