<svg fill="none" height="36" viewBox="0 0 36 36" width="36" xmlns="http://www.w3.org/2000/svg"><g fill="#fff"><path d="m18 24c-5.4 0-9.64-5.27-9.82-5.5-.11191-.1426-.17274-.3187-.17274-.5s.06083-.3574.17274-.5c.18-.23 4.42-5.5 9.82-5.5s9.64 5.27 9.82 5.5c.1119.1426.1727.3187.1727.5s-.0608.3574-.1727.5c-.18.23-4.42 5.5-9.82 5.5zm-8.12-6c1.14 1.25 4.4 4.39 8.12 4.39s7-3.14 8.12-4.38c-1.12-1.26-4.4-4.4-8.12-4.4s-7 3.14-8.12 4.39z"/><path d="m18 22c2.2091 0 4-1.7909 4-4s-1.7909-4-4-4-4 1.7909-4 4 1.7909 4 4 4z"/></g></svg>