<svg xmlns="http://www.w3.org/2000/svg" width="27" height="27"><path fill="#3398DB" fill-rule="evenodd" d="M9.059 4h8.882c.287 0 .558.075.814.224a1.6 1.6 0 0 1 .589.58l4.45 7.723c.137.237.206.505.206.804 0 .3-.069.574-.206.823l-4.45 7.723c-.137.237-.334.43-.59.58-.255.15-.526.224-.813.224H9.06c-.287 0-.558-.075-.814-.224a1.594 1.594 0 0 1-.589-.58l-4.45-7.723A1.679 1.679 0 0 1 3 13.331c0-.299.069-.567.206-.804l4.45-7.723c.137-.237.334-.43.59-.58.255-.15.526-.224.813-.224zm.075 4.507c-.063.012-.106.053-.131.121-.025.069-.025.128 0 .178l2.543 4.525-2.543 4.544c-.038.05-.035.113.009.187.044.075.097.113.159.113h1.533c.075 0 .131-.038.169-.113l2.599-4.637a.166.166 0 0 0 .019-.075l.037.075 2.58 4.637c.038.075.1.113.188.113h1.533c.062 0 .115-.038.159-.113.044-.074.047-.137.01-.187l-2.544-4.544 2.543-4.525a.222.222 0 0 0-.018-.196c-.038-.069-.088-.103-.15-.103h-1.533a.193.193 0 0 0-.187.112l-2.618 4.694c0-.038-.007-.063-.019-.075l-2.6-4.62c-.037-.074-.093-.111-.168-.111h-1.57z"/></svg>