<svg fill="none" viewBox="0 0 135 40" xmlns="http://www.w3.org/2000/svg" xmlns:xlink="http://www.w3.org/1999/xlink"><linearGradient id="a" gradientUnits="userSpaceOnUse" x1="21.8" x2="5.01999" y1="8.71" y2="25.49"><stop offset="0" stop-color="#00a0ff"/><stop offset=".01" stop-color="#00a1ff"/><stop offset=".26" stop-color="#00beff"/><stop offset=".51" stop-color="#00d2ff"/><stop offset=".76" stop-color="#00dfff"/><stop offset="1" stop-color="#00e3ff"/></linearGradient><linearGradient id="b" gradientUnits="userSpaceOnUse" x1="33.83" x2="9.64" y1="20" y2="20"><stop offset="0" stop-color="#ffe000"/><stop offset=".41" stop-color="#ffbd00"/><stop offset=".78" stop-color="#ffa500"/><stop offset="1" stop-color="#ff9c00"/></linearGradient><linearGradient id="c" gradientUnits="userSpaceOnUse" x1="24.83" x2="2.07" y1="22.3" y2="45.05"><stop offset="0" stop-color="#ff3a44"/><stop offset="1" stop-color="#c31162"/></linearGradient><linearGradient id="d" gradientUnits="userSpaceOnUse" x1="7.29999" x2="17.46" y1=".179987" y2="10.34"><stop offset="0" stop-color="#32a071"/><stop offset=".07" stop-color="#2da771"/><stop offset=".48" stop-color="#15cf74"/><stop offset=".8" stop-color="#06e775"/><stop offset="1" stop-color="#00f076"/></linearGradient><path d="m130 0h-125c-2.76142 0-5 2.23858-5 5v30c0 2.7614 2.23858 5 5 5h125c2.761 0 5-2.2386 5-5v-30c0-2.76142-2.239-5-5-5z" fill="#000"/><path d="m130 .8c1.114 0 2.182.4425 2.97 1.23015s1.23 1.85594 1.23 2.96985v30c0 1.1139-.442 2.1822-1.23 2.9698-.788.7877-1.856 1.2302-2.97 1.2302h-125c-1.11391 0-2.1822-.4425-2.96985-1.2302-.78765-.7876-1.23015-1.8559-1.23015-2.9698v-30c0-1.11391.4425-2.1822 1.23015-2.96985s1.85594-1.23015 2.96985-1.23015zm0-.8h-125c-1.32608 0-2.59785.526784-3.53553 1.46447-.937686.93768-1.46447 2.20945-1.46447 3.53553v30c0 1.3261.526784 2.5979 1.46447 3.5355.93768.9377 2.20945 1.4645 3.53553 1.4645h125c1.326 0 2.598-.5268 3.536-1.4645.937-.9376 1.464-2.2094 1.464-3.5355v-30c0-1.32608-.527-2.59785-1.464-3.53553-.938-.937686-2.21-1.46447-3.536-1.46447z" fill="#a6a6a6"/><path d="m47.42 10.24c.017.3668-.0407.7332-.1696 1.077-.129.3438-.3264.6578-.5804.923-.2836.2946-.6261.5261-1.0052.6795-.379.1533-.7861.2251-1.1948.2105-.62-.0049-1.2248-.1926-1.7386-.5396-.5138-.3471-.9137-.8381-1.1497-1.4115s-.2975-1.20363-.1768-1.81181c.1206-.60818.4181-1.16723.8551-1.60709.2872-.29321.6315-.52438 1.0117-.67918.3801-.15481.788-.22996 1.1983-.22082.4228-.00141.8413.08367 1.23.25.3619.14596.684.37556.94.67l-.53.53c-.1996-.2374-.4517-.42514-.7363-.54836s-.594-.17856-.9037-.16164c-.3124-.00153-.6218.06003-.9098.18099s-.5486.29883-.7662.52295c-.2175.22412-.3876.48986-.5.78131-.1124.29144-.1648.60258-.154.91475-.0066.4661.1251.9238.3783 1.3152.2533.3914.6168.699 1.0446.8841.4279.185.901.2392 1.3596.1557.4587-.0835.8823-.301 1.2175-.625.3077-.3335.4852-.7665.5-1.22h-2.17v-.72h2.91c.0267.14852.0401.2991.04.45zm4.58-2.5h-2.7v1.9h2.46v.72h-2.46v1.9h2.7v.74h-3.5v-6h3.5zm3.28 5.26h-.77v-5.26h-1.68v-.74h4.17v.74h-1.72zm4.66 0v-6h.77v6zm4.19 0h-.77v-5.26h-1.68v-.74h4.12v.74h-1.67zm9.48-.78c-.5846.5813-1.3755.9077-2.2.9077s-1.6154-.3264-2.2-.9077c-.5682-.6015-.8848-1.3976-.8848-2.225 0-.82744.3166-1.62352.8848-2.225.2881-.29025.6309-.52062 1.0085-.67783.3775-.1572.7825-.23814 1.1915-.23814s.814.08094 1.1915.23814c.3776.15721.7204.38758 1.0085.67783.5705.60033.8886 1.39685.8886 2.225 0 .8282-.3181 1.6247-.8886 2.225zm-3.83-.5c.4329.4311 1.019.6732 1.63.6732s1.1971-.2421 1.63-.6732c.4272-.471.6639-1.0841.6639-1.72 0-.63589-.2367-1.24902-.6639-1.72-.4329-.43112-1.019-.67317-1.63-.67317s-1.1971.24205-1.63.67317c-.4272.47098-.6639 1.08411-.6639 1.72 0 .6359.2367 1.249.6639 1.72zm5.8 1.28v-6h.94l2.92 4.67v-4.67h.77v6h-.8l-3.05-4.89v4.89z" fill="#fff" stroke="#fff" stroke-miterlimit="10" stroke-width=".2"/><path d="m68.14 21.75c-.8397.0039-1.6594.2566-2.3557.726-.6963.4693-1.2379 1.1345-1.5565 1.9114s-.3999 1.6308-.2337 2.4539c.1663.8231.5726 1.5785 1.1678 2.1709.5951.5924 1.3524.9952 2.1763 1.1575.8239.1624 1.6774.0771 2.4528-.2452.7754-.3222 1.438-.867 1.9041-1.5654.4661-.6985.7149-1.5194.7149-2.3591.0082-.5621-.0969-1.12-.3088-1.6407-.212-.5206-.5265-.9933-.9249-1.3898-.3985-.3965-.8726-.7089-1.3942-.9184s-1.0801-.3119-1.6421-.3011zm0 6.83c-.5164.0361-1.0318-.084-1.479-.3446-.4473-.2607-.8058-.6499-1.029-1.117-.2231-.4671-.3006-.9905-.2223-1.5023.0783-.5117.3087-.988.6613-1.3671.3526-.379.811-.6432 1.3158-.7582.5047-.115 1.0324-.0756 1.5144.1133.482.1888.896.5183 1.1883.9456s.4492.9326.4505 1.4503c.0161.328-.0336.6559-.1463.9644-.1126.3085-.2859.5913-.5096.8318-.2236.2404-.4932.4337-.7928.5683-.2995.1346-.623.2079-.9513.2155zm-9.31-6.83c-.8401.002-1.6609.2529-2.3584.7211-.6976.4682-1.2408 1.1326-1.5609 1.9094-.3202.7768-.4029 1.631-.2378 2.4547.1651.8238.5707 1.5801 1.1654 2.1735.5948.5934 1.3521.9972 2.1762 1.1604.8242.1631 1.6782.0784 2.4542-.2436.776-.3219 1.4392-.8667 1.9057-1.5654.4666-.6987.7156-1.52.7156-2.3601.0081-.5621-.0969-1.12-.3088-1.6407-.212-.5206-.5265-.9933-.9249-1.3898-.3985-.3965-.8726-.7089-1.3942-.9184s-1.0801-.3119-1.6421-.3011zm0 6.83c-.5167.0381-1.0329-.0801-1.4814-.3394-.4485-.2594-.8085-.6477-1.0332-1.1145-.2248-.4668-.3037-.9905-.2267-1.5028s.3065-.9895.6586-1.3696.8104-.6453 1.3154-.7613c.5049-.1159 1.0331-.0771 1.5157.1113s.8972.5178 1.19.9452.4502.933.4516 1.4511c.0161.328-.0336.6559-.1463.9644-.1126.3085-.2859.5913-.5096.8318-.2236.2404-.4932.4337-.7928.5683-.2995.1346-.623.2079-.9513.2155zm-11.09-5.52v1.8h4.32c-.0677.8478-.4202 1.6478-1 2.27-.4322.4402-.9518.7851-1.5253 1.0125-.5735.2273-1.1883.3321-1.8047.3075-1.273 0-2.4939-.5057-3.3941-1.4059s-1.4059-2.1211-1.4059-3.3941.5057-2.4939 1.4059-3.3941 2.1211-1.4059 3.3941-1.4059c1.2178-.0199 2.3938.444 3.27 1.29l1.27-1.27c-.5915-.599-1.2973-1.0731-2.0754-1.3943-.7781-.3213-1.6128-.483-2.4546-.4757-.889-.0346-1.7758.1106-2.6074.427-.8315.3163-1.5906.7973-2.2318 1.414-.6413.6167-1.1514 1.3566-1.4998 2.1752s-.5281 1.6991-.5281 2.5888.1797 1.7702.5281 2.5888.8585 1.5584 1.4998 2.1752c.6412.6167 1.4003 1.0977 2.2318 1.414.8316.3164 1.7184.4616 2.6074.427.856.0387 1.7103-.1064 2.5054-.4255.7952-.3191 1.5128-.8049 2.1046-1.4245 1.0477-1.1511 1.607-2.6642 1.56-4.22.0032-.379-.0303-.7575-.1-1.13zm45.31 1.4c-.2608-.7673-.7485-1.4372-1.3985-1.9212-.65-.4839-1.4317-.759-2.2415-.7888-.547-.0011-1.0884.1101-1.5908.3265-.5023.2165-.9549.5337-1.3298.932-.3749.3984-.6641.8693-.8498 1.3839-.1856.5145-.2638 1.0617-.2296 1.6076-.0122.5589.0885 1.1145.2959 1.6337.2073.5191.5172.9912.9112 1.3879.3939.3967.8637.7099 1.3813.921.5177.211 1.0726.3156 1.6316.3074.6995.0038 1.389-.166 2.0068-.4941s1.1446-.8043 1.5332-1.3859l-1.45-1c-.2164.3608-.5228.6592-.8892.866-.3663.2069-.7801.3151-1.2008.314-.4332.0165-.8613-.0977-1.2287-.3278-.3674-.23-.657-.5653-.8313-.9622l5.69-2.35zm-5.8 1.42c-.0203-.3093.0214-.6196.1225-.9126s.2597-.5629.4665-.7938c.2067-.231.4575-.4183.7375-.5512.2801-.1328.5838-.2084.8935-.2224.3226-.0213.6443.0527.9252.2127s.5086.399.6548.6873zm-4.62 4.12h1.87v-12.5h-1.87zm-3.06-7.3h-.07c-.2818-.3151-.6271-.5671-1.0131-.7394-.386-.1724-.8041-.2612-1.2269-.2606-1.0928.053-2.1233.5244-2.878 1.3166-.7547.7921-1.1757 1.8443-1.1757 2.9384s.421 2.1463 1.1757 2.9384c.7547.7922 1.7852 1.2636 2.878 1.3166.4238.0071.8439-.0787 1.2309-.2515.3871-.1728.7315-.4283 1.0091-.7485h.06v.61c0 1.63-.87 2.5-2.27 2.5-.4663-.0109-.9188-.1603-1.2999-.4292s-.6735-.6452-.8401-1.0808l-1.63.68c.3068.7464.8296 1.384 1.5013 1.8312.6718.4473 1.4617.6836 2.2687.6788 2.19 0 4-1.29 4-4.43v-7.57h-1.72zm-2.14 5.88c-.645-.0569-1.2454-.3533-1.6827-.8308-.4374-.4776-.6799-1.1017-.6799-1.7492 0-.6476.2425-1.2716.6799-1.7492.4373-.4775 1.0377-.774 1.6827-.8308.3198.0164.6331.0967.9215.236.2883.1394.5458.3351.7573.5755.2116.2404.3729.5208.4744.8245s.1412.6247.1168.944c.0273.3207-.0108.6436-.1118.9491-.1011.3056-.2631.5875-.4762.8287-.2132.2412-.473.4366-.7638.5745s-.6066.2153-.9282.2277zm24.38-11.08h-4.47v12.5h1.87v-4.74h2.61c.533.0383 1.068-.0336 1.572-.2113.504-.1776.966-.4572 1.357-.8212s.703-.8048.916-1.2947c.214-.4899.324-1.0185.324-1.5528s-.11-1.0629-.324-1.5528c-.213-.4899-.525-.9307-.916-1.2947s-.853-.6436-1.357-.8212c-.504-.1777-1.039-.2496-1.572-.2113zm0 6h-2.61v-4.26h2.65c.569 0 1.114.226 1.517.6283.402.4022.628.9478.628 1.5167s-.226 1.1145-.628 1.5167c-.403.4023-.948.6283-1.517.6283zm11.53-1.8c-.681-.0407-1.359.1184-1.95.4577-.592.3393-1.071.8441-1.38 1.4523l1.66.69c.164-.3017.411-.5492.713-.7126.302-.1633.645-.2354.987-.2074.237-.0277.478-.0079.708.0583.229.0662.443.1775.63.3274.186.1499.34.3353.454.5455s.184.441.208.6788v.13c-.601-.318-1.27-.4829-1.95-.48-1.79 0-3.6 1-3.6 2.81.018.3859.113.7644.279 1.113.166.3487.401.6604.69.9168s.627.4522.993.5759.753.1728 1.138.1443c.471.0338.942-.0598 1.365-.2709.422-.2111.78-.5321 1.035-.9291h.06v1h1.8v-4.81c0-2.19-1.66-3.46-3.79-3.46zm-.23 6.85c-.61 0-1.46-.31-1.46-1.06 0-1 1.06-1.33 2-1.33.594-.0147 1.181.1304 1.7.42-.063.5414-.319 1.042-.721 1.4095s-.924.5772-1.469.5905zm10.63-6.55-2.14 5.42h-.06l-2.22-5.42h-2l3.33 7.58-1.9 4.21h1.95l5.12-11.79zm-16.81 8h1.87v-12.5h-1.87z" fill="#fff"/><path d="m10.44 7.54c-.3259.39111-.49045.8918-.46001 1.4v22.12c-.03044.5082.13411 1.0089.46001 1.4l.07.07 12.39-12.38v-.29l-12.39-12.39z" fill="url(#a)"/><path d="m27 24.28-4.1-4.13v-.29l4.1-4.14.09.05 4.91 2.79c1.4.79 1.4 2.09 0 2.89l-4.89 2.78z" fill="url(#b)"/><path d="m27.12 24.22-4.22-4.22-12.46 12.46c.2854.2509.6494.3941 1.0292.4051.3798.0109.7515-.1111 1.0508-.3451l14.61-8.3" fill="url(#c)"/><path d="m27.12 15.78-14.61-8.30001c-.2994-.23399-.671-.35605-1.0508-.3451-.3798.01096-.7438.15425-1.0292.4051l12.47 12.46001z" fill="url(#d)"/><path d="m27 24.13-14.49 8.25c-.2887.2159-.6395.3325-1 .3325s-.7113-.1166-1-.3325l-.07.07.07.07c.2881.2174.6391.335 1 .335s.7119-.1176 1-.335l14.61-8.3z" fill="#000" opacity=".2"/><path d="m10.44 32.32c-.3259-.3911-.49045-.8918-.46001-1.4v.15c-.03044.5082.13411 1.0089.46001 1.4l.07-.07zm21.56-11.02-5 2.83.09.09 4.91-2.78c.2786-.1309.5177-.3329.6933-.5857.1756-.2529.2814-.5475.3067-.8543-.0562.2787-.1756.5408-.349.7662-.1733.2253-.3961.408-.651.5338z" fill="#000" opacity=".12"/><path d="m12.51 7.62 19.49 11.08c.255.1258.4777.3085.651.5338.1734.2254.2928.4875.349.7662-.0253-.3068-.1311-.6014-.3067-.8543-.1755-.2528-.4147-.4548-.6933-.5857l-19.49-11.08c-1.4-.79-2.54-.13-2.54 1.47v.15c.03-1.61 1.15-2.27 2.54-1.48z" fill="#fff" opacity=".25"/></svg>