<svg xmlns="http://www.w3.org/2000/svg" viewBox="0 0 24 24"><g data-name="Layer 1" fill="currentColor"><path d="M22 3H2a1 1 0 0 0-1 1v16a1 1 0 0 0 1 1h17.59l-7.54-7.54-2.12-2.12 1.41-1.41 10.73 10.73-.34.34H22a1 1 0 0 0 1-1V4a1 1 0 0 0-1-1z" opacity=".1"/><path d="M11.34 9.93l10.73 10.73-1.41 1.41L9.93 11.34l1.41-1.41m0-1.13l-.57.57-1.41 1.41-.57.57.57.57 10.73 10.72.57.57.57-.57 1.41-1.41.57-.57-.57-.57L11.91 9.36l-.57-.57z"/><path d="M9.929 11.346l1.414-1.414 2.121 2.122-1.414 1.414z"/><path d="M4.89 11.84l.36.84a.76.76 0 0 0 1 .41l.86-.31a.16.16 0 0 1 .16.27l-.69.6a.76.76 0 0 0-.1 1l.56.72a.16.16 0 0 1-.21.24L6 15.18a.76.76 0 0 0-1 .22l-.52.76a.16.16 0 0 1-.3-.16l.2-.89a.76.76 0 0 0-.53-.89L3 14a.16.16 0 0 1 0-.31l.91-.08a.76.76 0 0 0 .69-.78v-.92a.16.16 0 0 1 .29-.07z" opacity=".66"/><path d="M10.11 3.5v1.64a.2.2 0 0 0 .23.19L12 5.11 10.6 6a.2.2 0 0 0-.05.29l1 1.29-1.44-.79a.2.2 0 0 0-.28.1l-.62 1.49V6.74a.2.2 0 0 0-.23-.19l-1.62.22 1.4-.85a.2.2 0 0 0 .05-.29l-1-1.29 1.44.79A.2.2 0 0 0 9.49 5z" opacity=".5"/><path d="M5 6.06l-.12 1a.34.34 0 0 0 .28.38l1 .18a.11.11 0 0 1 0 .22l-1 .2a.34.34 0 0 0-.27.38l.14 1a.11.11 0 0 1-.21.07l-.5-.89a.34.34 0 0 0-.45-.14L3 8.95a.11.11 0 0 1-.13-.18L3.55 8a.34.34 0 0 0 0-.47l-.71-.73A.11.11 0 0 1 3 6.63l.93.42a.34.34 0 0 0 .45-.15l.44-.9a.11.11 0 0 1 .18.06z"/></g></svg>