<svg data-name="Layer 1" xmlns="http://www.w3.org/2000/svg" viewBox="0 0 24 24"><path d="M22.36 10.55l-3.12-.47a7.45 7.45 0 0 0-.76-1.85l1.87-2.53a.75.75 0 0 0-.07-1l-1-1a.75.75 0 0 0-1-.07l-2.51 1.89a7.44 7.44 0 0 0-1.85-.76l-.47-3.12a.75.75 0 0 0-.74-.64h-1.42a.75.75 0 0 0-.74.64l-.47 3.12a7.44 7.44 0 0 0-1.85.76L5.7 3.65a.75.75 0 0 0-1 .07l-1 1a.75.75 0 0 0-.07 1l1.89 2.51a7.45 7.45 0 0 0-.76 1.85l-3.12.47a.75.75 0 0 0-.64.74v1.42a.75.75 0 0 0 .64.74l3.12.47a7.45 7.45 0 0 0 .76 1.85L3.65 18.3a.75.75 0 0 0 .07 1l1 1a.75.75 0 0 0 1 .07l2.53-1.87a7.45 7.45 0 0 0 1.85.76l.47 3.12a.75.75 0 0 0 .74.64h1.42a.75.75 0 0 0 .74-.64l.47-3.12a7.45 7.45 0 0 0 1.85-.76l2.53 1.87a.75.75 0 0 0 1-.07l1-1a.75.75 0 0 0 .07-1l-1.87-2.53a7.45 7.45 0 0 0 .76-1.85l3.12-.47a.75.75 0 0 0 .64-.74v-1.42a.75.75 0 0 0-.68-.74zM12 15a3 3 0 1 1 3-3 3 3 0 0 1-3 3z"/></svg>